<svg xmlns="http://www.w3.org/2000/svg" width="459.439" height="64.69" viewBox="0 0 459.439 64.69">
  <g id="グループ_17693" data-name="グループ 17693" transform="translate(-120.281 -4345.804)">
    <g id="text" transform="translate(7 305.181)">
      <path id="パス_72310" data-name="パス 72310" d="M25.6-9.112a5.125,5.125,0,0,0-1.224.034c-.612.2-.952-.1-1.224,0a6.985,6.985,0,0,1-1.462,0c-.578.034-.748-.034-1.394,0-.714.068-.85-.136-1.394,0-.544.2-.85,0-1.156.034-.476-.136-.85.2-1.19-.068a7.053,7.053,0,0,0-.714-.034,3.139,3.139,0,0,1-.51-.034.62.62,0,0,0-.816.612c0,.34.238.68.646.544.714.068,1.292,0,1.9.034a1.4,1.4,0,0,1,1.292.884,10.562,10.562,0,0,1,0,2.074A3.731,3.731,0,0,1,17.952-3.4c-.442.612-.578,1.122-1.02,1.224a2.625,2.625,0,0,1-1.428.782,6.284,6.284,0,0,1-1.666.272,6.062,6.062,0,0,1-1.462-.2,2.865,2.865,0,0,1-1.394-.544,6.025,6.025,0,0,1-1.224-.884c-.34-.476-.816-.544-.952-1.122-.1-.442-.17-.442-.51-.952.068-.2-.51-.816-.374-1.02a1.535,1.535,0,0,0-.34-1.088c-.238-.17-.238-.748-.238-1.122a4.2,4.2,0,0,1-.272-2.312A7.849,7.849,0,0,1,7-12.512a14.284,14.284,0,0,0,.1-2.346,7.514,7.514,0,0,1,.136-1.19,2.536,2.536,0,0,0,.2-1.224,2.027,2.027,0,0,0,.272-1.156c.136-.578.374-.714.374-1.156-.034-.442.408-.68.442-1.088a2.061,2.061,0,0,1,.578-.986,6.275,6.275,0,0,1,1.054-1.258c.374-.374.918-.612,1.326-.952a7.361,7.361,0,0,0,1.5-.646c.612-.068,1.156-.238,1.6-.238.646.2,1.054,0,1.666.272a5.189,5.189,0,0,1,1.564.714,4.6,4.6,0,0,0,1.292,1.122c.2.51.816.782,1.054,1.326a1.741,1.741,0,0,0,.544,1.088c0,.612.476.918.408,1.156a.823.823,0,0,0,.1.476.912.912,0,0,1,.1.68,5.644,5.644,0,0,0,.17.884c.1.68,1.088.68,1.156.068.068-.238-.136-.476-.068-.85a9.022,9.022,0,0,0-.2-1.428c.17-.714-.068-.986-.068-1.8l.034-1.7c0-.68.17-.884.2-1.564.1-.34-.306-.544-.612-.544-.17,0-.272.068-.306.17a.415.415,0,0,1-.272.306,1.659,1.659,0,0,0-.544.612c-.17.238-.714.034-1.054-.238a1.411,1.411,0,0,0-.612-.238.88.88,0,0,1-.476-.306c-.442-.408-1.088-.476-1.36-.68a9.53,9.53,0,0,1-1.734-.476,2.2,2.2,0,0,0-.646-.068,3.921,3.921,0,0,1-1.258-.068H13.5c-.442,0-.68.2-1.156.068a1.357,1.357,0,0,1-.646.136,2.48,2.48,0,0,0-.612.068c-.306.34-.918.17-1.19.374-.2.17-.986.2-1.156.442-.374.1-.612.544-1.088.612-.476.34-.714.612-1.02.68-.476.476-.612.408-.952.816-.272.34-.714.374-.85.85-.068.34-.374.612-.782.986-.2.1-.2.306-.238.51a.448.448,0,0,1-.476.51c-.34.238-.34.782-.578,1.088a1.649,1.649,0,0,0-.272.646c-.034.238-.034.408-.238.51a4.305,4.305,0,0,0-.476,1.36c.17.306.136.442.034.578a1.157,1.157,0,0,0-.272.476c-.17.952-.034,1.632-.238,2.55,0,.068-.034.136-.034.2,0,.408.238.782.1,1.088a1.1,1.1,0,0,0,.1.612.611.611,0,0,1,.068.646.981.981,0,0,0,.2.578.53.53,0,0,1,.1.646c-.136.306.442.748.374,1.156.1.408.612.51.51,1.088a.8.8,0,0,0,.2.51,2.58,2.58,0,0,1,.408.51,6.361,6.361,0,0,0,.68.952,2.862,2.862,0,0,0,.782.884c0,.1.1.136.238.2a.433.433,0,0,1,.34.476A2.079,2.079,0,0,0,6.6-2.21c.612.068.612.51,1.02.612.544.136.612.544,1.054.544.238-.068.578.442,1.156.408A1.9,1.9,0,0,0,11.05-.34,6.992,6.992,0,0,0,12.138-.1a2.567,2.567,0,0,0,.782.1,1.658,1.658,0,0,0,.68-.1,1.174,1.174,0,0,0,.442.1,5.644,5.644,0,0,0,.884-.17,13.64,13.64,0,0,0,1.394-.2c.306.1.816-.408,1.36-.374.646-.034.748-.306,1.292-.476.51-.408.646-.272,1.258-.68.544,0,.68-.612,1.122-.782.17-.374.85-.544,1.02-.85.272-.578.68-.714.748-1.292V-5.95a.739.739,0,0,1,0-.714.954.954,0,0,0,.034-.476.71.71,0,0,1,.578-.85,14.1,14.1,0,0,1,1.7,0,.531.531,0,0,0,.612-.578C26.044-8.874,25.874-9.146,25.6-9.112ZM41.99-4.454c-.476.578-.578.918-.782,1.122-.136.578-.816.612-1.054,1.088-.612.544-.918.34-1.326.714a3.832,3.832,0,0,1-1.7.238,3.4,3.4,0,0,1-1.462-.17,2.439,2.439,0,0,1-1.122-.476,1.972,1.972,0,0,1-.884-.748c-.34-.374-.238-.544-.646-.986-.306-.34-.238-.952-.408-1.122-.2-.17-.17-.34-.17-.612a1.667,1.667,0,0,0-.1-.646A2.359,2.359,0,0,1,32.2-7.378a1.138,1.138,0,0,0-.034-.782,1.435,1.435,0,0,1,0-.544L32.2-8.84c.238-.306.408-.544.748-.544H35.36c.646-.17.816.1,1.6,0a5.007,5.007,0,0,1,1.6,0c.578.1,1.19-.068,2.108.034a8,8,0,0,0,1.972-.1c.272.068.578-.272.578-.68a.579.579,0,0,0-.034-.238,2.622,2.622,0,0,0-.544-1.87,1.169,1.169,0,0,1-.272-.476,1.377,1.377,0,0,0-.272-.442c-.272-.1-.238-.476-.646-.85a3.547,3.547,0,0,0-1.19-1.088,7.8,7.8,0,0,0-1.36-.782,2.582,2.582,0,0,0-1.5-.476c-.442.1-1.122-.2-1.462-.2-.068,0-.1.034-.136.034-.612.2-.952-.068-1.7.17a3.735,3.735,0,0,0-1.564.476c-.374.272-1.156.408-1.428.782-.306.34-1.02.442-1.258.986-.238.51-.748.612-.986,1.224-.238.578-.646.714-.782,1.428a.615.615,0,0,1-.1.646.71.71,0,0,0-.272.442,17.252,17.252,0,0,0-.306,1.9.663.663,0,0,0,.034.272,1.8,1.8,0,0,0-.034.408c0,.476.17.748.2,1.326a2.3,2.3,0,0,0,.476,1.6c.2.714.578.748.748,1.36a2.747,2.747,0,0,0,1.02,1.19.855.855,0,0,0,.408.238c.238.068.408.1.476.544A8.729,8.729,0,0,0,32.5-.612a4.869,4.869,0,0,0,1.564.442,2,2,0,0,0,.782.136H35.5A.941.941,0,0,1,35.8,0a6.284,6.284,0,0,1,.816-.034h.34a3.385,3.385,0,0,0,1.224-.238,4.053,4.053,0,0,0,1.87-.782l.68-.442c.1-.306.51-.51.85-.884.2-.272.476-.578.68-.884.136-.306.442-.408.544-.816.1-.272-.238-.578-.51-.578A.284.284,0,0,0,41.99-4.454Zm-9.35-7.99c.1-.408.068-.986.408-1.326a7.318,7.318,0,0,1,1.088-1.36,2.728,2.728,0,0,1,1.734-.51,2.494,2.494,0,0,1,1.666.544c.442.272.544.85.884,1.36.374.476.1,1.02.374,1.394a7.574,7.574,0,0,1,.068,1.5c.034.51-.1.68-.816.646-.952-.034-1.734.034-2.482,0-.544.034-1.7,0-2.346,0-.714,0-.986-.272-.884-1.054a.859.859,0,0,0,.1-.612A.752.752,0,0,1,32.64-12.444ZM63.512-1.5c-.238-.1-.34-.034-.612-.068a5.485,5.485,0,0,0-.748,0c-.476-.034-.578-.136-.612-.816-.034-.85-.034-2.414-.034-3.468a7.172,7.172,0,0,1,0-2.108,11.044,11.044,0,0,0,.034-2.584c-.272-.34-.17-.544-.136-.918a3.533,3.533,0,0,0,.034-.884,7.133,7.133,0,0,0-.2-1.122A1.375,1.375,0,0,1,61-14.11c-.034-.17-.068-.306-.2-.374-.374-.272-.748-.816-1.054-1.088a.717.717,0,0,0-.374-.17.941.941,0,0,1-.612-.374c-.374-.34-1.088-.1-1.394-.34-.374-.272-.918-.034-1.292-.034-.544.2-1.088.034-1.326.136-.374.2-1.054.476-1.36.68a5.171,5.171,0,0,0-1.564,1.02.515.515,0,0,1-.374.238c-.1,0-.2-.1-.238-.34-.068-.646.1-1.258.034-1.53a.6.6,0,0,0-.578-.408.664.664,0,0,0-.238.034,4.881,4.881,0,0,1-1.224.238,4.069,4.069,0,0,1-1.53.2c-.374.136-.646-.034-1.258.1-.748.1-1.122.034-1.5.1-.646.17-.442,1.122.1,1.02a3.941,3.941,0,0,1,1.122.1c.374.1.544.51.578,1.156.034.476-.034,1.258,0,1.938a4.06,4.06,0,0,0,0,1.7,9.292,9.292,0,0,0,0,1.7,9.845,9.845,0,0,1,0,1.734.861.861,0,0,0,.1.68.736.736,0,0,1-.1.884c0,.884-.068,1.564,0,2.312a1.546,1.546,0,0,1-.17.952.567.567,0,0,1-.51.306,7.984,7.984,0,0,0-.884.034c-.272.068-.612-.1-.748.136a.582.582,0,0,0-.238.442.475.475,0,0,0,.442.442h.2c.272,0,.51-.034.748-.034.34,0,.68.034,1.054.034h.272a16.911,16.911,0,0,1,1.768-.068A11.107,11.107,0,0,1,50.8-.476a6.554,6.554,0,0,1,1.632,0H52.5c.442,0,.646-.272.646-.51a.6.6,0,0,0-.238-.476c-.136-.2-.442-.034-.612-.1-.17-.034-.442,0-.544-.1-.374-.1-.51-.306-.544-.986-.034-.714-.034-1.36-.034-1.87-.34-.442-.272-.646-.136-.884a1.257,1.257,0,0,0,.17-.374c.068-.68-.2-.782,0-1.394.17-.238-.068-1.054,0-1.394-.17-.544.2-1.156,0-1.428a2.4,2.4,0,0,1,0-1.394c.2-.272-.068-.714,0-1.394a2.25,2.25,0,0,1,.952-1.122,5.059,5.059,0,0,1,1.224-.578,4.547,4.547,0,0,1,1.292-.34c.374.2,1.122.136,1.224.34.068.272.51.2.612.646a6.687,6.687,0,0,1,.306,2.21,15.527,15.527,0,0,0,0,2.516,1.215,1.215,0,0,1,.1.986.79.79,0,0,0,0,.68.825.825,0,0,1-.068.782c-.1.136,0,.272.068.408a.443.443,0,0,1-.034.408c-.17.272.136.646,0,1.088a5.4,5.4,0,0,0-.068,1.292c.068.952.068,1.6-.272,1.836a2.083,2.083,0,0,1-1.156.068c-.476.068-.612.952-.068,1.088.068,0,.136.034.2.034.2,0,.408-.068.646-.068.068,0,.136.034.2.034.17,0,.34.034.476.034.17,0,.34-.034.476-.034.2-.2.476-.034.612-.034.306,0,.578.068.85.068a1.577,1.577,0,0,0,.646-.136c.782-.034.986.068,1.87.1l.238.034c.34,0,.68-.1.986-.068h1.02c.17,0,.306-.2.306-.442A.552.552,0,0,0,63.512-1.5Zm4.012-19.686c.442.374.748.646,1.19.646a3.12,3.12,0,0,0,2.244-.51,1.873,1.873,0,0,0,.816-1.768,2.917,2.917,0,0,0-.612-1.53.617.617,0,0,1-.51-.374.536.536,0,0,0-.238-.238,1.851,1.851,0,0,0-.85-.306.431.431,0,0,0-.2.034,2.642,2.642,0,0,0-1.326.442c-.1.068-.1.272-.476.34-.408.612-.748.816-.51,1.6a2.043,2.043,0,0,0,.1.986.576.576,0,0,0,.2.272A.573.573,0,0,1,67.524-21.182ZM73.474-1.5a2.566,2.566,0,0,0-1.19-.068A.608.608,0,0,1,71.5-2.21c0-.85-.068-1.394,0-2.108a.991.991,0,0,1-.2-.51c0-.2.136-.34.17-.612A5.478,5.478,0,0,1,71.5-7.106,8.793,8.793,0,0,1,71.468-8.5c-.034-.51-.374-.782.034-1.428.068-.408-.272-.578-.068-1.156.034-.408-.306-.816.034-1.19.034-.68,0-1.632.068-2.074a6.792,6.792,0,0,1,.068-1.19,1.534,1.534,0,0,0,0-.884c-.238-.408-.646-.306-.918-.2-.68.374-.918.2-1.292.306a3.745,3.745,0,0,1-1.326.136,11.958,11.958,0,0,1-1.53.1c-.476.034-.816.034-1.36.034-.238-.034-.408.272-.408.544a.464.464,0,0,0,.51.51c.34.068.714-.034,1.19.034.272.034.374.306.476.646.068.374.1,2.108.1,2.55v1.7c-.2.476.136,1.6,0,2.074-.238.782.272,1.326.034,2.006-.238.442.17.884-.034,1.632a8.354,8.354,0,0,0-.136,2.04c.068.442-.068.714-.612.748H65.008c-.272-.068-.544.272-.544.578,0,.238.17.51.612.51h.51c.68,0,1.054-.034,1.632-.068.714-.034,1.292,0,1.938-.034a16.958,16.958,0,0,0,2.278,0,2.471,2.471,0,0,0,.85.136c.34,0,.68-.034,1.088-.068h.068c.17,0,.272-.238.272-.476v-.1C73.712-1.292,73.644-1.5,73.474-1.5Zm20.774,0c-.238-.1-.34-.034-.612-.068a5.485,5.485,0,0,0-.748,0c-.476-.034-.578-.136-.612-.816-.034-.85-.034-2.414-.034-3.468a7.172,7.172,0,0,1,0-2.108,11.044,11.044,0,0,0,.034-2.584c-.272-.34-.17-.544-.136-.918a3.534,3.534,0,0,0,.034-.884,7.133,7.133,0,0,0-.2-1.122,1.376,1.376,0,0,1-.238-.646c-.034-.17-.068-.306-.2-.374-.374-.272-.748-.816-1.054-1.088a.717.717,0,0,0-.374-.17.941.941,0,0,1-.612-.374c-.374-.34-1.088-.1-1.394-.34-.374-.272-.918-.034-1.292-.034-.544.2-1.088.034-1.326.136-.374.2-1.054.476-1.36.68a5.171,5.171,0,0,0-1.564,1.02.515.515,0,0,1-.374.238c-.1,0-.2-.1-.238-.34-.068-.646.1-1.258.034-1.53a.6.6,0,0,0-.578-.408.664.664,0,0,0-.238.034,4.881,4.881,0,0,1-1.224.238,4.069,4.069,0,0,1-1.53.2c-.374.136-.646-.034-1.258.1-.748.1-1.122.034-1.5.1-.646.17-.442,1.122.1,1.02a3.941,3.941,0,0,1,1.122.1c.374.1.544.51.578,1.156.034.476-.034,1.258,0,1.938a4.06,4.06,0,0,0,0,1.7,9.292,9.292,0,0,0,0,1.7,9.845,9.845,0,0,1,0,1.734.861.861,0,0,0,.1.68.736.736,0,0,1-.1.884c0,.884-.068,1.564,0,2.312a1.546,1.546,0,0,1-.17.952.567.567,0,0,1-.51.306,7.984,7.984,0,0,0-.884.034c-.272.068-.612-.1-.748.136a.582.582,0,0,0-.238.442.475.475,0,0,0,.442.442h.2c.272,0,.51-.034.748-.034.34,0,.68.034,1.054.034h.272A16.911,16.911,0,0,1,79.39-.544a11.107,11.107,0,0,1,2.142.068,6.553,6.553,0,0,1,1.632,0h.068c.442,0,.646-.272.646-.51a.6.6,0,0,0-.238-.476c-.136-.2-.442-.034-.612-.1-.17-.034-.442,0-.544-.1-.374-.1-.51-.306-.544-.986-.034-.714-.034-1.36-.034-1.87-.34-.442-.272-.646-.136-.884a1.257,1.257,0,0,0,.17-.374c.068-.68-.2-.782,0-1.394.17-.238-.068-1.054,0-1.394-.17-.544.2-1.156,0-1.428a2.4,2.4,0,0,1,0-1.394c.2-.272-.068-.714,0-1.394a2.251,2.251,0,0,1,.952-1.122,5.058,5.058,0,0,1,1.224-.578,4.547,4.547,0,0,1,1.292-.34c.374.2,1.122.136,1.224.34.068.272.51.2.612.646a6.687,6.687,0,0,1,.306,2.21,15.527,15.527,0,0,0,0,2.516,1.215,1.215,0,0,1,.1.986.79.79,0,0,0,0,.68.825.825,0,0,1-.068.782c-.1.136,0,.272.068.408a.443.443,0,0,1-.034.408c-.17.272.136.646,0,1.088a5.4,5.4,0,0,0-.068,1.292c.068.952.068,1.6-.272,1.836a2.083,2.083,0,0,1-1.156.068c-.476.068-.612.952-.068,1.088.068,0,.136.034.2.034.2,0,.408-.068.646-.068.068,0,.136.034.2.034.17,0,.34.034.476.034.17,0,.34-.034.476-.034.2-.2.476-.034.612-.034.306,0,.578.068.85.068a1.577,1.577,0,0,0,.646-.136c.782-.034.986.068,1.87.1l.238.034c.34,0,.68-.1.986-.068h1.02c.17,0,.306-.2.306-.442A.552.552,0,0,0,94.248-1.5Zm35.8-16.388c-.034-.408-.2-.476,0-1.02v-.136a3.852,3.852,0,0,1-.034-1.088V-20.5c0-.544-.034-1.19-.034-1.564v-1.428a1.171,1.171,0,0,0,.034-.306,3.062,3.062,0,0,1,0-.986v-.17c0-.408-.238-.476-.476-.476a1.048,1.048,0,0,0-.34.034c-.374.1-1.122-.034-1.36.1a10.064,10.064,0,0,1-1.36.068,8.734,8.734,0,0,0-1.36.034c-.34.238-.68,0-1.36,0a26.067,26.067,0,0,1-2.822.068c-.85-.034-1.02.17-1.8-.068-.612.068-1.666,0-2.346,0-.918-.034-1.462.034-2.312,0a16.19,16.19,0,0,1-2.584-.068,4.236,4.236,0,0,1-1.292-.068c-.51.136-.782-.068-1.156-.068h-.136a1.655,1.655,0,0,1-.408.034c-.272,0-.442,0-.476.306-.1.612.068.986,0,1.53a6.332,6.332,0,0,1,.068,1.5,1.886,1.886,0,0,0-.1.578,11.053,11.053,0,0,1,.068,1.122,6.281,6.281,0,0,0-.1.918,2.937,2.937,0,0,0,.034.51c.068.306-.068.51-.068.816a.672.672,0,0,0,.068.34c.1.17-.034.306-.034.544a.431.431,0,0,0,.034.2.484.484,0,0,0,.918-.2,3.6,3.6,0,0,1,.136-1.462c.238-.612,0-.918.272-1.462.306-.578.238-.816.476-1.258.034-.544.34-.68.646-.986.306-.068.408-.476.884-.748a3.466,3.466,0,0,1,1.19-.544c.306.068.646-.374,1.292-.238a7,7,0,0,1,1.53-.068.79.79,0,0,1,.85.272c.34.238.2.578.2.884-.068.51.17.952,0,1.564-.238.442.2.918,0,1.394-.034.544.272,1.054,0,1.428-.17.238.17.816,0,1.394a6.428,6.428,0,0,0,0,1.428c.272.17.238.306.136.476a1.159,1.159,0,0,0-.136.544c.034.476,0,.918,0,1.8,0,.646-.2,1.224.068,1.734a.6.6,0,0,1,.034.476.626.626,0,0,0-.1.612c.17.442-.034.884,0,1.428a4.965,4.965,0,0,1-.068,1.6c-.1.306.374.714.068,1.224a16.51,16.51,0,0,0,0,1.836,6.7,6.7,0,0,1-.034,1.462c.034.544-.272.884-.986.85-.374,0-.68.034-1.224,0-.442.238-.612-.068-1.122,0-.442.068-.578.272-.578.51a.59.59,0,0,0,.476.578c.612-.034.918-.034,1.666-.034s1.156.034,1.7.034a.508.508,0,0,1,.51-.1,1.446,1.446,0,0,0,.374.068h.068c.272-.034.612.034.986.034a2.192,2.192,0,0,0,.68-.1c.442-.136.646.1.986.1a1.5,1.5,0,0,0,.34-.068c.646.034.884-.068,1.564,0,.272,0,.68-.034,1.428,0,.476.034.884.1,1.36.1h.238c.238,0,.408-.306.408-.578,0-.34-.17-.646-.578-.578a5.912,5.912,0,0,1-1.088.034c-.612.034-.918-.068-1.224,0-.476.1-.748-.34-.85-.85,0-.34.034-1.428,0-1.9-.238-.408.1-1.054,0-1.394a3.344,3.344,0,0,1,0-1.428,6.294,6.294,0,0,1,0-1.394.983.983,0,0,1,0-.884.968.968,0,0,0,0-.544,1.086,1.086,0,0,1,0-.884.532.532,0,0,0,0-.51c-.136-.272.1-.85,0-1.428-.1-.306.1-.952,0-1.428-.238-.544.2-.918,0-1.394a9.958,9.958,0,0,1,0-1.428,1.745,1.745,0,0,0-.17-.408.54.54,0,0,1,.1-.612,14.8,14.8,0,0,0,.068-1.8c0-.306-.034-.986,0-1.394-.034-.748.034-.952,0-1.666a.851.851,0,0,1,.238-.986c.136-.2.816.068,1.224-.1.578-.034.782.2,1.36.034a.889.889,0,0,1,.544.068,1.828,1.828,0,0,0,.714.272,2.618,2.618,0,0,1,1.224.51l.748.782a2.947,2.947,0,0,1,.476,1.122c.1.238.442.714.408,1.088-.068.374.238,1.02.136,1.462,0,.442.068.884.1,1.462a.433.433,0,0,0,.476.442.606.606,0,0,0,.442-.2.933.933,0,0,0,.068-.442Zm14.722,3.094c-.272-.544-.272-.748-.646-.918a2.757,2.757,0,0,0-.952-.578,3.442,3.442,0,0,0-1.7-.17.507.507,0,0,0-.272.1c-.1.068-.136.136-.51.068a5.628,5.628,0,0,0-1.088.646c-.238.1-.884.68-.918.952a3.964,3.964,0,0,0-.374.544c-.1.17-.2.2-.34.17-.1-.034-.17-.068-.2-.17a2.942,2.942,0,0,1,0-.986c-.068-.442.136-.782-.034-1.122a.679.679,0,0,0-.578-.442.505.505,0,0,0-.306.068,1.518,1.518,0,0,1-1.156.238,13.051,13.051,0,0,1-1.5.2,3.525,3.525,0,0,1-1.36.1,7.344,7.344,0,0,1-1.224,0c-.476,0-.646.238-.646.51,0,.306.2.646.476.612.408.034.85-.068,1.122-.034.136.034.374-.034.544.068a.767.767,0,0,1,.17.408c.2.68-.034.816.068,1.292a7.8,7.8,0,0,1,.034,2.346.823.823,0,0,0,.1.476.444.444,0,0,1-.1.544c-.034.85,0,1.734-.034,2.482a2.758,2.758,0,0,0,.1.374c.136.2.2.34-.068.748a15.9,15.9,0,0,0,0,1.8c-.034.612-.034,1.36-.068,1.836-.1.646-.17.952-.714,1.02-.578.034-1.122-.034-1.36.034-.272,0-.408.238-.408.51,0,.306.17.612.51.544.884,0,1.122,0,2.176.034.476,0,.986.034,1.462.034.51,0,.986-.034,1.394-.034.136-.2.34-.17.612-.1a3.812,3.812,0,0,0,.714.136c.51.034.918.034,1.326.034a4.333,4.333,0,0,0,.952-.068h.068c.238,0,.34-.238.34-.51,0-.306-.17-.68-.51-.578a1.865,1.865,0,0,1-.442,0,1.282,1.282,0,0,0-.646,0,.747.747,0,0,1-.918-.714c.068-.544-.17-1.6-.068-2.346-.034-.306-.374-.714,0-1.224a16.281,16.281,0,0,0,0-1.836c-.1-.748.17-1.224,0-2.04a4.514,4.514,0,0,1,.272-2.04c.136-.34.034-.816.374-.986.238-.238.2-.408.34-.612a.887.887,0,0,1,.238-.34c.17-.1.272-.544.816-.714a.9.9,0,0,1,.884-.306c.34-.034.646.17.612.374a1.433,1.433,0,0,1,.034.918,1.4,1.4,0,0,0,.442,1.258,1.4,1.4,0,0,0,1.53.544c.408.068.782-.068,1.258-.646a1.563,1.563,0,0,0,.476-1.224v-.2A2.711,2.711,0,0,0,144.772-14.79ZM160.82-3.026c-.1.306-.272.34-.408.68a1.239,1.239,0,0,1-.408.374.808.808,0,0,1-.51.034c-.68-.034-.918-.612-.952-1.122a20.3,20.3,0,0,1,0-2.04,1.149,1.149,0,0,1-.034-.748,2.869,2.869,0,0,0,.068-.646c-.034-.476-.34-.646-.068-1.19.136-.238-.136-.51,0-.986.1-.34-.17-.68,0-1.19.1-.34-.034-.85.034-1.36a14.416,14.416,0,0,0-.2-2.244c-.272-.136-.238-.272-.238-.476a.88.88,0,0,0-.238-.612c-.272-.374-.51-.816-.884-.952-.612-.2-.748-.646-1.156-.612-.544.034-.714-.374-1.19-.272-.51-.068-.918-.1-1.224-.17a5.61,5.61,0,0,0-1.972.238,8.264,8.264,0,0,0-2.21.646c-.238.034-.306.136-.34.238-.068.1-.1.2-.442.2-.17,0-.306.272-.748.646a2.209,2.209,0,0,0-.68,1.8,1.93,1.93,0,0,0,.51,1.36,1.984,1.984,0,0,0,1.326.578c.544-.034.884.034,1.156-.51a2.054,2.054,0,0,0,.476-1.19,1.279,1.279,0,0,0-.476-1.088.7.7,0,0,1-.272-.85c-.1-.2.476-.748.884-.816a12.453,12.453,0,0,1,1.428-.238c.782.1,1.6.2,1.8.714.612.544.51,1.224.612,1.836a11.887,11.887,0,0,1,0,1.564,3.034,3.034,0,0,1,0,1.36c.068.238,0,.34-.136.578a.758.758,0,0,1-.748.374c-.646.068-.782.34-1.394.238a6.957,6.957,0,0,0-1.6.306,4.257,4.257,0,0,0-1.734.612c-.68.136-.714.578-1.394.884-.68.238-.85.816-1.292,1.5a3.76,3.76,0,0,0-.442,1.768,1.939,1.939,0,0,0,.034.442.645.645,0,0,0,.136.408c.1.2.272.306.17.714.272.51.442.986.952,1.156a4.38,4.38,0,0,0,1.36.748A6.47,6.47,0,0,0,149.94-.1a7.1,7.1,0,0,0,1.938-.34c.068-.2.238-.238.408-.272a.539.539,0,0,0,.408-.17c.272-.238.918-.34,1.088-.816a.667.667,0,0,1,1.088.238,3.483,3.483,0,0,0,.85.782,4.694,4.694,0,0,0,2.006.51.993.993,0,0,0,.306.068c.408,0,.816-.34,1.02-.272a1.955,1.955,0,0,0,1.054-.544c.34-.34.646-.34.884-.85a3.75,3.75,0,0,0,.646-.85.307.307,0,0,0,.034-.17.517.517,0,0,0-.51-.476A.3.3,0,0,0,160.82-3.026Zm-6.528-.442a5.409,5.409,0,0,1-.986,1.122,3.422,3.422,0,0,1-1.6.476,2.576,2.576,0,0,1-1.7-.782,1.073,1.073,0,0,1-.442-.952c0-.306-.272-.544-.17-.884.17-.442.034-.544.136-.816-.1-.408.272-.612.476-1.054a2.233,2.233,0,0,1,1.054-.952c.408-.408.714-.2,1.224-.544.306-.34.782-.17,1.02-.272.612-.17,1.224-.034,1.122.748a.643.643,0,0,0,.034.51.584.584,0,0,1,0,.578.507.507,0,0,0-.068.476.647.647,0,0,1,.034.578c-.034.374.17.476.034.884C154.36-4.012,154.5-3.74,154.292-3.468Zm11.254-17.714c.442.374.748.646,1.19.646a3.12,3.12,0,0,0,2.244-.51,1.873,1.873,0,0,0,.816-1.768,2.917,2.917,0,0,0-.612-1.53.617.617,0,0,1-.51-.374.536.536,0,0,0-.238-.238,1.851,1.851,0,0,0-.85-.306.431.431,0,0,0-.2.034,2.642,2.642,0,0,0-1.326.442c-.1.068-.1.272-.476.34-.408.612-.748.816-.51,1.6a2.043,2.043,0,0,0,.1.986.576.576,0,0,0,.2.272A.573.573,0,0,1,165.546-21.182ZM171.5-1.5a2.566,2.566,0,0,0-1.19-.068.608.608,0,0,1-.782-.646c0-.85-.068-1.394,0-2.108a.991.991,0,0,1-.2-.51c0-.2.136-.34.17-.612a5.478,5.478,0,0,1,.034-1.666A8.792,8.792,0,0,1,169.49-8.5c-.034-.51-.374-.782.034-1.428.068-.408-.272-.578-.068-1.156.034-.408-.306-.816.034-1.19.034-.68,0-1.632.068-2.074a6.792,6.792,0,0,1,.068-1.19,1.534,1.534,0,0,0,0-.884c-.238-.408-.646-.306-.918-.2-.68.374-.918.2-1.292.306a3.745,3.745,0,0,1-1.326.136,11.958,11.958,0,0,1-1.53.1c-.476.034-.816.034-1.36.034-.238-.034-.408.272-.408.544a.464.464,0,0,0,.51.51c.34.068.714-.034,1.19.034.272.034.374.306.476.646.068.374.1,2.108.1,2.55v1.7c-.2.476.136,1.6,0,2.074-.238.782.272,1.326.034,2.006-.238.442.17.884-.034,1.632a8.354,8.354,0,0,0-.136,2.04c.068.442-.068.714-.612.748H163.03c-.272-.068-.544.272-.544.578,0,.238.17.51.612.51h.51c.68,0,1.054-.034,1.632-.068.714-.034,1.292,0,1.938-.034a16.958,16.958,0,0,0,2.278,0,2.471,2.471,0,0,0,.85.136c.34,0,.68-.034,1.088-.068h.068c.17,0,.272-.238.272-.476v-.1C171.734-1.292,171.666-1.5,171.5-1.5Zm20.774,0c-.238-.1-.34-.034-.612-.068a5.485,5.485,0,0,0-.748,0c-.476-.034-.578-.136-.612-.816-.034-.85-.034-2.414-.034-3.468a7.172,7.172,0,0,1,0-2.108,11.045,11.045,0,0,0,.034-2.584c-.272-.34-.17-.544-.136-.918a3.534,3.534,0,0,0,.034-.884,7.135,7.135,0,0,0-.2-1.122,1.375,1.375,0,0,1-.238-.646c-.034-.17-.068-.306-.2-.374-.374-.272-.748-.816-1.054-1.088a.717.717,0,0,0-.374-.17.941.941,0,0,1-.612-.374c-.374-.34-1.088-.1-1.394-.34-.374-.272-.918-.034-1.292-.034-.544.2-1.088.034-1.326.136-.374.2-1.054.476-1.36.68a5.171,5.171,0,0,0-1.564,1.02.515.515,0,0,1-.374.238c-.1,0-.2-.1-.238-.34-.068-.646.1-1.258.034-1.53a.6.6,0,0,0-.578-.408.664.664,0,0,0-.238.034,4.881,4.881,0,0,1-1.224.238,4.069,4.069,0,0,1-1.53.2c-.374.136-.646-.034-1.258.1-.748.1-1.122.034-1.5.1-.646.17-.442,1.122.1,1.02a3.941,3.941,0,0,1,1.122.1c.374.1.544.51.578,1.156.034.476-.034,1.258,0,1.938a4.06,4.06,0,0,0,0,1.7,9.292,9.292,0,0,0,0,1.7,9.846,9.846,0,0,1,0,1.734.861.861,0,0,0,.1.68.736.736,0,0,1-.1.884c0,.884-.068,1.564,0,2.312a1.546,1.546,0,0,1-.17.952.567.567,0,0,1-.51.306,7.985,7.985,0,0,0-.884.034c-.272.068-.612-.1-.748.136a.582.582,0,0,0-.238.442.475.475,0,0,0,.442.442h.2c.272,0,.51-.034.748-.034.34,0,.68.034,1.054.034h.272a16.911,16.911,0,0,1,1.768-.068,11.107,11.107,0,0,1,2.142.068,6.554,6.554,0,0,1,1.632,0h.068c.442,0,.646-.272.646-.51a.6.6,0,0,0-.238-.476c-.136-.2-.442-.034-.612-.1-.17-.034-.442,0-.544-.1-.374-.1-.51-.306-.544-.986-.034-.714-.034-1.36-.034-1.87-.34-.442-.272-.646-.136-.884a1.257,1.257,0,0,0,.17-.374c.068-.68-.2-.782,0-1.394.17-.238-.068-1.054,0-1.394-.17-.544.2-1.156,0-1.428a2.4,2.4,0,0,1,0-1.394c.2-.272-.068-.714,0-1.394a2.25,2.25,0,0,1,.952-1.122,5.058,5.058,0,0,1,1.224-.578,4.547,4.547,0,0,1,1.292-.34c.374.2,1.122.136,1.224.34.068.272.51.2.612.646a6.687,6.687,0,0,1,.306,2.21,15.525,15.525,0,0,0,0,2.516,1.215,1.215,0,0,1,.1.986.79.79,0,0,0,0,.68.825.825,0,0,1-.068.782c-.1.136,0,.272.068.408a.443.443,0,0,1-.034.408c-.17.272.136.646,0,1.088a5.4,5.4,0,0,0-.068,1.292c.068.952.068,1.6-.272,1.836a2.083,2.083,0,0,1-1.156.068c-.476.068-.612.952-.068,1.088.068,0,.136.034.2.034.2,0,.408-.068.646-.068.068,0,.136.034.2.034.17,0,.34.034.476.034.17,0,.34-.034.476-.034.2-.2.476-.034.612-.034.306,0,.578.068.85.068a1.577,1.577,0,0,0,.646-.136c.782-.034.986.068,1.87.1l.238.034c.34,0,.68-.1.986-.068h1.02c.17,0,.306-.2.306-.442A.552.552,0,0,0,192.27-1.5Zm4.012-19.686c.442.374.748.646,1.19.646a3.12,3.12,0,0,0,2.244-.51,1.873,1.873,0,0,0,.816-1.768,2.917,2.917,0,0,0-.612-1.53.617.617,0,0,1-.51-.374.536.536,0,0,0-.238-.238,1.851,1.851,0,0,0-.85-.306.431.431,0,0,0-.2.034,2.642,2.642,0,0,0-1.326.442c-.1.068-.1.272-.476.34-.408.612-.748.816-.51,1.6a2.043,2.043,0,0,0,.1.986.576.576,0,0,0,.2.272A.573.573,0,0,1,196.282-21.182ZM202.232-1.5a2.566,2.566,0,0,0-1.19-.068.608.608,0,0,1-.782-.646c0-.85-.068-1.394,0-2.108a.991.991,0,0,1-.2-.51c0-.2.136-.34.17-.612a5.477,5.477,0,0,1,.034-1.666,8.792,8.792,0,0,1-.034-1.394c-.034-.51-.374-.782.034-1.428.068-.408-.272-.578-.068-1.156.034-.408-.306-.816.034-1.19.034-.68,0-1.632.068-2.074a6.792,6.792,0,0,1,.068-1.19,1.534,1.534,0,0,0,0-.884c-.238-.408-.646-.306-.918-.2-.68.374-.918.2-1.292.306a3.745,3.745,0,0,1-1.326.136,11.958,11.958,0,0,1-1.53.1c-.476.034-.816.034-1.36.034-.238-.034-.408.272-.408.544a.464.464,0,0,0,.51.51c.34.068.714-.034,1.19.034.272.034.374.306.476.646.068.374.1,2.108.1,2.55v1.7c-.2.476.136,1.6,0,2.074-.238.782.272,1.326.034,2.006-.238.442.17.884-.034,1.632a8.355,8.355,0,0,0-.136,2.04c.068.442-.068.714-.612.748h-1.292c-.272-.068-.544.272-.544.578,0,.238.17.51.612.51h.51c.68,0,1.054-.034,1.632-.068.714-.034,1.292,0,1.938-.034a16.958,16.958,0,0,0,2.278,0,2.471,2.471,0,0,0,.85.136c.34,0,.68-.034,1.088-.068h.068c.17,0,.272-.238.272-.476v-.1C202.47-1.292,202.4-1.5,202.232-1.5Zm20.774,0c-.238-.1-.34-.034-.612-.068a5.485,5.485,0,0,0-.748,0c-.476-.034-.578-.136-.612-.816C221-3.23,221-4.794,221-5.848a7.172,7.172,0,0,1,0-2.108,11.045,11.045,0,0,0,.034-2.584c-.272-.34-.17-.544-.136-.918a3.534,3.534,0,0,0,.034-.884,7.131,7.131,0,0,0-.2-1.122,1.376,1.376,0,0,1-.238-.646c-.034-.17-.068-.306-.2-.374-.374-.272-.748-.816-1.054-1.088a.717.717,0,0,0-.374-.17.941.941,0,0,1-.612-.374c-.374-.34-1.088-.1-1.394-.34-.374-.272-.918-.034-1.292-.034-.544.2-1.088.034-1.326.136-.374.2-1.054.476-1.36.68a5.171,5.171,0,0,0-1.564,1.02.515.515,0,0,1-.374.238c-.1,0-.2-.1-.238-.34-.068-.646.1-1.258.034-1.53a.6.6,0,0,0-.578-.408.664.664,0,0,0-.238.034,4.881,4.881,0,0,1-1.224.238,4.069,4.069,0,0,1-1.53.2c-.374.136-.646-.034-1.258.1-.748.1-1.122.034-1.5.1-.646.17-.442,1.122.1,1.02a3.941,3.941,0,0,1,1.122.1c.374.1.544.51.578,1.156.034.476-.034,1.258,0,1.938a4.06,4.06,0,0,0,0,1.7,9.292,9.292,0,0,0,0,1.7,9.845,9.845,0,0,1,0,1.734.861.861,0,0,0,.1.68.736.736,0,0,1-.1.884c0,.884-.068,1.564,0,2.312a1.546,1.546,0,0,1-.17.952.567.567,0,0,1-.51.306,7.985,7.985,0,0,0-.884.034c-.272.068-.612-.1-.748.136a.582.582,0,0,0-.238.442.475.475,0,0,0,.442.442h.2c.272,0,.51-.034.748-.034.34,0,.68.034,1.054.034h.272a16.911,16.911,0,0,1,1.768-.068,11.107,11.107,0,0,1,2.142.068,6.554,6.554,0,0,1,1.632,0h.068c.442,0,.646-.272.646-.51a.6.6,0,0,0-.238-.476c-.136-.2-.442-.034-.612-.1-.17-.034-.442,0-.544-.1-.374-.1-.51-.306-.544-.986-.034-.714-.034-1.36-.034-1.87-.34-.442-.272-.646-.136-.884a1.257,1.257,0,0,0,.17-.374c.068-.68-.2-.782,0-1.394.17-.238-.068-1.054,0-1.394-.17-.544.2-1.156,0-1.428a2.4,2.4,0,0,1,0-1.394c.2-.272-.068-.714,0-1.394a2.25,2.25,0,0,1,.952-1.122,5.058,5.058,0,0,1,1.224-.578,4.547,4.547,0,0,1,1.292-.34c.374.2,1.122.136,1.224.34.068.272.51.2.612.646a6.687,6.687,0,0,1,.306,2.21,15.525,15.525,0,0,0,0,2.516,1.215,1.215,0,0,1,.1.986.79.79,0,0,0,0,.68.825.825,0,0,1-.068.782c-.1.136,0,.272.068.408a.443.443,0,0,1-.034.408c-.17.272.136.646,0,1.088a5.4,5.4,0,0,0-.068,1.292c.068.952.068,1.6-.272,1.836a2.083,2.083,0,0,1-1.156.068c-.476.068-.612.952-.068,1.088.068,0,.136.034.2.034.2,0,.408-.068.646-.068.068,0,.136.034.2.034.17,0,.34.034.476.034.17,0,.34-.034.476-.034.2-.2.476-.034.612-.034.306,0,.578.068.85.068a1.577,1.577,0,0,0,.646-.136c.782-.034.986.068,1.87.1l.238.034c.34,0,.68-.1.986-.068h1.02c.17,0,.306-.2.306-.442A.552.552,0,0,0,223.006-1.5Zm19.21-14.96c-.238-.51-1.088-.408-1.394-.51a1.051,1.051,0,0,0-.272-.068c-.306,0-.442.272-.85.34-.442.2-.476.272-.782.748a8.769,8.769,0,0,0-.544,1.258c-.2.408-.442.51-.986.034a10.041,10.041,0,0,0-1.938-1.19,6.9,6.9,0,0,0-1.5-.476c-.442-.068-.986-.1-1.632-.136-.578-.1-1.02.238-1.224.068-.578.034-1.054,0-1.326.238-.374.306-.918.34-1.02.51-.612.17-.748.612-1.054.612a4.065,4.065,0,0,0-.918.816,3.4,3.4,0,0,1-.714.952c0,.272-.544.714-.442,1.122.1.646-.2.714-.17,1.292.068.238-.1,1.088.2,1.292a2.17,2.17,0,0,0,.544,1.122c.1.34.714,1.122,1.088,1.156.476.408.374.952-.068,1.02-.408.2-.85.85-1.19,1.02-.442.2-.272.748-.612,1.02-.306.374-.272.714-.272,1.394a2.982,2.982,0,0,0,.34,1.36,1.812,1.812,0,0,0,.748.952,5.057,5.057,0,0,0,1.054.578c.476.1.646.238.646.374s-.17.306-.476.408a2.5,2.5,0,0,0-1.53.85,3.429,3.429,0,0,0-1.122,1.088,2.329,2.329,0,0,0-.476,1.258.579.579,0,0,0,.034.238,2.152,2.152,0,0,0,.238,1.258c.272.544.2.85.646,1.02a3.785,3.785,0,0,0,1.258,1.02c.238-.136.374-.068.476.068a3.844,3.844,0,0,0,.374.374,10.105,10.105,0,0,0,1.326.442,8.052,8.052,0,0,1,1.326.306c.85.068,1.462.2,2.21.2h.238a2.091,2.091,0,0,1,.442-.034c.272,0,.51.034.782.034h.1a1.678,1.678,0,0,0,.51-.1c.476-.1,1.258-.238,1.836-.374.51.1.986-.374,1.768-.646.748-.068,1.156-.782,1.53-.986A5.777,5.777,0,0,0,240.754,5.3c.2-.476.136-.714.578-1.054a8.309,8.309,0,0,0,.476-1.564c.272-.544.034-.884.2-1.428a3.42,3.42,0,0,0-.2-1.462c-.272-.51-.1-.816-.408-1.088-.408-.34-.34-.646-1.054-1.02-.476-.238-.85-.544-1.054-.612-.2-.374-.782-.34-1.224-.306a4.209,4.209,0,0,0-1.326-.1,5,5,0,0,0-1.292.034,1.089,1.089,0,0,1-.714.034c-.306.1-.51-.17-1.054.034A.956.956,0,0,1,233-3.2a1.078,1.078,0,0,0-.578,0,9.155,9.155,0,0,1-1.666.034,5.932,5.932,0,0,1-1.8-.238c-.544-.136-1.326-.442-1.122-1.19-.068-.408-.034-.68.476-1.122.272-.068.544-.408.952-.442.34-.068.476-.1.748.068.612.2.782.068,1.156.306a5.607,5.607,0,0,0,1.428.17,6.367,6.367,0,0,0,2.108-.34,4.746,4.746,0,0,0,1.156-.408,2.592,2.592,0,0,0,1.156-.578.628.628,0,0,1,.442-.51.366.366,0,0,0,.272-.068c.408-.374.544-.748.816-1.02a2.444,2.444,0,0,0,.544-1.224c-.1-.272,0-.374.068-.578a1.158,1.158,0,0,0,.034-.51c-.2-.306,0-.748-.17-1.734.034-.1,0-.136-.1-.272-.068-.068-.034-.17.034-.306a2.036,2.036,0,0,1,.272-1.292c.136-.34.238-.646.51-.782.238-.136.34-.034.442.17a1.906,1.906,0,0,0-.034.612,1.03,1.03,0,0,0,1.428.952c.306.2.884-.2.986-.578a.682.682,0,0,0,.238-.578v-.408a.845.845,0,0,0,.034-.272A1.242,1.242,0,0,0,242.216-16.456Zm-7.14,7.072c-.17.714-.34.918-.442,1.428a1.436,1.436,0,0,1-.884,1.088c-.2.2-.51.34-1.292.374a3.166,3.166,0,0,1-1.564-.374,3.472,3.472,0,0,1-.918-1.054,1.527,1.527,0,0,1-.51-1.428c.1-.646-.374-.884-.136-1.462a12.157,12.157,0,0,1,.136-1.53c-.034-.714.442-1.054.476-1.564.408-.51.374-1.02.918-1.19a1.7,1.7,0,0,1,1.462-.476,2.158,2.158,0,0,1,1.462.476,4.849,4.849,0,0,1,.884,1.19c.306.646.2,1.156.408,1.53.068.714-.034,1.258.136,1.53C235.246-10.438,234.974-10.03,235.076-9.384ZM228.242,1.9c.476-.476.782-1.054,1.462-1.394l.34-.034c.136.068.238-.034.408-.1a.7.7,0,0,1,.544.1,1.106,1.106,0,0,0,.51-.034.73.73,0,0,1,.51.068,2.091,2.091,0,0,1,.374-.1.2.2,0,0,1,.272.1.676.676,0,0,0,.476-.034.707.707,0,0,1,.272,0,.455.455,0,0,0,.306-.034.3.3,0,0,1,.34.1c.646-.068,1.088.1,1.326-.034.51-.034.714.17,1.292,0a7.929,7.929,0,0,1,1.768.238,2.864,2.864,0,0,1,1.394.714,1.861,1.861,0,0,1,.578,1.564,3.84,3.84,0,0,1-.68,2.108c-.374.51-.408.68-.748.85a4.457,4.457,0,0,1-.952.68,2,2,0,0,1-1.054.544c-.374.272-.68.068-1.122.374a7.388,7.388,0,0,1-2.21.306,8.256,8.256,0,0,1-1.938-.238,7.882,7.882,0,0,1-1.9-.748.561.561,0,0,1-.442-.306.467.467,0,0,0-.374-.272c-.374-.1-.51-.272-.646-.714a2.924,2.924,0,0,1-.578-1.87A4.616,4.616,0,0,1,228.242,1.9Zm52.972-13.5a4.744,4.744,0,0,1,.1-1.6,4.8,4.8,0,0,1-.1-1.564c-.068-.306.068-1.156-.238-1.53a3.505,3.505,0,0,0-.408-1.53c0-.408-.51-1.02-.578-1.428a3.835,3.835,0,0,0-.748-1.36c-.374-.408-.51-.952-.918-1.224a6.263,6.263,0,0,0-1.088-1.088c-.646-.51-.68-.782-1.292-.918a7.3,7.3,0,0,0-1.734-.816c-.782-.306-1.292-.272-1.8-.476a9.089,9.089,0,0,0-1.87-.238,4.919,4.919,0,0,1-1.6-.068,1.157,1.157,0,0,0-.34.034,5.444,5.444,0,0,1-2.108-.034h-.17c-.85,0-1.53.238-1.938.068a4.122,4.122,0,0,1-1.938.034,3.62,3.62,0,0,1-1.666.034c-.2.1-.374-.034-.748.034a.2.2,0,0,1-.238,0,.263.263,0,0,0-.306.034.91.91,0,0,1-.374-.068c-.17-.034-.238-.1-.408.034a1.509,1.509,0,0,0-.612-.068,1.99,1.99,0,0,0-.442-.068.445.445,0,0,0-.408.2c-.34.51-.068,1.224.816,1.02.748.1,1.02-.1,1.768,0,.374.136.782.374.748.884.306.748-.17.952.1,1.734.2.714-.068,1.19,0,1.428.544.714.034,1.122,0,1.428.034.442,0,1.122,0,1.428-.034.442.306.714,0,1.428a.739.739,0,0,0,.034.612c.1.17.17.374-.034.816a2.061,2.061,0,0,0,0,1.428,4.019,4.019,0,0,1,0,1.428,2.9,2.9,0,0,0,0,1.428,1.879,1.879,0,0,0,0,1.428,1.259,1.259,0,0,1,0,1.428c.034.442-.2.816,0,1.428a5.157,5.157,0,0,0-.1,1.734,2.816,2.816,0,0,1-.136,1.6c.17.272-.306.952-.782.918a16.206,16.206,0,0,1-2.278.034c-.306-.034-.476.238-.476.51a.508.508,0,0,0,.442.544,1.047,1.047,0,0,0,.442.1,1.535,1.535,0,0,0,.442-.1,2.131,2.131,0,0,0,.544-.068c.136-.034.238-.068.306.068a.307.307,0,0,0,.17.034c.238,0,.476-.136.748-.068.442.034.748.068,1.054.068a1.655,1.655,0,0,0,.408-.034,12.085,12.085,0,0,1,1.53-.034,3.351,3.351,0,0,1,1.292.068c.34-.034.68.034,1.02.034h.068a1.522,1.522,0,0,0,.68-.136,8.352,8.352,0,0,1,1.258.136,1.707,1.707,0,0,0,.408-.068c.34.034.68.068.986.068a1.415,1.415,0,0,0,.85-.238,7.655,7.655,0,0,0,2.142-.272c.714.136,1.224-.374,1.768-.408.238.136.714-.34,1.292-.51.374-.272.646-.068.952-.476.544-.476.748-.374,1.326-.918.34-.34.816-.51,1.122-1.122.238-.306.714-.85.986-1.258A7.641,7.641,0,0,0,279.922-7c.136-.68.646-.85.612-1.462.034-.51.51-1.122.442-1.53a.848.848,0,0,1,.1-.952A.715.715,0,0,0,281.214-11.594Zm-5.678.748A1.1,1.1,0,0,1,275.4-9.52c-.272.374.034,1.02-.272,1.292L274.754-7a1.543,1.543,0,0,0-.51,1.19,8.353,8.353,0,0,1-.646,1.088c-.068.34-.748.748-.816.986-.51.408-1.02.68-1.326.986a4.821,4.821,0,0,1-1.462.646,1.089,1.089,0,0,1-.68.238,1.516,1.516,0,0,0-.612.1,6.486,6.486,0,0,1-1.6.136c-.408.068-.748.17-1.054-.1s-.612-.714-.442-1.088c-.1-.714.17-.884-.034-1.666.1-.272-.17-.714,0-1.394a2.531,2.531,0,0,0,0-1.428c-.136-.51.2-.918,0-1.428a3.345,3.345,0,0,1,0-1.428c.1-.306-.136-.816,0-1.428a3.245,3.245,0,0,1,0-1.428c.034-.544,0-.85,0-1.394-.136-.646.2-.952,0-1.428.17-.51-.17-1.088,0-1.428a1.868,1.868,0,0,1,0-1.428c.068-.408-.2-.748,0-1.428.2-.272-.136-.85,0-1.394a12.227,12.227,0,0,1,.034-1.938c.068-.2.408-.476.918-.782a11.528,11.528,0,0,1,1.6-.034c.408.238,1.224.068,1.768.272.782,0,.986.374,1.564.408a8.188,8.188,0,0,1,1.394.918,3.223,3.223,0,0,0,1.054,1.19c.476.646.68.782.782,1.428.408.612.2,1.19.476,1.564a4.164,4.164,0,0,0,.306,1.666c.306.272-.1,1.088.136,1.734.238.578,0,1.19.068,1.734C275.876-12.376,275.5-11.866,275.536-10.846Zm22.3,7.82c-.1.306-.272.34-.408.68a1.239,1.239,0,0,1-.408.374.808.808,0,0,1-.51.034c-.68-.034-.918-.612-.952-1.122a20.3,20.3,0,0,1,0-2.04,1.15,1.15,0,0,1-.034-.748,2.869,2.869,0,0,0,.068-.646c-.034-.476-.34-.646-.068-1.19.136-.238-.136-.51,0-.986.1-.34-.17-.68,0-1.19.1-.34-.034-.85.034-1.36a14.414,14.414,0,0,0-.2-2.244c-.272-.136-.238-.272-.238-.476a.88.88,0,0,0-.238-.612c-.272-.374-.51-.816-.884-.952-.612-.2-.748-.646-1.156-.612-.544.034-.714-.374-1.19-.272-.51-.068-.918-.1-1.224-.17a5.609,5.609,0,0,0-1.972.238,8.264,8.264,0,0,0-2.21.646c-.238.034-.306.136-.34.238-.068.1-.1.2-.442.2-.17,0-.306.272-.748.646a2.209,2.209,0,0,0-.68,1.8,1.93,1.93,0,0,0,.51,1.36,1.984,1.984,0,0,0,1.326.578c.544-.034.884.034,1.156-.51a2.054,2.054,0,0,0,.476-1.19,1.279,1.279,0,0,0-.476-1.088.7.7,0,0,1-.272-.85c-.1-.2.476-.748.884-.816a12.453,12.453,0,0,1,1.428-.238c.782.1,1.6.2,1.8.714.612.544.51,1.224.612,1.836a11.89,11.89,0,0,1,0,1.564,3.035,3.035,0,0,1,0,1.36c.068.238,0,.34-.136.578a.758.758,0,0,1-.748.374c-.646.068-.782.34-1.394.238a6.957,6.957,0,0,0-1.6.306,4.257,4.257,0,0,0-1.734.612c-.68.136-.714.578-1.394.884-.68.238-.85.816-1.292,1.5a3.76,3.76,0,0,0-.442,1.768,1.939,1.939,0,0,0,.034.442.645.645,0,0,0,.136.408c.1.2.272.306.17.714.272.51.442.986.952,1.156a4.379,4.379,0,0,0,1.36.748A6.47,6.47,0,0,0,286.96-.1a7.1,7.1,0,0,0,1.938-.34c.068-.2.238-.238.408-.272a.539.539,0,0,0,.408-.17c.272-.238.918-.34,1.088-.816a.667.667,0,0,1,1.088.238,3.483,3.483,0,0,0,.85.782,4.694,4.694,0,0,0,2.006.51.993.993,0,0,0,.306.068c.408,0,.816-.34,1.02-.272a1.955,1.955,0,0,0,1.054-.544c.34-.34.646-.34.884-.85a3.749,3.749,0,0,0,.646-.85.307.307,0,0,0,.034-.17.517.517,0,0,0-.51-.476A.3.3,0,0,0,297.84-3.026Zm-6.528-.442a5.409,5.409,0,0,1-.986,1.122,3.422,3.422,0,0,1-1.6.476,2.576,2.576,0,0,1-1.7-.782,1.073,1.073,0,0,1-.442-.952c0-.306-.272-.544-.17-.884.17-.442.034-.544.136-.816-.1-.408.272-.612.476-1.054a2.233,2.233,0,0,1,1.054-.952c.408-.408.714-.2,1.224-.544.306-.34.782-.17,1.02-.272.612-.17,1.224-.034,1.122.748a.643.643,0,0,0,.034.51.584.584,0,0,1,0,.578.507.507,0,0,0-.068.476.647.647,0,0,1,.034.578c-.034.374.17.476.034.884C291.38-4.012,291.516-3.74,291.312-3.468Zm24.446-12.58a1.388,1.388,0,0,0-.544-.136c-.238,0-.374.136-.51.034-.238,0-.816,0-1.19-.034-.238.238-.816.068-1.19.034h-.17a3.523,3.523,0,0,1-1.19-.034c-.068,0-.1-.034-.136-.034-.306,0-.442.306-.442.578,0,.306.136.646.442.68a5.408,5.408,0,0,0,1.054,0,.673.673,0,0,1,.68.51c.068.272-.374,1.02-.442,1.53a8.586,8.586,0,0,1-.612,1.5c-.272.782-.442.952-.714,1.666-.374.578-.374,1.224-.714,1.734a6.865,6.865,0,0,1-.918,1.938c-.136.408-.306.544-.476.544-.238,0-.442-.306-.544-.612A1.014,1.014,0,0,0,307.9-6.7a.456.456,0,0,1-.136-.51,1.28,1.28,0,0,0-.238-.612.96.96,0,0,1-.238-.68,7.094,7.094,0,0,1-.442-1.292c-.1-.408-.612-.544-.476-1.326.034-.2-.136-.34-.272-.544a.988.988,0,0,1-.17-.748c.034-.374-.306-.578-.442-1.156,0-.306-.17-.646-.17-.952,0-.2.1-.34.408-.442a4.353,4.353,0,0,1,1.156,0,.471.471,0,0,0,.476-.51.578.578,0,0,0-.374-.578,9.365,9.365,0,0,0-1.972,0c-.782.1-1.394-.136-2.278,0a17.411,17.411,0,0,1-2.312,0c-.476.034-.952-.1-1.394-.1a1,1,0,0,0-.442.068.577.577,0,0,0-.306.544.5.5,0,0,0,.544.544,3.509,3.509,0,0,1,1.224.1c.272.034.374.068.476.34.17.714.816,1.19.714,1.632-.1.2.306.544.408,1.054,0,.51.34.51.408,1.054a2.97,2.97,0,0,0,.544,1.428c.136.68.544.816.51,1.462a3.581,3.581,0,0,1,.544,1.428c.34.578.2.918.544,1.462a5.848,5.848,0,0,1,.544,1.462c.1.476.442.85.544,1.462A3.02,3.02,0,0,1,305.83-.68c-.068.34.34.68.34,1.292.1.476-.17.578-.136.986a1.552,1.552,0,0,1-.17.476,3.319,3.319,0,0,0-.272.782,16.676,16.676,0,0,0-.714,1.734,6.958,6.958,0,0,0-.884,1.564,1.142,1.142,0,0,1-.986.476.972.972,0,0,1-.884-.816c-.136-.544-.884-.85-1.462-.884a1.733,1.733,0,0,0-1.394.578c-.408.238-.136.986-.34,1.36-.136.782.136,1.054.714,1.6.408.544.952.408,1.7.612h.2a4.338,4.338,0,0,0,1.394-.408,2.09,2.09,0,0,0,1.224-.986,3.706,3.706,0,0,0,.918-1.36,10.385,10.385,0,0,0,.748-1.7.829.829,0,0,1,.272-.578.353.353,0,0,0,.136-.272c.034-.374.442-.918.442-1.088a.872.872,0,0,1,.272-.714,1,1,0,0,0,.17-.51A.692.692,0,0,1,307.36.85,1.194,1.194,0,0,0,307.6.544a1.9,1.9,0,0,0,.238-.51c.068-.17.068-.272.2-.578,0-.408.51-.578.476-1.088a.687.687,0,0,1,.17-.68,1.223,1.223,0,0,0,.272-.408,1.089,1.089,0,0,1,.476-1.088,8.146,8.146,0,0,1,.442-1.088c.34-.408.068-.68.476-1.088.238-.51.2-.544.442-1.088a2.825,2.825,0,0,1,.442-1.088,3.073,3.073,0,0,0,.17-.544,1,1,0,0,1,.306-.544c.2-.1.17-.272.2-.51a.763.763,0,0,1,.238-.578c.238-.17.238-.34.272-.578a2.215,2.215,0,0,1,.17-.51c0-.306.2-.544.476-1.054.136-.136.034-.782.408-.986,0-.272.17-.442.476-.952a1.273,1.273,0,0,0,.238-.408c.068-.136.136-.238.544-.17a2.93,2.93,0,0,0,.986.034c.2-.034.306-.272.306-.51C316.03-15.742,315.928-16.014,315.758-16.048Zm12.784,9.316a5.083,5.083,0,0,0-1.156-1.938,8.387,8.387,0,0,0-2.108-1.156.652.652,0,0,1-.646-.136,1.346,1.346,0,0,0-.544-.272c-.68.034-.986-.51-1.428-.476a6.3,6.3,0,0,1-1.428-.578,2.838,2.838,0,0,1-1.02-.816,1.341,1.341,0,0,1-.374-1.224,2.228,2.228,0,0,1,.986-1.734,4.749,4.749,0,0,1,1.9-.476,3.357,3.357,0,0,1,1.836.408,6.078,6.078,0,0,1,1.5,1.224,2.626,2.626,0,0,1,.544,1.224,5.6,5.6,0,0,0,.136,1.088.414.414,0,0,0,.442.306c.306,0,.578-.17.51-.408,0-.408-.034-.68-.068-1.156a.311.311,0,0,0-.1-.238c-.034-.1-.068-.17.068-.374-.034-.51.068-.748.1-1.7-.034-.272.17-.476.136-.714a.611.611,0,0,0-.51-.306.187.187,0,0,0-.17.1c-.238.2-.238.442-.442.578-.17.068-.306,0-.544-.1a10.378,10.378,0,0,0-1.7-.68,8.74,8.74,0,0,0-1.7-.272h-.136a7.065,7.065,0,0,0-1.938.408,1.066,1.066,0,0,0-.374.272.548.548,0,0,1-.544.2,1.625,1.625,0,0,0-.782.612,6.27,6.27,0,0,0-1.156,1.666,5.947,5.947,0,0,0-.442,2.074,3.662,3.662,0,0,0,.374,2.108,2.69,2.69,0,0,0,1.156,1.428,2.99,2.99,0,0,0,1.462.884c.476.17,1.02.68,1.734.646.374-.068.578.238,1.02.374a5,5,0,0,1,1.02.272c.238.1.476.034.85.374a.6.6,0,0,0,.272.17c.17.034.306.1.442.408a1.185,1.185,0,0,1,.34.986c.1.51-.1.748-.238,1.224a3.874,3.874,0,0,1-.918.918c-.136.272-.238.238-.374.238a.375.375,0,0,0-.306.1,5.155,5.155,0,0,1-1.428.136,4.02,4.02,0,0,1-1.258-.1.585.585,0,0,1-.51-.17,1.784,1.784,0,0,0-.374-.238,4.378,4.378,0,0,1-1.02-.748,4.215,4.215,0,0,1-.714-.884.67.67,0,0,1-.34-.51c-.068-.136-.1-.306-.2-.544a6.261,6.261,0,0,1-.34-1.326c.034-.238-.238-.374-.476-.374-.2,0-.408.068-.442.272a8.041,8.041,0,0,0,.034,1.02c.1.306.238.51.068.85a5.492,5.492,0,0,1-.068,1.326c-.136.51-.136.986-.238,1.394a.257.257,0,0,0-.034.136c0,.34.646.51.782.272.2-.238.136-.374.476-.646.1-.1.442-.068.816.238.374.374,1.122.442,1.6.714a4.714,4.714,0,0,0,1.088.2,5.831,5.831,0,0,0,1.53.136,11.254,11.254,0,0,0,2.006-.34c.442-.17.85-.2,1.156-.578.238-.306.612-.17.782-.51a1.022,1.022,0,0,1,.408-.374.879.879,0,0,0,.272-.374c.136-.51.68-.986.714-1.428a.775.775,0,0,1,.136-.646,1.04,1.04,0,0,0,.1-.51v-.1A7.375,7.375,0,0,0,328.542-6.732Z" transform="translate(178.227 4082.784)"/>
      <path id="パス_72310_-_アウトライン" data-name="パス 72310 - アウトライン" d="M11.9-32.14,13-31.823c.149-.01.318-.017.5-.017H14.57l.276.085h.291l2.083.282.613.175.562.3.762.234,2.773-.09h3.014l2.36,2.662,1.8,2.418-.626,2.45c-.045.38-.107.694-.172,1l0,1.4a2.5,2.5,0,0,1,.077.379,12.077,12.077,0,0,1,1.323-.609,7.091,7.091,0,0,1,3.1-1.06,6.2,6.2,0,0,1,1.644-.237l.2-.083,2.028-.022.994.223a8.661,8.661,0,0,1,3.794,1.017q.172.074.331.153a6.5,6.5,0,0,1,1.588-.652l.7-.184,3.247-.208h.021l.1-.049,1.043-.123.874-.273,1.289-.04h4.325l.088.2h.993a9.846,9.846,0,0,1,2.691.2,7.3,7.3,0,0,1,2.282.587l.024,0a7.587,7.587,0,0,1-.047-.781,7.174,7.174,0,0,1,1.5-5.22l1.413-1.913.948-.272a8.61,8.61,0,0,1,2.587-1.1l.484-.242,3.341-.034,1.4.738,1.561.485,1.548,1.88a8.3,8.3,0,0,1,1.793,3.84l.169,1.044a8.741,8.741,0,0,1,.017,1.082l.3-.017h.021l.1-.049,1.043-.123.874-.273,1.289-.04h4.325l.088.2H86.8a9.847,9.847,0,0,1,2.691.2,7.016,7.016,0,0,1,3.318,1.166,6.208,6.208,0,0,1,1.905,1.3l.39.412,1.73.865.7,2.846.3.74.239,1.524.237,1.068-.106.794.044.484a16.765,16.765,0,0,1-.074,4.007l.306.868,1.764.756.34,4.5A6.382,6.382,0,0,1,94.282,5.49L91.427,5.5l-.017-.178a7.551,7.551,0,0,1-.825.164l-.041.041h-.3q-.358.034-.72.034L85.9,5.467l-1.19-.1h0a5.663,5.663,0,0,0,1.349.161h-.739l-.628-.157a6.776,6.776,0,0,1-1.455.157h-.156l-.962-.056a11.2,11.2,0,0,1-2.142-.049l-6.841.1c-.242.02-.545.034-.848.034l-2.94-.034-.007-.1-1.124.018c-1.471.059-1.921.085-2.626.085a8.831,8.831,0,0,1-1.239-.086,6.205,6.205,0,0,1-.8.052L60.691,5.5l-.017-.178a7.552,7.552,0,0,1-.825.164l-.041.041h-.3q-.358.034-.72.034l-3.625-.091-1.19-.1h0a5.663,5.663,0,0,0,1.349.161h-.739l-.628-.157a6.776,6.776,0,0,1-1.455.157H52.34l-.962-.056a11.2,11.2,0,0,1-2.142-.049l-9.449.1a8.815,8.815,0,0,1-2.83.442l-1.35.169-.68-.177a10.4,10.4,0,0,1-2.1-.244,10.587,10.587,0,0,1-3.192-1.058A10.587,10.587,0,0,1,27.136,3.27L25.592,2.112l-1.092.42a6.789,6.789,0,0,1-2.112,1.2l-.023.01-.526.421L20.762,4.5c.185-.022-.584.429-1.866.642a6.754,6.754,0,0,1-1.979.474c-.279.045-.57.083-.87.118a8.706,8.706,0,0,1-2,.262h-2.1L10.6,5.676a7.4,7.4,0,0,1-2.8-.639q-.157-.044-.3-.091H6.465L5.2,3.982l-.753-.188L3.786,3.15a8.076,8.076,0,0,1-2.4-1.65L-.954.56l-.111-1.877-.213-.241-.283-.5-1.188-1.2-.219-1.056-.459-1.351L-4.7-7.82l.33-1.074L-4.682-9.5l.053-1.532-.02-.082-.094-1.259v-.739l.177-.767c.007-.459.021-.861.053-1.252l-.034-.062.083-.419c.023-.187.052-.375.087-.571l.278-1.559L-4-17.867a9.714,9.714,0,0,1,.932-2.47,7.255,7.255,0,0,1,.5-1.141A7.093,7.093,0,0,1-.984-23.97q.091-.148.185-.285l.24-1.2L1.4-26.9l.152-.191,1.174-.9,1.235-1.236.588-.042.079-.056.531-.743,1.815-.508.487-.406.766-.1,2.41-.5Zm2.958,13.862c-.123-.1-.239-.2-.348-.3l-.155.069-.055.152-.271.325-.394.933a7.489,7.489,0,0,1-.233,1.062,8.47,8.47,0,0,1-.211,1.026l1.961-.186c.206,0,.421.009.644.03l-.432-1.711-.128-.254-.03-.352.006-.042-.005-.082-.016-.041C15.073-17.846,14.96-18.055,14.854-18.278Zm250.166-13.7.863.555c.142-.006.289-.01.438-.01h1.4l.164.07,1.566-.07.477.068h.607a15,15,0,0,1,3.106.367l.509.107.483.193a5.461,5.461,0,0,1,1.76.459,15.1,15.1,0,0,1,1.747.746l.775.172,2.023,1.676a11.4,11.4,0,0,1,1.387,1.274l.472.315,1.23,1.854a9.529,9.529,0,0,1,1.462,2.492,5.141,5.141,0,0,1,1.67-.5,10.559,10.559,0,0,1,2.722-.335l.707-.011,1,.124,0-.01v.01l.135.017,0,.012,1.492,0,.643.29h1.059l.96.68.024-.015,1.267-.633,1.858-.068a10.7,10.7,0,0,1,1.368.1l1.217.034.471-.075,1.232,0,1.154.056.386-.05,1-.014c.432,0,.93.02,1.57.067l1.453.108a6.5,6.5,0,0,1,1.946-.294h.235l.2-.2,2.8.254,1.157-.025q.288,0,.577.025l.333.037a7.374,7.374,0,0,1,1.229.275l.962.192.355-.178.084.009a12.715,12.715,0,0,1,3.871-.734h.136a16.647,16.647,0,0,1,3.028.414l1.528-.04H332l1.646,4.851.45,1.8-.457,1.335-.055.631.005.08q.02.2.027.411l.025.375.637,2.231-.487.689a8.526,8.526,0,0,1,.567,1.593,12.972,12.972,0,0,1,.383,3.291V-3.48l-.289.739-.086,1.117-1.21,2.1L332.448,1.9l-.625.492-.656,1.148-1.6.608a7.7,7.7,0,0,1-2.267,1.1,14.043,14.043,0,0,1-2.924.622l-.513.058-1.041.034a10.4,10.4,0,0,1-2.247-.21,8.213,8.213,0,0,1-1.718-.357l-1.442.043h-5.3l-.1,1.05-.807.873a13.2,13.2,0,0,1-.935,1.977,6.466,6.466,0,0,1-1.4,2.109,8.121,8.121,0,0,1-3.831,2.849,9.029,9.029,0,0,1-3.5.79h-.8l-.979-.211a7.167,7.167,0,0,1-4.482-2.268,7.337,7.337,0,0,1-2.265-6.758l.026-.149V5.673a11.062,11.062,0,0,1-1.9-.5l-.139.009a12.307,12.307,0,0,1-3.7.71l-.7.041-.693-.122a7.8,7.8,0,0,1-2.7-.555,8.787,8.787,0,0,1-2.194-1.125,6.9,6.9,0,0,1-1.9-1.494,6.548,6.548,0,0,1-1.536.849l-.152.111-1,.293-1.376.779h-.71a7.741,7.741,0,0,1-1.991.393,11.837,11.837,0,0,1-1.548.21,7.684,7.684,0,0,1-2.121.29l-.728-.033c-.206.02-.429.033-.666.033h-.6l-.371-.063-.971.063-.1-1.312a7.654,7.654,0,0,1-.8-.182l-.137,1.446-.824.082-.265-.16-.83.1-.332-.15c-.015.138-.723.138-1.026.138h-2.327a6.576,6.576,0,0,1-.937.068h-1.155l-.969-.34a6.483,6.483,0,0,1-4.76-6.306v-6l3.754-.3c.02-.16.041-.292.058-.393l0-.061a7.483,7.483,0,0,1-.11-2.554,8.457,8.457,0,0,1,.105-1.848,7.349,7.349,0,0,1-.012-2.968,5.972,5.972,0,0,1,.012-1.376,6.788,6.788,0,0,1-.011-1.18l-.043-.561.034-.582a6.551,6.551,0,0,1-2.8-2.743l-1.7-3.169,2.064-3.735c.712-1.527,2.924-2.876,5.4-2.876h.739l.291.062.776-.007.346-.173,1.888.29.954-.238.278.154Zm-154.65.5,1.337.251,1.9.054,2.64-.03,1.437.026,1.228-.136,1.2.232,3.643-.134.636.065.13-.013c.392-.039.978-.078,1.543-.078l.811,0a7.491,7.491,0,0,1,1.436-.124l0,.021a7.179,7.179,0,0,1,1.223-.091h6l.476,7-.018.138.018,1.231-.034.163v.246l1.174-.042h4.062l.122.246.742-.041a8.629,8.629,0,0,1,3.528.72l.686.3.287.192,1.795-.341a3.552,3.552,0,0,1,1.766-.6,10.559,10.559,0,0,1,2.722-.335l.707-.011,1,.124,0-.01v.01l.135.017,0,.012,1.492,0,.643.29H157.9l.648.459.536-.046a7.587,7.587,0,0,1-.047-.781,7.174,7.174,0,0,1,1.5-5.22l1.413-1.913.948-.272a8.61,8.61,0,0,1,2.587-1.1l.484-.242,3.341-.034,1.4.738,1.561.485,1.548,1.88a8.3,8.3,0,0,1,1.793,3.84l.169,1.044a8.741,8.741,0,0,1,.017,1.082l.3-.017h.021l.1-.049,1.043-.123.874-.273,1.289-.04h4.325l.088.2h.993a9.847,9.847,0,0,1,2.691.2,7.3,7.3,0,0,1,2.282.587l.024,0a7.591,7.591,0,0,1-.047-.781,7.174,7.174,0,0,1,1.5-5.22l1.413-1.913.948-.272a8.611,8.611,0,0,1,2.587-1.1l.484-.242,3.341-.034,1.4.738,1.561.485,1.548,1.88a8.3,8.3,0,0,1,1.793,3.84l.169,1.044a8.738,8.738,0,0,1,.017,1.082l.3-.017h.021l.1-.049,1.043-.123.874-.273,1.289-.04h4.325l.088.2h.993a9.846,9.846,0,0,1,2.691.2,7.016,7.016,0,0,1,3.318,1.166,6.208,6.208,0,0,1,1.905,1.3l.262.273.662-.505.33-.55,1.946-.724a7.575,7.575,0,0,1,3.883-1.049l.369-.014a7.632,7.632,0,0,1,1.17-.092l.794.04.475.071a7.567,7.567,0,0,1,1.5.114,7.659,7.659,0,0,1,1.71.417c.191-.106.393-.209.61-.309l.253-.117.995-.614,2.117-.162h.974l.642.2a7.177,7.177,0,0,1,4.247,2.043,7.235,7.235,0,0,1,2.416,5.455v.974l-.083.29a6.994,6.994,0,0,1-1.109,3.234,7.049,7.049,0,0,1-2.723,2.591,7.905,7.905,0,0,1-.44,1.37l1,1.167,1.48,1.234.454,2.075a9.343,9.343,0,0,1,.605,3.658v.916l-.071.226a7.333,7.333,0,0,1-.408,2.124,10.92,10.92,0,0,1-.686,2.089l-.616,1.438-.371.285a12.17,12.17,0,0,1-2.778,3.29,7.937,7.937,0,0,1-3.341,1.965,7.262,7.262,0,0,1-2.994.906l-.647.134a8.5,8.5,0,0,1-2.317.344l-.583.116-.743-.116a16.77,16.77,0,0,1-2.284-.152l-1.207-.144a9.3,9.3,0,0,1-.934-.215H228l-.666-.154a16.135,16.135,0,0,1-2.131-.688l-.868-.334-.287-.229a8.5,8.5,0,0,1-2.126-1.35l-1.414-.544-1.218-2.807a7.3,7.3,0,0,1-.818-2.445l-.107-.215,0-.143h-.083l-3.625-.091-1.19-.1h0a5.663,5.663,0,0,0,1.349.161h-.739l-.628-.157a6.776,6.776,0,0,1-1.455.157h-.156l-.962-.056a11.2,11.2,0,0,1-2.142-.049l-6.841.1c-.242.02-.545.034-.848.034l-2.94-.034-.007-.1-1.124.018c-1.472.059-1.921.085-2.627.085a8.83,8.83,0,0,1-1.239-.086,6.206,6.206,0,0,1-.8.052l-2.855.008-.017-.178a7.552,7.552,0,0,1-.825.164l-.041.041h-.3q-.358.034-.72.034l-3.625-.091-1.19-.1h0a5.663,5.663,0,0,0,1.349.161h-.739l-.628-.157a6.776,6.776,0,0,1-1.455.157H181.1l-.962-.056a11.2,11.2,0,0,1-2.142-.049l-6.841.1c-.242.02-.545.034-.848.034l-2.94-.034-.007-.1-1.124.018c-1.471.059-1.921.085-2.626.085a8.416,8.416,0,0,1-2.3-.31c-.244.08-.483.15-.707.209l-.141.038a7.317,7.317,0,0,1-1.271.339l-.326.087-.087-.029a6.826,6.826,0,0,1-.741.04h-.974l-.456-.139a11.174,11.174,0,0,1-2.475-.59l-.139.009a12.307,12.307,0,0,1-3.7.71l-.7.041-.693-.122a7.8,7.8,0,0,1-2.7-.555,8.784,8.784,0,0,1-2.19-1.122A6.22,6.22,0,0,1,140.647,5.5a10.872,10.872,0,0,1-1.621.1c-.531,0-1.062,0-1.725-.047l-.927-.021-1.491.034-3.261-.064-.373.005h-5.171a6.271,6.271,0,0,1-.856.058,15.364,15.364,0,0,1-1.721-.089l-.091,0L122.2,5.456l-.9,0-1,.063h-3.6l-.01-.084-.6-.126a5.4,5.4,0,0,0,.593.07l-.118-1-.875.05-.353,0-.168.026-.17,1.029-1.333.025-6.333.352-.476-6.921a6.382,6.382,0,0,1,3.727-5.856l.071-.3-.005-.068.033-.051.136-.573a13.563,13.563,0,0,1,.006-1.394,6.531,6.531,0,0,1-.042-1.392c-.016-.133-.028-.262-.037-.388l-1.9.34a6.494,6.494,0,0,1-5.724-3.422l-.717-1.332-.034-1.937a5.636,5.636,0,0,1-.034-.663l.045-.871c-.009-.171-.011-.319-.011-.455v-.48l.143-1.155a8.535,8.535,0,0,1-.032-1.091l-.215-.93.218-1.2c-.067.183-.146-.683.035-1.772l.836-5.014,4.96-.273.268-.067,1.459.011Z" transform="translate(178.227 4082.784)" fill="#f7f6f2"/>
      <path id="パス_71145" data-name="パス 71145" d="M24.071,13.357A3.593,3.593,0,0,1,22,11.284L17.678,0l-4.32,11.283a3.6,3.6,0,0,1-2.073,2.074L0,17.678,11.285,22a3.593,3.593,0,0,1,2.073,2.074l4.32,11.283L22,24.071A3.593,3.593,0,0,1,24.071,22l11.285-4.319Zm-6.393,6.1a1.776,1.776,0,1,1,1.776-1.776,1.776,1.776,0,0,1-1.776,1.776" transform="translate(139.154 4048.821) rotate(30)"/>
      <path id="パス_71145_-_アウトライン" data-name="パス 71145 - アウトライン" d="M17.678,41.354a6,6,0,0,1-5.6-3.854L8.137,27.217-2.145,23.281A6,6,0,0,1-6,17.678a6,6,0,0,1,3.855-5.6L8.137,8.138,12.075-2.145A6,6,0,0,1,17.678-6a6,6,0,0,1,5.6,3.854L27.219,8.138,37.5,12.075a6,6,0,0,1,0,11.207L27.219,27.217,23.281,37.5A6,6,0,0,1,17.678,41.354ZM15.753,17.677A9.623,9.623,0,0,1,17.678,19.6,9.622,9.622,0,0,1,19.6,17.677a9.619,9.619,0,0,1-1.924-1.924A9.621,9.621,0,0,1,15.753,17.677Z" transform="translate(139.154 4048.821) rotate(30)" fill="#f7f6f2"/>
    </g>
    <g id="グループ_17692" data-name="グループ 17692">
      <g id="グループ_17691" data-name="グループ 17691">
        <g id="グループ_16739" data-name="グループ 16739" transform="translate(65.315 -256)">
          <path id="パス_67458" data-name="パス 67458" d="M24.071,13.357A3.593,3.593,0,0,1,22,11.284L17.678,0l-4.32,11.283a3.6,3.6,0,0,1-2.073,2.074L0,17.678,11.285,22a3.593,3.593,0,0,1,2.073,2.074l4.32,11.283L22,24.071A3.593,3.593,0,0,1,24.071,22l11.285-4.319Zm-6.393,6.1a1.776,1.776,0,1,1,1.776-1.776,1.776,1.776,0,0,1-1.776,1.776" transform="translate(475.589 4610) rotate(30)"/>
          <path id="パス_67458_-_アウトライン" data-name="パス 67458 - アウトライン" d="M17.678,41.354a6,6,0,0,1-5.6-3.854L8.137,27.217-2.145,23.281A6,6,0,0,1-6,17.678a6,6,0,0,1,3.855-5.6L8.137,8.138,12.075-2.145A6,6,0,0,1,17.678-6a6,6,0,0,1,5.6,3.854L27.219,8.138,37.5,12.075a6,6,0,0,1,0,11.207L27.219,27.217,23.281,37.5A6,6,0,0,1,17.678,41.354ZM15.753,17.677A9.623,9.623,0,0,1,17.678,19.6,9.622,9.622,0,0,1,19.6,17.677a9.619,9.619,0,0,1-1.924-1.924A9.621,9.621,0,0,1,15.753,17.677Z" transform="translate(475.589 4610) rotate(30)" fill="#f7f6f2"/>
        </g>
        <g id="グループ_16739-2" data-name="グループ 16739" transform="translate(65.315 -256)">
          <path id="パス_67458-2" data-name="パス 67458" d="M24.071,13.357A3.593,3.593,0,0,1,22,11.284L17.678,0l-4.32,11.283a3.6,3.6,0,0,1-2.073,2.074L0,17.678,11.285,22a3.593,3.593,0,0,1,2.073,2.074l4.32,11.283L22,24.071A3.593,3.593,0,0,1,24.071,22l11.285-4.319Zm-6.393,6.1a1.776,1.776,0,1,1,1.776-1.776,1.776,1.776,0,0,1-1.776,1.776" transform="translate(476.589 4610) rotate(30)"/>
        </g>
      </g>
      <path id="パス_72308" data-name="パス 72308" d="M25.6-9.112a5.125,5.125,0,0,0-1.224.034c-.612.2-.952-.1-1.224,0a6.985,6.985,0,0,1-1.462,0c-.578.034-.748-.034-1.394,0-.714.068-.85-.136-1.394,0-.544.2-.85,0-1.156.034-.476-.136-.85.2-1.19-.068a7.053,7.053,0,0,0-.714-.034,3.139,3.139,0,0,1-.51-.034.62.62,0,0,0-.816.612c0,.34.238.68.646.544.714.068,1.292,0,1.9.034a1.4,1.4,0,0,1,1.292.884,10.562,10.562,0,0,1,0,2.074A3.731,3.731,0,0,1,17.952-3.4c-.442.612-.578,1.122-1.02,1.224a2.625,2.625,0,0,1-1.428.782,6.284,6.284,0,0,1-1.666.272,6.062,6.062,0,0,1-1.462-.2,2.865,2.865,0,0,1-1.394-.544,6.025,6.025,0,0,1-1.224-.884c-.34-.476-.816-.544-.952-1.122-.1-.442-.17-.442-.51-.952.068-.2-.51-.816-.374-1.02a1.535,1.535,0,0,0-.34-1.088c-.238-.17-.238-.748-.238-1.122a4.2,4.2,0,0,1-.272-2.312A7.849,7.849,0,0,1,7-12.512a14.284,14.284,0,0,0,.1-2.346,7.514,7.514,0,0,1,.136-1.19,2.536,2.536,0,0,0,.2-1.224,2.027,2.027,0,0,0,.272-1.156c.136-.578.374-.714.374-1.156-.034-.442.408-.68.442-1.088a2.061,2.061,0,0,1,.578-.986,6.275,6.275,0,0,1,1.054-1.258c.374-.374.918-.612,1.326-.952a7.361,7.361,0,0,0,1.5-.646c.612-.068,1.156-.238,1.6-.238.646.2,1.054,0,1.666.272a5.189,5.189,0,0,1,1.564.714,4.6,4.6,0,0,0,1.292,1.122c.2.51.816.782,1.054,1.326a1.741,1.741,0,0,0,.544,1.088c0,.612.476.918.408,1.156a.823.823,0,0,0,.1.476.912.912,0,0,1,.1.68,5.644,5.644,0,0,0,.17.884c.1.68,1.088.68,1.156.068.068-.238-.136-.476-.068-.85a9.022,9.022,0,0,0-.2-1.428c.17-.714-.068-.986-.068-1.8l.034-1.7c0-.68.17-.884.2-1.564.1-.34-.306-.544-.612-.544-.17,0-.272.068-.306.17a.415.415,0,0,1-.272.306,1.659,1.659,0,0,0-.544.612c-.17.238-.714.034-1.054-.238a1.411,1.411,0,0,0-.612-.238.88.88,0,0,1-.476-.306c-.442-.408-1.088-.476-1.36-.68a9.53,9.53,0,0,1-1.734-.476,2.2,2.2,0,0,0-.646-.068,3.921,3.921,0,0,1-1.258-.068H13.5c-.442,0-.68.2-1.156.068a1.357,1.357,0,0,1-.646.136,2.48,2.48,0,0,0-.612.068c-.306.34-.918.17-1.19.374-.2.17-.986.2-1.156.442-.374.1-.612.544-1.088.612-.476.34-.714.612-1.02.68-.476.476-.612.408-.952.816-.272.34-.714.374-.85.85-.068.34-.374.612-.782.986-.2.1-.2.306-.238.51a.448.448,0,0,1-.476.51c-.34.238-.34.782-.578,1.088a1.649,1.649,0,0,0-.272.646c-.034.238-.034.408-.238.51a4.305,4.305,0,0,0-.476,1.36c.17.306.136.442.034.578a1.157,1.157,0,0,0-.272.476c-.17.952-.034,1.632-.238,2.55,0,.068-.034.136-.034.2,0,.408.238.782.1,1.088a1.1,1.1,0,0,0,.1.612.611.611,0,0,1,.068.646.981.981,0,0,0,.2.578.53.53,0,0,1,.1.646c-.136.306.442.748.374,1.156.1.408.612.51.51,1.088a.8.8,0,0,0,.2.51,2.58,2.58,0,0,1,.408.51,6.361,6.361,0,0,0,.68.952,2.862,2.862,0,0,0,.782.884c0,.1.1.136.238.2a.433.433,0,0,1,.34.476A2.079,2.079,0,0,0,6.6-2.21c.612.068.612.51,1.02.612.544.136.612.544,1.054.544.238-.068.578.442,1.156.408A1.9,1.9,0,0,0,11.05-.34,6.992,6.992,0,0,0,12.138-.1a2.567,2.567,0,0,0,.782.1,1.658,1.658,0,0,0,.68-.1,1.174,1.174,0,0,0,.442.1,5.644,5.644,0,0,0,.884-.17,13.64,13.64,0,0,0,1.394-.2c.306.1.816-.408,1.36-.374.646-.034.748-.306,1.292-.476.51-.408.646-.272,1.258-.68.544,0,.68-.612,1.122-.782.17-.374.85-.544,1.02-.85.272-.578.68-.714.748-1.292V-5.95a.739.739,0,0,1,0-.714.954.954,0,0,0,.034-.476.71.71,0,0,1,.578-.85,14.1,14.1,0,0,1,1.7,0,.531.531,0,0,0,.612-.578C26.044-8.874,25.874-9.146,25.6-9.112ZM41.99-4.454c-.476.578-.578.918-.782,1.122-.136.578-.816.612-1.054,1.088-.612.544-.918.34-1.326.714a3.832,3.832,0,0,1-1.7.238,3.4,3.4,0,0,1-1.462-.17,2.439,2.439,0,0,1-1.122-.476,1.972,1.972,0,0,1-.884-.748c-.34-.374-.238-.544-.646-.986-.306-.34-.238-.952-.408-1.122-.2-.17-.17-.34-.17-.612a1.667,1.667,0,0,0-.1-.646A2.359,2.359,0,0,1,32.2-7.378a1.138,1.138,0,0,0-.034-.782,1.435,1.435,0,0,1,0-.544L32.2-8.84c.238-.306.408-.544.748-.544H35.36c.646-.17.816.1,1.6,0a5.007,5.007,0,0,1,1.6,0c.578.1,1.19-.068,2.108.034a8,8,0,0,0,1.972-.1c.272.068.578-.272.578-.68a.579.579,0,0,0-.034-.238,2.622,2.622,0,0,0-.544-1.87,1.169,1.169,0,0,1-.272-.476,1.377,1.377,0,0,0-.272-.442c-.272-.1-.238-.476-.646-.85a3.547,3.547,0,0,0-1.19-1.088,7.8,7.8,0,0,0-1.36-.782,2.582,2.582,0,0,0-1.5-.476c-.442.1-1.122-.2-1.462-.2-.068,0-.1.034-.136.034-.612.2-.952-.068-1.7.17a3.735,3.735,0,0,0-1.564.476c-.374.272-1.156.408-1.428.782-.306.34-1.02.442-1.258.986-.238.51-.748.612-.986,1.224-.238.578-.646.714-.782,1.428a.615.615,0,0,1-.1.646.71.71,0,0,0-.272.442,17.252,17.252,0,0,0-.306,1.9.663.663,0,0,0,.034.272,1.8,1.8,0,0,0-.034.408c0,.476.17.748.2,1.326a2.3,2.3,0,0,0,.476,1.6c.2.714.578.748.748,1.36a2.747,2.747,0,0,0,1.02,1.19.855.855,0,0,0,.408.238c.238.068.408.1.476.544A8.729,8.729,0,0,0,32.5-.612a4.869,4.869,0,0,0,1.564.442,2,2,0,0,0,.782.136H35.5A.941.941,0,0,1,35.8,0a6.284,6.284,0,0,1,.816-.034h.34a3.385,3.385,0,0,0,1.224-.238,4.053,4.053,0,0,0,1.87-.782l.68-.442c.1-.306.51-.51.85-.884.2-.272.476-.578.68-.884.136-.306.442-.408.544-.816.1-.272-.238-.578-.51-.578A.284.284,0,0,0,41.99-4.454Zm-9.35-7.99c.1-.408.068-.986.408-1.326a7.318,7.318,0,0,1,1.088-1.36,2.728,2.728,0,0,1,1.734-.51,2.494,2.494,0,0,1,1.666.544c.442.272.544.85.884,1.36.374.476.1,1.02.374,1.394a7.574,7.574,0,0,1,.068,1.5c.034.51-.1.68-.816.646-.952-.034-1.734.034-2.482,0-.544.034-1.7,0-2.346,0-.714,0-.986-.272-.884-1.054a.859.859,0,0,0,.1-.612A.752.752,0,0,1,32.64-12.444ZM63.512-1.5c-.238-.1-.34-.034-.612-.068a5.485,5.485,0,0,0-.748,0c-.476-.034-.578-.136-.612-.816-.034-.85-.034-2.414-.034-3.468a7.172,7.172,0,0,1,0-2.108,11.044,11.044,0,0,0,.034-2.584c-.272-.34-.17-.544-.136-.918a3.533,3.533,0,0,0,.034-.884,7.133,7.133,0,0,0-.2-1.122A1.375,1.375,0,0,1,61-14.11c-.034-.17-.068-.306-.2-.374-.374-.272-.748-.816-1.054-1.088a.717.717,0,0,0-.374-.17.941.941,0,0,1-.612-.374c-.374-.34-1.088-.1-1.394-.34-.374-.272-.918-.034-1.292-.034-.544.2-1.088.034-1.326.136-.374.2-1.054.476-1.36.68a5.171,5.171,0,0,0-1.564,1.02.515.515,0,0,1-.374.238c-.1,0-.2-.1-.238-.34-.068-.646.1-1.258.034-1.53a.6.6,0,0,0-.578-.408.664.664,0,0,0-.238.034,4.881,4.881,0,0,1-1.224.238,4.069,4.069,0,0,1-1.53.2c-.374.136-.646-.034-1.258.1-.748.1-1.122.034-1.5.1-.646.17-.442,1.122.1,1.02a3.941,3.941,0,0,1,1.122.1c.374.1.544.51.578,1.156.034.476-.034,1.258,0,1.938a4.06,4.06,0,0,0,0,1.7,9.292,9.292,0,0,0,0,1.7,9.845,9.845,0,0,1,0,1.734.861.861,0,0,0,.1.68.736.736,0,0,1-.1.884c0,.884-.068,1.564,0,2.312a1.546,1.546,0,0,1-.17.952.567.567,0,0,1-.51.306,7.984,7.984,0,0,0-.884.034c-.272.068-.612-.1-.748.136a.582.582,0,0,0-.238.442.475.475,0,0,0,.442.442h.2c.272,0,.51-.034.748-.034.34,0,.68.034,1.054.034h.272a16.911,16.911,0,0,1,1.768-.068A11.107,11.107,0,0,1,50.8-.476a6.554,6.554,0,0,1,1.632,0H52.5c.442,0,.646-.272.646-.51a.6.6,0,0,0-.238-.476c-.136-.2-.442-.034-.612-.1-.17-.034-.442,0-.544-.1-.374-.1-.51-.306-.544-.986-.034-.714-.034-1.36-.034-1.87-.34-.442-.272-.646-.136-.884a1.257,1.257,0,0,0,.17-.374c.068-.68-.2-.782,0-1.394.17-.238-.068-1.054,0-1.394-.17-.544.2-1.156,0-1.428a2.4,2.4,0,0,1,0-1.394c.2-.272-.068-.714,0-1.394a2.25,2.25,0,0,1,.952-1.122,5.059,5.059,0,0,1,1.224-.578,4.547,4.547,0,0,1,1.292-.34c.374.2,1.122.136,1.224.34.068.272.51.2.612.646a6.687,6.687,0,0,1,.306,2.21,15.527,15.527,0,0,0,0,2.516,1.215,1.215,0,0,1,.1.986.79.79,0,0,0,0,.68.825.825,0,0,1-.068.782c-.1.136,0,.272.068.408a.443.443,0,0,1-.034.408c-.17.272.136.646,0,1.088a5.4,5.4,0,0,0-.068,1.292c.068.952.068,1.6-.272,1.836a2.083,2.083,0,0,1-1.156.068c-.476.068-.612.952-.068,1.088.068,0,.136.034.2.034.2,0,.408-.068.646-.068.068,0,.136.034.2.034.17,0,.34.034.476.034.17,0,.34-.034.476-.034.2-.2.476-.034.612-.034.306,0,.578.068.85.068a1.577,1.577,0,0,0,.646-.136c.782-.034.986.068,1.87.1l.238.034c.34,0,.68-.1.986-.068h1.02c.17,0,.306-.2.306-.442A.552.552,0,0,0,63.512-1.5Zm4.012-19.686c.442.374.748.646,1.19.646a3.12,3.12,0,0,0,2.244-.51,1.873,1.873,0,0,0,.816-1.768,2.917,2.917,0,0,0-.612-1.53.617.617,0,0,1-.51-.374.536.536,0,0,0-.238-.238,1.851,1.851,0,0,0-.85-.306.431.431,0,0,0-.2.034,2.642,2.642,0,0,0-1.326.442c-.1.068-.1.272-.476.34-.408.612-.748.816-.51,1.6a2.043,2.043,0,0,0,.1.986.576.576,0,0,0,.2.272A.573.573,0,0,1,67.524-21.182ZM73.474-1.5a2.566,2.566,0,0,0-1.19-.068A.608.608,0,0,1,71.5-2.21c0-.85-.068-1.394,0-2.108a.991.991,0,0,1-.2-.51c0-.2.136-.34.17-.612A5.478,5.478,0,0,1,71.5-7.106,8.793,8.793,0,0,1,71.468-8.5c-.034-.51-.374-.782.034-1.428.068-.408-.272-.578-.068-1.156.034-.408-.306-.816.034-1.19.034-.68,0-1.632.068-2.074a6.792,6.792,0,0,1,.068-1.19,1.534,1.534,0,0,0,0-.884c-.238-.408-.646-.306-.918-.2-.68.374-.918.2-1.292.306a3.745,3.745,0,0,1-1.326.136,11.958,11.958,0,0,1-1.53.1c-.476.034-.816.034-1.36.034-.238-.034-.408.272-.408.544a.464.464,0,0,0,.51.51c.34.068.714-.034,1.19.034.272.034.374.306.476.646.068.374.1,2.108.1,2.55v1.7c-.2.476.136,1.6,0,2.074-.238.782.272,1.326.034,2.006-.238.442.17.884-.034,1.632a8.354,8.354,0,0,0-.136,2.04c.068.442-.068.714-.612.748H65.008c-.272-.068-.544.272-.544.578,0,.238.17.51.612.51h.51c.68,0,1.054-.034,1.632-.068.714-.034,1.292,0,1.938-.034a16.958,16.958,0,0,0,2.278,0,2.471,2.471,0,0,0,.85.136c.34,0,.68-.034,1.088-.068h.068c.17,0,.272-.238.272-.476v-.1C73.712-1.292,73.644-1.5,73.474-1.5Zm20.774,0c-.238-.1-.34-.034-.612-.068a5.485,5.485,0,0,0-.748,0c-.476-.034-.578-.136-.612-.816-.034-.85-.034-2.414-.034-3.468a7.172,7.172,0,0,1,0-2.108,11.044,11.044,0,0,0,.034-2.584c-.272-.34-.17-.544-.136-.918a3.534,3.534,0,0,0,.034-.884,7.133,7.133,0,0,0-.2-1.122,1.376,1.376,0,0,1-.238-.646c-.034-.17-.068-.306-.2-.374-.374-.272-.748-.816-1.054-1.088a.717.717,0,0,0-.374-.17.941.941,0,0,1-.612-.374c-.374-.34-1.088-.1-1.394-.34-.374-.272-.918-.034-1.292-.034-.544.2-1.088.034-1.326.136-.374.2-1.054.476-1.36.68a5.171,5.171,0,0,0-1.564,1.02.515.515,0,0,1-.374.238c-.1,0-.2-.1-.238-.34-.068-.646.1-1.258.034-1.53a.6.6,0,0,0-.578-.408.664.664,0,0,0-.238.034,4.881,4.881,0,0,1-1.224.238,4.069,4.069,0,0,1-1.53.2c-.374.136-.646-.034-1.258.1-.748.1-1.122.034-1.5.1-.646.17-.442,1.122.1,1.02a3.941,3.941,0,0,1,1.122.1c.374.1.544.51.578,1.156.034.476-.034,1.258,0,1.938a4.06,4.06,0,0,0,0,1.7,9.292,9.292,0,0,0,0,1.7,9.845,9.845,0,0,1,0,1.734.861.861,0,0,0,.1.68.736.736,0,0,1-.1.884c0,.884-.068,1.564,0,2.312a1.546,1.546,0,0,1-.17.952.567.567,0,0,1-.51.306,7.984,7.984,0,0,0-.884.034c-.272.068-.612-.1-.748.136a.582.582,0,0,0-.238.442.475.475,0,0,0,.442.442h.2c.272,0,.51-.034.748-.034.34,0,.68.034,1.054.034h.272A16.911,16.911,0,0,1,79.39-.544a11.107,11.107,0,0,1,2.142.068,6.553,6.553,0,0,1,1.632,0h.068c.442,0,.646-.272.646-.51a.6.6,0,0,0-.238-.476c-.136-.2-.442-.034-.612-.1-.17-.034-.442,0-.544-.1-.374-.1-.51-.306-.544-.986-.034-.714-.034-1.36-.034-1.87-.34-.442-.272-.646-.136-.884a1.257,1.257,0,0,0,.17-.374c.068-.68-.2-.782,0-1.394.17-.238-.068-1.054,0-1.394-.17-.544.2-1.156,0-1.428a2.4,2.4,0,0,1,0-1.394c.2-.272-.068-.714,0-1.394a2.251,2.251,0,0,1,.952-1.122,5.058,5.058,0,0,1,1.224-.578,4.547,4.547,0,0,1,1.292-.34c.374.2,1.122.136,1.224.34.068.272.51.2.612.646a6.687,6.687,0,0,1,.306,2.21,15.527,15.527,0,0,0,0,2.516,1.215,1.215,0,0,1,.1.986.79.79,0,0,0,0,.68.825.825,0,0,1-.068.782c-.1.136,0,.272.068.408a.443.443,0,0,1-.034.408c-.17.272.136.646,0,1.088a5.4,5.4,0,0,0-.068,1.292c.068.952.068,1.6-.272,1.836a2.083,2.083,0,0,1-1.156.068c-.476.068-.612.952-.068,1.088.068,0,.136.034.2.034.2,0,.408-.068.646-.068.068,0,.136.034.2.034.17,0,.34.034.476.034.17,0,.34-.034.476-.034.2-.2.476-.034.612-.034.306,0,.578.068.85.068a1.577,1.577,0,0,0,.646-.136c.782-.034.986.068,1.87.1l.238.034c.34,0,.68-.1.986-.068h1.02c.17,0,.306-.2.306-.442A.552.552,0,0,0,94.248-1.5Zm35.8-16.388c-.034-.408-.2-.476,0-1.02v-.136a3.852,3.852,0,0,1-.034-1.088V-20.5c0-.544-.034-1.19-.034-1.564v-1.428a1.171,1.171,0,0,0,.034-.306,3.062,3.062,0,0,1,0-.986v-.17c0-.408-.238-.476-.476-.476a1.048,1.048,0,0,0-.34.034c-.374.1-1.122-.034-1.36.1a10.064,10.064,0,0,1-1.36.068,8.734,8.734,0,0,0-1.36.034c-.34.238-.68,0-1.36,0a26.067,26.067,0,0,1-2.822.068c-.85-.034-1.02.17-1.8-.068-.612.068-1.666,0-2.346,0-.918-.034-1.462.034-2.312,0a16.19,16.19,0,0,1-2.584-.068,4.236,4.236,0,0,1-1.292-.068c-.51.136-.782-.068-1.156-.068h-.136a1.655,1.655,0,0,1-.408.034c-.272,0-.442,0-.476.306-.1.612.068.986,0,1.53a6.332,6.332,0,0,1,.068,1.5,1.886,1.886,0,0,0-.1.578,11.053,11.053,0,0,1,.068,1.122,6.281,6.281,0,0,0-.1.918,2.937,2.937,0,0,0,.034.51c.068.306-.068.51-.068.816a.672.672,0,0,0,.068.34c.1.17-.034.306-.034.544a.431.431,0,0,0,.034.2.484.484,0,0,0,.918-.2,3.6,3.6,0,0,1,.136-1.462c.238-.612,0-.918.272-1.462.306-.578.238-.816.476-1.258.034-.544.34-.68.646-.986.306-.068.408-.476.884-.748a3.466,3.466,0,0,1,1.19-.544c.306.068.646-.374,1.292-.238a7,7,0,0,1,1.53-.068.79.79,0,0,1,.85.272c.34.238.2.578.2.884-.068.51.17.952,0,1.564-.238.442.2.918,0,1.394-.034.544.272,1.054,0,1.428-.17.238.17.816,0,1.394a6.428,6.428,0,0,0,0,1.428c.272.17.238.306.136.476a1.159,1.159,0,0,0-.136.544c.034.476,0,.918,0,1.8,0,.646-.2,1.224.068,1.734a.6.6,0,0,1,.034.476.626.626,0,0,0-.1.612c.17.442-.034.884,0,1.428a4.965,4.965,0,0,1-.068,1.6c-.1.306.374.714.068,1.224a16.51,16.51,0,0,0,0,1.836,6.7,6.7,0,0,1-.034,1.462c.034.544-.272.884-.986.85-.374,0-.68.034-1.224,0-.442.238-.612-.068-1.122,0-.442.068-.578.272-.578.51a.59.59,0,0,0,.476.578c.612-.034.918-.034,1.666-.034s1.156.034,1.7.034a.508.508,0,0,1,.51-.1,1.446,1.446,0,0,0,.374.068h.068c.272-.034.612.034.986.034a2.192,2.192,0,0,0,.68-.1c.442-.136.646.1.986.1a1.5,1.5,0,0,0,.34-.068c.646.034.884-.068,1.564,0,.272,0,.68-.034,1.428,0,.476.034.884.1,1.36.1h.238c.238,0,.408-.306.408-.578,0-.34-.17-.646-.578-.578a5.912,5.912,0,0,1-1.088.034c-.612.034-.918-.068-1.224,0-.476.1-.748-.34-.85-.85,0-.34.034-1.428,0-1.9-.238-.408.1-1.054,0-1.394a3.344,3.344,0,0,1,0-1.428,6.294,6.294,0,0,1,0-1.394.983.983,0,0,1,0-.884.968.968,0,0,0,0-.544,1.086,1.086,0,0,1,0-.884.532.532,0,0,0,0-.51c-.136-.272.1-.85,0-1.428-.1-.306.1-.952,0-1.428-.238-.544.2-.918,0-1.394a9.958,9.958,0,0,1,0-1.428,1.745,1.745,0,0,0-.17-.408.54.54,0,0,1,.1-.612,14.8,14.8,0,0,0,.068-1.8c0-.306-.034-.986,0-1.394-.034-.748.034-.952,0-1.666a.851.851,0,0,1,.238-.986c.136-.2.816.068,1.224-.1.578-.034.782.2,1.36.034a.889.889,0,0,1,.544.068,1.828,1.828,0,0,0,.714.272,2.618,2.618,0,0,1,1.224.51l.748.782a2.947,2.947,0,0,1,.476,1.122c.1.238.442.714.408,1.088-.068.374.238,1.02.136,1.462,0,.442.068.884.1,1.462a.433.433,0,0,0,.476.442.606.606,0,0,0,.442-.2.933.933,0,0,0,.068-.442Zm14.722,3.094c-.272-.544-.272-.748-.646-.918a2.757,2.757,0,0,0-.952-.578,3.442,3.442,0,0,0-1.7-.17.507.507,0,0,0-.272.1c-.1.068-.136.136-.51.068a5.628,5.628,0,0,0-1.088.646c-.238.1-.884.68-.918.952a3.964,3.964,0,0,0-.374.544c-.1.17-.2.2-.34.17-.1-.034-.17-.068-.2-.17a2.942,2.942,0,0,1,0-.986c-.068-.442.136-.782-.034-1.122a.679.679,0,0,0-.578-.442.505.505,0,0,0-.306.068,1.518,1.518,0,0,1-1.156.238,13.051,13.051,0,0,1-1.5.2,3.525,3.525,0,0,1-1.36.1,7.344,7.344,0,0,1-1.224,0c-.476,0-.646.238-.646.51,0,.306.2.646.476.612.408.034.85-.068,1.122-.034.136.034.374-.034.544.068a.767.767,0,0,1,.17.408c.2.68-.034.816.068,1.292a7.8,7.8,0,0,1,.034,2.346.823.823,0,0,0,.1.476.444.444,0,0,1-.1.544c-.034.85,0,1.734-.034,2.482a2.758,2.758,0,0,0,.1.374c.136.2.2.34-.068.748a15.9,15.9,0,0,0,0,1.8c-.034.612-.034,1.36-.068,1.836-.1.646-.17.952-.714,1.02-.578.034-1.122-.034-1.36.034-.272,0-.408.238-.408.51,0,.306.17.612.51.544.884,0,1.122,0,2.176.034.476,0,.986.034,1.462.034.51,0,.986-.034,1.394-.034.136-.2.34-.17.612-.1a3.812,3.812,0,0,0,.714.136c.51.034.918.034,1.326.034a4.333,4.333,0,0,0,.952-.068h.068c.238,0,.34-.238.34-.51,0-.306-.17-.68-.51-.578a1.865,1.865,0,0,1-.442,0,1.282,1.282,0,0,0-.646,0,.747.747,0,0,1-.918-.714c.068-.544-.17-1.6-.068-2.346-.034-.306-.374-.714,0-1.224a16.281,16.281,0,0,0,0-1.836c-.1-.748.17-1.224,0-2.04a4.514,4.514,0,0,1,.272-2.04c.136-.34.034-.816.374-.986.238-.238.2-.408.34-.612a.887.887,0,0,1,.238-.34c.17-.1.272-.544.816-.714a.9.9,0,0,1,.884-.306c.34-.034.646.17.612.374a1.433,1.433,0,0,1,.034.918,1.4,1.4,0,0,0,.442,1.258,1.4,1.4,0,0,0,1.53.544c.408.068.782-.068,1.258-.646a1.563,1.563,0,0,0,.476-1.224v-.2A2.711,2.711,0,0,0,144.772-14.79ZM160.82-3.026c-.1.306-.272.34-.408.68a1.239,1.239,0,0,1-.408.374.808.808,0,0,1-.51.034c-.68-.034-.918-.612-.952-1.122a20.3,20.3,0,0,1,0-2.04,1.149,1.149,0,0,1-.034-.748,2.869,2.869,0,0,0,.068-.646c-.034-.476-.34-.646-.068-1.19.136-.238-.136-.51,0-.986.1-.34-.17-.68,0-1.19.1-.34-.034-.85.034-1.36a14.416,14.416,0,0,0-.2-2.244c-.272-.136-.238-.272-.238-.476a.88.88,0,0,0-.238-.612c-.272-.374-.51-.816-.884-.952-.612-.2-.748-.646-1.156-.612-.544.034-.714-.374-1.19-.272-.51-.068-.918-.1-1.224-.17a5.61,5.61,0,0,0-1.972.238,8.264,8.264,0,0,0-2.21.646c-.238.034-.306.136-.34.238-.068.1-.1.2-.442.2-.17,0-.306.272-.748.646a2.209,2.209,0,0,0-.68,1.8,1.93,1.93,0,0,0,.51,1.36,1.984,1.984,0,0,0,1.326.578c.544-.034.884.034,1.156-.51a2.054,2.054,0,0,0,.476-1.19,1.279,1.279,0,0,0-.476-1.088.7.7,0,0,1-.272-.85c-.1-.2.476-.748.884-.816a12.453,12.453,0,0,1,1.428-.238c.782.1,1.6.2,1.8.714.612.544.51,1.224.612,1.836a11.887,11.887,0,0,1,0,1.564,3.034,3.034,0,0,1,0,1.36c.068.238,0,.34-.136.578a.758.758,0,0,1-.748.374c-.646.068-.782.34-1.394.238a6.957,6.957,0,0,0-1.6.306,4.257,4.257,0,0,0-1.734.612c-.68.136-.714.578-1.394.884-.68.238-.85.816-1.292,1.5a3.76,3.76,0,0,0-.442,1.768,1.939,1.939,0,0,0,.034.442.645.645,0,0,0,.136.408c.1.2.272.306.17.714.272.51.442.986.952,1.156a4.38,4.38,0,0,0,1.36.748A6.47,6.47,0,0,0,149.94-.1a7.1,7.1,0,0,0,1.938-.34c.068-.2.238-.238.408-.272a.539.539,0,0,0,.408-.17c.272-.238.918-.34,1.088-.816a.667.667,0,0,1,1.088.238,3.483,3.483,0,0,0,.85.782,4.694,4.694,0,0,0,2.006.51.993.993,0,0,0,.306.068c.408,0,.816-.34,1.02-.272a1.955,1.955,0,0,0,1.054-.544c.34-.34.646-.34.884-.85a3.75,3.75,0,0,0,.646-.85.307.307,0,0,0,.034-.17.517.517,0,0,0-.51-.476A.3.3,0,0,0,160.82-3.026Zm-6.528-.442a5.409,5.409,0,0,1-.986,1.122,3.422,3.422,0,0,1-1.6.476,2.576,2.576,0,0,1-1.7-.782,1.073,1.073,0,0,1-.442-.952c0-.306-.272-.544-.17-.884.17-.442.034-.544.136-.816-.1-.408.272-.612.476-1.054a2.233,2.233,0,0,1,1.054-.952c.408-.408.714-.2,1.224-.544.306-.34.782-.17,1.02-.272.612-.17,1.224-.034,1.122.748a.643.643,0,0,0,.034.51.584.584,0,0,1,0,.578.507.507,0,0,0-.068.476.647.647,0,0,1,.034.578c-.034.374.17.476.034.884C154.36-4.012,154.5-3.74,154.292-3.468Zm11.254-17.714c.442.374.748.646,1.19.646a3.12,3.12,0,0,0,2.244-.51,1.873,1.873,0,0,0,.816-1.768,2.917,2.917,0,0,0-.612-1.53.617.617,0,0,1-.51-.374.536.536,0,0,0-.238-.238,1.851,1.851,0,0,0-.85-.306.431.431,0,0,0-.2.034,2.642,2.642,0,0,0-1.326.442c-.1.068-.1.272-.476.34-.408.612-.748.816-.51,1.6a2.043,2.043,0,0,0,.1.986.576.576,0,0,0,.2.272A.573.573,0,0,1,165.546-21.182ZM171.5-1.5a2.566,2.566,0,0,0-1.19-.068.608.608,0,0,1-.782-.646c0-.85-.068-1.394,0-2.108a.991.991,0,0,1-.2-.51c0-.2.136-.34.17-.612a5.478,5.478,0,0,1,.034-1.666A8.792,8.792,0,0,1,169.49-8.5c-.034-.51-.374-.782.034-1.428.068-.408-.272-.578-.068-1.156.034-.408-.306-.816.034-1.19.034-.68,0-1.632.068-2.074a6.792,6.792,0,0,1,.068-1.19,1.534,1.534,0,0,0,0-.884c-.238-.408-.646-.306-.918-.2-.68.374-.918.2-1.292.306a3.745,3.745,0,0,1-1.326.136,11.958,11.958,0,0,1-1.53.1c-.476.034-.816.034-1.36.034-.238-.034-.408.272-.408.544a.464.464,0,0,0,.51.51c.34.068.714-.034,1.19.034.272.034.374.306.476.646.068.374.1,2.108.1,2.55v1.7c-.2.476.136,1.6,0,2.074-.238.782.272,1.326.034,2.006-.238.442.17.884-.034,1.632a8.354,8.354,0,0,0-.136,2.04c.068.442-.068.714-.612.748H163.03c-.272-.068-.544.272-.544.578,0,.238.17.51.612.51h.51c.68,0,1.054-.034,1.632-.068.714-.034,1.292,0,1.938-.034a16.958,16.958,0,0,0,2.278,0,2.471,2.471,0,0,0,.85.136c.34,0,.68-.034,1.088-.068h.068c.17,0,.272-.238.272-.476v-.1C171.734-1.292,171.666-1.5,171.5-1.5Zm20.774,0c-.238-.1-.34-.034-.612-.068a5.485,5.485,0,0,0-.748,0c-.476-.034-.578-.136-.612-.816-.034-.85-.034-2.414-.034-3.468a7.172,7.172,0,0,1,0-2.108,11.045,11.045,0,0,0,.034-2.584c-.272-.34-.17-.544-.136-.918a3.534,3.534,0,0,0,.034-.884,7.135,7.135,0,0,0-.2-1.122,1.375,1.375,0,0,1-.238-.646c-.034-.17-.068-.306-.2-.374-.374-.272-.748-.816-1.054-1.088a.717.717,0,0,0-.374-.17.941.941,0,0,1-.612-.374c-.374-.34-1.088-.1-1.394-.34-.374-.272-.918-.034-1.292-.034-.544.2-1.088.034-1.326.136-.374.2-1.054.476-1.36.68a5.171,5.171,0,0,0-1.564,1.02.515.515,0,0,1-.374.238c-.1,0-.2-.1-.238-.34-.068-.646.1-1.258.034-1.53a.6.6,0,0,0-.578-.408.664.664,0,0,0-.238.034,4.881,4.881,0,0,1-1.224.238,4.069,4.069,0,0,1-1.53.2c-.374.136-.646-.034-1.258.1-.748.1-1.122.034-1.5.1-.646.17-.442,1.122.1,1.02a3.941,3.941,0,0,1,1.122.1c.374.1.544.51.578,1.156.034.476-.034,1.258,0,1.938a4.06,4.06,0,0,0,0,1.7,9.292,9.292,0,0,0,0,1.7,9.846,9.846,0,0,1,0,1.734.861.861,0,0,0,.1.68.736.736,0,0,1-.1.884c0,.884-.068,1.564,0,2.312a1.546,1.546,0,0,1-.17.952.567.567,0,0,1-.51.306,7.985,7.985,0,0,0-.884.034c-.272.068-.612-.1-.748.136a.582.582,0,0,0-.238.442.475.475,0,0,0,.442.442h.2c.272,0,.51-.034.748-.034.34,0,.68.034,1.054.034h.272a16.911,16.911,0,0,1,1.768-.068,11.107,11.107,0,0,1,2.142.068,6.554,6.554,0,0,1,1.632,0h.068c.442,0,.646-.272.646-.51a.6.6,0,0,0-.238-.476c-.136-.2-.442-.034-.612-.1-.17-.034-.442,0-.544-.1-.374-.1-.51-.306-.544-.986-.034-.714-.034-1.36-.034-1.87-.34-.442-.272-.646-.136-.884a1.257,1.257,0,0,0,.17-.374c.068-.68-.2-.782,0-1.394.17-.238-.068-1.054,0-1.394-.17-.544.2-1.156,0-1.428a2.4,2.4,0,0,1,0-1.394c.2-.272-.068-.714,0-1.394a2.25,2.25,0,0,1,.952-1.122,5.058,5.058,0,0,1,1.224-.578,4.547,4.547,0,0,1,1.292-.34c.374.2,1.122.136,1.224.34.068.272.51.2.612.646a6.687,6.687,0,0,1,.306,2.21,15.525,15.525,0,0,0,0,2.516,1.215,1.215,0,0,1,.1.986.79.79,0,0,0,0,.68.825.825,0,0,1-.068.782c-.1.136,0,.272.068.408a.443.443,0,0,1-.034.408c-.17.272.136.646,0,1.088a5.4,5.4,0,0,0-.068,1.292c.068.952.068,1.6-.272,1.836a2.083,2.083,0,0,1-1.156.068c-.476.068-.612.952-.068,1.088.068,0,.136.034.2.034.2,0,.408-.068.646-.068.068,0,.136.034.2.034.17,0,.34.034.476.034.17,0,.34-.034.476-.034.2-.2.476-.034.612-.034.306,0,.578.068.85.068a1.577,1.577,0,0,0,.646-.136c.782-.034.986.068,1.87.1l.238.034c.34,0,.68-.1.986-.068h1.02c.17,0,.306-.2.306-.442A.552.552,0,0,0,192.27-1.5Zm4.012-19.686c.442.374.748.646,1.19.646a3.12,3.12,0,0,0,2.244-.51,1.873,1.873,0,0,0,.816-1.768,2.917,2.917,0,0,0-.612-1.53.617.617,0,0,1-.51-.374.536.536,0,0,0-.238-.238,1.851,1.851,0,0,0-.85-.306.431.431,0,0,0-.2.034,2.642,2.642,0,0,0-1.326.442c-.1.068-.1.272-.476.34-.408.612-.748.816-.51,1.6a2.043,2.043,0,0,0,.1.986.576.576,0,0,0,.2.272A.573.573,0,0,1,196.282-21.182ZM202.232-1.5a2.566,2.566,0,0,0-1.19-.068.608.608,0,0,1-.782-.646c0-.85-.068-1.394,0-2.108a.991.991,0,0,1-.2-.51c0-.2.136-.34.17-.612a5.477,5.477,0,0,1,.034-1.666,8.792,8.792,0,0,1-.034-1.394c-.034-.51-.374-.782.034-1.428.068-.408-.272-.578-.068-1.156.034-.408-.306-.816.034-1.19.034-.68,0-1.632.068-2.074a6.792,6.792,0,0,1,.068-1.19,1.534,1.534,0,0,0,0-.884c-.238-.408-.646-.306-.918-.2-.68.374-.918.2-1.292.306a3.745,3.745,0,0,1-1.326.136,11.958,11.958,0,0,1-1.53.1c-.476.034-.816.034-1.36.034-.238-.034-.408.272-.408.544a.464.464,0,0,0,.51.51c.34.068.714-.034,1.19.034.272.034.374.306.476.646.068.374.1,2.108.1,2.55v1.7c-.2.476.136,1.6,0,2.074-.238.782.272,1.326.034,2.006-.238.442.17.884-.034,1.632a8.355,8.355,0,0,0-.136,2.04c.068.442-.068.714-.612.748h-1.292c-.272-.068-.544.272-.544.578,0,.238.17.51.612.51h.51c.68,0,1.054-.034,1.632-.068.714-.034,1.292,0,1.938-.034a16.958,16.958,0,0,0,2.278,0,2.471,2.471,0,0,0,.85.136c.34,0,.68-.034,1.088-.068h.068c.17,0,.272-.238.272-.476v-.1C202.47-1.292,202.4-1.5,202.232-1.5Zm20.774,0c-.238-.1-.34-.034-.612-.068a5.485,5.485,0,0,0-.748,0c-.476-.034-.578-.136-.612-.816C221-3.23,221-4.794,221-5.848a7.172,7.172,0,0,1,0-2.108,11.045,11.045,0,0,0,.034-2.584c-.272-.34-.17-.544-.136-.918a3.534,3.534,0,0,0,.034-.884,7.131,7.131,0,0,0-.2-1.122,1.376,1.376,0,0,1-.238-.646c-.034-.17-.068-.306-.2-.374-.374-.272-.748-.816-1.054-1.088a.717.717,0,0,0-.374-.17.941.941,0,0,1-.612-.374c-.374-.34-1.088-.1-1.394-.34-.374-.272-.918-.034-1.292-.034-.544.2-1.088.034-1.326.136-.374.2-1.054.476-1.36.68a5.171,5.171,0,0,0-1.564,1.02.515.515,0,0,1-.374.238c-.1,0-.2-.1-.238-.34-.068-.646.1-1.258.034-1.53a.6.6,0,0,0-.578-.408.664.664,0,0,0-.238.034,4.881,4.881,0,0,1-1.224.238,4.069,4.069,0,0,1-1.53.2c-.374.136-.646-.034-1.258.1-.748.1-1.122.034-1.5.1-.646.17-.442,1.122.1,1.02a3.941,3.941,0,0,1,1.122.1c.374.1.544.51.578,1.156.034.476-.034,1.258,0,1.938a4.06,4.06,0,0,0,0,1.7,9.292,9.292,0,0,0,0,1.7,9.845,9.845,0,0,1,0,1.734.861.861,0,0,0,.1.68.736.736,0,0,1-.1.884c0,.884-.068,1.564,0,2.312a1.546,1.546,0,0,1-.17.952.567.567,0,0,1-.51.306,7.985,7.985,0,0,0-.884.034c-.272.068-.612-.1-.748.136a.582.582,0,0,0-.238.442.475.475,0,0,0,.442.442h.2c.272,0,.51-.034.748-.034.34,0,.68.034,1.054.034h.272a16.911,16.911,0,0,1,1.768-.068,11.107,11.107,0,0,1,2.142.068,6.554,6.554,0,0,1,1.632,0h.068c.442,0,.646-.272.646-.51a.6.6,0,0,0-.238-.476c-.136-.2-.442-.034-.612-.1-.17-.034-.442,0-.544-.1-.374-.1-.51-.306-.544-.986-.034-.714-.034-1.36-.034-1.87-.34-.442-.272-.646-.136-.884a1.257,1.257,0,0,0,.17-.374c.068-.68-.2-.782,0-1.394.17-.238-.068-1.054,0-1.394-.17-.544.2-1.156,0-1.428a2.4,2.4,0,0,1,0-1.394c.2-.272-.068-.714,0-1.394a2.25,2.25,0,0,1,.952-1.122,5.058,5.058,0,0,1,1.224-.578,4.547,4.547,0,0,1,1.292-.34c.374.2,1.122.136,1.224.34.068.272.51.2.612.646a6.687,6.687,0,0,1,.306,2.21,15.525,15.525,0,0,0,0,2.516,1.215,1.215,0,0,1,.1.986.79.79,0,0,0,0,.68.825.825,0,0,1-.068.782c-.1.136,0,.272.068.408a.443.443,0,0,1-.034.408c-.17.272.136.646,0,1.088a5.4,5.4,0,0,0-.068,1.292c.068.952.068,1.6-.272,1.836a2.083,2.083,0,0,1-1.156.068c-.476.068-.612.952-.068,1.088.068,0,.136.034.2.034.2,0,.408-.068.646-.068.068,0,.136.034.2.034.17,0,.34.034.476.034.17,0,.34-.034.476-.034.2-.2.476-.034.612-.034.306,0,.578.068.85.068a1.577,1.577,0,0,0,.646-.136c.782-.034.986.068,1.87.1l.238.034c.34,0,.68-.1.986-.068h1.02c.17,0,.306-.2.306-.442A.552.552,0,0,0,223.006-1.5Zm19.21-14.96c-.238-.51-1.088-.408-1.394-.51a1.051,1.051,0,0,0-.272-.068c-.306,0-.442.272-.85.34-.442.2-.476.272-.782.748a8.769,8.769,0,0,0-.544,1.258c-.2.408-.442.51-.986.034a10.041,10.041,0,0,0-1.938-1.19,6.9,6.9,0,0,0-1.5-.476c-.442-.068-.986-.1-1.632-.136-.578-.1-1.02.238-1.224.068-.578.034-1.054,0-1.326.238-.374.306-.918.34-1.02.51-.612.17-.748.612-1.054.612a4.065,4.065,0,0,0-.918.816,3.4,3.4,0,0,1-.714.952c0,.272-.544.714-.442,1.122.1.646-.2.714-.17,1.292.068.238-.1,1.088.2,1.292a2.17,2.17,0,0,0,.544,1.122c.1.34.714,1.122,1.088,1.156.476.408.374.952-.068,1.02-.408.2-.85.85-1.19,1.02-.442.2-.272.748-.612,1.02-.306.374-.272.714-.272,1.394a2.982,2.982,0,0,0,.34,1.36,1.812,1.812,0,0,0,.748.952,5.057,5.057,0,0,0,1.054.578c.476.1.646.238.646.374s-.17.306-.476.408a2.5,2.5,0,0,0-1.53.85,3.429,3.429,0,0,0-1.122,1.088,2.329,2.329,0,0,0-.476,1.258.579.579,0,0,0,.034.238,2.152,2.152,0,0,0,.238,1.258c.272.544.2.85.646,1.02a3.785,3.785,0,0,0,1.258,1.02c.238-.136.374-.068.476.068a3.844,3.844,0,0,0,.374.374,10.105,10.105,0,0,0,1.326.442,8.052,8.052,0,0,1,1.326.306c.85.068,1.462.2,2.21.2h.238a2.091,2.091,0,0,1,.442-.034c.272,0,.51.034.782.034h.1a1.678,1.678,0,0,0,.51-.1c.476-.1,1.258-.238,1.836-.374.51.1.986-.374,1.768-.646.748-.068,1.156-.782,1.53-.986A5.777,5.777,0,0,0,240.754,5.3c.2-.476.136-.714.578-1.054a8.309,8.309,0,0,0,.476-1.564c.272-.544.034-.884.2-1.428a3.42,3.42,0,0,0-.2-1.462c-.272-.51-.1-.816-.408-1.088-.408-.34-.34-.646-1.054-1.02-.476-.238-.85-.544-1.054-.612-.2-.374-.782-.34-1.224-.306a4.209,4.209,0,0,0-1.326-.1,5,5,0,0,0-1.292.034,1.089,1.089,0,0,1-.714.034c-.306.1-.51-.17-1.054.034A.956.956,0,0,1,233-3.2a1.078,1.078,0,0,0-.578,0,9.155,9.155,0,0,1-1.666.034,5.932,5.932,0,0,1-1.8-.238c-.544-.136-1.326-.442-1.122-1.19-.068-.408-.034-.68.476-1.122.272-.068.544-.408.952-.442.34-.068.476-.1.748.068.612.2.782.068,1.156.306a5.607,5.607,0,0,0,1.428.17,6.367,6.367,0,0,0,2.108-.34,4.746,4.746,0,0,0,1.156-.408,2.592,2.592,0,0,0,1.156-.578.628.628,0,0,1,.442-.51.366.366,0,0,0,.272-.068c.408-.374.544-.748.816-1.02a2.444,2.444,0,0,0,.544-1.224c-.1-.272,0-.374.068-.578a1.158,1.158,0,0,0,.034-.51c-.2-.306,0-.748-.17-1.734.034-.1,0-.136-.1-.272-.068-.068-.034-.17.034-.306a2.036,2.036,0,0,1,.272-1.292c.136-.34.238-.646.51-.782.238-.136.34-.034.442.17a1.906,1.906,0,0,0-.034.612,1.03,1.03,0,0,0,1.428.952c.306.2.884-.2.986-.578a.682.682,0,0,0,.238-.578v-.408a.845.845,0,0,0,.034-.272A1.242,1.242,0,0,0,242.216-16.456Zm-7.14,7.072c-.17.714-.34.918-.442,1.428a1.436,1.436,0,0,1-.884,1.088c-.2.2-.51.34-1.292.374a3.166,3.166,0,0,1-1.564-.374,3.472,3.472,0,0,1-.918-1.054,1.527,1.527,0,0,1-.51-1.428c.1-.646-.374-.884-.136-1.462a12.157,12.157,0,0,1,.136-1.53c-.034-.714.442-1.054.476-1.564.408-.51.374-1.02.918-1.19a1.7,1.7,0,0,1,1.462-.476,2.158,2.158,0,0,1,1.462.476,4.849,4.849,0,0,1,.884,1.19c.306.646.2,1.156.408,1.53.068.714-.034,1.258.136,1.53C235.246-10.438,234.974-10.03,235.076-9.384ZM228.242,1.9c.476-.476.782-1.054,1.462-1.394l.34-.034c.136.068.238-.034.408-.1a.7.7,0,0,1,.544.1,1.106,1.106,0,0,0,.51-.034.73.73,0,0,1,.51.068,2.091,2.091,0,0,1,.374-.1.2.2,0,0,1,.272.1.676.676,0,0,0,.476-.034.707.707,0,0,1,.272,0,.455.455,0,0,0,.306-.034.3.3,0,0,1,.34.1c.646-.068,1.088.1,1.326-.034.51-.034.714.17,1.292,0a7.929,7.929,0,0,1,1.768.238,2.864,2.864,0,0,1,1.394.714,1.861,1.861,0,0,1,.578,1.564,3.84,3.84,0,0,1-.68,2.108c-.374.51-.408.68-.748.85a4.457,4.457,0,0,1-.952.68,2,2,0,0,1-1.054.544c-.374.272-.68.068-1.122.374a7.388,7.388,0,0,1-2.21.306,8.256,8.256,0,0,1-1.938-.238,7.882,7.882,0,0,1-1.9-.748.561.561,0,0,1-.442-.306.467.467,0,0,0-.374-.272c-.374-.1-.51-.272-.646-.714a2.924,2.924,0,0,1-.578-1.87A4.616,4.616,0,0,1,228.242,1.9Zm52.972-13.5a4.744,4.744,0,0,1,.1-1.6,4.8,4.8,0,0,1-.1-1.564c-.068-.306.068-1.156-.238-1.53a3.505,3.505,0,0,0-.408-1.53c0-.408-.51-1.02-.578-1.428a3.835,3.835,0,0,0-.748-1.36c-.374-.408-.51-.952-.918-1.224a6.263,6.263,0,0,0-1.088-1.088c-.646-.51-.68-.782-1.292-.918a7.3,7.3,0,0,0-1.734-.816c-.782-.306-1.292-.272-1.8-.476a9.089,9.089,0,0,0-1.87-.238,4.919,4.919,0,0,1-1.6-.068,1.157,1.157,0,0,0-.34.034,5.444,5.444,0,0,1-2.108-.034h-.17c-.85,0-1.53.238-1.938.068a4.122,4.122,0,0,1-1.938.034,3.62,3.62,0,0,1-1.666.034c-.2.1-.374-.034-.748.034a.2.2,0,0,1-.238,0,.263.263,0,0,0-.306.034.91.91,0,0,1-.374-.068c-.17-.034-.238-.1-.408.034a1.509,1.509,0,0,0-.612-.068,1.99,1.99,0,0,0-.442-.068.445.445,0,0,0-.408.2c-.34.51-.068,1.224.816,1.02.748.1,1.02-.1,1.768,0,.374.136.782.374.748.884.306.748-.17.952.1,1.734.2.714-.068,1.19,0,1.428.544.714.034,1.122,0,1.428.034.442,0,1.122,0,1.428-.034.442.306.714,0,1.428a.739.739,0,0,0,.034.612c.1.17.17.374-.034.816a2.061,2.061,0,0,0,0,1.428,4.019,4.019,0,0,1,0,1.428,2.9,2.9,0,0,0,0,1.428,1.879,1.879,0,0,0,0,1.428,1.259,1.259,0,0,1,0,1.428c.034.442-.2.816,0,1.428a5.157,5.157,0,0,0-.1,1.734,2.816,2.816,0,0,1-.136,1.6c.17.272-.306.952-.782.918a16.206,16.206,0,0,1-2.278.034c-.306-.034-.476.238-.476.51a.508.508,0,0,0,.442.544,1.047,1.047,0,0,0,.442.1,1.535,1.535,0,0,0,.442-.1,2.131,2.131,0,0,0,.544-.068c.136-.034.238-.068.306.068a.307.307,0,0,0,.17.034c.238,0,.476-.136.748-.068.442.034.748.068,1.054.068a1.655,1.655,0,0,0,.408-.034,12.085,12.085,0,0,1,1.53-.034,3.351,3.351,0,0,1,1.292.068c.34-.034.68.034,1.02.034h.068a1.522,1.522,0,0,0,.68-.136,8.352,8.352,0,0,1,1.258.136,1.707,1.707,0,0,0,.408-.068c.34.034.68.068.986.068a1.415,1.415,0,0,0,.85-.238,7.655,7.655,0,0,0,2.142-.272c.714.136,1.224-.374,1.768-.408.238.136.714-.34,1.292-.51.374-.272.646-.068.952-.476.544-.476.748-.374,1.326-.918.34-.34.816-.51,1.122-1.122.238-.306.714-.85.986-1.258A7.641,7.641,0,0,0,279.922-7c.136-.68.646-.85.612-1.462.034-.51.51-1.122.442-1.53a.848.848,0,0,1,.1-.952A.715.715,0,0,0,281.214-11.594Zm-5.678.748A1.1,1.1,0,0,1,275.4-9.52c-.272.374.034,1.02-.272,1.292L274.754-7a1.543,1.543,0,0,0-.51,1.19,8.353,8.353,0,0,1-.646,1.088c-.068.34-.748.748-.816.986-.51.408-1.02.68-1.326.986a4.821,4.821,0,0,1-1.462.646,1.089,1.089,0,0,1-.68.238,1.516,1.516,0,0,0-.612.1,6.486,6.486,0,0,1-1.6.136c-.408.068-.748.17-1.054-.1s-.612-.714-.442-1.088c-.1-.714.17-.884-.034-1.666.1-.272-.17-.714,0-1.394a2.531,2.531,0,0,0,0-1.428c-.136-.51.2-.918,0-1.428a3.345,3.345,0,0,1,0-1.428c.1-.306-.136-.816,0-1.428a3.245,3.245,0,0,1,0-1.428c.034-.544,0-.85,0-1.394-.136-.646.2-.952,0-1.428.17-.51-.17-1.088,0-1.428a1.868,1.868,0,0,1,0-1.428c.068-.408-.2-.748,0-1.428.2-.272-.136-.85,0-1.394a12.227,12.227,0,0,1,.034-1.938c.068-.2.408-.476.918-.782a11.528,11.528,0,0,1,1.6-.034c.408.238,1.224.068,1.768.272.782,0,.986.374,1.564.408a8.188,8.188,0,0,1,1.394.918,3.223,3.223,0,0,0,1.054,1.19c.476.646.68.782.782,1.428.408.612.2,1.19.476,1.564a4.164,4.164,0,0,0,.306,1.666c.306.272-.1,1.088.136,1.734.238.578,0,1.19.068,1.734C275.876-12.376,275.5-11.866,275.536-10.846Zm22.3,7.82c-.1.306-.272.34-.408.68a1.239,1.239,0,0,1-.408.374.808.808,0,0,1-.51.034c-.68-.034-.918-.612-.952-1.122a20.3,20.3,0,0,1,0-2.04,1.15,1.15,0,0,1-.034-.748,2.869,2.869,0,0,0,.068-.646c-.034-.476-.34-.646-.068-1.19.136-.238-.136-.51,0-.986.1-.34-.17-.68,0-1.19.1-.34-.034-.85.034-1.36a14.414,14.414,0,0,0-.2-2.244c-.272-.136-.238-.272-.238-.476a.88.88,0,0,0-.238-.612c-.272-.374-.51-.816-.884-.952-.612-.2-.748-.646-1.156-.612-.544.034-.714-.374-1.19-.272-.51-.068-.918-.1-1.224-.17a5.609,5.609,0,0,0-1.972.238,8.264,8.264,0,0,0-2.21.646c-.238.034-.306.136-.34.238-.068.1-.1.2-.442.2-.17,0-.306.272-.748.646a2.209,2.209,0,0,0-.68,1.8,1.93,1.93,0,0,0,.51,1.36,1.984,1.984,0,0,0,1.326.578c.544-.034.884.034,1.156-.51a2.054,2.054,0,0,0,.476-1.19,1.279,1.279,0,0,0-.476-1.088.7.7,0,0,1-.272-.85c-.1-.2.476-.748.884-.816a12.453,12.453,0,0,1,1.428-.238c.782.1,1.6.2,1.8.714.612.544.51,1.224.612,1.836a11.89,11.89,0,0,1,0,1.564,3.035,3.035,0,0,1,0,1.36c.068.238,0,.34-.136.578a.758.758,0,0,1-.748.374c-.646.068-.782.34-1.394.238a6.957,6.957,0,0,0-1.6.306,4.257,4.257,0,0,0-1.734.612c-.68.136-.714.578-1.394.884-.68.238-.85.816-1.292,1.5a3.76,3.76,0,0,0-.442,1.768,1.939,1.939,0,0,0,.034.442.645.645,0,0,0,.136.408c.1.2.272.306.17.714.272.51.442.986.952,1.156a4.379,4.379,0,0,0,1.36.748A6.47,6.47,0,0,0,286.96-.1a7.1,7.1,0,0,0,1.938-.34c.068-.2.238-.238.408-.272a.539.539,0,0,0,.408-.17c.272-.238.918-.34,1.088-.816a.667.667,0,0,1,1.088.238,3.483,3.483,0,0,0,.85.782,4.694,4.694,0,0,0,2.006.51.993.993,0,0,0,.306.068c.408,0,.816-.34,1.02-.272a1.955,1.955,0,0,0,1.054-.544c.34-.34.646-.34.884-.85a3.749,3.749,0,0,0,.646-.85.307.307,0,0,0,.034-.17.517.517,0,0,0-.51-.476A.3.3,0,0,0,297.84-3.026Zm-6.528-.442a5.409,5.409,0,0,1-.986,1.122,3.422,3.422,0,0,1-1.6.476,2.576,2.576,0,0,1-1.7-.782,1.073,1.073,0,0,1-.442-.952c0-.306-.272-.544-.17-.884.17-.442.034-.544.136-.816-.1-.408.272-.612.476-1.054a2.233,2.233,0,0,1,1.054-.952c.408-.408.714-.2,1.224-.544.306-.34.782-.17,1.02-.272.612-.17,1.224-.034,1.122.748a.643.643,0,0,0,.034.51.584.584,0,0,1,0,.578.507.507,0,0,0-.068.476.647.647,0,0,1,.034.578c-.034.374.17.476.034.884C291.38-4.012,291.516-3.74,291.312-3.468Zm24.446-12.58a1.388,1.388,0,0,0-.544-.136c-.238,0-.374.136-.51.034-.238,0-.816,0-1.19-.034-.238.238-.816.068-1.19.034h-.17a3.523,3.523,0,0,1-1.19-.034c-.068,0-.1-.034-.136-.034-.306,0-.442.306-.442.578,0,.306.136.646.442.68a5.408,5.408,0,0,0,1.054,0,.673.673,0,0,1,.68.51c.068.272-.374,1.02-.442,1.53a8.586,8.586,0,0,1-.612,1.5c-.272.782-.442.952-.714,1.666-.374.578-.374,1.224-.714,1.734a6.865,6.865,0,0,1-.918,1.938c-.136.408-.306.544-.476.544-.238,0-.442-.306-.544-.612A1.014,1.014,0,0,0,307.9-6.7a.456.456,0,0,1-.136-.51,1.28,1.28,0,0,0-.238-.612.96.96,0,0,1-.238-.68,7.094,7.094,0,0,1-.442-1.292c-.1-.408-.612-.544-.476-1.326.034-.2-.136-.34-.272-.544a.988.988,0,0,1-.17-.748c.034-.374-.306-.578-.442-1.156,0-.306-.17-.646-.17-.952,0-.2.1-.34.408-.442a4.353,4.353,0,0,1,1.156,0,.471.471,0,0,0,.476-.51.578.578,0,0,0-.374-.578,9.365,9.365,0,0,0-1.972,0c-.782.1-1.394-.136-2.278,0a17.411,17.411,0,0,1-2.312,0c-.476.034-.952-.1-1.394-.1a1,1,0,0,0-.442.068.577.577,0,0,0-.306.544.5.5,0,0,0,.544.544,3.509,3.509,0,0,1,1.224.1c.272.034.374.068.476.34.17.714.816,1.19.714,1.632-.1.2.306.544.408,1.054,0,.51.34.51.408,1.054a2.97,2.97,0,0,0,.544,1.428c.136.68.544.816.51,1.462a3.581,3.581,0,0,1,.544,1.428c.34.578.2.918.544,1.462a5.848,5.848,0,0,1,.544,1.462c.1.476.442.85.544,1.462A3.02,3.02,0,0,1,305.83-.68c-.068.34.34.68.34,1.292.1.476-.17.578-.136.986a1.552,1.552,0,0,1-.17.476,3.319,3.319,0,0,0-.272.782,16.676,16.676,0,0,0-.714,1.734,6.958,6.958,0,0,0-.884,1.564,1.142,1.142,0,0,1-.986.476.972.972,0,0,1-.884-.816c-.136-.544-.884-.85-1.462-.884a1.733,1.733,0,0,0-1.394.578c-.408.238-.136.986-.34,1.36-.136.782.136,1.054.714,1.6.408.544.952.408,1.7.612h.2a4.338,4.338,0,0,0,1.394-.408,2.09,2.09,0,0,0,1.224-.986,3.706,3.706,0,0,0,.918-1.36,10.385,10.385,0,0,0,.748-1.7.829.829,0,0,1,.272-.578.353.353,0,0,0,.136-.272c.034-.374.442-.918.442-1.088a.872.872,0,0,1,.272-.714,1,1,0,0,0,.17-.51A.692.692,0,0,1,307.36.85,1.194,1.194,0,0,0,307.6.544a1.9,1.9,0,0,0,.238-.51c.068-.17.068-.272.2-.578,0-.408.51-.578.476-1.088a.687.687,0,0,1,.17-.68,1.223,1.223,0,0,0,.272-.408,1.089,1.089,0,0,1,.476-1.088,8.146,8.146,0,0,1,.442-1.088c.34-.408.068-.68.476-1.088.238-.51.2-.544.442-1.088a2.825,2.825,0,0,1,.442-1.088,3.073,3.073,0,0,0,.17-.544,1,1,0,0,1,.306-.544c.2-.1.17-.272.2-.51a.763.763,0,0,1,.238-.578c.238-.17.238-.34.272-.578a2.215,2.215,0,0,1,.17-.51c0-.306.2-.544.476-1.054.136-.136.034-.782.408-.986,0-.272.17-.442.476-.952a1.273,1.273,0,0,0,.238-.408c.068-.136.136-.238.544-.17a2.93,2.93,0,0,0,.986.034c.2-.034.306-.272.306-.51C316.03-15.742,315.928-16.014,315.758-16.048Zm12.784,9.316a5.083,5.083,0,0,0-1.156-1.938,8.387,8.387,0,0,0-2.108-1.156.652.652,0,0,1-.646-.136,1.346,1.346,0,0,0-.544-.272c-.68.034-.986-.51-1.428-.476a6.3,6.3,0,0,1-1.428-.578,2.838,2.838,0,0,1-1.02-.816,1.341,1.341,0,0,1-.374-1.224,2.228,2.228,0,0,1,.986-1.734,4.749,4.749,0,0,1,1.9-.476,3.357,3.357,0,0,1,1.836.408,6.078,6.078,0,0,1,1.5,1.224,2.626,2.626,0,0,1,.544,1.224,5.6,5.6,0,0,0,.136,1.088.414.414,0,0,0,.442.306c.306,0,.578-.17.51-.408,0-.408-.034-.68-.068-1.156a.311.311,0,0,0-.1-.238c-.034-.1-.068-.17.068-.374-.034-.51.068-.748.1-1.7-.034-.272.17-.476.136-.714a.611.611,0,0,0-.51-.306.187.187,0,0,0-.17.1c-.238.2-.238.442-.442.578-.17.068-.306,0-.544-.1a10.378,10.378,0,0,0-1.7-.68,8.74,8.74,0,0,0-1.7-.272h-.136a7.065,7.065,0,0,0-1.938.408,1.066,1.066,0,0,0-.374.272.548.548,0,0,1-.544.2,1.625,1.625,0,0,0-.782.612,6.27,6.27,0,0,0-1.156,1.666,5.947,5.947,0,0,0-.442,2.074,3.662,3.662,0,0,0,.374,2.108,2.69,2.69,0,0,0,1.156,1.428,2.99,2.99,0,0,0,1.462.884c.476.17,1.02.68,1.734.646.374-.068.578.238,1.02.374a5,5,0,0,1,1.02.272c.238.1.476.034.85.374a.6.6,0,0,0,.272.17c.17.034.306.1.442.408a1.185,1.185,0,0,1,.34.986c.1.51-.1.748-.238,1.224a3.874,3.874,0,0,1-.918.918c-.136.272-.238.238-.374.238a.375.375,0,0,0-.306.1,5.155,5.155,0,0,1-1.428.136,4.02,4.02,0,0,1-1.258-.1.585.585,0,0,1-.51-.17,1.784,1.784,0,0,0-.374-.238,4.378,4.378,0,0,1-1.02-.748,4.215,4.215,0,0,1-.714-.884.67.67,0,0,1-.34-.51c-.068-.136-.1-.306-.2-.544a6.261,6.261,0,0,1-.34-1.326c.034-.238-.238-.374-.476-.374-.2,0-.408.068-.442.272a8.041,8.041,0,0,0,.034,1.02c.1.306.238.51.068.85a5.492,5.492,0,0,1-.068,1.326c-.136.51-.136.986-.238,1.394a.257.257,0,0,0-.034.136c0,.34.646.51.782.272.2-.238.136-.374.476-.646.1-.1.442-.068.816.238.374.374,1.122.442,1.6.714a4.714,4.714,0,0,0,1.088.2,5.831,5.831,0,0,0,1.53.136,11.254,11.254,0,0,0,2.006-.34c.442-.17.85-.2,1.156-.578.238-.306.612-.17.782-.51a1.022,1.022,0,0,1,.408-.374.879.879,0,0,0,.272-.374c.136-.51.68-.986.714-1.428a.775.775,0,0,1,.136-.646,1.04,1.04,0,0,0,.1-.51v-.1A7.375,7.375,0,0,0,328.542-6.732Z" transform="translate(185.228 4387.965)"/>
      <path id="パス_71145-2" data-name="パス 71145" d="M24.071,13.357A3.593,3.593,0,0,1,22,11.284L17.678,0l-4.32,11.283a3.6,3.6,0,0,1-2.073,2.074L0,17.678,11.285,22a3.593,3.593,0,0,1,2.073,2.074l4.32,11.283L22,24.071A3.593,3.593,0,0,1,24.071,22l11.285-4.319Zm-6.393,6.1a1.776,1.776,0,1,1,1.776-1.776,1.776,1.776,0,0,1-1.776,1.776" transform="translate(147.154 4354.002) rotate(30)"/>
    </g>
  </g>
</svg>
