<svg xmlns="http://www.w3.org/2000/svg" width="553.797" height="28.215" viewBox="0 0 553.797 28.215">
  <path id="パス_72321" data-name="パス 72321" d="M-261.09-14.931c-.108-.567,0-.7-.135-1.269a6.189,6.189,0,0,0-.459-1.242c-.4-.486-.432-.891-.756-1.08-.4-.162-.432-.621-.891-.7-.432-.108-.756-.432-1.188-.486-.4.108-.621-.189-1.026-.3-.459.108-.729-.162-1.08-.108a4.655,4.655,0,0,1-1.053-.027,5.384,5.384,0,0,0-.729-.054,2.72,2.72,0,0,0-.513.054,9.768,9.768,0,0,1-1.242.054,2.306,2.306,0,0,1-1.215.027,4.63,4.63,0,0,1-1.242.027c-.567.027-1.323-.108-1.674-.027a5.085,5.085,0,0,1-1.323-.054,1.763,1.763,0,0,0-.3-.054c-.108,0-.189.027-.324.027h-.108a.4.4,0,0,0-.189-.027h-.108c-.324,0-.432.162-.432.351,0,.243.189.54.351.513.621.081.81-.027,1.4.054a.668.668,0,0,1,.621.513,12.791,12.791,0,0,1,.108,1.62,2,2,0,0,0,0,1.134c.081.243-.189.7,0,1.134.162.378-.054.783,0,1.134.027.594-.054.81-.027,1.4.27.189.054.621.027.891.027.351,0,.891,0,1.134a2.024,2.024,0,0,0,0,1.134c.216.351-.027.81,0,1.134a.508.508,0,0,0,0,.351.874.874,0,0,1,0,.783,3.08,3.08,0,0,0,0,1.134,2.3,2.3,0,0,0,0,1.134c-.162.513.243.864-.054,1.323-.108.945.081,1.08-.081,1.458-.027.324-.054.513-.594.54-.54.216-.945.027-1.674.081-.4-.027-.567.162-.567.405a.445.445,0,0,0,.4.459,1.549,1.549,0,0,1,.324-.027c.189,0,.351.027.54.027h.081a1.108,1.108,0,0,0,.3-.027.93.93,0,0,1,.243-.027c.216,0,.324.054.486.054a.814.814,0,0,0,.351-.108c.216-.027.7.054,1.08.054a.746.746,0,0,0,.378-.054c.324-.162.7.081,1.161,0a3.367,3.367,0,0,1,1.3,0h1.323a1.355,1.355,0,0,0,.54-.054.448.448,0,0,1,.432.108c.459.027.864.027,1.3.027.189-.027.3-.243.3-.459a.342.342,0,0,0-.324-.378c-.378-.081-.567.027-.918-.027a2.1,2.1,0,0,1-.648.081l-.486-.081c-.243-.027-.783.135-1.053-.135-.216-.216-.189-.459-.243-.864-.108-.432.081-1.107,0-1.647a3.644,3.644,0,0,1,0-1.431c-.027-.27-.027-1.3-.027-1.728a.661.661,0,0,1-.108-.675.911.911,0,0,0,.108-.324c.027-.567-.162-.81.189-1.161.135-.135.621-.081.918-.054a2.768,2.768,0,0,1,1,.081.6.6,0,0,0,.378,0,.66.66,0,0,1,.513,0,9.656,9.656,0,0,0,1.215-.108,5.236,5.236,0,0,0,1.3-.243c.378-.189.621-.135.972-.432a.839.839,0,0,1,.567-.3.69.69,0,0,0,.486-.3c.27-.351.756-.594.864-.783.324-.459.351-.459.675-.972a3.169,3.169,0,0,0,.432-1.161c0-.324.162-.81.162-1.242C-261.063-14.769-261.09-14.85-261.09-14.931Zm-3.753.189c-.054.675-.216,1.3-.216,1.782a1.689,1.689,0,0,0-.108.378.686.686,0,0,1-.216.513c-.216.27-.162.513-.432.7a.823.823,0,0,0-.189.27.5.5,0,0,1-.378.3c-.27.081-.27.378-.7.432-.351.108-.54.27-.864.243-.4.027-.459.189-1,.108a6.886,6.886,0,0,1-1.026-.054c-.324-.054-.783-.108-.729-.729,0-.432-.054-1.026-.027-1.4.027-.432,0-.837,0-1.188a1.783,1.783,0,0,1,0-1.134c.162-.216-.3-.675,0-1.215.162-.324-.081-.729.027-1.269a13,13,0,0,1,0-1.782.536.536,0,0,1,.7-.432,8.239,8.239,0,0,1,1.161-.027,3.779,3.779,0,0,1,1.161.081,7.265,7.265,0,0,1,1.08.351,2.73,2.73,0,0,1,.81.756,3.658,3.658,0,0,0,.432.864,8.7,8.7,0,0,0,.4,1.107A8.792,8.792,0,0,1-264.843-14.742Zm15.714,3c-.216-.432-.216-.594-.513-.729a2.189,2.189,0,0,0-.756-.459,2.734,2.734,0,0,0-1.35-.135.4.4,0,0,0-.216.081c-.081.054-.108.108-.405.054a4.47,4.47,0,0,0-.864.513c-.189.081-.7.54-.729.756a3.148,3.148,0,0,0-.3.432c-.081.135-.162.162-.27.135-.081-.027-.135-.054-.162-.135a2.336,2.336,0,0,1,0-.783c-.054-.351.108-.621-.027-.891a.54.54,0,0,0-.459-.351.4.4,0,0,0-.243.054,1.205,1.205,0,0,1-.918.189,10.364,10.364,0,0,1-1.188.162,2.8,2.8,0,0,1-1.08.081,5.832,5.832,0,0,1-.972,0c-.378,0-.513.189-.513.4,0,.243.162.513.378.486.324.027.675-.054.891-.027.108.027.3-.027.432.054a.609.609,0,0,1,.135.324c.162.54-.027.648.054,1.026a6.2,6.2,0,0,1,.027,1.863.654.654,0,0,0,.081.378.353.353,0,0,1-.081.432c-.027.675,0,1.377-.027,1.971a2.195,2.195,0,0,0,.081.3c.108.162.162.27-.054.594a12.631,12.631,0,0,0,0,1.431c-.027.486-.027,1.08-.054,1.458-.081.513-.135.756-.567.81-.459.027-.891-.027-1.08.027-.216,0-.324.189-.324.4,0,.243.135.486.4.432.7,0,.891,0,1.728.027.378,0,.783.027,1.161.027.4,0,.783-.027,1.107-.027.108-.162.27-.135.486-.081a3.027,3.027,0,0,0,.567.108c.4.027.729.027,1.053.027a3.441,3.441,0,0,0,.756-.054h.054c.189,0,.27-.189.27-.4,0-.243-.135-.54-.4-.459a1.481,1.481,0,0,1-.351,0,1.018,1.018,0,0,0-.513,0,.593.593,0,0,1-.729-.567c.054-.432-.135-1.269-.054-1.863-.027-.243-.3-.567,0-.972a12.924,12.924,0,0,0,0-1.458,16.2,16.2,0,0,0,0-1.62,3.585,3.585,0,0,1,.216-1.62c.108-.27.027-.648.3-.783.189-.189.162-.324.27-.486a.7.7,0,0,1,.189-.27c.135-.081.216-.432.648-.567a.717.717,0,0,1,.7-.243c.27-.027.513.135.486.3a1.138,1.138,0,0,1,.027.729,1.11,1.11,0,0,0,.351,1,1.114,1.114,0,0,0,1.215.432c.324.054.621-.054,1-.513a1.241,1.241,0,0,0,.378-.972v-.162A2.153,2.153,0,0,0-249.129-11.745Zm12.663,8.208c-.378.459-.459.729-.621.891-.108.459-.648.486-.837.864-.486.432-.729.27-1.053.567a3.043,3.043,0,0,1-1.35.189,2.7,2.7,0,0,1-1.161-.135,1.937,1.937,0,0,1-.891-.378,1.566,1.566,0,0,1-.7-.594c-.27-.3-.189-.432-.513-.783-.243-.27-.189-.756-.324-.891-.162-.135-.135-.27-.135-.486a1.324,1.324,0,0,0-.081-.513,1.873,1.873,0,0,1-.108-1.053.9.9,0,0,0-.027-.621,1.14,1.14,0,0,1,0-.432l.027-.108c.189-.243.324-.432.594-.432h1.917c.513-.135.648.081,1.269,0a3.976,3.976,0,0,1,1.269,0c.459.081.945-.054,1.674.027a6.353,6.353,0,0,0,1.566-.081c.216.054.459-.216.459-.54a.46.46,0,0,0-.027-.189,2.082,2.082,0,0,0-.432-1.485.928.928,0,0,1-.216-.378,1.094,1.094,0,0,0-.216-.351c-.216-.081-.189-.378-.513-.675a2.817,2.817,0,0,0-.945-.864,6.2,6.2,0,0,0-1.08-.621,2.05,2.05,0,0,0-1.188-.378c-.351.081-.891-.162-1.161-.162-.054,0-.081.027-.108.027-.486.162-.756-.054-1.35.135a2.966,2.966,0,0,0-1.242.378c-.3.216-.918.324-1.134.621-.243.27-.81.351-1,.783-.189.4-.594.486-.783.972-.189.459-.513.567-.621,1.134a.488.488,0,0,1-.081.513.564.564,0,0,0-.216.351,13.7,13.7,0,0,0-.243,1.512.526.526,0,0,0,.027.216,1.427,1.427,0,0,0-.027.324c0,.378.135.594.162,1.053a1.826,1.826,0,0,0,.378,1.269c.162.567.459.594.594,1.08a2.182,2.182,0,0,0,.81.945.679.679,0,0,0,.324.189c.189.054.324.081.378.432a6.932,6.932,0,0,0,1.4.729,3.867,3.867,0,0,0,1.242.351,1.584,1.584,0,0,0,.621.108h.513A.748.748,0,0,1-241.38,0a4.99,4.99,0,0,1,.648-.027h.27a2.688,2.688,0,0,0,.972-.189,3.218,3.218,0,0,0,1.485-.621l.54-.351c.081-.243.4-.405.675-.7.162-.216.378-.459.54-.7.108-.243.351-.324.432-.648.081-.216-.189-.459-.4-.459A.226.226,0,0,0-236.466-3.537Zm-7.425-6.345c.081-.324.054-.783.324-1.053a5.811,5.811,0,0,1,.864-1.08,2.166,2.166,0,0,1,1.377-.405,1.981,1.981,0,0,1,1.323.432c.351.216.432.675.7,1.08.3.378.081.81.3,1.107a6.014,6.014,0,0,1,.054,1.188c.027.4-.081.54-.648.513-.756-.027-1.377.027-1.971,0-.432.027-1.35,0-1.863,0-.567,0-.783-.216-.7-.837a.682.682,0,0,0,.081-.486A.6.6,0,0,1-243.891-9.882Zm23.976,1.971a6.676,6.676,0,0,0-.27-1.161.542.542,0,0,1-.27-.486.938.938,0,0,0-.162-.621c-.378-.459-.27-.783-.621-.972-.189-.459-.648-.4-.783-.81a6.435,6.435,0,0,0-.945-.648c-.459-.108-.7-.324-1.107-.4a4.865,4.865,0,0,1-1.242-.135,2.886,2.886,0,0,0-1.242.135,3.477,3.477,0,0,1-1.053.432c-.189.243-.783.513-1.026.756-.459.459-.7.351-.648-.081-.054-.216.108-.7-.027-1.026a.642.642,0,0,0-.459-.324.162.162,0,0,0-.108.027c-.513.27-.864.081-1.134.324-.108.108-.162.054-.324.027a.827.827,0,0,0-.432.027,6.518,6.518,0,0,1-1.4.108,8.938,8.938,0,0,1-1.161-.027.419.419,0,0,0-.216.783,2.467,2.467,0,0,0,.864.054c.324.027.675.054.729.54.081.4-.027.891.081,1.242a10.774,10.774,0,0,1,0,1.62c.081.729-.108.972,0,1.647.162.621-.189,1.161,0,1.647.3.783-.135,1.161.081,1.593a.7.7,0,0,1,.027.567,1.291,1.291,0,0,0-.054.864c.189.621-.108,1.4-.054,1.917.162.729-.135,1.3.054,1.755a.936.936,0,0,1,.054.648.963.963,0,0,0-.027.729.627.627,0,0,1,.054.567,1.162,1.162,0,0,0-.108.54,12.526,12.526,0,0,1-.135,1.755c-.027.3-.27.351-.567.4a4.787,4.787,0,0,1-.891,0,.421.421,0,0,0-.4.432c0,.216.135.405.459.405h1.647c.243,0,.4-.216.756,0h.135c.108,0,.162-.027.243-.027a.972.972,0,0,1,.486,0,.637.637,0,0,0,.324-.027.451.451,0,0,1,.378,0,7.867,7.867,0,0,1,1.431.081c.513,0,.945,0,1.539.027a.34.34,0,0,0,.3-.378.422.422,0,0,0-.324-.459,5.751,5.751,0,0,1-1.107-.081.629.629,0,0,1-.594-.7c-.054-.432.027-1.134-.027-1.674a7.047,7.047,0,0,0-.027-1.512c-.081-.189.162-.81,0-1.3.027-.54.027-1.35,0-1.674-.027-.351.4-.432.756-.054.189.162.594.27.81.459a4.314,4.314,0,0,0,1.242.27,1.237,1.237,0,0,0,.459-.027.346.346,0,0,1,.4.135,3.766,3.766,0,0,0,1.3-.216c.594-.135.972-.378,1.269-.4a3.549,3.549,0,0,0,1.053-.756c.324-.216.243-.513.621-.756a4.377,4.377,0,0,0,.756-1.134c.054-.378.4-.459.351-1a7.45,7.45,0,0,0,.3-1.188c-.054-.486-.108-.675.081-1a1.407,1.407,0,0,0,.054-.378A8.33,8.33,0,0,0-219.915-7.911Zm-3.861,2.673a3.069,3.069,0,0,0-.135.945,1.392,1.392,0,0,0-.243.918,1.4,1.4,0,0,1-.378.81c-.027.216-.243.378-.54.675-.135.054-.486.486-.7.432a6.606,6.606,0,0,1-.918.162.7.7,0,0,1-.891-.162c-.243-.162-.7-.189-.81-.4-.459-.324-.459-.459-.756-.918a2.206,2.206,0,0,1-.162-1.188,4.067,4.067,0,0,1,0-1.512c-.027-.351.027-1.62,0-2.079a.508.508,0,0,1-.081-.567.862.862,0,0,0,.081-.378c.108-.459-.108-.756.027-1.188-.027-.351.324-.729.54-1,.378-.324.459-.567.648-.594a3.608,3.608,0,0,1,1.782-.4c.513.054.891-.081,1.323.378a2.605,2.605,0,0,1,.837,1.242,9.374,9.374,0,0,0,.378,1.566c.027.513.081,1.026.108,1.539A14.711,14.711,0,0,1-223.776-5.238ZM-206.361-2.4c-.081.243-.216.27-.324.54a.984.984,0,0,1-.324.3.641.641,0,0,1-.405.027c-.54-.027-.729-.486-.756-.891a16.119,16.119,0,0,1,0-1.62.913.913,0,0,1-.027-.594,2.279,2.279,0,0,0,.054-.513c-.027-.378-.27-.513-.054-.945.108-.189-.108-.405,0-.783.081-.27-.135-.54,0-.945.081-.27-.027-.675.027-1.08a11.448,11.448,0,0,0-.162-1.782c-.216-.108-.189-.216-.189-.378a.7.7,0,0,0-.189-.486c-.216-.3-.4-.648-.7-.756-.486-.162-.594-.513-.918-.486-.432.027-.567-.3-.945-.216-.4-.054-.729-.081-.972-.135a4.455,4.455,0,0,0-1.566.189,6.562,6.562,0,0,0-1.755.513c-.189.027-.243.108-.27.189-.054.081-.081.162-.351.162-.135,0-.243.216-.594.513a1.754,1.754,0,0,0-.54,1.431,1.533,1.533,0,0,0,.4,1.08,1.576,1.576,0,0,0,1.053.459c.432-.027.7.027.918-.4a1.631,1.631,0,0,0,.378-.945,1.015,1.015,0,0,0-.378-.864.558.558,0,0,1-.216-.675c-.081-.162.378-.594.7-.648a9.89,9.89,0,0,1,1.134-.189c.621.081,1.269.162,1.431.567.486.432.4.972.486,1.458a9.444,9.444,0,0,1,0,1.242,2.41,2.41,0,0,1,0,1.08c.054.189,0,.27-.108.459a.6.6,0,0,1-.594.3c-.513.054-.621.27-1.107.189a5.525,5.525,0,0,0-1.269.243,3.38,3.38,0,0,0-1.377.486c-.54.108-.567.459-1.107.7-.54.189-.675.648-1.026,1.188a2.986,2.986,0,0,0-.351,1.4,1.539,1.539,0,0,0,.027.351.512.512,0,0,0,.108.324c.081.162.216.243.135.567.216.4.351.783.756.918a3.478,3.478,0,0,0,1.08.594A5.138,5.138,0,0,0-215-.081a5.642,5.642,0,0,0,1.539-.27c.054-.162.189-.189.324-.216a.428.428,0,0,0,.324-.135c.216-.189.729-.27.864-.648a.529.529,0,0,1,.864.189,2.766,2.766,0,0,0,.675.621,3.728,3.728,0,0,0,1.593.4.788.788,0,0,0,.243.054c.324,0,.648-.27.81-.216a1.553,1.553,0,0,0,.837-.432c.27-.27.513-.27.7-.675a2.978,2.978,0,0,0,.513-.675.243.243,0,0,0,.027-.135.41.41,0,0,0-.4-.378A.242.242,0,0,0-206.361-2.4Zm-5.184-.351a4.3,4.3,0,0,1-.783.891,2.718,2.718,0,0,1-1.269.378,2.045,2.045,0,0,1-1.35-.621.852.852,0,0,1-.351-.756c0-.243-.216-.432-.135-.7.135-.351.027-.432.108-.648-.081-.324.216-.486.378-.837a1.773,1.773,0,0,1,.837-.756c.324-.324.567-.162.972-.432.243-.27.621-.135.81-.216.486-.135.972-.027.891.594a.511.511,0,0,0,.027.4.464.464,0,0,1,0,.459.4.4,0,0,0-.054.378.514.514,0,0,1,.027.459c-.027.3.135.378.027.7C-211.491-3.186-211.383-2.97-211.545-2.754Zm17.874-8.991c-.216-.432-.216-.594-.513-.729a2.189,2.189,0,0,0-.756-.459,2.734,2.734,0,0,0-1.35-.135.4.4,0,0,0-.216.081c-.081.054-.108.108-.405.054a4.47,4.47,0,0,0-.864.513c-.189.081-.7.54-.729.756a3.148,3.148,0,0,0-.3.432c-.081.135-.162.162-.27.135-.081-.027-.135-.054-.162-.135a2.336,2.336,0,0,1,0-.783c-.054-.351.108-.621-.027-.891a.54.54,0,0,0-.459-.351.4.4,0,0,0-.243.054,1.205,1.205,0,0,1-.918.189,10.364,10.364,0,0,1-1.188.162,2.8,2.8,0,0,1-1.08.081,5.832,5.832,0,0,1-.972,0c-.378,0-.513.189-.513.4,0,.243.162.513.378.486.324.027.675-.054.891-.027.108.027.3-.027.432.054a.609.609,0,0,1,.135.324c.162.54-.027.648.054,1.026a6.2,6.2,0,0,1,.027,1.863.654.654,0,0,0,.081.378.353.353,0,0,1-.081.432c-.027.675,0,1.377-.027,1.971a2.19,2.19,0,0,0,.081.3c.108.162.162.27-.054.594a12.631,12.631,0,0,0,0,1.431c-.027.486-.027,1.08-.054,1.458-.081.513-.135.756-.567.81-.459.027-.891-.027-1.08.027-.216,0-.324.189-.324.4,0,.243.135.486.4.432.7,0,.891,0,1.728.027.378,0,.783.027,1.161.027.4,0,.783-.027,1.107-.027.108-.162.27-.135.486-.081a3.027,3.027,0,0,0,.567.108c.4.027.729.027,1.053.027a3.441,3.441,0,0,0,.756-.054h.054c.189,0,.27-.189.27-.4,0-.243-.135-.54-.4-.459a1.481,1.481,0,0,1-.351,0,1.018,1.018,0,0,0-.513,0,.593.593,0,0,1-.729-.567c.054-.432-.135-1.269-.054-1.863-.027-.243-.3-.567,0-.972a12.924,12.924,0,0,0,0-1.458,16.2,16.2,0,0,0,0-1.62,3.585,3.585,0,0,1,.216-1.62c.108-.27.027-.648.3-.783.189-.189.162-.324.27-.486a.7.7,0,0,1,.189-.27c.135-.081.216-.432.648-.567a.717.717,0,0,1,.7-.243c.27-.027.513.135.486.3a1.138,1.138,0,0,1,.027.729,1.11,1.11,0,0,0,.351,1,1.114,1.114,0,0,0,1.215.432c.324.054.621-.054,1-.513a1.241,1.241,0,0,0,.378-.972v-.162A2.153,2.153,0,0,0-193.671-11.745Zm12.663,8.208c-.378.459-.459.729-.621.891-.108.459-.648.486-.837.864-.486.432-.729.27-1.053.567a3.043,3.043,0,0,1-1.35.189,2.7,2.7,0,0,1-1.161-.135,1.937,1.937,0,0,1-.891-.378,1.566,1.566,0,0,1-.7-.594c-.27-.3-.189-.432-.513-.783-.243-.27-.189-.756-.324-.891-.162-.135-.135-.27-.135-.486a1.324,1.324,0,0,0-.081-.513,1.873,1.873,0,0,1-.108-1.053.9.9,0,0,0-.027-.621,1.14,1.14,0,0,1,0-.432l.027-.108c.189-.243.324-.432.594-.432h1.917c.513-.135.648.081,1.269,0a3.976,3.976,0,0,1,1.269,0c.459.081.945-.054,1.674.027a6.353,6.353,0,0,0,1.566-.081c.216.054.459-.216.459-.54a.46.46,0,0,0-.027-.189A2.082,2.082,0,0,0-180.5-9.72a.928.928,0,0,1-.216-.378,1.094,1.094,0,0,0-.216-.351c-.216-.081-.189-.378-.513-.675a2.817,2.817,0,0,0-.945-.864,6.2,6.2,0,0,0-1.08-.621,2.05,2.05,0,0,0-1.188-.378c-.351.081-.891-.162-1.161-.162-.054,0-.081.027-.108.027-.486.162-.756-.054-1.35.135a2.966,2.966,0,0,0-1.242.378c-.3.216-.918.324-1.134.621-.243.27-.81.351-1,.783-.189.4-.594.486-.783.972-.189.459-.513.567-.621,1.134a.488.488,0,0,1-.081.513.564.564,0,0,0-.216.351,13.7,13.7,0,0,0-.243,1.512.526.526,0,0,0,.027.216,1.427,1.427,0,0,0-.027.324c0,.378.135.594.162,1.053a1.826,1.826,0,0,0,.378,1.269c.162.567.459.594.594,1.08a2.182,2.182,0,0,0,.81.945.679.679,0,0,0,.324.189c.189.054.324.081.378.432a6.932,6.932,0,0,0,1.4.729,3.867,3.867,0,0,0,1.242.351,1.584,1.584,0,0,0,.621.108h.513a.748.748,0,0,1,.243.027,4.99,4.99,0,0,1,.648-.027h.27a2.688,2.688,0,0,0,.972-.189,3.218,3.218,0,0,0,1.485-.621l.54-.351c.081-.243.4-.405.675-.7.162-.216.378-.459.54-.7.108-.243.351-.324.432-.648.081-.216-.189-.459-.4-.459A.226.226,0,0,0-181.008-3.537Zm-7.425-6.345c.081-.324.054-.783.324-1.053a5.811,5.811,0,0,1,.864-1.08,2.166,2.166,0,0,1,1.377-.405,1.981,1.981,0,0,1,1.323.432c.351.216.432.675.7,1.08.3.378.081.81.3,1.107a6.014,6.014,0,0,1,.054,1.188c.027.4-.081.54-.648.513-.756-.027-1.377.027-1.971,0-.432.027-1.35,0-1.863,0-.567,0-.783-.216-.7-.837a.682.682,0,0,0,.081-.486A.6.6,0,0,1-188.433-9.882Zm30.51-8.424v-.27a.49.49,0,0,0-.081-.351.484.484,0,0,1-.162-.27.321.321,0,0,0-.108-.3c-.189-.108-.135-.3-.27-.351-.351-.162-.324-.324-.567-.486a2.423,2.423,0,0,0-.891-.378,2.5,2.5,0,0,0-.864-.135h-.243a1.946,1.946,0,0,0-.945.135,1.241,1.241,0,0,1-.351.108.8.8,0,0,0-.459.135,1.6,1.6,0,0,0-.729.459c-.135.243-.594.324-.675.621-.081.27-.4.378-.54.7a2.862,2.862,0,0,0-.432.81.428.428,0,0,0-.135.324,1.29,1.29,0,0,1-.216.54.38.38,0,0,0-.162.324.973.973,0,0,1-.054.54c-.243.4.027.945-.189,1.188a7.836,7.836,0,0,0-.162,1.647c-.027.513-.162.648-.486.567a6.62,6.62,0,0,1-1-.027c-.243-.054-.378.216-.378.459,0,.27.135.513.432.486a4.494,4.494,0,0,0,1.026-.027c.216,0,.4.162.432.648,0,.567,0,1.377.054,1.89.027.189.135.324.135.486a.516.516,0,0,1-.135.324c-.054.459.027,1.593,0,1.89a7.514,7.514,0,0,0,0,1.35,11.136,11.136,0,0,0,0,1.35c.081.3-.108.594.027.891.189.405-.081.594-.027.81a4.234,4.234,0,0,1,0,.594c0,.162-.081.243-.324.324-.162,0-.324.054-.567.054a1.264,1.264,0,0,1-.594-.027c-.378.027-.486.189-.486.378a.675.675,0,0,0,.108.351.471.471,0,0,0,.4.216,7.875,7.875,0,0,1,.891-.054.39.39,0,0,0,.189-.054c.081-.027.162-.054.378.054a.833.833,0,0,0,.243.027c.162,0,.3-.027.351-.027h1.431c.351,0,.648-.027.945-.054a2.372,2.372,0,0,1,.756.027,8.859,8.859,0,0,1,.918-.054c.324,0,.486.081.729.081h.081c.135,0,.216-.189.216-.378,0-.216-.108-.459-.27-.432a1.549,1.549,0,0,0-.486-.027c-.378.081-.459-.081-.837-.054-.3.027-.351-.162-.432-.432a18.846,18.846,0,0,1-.054-1.917.33.33,0,0,1-.108-.243c0-.216.135-.405.108-.486a1.1,1.1,0,0,1-.054-.7.648.648,0,0,0,0-.324c-.108-.459.054-.567,0-.864-.135-.189-.054-.3,0-.459a.9.9,0,0,0,0-.27c-.108-.378.027-.54,0-1.053a5.218,5.218,0,0,1,.054-1.3,6.245,6.245,0,0,1-.054-1.917c-.108-.4.108-.594.567-.621h.81c.351.027.756,0,1.269,0,.189,0,.3-.243.3-.459,0-.3-.135-.567-.432-.486-.4,0-.675.027-1.053.054a.37.37,0,0,1-.4.027,1.463,1.463,0,0,0-.4-.054c-.378.054-.594-.135-.594-.54-.054-.621,0-1.35,0-2.241-.189-.405,0-.864-.027-1.242a8.279,8.279,0,0,1,.135-1.593,1.966,1.966,0,0,1,.486-1.377c.243-.162.7-.621,1.08-.459.486.054.7.378.675.675.054.27-.243.54-.243.729-.027.189-.3.54-.3.891.027.324-.054.729.324.891.135.4.594.4,1.107.4a1.119,1.119,0,0,0,1.08-.567A1.966,1.966,0,0,0-157.923-18.306ZM-145.4-6.561a4.787,4.787,0,0,1-.108-1.4c-.081-.27-.108-1.053-.378-1.269a6.636,6.636,0,0,1-.594-1.134c-.162-.3-.648-.567-.783-.945-.324-.081-.594-.675-.972-.756-.459-.216-.648-.351-1.134-.567-.486-.054-.918-.351-1.269-.351-.378.081-.648-.135-1.134-.135a1.013,1.013,0,0,0-.27.027h-.351a3.589,3.589,0,0,0-1.026.108,3.49,3.49,0,0,0-1.3.378c-.513.3-.837.216-1.134.567-.459.135-.621.54-1,.783-.459.189-.513.729-.81.945-.27.351-.432.918-.7,1.3a.476.476,0,0,0-.108.432,1.249,1.249,0,0,1-.189.675.922.922,0,0,0-.108.621,1.565,1.565,0,0,1-.027.783,1.859,1.859,0,0,0-.054.351,5.413,5.413,0,0,0,.189,1.026c0,.351.378.972.378,1.242a5.209,5.209,0,0,0,.7,1.242c.351.135.378.243.4.351a.506.506,0,0,0,.27.486c.351.243.54.567,1.026.729a1.15,1.15,0,0,1,.4.243,1.146,1.146,0,0,0,.729.324c.486.081.837.432,1.269.351a6.175,6.175,0,0,0,1.08.162,1.012,1.012,0,0,0,.3-.027h.162c.243,0,.432.027.594.027h.054a.993.993,0,0,0,.594-.162,6.552,6.552,0,0,0,1.269-.351c.432-.054.756-.405,1.161-.54a2.568,2.568,0,0,0,.972-.783c.3-.108.378-.675.81-.945.108-.27.432-.81.7-1.4a1.139,1.139,0,0,0,.054-.486.433.433,0,0,1,.216-.486A9.284,9.284,0,0,0-145.4-6.561Zm-3.888,1.134c-.081.378.108.972-.108,1.161-.108.459-.054.891-.216,1.134-.3.324-.189.567-.4,1.08a1.807,1.807,0,0,1-.837.972,2.314,2.314,0,0,1-1.215.378,1.9,1.9,0,0,1-.891-.189,2.665,2.665,0,0,1-.891-.783l-.3-.4c-.243-.243-.216-.648-.351-.864-.216-.243-.162-.648-.243-.945,0-.3-.189-.486-.108-.972.108-.621-.243-1.269-.081-1.7a2.581,2.581,0,0,1,.081-1.728c-.054-.486.216-.567.108-.972a2.883,2.883,0,0,1,.216-.972c0-.459.378-.513.351-.864-.027-.27.108-.324.27-.432a1.216,1.216,0,0,0,.243-.27.545.545,0,0,1,.4-.324,1.727,1.727,0,0,0,.3-.162,3.516,3.516,0,0,1,.891-.162,1.907,1.907,0,0,1,1.269.432c.378.4.756.621.783.918.162.432.378.54.4,1.08a7.654,7.654,0,0,0,.216,1.134c.216.189.216.351.162.486a1.154,1.154,0,0,0-.135.486c.054.594.27,1.053.108,1.35C-149.337-6.345-149.148-5.778-149.283-5.427ZM-133-11.745c-.216-.432-.216-.594-.513-.729a2.189,2.189,0,0,0-.756-.459,2.734,2.734,0,0,0-1.35-.135.4.4,0,0,0-.216.081c-.081.054-.108.108-.4.054a4.47,4.47,0,0,0-.864.513c-.189.081-.7.54-.729.756a3.148,3.148,0,0,0-.3.432c-.081.135-.162.162-.27.135-.081-.027-.135-.054-.162-.135a2.336,2.336,0,0,1,0-.783c-.054-.351.108-.621-.027-.891a.54.54,0,0,0-.459-.351.4.4,0,0,0-.243.054,1.205,1.205,0,0,1-.918.189,10.364,10.364,0,0,1-1.188.162,2.8,2.8,0,0,1-1.08.081,5.832,5.832,0,0,1-.972,0c-.378,0-.513.189-.513.4,0,.243.162.513.378.486.324.027.675-.054.891-.027.108.027.3-.027.432.054a.609.609,0,0,1,.135.324c.162.54-.027.648.054,1.026a6.2,6.2,0,0,1,.027,1.863.653.653,0,0,0,.081.378.353.353,0,0,1-.081.432c-.027.675,0,1.377-.027,1.971a2.188,2.188,0,0,0,.081.3c.108.162.162.27-.054.594a12.628,12.628,0,0,0,0,1.431c-.027.486-.027,1.08-.054,1.458-.081.513-.135.756-.567.81-.459.027-.891-.027-1.08.027-.216,0-.324.189-.324.4,0,.243.135.486.4.432.7,0,.891,0,1.728.027.378,0,.783.027,1.161.027.4,0,.783-.027,1.107-.027.108-.162.27-.135.486-.081a3.027,3.027,0,0,0,.567.108c.4.027.729.027,1.053.027a3.441,3.441,0,0,0,.756-.054h.054c.189,0,.27-.189.27-.4,0-.243-.135-.54-.4-.459a1.481,1.481,0,0,1-.351,0,1.018,1.018,0,0,0-.513,0,.593.593,0,0,1-.729-.567c.054-.432-.135-1.269-.054-1.863-.027-.243-.3-.567,0-.972a12.924,12.924,0,0,0,0-1.458,16.2,16.2,0,0,0,0-1.62,3.585,3.585,0,0,1,.216-1.62c.108-.27.027-.648.3-.783.189-.189.162-.324.27-.486a.7.7,0,0,1,.189-.27c.135-.081.216-.432.648-.567a.717.717,0,0,1,.7-.243c.27-.027.513.135.486.3a1.138,1.138,0,0,1,.027.729,1.11,1.11,0,0,0,.351,1,1.114,1.114,0,0,0,1.215.432c.324.054.621-.054,1-.513a1.241,1.241,0,0,0,.378-.972v-.162A2.153,2.153,0,0,0-133-11.745Zm19.872,9.612c-.216.054-.3.243-.4.3a.359.359,0,0,1-.189.081.418.418,0,0,0-.27.189c-.054.081-.27.135-.324.189-.243.189-.378.135-.783.162a.994.994,0,0,1-.918-.3c-.108-.108-.378-.3-.378-.513a1.725,1.725,0,0,0-.162-.594,2.171,2.171,0,0,1-.081-.891c.108-.567-.081-1.3.027-1.566-.027-.567,0-1.161,0-1.674-.189-.675.081-.918-.027-1.4-.108-.27.108-1.269.054-1.593a8.988,8.988,0,0,1,.027-1.7c0-.162.081-.405.594-.432.27.027.378,0,.891,0,.216,0,.27.108.594-.054.108-.054.243.081.486.054.243,0,.351-.216.351-.432,0-.243-.135-.459-.324-.378a2.225,2.225,0,0,1-.648-.054.757.757,0,0,0-.378.027.222.222,0,0,1-.189.027c-.351-.108-.4,0-.7-.027-.243-.027-.4,0-.513-.135a.432.432,0,0,1-.108-.3c-.054-.4.054-.567-.054-.837-.054-.108,0-.189.027-.27a.266.266,0,0,0-.054-.27c-.108-.243.081-.486.054-.729a4.17,4.17,0,0,1,.081-1.053c.054-.3-.027-.594,0-.837.027-.189-.162-.27-.324-.27-.135,0-.3.054-.3.216a6.71,6.71,0,0,1-.216.918,1.162,1.162,0,0,1-.135.459,1.56,1.56,0,0,0-.189.378c-.216.243-.135.432-.378.621a2.918,2.918,0,0,1-.486.567c-.216.351-.4.378-.621.648-.135.135-.432.189-.7.459-.162.189-.594.135-.756.3a.453.453,0,0,1-.351.108,2.792,2.792,0,0,0-.324.081c-.432.054-.459.189-.459.351v.108c0,.378.27.378.486.351a2.82,2.82,0,0,1,.675,0c.3.027.432.162.351.594,0,.567-.054,1.539-.027,2.268a6.077,6.077,0,0,1-.027,1.4.8.8,0,0,0,.027.378c.054.189.162.3.027.594-.135.243.081.486-.027.783-.081.405.054.567-.081.945a.228.228,0,0,0,0,.189.606.606,0,0,1,.027.459,1.1,1.1,0,0,0,.027.621.3.3,0,0,0,0,.216c0,.108.081.189,0,.351.081.324-.027.648.243.972s.243.756.621.945a1.1,1.1,0,0,0,.3.162c.162.054.27.081.378.378a3.229,3.229,0,0,0,1.08.432,8.007,8.007,0,0,0,1.026.189c.081,0,.162-.027.216-.027.513-.081.729-.054,1.053-.108a4.114,4.114,0,0,0,.972-.324,2.859,2.859,0,0,0,.891-.513,3.949,3.949,0,0,0,.351-.243c.189-.135.432-.189.459-.432a.855.855,0,0,0-.162-.405A.3.3,0,0,0-113.13-2.133ZM-96.8-1.107c-.216-.162-.3-.108-.54-.162-.108-.027-.351.054-.459.027a.636.636,0,0,1-.486-.432,1.583,1.583,0,0,1-.108-.837,5.016,5.016,0,0,0,0-1.107A13.6,13.6,0,0,0-98.415-5.4c-.189-.243-.108-.351-.027-.54a1.407,1.407,0,0,0,.054-.378c.108-.513-.135-1.377,0-1.89.027-.513-.108-.891-.054-1.377-.216-.27-.027-.81-.3-1.323a4.3,4.3,0,0,0-.783-1.026.463.463,0,0,1-.432-.3.649.649,0,0,0-.4-.324c-.432-.189-.783-.4-1.053-.486a3.553,3.553,0,0,0-1.188-.108,1.881,1.881,0,0,1-.594.081.954.954,0,0,0-.54.054,4.8,4.8,0,0,0-1.242.594,11.929,11.929,0,0,0-1.161.837c-.378.216-.621.108-.513-.648l-.027-1.458c-.243-.351.081-.729-.081-1.08a.427.427,0,0,1,.027-.486c.054-.108.108-.216.027-.324a.866.866,0,0,1-.027-.729.8.8,0,0,0,.054-.459,1.585,1.585,0,0,1-.027-.864c0-.4.081-.621.054-1.161a10.35,10.35,0,0,1,.135-1.62c.108-.243-.189-.594-.486-.594a.33.33,0,0,0-.243.108.869.869,0,0,1-.594.216.577.577,0,0,0-.351.135c-.486.054-.567.27-1.053.27-.567-.108-1.026.243-1.377.162-.432-.027-.7.054-1.026.027a.39.39,0,0,0-.4.432.353.353,0,0,0,.378.378c.27.027.486-.027.918-.027.351.027.54.216.513.513a4.048,4.048,0,0,0,.027,1c.027.162.162.459,0,.594v1.134a1.194,1.194,0,0,1,.054.405,1.192,1.192,0,0,0-.054.459.289.289,0,0,1,.027.324.576.576,0,0,0-.027.324,2.8,2.8,0,0,0,.108.27c.081.135.135.243-.054.513a3.907,3.907,0,0,0-.054,1.134c.189.459-.162.756,0,1.134.162.567-.054.648,0,1.161.162.459-.108.918,0,1.134.243.378-.081.891,0,1.134.27.378-.189.729,0,1.161.162.378-.054.783,0,1.134.162.567-.054.945,0,1.134a5.305,5.305,0,0,1,0,1.134c0,.621,0,1.4-.027,1.917-.027.189-.108.243-.216.27-.081.027-.189.027-.243.081a1.343,1.343,0,0,0-.567.027.441.441,0,0,1-.189,0,.433.433,0,0,0-.324,0,.34.34,0,0,0-.351.351v.135c0,.243.081.378.324.378h.378a1.113,1.113,0,0,0,.324-.027,4.106,4.106,0,0,1,.756-.054.578.578,0,0,1,.378,0,.39.39,0,0,0,.189.054c.027,0,.054-.027.108-.027a9.254,9.254,0,0,1,1.08-.081,11.8,11.8,0,0,0,1.242.081h.4c.108,0,.3.027.459.027h.108a1.211,1.211,0,0,1,.3-.027c.162,0,.324.027.567.027.27,0,.378-.081.405-.351s0-.378-.243-.513c-.081-.081-.189,0-.351-.027-.189,0-.54.081-.7,0-.135-.081-.216-.135-.243-.27-.027-.162.027-.459.027-.945a.529.529,0,0,1-.054-.675c0-.324-.027-.594-.027-.864-.27-.324.081-.81-.027-.972a.545.545,0,0,1-.054-.486.32.32,0,0,0,.027-.216.355.355,0,0,1-.027-.324.444.444,0,0,0,.027-.27c-.081-.378.108-.648.027-1.08a1.773,1.773,0,0,1,0-.756c.135-.54-.054-1.026.054-1.485a3.435,3.435,0,0,1,.189-.567c.27-.324.324-.513.7-.729a6.844,6.844,0,0,1,.972-.54,4.624,4.624,0,0,1,1.215-.216,1.708,1.708,0,0,1,1.377.621,2.923,2.923,0,0,1,.27,1.62,16.89,16.89,0,0,0,0,2.025c-.054.675.027,1.539,0,2.052a6.92,6.92,0,0,0,0,1.3c.054.459-.108,1.053,0,1.269a2.328,2.328,0,0,0,0,.621c.027.324.081.459-.162.7-.081.081-.27.351-.54.243-.216-.081-.351,0-.54-.027a.356.356,0,0,0-.405.351c0,.3.027.486.324.486h.081a7.016,7.016,0,0,1,.756,0h.567a.594.594,0,0,1,.216.027c.486-.027.972-.027,1.485-.054.594,0,.945.027,1.269.027h.243a4.087,4.087,0,0,1,.783.027h.675a.459.459,0,0,0,.189-.027c.3-.027.378-.162.378-.324A.617.617,0,0,0-96.8-1.107Zm12.447-2.43c-.378.459-.459.729-.621.891-.108.459-.648.486-.837.864-.486.432-.729.27-1.053.567a3.043,3.043,0,0,1-1.35.189,2.7,2.7,0,0,1-1.161-.135,1.937,1.937,0,0,1-.891-.378,1.566,1.566,0,0,1-.7-.594c-.27-.3-.189-.432-.513-.783-.243-.27-.189-.756-.324-.891-.162-.135-.135-.27-.135-.486a1.324,1.324,0,0,0-.081-.513,1.873,1.873,0,0,1-.108-1.053.9.9,0,0,0-.027-.621,1.14,1.14,0,0,1,0-.432l.027-.108c.189-.243.324-.432.594-.432h1.917c.513-.135.648.081,1.269,0a3.977,3.977,0,0,1,1.269,0c.459.081.945-.054,1.674.027a6.354,6.354,0,0,0,1.566-.081c.216.054.459-.216.459-.54a.459.459,0,0,0-.027-.189,2.082,2.082,0,0,0-.432-1.485.928.928,0,0,1-.216-.378,1.094,1.094,0,0,0-.216-.351c-.216-.081-.189-.378-.513-.675a2.817,2.817,0,0,0-.945-.864,6.2,6.2,0,0,0-1.08-.621,2.051,2.051,0,0,0-1.188-.378c-.351.081-.891-.162-1.161-.162-.054,0-.081.027-.108.027-.486.162-.756-.054-1.35.135a2.966,2.966,0,0,0-1.242.378c-.3.216-.918.324-1.134.621-.243.27-.81.351-1,.783-.189.4-.594.486-.783.972-.189.459-.513.567-.621,1.134a.488.488,0,0,1-.081.513.564.564,0,0,0-.216.351,13.7,13.7,0,0,0-.243,1.512.526.526,0,0,0,.027.216,1.427,1.427,0,0,0-.027.324c0,.378.135.594.162,1.053a1.826,1.826,0,0,0,.378,1.269c.162.567.459.594.594,1.08a2.182,2.182,0,0,0,.81.945.679.679,0,0,0,.324.189c.189.054.324.081.378.432a6.932,6.932,0,0,0,1.4.729,3.867,3.867,0,0,0,1.242.351,1.584,1.584,0,0,0,.621.108h.513A.748.748,0,0,1-89.262,0a4.99,4.99,0,0,1,.648-.027h.27a2.688,2.688,0,0,0,.972-.189,3.218,3.218,0,0,0,1.485-.621l.54-.351c.081-.243.4-.405.675-.7.162-.216.378-.459.54-.7.108-.243.351-.324.432-.648.081-.216-.189-.459-.405-.459A.226.226,0,0,0-84.348-3.537Zm-7.425-6.345c.081-.324.054-.783.324-1.053a5.811,5.811,0,0,1,.864-1.08,2.166,2.166,0,0,1,1.377-.405,1.981,1.981,0,0,1,1.323.432c.351.216.432.675.7,1.08.3.378.081.81.3,1.107a6.015,6.015,0,0,1,.054,1.188c.027.4-.081.54-.648.513-.756-.027-1.377.027-1.971,0-.432.027-1.35,0-1.863,0-.567,0-.783-.216-.7-.837a.682.682,0,0,0,.081-.486A.6.6,0,0,1-91.773-9.882ZM-56.322,6.156a2.977,2.977,0,0,0-.837-.054,1.006,1.006,0,0,1-.783-.756,13.126,13.126,0,0,0-.081-1.809.43.43,0,0,1-.054-.594.378.378,0,0,0,0-.3c0-.216-.189-.864,0-1.161A6.853,6.853,0,0,1-58.1.675c0-.189.054-.729.027-.864a.267.267,0,0,1,0-.4.2.2,0,0,0,.027-.243c-.243-.4.081-.675-.027-1.026-.081-.351.135-.891-.027-1.431-.108-.378.135-.567,0-.945a2.8,2.8,0,0,0-.027-.54.838.838,0,0,1,.054-.486,8.668,8.668,0,0,0,0-1.674c.027-.405-.054-.945,0-1.7a12.648,12.648,0,0,1,0-1.431c-.243-.3-.135-.459-.054-.675a.784.784,0,0,0,.081-.378c.027-.27.027-.756.378-.783.324-.027.621.054,1.134,0,.162.027.243-.162.243-.351s-.081-.405-.243-.432c-.486-.108-.54.108-1.107-.027-.378-.081-.918-.027-1.215-.108-.621-.108-.972,0-1.215-.135-.324-.135-.648-.108-.918-.243a.342.342,0,0,0-.162-.027.469.469,0,0,0-.459.351c-.162.189.027.648.027,1.026.081.459-.108.567-.378.324a3.687,3.687,0,0,1-.621-.513c-.27,0-.3-.054-.351-.162a.586.586,0,0,0-.189-.162,3.377,3.377,0,0,1-.837-.4,5.462,5.462,0,0,0-1.755-.324c-.513-.135-.837.108-1.242.162a5.5,5.5,0,0,0-1.188.54c-.189.081-.243.135-.27.216-.081.108-.054.243-.54.378a8.4,8.4,0,0,0-.783.891c-.081.3-.621.729-.594,1.026l-.459,1.134a3.322,3.322,0,0,0-.27,1.161,1.241,1.241,0,0,0,.027.567c.054.243.135.4-.108.621,0,.081-.027.162-.027.243a6.574,6.574,0,0,0,.108.945,4.054,4.054,0,0,0,.27,1.161c.189.4.162.891.432,1.08.108.189.54.756.621.972.135.3.54.4.783.81a.329.329,0,0,0,.324.162c.189.054.4.054.513.405a8.51,8.51,0,0,0,1.188.459c.54-.054.7.324,1.242.162A1.6,1.6,0,0,0-64.5-.135c.513.054.594-.351,1.026-.378a2.625,2.625,0,0,0,1.188-.729.661.661,0,0,1,.432-.216c.162,0,.243.108.189.378.027.27-.108.729.081,1.053A.355.355,0,0,1-61.56.3a.456.456,0,0,0-.027.459c.135.162.108.243.081.324-.054.081-.108.135-.108.216,0,.351-.027.54-.027.837.108.459-.135.783,0,1.3a17.19,17.19,0,0,1-.027,2.052c.027.486-.216.621-.432.648a7.192,7.192,0,0,1-1.107.027c-.189,0-.351.243-.351.459a.334.334,0,0,0,.378.351h.864a4.938,4.938,0,0,0,.891-.054,3.276,3.276,0,0,0,.486.027c.324,0,.648-.027,1.107-.027.054,0,.108.027.162.027a.456.456,0,0,0,.243-.054.282.282,0,0,1,.3-.027c.27.081.4-.108.81.081.7,0,1.188.027,2,.027.216,0,.3-.189.3-.4C-56.025,6.372-56.133,6.156-56.322,6.156ZM-61.587-4.482a3.619,3.619,0,0,1,0,1.08,3.249,3.249,0,0,1-.567.918,2.538,2.538,0,0,0-.675.567c-.189.189-.351.135-.756.378a.54.54,0,0,1-.513.108.619.619,0,0,0-.378.027,2.19,2.19,0,0,1-1.431-.513c-.567-.432-.621-.918-.864-1.3a4.209,4.209,0,0,1-.4-1.593,2.949,2.949,0,0,1-.108-1.512c.081-.621-.162-.972.108-1.62a5.557,5.557,0,0,1,.4-1.728,3.686,3.686,0,0,1,.891-1.35,3.241,3.241,0,0,1,1.539-.54,1.7,1.7,0,0,1,1.134.27c.378.216.621.567.864.7a1.942,1.942,0,0,1,.567.972,1.7,1.7,0,0,1,.189,1.161c-.081.432.027,1.188-.027,1.755a1.315,1.315,0,0,0,.054.405.413.413,0,0,1,.027.432C-61.668-5.508-61.452-5.022-61.587-4.482Zm20.628,3.159a2.38,2.38,0,0,0-.864.027c-.324.108-.891-.648-.7-1.026.027-.621-.027-1.35,0-1.809.162-.648-.081-.81,0-1.485-.135-.513.162-.837,0-1.485a8.954,8.954,0,0,1,0-1.485c.3-.675-.189-1.107,0-1.485l.027-.891c.135-.513-.108-.945.054-1.269a.7.7,0,0,0-.513-1.08.2.2,0,0,0-.108.054,6.829,6.829,0,0,0-1.053.243c-.405.27-.7-.027-1.215.189a7.638,7.638,0,0,0-1.215.054,7.17,7.17,0,0,0-1.08,0,.525.525,0,0,0-.3.486c0,.162.108.351.432.432a2.964,2.964,0,0,0,.918.054c.459,0,.729.216.567.7a10.287,10.287,0,0,1,0,1.3,5.306,5.306,0,0,0,0,1.134c.054.4-.108.918,0,1.134-.081.216.162.837,0,1.107-.108.378.054.594,0,1.134-.162.486.135.945,0,1.107-.054.3.081.729,0,1.134a2.257,2.257,0,0,0-.621.621l-.27.243a1.424,1.424,0,0,0-.378.27,1.879,1.879,0,0,1-1.62.486c-.54.162-.81-.243-1.026-.243a1.553,1.553,0,0,1-.54-.648.871.871,0,0,1-.243-.891,4.673,4.673,0,0,1-.054-1.053,4.3,4.3,0,0,0,0-1.674c-.081-.648.162-1,0-1.647a11.136,11.136,0,0,0,0-1.35,3.739,3.739,0,0,0,.027-1.35A3.048,3.048,0,0,0-50.6-11.34c.081-.594.054-.918.135-1.458a.413.413,0,0,0-.378-.513.243.243,0,0,0-.135.027c-.351.081-.891.243-1.161.3-.459-.027-.945.189-1.161.162a5.834,5.834,0,0,0-1.161-.054,1.851,1.851,0,0,0-1.107.108.507.507,0,0,0-.216.459.433.433,0,0,0,.243.432,1.476,1.476,0,0,0,.864.108c.324-.027.513.324.459,1.08a18.156,18.156,0,0,0-.027,2.079,12.308,12.308,0,0,0-.027,1.728c-.054.567,0,1.3-.027,1.7.135.594-.108.837.027,1.458-.108.675.081.81.351,1.4a8.294,8.294,0,0,0,.648.945c.189.3.621.405.891.7a2.079,2.079,0,0,0,1.08.432,3.588,3.588,0,0,1,1.134.162c.54,0,.891-.189,1.242-.162.486-.054.594-.3,1.08-.432a2.314,2.314,0,0,0,1.188-.675c.351-.324.621-.189.7.135,0,.3-.054.486-.054.837,0,.216.189.378.486.459.054,0,.081.027.135.027.324,0,.648-.324.972-.243.27-.054.783-.108,1.08-.189a9.928,9.928,0,0,1,1.269,0c.4-.054.837.108,1.08-.027a.48.48,0,0,0,.4-.459A.542.542,0,0,0-40.959-1.323Zm3.51-15.5c.351.3.594.513.945.513a2.478,2.478,0,0,0,1.782-.405,1.487,1.487,0,0,0,.648-1.4,2.317,2.317,0,0,0-.486-1.215.49.49,0,0,1-.405-.3.425.425,0,0,0-.189-.189,1.47,1.47,0,0,0-.675-.243.342.342,0,0,0-.162.027,2.1,2.1,0,0,0-1.053.351c-.081.054-.081.216-.378.27-.324.486-.594.648-.405,1.269a1.622,1.622,0,0,0,.081.783.458.458,0,0,0,.162.216A.455.455,0,0,1-37.449-16.821Zm4.725,15.633a2.038,2.038,0,0,0-.945-.054.483.483,0,0,1-.621-.513c0-.675-.054-1.107,0-1.674a.787.787,0,0,1-.162-.4c0-.162.108-.27.135-.486a4.35,4.35,0,0,1,.027-1.323,6.983,6.983,0,0,1-.027-1.107c-.027-.4-.3-.621.027-1.134.054-.324-.216-.459-.054-.918.027-.324-.243-.648.027-.945.027-.54,0-1.3.054-1.647a5.394,5.394,0,0,1,.054-.945,1.218,1.218,0,0,0,0-.7c-.189-.324-.513-.243-.729-.162-.54.3-.729.162-1.026.243a2.974,2.974,0,0,1-1.053.108,9.5,9.5,0,0,1-1.215.081c-.378.027-.648.027-1.08.027-.189-.027-.324.216-.324.432a.368.368,0,0,0,.4.4c.27.054.567-.027.945.027.216.027.3.243.378.513.054.3.081,1.674.081,2.025v1.35c-.162.378.108,1.269,0,1.647-.189.621.216,1.053.027,1.593-.189.351.135.7-.027,1.3a6.635,6.635,0,0,0-.108,1.62c.054.351-.054.567-.486.594h-1.026c-.216-.054-.432.216-.432.459,0,.189.135.4.486.4h.4c.54,0,.837-.027,1.3-.054.567-.027,1.026,0,1.539-.027a13.467,13.467,0,0,0,1.809,0,1.962,1.962,0,0,0,.675.108c.27,0,.54-.027.864-.054h.054c.135,0,.216-.189.216-.378V-.864C-32.535-1.026-32.589-1.188-32.724-1.188Zm12.96-2.16A13.949,13.949,0,0,1-19.6-5.157a.29.29,0,0,0-.324-.3.487.487,0,0,0-.432.243,1.012,1.012,0,0,0-.135.459,1.589,1.589,0,0,1-.054.459c-.108.351-.081.7-.3.972.027.594-.54.621-.648,1.08a1.757,1.757,0,0,1-1.188.756c-.621.054-1.107.108-1.836.108a8.126,8.126,0,0,1-1.4,0c-.594.027-.918-.216-.756-.459.189-.27.216-.756.405-.783.189-.081.189-.405.459-.7A3.323,3.323,0,0,0-25.353-4a.813.813,0,0,0,.108-.378c.027-.243.054-.3.351-.324.189-.27.189-.459.432-.7.108-.189.135-.27.189-.351A1.808,1.808,0,0,1-24-6.075c.3-.054.243-.54.459-.7a3.925,3.925,0,0,0,.459-.7c.189-.3.162-.486.459-.675.162-.054.162-.216.162-.351a.3.3,0,0,1,.135-.27.559.559,0,0,0,.27-.378c.027-.108.108-.216.324-.351.189-.162.162-.432.459-.729.324-.324.432-.486.459-.7-.054-.162.378-.567.432-.675a.524.524,0,0,0,.243-.27,1.763,1.763,0,0,1,.216-.189c.162-.216.081-.648-.054-.7a1.19,1.19,0,0,0-.378-.081c-.081,0-.162.027-.243.027a1.665,1.665,0,0,1-.648.054,2.484,2.484,0,0,0-1.053.081c-.594.108-.81-.135-1.188-.054-.675.108-1.4-.054-2.052,0-.27.216-.513-.081-.945,0a3.494,3.494,0,0,1-1.188,0,4.087,4.087,0,0,0-.81-.054h-1a.685.685,0,0,0-.432.108c-.081.054-.108.189-.081.351.054.54-.189.837-.027,1.161.135.243-.189.648-.081,1a.3.3,0,0,1,.054.378.48.48,0,0,0-.108.27,1.37,1.37,0,0,1-.054.243.661.661,0,0,0-.027.405.289.289,0,0,1,0,.216.49.49,0,0,0,.054.459c.081.162.7.3.783-.027.054-.216-.027-.621.081-.81a.447.447,0,0,0,0-.324.244.244,0,0,1,.108-.3l.081-.675c.054-.486.459-.513.621-.783.135-.243.675-.27.891-.432a1.992,1.992,0,0,1,1.026-.216,1.762,1.762,0,0,1,.972-.054.86.86,0,0,1,.81,0c.351-.054.567-.081.675,0,.081.054.108.135.081.3-.054.162-.135.54-.459.675-.27.378-.432.459-.459.648a7.661,7.661,0,0,1-.837,1.161c-.378.3-.567.945-.81,1.161A4.666,4.666,0,0,1-27.405-6.7a8.888,8.888,0,0,0-.81,1.242,5.806,5.806,0,0,0-.567.945c.081.378-.162.54-.567.783a.4.4,0,0,0-.081.27.238.238,0,0,1-.243.216c-.135.162-.3.621-.432.675-.3.324-.243.594-.432.675-.189.189-.162.432-.54.648a.353.353,0,0,0-.189.324,1.1,1.1,0,0,0,.135.459.516.516,0,0,0,.405.135,1.013,1.013,0,0,0,.27-.027,4.872,4.872,0,0,1,1.269-.027,5.139,5.139,0,0,1,1.593-.027c.351.081.81-.081,1.566,0a14.621,14.621,0,0,0,1.539,0,5.256,5.256,0,0,1,1.944.027c.729.054,1.134-.054,1.944.054.054.054.108.054.216.054.216,0,.54-.162.432-.432a9.1,9.1,0,0,0,.027-1.188C-20.034-2.43-19.656-2.754-19.764-3.348ZM6.8-7.83c-.135-.378-.081-.864-.27-1.134a1.6,1.6,0,0,0-.432-1.08c-.351-.486-.243-.783-.594-.972-.189-.486-.621-.432-.783-.837-.324-.27-.54-.324-.918-.648a1.916,1.916,0,0,0-1.053-.432A6.252,6.252,0,0,1,1.539-13.1,2.5,2.5,0,0,0,.4-12.96c-.3.162-.648.189-1,.378-.216.243-.4.135-.7.4-.4.432-1.107-.081-1.053-.621.162-.189-.027-.513,0-.945-.027-.135.108-.216-.054-.513a.722.722,0,0,1,.054-.7c.135-.135.054-.27.027-.432a.521.521,0,0,1,0-.351c.135-.378-.054-.594,0-.918a1.071,1.071,0,0,0-.108-.54.636.636,0,0,1,.135-.567,16.157,16.157,0,0,1,.054-2.214c-.027-.189.081-.486-.027-.729a.439.439,0,0,0-.4-.3.245.245,0,0,0-.189.081c-.54.162-.54.27-1.053.432-.378.081-.81.162-1.08.189-.513.162-.81,0-1.323.135a7.031,7.031,0,0,1-1.053.027.367.367,0,0,0-.378.378c0,.243.189.486.405.459a9.876,9.876,0,0,1,1.107.054.389.389,0,0,1,.27.162,2.066,2.066,0,0,1,.081.675c-.081.567.162.972,0,1.3v1.134c.135.351-.189.81,0,1.134.081.27.3.756.027.891-.027.432-.027,1-.027,1.4-.081.567-.162.783,0,1.161a1.809,1.809,0,0,1,0,1.134c.162.486-.108.945,0,1.161.216.351-.081.891,0,1.134.108.27-.189.729,0,1.161.162.378-.054.783,0,1.134a3.9,3.9,0,0,1,0,1.161.471.471,0,0,1,.135.54,1.471,1.471,0,0,0-.135.594c.027.432-.108,1-.054,1.35,0,.351-.081.756-.513.783-.27.054-.432-.027-.864.054a.366.366,0,0,0-.432.4c0,.189.108.378.243.378.216.081.432-.027.729-.027.837.162,1.215-.054,1.971.162.378,0,.675.216,1,.135.3.027.378.135.891.189h.108a.428.428,0,0,0,.432-.27,1.057,1.057,0,0,0-.027-.7c.027-.216.135-.324.3-.324a.785.785,0,0,1,.459.216,4.073,4.073,0,0,0,.837.54,2.722,2.722,0,0,0,.945.378A10.589,10.589,0,0,0,1.269.027H1.62a2.135,2.135,0,0,0,.891-.135A6.656,6.656,0,0,1,3.645-.567c.513-.135.486-.54.945-.675.405-.189.432-.594.81-.864a3.839,3.839,0,0,0,.648-1.026c.054-.378.513-.594.459-1.134a7.45,7.45,0,0,0,.3-1.188,1.969,1.969,0,0,1,.108-1.215.832.832,0,0,0,.027-.27A4.408,4.408,0,0,0,6.8-7.83ZM2.916-4.86c-.162.729-.243,1.026-.4,1.674-.27.459-.405,1.053-.891,1.323-.54.27-.972.621-1.539.54a2.937,2.937,0,0,1-1.4-.378,6.443,6.443,0,0,1-.945-1.026A1.942,1.942,0,0,1-2.3-3.78c.081-.27-.189-.459-.054-.7.054-.243-.108-.378.027-.648a.556.556,0,0,0-.027-.513.578.578,0,0,1,0-.378c.027-.162-.108-.405.027-.729.189-.432-.108-.837-.027-1.215.108-.54-.081-1.026.054-1.566.054-.27-.135-.675.189-1.026.162-.054.486-.621.621-.648a1.368,1.368,0,0,1,.864-.405c.324-.081.432-.081.864-.162a2.058,2.058,0,0,1,1.512.567c.027.3.621.459.648.864.027.432.324.486.3.756-.027.459.216.756.243,1.485-.054.7.135,1,.081,1.593C3.1-6.156,2.808-5.373,2.916-4.86Zm18.495-7.884a1.1,1.1,0,0,0-.432-.108c-.189,0-.3.108-.4.027-.189,0-.648,0-.945-.027-.189.189-.648.054-.945.027h-.135a2.8,2.8,0,0,1-.945-.027c-.054,0-.081-.027-.108-.027-.243,0-.351.243-.351.459,0,.243.108.513.351.54a4.294,4.294,0,0,0,.837,0,.535.535,0,0,1,.54.4c.054.216-.3.81-.351,1.215a6.818,6.818,0,0,1-.486,1.188c-.216.621-.351.756-.567,1.323-.3.459-.3.972-.567,1.377a5.452,5.452,0,0,1-.729,1.539c-.108.324-.243.432-.378.432-.189,0-.351-.243-.432-.486a.8.8,0,0,0-.189-.432.362.362,0,0,1-.108-.405,1.016,1.016,0,0,0-.189-.486.762.762,0,0,1-.189-.54,5.635,5.635,0,0,1-.351-1.026c-.081-.324-.486-.432-.378-1.053.027-.162-.108-.27-.216-.432a.785.785,0,0,1-.135-.594c.027-.3-.243-.459-.351-.918,0-.243-.135-.513-.135-.756,0-.162.081-.27.324-.351a3.456,3.456,0,0,1,.918,0,.374.374,0,0,0,.378-.405.459.459,0,0,0-.3-.459,7.437,7.437,0,0,0-1.566,0c-.621.081-1.107-.108-1.809,0a13.826,13.826,0,0,1-1.836,0c-.378.027-.756-.081-1.107-.081a.8.8,0,0,0-.351.054.458.458,0,0,0-.243.432.4.4,0,0,0,.432.432,2.786,2.786,0,0,1,.972.081c.216.027.3.054.378.27.135.567.648.945.567,1.3-.081.162.243.432.324.837,0,.405.27.405.324.837a2.359,2.359,0,0,0,.432,1.134c.108.54.432.648.4,1.161A2.844,2.844,0,0,1,11.8-5.157c.27.459.162.729.432,1.161a4.644,4.644,0,0,1,.432,1.161c.081.378.351.675.432,1.161A2.4,2.4,0,0,1,13.527-.54c-.054.27.27.54.27,1.026.081.378-.135.459-.108.783a1.233,1.233,0,0,1-.135.378,2.636,2.636,0,0,0-.216.621,13.242,13.242,0,0,0-.567,1.377,5.525,5.525,0,0,0-.7,1.242.907.907,0,0,1-.783.378.772.772,0,0,1-.7-.648c-.108-.432-.7-.675-1.161-.7a1.376,1.376,0,0,0-1.107.459c-.324.189-.108.783-.27,1.08-.108.621.108.837.567,1.269.324.432.756.324,1.35.486h.162a3.445,3.445,0,0,0,1.107-.324A1.66,1.66,0,0,0,12.2,6.1a2.942,2.942,0,0,0,.729-1.08,8.248,8.248,0,0,0,.594-1.35.658.658,0,0,1,.216-.459A.281.281,0,0,0,13.851,3c.027-.3.351-.729.351-.864a.692.692,0,0,1,.216-.567.8.8,0,0,0,.135-.4.549.549,0,0,1,.189-.486.949.949,0,0,0,.189-.243A1.512,1.512,0,0,0,15.12.027c.054-.135.054-.216.162-.459,0-.324.4-.459.378-.864a.546.546,0,0,1,.135-.54.971.971,0,0,0,.216-.324.865.865,0,0,1,.378-.864,6.468,6.468,0,0,1,.351-.864c.27-.324.054-.54.378-.864.189-.405.162-.432.351-.864a2.244,2.244,0,0,1,.351-.864,2.439,2.439,0,0,0,.135-.432.79.79,0,0,1,.243-.432c.162-.081.135-.216.162-.4a.606.606,0,0,1,.189-.459c.189-.135.189-.27.216-.459a1.76,1.76,0,0,1,.135-.4c0-.243.162-.432.378-.837.108-.108.027-.621.324-.783,0-.216.135-.351.378-.756a1.011,1.011,0,0,0,.189-.324c.054-.108.108-.189.432-.135a2.327,2.327,0,0,0,.783.027c.162-.027.243-.216.243-.405C21.627-12.5,21.546-12.717,21.411-12.744Zm22.626,1c-.216-.432-.216-.594-.513-.729a2.189,2.189,0,0,0-.756-.459,2.733,2.733,0,0,0-1.35-.135.4.4,0,0,0-.216.081c-.081.054-.108.108-.4.054a4.47,4.47,0,0,0-.864.513c-.189.081-.7.54-.729.756a3.148,3.148,0,0,0-.3.432c-.081.135-.162.162-.27.135-.081-.027-.135-.054-.162-.135a2.337,2.337,0,0,1,0-.783c-.054-.351.108-.621-.027-.891a.54.54,0,0,0-.459-.351.4.4,0,0,0-.243.054,1.205,1.205,0,0,1-.918.189,10.364,10.364,0,0,1-1.188.162,2.8,2.8,0,0,1-1.08.081,5.832,5.832,0,0,1-.972,0c-.378,0-.513.189-.513.4,0,.243.162.513.378.486.324.027.675-.054.891-.027.108.027.3-.027.432.054a.609.609,0,0,1,.135.324c.162.54-.027.648.054,1.026a6.2,6.2,0,0,1,.027,1.863.653.653,0,0,0,.081.378.353.353,0,0,1-.081.432c-.027.675,0,1.377-.027,1.971a2.19,2.19,0,0,0,.081.3c.108.162.162.27-.054.594a12.628,12.628,0,0,0,0,1.431c-.027.486-.027,1.08-.054,1.458-.081.513-.135.756-.567.81-.459.027-.891-.027-1.08.027-.216,0-.324.189-.324.4,0,.243.135.486.4.432.7,0,.891,0,1.728.027.378,0,.783.027,1.161.027.4,0,.783-.027,1.107-.027.108-.162.27-.135.486-.081a3.027,3.027,0,0,0,.567.108c.4.027.729.027,1.053.027a3.441,3.441,0,0,0,.756-.054h.054c.189,0,.27-.189.27-.4,0-.243-.135-.54-.4-.459a1.481,1.481,0,0,1-.351,0,1.018,1.018,0,0,0-.513,0,.593.593,0,0,1-.729-.567c.054-.432-.135-1.269-.054-1.863-.027-.243-.3-.567,0-.972a12.927,12.927,0,0,0,0-1.458c-.081-.594.135-.972,0-1.62a3.585,3.585,0,0,1,.216-1.62c.108-.27.027-.648.3-.783.189-.189.162-.324.27-.486a.7.7,0,0,1,.189-.27c.135-.081.216-.432.648-.567a.717.717,0,0,1,.7-.243c.27-.027.513.135.486.3a1.138,1.138,0,0,1,.027.729,1.11,1.11,0,0,0,.351,1,1.114,1.114,0,0,0,1.215.432c.324.054.621-.054,1-.513a1.241,1.241,0,0,0,.378-.972v-.162A2.153,2.153,0,0,0,44.037-11.745ZM56.7-3.537c-.378.459-.459.729-.621.891-.108.459-.648.486-.837.864-.486.432-.729.27-1.053.567a3.043,3.043,0,0,1-1.35.189,2.7,2.7,0,0,1-1.161-.135,1.937,1.937,0,0,1-.891-.378,1.566,1.566,0,0,1-.7-.594c-.27-.3-.189-.432-.513-.783-.243-.27-.189-.756-.324-.891-.162-.135-.135-.27-.135-.486a1.324,1.324,0,0,0-.081-.513,1.873,1.873,0,0,1-.108-1.053A.9.9,0,0,0,48.9-6.48a1.14,1.14,0,0,1,0-.432l.027-.108c.189-.243.324-.432.594-.432h1.917c.513-.135.648.081,1.269,0a3.977,3.977,0,0,1,1.269,0c.459.081.945-.054,1.674.027a6.354,6.354,0,0,0,1.566-.081c.216.054.459-.216.459-.54a.459.459,0,0,0-.027-.189,2.082,2.082,0,0,0-.432-1.485A.928.928,0,0,1,57-10.1a1.094,1.094,0,0,0-.216-.351c-.216-.081-.189-.378-.513-.675a2.817,2.817,0,0,0-.945-.864,6.2,6.2,0,0,0-1.08-.621,2.051,2.051,0,0,0-1.188-.378c-.351.081-.891-.162-1.161-.162-.054,0-.081.027-.108.027-.486.162-.756-.054-1.35.135a2.966,2.966,0,0,0-1.242.378c-.3.216-.918.324-1.134.621-.243.27-.81.351-1,.783-.189.4-.594.486-.783.972-.189.459-.513.567-.621,1.134a.488.488,0,0,1-.081.513.564.564,0,0,0-.216.351,13.7,13.7,0,0,0-.243,1.512.526.526,0,0,0,.027.216,1.427,1.427,0,0,0-.027.324c0,.378.135.594.162,1.053a1.826,1.826,0,0,0,.378,1.269c.162.567.459.594.594,1.08a2.182,2.182,0,0,0,.81.945.679.679,0,0,0,.324.189c.189.054.324.081.378.432a6.932,6.932,0,0,0,1.4.729,3.867,3.867,0,0,0,1.242.351,1.584,1.584,0,0,0,.621.108h.513A.748.748,0,0,1,51.786,0a4.99,4.99,0,0,1,.648-.027h.27a2.688,2.688,0,0,0,.972-.189,3.218,3.218,0,0,0,1.485-.621l.54-.351c.081-.243.4-.405.675-.7.162-.216.378-.459.54-.7.108-.243.351-.324.432-.648.081-.216-.189-.459-.4-.459A.226.226,0,0,0,56.7-3.537ZM49.275-9.882c.081-.324.054-.783.324-1.053a5.811,5.811,0,0,1,.864-1.08,2.166,2.166,0,0,1,1.377-.405,1.981,1.981,0,0,1,1.323.432c.351.216.432.675.7,1.08.3.378.081.81.3,1.107a6.015,6.015,0,0,1,.054,1.188c.027.4-.081.54-.648.513-.756-.027-1.377.027-1.971,0-.432.027-1.35,0-1.863,0-.567,0-.783-.216-.7-.837a.682.682,0,0,0,.081-.486A.6.6,0,0,1,49.275-9.882ZM70.875-2.4c-.081.243-.216.27-.324.54a.984.984,0,0,1-.324.3.641.641,0,0,1-.4.027c-.54-.027-.729-.486-.756-.891a16.121,16.121,0,0,1,0-1.62.913.913,0,0,1-.027-.594,2.279,2.279,0,0,0,.054-.513c-.027-.378-.27-.513-.054-.945.108-.189-.108-.405,0-.783.081-.27-.135-.54,0-.945.081-.27-.027-.675.027-1.08a11.449,11.449,0,0,0-.162-1.782c-.216-.108-.189-.216-.189-.378a.7.7,0,0,0-.189-.486c-.216-.3-.405-.648-.7-.756-.486-.162-.594-.513-.918-.486-.432.027-.567-.3-.945-.216-.4-.054-.729-.081-.972-.135a4.455,4.455,0,0,0-1.566.189,6.562,6.562,0,0,0-1.755.513c-.189.027-.243.108-.27.189-.054.081-.081.162-.351.162-.135,0-.243.216-.594.513a1.754,1.754,0,0,0-.54,1.431,1.533,1.533,0,0,0,.4,1.08,1.576,1.576,0,0,0,1.053.459c.432-.027.7.027.918-.4a1.631,1.631,0,0,0,.378-.945,1.015,1.015,0,0,0-.378-.864.558.558,0,0,1-.216-.675c-.081-.162.378-.594.7-.648a9.89,9.89,0,0,1,1.134-.189c.621.081,1.269.162,1.431.567.486.432.4.972.486,1.458a9.441,9.441,0,0,1,0,1.242,2.41,2.41,0,0,1,0,1.08c.054.189,0,.27-.108.459a.6.6,0,0,1-.594.3c-.513.054-.621.27-1.107.189a5.525,5.525,0,0,0-1.269.243,3.38,3.38,0,0,0-1.377.486c-.54.108-.567.459-1.107.7-.54.189-.675.648-1.026,1.188a2.986,2.986,0,0,0-.351,1.4,1.54,1.54,0,0,0,.027.351.512.512,0,0,0,.108.324c.081.162.216.243.135.567.216.4.351.783.756.918a3.478,3.478,0,0,0,1.08.594,5.138,5.138,0,0,0,1.242.189,5.642,5.642,0,0,0,1.539-.27c.054-.162.189-.189.324-.216A.428.428,0,0,0,64.422-.7c.216-.189.729-.27.864-.648a.529.529,0,0,1,.864.189,2.766,2.766,0,0,0,.675.621,3.728,3.728,0,0,0,1.593.4.788.788,0,0,0,.243.054c.324,0,.648-.27.81-.216a1.553,1.553,0,0,0,.837-.432c.27-.27.513-.27.7-.675a2.978,2.978,0,0,0,.513-.675.243.243,0,0,0,.027-.135.41.41,0,0,0-.4-.378A.242.242,0,0,0,70.875-2.4Zm-5.184-.351a4.3,4.3,0,0,1-.783.891,2.717,2.717,0,0,1-1.269.378,2.046,2.046,0,0,1-1.35-.621.852.852,0,0,1-.351-.756c0-.243-.216-.432-.135-.7.135-.351.027-.432.108-.648-.081-.324.216-.486.378-.837a1.773,1.773,0,0,1,.837-.756c.324-.324.567-.162.972-.432.243-.27.621-.135.81-.216.486-.135.972-.027.891.594a.511.511,0,0,0,.027.4.464.464,0,0,1,0,.459.4.4,0,0,0-.054.378.514.514,0,0,1,.027.459c-.027.3.135.378.027.7C65.745-3.186,65.853-2.97,65.691-2.754Zm21.3,1.62c-.486-.108-.729.054-1.107-.081-.189-.054-.378-.081-.459-.216a.56.56,0,0,1-.108-.405c.027-.486-.108-1.35-.027-1.89.135-.432-.189-.729,0-1.134.081-.729-.054-1.08,0-1.863a10.727,10.727,0,0,1,0-1.863,4.926,4.926,0,0,1,0-1.89,6.122,6.122,0,0,0,0-1.863c.162-.54-.108-1.08,0-1.863a10.468,10.468,0,0,1,.027-2.592c0-.54-.216-.729,0-1.35.108-.675-.027-.945.108-1.836.054-.405.108-.729-.108-.837-.135-.054-.243-.162-.4-.162a.386.386,0,0,0-.27.081,1.587,1.587,0,0,1-.945.432c-.351.054-.945.27-1.188.27a3.845,3.845,0,0,0-1.215.054,9.928,9.928,0,0,0-1.242.027.385.385,0,0,0-.3.4c0,.216.135.432.378.405a7.859,7.859,0,0,0,1.134-.027c.3,0,.486.108.513.54,0,.486,0,1.242.027,1.593.135.108.135.243.081.432a3.84,3.84,0,0,0-.081.675c.027.378-.054.756,0,1.107.162.567-.162.837,0,1.107.216.3-.081.594.027,1.026a.332.332,0,0,1-.027.351.292.292,0,0,0-.054.351c.081.432-.054.648-.27.648a.553.553,0,0,1-.4-.243,3.6,3.6,0,0,0-.837-.648,2.626,2.626,0,0,0-1.026-.513,1.863,1.863,0,0,0-1.269-.189c-.54-.162-.729.135-1.3.162a1.921,1.921,0,0,0-1.107.459c-.513.3-.513.621-.945.7a1.688,1.688,0,0,0-.783.891c-.054.162-.513.837-.594,1.053-.3.324-.162.864-.432,1.134a6.377,6.377,0,0,0-.27,1.215.719.719,0,0,0-.081.324,3.267,3.267,0,0,1,0,.891,1.616,1.616,0,0,0-.054.324c0,.324.189.486.135.864s.243.675.27,1.134a.783.783,0,0,0,.189.54.713.713,0,0,1,.27.513c.135.513.4.648.594.945a.689.689,0,0,0,.324.243.477.477,0,0,1,.324.432,2.483,2.483,0,0,0,1.053.729,3,3,0,0,0,1.08.378,2.851,2.851,0,0,0,1.215.135A3.943,3.943,0,0,0,79.65-.378c.216-.189.675-.216.891-.486.135-.27.4-.162.864-.621.135-.135.378-.027.4.3.081.108,0,.27.054.675-.054.324.324.594.594.594h.108c.378-.189.513-.108.783-.243A1.432,1.432,0,0,0,83.727-.3c.108-.054.189-.081.405.027.4-.108.756-.054,1.3-.162.243.135.594-.108,1,.027.351-.027.54,0,.621-.108a.406.406,0,0,0,.108-.3C87.156-.972,87.1-1.107,86.994-1.134ZM81.81-4.428c.108.459-.108.729,0,1.215a1.589,1.589,0,0,1-.432.729c-.162.351-.54.4-.567.567a3,3,0,0,1-1.566.513,2.088,2.088,0,0,1-1.539-.513,2.071,2.071,0,0,1-.891-1.3,6.336,6.336,0,0,1-.4-1.674A8.04,8.04,0,0,1,76.3-6.48a6.458,6.458,0,0,1,.108-1.566,3.224,3.224,0,0,1,.4-1.647c-.054-.162.189-.405.351-.675.054-.432.216-.648.54-.648.378-.135.972-.7,1.485-.54a4.119,4.119,0,0,1,1.188.324,2.14,2.14,0,0,1,.918.837c.378.486.243.594.432,1.134.216.216.162.27.108.432a.836.836,0,0,0-.027.4c-.081.513.108.972,0,1.566a.953.953,0,0,0,.108.459.567.567,0,0,1-.108.756C81.783-5.265,81.837-4.968,81.81-4.428Zm8.613-12.393c.351.3.594.513.945.513a2.478,2.478,0,0,0,1.782-.405,1.487,1.487,0,0,0,.648-1.4,2.317,2.317,0,0,0-.486-1.215.49.49,0,0,1-.4-.3.425.425,0,0,0-.189-.189,1.47,1.47,0,0,0-.675-.243.342.342,0,0,0-.162.027,2.1,2.1,0,0,0-1.053.351c-.081.054-.081.216-.378.27-.324.486-.594.648-.4,1.269a1.622,1.622,0,0,0,.081.783.458.458,0,0,0,.162.216A.455.455,0,0,1,90.423-16.821ZM95.148-1.188a2.038,2.038,0,0,0-.945-.054.483.483,0,0,1-.621-.513c0-.675-.054-1.107,0-1.674a.787.787,0,0,1-.162-.4c0-.162.108-.27.135-.486a4.35,4.35,0,0,1,.027-1.323,6.983,6.983,0,0,1-.027-1.107c-.027-.4-.3-.621.027-1.134.054-.324-.216-.459-.054-.918.027-.324-.243-.648.027-.945.027-.54,0-1.3.054-1.647a5.394,5.394,0,0,1,.054-.945,1.218,1.218,0,0,0,0-.7c-.189-.324-.513-.243-.729-.162-.54.3-.729.162-1.026.243a2.974,2.974,0,0,1-1.053.108,9.5,9.5,0,0,1-1.215.081c-.378.027-.648.027-1.08.027-.189-.027-.324.216-.324.432a.368.368,0,0,0,.405.4c.27.054.567-.027.945.027.216.027.3.243.378.513.054.3.081,1.674.081,2.025v1.35c-.162.378.108,1.269,0,1.647-.189.621.216,1.053.027,1.593-.189.351.135.7-.027,1.3a6.634,6.634,0,0,0-.108,1.62c.054.351-.054.567-.486.594H88.425c-.216-.054-.432.216-.432.459,0,.189.135.4.486.4h.4c.54,0,.837-.027,1.3-.054.567-.027,1.026,0,1.539-.027a13.467,13.467,0,0,0,1.809,0,1.962,1.962,0,0,0,.675.108c.27,0,.54-.027.864-.054h.054c.135,0,.216-.189.216-.378V-.864C95.337-1.026,95.283-1.188,95.148-1.188Zm16.5,0c-.189-.081-.27-.027-.486-.054a4.356,4.356,0,0,0-.594,0c-.378-.027-.459-.108-.486-.648-.027-.675-.027-1.917-.027-2.754a5.7,5.7,0,0,1,0-1.674,8.77,8.77,0,0,0,.027-2.052c-.216-.27-.135-.432-.108-.729A2.806,2.806,0,0,0,110-9.8a5.664,5.664,0,0,0-.162-.891,1.092,1.092,0,0,1-.189-.513c-.027-.135-.054-.243-.162-.3-.3-.216-.594-.648-.837-.864a.569.569,0,0,0-.3-.135.747.747,0,0,1-.486-.3c-.3-.27-.864-.081-1.107-.27-.3-.216-.729-.027-1.026-.027-.432.162-.864.027-1.053.108-.3.162-.837.378-1.08.54a4.106,4.106,0,0,0-1.242.81.409.409,0,0,1-.3.189c-.081,0-.162-.081-.189-.27-.054-.513.081-1,.027-1.215a.479.479,0,0,0-.459-.324.527.527,0,0,0-.189.027,3.876,3.876,0,0,1-.972.189,3.231,3.231,0,0,1-1.215.162c-.3.108-.513-.027-1,.081-.594.081-.891.027-1.188.081-.513.135-.351.891.081.81a3.13,3.13,0,0,1,.891.081c.3.081.432.4.459.918.027.378-.027,1,0,1.539a3.224,3.224,0,0,0,0,1.35,7.379,7.379,0,0,0,0,1.35,7.818,7.818,0,0,1,0,1.377.684.684,0,0,0,.081.54.585.585,0,0,1-.081.7c0,.7-.054,1.242,0,1.836a1.228,1.228,0,0,1-.135.756.451.451,0,0,1-.4.243,6.341,6.341,0,0,0-.7.027c-.216.054-.486-.081-.594.108a.462.462,0,0,0-.189.351.377.377,0,0,0,.351.351h.162c.216,0,.4-.027.594-.027.27,0,.54.027.837.027h.216a13.43,13.43,0,0,1,1.4-.054,8.82,8.82,0,0,1,1.7.054,5.2,5.2,0,0,1,1.3,0h.054c.351,0,.513-.216.513-.4a.472.472,0,0,0-.189-.378c-.108-.162-.351-.027-.486-.081-.135-.027-.351,0-.432-.081-.3-.081-.4-.243-.432-.783-.027-.567-.027-1.08-.027-1.485-.27-.351-.216-.513-.108-.7a1,1,0,0,0,.135-.3c.054-.54-.162-.621,0-1.107.135-.189-.054-.837,0-1.107-.135-.432.162-.918,0-1.134a1.91,1.91,0,0,1,0-1.107c.162-.216-.054-.567,0-1.107a1.787,1.787,0,0,1,.756-.891,4.017,4.017,0,0,1,.972-.459,3.61,3.61,0,0,1,1.026-.27c.3.162.891.108.972.27.054.216.4.162.486.513a5.311,5.311,0,0,1,.243,1.755,12.33,12.33,0,0,0,0,2,.965.965,0,0,1,.081.783.627.627,0,0,0,0,.54.655.655,0,0,1-.054.621c-.081.108,0,.216.054.324a.352.352,0,0,1-.027.324c-.135.216.108.513,0,.864a4.289,4.289,0,0,0-.054,1.026c.054.756.054,1.269-.216,1.458a1.654,1.654,0,0,1-.918.054c-.378.054-.486.756-.054.864.054,0,.108.027.162.027.162,0,.324-.054.513-.054.054,0,.108.027.162.027.135,0,.27.027.378.027.135,0,.27-.027.378-.027.162-.162.378-.027.486-.027.243,0,.459.054.675.054a1.252,1.252,0,0,0,.513-.108c.621-.027.783.054,1.485.081l.189.027c.27,0,.54-.081.783-.054h.81c.135,0,.243-.162.243-.351A.438.438,0,0,0,111.645-1.188ZM126.9-13.068c-.189-.405-.864-.324-1.107-.405a.835.835,0,0,0-.216-.054c-.243,0-.351.216-.675.27-.351.162-.378.216-.621.594a6.963,6.963,0,0,0-.432,1c-.162.324-.351.405-.783.027a7.974,7.974,0,0,0-1.539-.945,5.48,5.48,0,0,0-1.188-.378c-.351-.054-.783-.081-1.3-.108-.459-.081-.81.189-.972.054-.459.027-.837,0-1.053.189-.3.243-.729.27-.81.4-.486.135-.594.486-.837.486a3.228,3.228,0,0,0-.729.648,2.7,2.7,0,0,1-.567.756c0,.216-.432.567-.351.891.081.513-.162.567-.135,1.026.054.189-.081.864.162,1.026a1.723,1.723,0,0,0,.432.891c.081.27.567.891.864.918.378.324.3.756-.054.81-.324.162-.675.675-.945.81-.351.162-.216.594-.486.81-.243.3-.216.567-.216,1.107a2.368,2.368,0,0,0,.27,1.08,1.439,1.439,0,0,0,.594.756,4.016,4.016,0,0,0,.837.459c.378.081.513.189.513.3s-.135.243-.378.324a1.983,1.983,0,0,0-1.215.675,2.723,2.723,0,0,0-.891.864,1.85,1.85,0,0,0-.378,1,.459.459,0,0,0,.027.189,1.709,1.709,0,0,0,.189,1c.216.432.162.675.513.81a3.005,3.005,0,0,0,1,.81c.189-.108.3-.054.378.054a3.052,3.052,0,0,0,.3.3,8.025,8.025,0,0,0,1.053.351,6.394,6.394,0,0,1,1.053.243c.675.054,1.161.162,1.755.162h.189A1.661,1.661,0,0,1,119.5,7.1c.216,0,.4.027.621.027h.081a1.333,1.333,0,0,0,.4-.081c.378-.081,1-.189,1.458-.3.4.081.783-.3,1.4-.513.594-.054.918-.621,1.215-.783a4.588,4.588,0,0,0,1.053-1.242c.162-.378.108-.567.459-.837a6.6,6.6,0,0,0,.378-1.242c.216-.432.027-.7.162-1.134a2.716,2.716,0,0,0-.162-1.161c-.216-.4-.081-.648-.324-.864-.324-.27-.27-.513-.837-.81-.378-.189-.675-.432-.837-.486-.162-.3-.621-.27-.972-.243a3.342,3.342,0,0,0-1.053-.081,3.97,3.97,0,0,0-1.026.027.864.864,0,0,1-.567.027c-.243.081-.4-.135-.837.027a.759.759,0,0,1-.54.027.856.856,0,0,0-.459,0,7.27,7.27,0,0,1-1.323.027A4.711,4.711,0,0,1,116.37-2.7c-.432-.108-1.053-.351-.891-.945-.054-.324-.027-.54.378-.891.216-.054.432-.324.756-.351.27-.054.378-.081.594.054.486.162.621.054.918.243a4.453,4.453,0,0,0,1.134.135,5.056,5.056,0,0,0,1.674-.27,3.769,3.769,0,0,0,.918-.324,2.058,2.058,0,0,0,.918-.459.5.5,0,0,1,.351-.405.291.291,0,0,0,.216-.054c.324-.3.432-.594.648-.81a1.941,1.941,0,0,0,.432-.972c-.081-.216,0-.3.054-.459a.919.919,0,0,0,.027-.4c-.162-.243,0-.594-.135-1.377.027-.081,0-.108-.081-.216-.054-.054-.027-.135.027-.243a1.617,1.617,0,0,1,.216-1.026c.108-.27.189-.513.4-.621.189-.108.27-.027.351.135a1.513,1.513,0,0,0-.027.486.818.818,0,0,0,1.134.756c.243.162.7-.162.783-.459a.542.542,0,0,0,.189-.459v-.324a.671.671,0,0,0,.027-.216A.986.986,0,0,0,126.9-13.068Zm-5.67,5.616c-.135.567-.27.729-.351,1.134a1.14,1.14,0,0,1-.7.864c-.162.162-.4.27-1.026.3a2.514,2.514,0,0,1-1.242-.3,2.757,2.757,0,0,1-.729-.837,1.212,1.212,0,0,1-.4-1.134c.081-.513-.3-.7-.108-1.161a9.655,9.655,0,0,1,.108-1.215c-.027-.567.351-.837.378-1.242.324-.4.3-.81.729-.945a1.35,1.35,0,0,1,1.161-.378,1.714,1.714,0,0,1,1.161.378,3.851,3.851,0,0,1,.7.945c.243.513.162.918.324,1.215.054.567-.027,1,.108,1.215C121.365-8.289,121.149-7.965,121.23-7.452ZM115.8,1.512c.378-.378.621-.837,1.161-1.107l.27-.027c.108.054.189-.027.324-.081a.553.553,0,0,1,.432.081.878.878,0,0,0,.4-.027.579.579,0,0,1,.405.054,1.66,1.66,0,0,1,.3-.081.156.156,0,0,1,.216.081.537.537,0,0,0,.378-.027.561.561,0,0,1,.216,0,.361.361,0,0,0,.243-.027.236.236,0,0,1,.27.081c.513-.054.864.081,1.053-.027.4-.027.567.135,1.026,0a6.3,6.3,0,0,1,1.4.189,2.275,2.275,0,0,1,1.107.567,1.478,1.478,0,0,1,.459,1.242,3.05,3.05,0,0,1-.54,1.674c-.3.405-.324.54-.594.675a3.54,3.54,0,0,1-.756.54,1.584,1.584,0,0,1-.837.432c-.3.216-.54.054-.891.3a5.867,5.867,0,0,1-1.755.243,6.556,6.556,0,0,1-1.539-.189,6.26,6.26,0,0,1-1.512-.594.446.446,0,0,1-.351-.243.371.371,0,0,0-.3-.216c-.3-.081-.405-.216-.513-.567a2.322,2.322,0,0,1-.459-1.485A3.666,3.666,0,0,1,115.8,1.512Zm30.915-3.645c-.216.054-.3.243-.4.3a.359.359,0,0,1-.189.081.418.418,0,0,0-.27.189c-.054.081-.27.135-.324.189-.243.189-.378.135-.783.162a.994.994,0,0,1-.918-.3c-.108-.108-.378-.3-.378-.513a1.725,1.725,0,0,0-.162-.594,2.171,2.171,0,0,1-.081-.891c.108-.567-.081-1.3.027-1.566-.027-.567,0-1.161,0-1.674-.189-.675.081-.918-.027-1.4-.108-.27.108-1.269.054-1.593a8.988,8.988,0,0,1,.027-1.7c0-.162.081-.405.594-.432.27.027.378,0,.891,0,.216,0,.27.108.594-.054.108-.054.243.081.486.054.243,0,.351-.216.351-.432,0-.243-.135-.459-.324-.378a2.225,2.225,0,0,1-.648-.054.757.757,0,0,0-.378.027.222.222,0,0,1-.189.027c-.351-.108-.4,0-.7-.027-.243-.027-.4,0-.513-.135a.432.432,0,0,1-.108-.3c-.054-.4.054-.567-.054-.837-.054-.108,0-.189.027-.27a.266.266,0,0,0-.054-.27c-.108-.243.081-.486.054-.729a4.17,4.17,0,0,1,.081-1.053c.054-.3-.027-.594,0-.837.027-.189-.162-.27-.324-.27-.135,0-.3.054-.3.216a6.71,6.71,0,0,1-.216.918,1.162,1.162,0,0,1-.135.459,1.56,1.56,0,0,0-.189.378c-.216.243-.135.432-.378.621a2.918,2.918,0,0,1-.486.567c-.216.351-.4.378-.621.648-.135.135-.432.189-.7.459-.162.189-.594.135-.756.3a.453.453,0,0,1-.351.108,2.792,2.792,0,0,0-.324.081c-.432.054-.459.189-.459.351v.108c0,.378.27.378.486.351a2.82,2.82,0,0,1,.675,0c.3.027.432.162.351.594,0,.567-.054,1.539-.027,2.268a6.077,6.077,0,0,1-.027,1.4.8.8,0,0,0,.027.378c.054.189.162.3.027.594-.135.243.081.486-.027.783-.081.405.054.567-.081.945a.228.228,0,0,0,0,.189.606.606,0,0,1,.027.459,1.1,1.1,0,0,0,.027.621.3.3,0,0,0,0,.216c0,.108.081.189,0,.351.081.324-.027.648.243.972s.243.756.621.945a1.1,1.1,0,0,0,.3.162c.162.054.27.081.378.378a3.229,3.229,0,0,0,1.08.432,8.007,8.007,0,0,0,1.026.189c.081,0,.162-.027.216-.027.513-.081.729-.054,1.053-.108a4.115,4.115,0,0,0,.972-.324,2.859,2.859,0,0,0,.891-.513,3.951,3.951,0,0,0,.351-.243c.189-.135.432-.189.459-.432a.855.855,0,0,0-.162-.405A.3.3,0,0,0,146.718-2.133Zm16.335,1.026c-.216-.162-.3-.108-.54-.162-.108-.027-.351.054-.459.027a.636.636,0,0,1-.486-.432,1.583,1.583,0,0,1-.108-.837,5.016,5.016,0,0,0,0-1.107,13.6,13.6,0,0,0-.027-1.782c-.189-.243-.108-.351-.027-.54a1.407,1.407,0,0,0,.054-.378c.108-.513-.135-1.377,0-1.89.027-.513-.108-.891-.054-1.377-.216-.27-.027-.81-.3-1.323a4.3,4.3,0,0,0-.783-1.026.463.463,0,0,1-.432-.3.649.649,0,0,0-.4-.324c-.432-.189-.783-.4-1.053-.486a3.553,3.553,0,0,0-1.188-.108,1.881,1.881,0,0,1-.594.081.954.954,0,0,0-.54.054,4.8,4.8,0,0,0-1.242.594,11.93,11.93,0,0,0-1.161.837c-.378.216-.621.108-.513-.648l-.027-1.458c-.243-.351.081-.729-.081-1.08a.427.427,0,0,1,.027-.486c.054-.108.108-.216.027-.324a.866.866,0,0,1-.027-.729.8.8,0,0,0,.054-.459,1.585,1.585,0,0,1-.027-.864c0-.4.081-.621.054-1.161a10.35,10.35,0,0,1,.135-1.62c.108-.243-.189-.594-.486-.594a.33.33,0,0,0-.243.108.869.869,0,0,1-.594.216.577.577,0,0,0-.351.135c-.486.054-.567.27-1.053.27-.567-.108-1.026.243-1.377.162-.432-.027-.7.054-1.026.027a.39.39,0,0,0-.405.432.353.353,0,0,0,.378.378c.27.027.486-.027.918-.027.351.027.54.216.513.513a4.048,4.048,0,0,0,.027,1c.027.162.162.459,0,.594v1.134a1.194,1.194,0,0,1,.054.405,1.192,1.192,0,0,0-.054.459.289.289,0,0,1,.027.324.576.576,0,0,0-.027.324,2.8,2.8,0,0,0,.108.27c.081.135.135.243-.054.513a3.907,3.907,0,0,0-.054,1.134c.189.459-.162.756,0,1.134.162.567-.054.648,0,1.161.162.459-.108.918,0,1.134.243.378-.081.891,0,1.134.27.378-.189.729,0,1.161.162.378-.054.783,0,1.134.162.567-.054.945,0,1.134a5.306,5.306,0,0,1,0,1.134c0,.621,0,1.4-.027,1.917-.027.189-.108.243-.216.27-.081.027-.189.027-.243.081a1.343,1.343,0,0,0-.567.027.441.441,0,0,1-.189,0,.433.433,0,0,0-.324,0,.34.34,0,0,0-.351.351v.135c0,.243.081.378.324.378h.378a1.113,1.113,0,0,0,.324-.027,4.106,4.106,0,0,1,.756-.054.578.578,0,0,1,.378,0,.39.39,0,0,0,.189.054c.027,0,.054-.027.108-.027a9.254,9.254,0,0,1,1.08-.081,11.8,11.8,0,0,0,1.242.081h.4c.108,0,.3.027.459.027h.108a1.211,1.211,0,0,1,.3-.027c.162,0,.324.027.567.027.27,0,.378-.081.4-.351s0-.378-.243-.513c-.081-.081-.189,0-.351-.027-.189,0-.54.081-.7,0-.135-.081-.216-.135-.243-.27-.027-.162.027-.459.027-.945a.529.529,0,0,1-.054-.675c0-.324-.027-.594-.027-.864-.27-.324.081-.81-.027-.972a.545.545,0,0,1-.054-.486.32.32,0,0,0,.027-.216.355.355,0,0,1-.027-.324.444.444,0,0,0,.027-.27c-.081-.378.108-.648.027-1.08a1.773,1.773,0,0,1,0-.756c.135-.54-.054-1.026.054-1.485a3.435,3.435,0,0,1,.189-.567c.27-.324.324-.513.7-.729a6.844,6.844,0,0,1,.972-.54,4.624,4.624,0,0,1,1.215-.216,1.708,1.708,0,0,1,1.377.621,2.923,2.923,0,0,1,.27,1.62,16.892,16.892,0,0,0,0,2.025c-.054.675.027,1.539,0,2.052a6.92,6.92,0,0,0,0,1.3c.054.459-.108,1.053,0,1.269a2.329,2.329,0,0,0,0,.621c.027.324.081.459-.162.7-.081.081-.27.351-.54.243-.216-.081-.351,0-.54-.027a.356.356,0,0,0-.4.351c0,.3.027.486.324.486h.081a7.016,7.016,0,0,1,.756,0h.567a.594.594,0,0,1,.216.027c.486-.027.972-.027,1.485-.054.594,0,.945.027,1.269.027h.243a4.087,4.087,0,0,1,.783.027h.675a.459.459,0,0,0,.189-.027c.3-.027.378-.162.378-.324A.617.617,0,0,0,163.053-1.107ZM175.5-3.537c-.378.459-.459.729-.621.891-.108.459-.648.486-.837.864-.486.432-.729.27-1.053.567a3.043,3.043,0,0,1-1.35.189,2.7,2.7,0,0,1-1.161-.135,1.937,1.937,0,0,1-.891-.378,1.566,1.566,0,0,1-.7-.594c-.27-.3-.189-.432-.513-.783-.243-.27-.189-.756-.324-.891-.162-.135-.135-.27-.135-.486a1.324,1.324,0,0,0-.081-.513,1.873,1.873,0,0,1-.108-1.053.9.9,0,0,0-.027-.621,1.14,1.14,0,0,1,0-.432l.027-.108c.189-.243.324-.432.594-.432h1.917c.513-.135.648.081,1.269,0a3.976,3.976,0,0,1,1.269,0c.459.081.945-.054,1.674.027a6.353,6.353,0,0,0,1.566-.081c.216.054.459-.216.459-.54a.46.46,0,0,0-.027-.189,2.082,2.082,0,0,0-.432-1.485.928.928,0,0,1-.216-.378,1.094,1.094,0,0,0-.216-.351c-.216-.081-.189-.378-.513-.675a2.817,2.817,0,0,0-.945-.864,6.2,6.2,0,0,0-1.08-.621,2.05,2.05,0,0,0-1.188-.378c-.351.081-.891-.162-1.161-.162-.054,0-.081.027-.108.027-.486.162-.756-.054-1.35.135a2.966,2.966,0,0,0-1.242.378c-.3.216-.918.324-1.134.621-.243.27-.81.351-1,.783-.189.4-.594.486-.783.972-.189.459-.513.567-.621,1.134a.488.488,0,0,1-.081.513.564.564,0,0,0-.216.351,13.7,13.7,0,0,0-.243,1.512.526.526,0,0,0,.027.216,1.427,1.427,0,0,0-.027.324c0,.378.135.594.162,1.053a1.826,1.826,0,0,0,.378,1.269c.162.567.459.594.594,1.08a2.182,2.182,0,0,0,.81.945.679.679,0,0,0,.324.189c.189.054.324.081.378.432a6.932,6.932,0,0,0,1.4.729,3.867,3.867,0,0,0,1.242.351,1.584,1.584,0,0,0,.621.108h.513a.748.748,0,0,1,.243.027,4.99,4.99,0,0,1,.648-.027h.27a2.688,2.688,0,0,0,.972-.189,3.218,3.218,0,0,0,1.485-.621l.54-.351c.081-.243.4-.405.675-.7.162-.216.378-.459.54-.7.108-.243.351-.324.432-.648.081-.216-.189-.459-.4-.459A.226.226,0,0,0,175.5-3.537Zm-7.425-6.345c.081-.324.054-.783.324-1.053a5.811,5.811,0,0,1,.864-1.08,2.166,2.166,0,0,1,1.377-.405,1.981,1.981,0,0,1,1.323.432c.351.216.432.675.7,1.08.3.378.081.81.3,1.107a6.014,6.014,0,0,1,.054,1.188c.027.4-.081.54-.648.513-.756-.027-1.377.027-1.971,0-.432.027-1.35,0-1.863,0-.567,0-.783-.216-.7-.837a.682.682,0,0,0,.081-.486A.6.6,0,0,1,168.075-9.882Zm30.267,4.536c-.162.324.135.7,0,1.3-.108.567-.027,1.674-.081,2-.081.54-.216.837-.513.729-.432.108-.783-.027-1.026.189a.585.585,0,0,0-.135.378c0,.189.054.351.27.351.27,0,.54.027.864.027a4.577,4.577,0,0,0,.594-.027h.189c.432,0,1.053-.054,1.674-.054.4-.027.7.054,1.08.054a2.533,2.533,0,0,0,.594-.054,6.907,6.907,0,0,0,.972.054h.4c.243,0,.3-.675.027-.756-.324-.081-.486-.054-.81-.108-.216-.027-.54,0-.621-.621.108-.486-.162-1.35-.027-1.647V-5.346a7.461,7.461,0,0,1,0-2.052,4.777,4.777,0,0,1,0-2.052.99.99,0,0,1,.3-.891,3.58,3.58,0,0,1,.918-.7c.4-.216.54-.486.891-.4.486-.027.513-.189,1.134-.108.594.081.648.135.918.4a1.655,1.655,0,0,1,.54,1.053c.027.378.108.648.135,1.053-.081.486.027,1.431,0,1.944a.5.5,0,0,1,.081.54,2.272,2.272,0,0,0-.081.486c.027.378-.162.756.027,1a.424.424,0,0,1,.081.486,1.222,1.222,0,0,0-.108.675.413.413,0,0,1,.027.351.411.411,0,0,0,0,.432.474.474,0,0,1,.027.378.37.37,0,0,0-.081.351.607.607,0,0,1,.027.432,2.047,2.047,0,0,0-.081.432c0,.243-.243.27-.324.3a1.879,1.879,0,0,1-.864.054c-.351-.027-.486.162-.486.351a.417.417,0,0,0,.351.432h2.7a4.383,4.383,0,0,0,.567-.027,6.215,6.215,0,0,0,.945.054h.864a4.18,4.18,0,0,1,.594-.027h.756c.216,0,.324-.189.324-.405s-.162-.486-.4-.432a3.7,3.7,0,0,1-.783,0c-.216-.027-.351,0-.432-.135a.906.906,0,0,1-.108-.378c-.027-.054,0-.135,0-.243a2.205,2.205,0,0,0-.027-.378.367.367,0,0,1-.027-.486.339.339,0,0,0,.027-.243c-.054-.594,0-1.4-.027-1.593-.162-.324.027-.756.027-1.377a.565.565,0,0,1,0-.756c.027-.378.162-.81.027-1-.162-.189-.081-.3-.027-.459a.464.464,0,0,0,.054-.351c-.027-.378-.027-.81-.081-1.161-.189-.513-.054-.945-.3-1.134-.432-.351-.3-.621-.621-.918-.351-.324-.567-.486-.81-.729a5.075,5.075,0,0,0-1.242-.432c-.216.135-.324.108-.432.027a.725.725,0,0,0-.324-.162c-.432-.108-.7.189-1.161.108-.459-.054-.54.324-1.107.324-.486.135-.54.486-1.053.594-.378.378-.675.567-.945.81-.135.108-.27.324-.54.3-.162,0-.216-.027-.27-.081-.081-.054-.108-.135-.27-.3a3.373,3.373,0,0,0-.243-.324c-.081-.108-.189-.189-.3-.351a.982.982,0,0,0-.432-.324.657.657,0,0,1-.243-.189c-.135-.189-.4-.054-.837-.351a.845.845,0,0,0-.675-.135.717.717,0,0,1-.459-.054.887.887,0,0,0-.675.054,2.511,2.511,0,0,1-.486.162c-.3-.054-.675.3-.864.324-.378.162-.621.54-.945.621a6.5,6.5,0,0,0-.891.81c-.054.027-.081.054-.108.054-.081,0-.108-.081-.135-.216-.027-.189-.027-.459-.054-.756a2,2,0,0,0,.054-.864.683.683,0,0,0-.621-.351h-.081a6.668,6.668,0,0,0-.945.27c-.3.135-.837.054-1.188.162-.486-.027-.81.054-1.215.054-.351.108-.594-.108-1.134.081-.27.108-.216.864.243.837a2.046,2.046,0,0,1,.837.027.791.791,0,0,1,.513.945c.054.621-.081,1,0,1.566a11.25,11.25,0,0,1,0,1.35c-.081.54.108.756,0,1.35a2.3,2.3,0,0,1,0,1.35c.162.4-.162.918,0,1.35a7.976,7.976,0,0,1-.054,2.133.53.53,0,0,1-.648.54c-.27.081-.7-.054-1,.027a.462.462,0,0,0-.324.432.39.39,0,0,0,.432.405h1.593c.648,0,1.35-.054,2.079-.027h.054a1.763,1.763,0,0,0,.459-.081c.162-.054.3-.081.4.081.486.027,1.161.054,1.728.054.459,0,.459-.027.513-.432.027-.243-.054-.459-.4-.459-.567.027-.891.081-1.026-.162-.27-.243-.162-.783-.243-1.215a2.928,2.928,0,0,1,0-1.215c.027-.513,0-.783,0-1.215-.108-.756.162-1.269,0-1.917.135-.648-.135-1.377,0-1.89-.108-.351.243-.7.4-1.134.162-.3.4-.837.756-1a3.873,3.873,0,0,1,.756-.594c.27.027.7-.189,1.08-.135a1.389,1.389,0,0,1,1.188.675,5.938,5.938,0,0,1,.351,1.62,8.573,8.573,0,0,1,0,2.052C198.234-6.75,198.5-5.994,198.342-5.346ZM224.667-2.4c-.081.243-.216.27-.324.54a.984.984,0,0,1-.324.3.641.641,0,0,1-.4.027c-.54-.027-.729-.486-.756-.891a16.119,16.119,0,0,1,0-1.62.913.913,0,0,1-.027-.594,2.279,2.279,0,0,0,.054-.513c-.027-.378-.27-.513-.054-.945.108-.189-.108-.405,0-.783.081-.27-.135-.54,0-.945.081-.27-.027-.675.027-1.08a11.448,11.448,0,0,0-.162-1.782c-.216-.108-.189-.216-.189-.378a.7.7,0,0,0-.189-.486c-.216-.3-.4-.648-.7-.756-.486-.162-.594-.513-.918-.486-.432.027-.567-.3-.945-.216-.4-.054-.729-.081-.972-.135a4.455,4.455,0,0,0-1.566.189,6.562,6.562,0,0,0-1.755.513c-.189.027-.243.108-.27.189-.054.081-.081.162-.351.162-.135,0-.243.216-.594.513a1.754,1.754,0,0,0-.54,1.431,1.533,1.533,0,0,0,.4,1.08,1.576,1.576,0,0,0,1.053.459c.432-.027.7.027.918-.4a1.631,1.631,0,0,0,.378-.945,1.015,1.015,0,0,0-.378-.864.558.558,0,0,1-.216-.675c-.081-.162.378-.594.7-.648a9.89,9.89,0,0,1,1.134-.189c.621.081,1.269.162,1.431.567.486.432.4.972.486,1.458a9.441,9.441,0,0,1,0,1.242,2.41,2.41,0,0,1,0,1.08c.054.189,0,.27-.108.459a.6.6,0,0,1-.594.3c-.513.054-.621.27-1.107.189a5.525,5.525,0,0,0-1.269.243,3.38,3.38,0,0,0-1.377.486c-.54.108-.567.459-1.107.7-.54.189-.675.648-1.026,1.188a2.986,2.986,0,0,0-.351,1.4,1.539,1.539,0,0,0,.027.351.512.512,0,0,0,.108.324c.081.162.216.243.135.567.216.4.351.783.756.918a3.478,3.478,0,0,0,1.08.594,5.138,5.138,0,0,0,1.242.189,5.642,5.642,0,0,0,1.539-.27c.054-.162.189-.189.324-.216a.428.428,0,0,0,.324-.135c.216-.189.729-.27.864-.648a.529.529,0,0,1,.864.189,2.766,2.766,0,0,0,.675.621,3.728,3.728,0,0,0,1.593.4.788.788,0,0,0,.243.054c.324,0,.648-.27.81-.216a1.553,1.553,0,0,0,.837-.432c.27-.27.513-.27.7-.675a2.978,2.978,0,0,0,.513-.675.243.243,0,0,0,.027-.135.41.41,0,0,0-.4-.378A.242.242,0,0,0,224.667-2.4Zm-5.184-.351a4.3,4.3,0,0,1-.783.891,2.718,2.718,0,0,1-1.269.378,2.045,2.045,0,0,1-1.35-.621.852.852,0,0,1-.351-.756c0-.243-.216-.432-.135-.7.135-.351.027-.432.108-.648-.081-.324.216-.486.378-.837a1.773,1.773,0,0,1,.837-.756c.324-.324.567-.162.972-.432.243-.27.621-.135.81-.216.486-.135.972-.027.891.594a.511.511,0,0,0,.027.4.464.464,0,0,1,0,.459.4.4,0,0,0-.054.378.514.514,0,0,1,.027.459c-.027.3.135.378.027.7C219.537-3.186,219.645-2.97,219.483-2.754Zm21.843,1.566c-.189-.081-.27-.027-.486-.054a4.356,4.356,0,0,0-.594,0c-.378-.027-.459-.108-.486-.648-.027-.675-.027-1.917-.027-2.754a5.7,5.7,0,0,1,0-1.674,8.77,8.77,0,0,0,.027-2.052c-.216-.27-.135-.432-.108-.729a2.806,2.806,0,0,0,.027-.7,5.664,5.664,0,0,0-.162-.891,1.092,1.092,0,0,1-.189-.513c-.027-.135-.054-.243-.162-.3-.3-.216-.594-.648-.837-.864a.569.569,0,0,0-.3-.135.747.747,0,0,1-.486-.3c-.3-.27-.864-.081-1.107-.27-.3-.216-.729-.027-1.026-.027-.432.162-.864.027-1.053.108-.3.162-.837.378-1.08.54a4.106,4.106,0,0,0-1.242.81.409.409,0,0,1-.3.189c-.081,0-.162-.081-.189-.27-.054-.513.081-1,.027-1.215a.479.479,0,0,0-.459-.324.527.527,0,0,0-.189.027,3.876,3.876,0,0,1-.972.189,3.231,3.231,0,0,1-1.215.162c-.3.108-.513-.027-1,.081-.594.081-.891.027-1.188.081-.513.135-.351.891.081.81a3.13,3.13,0,0,1,.891.081c.3.081.432.4.459.918.027.378-.027,1,0,1.539a3.224,3.224,0,0,0,0,1.35,7.38,7.38,0,0,0,0,1.35,7.817,7.817,0,0,1,0,1.377.684.684,0,0,0,.081.54.584.584,0,0,1-.081.7c0,.7-.054,1.242,0,1.836a1.228,1.228,0,0,1-.135.756.451.451,0,0,1-.4.243,6.34,6.34,0,0,0-.7.027c-.216.054-.486-.081-.594.108a.462.462,0,0,0-.189.351.377.377,0,0,0,.351.351h.162c.216,0,.4-.027.594-.027.27,0,.54.027.837.027h.216a13.429,13.429,0,0,1,1.4-.054,8.82,8.82,0,0,1,1.7.054,5.2,5.2,0,0,1,1.3,0h.054c.351,0,.513-.216.513-.4a.472.472,0,0,0-.189-.378c-.108-.162-.351-.027-.486-.081-.135-.027-.351,0-.432-.081-.3-.081-.4-.243-.432-.783-.027-.567-.027-1.08-.027-1.485-.27-.351-.216-.513-.108-.7a1,1,0,0,0,.135-.3c.054-.54-.162-.621,0-1.107.135-.189-.054-.837,0-1.107-.135-.432.162-.918,0-1.134a1.91,1.91,0,0,1,0-1.107c.162-.216-.054-.567,0-1.107a1.787,1.787,0,0,1,.756-.891,4.017,4.017,0,0,1,.972-.459,3.61,3.61,0,0,1,1.026-.27c.3.162.891.108.972.27.054.216.4.162.486.513a5.311,5.311,0,0,1,.243,1.755,12.328,12.328,0,0,0,0,2,.965.965,0,0,1,.081.783.627.627,0,0,0,0,.54.655.655,0,0,1-.054.621c-.081.108,0,.216.054.324a.352.352,0,0,1-.027.324c-.135.216.108.513,0,.864a4.29,4.29,0,0,0-.054,1.026c.054.756.054,1.269-.216,1.458a1.654,1.654,0,0,1-.918.054c-.378.054-.486.756-.054.864.054,0,.108.027.162.027.162,0,.324-.054.513-.054.054,0,.108.027.162.027.135,0,.27.027.378.027.135,0,.27-.027.378-.027.162-.162.378-.027.486-.027.243,0,.459.054.675.054a1.252,1.252,0,0,0,.513-.108c.621-.027.783.054,1.485.081l.189.027c.27,0,.54-.081.783-.054h.81c.135,0,.243-.162.243-.351A.438.438,0,0,0,241.326-1.188Zm15.255-11.88c-.189-.405-.864-.324-1.107-.405a.835.835,0,0,0-.216-.054c-.243,0-.351.216-.675.27-.351.162-.378.216-.621.594a6.962,6.962,0,0,0-.432,1c-.162.324-.351.405-.783.027a7.974,7.974,0,0,0-1.539-.945,5.48,5.48,0,0,0-1.188-.378c-.351-.054-.783-.081-1.3-.108-.459-.081-.81.189-.972.054-.459.027-.837,0-1.053.189-.3.243-.729.27-.81.4-.486.135-.594.486-.837.486a3.228,3.228,0,0,0-.729.648,2.7,2.7,0,0,1-.567.756c0,.216-.432.567-.351.891.081.513-.162.567-.135,1.026.054.189-.081.864.162,1.026a1.723,1.723,0,0,0,.432.891c.081.27.567.891.864.918.378.324.3.756-.054.81-.324.162-.675.675-.945.81-.351.162-.216.594-.486.81-.243.3-.216.567-.216,1.107a2.368,2.368,0,0,0,.27,1.08,1.439,1.439,0,0,0,.594.756,4.015,4.015,0,0,0,.837.459c.378.081.513.189.513.3s-.135.243-.378.324a1.983,1.983,0,0,0-1.215.675,2.723,2.723,0,0,0-.891.864,1.85,1.85,0,0,0-.378,1,.46.46,0,0,0,.027.189,1.709,1.709,0,0,0,.189,1c.216.432.162.675.513.81a3.005,3.005,0,0,0,1,.81c.189-.108.3-.054.378.054a3.052,3.052,0,0,0,.3.3,8.025,8.025,0,0,0,1.053.351,6.394,6.394,0,0,1,1.053.243c.675.054,1.161.162,1.755.162h.189a1.661,1.661,0,0,1,.351-.027c.216,0,.4.027.621.027h.081a1.333,1.333,0,0,0,.4-.081c.378-.081,1-.189,1.458-.3.4.081.783-.3,1.4-.513.594-.054.918-.621,1.215-.783a4.588,4.588,0,0,0,1.053-1.242c.162-.378.108-.567.459-.837a6.6,6.6,0,0,0,.378-1.242c.216-.432.027-.7.162-1.134a2.715,2.715,0,0,0-.162-1.161c-.216-.4-.081-.648-.324-.864-.324-.27-.27-.513-.837-.81-.378-.189-.675-.432-.837-.486-.162-.3-.621-.27-.972-.243a3.342,3.342,0,0,0-1.053-.081,3.97,3.97,0,0,0-1.026.027.864.864,0,0,1-.567.027c-.243.081-.4-.135-.837.027a.759.759,0,0,1-.54.027.856.856,0,0,0-.459,0,7.27,7.27,0,0,1-1.323.027,4.711,4.711,0,0,1-1.431-.189c-.432-.108-1.053-.351-.891-.945-.054-.324-.027-.54.378-.891.216-.054.432-.324.756-.351.27-.054.378-.081.594.054.486.162.621.054.918.243a4.453,4.453,0,0,0,1.134.135,5.057,5.057,0,0,0,1.674-.27,3.769,3.769,0,0,0,.918-.324,2.058,2.058,0,0,0,.918-.459.5.5,0,0,1,.351-.405.291.291,0,0,0,.216-.054c.324-.3.432-.594.648-.81a1.941,1.941,0,0,0,.432-.972c-.081-.216,0-.3.054-.459a.919.919,0,0,0,.027-.4c-.162-.243,0-.594-.135-1.377.027-.081,0-.108-.081-.216-.054-.054-.027-.135.027-.243a1.617,1.617,0,0,1,.216-1.026c.108-.27.189-.513.4-.621.189-.108.27-.027.351.135a1.513,1.513,0,0,0-.027.486.818.818,0,0,0,1.134.756c.243.162.7-.162.783-.459a.542.542,0,0,0,.189-.459v-.324a.671.671,0,0,0,.027-.216A.986.986,0,0,0,256.581-13.068Zm-5.67,5.616c-.135.567-.27.729-.351,1.134a1.14,1.14,0,0,1-.7.864c-.162.162-.4.27-1.026.3a2.514,2.514,0,0,1-1.242-.3,2.757,2.757,0,0,1-.729-.837,1.212,1.212,0,0,1-.4-1.134c.081-.513-.3-.7-.108-1.161a9.658,9.658,0,0,1,.108-1.215c-.027-.567.351-.837.378-1.242.324-.4.3-.81.729-.945a1.35,1.35,0,0,1,1.161-.378,1.714,1.714,0,0,1,1.161.378,3.851,3.851,0,0,1,.7.945c.243.513.162.918.324,1.215.054.567-.027,1,.108,1.215C251.046-8.289,250.83-7.965,250.911-7.452Zm-5.427,8.964c.378-.378.621-.837,1.161-1.107l.27-.027c.108.054.189-.027.324-.081a.553.553,0,0,1,.432.081.878.878,0,0,0,.4-.027.579.579,0,0,1,.4.054,1.66,1.66,0,0,1,.3-.081.156.156,0,0,1,.216.081.537.537,0,0,0,.378-.027.561.561,0,0,1,.216,0,.361.361,0,0,0,.243-.027.236.236,0,0,1,.27.081c.513-.054.864.081,1.053-.027.4-.027.567.135,1.026,0a6.3,6.3,0,0,1,1.4.189,2.275,2.275,0,0,1,1.107.567A1.478,1.478,0,0,1,255.15,2.4a3.05,3.05,0,0,1-.54,1.674c-.3.405-.324.54-.594.675a3.54,3.54,0,0,1-.756.54,1.584,1.584,0,0,1-.837.432c-.3.216-.54.054-.891.3a5.867,5.867,0,0,1-1.755.243,6.556,6.556,0,0,1-1.539-.189,6.26,6.26,0,0,1-1.512-.594.446.446,0,0,1-.351-.243.371.371,0,0,0-.3-.216c-.3-.081-.4-.216-.513-.567a2.322,2.322,0,0,1-.459-1.485A3.666,3.666,0,0,1,245.484,1.512ZM269.271-2.4c-.081.243-.216.27-.324.54a.984.984,0,0,1-.324.3.641.641,0,0,1-.4.027c-.54-.027-.729-.486-.756-.891a16.114,16.114,0,0,1,0-1.62.913.913,0,0,1-.027-.594,2.278,2.278,0,0,0,.054-.513c-.027-.378-.27-.513-.054-.945.108-.189-.108-.405,0-.783.081-.27-.135-.54,0-.945.081-.27-.027-.675.027-1.08a11.448,11.448,0,0,0-.162-1.782c-.216-.108-.189-.216-.189-.378a.7.7,0,0,0-.189-.486c-.216-.3-.4-.648-.7-.756-.486-.162-.594-.513-.918-.486-.432.027-.567-.3-.945-.216-.4-.054-.729-.081-.972-.135a4.455,4.455,0,0,0-1.566.189,6.562,6.562,0,0,0-1.755.513c-.189.027-.243.108-.27.189-.054.081-.081.162-.351.162-.135,0-.243.216-.594.513a1.754,1.754,0,0,0-.54,1.431,1.533,1.533,0,0,0,.4,1.08,1.576,1.576,0,0,0,1.053.459c.432-.027.7.027.918-.4a1.631,1.631,0,0,0,.378-.945,1.015,1.015,0,0,0-.378-.864.558.558,0,0,1-.216-.675c-.081-.162.378-.594.7-.648a9.89,9.89,0,0,1,1.134-.189c.621.081,1.269.162,1.431.567.486.432.4.972.486,1.458a9.438,9.438,0,0,1,0,1.242,2.409,2.409,0,0,1,0,1.08c.054.189,0,.27-.108.459a.6.6,0,0,1-.594.3c-.513.054-.621.27-1.107.189a5.525,5.525,0,0,0-1.269.243,3.38,3.38,0,0,0-1.377.486c-.54.108-.567.459-1.107.7-.54.189-.675.648-1.026,1.188a2.986,2.986,0,0,0-.351,1.4,1.539,1.539,0,0,0,.027.351.512.512,0,0,0,.108.324c.081.162.216.243.135.567.216.4.351.783.756.918a3.478,3.478,0,0,0,1.08.594,5.138,5.138,0,0,0,1.242.189,5.641,5.641,0,0,0,1.539-.27c.054-.162.189-.189.324-.216a.428.428,0,0,0,.324-.135c.216-.189.729-.27.864-.648a.529.529,0,0,1,.864.189,2.767,2.767,0,0,0,.675.621,3.728,3.728,0,0,0,1.593.4.788.788,0,0,0,.243.054c.324,0,.648-.27.81-.216a1.552,1.552,0,0,0,.837-.432c.27-.27.513-.27.7-.675a2.979,2.979,0,0,0,.513-.675.244.244,0,0,0,.027-.135.41.41,0,0,0-.4-.378A.242.242,0,0,0,269.271-2.4Zm-5.184-.351a4.3,4.3,0,0,1-.783.891,2.717,2.717,0,0,1-1.269.378,2.046,2.046,0,0,1-1.35-.621.852.852,0,0,1-.351-.756c0-.243-.216-.432-.135-.7.135-.351.027-.432.108-.648-.081-.324.216-.486.378-.837a1.773,1.773,0,0,1,.837-.756c.324-.324.567-.162.972-.432.243-.27.621-.135.81-.216.486-.135.972-.027.891.594a.511.511,0,0,0,.027.4.464.464,0,0,1,0,.459.4.4,0,0,0-.054.378.514.514,0,0,1,.027.459c-.027.3.135.378.027.7C264.141-3.186,264.249-2.97,264.087-2.754Zm8.235-13.905c.135.378.189.945.3,1.188.189.108.189.216.189.4a1.514,1.514,0,0,0,.054.567c.108.351.432.648.216.972.108.3.3.756.189.972a1.9,1.9,0,0,1,.162.972c-.027.243.378.513.135.972a1.607,1.607,0,0,0,.108,1c.081.81-.027,1.188.081,1.971.081.567-.189.891-.027,1.3a.5.5,0,0,0,.945-.135,4.163,4.163,0,0,0,0-1.3,14.861,14.861,0,0,0,.027-1.89,2.225,2.225,0,0,1,.108-1c.108-.378-.054-.621.135-1a3.781,3.781,0,0,0,.189-1,4.722,4.722,0,0,0,.189-.972,2.361,2.361,0,0,0,.216-1c.162-.324.027-.459.189-.81a.717.717,0,0,0,.054-.459.527.527,0,0,1,.135-.351c.081-.108,0-.216-.027-.324s-.027-.243.189-.378c.162-.216,0-.432.108-.945a2.084,2.084,0,0,0,.054-.405,2.24,2.24,0,0,0-.432-1.269c-.054-.189-.216-.189-.378-.243a.341.341,0,0,1-.27-.27,3.563,3.563,0,0,0-.864-.243.788.788,0,0,0-.243.054h-.216a1.441,1.441,0,0,0-1.269.729,2.448,2.448,0,0,0-.4,1.3v.216a4.435,4.435,0,0,0-.054.621A1.015,1.015,0,0,0,272.322-16.659ZM276.21-2c-.081-.243.027-.783-.189-.918a.621.621,0,0,1-.27-.378c-.054-.108-.081-.189-.243-.243a.69.69,0,0,1-.432-.324.768.768,0,0,0-.648-.216,2.122,2.122,0,0,0-1.647.513,2.108,2.108,0,0,0-.675,1.242A1.356,1.356,0,0,0,272.16-2a1.965,1.965,0,0,0,.432,1.269c.27.054.351.108.378.189s.027.189.135.243a3.743,3.743,0,0,0,1.215.243c.54-.108,1.107-.162,1.269-.594A.9.9,0,0,1,275.832-1c.108-.108.216-.189.189-.351-.027-.27.216-.3.216-.54C276.237-1.917,276.21-1.944,276.21-2Z" transform="translate(277.56 21.006)" fill="#fff"/>
</svg>
