<svg xmlns="http://www.w3.org/2000/svg" width="383.693" height="57.141" viewBox="0 0 383.693 57.141">
  <g id="グループ_17339" data-name="グループ 17339" transform="translate(-391.82 -1050.181)">
    <path id="パス_72341" data-name="パス 72341" d="M41.05-2.35c-1.35.15-1.95-.1-2.75,0A1.35,1.35,0,0,1,36.65-3.6a5.5,5.5,0,0,0-.1-1.35,4.207,4.207,0,0,1,.1-1.5c.3-.8-.3-1.4,0-2.1.3-.35-.05-1.15,0-2.1a3.326,3.326,0,0,1,0-2.1c.25-.7-.5-1.15,0-2.1a1.229,1.229,0,0,0,.05-1.1,1.663,1.663,0,0,1-.05-1c.3-.75-.1-1.45,0-2.1.15-.8-.1-1.35,0-2.1a2.319,2.319,0,0,1,0-2.1,5.881,5.881,0,0,1,0-2.1,2.725,2.725,0,0,1,0-2.1c-.25-.5.15-1.1,0-2.1a2.537,2.537,0,0,1,0-2.1,25.224,25.224,0,0,1,0-2.75c-.05-1.05.85-1.2,1.4-1.2,1.05.1,2.15-.05,3.25,0,.6,0,.85-.35.85-.75a.923.923,0,0,0-.8-.95,13.446,13.446,0,0,1-2.4.15,1.064,1.064,0,0,1-.85.1,2.439,2.439,0,0,0-.7-.15.723.723,0,0,0-.35-.1c-.55,0-1.4.35-1.85.1-.95-.05-1.15.25-2.2,0a8.067,8.067,0,0,1-2.2,0,9.242,9.242,0,0,0-1.15-.05,3.041,3.041,0,0,0-1.1.15c-.85-.05-1.45-.1-2.4-.1a2.58,2.58,0,0,0-.55-.1,6.271,6.271,0,0,0-.75.1c-.6.1-.85.4-.85.7a.963.963,0,0,0,1.05.85c.9,0,1.5,0,2.4.05.35.05,1.15-.1,1.45.3.45.25.5,1.4.4,1.95-.15,1,.5,1.75.05,2.8a1.763,1.763,0,0,0,.05.9,1.381,1.381,0,0,1-.05,1.25c-.15,1.1.1,2.05,0,3.35a19.232,19.232,0,0,1-.15,3.85c.1.85-.45,1.15-1.9,1.1-.95,0-1.2.4-2.35,0a25.679,25.679,0,0,1-4-.05c-.65.35-1.45-.05-2.3.1a11.273,11.273,0,0,1-2.75-.1c-1.4-.05-1.75-.45-1.75-1.6.15-1.05-.15-2.15,0-3.3-.05-1.05,0-2.1,0-2.95-.7-1.45.05-1.9,0-2.55a22.534,22.534,0,0,1,0-2.6,1.985,1.985,0,0,1,.25-1.9c.3-.4.95-.45,1.5-.6.65,0,1.65,0,2.45.05,1.4.1,1.6-1.3.45-1.65a.544.544,0,0,0-.25-.05,4.545,4.545,0,0,1-1.4.1,2.642,2.642,0,0,0-.6-.05,6.171,6.171,0,0,1-1.7.05,1.46,1.46,0,0,0-.45-.1c-.65,0-1.4.35-1.75.1-.85,0-1.45.3-2.25,0a6.493,6.493,0,0,1-2.2,0c-.95-.2-1.65.3-2.15,0a1.729,1.729,0,0,0-.6-.15c-.5,0-.8.3-1.55.15-.65-.05-1.2-.1-1.6-.1a1.541,1.541,0,0,0-.5.05.943.943,0,0,0-.5.85c0,.3.2.6.75.7.95.15,1.8-.05,2.95.1.8-.1,1.5.05,1.65.8.3,1.1-.05,2.05.15,3.15.15.95-.2,1.6,0,2.1-.05.95-.25,1.7,0,2.1.05.55,0,1.5,0,2.1a1.068,1.068,0,0,1,.25.95,8.493,8.493,0,0,0-.25,1.15c.25.65-.25,1.2,0,2.1.2.6-.2,1.2,0,2.1.1.8-.3,1.7,0,2.1.3,1-.2,1.5,0,2.1.1.9-.3,1.65.05,2.35a10.956,10.956,0,0,1-.05,1.85c-.15.85.05,1.7-.1,2.65a1.5,1.5,0,0,1-.05,1.7A17.648,17.648,0,0,1,6.7-3.05c-.15.55-.4.65-.75.65l-.6.05a8.767,8.767,0,0,1-2.8,0,.88.88,0,0,0-1.1.85.843.843,0,0,0,.65.8A6.183,6.183,0,0,0,3-.6c.3,0,.65-.05,1.15-.05H4.4c.3,0,.55.05.85.05h.1a2.919,2.919,0,0,0,1-.2c.8-.05,1.35.25,1.85-.05a.772.772,0,0,1,.9-.1,2.245,2.245,0,0,0,.95.2c.6,0,1.05.1,1.55.1a2.962,2.962,0,0,0,1.05-.2c1-.1,1.65.35,2.25,0a15.839,15.839,0,0,0,2.15.1c.4,0,1-.05,1.75,0,.4.05.75-.45.75-.85a.713.713,0,0,0-.8-.7c-.95-.1-2.05.1-3.05-.05-.6,0-1.8-.6-1.55-1.2,0-.55-.35-2.1,0-2.8-.3-.5-.05-1.25,0-2.05a2.892,2.892,0,0,1,0-2.05c.25-.85,0-1.05,0-2.05a4.067,4.067,0,0,1,0-2.05,7.734,7.734,0,0,1,0-3.05c.15-.65.35-1.05,1.75-1a3.79,3.79,0,0,0,.8-.15.715.715,0,0,1,.95.15c1.2.1,2.4-.1,3.5,0,1.05.1,2.4-.05,3.45.1a15.924,15.924,0,0,1,3.1.05c1.5-.15,1.75.95,1.6,1.2.05,1.05-.05,1.65.05,2.7.3,1.05-.1,1.7,0,2.05a1.116,1.116,0,0,1,.2,1.05,1.57,1.57,0,0,0-.2,1c.05.65,0,1.6,0,2.05-.05.65,0,1.3,0,2.05a10.771,10.771,0,0,1-.15,3.1c.15.55-.7.95-1.5.95-1.35,0-1.85,0-2.6.05-.8-.05-1.1.3-1.1.7a.867.867,0,0,0,.7.85h.1a10.753,10.753,0,0,0,1.15.1,1.767,1.767,0,0,0,.85-.2c.55-.1,1.05.05,1.8-.05a1.331,1.331,0,0,0,.6.15c.4,0,.9-.15,1.6-.15,1,.3,1.6-.25,2.2,0a7.433,7.433,0,0,0,1.25.15,2.451,2.451,0,0,0,.95-.15,5.31,5.31,0,0,0,2.2,0c.3-.05.8.2,1.55.2a2.434,2.434,0,0,0,.6-.05,8.082,8.082,0,0,1,1.5.05h.3c.3,0,.45-.4.45-.8C41.8-1.9,41.6-2.4,41.05-2.35Zm27.5-9.8a8.865,8.865,0,0,1-.2-2.6c-.15-.5-.2-1.95-.7-2.35a12.288,12.288,0,0,1-1.1-2.1c-.3-.55-1.2-1.05-1.45-1.75-.6-.15-1.1-1.25-1.8-1.4-.85-.4-1.2-.65-2.1-1.05-.9-.1-1.7-.65-2.35-.65-.7.15-1.2-.25-2.1-.25a1.876,1.876,0,0,0-.5.05H55.6a6.646,6.646,0,0,0-1.9.2,6.464,6.464,0,0,0-2.4.7c-.95.55-1.55.4-2.1,1.05-.85.25-1.15,1-1.85,1.45-.85.35-.95,1.35-1.5,1.75-.5.65-.8,1.7-1.3,2.4a.882.882,0,0,0-.2.8A2.313,2.313,0,0,1,44-14.65a1.708,1.708,0,0,0-.2,1.15,2.9,2.9,0,0,1-.05,1.45,3.441,3.441,0,0,0-.1.65A10.025,10.025,0,0,0,44-9.5c0,.65.7,1.8.7,2.3A9.645,9.645,0,0,0,46-4.9c.65.25.7.45.75.65a.938.938,0,0,0,.5.9c.65.45,1,1.05,1.9,1.35a2.13,2.13,0,0,1,.75.45,2.121,2.121,0,0,0,1.35.6c.9.15,1.55.8,2.35.65a11.434,11.434,0,0,0,2,.3,1.875,1.875,0,0,0,.55-.05h.3c.45,0,.8.05,1.1.05h.1a1.839,1.839,0,0,0,1.1-.3A12.133,12.133,0,0,0,61.1-.95c.8-.1,1.4-.75,2.15-1a4.755,4.755,0,0,0,1.8-1.45c.55-.2.7-1.25,1.5-1.75.2-.5.8-1.5,1.3-2.6a2.109,2.109,0,0,0,.1-.9.8.8,0,0,1,.4-.9A17.19,17.19,0,0,0,68.55-12.15Zm-7.2,2.1c-.15.7.2,1.8-.2,2.15-.2.85-.1,1.65-.4,2.1-.55.6-.35,1.05-.75,2A3.347,3.347,0,0,1,58.45-2a4.284,4.284,0,0,1-2.25.7,3.524,3.524,0,0,1-1.65-.35A4.935,4.935,0,0,1,52.9-3.1l-.55-.75c-.45-.45-.4-1.2-.65-1.6-.4-.45-.3-1.2-.45-1.75,0-.55-.35-.9-.2-1.8.2-1.15-.45-2.35-.15-3.15a4.78,4.78,0,0,1,.15-3.2c-.1-.9.4-1.05.2-1.8a5.339,5.339,0,0,1,.4-1.8c0-.85.7-.95.65-1.6-.05-.5.2-.6.5-.8a2.252,2.252,0,0,0,.45-.5,1.01,1.01,0,0,1,.75-.6,3.2,3.2,0,0,0,.55-.3,6.51,6.51,0,0,1,1.65-.3,3.532,3.532,0,0,1,2.35.8c.7.75,1.4,1.15,1.45,1.7.3.8.7,1,.75,2a14.178,14.178,0,0,0,.4,2.1c.4.35.4.65.3.9a2.138,2.138,0,0,0-.25.9c.1,1.1.5,1.95.2,2.5C61.25-11.75,61.6-10.7,61.35-10.05Zm45.2-13.5c-.55-.35-1.6-.1-2-.1a.8.8,0,0,0-.55-.15c-.5,0-1.15.15-1.35,0a1.875,1.875,0,0,0-.55-.05c-.35,0-.75.05-1.1.05h-.3c-.45,0-.85-.05-1.2-.05a1.148,1.148,0,0,0-.7.2.972.972,0,0,0,.6,1.7,2.114,2.114,0,0,0,1.25,0,.694.694,0,0,1,.8.8,5.371,5.371,0,0,1-.35,1.7c.1.85-.25.95-.5,1.55-.35.2-.3,1.25-.55,1.55a9.427,9.427,0,0,1-.5,1.55c-.2.45-.05.95-.5,1.55-.35.3-.2,1.6-.7,2-.7.75-.3,1.65-1.05,2.3a.54.54,0,0,1-.35.15c-.5,0-1-.8-1-1,0-.25-.2-.35-.35-.5a.7.7,0,0,1-.1-.85c.2-.45-.85-1.35-.8-2.05.05-.35-.75-1.2-.75-2.05.05-.5-.7-1.05-.75-2.05-.05-.85-.65-1.1-.75-2.05a2.818,2.818,0,0,1-.75-2.05c.05-.65-.35-1-.5-1.7a.849.849,0,0,0-1.5-.25c-.35.95-.35,1.45-.55,1.95a2.541,2.541,0,0,0-.8,2.05l-.8,2c0,.65-.9,1.5-.8,2.05-.15.5-.65,1.7-.8,2.05a6.046,6.046,0,0,0-.8,2.05c-.35.45-.65,1.05-.5,1.25-.3,1.2-1.4,1.45-1.85.25a1.585,1.585,0,0,0-.25-.7.51.51,0,0,1-.1-.45c-.45-.45-.1-.9-.55-1.85a5.917,5.917,0,0,1-.55-1.9,1.168,1.168,0,0,0-.3-1.05,1.68,1.68,0,0,1-.25-.8c-.4-.65-.05-1-.55-1.85a6.186,6.186,0,0,0-.65-2.3c-.05-.5-.15-1.15.45-1.35.65-.25,1.65.15,2.25-.2a1.045,1.045,0,0,0,.3-.75c0-.4-.2-.85-.75-.75a24.375,24.375,0,0,0-2.65.1c-.9.1-2.4-.1-3.25,0-.9.05-2.55-.1-3.6-.1-.75,0-1.35-.1-1.9-.1a2.325,2.325,0,0,0-1,.15.838.838,0,0,0-.35.75.875.875,0,0,0,.6.9c.95.2,1.15,0,1.8.15.6-.1,1,.55,1.2,1.2.75.8.35,1.6.75,2.25.25.8.55,1.5.8,2.25.25,1.3.65,1.65.95,2.85a23.8,23.8,0,0,0,.95,2.85,8.6,8.6,0,0,0,.95,2.9c.25,1.25.95,1.7.95,2.85.2.8.75,1.2.65,1.95.3,1.2.4,2.2,1,2.75a1.922,1.922,0,0,0,1.2.3A2.208,2.208,0,0,0,82.45-.1a1.087,1.087,0,0,0,.35-.8.236.236,0,0,1,.05-.3c.05-.7.55-.95.6-1.55.2-.4.4-.45.4-1a6.605,6.605,0,0,1,1-2.65A24.47,24.47,0,0,1,85.9-9.1a3.167,3.167,0,0,1,.75-1.85,2.1,2.1,0,0,1,1.1-1.7c.8-.2.9-.05,1.1.75A5.8,5.8,0,0,0,89.9-9.25c1.05.55.35,1.9.95,2.55.35,1.25.85,1.45,1,2.6,0,.2.2.4.35.55.25.3.5.55.2.9-.15.3.4.75.55,1.5,0,.75.1,1.3.85,1.35.35,0,.8.1,1.25.1A2.061,2.061,0,0,0,96.4-.1a.959.959,0,0,0,.25-1,2.328,2.328,0,0,1,.3-1.25c.75-.65.15-1.4.7-2a2.06,2.06,0,0,0,.6-1.85c-.1-.9.7-1.45.65-1.85a10.6,10.6,0,0,1,.65-1.9c.1-.6.45-.95.65-1.85a7.786,7.786,0,0,1,.65-1.9c.3-.55.2-.95.6-1.85.1-.9.75-1.1.65-1.85a6.054,6.054,0,0,1,.65-1.85,8.867,8.867,0,0,0,.65-1.8c.2-.4.3-.6.5-.7.2-.15.45-.15,1-.25.65.05,1.45.15,1.7-.05a.713.713,0,0,0,.3-.6A1.558,1.558,0,0,0,106.55-23.55Z" transform="translate(447.689 1093.972)"/>
    <path id="パス_72342" data-name="パス 72342" d="M16.4-3.95c-.4.1-.55.45-.75.55a.665.665,0,0,1-.35.15.775.775,0,0,0-.5.35c-.1.15-.5.25-.6.35-.45.35-.7.25-1.45.3a1.84,1.84,0,0,1-1.7-.55c-.2-.2-.7-.55-.7-.95a3.194,3.194,0,0,0-.3-1.1A4.021,4.021,0,0,1,9.9-6.5c.2-1.05-.15-2.4.05-2.9-.05-1.05,0-2.15,0-3.1-.35-1.25.15-1.7-.05-2.6-.2-.5.2-2.35.1-2.95a16.644,16.644,0,0,1,.05-3.15c0-.3.15-.75,1.1-.8.5.05.7,0,1.65,0,.4,0,.5.2,1.1-.1.2-.1.45.15.9.1.45,0,.65-.4.65-.8,0-.45-.25-.85-.6-.7a4.121,4.121,0,0,1-1.2-.1,1.4,1.4,0,0,0-.7.05.411.411,0,0,1-.35.05c-.65-.2-.75,0-1.3-.05-.45-.05-.75,0-.95-.25a.8.8,0,0,1-.2-.55c-.1-.75.1-1.05-.1-1.55-.1-.2,0-.35.05-.5a.493.493,0,0,0-.1-.5c-.2-.45.15-.9.1-1.35a7.723,7.723,0,0,1,.15-1.95c.1-.55-.05-1.1,0-1.55.05-.35-.3-.5-.6-.5-.25,0-.55.1-.55.4a12.426,12.426,0,0,1-.4,1.7,2.151,2.151,0,0,1-.25.85,2.889,2.889,0,0,0-.35.7c-.4.45-.25.8-.7,1.15a5.4,5.4,0,0,1-.9,1.05c-.4.65-.75.7-1.15,1.2-.25.25-.8.35-1.3.85-.3.35-1.1.25-1.4.55a.839.839,0,0,1-.65.2,5.17,5.17,0,0,0-.6.15c-.8.1-.85.35-.85.65v.2c0,.7.5.7.9.65a5.223,5.223,0,0,1,1.25,0c.55.05.8.3.65,1.1,0,1.05-.1,2.85-.05,4.2a11.255,11.255,0,0,1-.05,2.6,1.474,1.474,0,0,0,.05.7c.1.35.3.55.05,1.1-.25.45.15.9-.05,1.45-.15.75.1,1.05-.15,1.75a.423.423,0,0,0,0,.35,1.122,1.122,0,0,1,.05.85A2.043,2.043,0,0,0,3.25-6.7a.552.552,0,0,0,0,.4c0,.2.15.35,0,.65.15.6-.05,1.2.45,1.8s.45,1.4,1.15,1.75a2.037,2.037,0,0,0,.55.3c.3.1.5.15.7.7a5.98,5.98,0,0,0,2,.8A14.827,14.827,0,0,0,10,.05c.15,0,.3-.05.4-.05.95-.15,1.35-.1,1.95-.2a7.619,7.619,0,0,0,1.8-.6,5.294,5.294,0,0,0,1.65-.95,7.314,7.314,0,0,0,.65-.45c.35-.25.8-.35.85-.8a1.584,1.584,0,0,0-.3-.75A.546.546,0,0,0,16.4-3.95Zm27.35-8.2a8.866,8.866,0,0,1-.2-2.6c-.15-.5-.2-1.95-.7-2.35a12.289,12.289,0,0,1-1.1-2.1c-.3-.55-1.2-1.05-1.45-1.75-.6-.15-1.1-1.25-1.8-1.4-.85-.4-1.2-.65-2.1-1.05-.9-.1-1.7-.65-2.35-.65-.7.15-1.2-.25-2.1-.25a1.876,1.876,0,0,0-.5.05H30.8a6.646,6.646,0,0,0-1.9.2,6.464,6.464,0,0,0-2.4.7c-.95.55-1.55.4-2.1,1.05-.85.25-1.15,1-1.85,1.45-.85.35-.95,1.35-1.5,1.75-.5.65-.8,1.7-1.3,2.4a.882.882,0,0,0-.2.8,2.313,2.313,0,0,1-.35,1.25A1.708,1.708,0,0,0,19-13.5a2.9,2.9,0,0,1-.05,1.45,3.441,3.441,0,0,0-.1.65,10.025,10.025,0,0,0,.35,1.9c0,.65.7,1.8.7,2.3a9.645,9.645,0,0,0,1.3,2.3c.65.25.7.45.75.65a.938.938,0,0,0,.5.9c.65.45,1,1.05,1.9,1.35a2.13,2.13,0,0,1,.75.45,2.121,2.121,0,0,0,1.35.6c.9.15,1.55.8,2.35.65a11.434,11.434,0,0,0,2,.3,1.875,1.875,0,0,0,.55-.05h.3c.45,0,.8.05,1.1.05h.1a1.839,1.839,0,0,0,1.1-.3A12.133,12.133,0,0,0,36.3-.95c.8-.1,1.4-.75,2.15-1a4.755,4.755,0,0,0,1.8-1.45c.55-.2.7-1.25,1.5-1.75.2-.5.8-1.5,1.3-2.6a2.109,2.109,0,0,0,.1-.9.8.8,0,0,1,.4-.9A17.191,17.191,0,0,0,43.75-12.15Zm-7.2,2.1c-.15.7.2,1.8-.2,2.15-.2.85-.1,1.65-.4,2.1-.55.6-.35,1.05-.75,2A3.347,3.347,0,0,1,33.65-2a4.284,4.284,0,0,1-2.25.7,3.524,3.524,0,0,1-1.65-.35A4.935,4.935,0,0,1,28.1-3.1l-.55-.75c-.45-.45-.4-1.2-.65-1.6-.4-.45-.3-1.2-.45-1.75,0-.55-.35-.9-.2-1.8.2-1.15-.45-2.35-.15-3.15a4.78,4.78,0,0,1,.15-3.2c-.1-.9.4-1.05.2-1.8a5.339,5.339,0,0,1,.4-1.8c0-.85.7-.95.65-1.6-.05-.5.2-.6.5-.8a2.252,2.252,0,0,0,.45-.5,1.01,1.01,0,0,1,.75-.6,3.2,3.2,0,0,0,.55-.3,6.51,6.51,0,0,1,1.65-.3,3.532,3.532,0,0,1,2.35.8c.7.75,1.4,1.15,1.45,1.7.3.8.7,1,.75,2a14.177,14.177,0,0,0,.4,2.1c.4.35.4.65.3.9a2.138,2.138,0,0,0-.25.9c.1,1.1.5,1.95.2,2.5C36.45-11.75,36.8-10.7,36.55-10.05Z" transform="translate(568.689 1093.972)"/>
    <path id="パス_72343" data-name="パス 72343" d="M31.9-27.65c-.2-1.05,0-1.3-.25-2.35a11.46,11.46,0,0,0-.85-2.3c-.75-.9-.8-1.65-1.4-2-.75-.3-.8-1.15-1.65-1.3-.8-.2-1.4-.8-2.2-.9-.75.2-1.15-.35-1.9-.55-.85.2-1.35-.3-2-.2a8.62,8.62,0,0,1-1.95-.05,9.969,9.969,0,0,0-1.35-.1,5.037,5.037,0,0,0-.95.1,18.089,18.089,0,0,1-2.3.1,4.27,4.27,0,0,1-2.25.05,8.574,8.574,0,0,1-2.3.05c-1.05.05-2.45-.2-3.1-.05A9.416,9.416,0,0,1,5-37.25a3.265,3.265,0,0,0-.55-.1c-.2,0-.35.05-.6.05h-.2a.741.741,0,0,0-.35-.05H3.1c-.6,0-.8.3-.8.65,0,.45.35,1,.65.95,1.15.15,1.5-.05,2.6.1a1.238,1.238,0,0,1,1.15.95,23.675,23.675,0,0,1,.2,3,3.71,3.71,0,0,0,0,2.1c.15.45-.35,1.3,0,2.1.3.7-.1,1.45,0,2.1.05,1.1-.1,1.5-.05,2.6.5.35.1,1.15.05,1.65.05.65,0,1.65,0,2.1a3.749,3.749,0,0,0,0,2.1c.4.65-.05,1.5,0,2.1a.941.941,0,0,0,0,.65,1.618,1.618,0,0,1,0,1.45,5.7,5.7,0,0,0,0,2.1,4.264,4.264,0,0,0,0,2.1c-.3.95.45,1.6-.1,2.45-.2,1.75.15,2-.15,2.7-.05.6-.1.95-1.1,1-1,.4-1.75.05-3.1.15-.75-.05-1.05.3-1.05.75a.824.824,0,0,0,.75.85,2.869,2.869,0,0,1,.6-.05c.35,0,.65.05,1,.05H3.9A2.051,2.051,0,0,0,4.45-.7,1.722,1.722,0,0,1,4.9-.75c.4,0,.6.1.9.1a1.507,1.507,0,0,0,.65-.2c.4-.05,1.3.1,2,.1a1.382,1.382,0,0,0,.7-.1c.6-.3,1.3.15,2.15,0a6.235,6.235,0,0,1,2.4,0h2.45a2.509,2.509,0,0,0,1-.1.83.83,0,0,1,.8.2c.85.05,1.6.05,2.4.05.35-.05.55-.45.55-.85a.633.633,0,0,0-.6-.7c-.7-.15-1.05.05-1.7-.05a3.883,3.883,0,0,1-1.2.15l-.9-.15c-.45-.05-1.45.25-1.95-.25-.4-.4-.35-.85-.45-1.6-.2-.8.15-2.05,0-3.05a6.748,6.748,0,0,1,0-2.65c-.05-.5-.05-2.4-.05-3.2a1.223,1.223,0,0,1-.2-1.25,1.687,1.687,0,0,0,.2-.6c.05-1.05-.3-1.5.35-2.15.25-.25,1.15-.15,1.7-.1a5.126,5.126,0,0,1,1.85.15,1.105,1.105,0,0,0,.7,0,1.223,1.223,0,0,1,.95,0,17.881,17.881,0,0,0,2.25-.2,9.7,9.7,0,0,0,2.4-.45c.7-.35,1.15-.25,1.8-.8A1.554,1.554,0,0,1,27.1-19a1.279,1.279,0,0,0,.9-.55c.5-.65,1.4-1.1,1.6-1.45.6-.85.65-.85,1.25-1.8a5.868,5.868,0,0,0,.8-2.15c0-.6.3-1.5.3-2.3C31.95-27.35,31.9-27.5,31.9-27.65Zm-6.95.35c-.1,1.25-.4,2.4-.4,3.3a3.126,3.126,0,0,0-.2.7,1.27,1.27,0,0,1-.4.95c-.4.5-.3.95-.8,1.3a1.524,1.524,0,0,0-.35.5.929.929,0,0,1-.7.55c-.5.15-.5.7-1.3.8-.65.2-1,.5-1.6.45-.75.05-.85.35-1.85.2a12.751,12.751,0,0,1-1.9-.1c-.6-.1-1.45-.2-1.35-1.35,0-.8-.1-1.9-.05-2.6.05-.8,0-1.55,0-2.2a3.3,3.3,0,0,1,0-2.1c.3-.4-.55-1.25,0-2.25.3-.6-.15-1.35.05-2.35a24.075,24.075,0,0,1,0-3.3.992.992,0,0,1,1.3-.8,15.259,15.259,0,0,1,2.15-.05,7,7,0,0,1,2.15.15,13.456,13.456,0,0,1,2,.65,5.056,5.056,0,0,1,1.5,1.4,6.772,6.772,0,0,0,.8,1.6,16.115,16.115,0,0,0,.75,2.05A16.286,16.286,0,0,1,24.95-27.3ZM45.4-2.3a8.04,8.04,0,0,1-1.55-.05c-.65.3-1.3-.3-1.15-1.65a25.935,25.935,0,0,0-.1-3.3c-.5-.95.1-1.45,0-2.3a17.719,17.719,0,0,1,0-3.65c.15-1.1-.3-2.55,0-3.6a21.617,21.617,0,0,1,0-3.6c0-1.25-.35-2.6,0-3.6a28.829,28.829,0,0,1,0-3.6c.1-1.45-.55-1.95,0-2.75l.05-4.5c-.05-1.35.25-1.7.3-3.05A.974.974,0,0,0,42-39a.723.723,0,0,0-.35.1c-.9.2-1.3.65-2.3.85-.45.05-.95.55-1.7.4a4.673,4.673,0,0,0-2.05.2,14.5,14.5,0,0,0-2.5.1.808.808,0,0,0-.7.8.892.892,0,0,0,.8.85l1.95.15a.667.667,0,0,1,.5.2c.3.35.2,1.05.25,1.95,0,1.9.4,2.95,0,4.4-.3,1.15.5,1.65.25,2.65-.3,1.25.25,2.4-.15,3.7a2.918,2.918,0,0,0,0,1.15,2.419,2.419,0,0,1-.1,1.85c0,1.05.1,3.45,0,4.45a1.865,1.865,0,0,0,.1.6c.2.35.5.55-.1,1.55a11.779,11.779,0,0,1,0,3.25c.3,1.25-.3,2.1-.05,3.35a33.084,33.084,0,0,1-.2,3.6c0,.3-.3.45-.9.6-.7,0-1.05.05-1.65,0-.6,0-.85.35-.85.7,0,.4.3.85.6.85h.85c.6,0,1.2,0,2.25-.05h.3A3.264,3.264,0,0,0,37.1-.9c.3-.1.5-.15.7.2.9-.05,1.65-.05,2.35-.05h5.2a.709.709,0,0,0,.7-.8A.717.717,0,0,0,45.4-2.3ZM70.25-4.45c-.15.45-.4.5-.6,1a1.822,1.822,0,0,1-.6.55,1.188,1.188,0,0,1-.75.05c-1-.05-1.35-.9-1.4-1.65a29.848,29.848,0,0,1,0-3,1.69,1.69,0,0,1-.05-1.1,4.219,4.219,0,0,0,.1-.95c-.05-.7-.5-.95-.1-1.75.2-.35-.2-.75,0-1.45.15-.5-.25-1,0-1.75.15-.5-.05-1.25.05-2a21.2,21.2,0,0,0-.3-3.3c-.4-.2-.35-.4-.35-.7a1.294,1.294,0,0,0-.35-.9c-.4-.55-.75-1.2-1.3-1.4-.9-.3-1.1-.95-1.7-.9-.8.05-1.05-.55-1.75-.4-.75-.1-1.35-.15-1.8-.25a8.249,8.249,0,0,0-2.9.35,12.153,12.153,0,0,0-3.25.95c-.35.05-.45.2-.5.35-.1.15-.15.3-.65.3-.25,0-.45.4-1.1.95a3.248,3.248,0,0,0-1,2.65,2.839,2.839,0,0,0,.75,2,2.918,2.918,0,0,0,1.95.85c.8-.05,1.3.05,1.7-.75a3.021,3.021,0,0,0,.7-1.75,1.88,1.88,0,0,0-.7-1.6,1.033,1.033,0,0,1-.4-1.25c-.15-.3.7-1.1,1.3-1.2a18.314,18.314,0,0,1,2.1-.35c1.15.15,2.35.3,2.65,1.05.9.8.75,1.8.9,2.7a17.484,17.484,0,0,1,0,2.3,4.463,4.463,0,0,1,0,2c.1.35,0,.5-.2.85a1.115,1.115,0,0,1-1.1.55c-.95.1-1.15.5-2.05.35a10.231,10.231,0,0,0-2.35.45,6.26,6.26,0,0,0-2.55.9c-1,.2-1.05.85-2.05,1.3-1,.35-1.25,1.2-1.9,2.2a5.53,5.53,0,0,0-.65,2.6,2.851,2.851,0,0,0,.05.65.948.948,0,0,0,.2.6c.15.3.4.45.25,1.05.4.75.65,1.45,1.4,1.7a6.44,6.44,0,0,0,2,1.1,9.515,9.515,0,0,0,2.3.35,10.447,10.447,0,0,0,2.85-.5c.1-.3.35-.35.6-.4a.792.792,0,0,0,.6-.25c.4-.35,1.35-.5,1.6-1.2a.98.98,0,0,1,1.6.35A5.123,5.123,0,0,0,62.75-1a6.9,6.9,0,0,0,2.95.75,1.46,1.46,0,0,0,.45.1c.6,0,1.2-.5,1.5-.4a2.875,2.875,0,0,0,1.55-.8c.5-.5.95-.5,1.3-1.25a5.514,5.514,0,0,0,.95-1.25.451.451,0,0,0,.05-.25.76.76,0,0,0-.75-.7A.448.448,0,0,0,70.25-4.45Zm-9.6-.65A7.955,7.955,0,0,1,59.2-3.45a5.032,5.032,0,0,1-2.35.7,3.788,3.788,0,0,1-2.5-1.15,1.577,1.577,0,0,1-.65-1.4c0-.45-.4-.8-.25-1.3.25-.65.05-.8.2-1.2-.15-.6.4-.9.7-1.55a3.284,3.284,0,0,1,1.55-1.4c.6-.6,1.05-.3,1.8-.8.45-.5,1.15-.25,1.5-.4.9-.25,1.8-.05,1.65,1.1a.946.946,0,0,0,.05.75.859.859,0,0,1,0,.85.745.745,0,0,0-.1.7.952.952,0,0,1,.05.85c-.05.55.25.7.05,1.3C60.75-5.9,60.95-5.5,60.65-5.1ZM96.6-23.6a2.042,2.042,0,0,0-.8-.2c-.35,0-.55.2-.75.05-.35,0-1.2,0-1.75-.05-.35.35-1.2.1-1.75.05H91.3a5.181,5.181,0,0,1-1.75-.05c-.1,0-.15-.05-.2-.05-.45,0-.65.45-.65.85,0,.45.2.95.65,1a7.952,7.952,0,0,0,1.55,0,.99.99,0,0,1,1,.75c.1.4-.55,1.5-.65,2.25a12.626,12.626,0,0,1-.9,2.2c-.4,1.15-.65,1.4-1.05,2.45-.55.85-.55,1.8-1.05,2.55A10.1,10.1,0,0,1,86.9-8.95c-.2.6-.45.8-.7.8-.35,0-.65-.45-.8-.9a1.49,1.49,0,0,0-.35-.8.671.671,0,0,1-.2-.75,1.882,1.882,0,0,0-.35-.9,1.411,1.411,0,0,1-.35-1,10.436,10.436,0,0,1-.65-1.9c-.15-.6-.9-.8-.7-1.95.05-.3-.2-.5-.4-.8a1.453,1.453,0,0,1-.25-1.1c.05-.55-.45-.85-.65-1.7,0-.45-.25-.95-.25-1.4,0-.3.15-.5.6-.65a6.4,6.4,0,0,1,1.7,0,.692.692,0,0,0,.7-.75.85.85,0,0,0-.55-.85,13.772,13.772,0,0,0-2.9,0c-1.15.15-2.05-.2-3.35,0a25.6,25.6,0,0,1-3.4,0c-.7.05-1.4-.15-2.05-.15a1.477,1.477,0,0,0-.65.1.848.848,0,0,0-.45.8.735.735,0,0,0,.8.8,5.16,5.16,0,0,1,1.8.15c.4.05.55.1.7.5.25,1.05,1.2,1.75,1.05,2.4-.15.3.45.8.6,1.55,0,.75.5.75.6,1.55a4.368,4.368,0,0,0,.8,2.1c.2,1,.8,1.2.75,2.15a5.266,5.266,0,0,1,.8,2.1c.5.85.3,1.35.8,2.15a8.6,8.6,0,0,1,.8,2.15c.15.7.65,1.25.8,2.15A4.441,4.441,0,0,1,82-1c-.1.5.5,1,.5,1.9.15.7-.25.85-.2,1.45a2.283,2.283,0,0,1-.25.7,4.881,4.881,0,0,0-.4,1.15A24.524,24.524,0,0,0,80.6,6.75a10.231,10.231,0,0,0-1.3,2.3,1.68,1.68,0,0,1-1.45.7,1.43,1.43,0,0,1-1.3-1.2c-.2-.8-1.3-1.25-2.15-1.3a2.548,2.548,0,0,0-2.05.85c-.6.35-.2,1.45-.5,2-.2,1.15.2,1.55,1.05,2.35.6.8,1.4.6,2.5.9h.3a6.38,6.38,0,0,0,2.05-.6,3.074,3.074,0,0,0,1.8-1.45,5.449,5.449,0,0,0,1.35-2A15.275,15.275,0,0,0,82,6.8a1.219,1.219,0,0,1,.4-.85.52.52,0,0,0,.2-.4c.05-.55.65-1.35.65-1.6a1.282,1.282,0,0,1,.4-1.05,1.475,1.475,0,0,0,.25-.75,1.017,1.017,0,0,1,.35-.9A1.757,1.757,0,0,0,84.6.8a2.8,2.8,0,0,0,.35-.75c.1-.25.1-.4.3-.85,0-.6.75-.85.7-1.6a1.011,1.011,0,0,1,.25-1,1.8,1.8,0,0,0,.4-.6,1.6,1.6,0,0,1,.7-1.6,11.978,11.978,0,0,1,.65-1.6c.5-.6.1-1,.7-1.6.35-.75.3-.8.65-1.6a4.155,4.155,0,0,1,.65-1.6,4.517,4.517,0,0,0,.25-.8,1.463,1.463,0,0,1,.45-.8c.3-.15.25-.4.3-.75a1.122,1.122,0,0,1,.35-.85c.35-.25.35-.5.4-.85a3.259,3.259,0,0,1,.25-.75c0-.45.3-.8.7-1.55.2-.2.05-1.15.6-1.45,0-.4.25-.65.7-1.4a1.873,1.873,0,0,0,.35-.6c.1-.2.2-.35.8-.25a4.308,4.308,0,0,0,1.45.05c.3-.05.45-.4.45-.75C97-23.15,96.85-23.55,96.6-23.6Z" transform="translate(624.689 1093.972)"/>
    <path id="パス_66646" data-name="パス 66646" d="M26.328,14.61a3.93,3.93,0,0,1-2.267-2.268L19.335,0,14.61,12.341a3.934,3.934,0,0,1-2.267,2.268L0,19.335l12.343,4.724a3.93,3.93,0,0,1,2.267,2.268l4.725,12.341,4.726-12.341a3.93,3.93,0,0,1,2.267-2.268L38.67,19.335Zm-6.992,6.668a1.943,1.943,0,1,1,1.942-1.942,1.942,1.942,0,0,1-1.942,1.942" transform="translate(411.155 1050.181) rotate(30)"/>
    <path id="パス_66994" data-name="パス 66994" d="M26.328,14.61a3.93,3.93,0,0,1-2.267-2.268L19.335,0,14.61,12.341a3.934,3.934,0,0,1-2.267,2.268L0,19.335l12.343,4.724a3.93,3.93,0,0,1,2.267,2.268l4.725,12.341,4.726-12.341a3.93,3.93,0,0,1,2.267-2.268L38.67,19.335Zm-6.992,6.668a1.943,1.943,0,1,1,1.942-1.942,1.942,1.942,0,0,1-1.942,1.942" transform="translate(742.024 1050.181) rotate(30)"/>
  </g>
</svg>
