<svg xmlns="http://www.w3.org/2000/svg" width="530.158" height="62.94" viewBox="0 0 530.158 62.94">
  <g id="グループ_16724" data-name="グループ 16724" transform="translate(-274.45 -3932.529)">
    <path id="パス_68110" data-name="パス 68110" d="M31.37,17.408a4.683,4.683,0,0,1-2.7-2.7L23.038,0,17.408,14.7a4.688,4.688,0,0,1-2.7,2.7L0,23.038l14.707,5.629a4.683,4.683,0,0,1,2.7,2.7l5.631,14.7,5.631-14.7a4.683,4.683,0,0,1,2.7-2.7l14.707-5.629Zm-8.332,7.945a2.315,2.315,0,1,1,2.314-2.314,2.314,2.314,0,0,1-2.314,2.314" transform="translate(297.488 3932.529) rotate(30)"/>
    <path id="パス_68111" data-name="パス 68111" d="M31.37,17.408a4.683,4.683,0,0,1-2.7-2.7L23.038,0,17.408,14.7a4.688,4.688,0,0,1-2.7,2.7L0,23.038l14.707,5.629a4.683,4.683,0,0,1,2.7,2.7l5.631,14.7,5.631-14.7a4.683,4.683,0,0,1,2.7-2.7l14.707-5.629Zm-8.332,7.945a2.315,2.315,0,1,1,2.314-2.314,2.314,2.314,0,0,1-2.314,2.314" transform="translate(764.704 3932.529) rotate(30)"/>
    <path id="パス_72306" data-name="パス 72306" d="M32.45-26.3c-.05-.6-.3-.7,0-1.5V-28a5.664,5.664,0,0,1-.05-1.6v-.55c0-.8-.05-1.75-.05-2.3v-2.1A1.722,1.722,0,0,0,32.4-35a4.5,4.5,0,0,1,0-1.45v-.25c0-.6-.35-.7-.7-.7a1.541,1.541,0,0,0-.5.05c-.55.15-1.65-.05-2,.15a14.8,14.8,0,0,1-2,.1,12.844,12.844,0,0,0-2,.05c-.5.35-1,0-2,0a38.333,38.333,0,0,1-4.15.1c-1.25-.05-1.5.25-2.65-.1-.9.1-2.45,0-3.45,0-1.35-.05-2.15.05-3.4,0a23.809,23.809,0,0,1-3.8-.1,6.23,6.23,0,0,1-1.9-.1c-.75.2-1.15-.1-1.7-.1h-.2a2.434,2.434,0,0,1-.6.05c-.4,0-.65,0-.7.45-.15.9.1,1.45,0,2.25a9.312,9.312,0,0,1,.1,2.2,2.773,2.773,0,0,0-.15.85A16.256,16.256,0,0,1,.7-29.9a9.236,9.236,0,0,0-.15,1.35,4.318,4.318,0,0,0,.05.75c.1.45-.1.75-.1,1.2a.989.989,0,0,0,.1.5c.15.25-.05.45-.05.8A.634.634,0,0,0,.6-25a.712.712,0,0,0,1.35-.3,5.288,5.288,0,0,1,.2-2.15c.35-.9,0-1.35.4-2.15.45-.85.35-1.2.7-1.85.05-.8.5-1,.95-1.45.45-.1.6-.7,1.3-1.1a5.1,5.1,0,0,1,1.75-.8c.45.1.95-.55,1.9-.35a10.3,10.3,0,0,1,2.25-.1,1.162,1.162,0,0,1,1.25.4c.5.35.3.85.3,1.3-.1.75.25,1.4,0,2.3-.35.65.3,1.35,0,2.05-.05.8.4,1.55,0,2.1-.25.35.25,1.2,0,2.05a9.452,9.452,0,0,0,0,2.1c.4.25.35.45.2.7a1.7,1.7,0,0,0-.2.8c.05.7,0,1.35,0,2.65,0,.95-.3,1.8.1,2.55a.878.878,0,0,1,.05.7.921.921,0,0,0-.15.9c.25.65-.05,1.3,0,2.1a7.3,7.3,0,0,1-.1,2.35c-.15.45.55,1.05.1,1.8a24.277,24.277,0,0,0,0,2.7,9.854,9.854,0,0,1-.05,2.15c.05.8-.4,1.3-1.45,1.25-.55,0-1,.05-1.8,0-.65.35-.9-.1-1.65,0-.65.1-.85.4-.85.75a.867.867,0,0,0,.7.85c.9-.05,1.35-.05,2.45-.05S12-.7,12.8-.7a.747.747,0,0,1,.75-.15,2.126,2.126,0,0,0,.55.1h.1c.4-.05.9.05,1.45.05a3.224,3.224,0,0,0,1-.15c.65-.2.95.15,1.45.15a2.2,2.2,0,0,0,.5-.1c.95.05,1.3-.1,2.3,0,.4,0,1-.05,2.1,0,.7.05,1.3.15,2,.15h.35c.35,0,.6-.45.6-.85,0-.5-.25-.95-.85-.85a8.7,8.7,0,0,1-1.6.05c-.9.05-1.35-.1-1.8,0-.7.15-1.1-.5-1.25-1.25,0-.5.05-2.1,0-2.8-.35-.6.15-1.55,0-2.05a4.918,4.918,0,0,1,0-2.1,9.255,9.255,0,0,1,0-2.05,1.446,1.446,0,0,1,0-1.3,1.423,1.423,0,0,0,0-.8,1.6,1.6,0,0,1,0-1.3.782.782,0,0,0,0-.75c-.2-.4.15-1.25,0-2.1-.15-.45.15-1.4,0-2.1-.35-.8.3-1.35,0-2.05a14.644,14.644,0,0,1,0-2.1,2.567,2.567,0,0,0-.25-.6.794.794,0,0,1,.15-.9,21.766,21.766,0,0,0,.1-2.65c0-.45-.05-1.45,0-2.05-.05-1.1.05-1.4,0-2.45a1.252,1.252,0,0,1,.35-1.45c.2-.3,1.2.1,1.8-.15.85-.05,1.15.3,2,.05a1.307,1.307,0,0,1,.8.1,2.688,2.688,0,0,0,1.05.4,3.85,3.85,0,0,1,1.8.75l1.1,1.15a4.334,4.334,0,0,1,.7,1.65c.15.35.65,1.05.6,1.6-.1.55.35,1.5.2,2.15,0,.65.1,1.3.15,2.15a.637.637,0,0,0,.7.65.891.891,0,0,0,.65-.3,1.372,1.372,0,0,0,.1-.65ZM54.05-4.45c-.15.45-.4.5-.6,1a1.822,1.822,0,0,1-.6.55,1.188,1.188,0,0,1-.75.05c-1-.05-1.35-.9-1.4-1.65a29.852,29.852,0,0,1,0-3,1.69,1.69,0,0,1-.05-1.1,4.219,4.219,0,0,0,.1-.95c-.05-.7-.5-.95-.1-1.75.2-.35-.2-.75,0-1.45.15-.5-.25-1,0-1.75.15-.5-.05-1.25.05-2a21.2,21.2,0,0,0-.3-3.3c-.4-.2-.35-.4-.35-.7a1.294,1.294,0,0,0-.35-.9c-.4-.55-.75-1.2-1.3-1.4-.9-.3-1.1-.95-1.7-.9-.8.05-1.05-.55-1.75-.4-.75-.1-1.35-.15-1.8-.25a8.249,8.249,0,0,0-2.9.35,12.153,12.153,0,0,0-3.25.95c-.35.05-.45.2-.5.35-.1.15-.15.3-.65.3-.25,0-.45.4-1.1.95a3.248,3.248,0,0,0-1,2.65,2.839,2.839,0,0,0,.75,2,2.918,2.918,0,0,0,1.95.85c.8-.05,1.3.05,1.7-.75a3.02,3.02,0,0,0,.7-1.75,1.88,1.88,0,0,0-.7-1.6,1.033,1.033,0,0,1-.4-1.25c-.15-.3.7-1.1,1.3-1.2a18.314,18.314,0,0,1,2.1-.35c1.15.15,2.35.3,2.65,1.05.9.8.75,1.8.9,2.7a17.483,17.483,0,0,1,0,2.3,4.463,4.463,0,0,1,0,2c.1.35,0,.5-.2.85a1.115,1.115,0,0,1-1.1.55c-.95.1-1.15.5-2.05.35A10.231,10.231,0,0,0,39-12.6a6.26,6.26,0,0,0-2.55.9c-1,.2-1.05.85-2.05,1.3-1,.35-1.25,1.2-1.9,2.2a5.53,5.53,0,0,0-.65,2.6,2.851,2.851,0,0,0,.05.65.948.948,0,0,0,.2.6c.15.3.4.45.25,1.05.4.75.65,1.45,1.4,1.7a6.44,6.44,0,0,0,2,1.1,9.515,9.515,0,0,0,2.3.35,10.447,10.447,0,0,0,2.85-.5c.1-.3.35-.35.6-.4a.792.792,0,0,0,.6-.25c.4-.35,1.35-.5,1.6-1.2a.98.98,0,0,1,1.6.35A5.123,5.123,0,0,0,46.55-1a6.9,6.9,0,0,0,2.95.75,1.46,1.46,0,0,0,.45.1c.6,0,1.2-.5,1.5-.4A2.875,2.875,0,0,0,53-1.35c.5-.5.95-.5,1.3-1.25a5.514,5.514,0,0,0,.95-1.25.451.451,0,0,0,.05-.25.76.76,0,0,0-.75-.7A.448.448,0,0,0,54.05-4.45Zm-9.6-.65A7.955,7.955,0,0,1,43-3.45a5.032,5.032,0,0,1-2.35.7,3.788,3.788,0,0,1-2.5-1.15,1.577,1.577,0,0,1-.65-1.4c0-.45-.4-.8-.25-1.3.25-.65.05-.8.2-1.2-.15-.6.4-.9.7-1.55a3.284,3.284,0,0,1,1.55-1.4c.6-.6,1.05-.3,1.8-.8.45-.5,1.15-.25,1.5-.4.9-.25,1.8-.05,1.65,1.1a.946.946,0,0,0,.05.75.859.859,0,0,1,0,.85.745.745,0,0,0-.1.7.952.952,0,0,1,.05.85c-.05.55.25.7.05,1.3C44.55-5.9,44.75-5.5,44.45-5.1Zm40.6,3.05A1.527,1.527,0,0,0,83.9-2.3a3.469,3.469,0,0,1-1.55-.15c-.45-.35-.8-.55-.95-.95-.3-.5-.7-.7-.9-1.15-.6-.3-.55-1.1-.9-1.3a1.526,1.526,0,0,1-.45-.65,1.737,1.737,0,0,0-.3-.45c-.5-.15-.55-.35-.55-.5a.308.308,0,0,0-.2-.35,1.163,1.163,0,0,1-.45-.55c-.05-.2-.05-.4-.2-.5-.75-.65-.7-1-1.15-1.6A8.273,8.273,0,0,1,75-12.4c-.55-.45-.75-1.15-1.2-1.7a19.991,19.991,0,0,1-1.05-1.75.945.945,0,0,1,.2-1.5,13.982,13.982,0,0,1,1.65-1.5,3.615,3.615,0,0,0,1-.85,3.449,3.449,0,0,1,.75-.75c.55-.4.5-.6.95-.85l.4-.25a2.5,2.5,0,0,1,1.65-.5c.4-.1.55.05,1.05,0,.3-.05.85.15,1.2-.15.5-.15.4-1.25-.05-1.45-.3-.15-.7,0-1.2-.05-.45-.05-1,.15-1.3.05-1.05.15-1.7-.05-2.35.05a15.1,15.1,0,0,0-2.2,0,4.957,4.957,0,0,1-1.45-.05,1.247,1.247,0,0,0-1.25.2.808.808,0,0,0,.45,1.35c.6-.05.8.05,1.55-.05.3-.1,1,0,.95.5,0,.3-.4.5-.5.8a11.929,11.929,0,0,1-1.7,1.65c-.55.6-1.25,1-2.05,1.85-.55.4-.7.85-1.6,1.4-.4.35-.65.75-1.25.85a.649.649,0,0,1-1.1-.5v-2.65a2.91,2.91,0,0,0-.05-1.95c-.2-.3,0-.55.1-.85a.964.964,0,0,0,0-.65c-.3-.7.15-1.1-.1-1.6-.4-.8.05-1.35.1-2.3a3.456,3.456,0,0,0-.2-.9.808.808,0,0,1,.1-.8,4.689,4.689,0,0,0,.1-2.2,7.63,7.63,0,0,0,0-1.85c.05-.6-.45-1.6.1-2.05.05-.7.1-1.65.1-2.6,0-1,.3-1.45.15-2,.25-.45-.4-.95-1-.95a.942.942,0,0,0-.4.1c-.95.55-1.25.4-1.8.75-.8.55-1.1.2-2.05.55-.6.25-1.4.05-2.25.3-.6.05-1-.1-1.95-.05-.65.1-.9.45-.9.85a.956.956,0,0,0,.8.9,6.831,6.831,0,0,1,1.75,0c.7-.2,1.1,1.15.95,2.3a8.023,8.023,0,0,0,0,1.9,3.471,3.471,0,0,1,0,1.9c-.05.6.3.95-.1,1.65,0,.75,0,1.35.05,1.8a.849.849,0,0,1,.25,1.15,2.434,2.434,0,0,0-.15,1.3,12.7,12.7,0,0,1-.05,2.75,29.852,29.852,0,0,0,0,3c.45.85-.1,1.15-.1,2.35.3.8-.25,2.85.1,3.65a24.15,24.15,0,0,1,0,2.7.914.914,0,0,1,.15.85A3.029,3.029,0,0,0,60-7.1l.05,2.5c-.15.9.15,1.6-.45,2.05-.35.4-1,.25-1.15.3-.8.1-1.15-.1-1.5,0a.728.728,0,0,0-.6.8c0,.4.2.75.65.75a2.3,2.3,0,0,1,.5-.05c.4,0,.65.1.95.1a.634.634,0,0,0,.3-.05,1.384,1.384,0,0,1,.45-.05c.3,0,.55.05.8.05l.35-.05A13,13,0,0,1,63.1-.7a10.51,10.51,0,0,1,1.7-.05,5.451,5.451,0,0,0,.85-.05c.55.05,1,.1,1.4.1a1.875,1.875,0,0,0,.55-.05,7.4,7.4,0,0,1,1,.05,2.533,2.533,0,0,0,.65-.1c.25.05.35-.25.35-.6,0-.45-.15-.9-.55-.9-.55,0-.85.05-1.65,0-.5-.2-.95-.55-.75-1.25a25.185,25.185,0,0,1-.05-2.7c.3-1.1-.15-1.95,0-3.05a4.3,4.3,0,0,1-.05-1.95c.05-.55.7-1.05,1.1-.85a1.532,1.532,0,0,1,.8.85,1.756,1.756,0,0,0,.5.4.8.8,0,0,1,.4.75c.6.8.6,1.3,1,1.4.65.65.65,1.15.9,1.35.35.35.6,1.1.9,1.3.25.4.85.5.9,1.3.35.45.55.9.9,1.3a1.988,1.988,0,0,1,.3.8c0,.2-.15.35-.6.4a5.316,5.316,0,0,0-1.55.05c-.15,0-.35.35-.35.75a.72.72,0,0,0,.8.75h1.7L77.2-.75c.25-.25.55,0,1.55,0,.85,0,1.3.05,1.95.05h3.5a1.541,1.541,0,0,0,.5-.05c.35,0,.55-.35.55-.75A.752.752,0,0,0,85.05-2.05Zm22.1-4.5c-.7.85-.85,1.35-1.15,1.65-.2.85-1.2.9-1.55,1.6-.9.8-1.35.5-1.95,1.05a5.635,5.635,0,0,1-2.5.35,5,5,0,0,1-2.15-.25,3.587,3.587,0,0,1-1.65-.7,2.9,2.9,0,0,1-1.3-1.1c-.5-.55-.35-.8-.95-1.45-.45-.5-.35-1.4-.6-1.65-.3-.25-.25-.5-.25-.9a2.451,2.451,0,0,0-.15-.95,3.469,3.469,0,0,1-.2-1.95A1.674,1.674,0,0,0,92.7-12a2.111,2.111,0,0,1,0-.8l.05-.2c.35-.45.6-.8,1.1-.8H97.4c.95-.25,1.2.15,2.35,0a7.364,7.364,0,0,1,2.35,0c.85.15,1.75-.1,3.1.05a11.766,11.766,0,0,0,2.9-.15c.4.1.85-.4.85-1a.851.851,0,0,0-.05-.35,3.856,3.856,0,0,0-.8-2.75,1.719,1.719,0,0,1-.4-.7,2.026,2.026,0,0,0-.4-.65c-.4-.15-.35-.7-.95-1.25a5.216,5.216,0,0,0-1.75-1.6,11.477,11.477,0,0,0-2-1.15,3.8,3.8,0,0,0-2.2-.7c-.65.15-1.65-.3-2.15-.3-.1,0-.15.05-.2.05-.9.3-1.4-.1-2.5.25a5.492,5.492,0,0,0-2.3.7c-.55.4-1.7.6-2.1,1.15-.45.5-1.5.65-1.85,1.45-.35.75-1.1.9-1.45,1.8-.35.85-.95,1.05-1.15,2.1a.9.9,0,0,1-.15.95,1.045,1.045,0,0,0-.4.65,25.373,25.373,0,0,0-.45,2.8.975.975,0,0,0,.05.4,2.642,2.642,0,0,0-.05.6c0,.7.25,1.1.3,1.95a3.381,3.381,0,0,0,.7,2.35c.3,1.05.85,1.1,1.1,2A4.04,4.04,0,0,0,89.3-3.4a1.258,1.258,0,0,0,.6.35c.35.1.6.15.7.8A12.837,12.837,0,0,0,93.2-.9a7.161,7.161,0,0,0,2.3.65,2.934,2.934,0,0,0,1.15.2h.95a1.384,1.384,0,0,1,.45.05,9.242,9.242,0,0,1,1.2-.05h.5a4.978,4.978,0,0,0,1.8-.35,5.96,5.96,0,0,0,2.75-1.15l1-.65c.15-.45.75-.75,1.25-1.3.3-.4.7-.85,1-1.3.2-.45.65-.6.8-1.2.15-.4-.35-.85-.75-.85A.418.418,0,0,0,107.15-6.55ZM93.4-18.3c.15-.6.1-1.45.6-1.95a10.761,10.761,0,0,1,1.6-2A4.012,4.012,0,0,1,98.15-23a3.668,3.668,0,0,1,2.45.8c.65.4.8,1.25,1.3,2,.55.7.15,1.5.55,2.05a11.139,11.139,0,0,1,.1,2.2c.05.75-.15,1-1.2.95-1.4-.05-2.55.05-3.65,0-.8.05-2.5,0-3.45,0-1.05,0-1.45-.4-1.3-1.55a1.264,1.264,0,0,0,.15-.9A1.106,1.106,0,0,1,93.4-18.3Z" transform="translate(337.392 3982)"/>
    <path id="パス_72305" data-name="パス 72305" d="M26.75-12.15a8.865,8.865,0,0,1-.2-2.6c-.15-.5-.2-1.95-.7-2.35a12.289,12.289,0,0,1-1.1-2.1c-.3-.55-1.2-1.05-1.45-1.75-.6-.15-1.1-1.25-1.8-1.4-.85-.4-1.2-.65-2.1-1.05-.9-.1-1.7-.65-2.35-.65-.7.15-1.2-.25-2.1-.25a1.876,1.876,0,0,0-.5.05H13.8a6.646,6.646,0,0,0-1.9.2,6.464,6.464,0,0,0-2.4.7c-.95.55-1.55.4-2.1,1.05-.85.25-1.15,1-1.85,1.45-.85.35-.95,1.35-1.5,1.75-.5.65-.8,1.7-1.3,2.4a.882.882,0,0,0-.2.8,2.313,2.313,0,0,1-.35,1.25A1.708,1.708,0,0,0,2-13.5a2.9,2.9,0,0,1-.05,1.45,3.441,3.441,0,0,0-.1.65A10.025,10.025,0,0,0,2.2-9.5c0,.65.7,1.8.7,2.3A9.645,9.645,0,0,0,4.2-4.9c.65.25.7.45.75.65a.938.938,0,0,0,.5.9c.65.45,1,1.05,1.9,1.35a2.13,2.13,0,0,1,.75.45,2.121,2.121,0,0,0,1.35.6c.9.15,1.55.8,2.35.65a11.434,11.434,0,0,0,2,.3,1.875,1.875,0,0,0,.55-.05h.3c.45,0,.8.05,1.1.05h.1a1.839,1.839,0,0,0,1.1-.3A12.133,12.133,0,0,0,19.3-.95c.8-.1,1.4-.75,2.15-1a4.755,4.755,0,0,0,1.8-1.45c.55-.2.7-1.25,1.5-1.75.2-.5.8-1.5,1.3-2.6a2.109,2.109,0,0,0,.1-.9.8.8,0,0,1,.4-.9A17.19,17.19,0,0,0,26.75-12.15Zm-7.2,2.1c-.15.7.2,1.8-.2,2.15-.2.85-.1,1.65-.4,2.1-.55.6-.35,1.05-.75,2A3.347,3.347,0,0,1,16.65-2a4.284,4.284,0,0,1-2.25.7,3.524,3.524,0,0,1-1.65-.35A4.935,4.935,0,0,1,11.1-3.1l-.55-.75c-.45-.45-.4-1.2-.65-1.6-.4-.45-.3-1.2-.45-1.75,0-.55-.35-.9-.2-1.8.2-1.15-.45-2.35-.15-3.15a4.78,4.78,0,0,1,.15-3.2c-.1-.9.4-1.05.2-1.8a5.339,5.339,0,0,1,.4-1.8c0-.85.7-.95.65-1.6-.05-.5.2-.6.5-.8a2.252,2.252,0,0,0,.45-.5,1.01,1.01,0,0,1,.75-.6,3.2,3.2,0,0,0,.55-.3,6.51,6.51,0,0,1,1.65-.3,3.532,3.532,0,0,1,2.35.8c.7.75,1.4,1.15,1.45,1.7.3.8.7,1,.75,2a14.177,14.177,0,0,0,.4,2.1c.4.35.4.65.3.9a2.138,2.138,0,0,0-.25.9c.1,1.1.5,1.95.2,2.5C19.45-11.75,19.8-10.7,19.55-10.05Zm37,7.85c-.35-.15-.5-.05-.9-.1a8.067,8.067,0,0,0-1.1,0c-.7-.05-.85-.2-.9-1.2-.05-1.25-.05-3.55-.05-5.1-.3-.85,0-1.7,0-3.1a16.242,16.242,0,0,0,.05-3.8c-.4-.5-.25-.8-.2-1.35a5.2,5.2,0,0,0,.05-1.3,10.489,10.489,0,0,0-.3-1.65,2.023,2.023,0,0,1-.35-.95c-.05-.25-.1-.45-.3-.55-.55-.4-1.1-1.2-1.55-1.6a1.054,1.054,0,0,0-.55-.25,1.384,1.384,0,0,1-.9-.55c-.55-.5-1.6-.15-2.05-.5-.55-.4-1.35-.05-1.9-.05-.8.3-1.6.05-1.95.2-.55.3-1.55.7-2,1a7.6,7.6,0,0,0-2.3,1.5.757.757,0,0,1-.55.35c-.15,0-.3-.15-.35-.5-.1-.95.15-1.85.05-2.25a.887.887,0,0,0-.85-.6.976.976,0,0,0-.35.05,7.178,7.178,0,0,1-1.8.35,5.984,5.984,0,0,1-2.25.3c-.55.2-.95-.05-1.85.15-1.1.15-1.65.05-2.2.15-.95.25-.65,1.65.15,1.5A5.8,5.8,0,0,1,31-21.9c.55.15.8.75.85,1.7.05.7-.05,1.85,0,2.85a5.971,5.971,0,0,0,0,2.5,13.665,13.665,0,0,0,0,2.5,14.478,14.478,0,0,1,0,2.55,1.267,1.267,0,0,0,.15,1,1.082,1.082,0,0,1-.15,1.3c0,1.3-.1,2.3,0,3.4a2.274,2.274,0,0,1-.25,1.4.834.834,0,0,1-.75.45,11.742,11.742,0,0,0-1.3.05c-.4.1-.9-.15-1.1.2a.856.856,0,0,0-.35.65.7.7,0,0,0,.65.65h.3c.4,0,.75-.05,1.1-.05.5,0,1,.05,1.55.05h.4a24.869,24.869,0,0,1,2.6-.1,16.334,16.334,0,0,1,3.15.1,9.638,9.638,0,0,1,2.4,0h.1c.65,0,.95-.4.95-.75a.875.875,0,0,0-.35-.7c-.2-.3-.65-.05-.9-.15-.25-.05-.65,0-.8-.15-.55-.15-.75-.45-.8-1.45-.05-1.05-.05-2-.05-2.75-.5-.65-.4-.95-.2-1.3a1.848,1.848,0,0,0,.25-.55c.1-1-.3-1.15,0-2.05.25-.35-.1-1.55,0-2.05-.25-.8.3-1.7,0-2.1a3.537,3.537,0,0,1,0-2.05c.3-.4-.1-1.05,0-2.05a3.31,3.31,0,0,1,1.4-1.65,7.439,7.439,0,0,1,1.8-.85,6.686,6.686,0,0,1,1.9-.5c.55.3,1.65.2,1.8.5.1.4.75.3.9.95a9.834,9.834,0,0,1,.45,3.25,22.834,22.834,0,0,0,0,3.7,1.786,1.786,0,0,1,.15,1.45,1.162,1.162,0,0,0,0,1,1.213,1.213,0,0,1-.1,1.15c-.15.2,0,.4.1.6a.652.652,0,0,1-.05.6c-.25.4.2.95,0,1.6a7.943,7.943,0,0,0-.1,1.9c.1,1.4.1,2.35-.4,2.7a3.063,3.063,0,0,1-1.7.1c-.7.1-.9,1.4-.1,1.6.1,0,.2.05.3.05.3,0,.6-.1.95-.1.1,0,.2.05.3.05.25,0,.5.05.7.05.25,0,.5-.05.7-.05.3-.3.7-.05.9-.05.45,0,.85.1,1.25.1a2.319,2.319,0,0,0,.95-.2C51.7-.9,52-.75,53.3-.7l.35.05c.5,0,1-.15,1.45-.1h1.5c.25,0,.45-.3.45-.65A.812.812,0,0,0,56.55-2.2Z" transform="translate(462.392 3982)"/>
    <path id="パス_72304" data-name="パス 72304" d="M16.4-3.95c-.4.1-.55.45-.75.55a.665.665,0,0,1-.35.15.775.775,0,0,0-.5.35c-.1.15-.5.25-.6.35-.45.35-.7.25-1.45.3a1.84,1.84,0,0,1-1.7-.55c-.2-.2-.7-.55-.7-.95a3.194,3.194,0,0,0-.3-1.1A4.021,4.021,0,0,1,9.9-6.5c.2-1.05-.15-2.4.05-2.9-.05-1.05,0-2.15,0-3.1-.35-1.25.15-1.7-.05-2.6-.2-.5.2-2.35.1-2.95a16.644,16.644,0,0,1,.05-3.15c0-.3.15-.75,1.1-.8.5.05.7,0,1.65,0,.4,0,.5.2,1.1-.1.2-.1.45.15.9.1.45,0,.65-.4.65-.8,0-.45-.25-.85-.6-.7a4.121,4.121,0,0,1-1.2-.1,1.4,1.4,0,0,0-.7.05.411.411,0,0,1-.35.05c-.65-.2-.75,0-1.3-.05-.45-.05-.75,0-.95-.25a.8.8,0,0,1-.2-.55c-.1-.75.1-1.05-.1-1.55-.1-.2,0-.35.05-.5a.493.493,0,0,0-.1-.5c-.2-.45.15-.9.1-1.35a7.723,7.723,0,0,1,.15-1.95c.1-.55-.05-1.1,0-1.55.05-.35-.3-.5-.6-.5-.25,0-.55.1-.55.4a12.426,12.426,0,0,1-.4,1.7,2.151,2.151,0,0,1-.25.85,2.889,2.889,0,0,0-.35.7c-.4.45-.25.8-.7,1.15a5.4,5.4,0,0,1-.9,1.05c-.4.65-.75.7-1.15,1.2-.25.25-.8.35-1.3.85-.3.35-1.1.25-1.4.55a.839.839,0,0,1-.65.2,5.17,5.17,0,0,0-.6.15c-.8.1-.85.35-.85.65v.2c0,.7.5.7.9.65a5.223,5.223,0,0,1,1.25,0c.55.05.8.3.65,1.1,0,1.05-.1,2.85-.05,4.2a11.255,11.255,0,0,1-.05,2.6,1.474,1.474,0,0,0,.05.7c.1.35.3.55.05,1.1-.25.45.15.9-.05,1.45-.15.75.1,1.05-.15,1.75a.423.423,0,0,0,0,.35,1.122,1.122,0,0,1,.05.85A2.043,2.043,0,0,0,3.25-6.7a.552.552,0,0,0,0,.4c0,.2.15.35,0,.65.15.6-.05,1.2.45,1.8s.45,1.4,1.15,1.75a2.037,2.037,0,0,0,.55.3c.3.1.5.15.7.7a5.98,5.98,0,0,0,2,.8A14.827,14.827,0,0,0,10,.05c.15,0,.3-.05.4-.05.95-.15,1.35-.1,1.95-.2a7.619,7.619,0,0,0,1.8-.6,5.294,5.294,0,0,0,1.65-.95,7.314,7.314,0,0,0,.65-.45c.35-.25.8-.35.85-.8a1.584,1.584,0,0,0-.3-.75A.546.546,0,0,0,16.4-3.95Zm30.25,1.9c-.4-.3-.55-.2-1-.3-.2-.05-.65.1-.85.05a1.177,1.177,0,0,1-.9-.8,2.931,2.931,0,0,1-.2-1.55,9.289,9.289,0,0,0,0-2.05,25.191,25.191,0,0,0-.05-3.3c-.35-.45-.2-.65-.05-1a2.606,2.606,0,0,0,.1-.7c.2-.95-.25-2.55,0-3.5.05-.95-.2-1.65-.1-2.55-.4-.5-.05-1.5-.55-2.45a7.956,7.956,0,0,0-1.45-1.9.857.857,0,0,1-.8-.55,1.2,1.2,0,0,0-.75-.6c-.8-.35-1.45-.75-1.95-.9a6.58,6.58,0,0,0-2.2-.2,3.483,3.483,0,0,1-1.1.15,1.767,1.767,0,0,0-1,.1A8.882,8.882,0,0,0,31.5-23a22.09,22.09,0,0,0-2.15,1.55c-.7.4-1.15.2-.95-1.2l-.05-2.7c-.45-.65.15-1.35-.15-2a.791.791,0,0,1,.05-.9c.1-.2.2-.4.05-.6a1.6,1.6,0,0,1-.05-1.35,1.479,1.479,0,0,0,.1-.85,2.936,2.936,0,0,1-.05-1.6c0-.75.15-1.15.1-2.15a19.165,19.165,0,0,1,.25-3c.2-.45-.35-1.1-.9-1.1a.611.611,0,0,0-.45.2,1.609,1.609,0,0,1-1.1.4,1.068,1.068,0,0,0-.65.25c-.9.1-1.05.5-1.95.5-1.05-.2-1.9.45-2.55.3-.8-.05-1.3.1-1.9.05a.723.723,0,0,0-.75.8.654.654,0,0,0,.7.7c.5.05.9-.05,1.7-.05.65.05,1,.4.95.95a7.5,7.5,0,0,0,.05,1.85c.05.3.3.85,0,1.1v2.1a2.21,2.21,0,0,1,.1.75,2.208,2.208,0,0,0-.1.85.536.536,0,0,1,.05.6,1.067,1.067,0,0,0-.05.6,5.188,5.188,0,0,0,.2.5c.15.25.25.45-.1.95a7.234,7.234,0,0,0-.1,2.1c.35.85-.3,1.4,0,2.1.3,1.05-.1,1.2,0,2.15.3.85-.2,1.7,0,2.1.45.7-.15,1.65,0,2.1.5.7-.35,1.35,0,2.15.3.7-.1,1.45,0,2.1.3,1.05-.1,1.75,0,2.1a9.825,9.825,0,0,1,0,2.1c0,1.15,0,2.6-.05,3.55-.05.35-.2.45-.4.5-.15.05-.35.05-.45.15a2.486,2.486,0,0,0-1.05.05.817.817,0,0,1-.35,0,.8.8,0,0,0-.6,0,.63.63,0,0,0-.65.65v.25c0,.45.15.7.6.7h.7a2.06,2.06,0,0,0,.6-.05,7.6,7.6,0,0,1,1.4-.1,1.07,1.07,0,0,1,.7,0,.723.723,0,0,0,.35.1c.05,0,.1-.05.2-.05a17.136,17.136,0,0,1,2-.15,21.859,21.859,0,0,0,2.3.15h.75c.2,0,.55.05.85.05h.2a2.242,2.242,0,0,1,.55-.05c.3,0,.6.05,1.05.05.5,0,.7-.15.75-.65s0-.7-.45-.95c-.15-.15-.35,0-.65-.05-.35,0-1,.15-1.3,0-.25-.15-.4-.25-.45-.5-.05-.3.05-.85.05-1.75a.98.98,0,0,1-.1-1.25c0-.6-.05-1.1-.05-1.6-.5-.6.15-1.5-.05-1.8a1.009,1.009,0,0,1-.1-.9.592.592,0,0,0,.05-.4.657.657,0,0,1-.05-.6.822.822,0,0,0,.05-.5c-.15-.7.2-1.2.05-2a3.284,3.284,0,0,1,0-1.4c.25-1-.1-1.9.1-2.75a6.362,6.362,0,0,1,.35-1.05c.5-.6.6-.95,1.3-1.35a12.674,12.674,0,0,1,1.8-1,8.562,8.562,0,0,1,2.25-.4,3.163,3.163,0,0,1,2.55,1.15,5.414,5.414,0,0,1,.5,3c.1.95-.25,2.8,0,3.75-.1,1.25.05,2.85,0,3.8a12.816,12.816,0,0,0,0,2.4c.1.85-.2,1.95,0,2.35A4.311,4.311,0,0,0,37.1-4c.05.6.15.85-.3,1.3-.15.15-.5.65-1,.45-.4-.15-.65,0-1-.05a.659.659,0,0,0-.75.65c0,.55.05.9.6.9h.15a12.992,12.992,0,0,1,1.4,0h1.05a1.1,1.1,0,0,1,.4.05c.9-.05,1.8-.05,2.75-.1,1.1,0,1.75.05,2.35.05h.45a7.569,7.569,0,0,1,1.45.05H45.9a.851.851,0,0,0,.35-.05c.55-.05.7-.3.7-.6A1.143,1.143,0,0,0,46.65-2.05ZM69.7-6.55c-.7.85-.85,1.35-1.15,1.65-.2.85-1.2.9-1.55,1.6-.9.8-1.35.5-1.95,1.05a5.635,5.635,0,0,1-2.5.35,5,5,0,0,1-2.15-.25,3.587,3.587,0,0,1-1.65-.7,2.9,2.9,0,0,1-1.3-1.1c-.5-.55-.35-.8-.95-1.45-.45-.5-.35-1.4-.6-1.65-.3-.25-.25-.5-.25-.9a2.451,2.451,0,0,0-.15-.95,3.469,3.469,0,0,1-.2-1.95A1.674,1.674,0,0,0,55.25-12a2.111,2.111,0,0,1,0-.8l.05-.2c.35-.45.6-.8,1.1-.8h3.55c.95-.25,1.2.15,2.35,0a7.364,7.364,0,0,1,2.35,0c.85.15,1.75-.1,3.1.05a11.766,11.766,0,0,0,2.9-.15c.4.1.85-.4.85-1a.851.851,0,0,0-.05-.35,3.856,3.856,0,0,0-.8-2.75,1.719,1.719,0,0,1-.4-.7,2.026,2.026,0,0,0-.4-.65c-.4-.15-.35-.7-.95-1.25a5.216,5.216,0,0,0-1.75-1.6,11.477,11.477,0,0,0-2-1.15,3.8,3.8,0,0,0-2.2-.7c-.65.15-1.65-.3-2.15-.3-.1,0-.15.05-.2.05-.9.3-1.4-.1-2.5.25a5.492,5.492,0,0,0-2.3.7c-.55.4-1.7.6-2.1,1.15-.45.5-1.5.65-1.85,1.45-.35.75-1.1.9-1.45,1.8-.35.85-.95,1.05-1.15,2.1a.9.9,0,0,1-.15.95,1.045,1.045,0,0,0-.4.65,25.372,25.372,0,0,0-.45,2.8.975.975,0,0,0,.05.4,2.642,2.642,0,0,0-.05.6c0,.7.25,1.1.3,1.95a3.381,3.381,0,0,0,.7,2.35c.3,1.05.85,1.1,1.1,2a4.04,4.04,0,0,0,1.5,1.75,1.258,1.258,0,0,0,.6.35c.35.1.6.15.7.8A12.837,12.837,0,0,0,55.75-.9a7.161,7.161,0,0,0,2.3.65,2.933,2.933,0,0,0,1.15.2h.95A1.384,1.384,0,0,1,60.6,0a9.242,9.242,0,0,1,1.2-.05h.5A4.978,4.978,0,0,0,64.1-.4a5.96,5.96,0,0,0,2.75-1.15l1-.65c.15-.45.75-.75,1.25-1.3.3-.4.7-.85,1-1.3.2-.45.65-.6.8-1.2.15-.4-.35-.85-.75-.85A.418.418,0,0,0,69.7-6.55ZM55.95-18.3c.15-.6.1-1.45.6-1.95a10.761,10.761,0,0,1,1.6-2A4.012,4.012,0,0,1,60.7-23a3.668,3.668,0,0,1,2.45.8c.65.4.8,1.25,1.3,2,.55.7.15,1.5.55,2.05a11.139,11.139,0,0,1,.1,2.2c.05.75-.15,1-1.2.95-1.4-.05-2.55.05-3.65,0-.8.05-2.5,0-3.45,0-1.05,0-1.45-.4-1.3-1.55a1.264,1.264,0,0,0,.15-.9A1.106,1.106,0,0,1,55.95-18.3Z" transform="translate(534.392 3982)"/>
    <path id="パス_72303" data-name="パス 72303" d="M29.35,11.4a5.513,5.513,0,0,0-1.55-.1,1.862,1.862,0,0,1-1.45-1.4,24.307,24.307,0,0,0-.15-3.35.8.8,0,0,1-.1-1.1.7.7,0,0,0,0-.55c0-.4-.35-1.6,0-2.15a12.692,12.692,0,0,1-.05-1.5c0-.35.1-1.35.05-1.6a.5.5,0,0,1,0-.75.372.372,0,0,0,.05-.45c-.45-.75.15-1.25-.05-1.9-.15-.65.25-1.65-.05-2.65-.2-.7.25-1.05,0-1.75a5.182,5.182,0,0,0-.05-1,1.552,1.552,0,0,1,.1-.9c.3-1.05-.1-2,0-3.1.05-.75-.1-1.75,0-3.15a23.422,23.422,0,0,1,0-2.65c-.45-.55-.25-.85-.1-1.25a1.452,1.452,0,0,0,.15-.7c.05-.5.05-1.4.7-1.45.6-.05,1.15.1,2.1,0,.3.05.45-.3.45-.65s-.15-.75-.45-.8c-.9-.2-1,.2-2.05-.05-.7-.15-1.7-.05-2.25-.2-1.15-.2-1.8,0-2.25-.25-.6-.25-1.2-.2-1.7-.45a.634.634,0,0,0-.3-.05.869.869,0,0,0-.85.65c-.3.35.05,1.2.05,1.9.15.85-.2,1.05-.7.6a6.827,6.827,0,0,1-1.15-.95c-.5,0-.55-.1-.65-.3a1.084,1.084,0,0,0-.35-.3,6.254,6.254,0,0,1-1.55-.75,10.115,10.115,0,0,0-3.25-.6c-.95-.25-1.55.2-2.3.3a10.176,10.176,0,0,0-2.2,1c-.35.15-.45.25-.5.4-.15.2-.1.45-1,.7A15.545,15.545,0,0,0,4.5-20.2c-.15.55-1.15,1.35-1.1,1.9l-.85,2.1a6.151,6.151,0,0,0-.5,2.15A2.3,2.3,0,0,0,2.1-13c.1.45.25.75-.2,1.15,0,.15-.05.3-.05.45a12.174,12.174,0,0,0,.2,1.75,7.508,7.508,0,0,0,.5,2.15c.35.75.3,1.65.8,2,.2.35,1,1.4,1.15,1.8.25.55,1,.75,1.45,1.5a.609.609,0,0,0,.6.3c.35.1.75.1.95.75A15.759,15.759,0,0,0,9.7-.3c1-.1,1.3.6,2.3.3a2.97,2.97,0,0,0,2.2-.25c.95.1,1.1-.65,1.9-.7A4.861,4.861,0,0,0,18.3-2.3a1.225,1.225,0,0,1,.8-.4c.3,0,.45.2.35.7.05.5-.2,1.35.15,1.95a.657.657,0,0,1,.05.6.845.845,0,0,0-.05.85c.25.3.2.45.15.6-.1.15-.2.25-.2.4,0,.65-.05,1-.05,1.55.2.85-.25,1.45,0,2.4a31.835,31.835,0,0,1-.05,3.8c.05.9-.4,1.15-.8,1.2a13.319,13.319,0,0,1-2.05.05c-.35,0-.65.45-.65.85a.618.618,0,0,0,.7.65h1.6a9.144,9.144,0,0,0,1.65-.1,6.067,6.067,0,0,0,.9.05c.6,0,1.2-.05,2.05-.05.1,0,.2.05.3.05a.845.845,0,0,0,.45-.1.522.522,0,0,1,.55-.05c.5.15.75-.2,1.5.15,1.3,0,2.2.05,3.7.05.4,0,.55-.35.55-.75C29.9,11.8,29.7,11.4,29.35,11.4ZM19.6-8.3a6.7,6.7,0,0,1,0,2,6.017,6.017,0,0,1-1.05,1.7A4.7,4.7,0,0,0,17.3-3.55c-.35.35-.65.25-1.4.7a1,1,0,0,1-.95.2,1.147,1.147,0,0,0-.7.05,4.056,4.056,0,0,1-2.65-.95c-1.05-.8-1.15-1.7-1.6-2.4-.55-.7-.6-2.2-.75-2.95a5.461,5.461,0,0,1-.2-2.8c.15-1.15-.3-1.8.2-3A10.29,10.29,0,0,1,10-17.9a6.825,6.825,0,0,1,1.65-2.5,6,6,0,0,1,2.85-1,3.144,3.144,0,0,1,2.1.5c.7.4,1.15,1.05,1.6,1.3a3.6,3.6,0,0,1,1.05,1.8,3.151,3.151,0,0,1,.35,2.15c-.15.8.05,2.2-.05,3.25a2.436,2.436,0,0,0,.1.75.764.764,0,0,1,.05.8C19.45-10.2,19.85-9.3,19.6-8.3ZM57.8-2.45a4.407,4.407,0,0,0-1.6.05c-.6.2-1.65-1.2-1.3-1.9.05-1.15-.05-2.5,0-3.35.3-1.2-.15-1.5,0-2.75-.25-.95.3-1.55,0-2.75a16.581,16.581,0,0,1,0-2.75c.55-1.25-.35-2.05,0-2.75l.05-1.65c.25-.95-.2-1.75.1-2.35a1.3,1.3,0,0,0-.95-2,.379.379,0,0,0-.2.1,12.646,12.646,0,0,0-1.95.45c-.75.5-1.3-.05-2.25.35a14.144,14.144,0,0,0-2.25.1,13.277,13.277,0,0,0-2,0,.973.973,0,0,0-.55.9c0,.3.2.65.8.8a5.489,5.489,0,0,0,1.7.1c.85,0,1.35.4,1.05,1.3a19.05,19.05,0,0,1,0,2.4,9.825,9.825,0,0,0,0,2.1c.1.75-.2,1.7,0,2.1-.15.4.3,1.55,0,2.05-.2.7.1,1.1,0,2.1-.3.9.25,1.75,0,2.05-.1.55.15,1.35,0,2.1A4.179,4.179,0,0,0,47.3-4.5l-.5.45a2.637,2.637,0,0,0-.7.5,3.479,3.479,0,0,1-3,.9c-1,.3-1.5-.45-1.9-.45a2.876,2.876,0,0,1-1-1.2,1.613,1.613,0,0,1-.45-1.65,8.654,8.654,0,0,1-.1-1.95,7.968,7.968,0,0,0,0-3.1c-.15-1.2.3-1.85,0-3.05a20.623,20.623,0,0,0,0-2.5,6.924,6.924,0,0,0,.05-2.5A5.645,5.645,0,0,0,39.95-21c.15-1.1.1-1.7.25-2.7a.765.765,0,0,0-.7-.95.451.451,0,0,0-.25.05c-.65.15-1.65.45-2.15.55-.85-.05-1.75.35-2.15.3a10.8,10.8,0,0,0-2.15-.1,3.428,3.428,0,0,0-2.05.2.94.94,0,0,0-.4.85.8.8,0,0,0,.45.8,2.733,2.733,0,0,0,1.6.2c.6-.05.95.6.85,2,.15,1-.35,3.1-.05,3.85.1.75-.3,2.45-.05,3.2-.1,1.05,0,2.4-.05,3.15.25,1.1-.2,1.55.05,2.7-.2,1.25.15,1.5.65,2.6A15.36,15.36,0,0,0,35-2.55c.35.55,1.15.75,1.65,1.3a3.849,3.849,0,0,0,2,.8,6.644,6.644,0,0,1,2.1.3c1,0,1.65-.35,2.3-.3.9-.1,1.1-.55,2-.8a4.285,4.285,0,0,0,2.2-1.25c.65-.6,1.15-.35,1.3.25,0,.55-.1.9-.1,1.55,0,.4.35.7.9.85.1,0,.15.05.25.05.6,0,1.2-.6,1.8-.45.5-.1,1.45-.2,2-.35a18.385,18.385,0,0,1,2.35,0c.75-.1,1.55.2,2-.05a.889.889,0,0,0,.75-.85A1,1,0,0,0,57.8-2.45Zm6.5-28.7c.65.55,1.1.95,1.75.95a4.588,4.588,0,0,0,3.3-.75,2.754,2.754,0,0,0,1.2-2.6,4.29,4.29,0,0,0-.9-2.25.908.908,0,0,1-.75-.55.788.788,0,0,0-.35-.35,2.722,2.722,0,0,0-1.25-.45.634.634,0,0,0-.3.05,3.886,3.886,0,0,0-1.95.65c-.15.1-.15.4-.7.5-.6.9-1.1,1.2-.75,2.35a3,3,0,0,0,.15,1.45.848.848,0,0,0,.3.4A.842.842,0,0,1,64.3-31.15ZM73.05-2.2a3.774,3.774,0,0,0-1.75-.1.894.894,0,0,1-1.15-.95c0-1.25-.1-2.05,0-3.1a1.458,1.458,0,0,1-.3-.75c0-.3.2-.5.25-.9a8.055,8.055,0,0,1,.05-2.45,12.931,12.931,0,0,1-.05-2.05c-.05-.75-.55-1.15.05-2.1.1-.6-.4-.85-.1-1.7.05-.6-.45-1.2.05-1.75.05-1,0-2.4.1-3.05a9.989,9.989,0,0,1,.1-1.75,2.255,2.255,0,0,0,0-1.3c-.35-.6-.95-.45-1.35-.3-1,.55-1.35.3-1.9.45a5.508,5.508,0,0,1-1.95.2,17.585,17.585,0,0,1-2.25.15c-.7.05-1.2.05-2,.05-.35-.05-.6.4-.6.8a.682.682,0,0,0,.75.75c.5.1,1.05-.05,1.75.05.4.05.55.45.7.95.1.55.15,3.1.15,3.75v2.5c-.3.7.2,2.35,0,3.05-.35,1.15.4,1.95.05,2.95-.35.65.25,1.3-.05,2.4a12.286,12.286,0,0,0-.2,3c.1.65-.1,1.05-.9,1.1H60.6c-.4-.1-.8.4-.8.85,0,.35.25.75.9.75h.75c1,0,1.55-.05,2.4-.1,1.05-.05,1.9,0,2.85-.05a24.939,24.939,0,0,0,3.35,0,3.633,3.633,0,0,0,1.25.2c.5,0,1-.05,1.6-.1H73c.25,0,.4-.35.4-.7V-1.6C73.4-1.9,73.3-2.2,73.05-2.2Zm24-4a25.832,25.832,0,0,1,.3-3.35.537.537,0,0,0-.6-.55.9.9,0,0,0-.8.45,1.874,1.874,0,0,0-.25.85,2.942,2.942,0,0,1-.1.85c-.2.65-.15,1.3-.55,1.8.05,1.1-1,1.15-1.2,2a3.253,3.253,0,0,1-2.2,1.4c-1.15.1-2.05.2-3.4.2a15.047,15.047,0,0,1-2.6,0c-1.1.05-1.7-.4-1.4-.85.35-.5.4-1.4.75-1.45.35-.15.35-.75.85-1.3A6.153,6.153,0,0,0,86.7-7.4a1.506,1.506,0,0,0,.2-.7c.05-.45.1-.55.65-.6.35-.5.35-.85.8-1.3.2-.35.25-.5.35-.65a3.348,3.348,0,0,1,.5-.6c.55-.1.45-1,.85-1.3a7.268,7.268,0,0,0,.85-1.3c.35-.55.3-.9.85-1.25.3-.1.3-.4.3-.65a.554.554,0,0,1,.25-.5,1.035,1.035,0,0,0,.5-.7c.05-.2.2-.4.6-.65.35-.3.3-.8.85-1.35.6-.6.8-.9.85-1.3-.1-.3.7-1.05.8-1.25a.97.97,0,0,0,.45-.5,3.264,3.264,0,0,1,.4-.35c.3-.4.15-1.2-.1-1.3a2.2,2.2,0,0,0-.7-.15c-.15,0-.3.05-.45.05a3.084,3.084,0,0,1-1.2.1,4.6,4.6,0,0,0-1.95.15c-1.1.2-1.5-.25-2.2-.1-1.25.2-2.6-.1-3.8,0-.5.4-.95-.15-1.75,0a6.471,6.471,0,0,1-2.2,0,7.569,7.569,0,0,0-1.5-.1H79.05a1.269,1.269,0,0,0-.8.2c-.15.1-.2.35-.15.65.1,1-.35,1.55-.05,2.15.25.45-.35,1.2-.15,1.85a.556.556,0,0,1,.1.7.888.888,0,0,0-.2.5,2.536,2.536,0,0,1-.1.45,1.225,1.225,0,0,0-.05.75.535.535,0,0,1,0,.4.908.908,0,0,0,.1.85c.15.3,1.3.55,1.45-.05.1-.4-.05-1.15.15-1.5a.828.828,0,0,0,0-.6.452.452,0,0,1,.2-.55l.15-1.25c.1-.9.85-.95,1.15-1.45.25-.45,1.25-.5,1.65-.8a3.689,3.689,0,0,1,1.9-.4,3.262,3.262,0,0,1,1.8-.1,1.593,1.593,0,0,1,1.5,0c.65-.1,1.05-.15,1.25,0,.15.1.2.25.15.55-.1.3-.25,1-.85,1.25-.5.7-.8.85-.85,1.2a14.187,14.187,0,0,1-1.55,2.15c-.7.55-1.05,1.75-1.5,2.15a8.641,8.641,0,0,1-1.45,2.2,16.459,16.459,0,0,0-1.5,2.3,10.752,10.752,0,0,0-1.05,1.75c.15.7-.3,1-1.05,1.45a.746.746,0,0,0-.15.5.441.441,0,0,1-.45.4c-.25.3-.55,1.15-.8,1.25-.55.6-.45,1.1-.8,1.25-.35.35-.3.8-1,1.2a.653.653,0,0,0-.35.6A2.029,2.029,0,0,0,76-.85a.955.955,0,0,0,.75.25,1.876,1.876,0,0,0,.5-.05A9.022,9.022,0,0,1,79.6-.7a9.517,9.517,0,0,1,2.95-.05c.65.15,1.5-.15,2.9,0a27.075,27.075,0,0,0,2.85,0,9.734,9.734,0,0,1,3.6.05c1.35.1,2.1-.1,3.6.1.1.1.2.1.4.1.4,0,1-.3.8-.8a16.853,16.853,0,0,0,.05-2.2C96.55-4.5,97.25-5.1,97.05-6.2Zm5.65-24.65c.25.7.35,1.75.55,2.2.35.2.35.4.35.75a2.8,2.8,0,0,0,.1,1.05c.2.65.8,1.2.4,1.8.2.55.55,1.4.35,1.8a3.517,3.517,0,0,1,.3,1.8c-.05.45.7.95.25,1.8a2.976,2.976,0,0,0,.2,1.85c.15,1.5-.05,2.2.15,3.65.15,1.05-.35,1.65-.05,2.4a.923.923,0,0,0,1.75-.25,7.71,7.71,0,0,0,0-2.4c.3-1.25-.1-2.35.05-3.5a4.122,4.122,0,0,1,.2-1.85c.2-.7-.1-1.15.25-1.85a7,7,0,0,0,.35-1.85,8.742,8.742,0,0,0,.35-1.8,4.372,4.372,0,0,0,.4-1.85c.3-.6.05-.85.35-1.5a1.327,1.327,0,0,0,.1-.85.975.975,0,0,1,.25-.65c.15-.2,0-.4-.05-.6s-.05-.45.35-.7c.3-.4,0-.8.2-1.75a3.859,3.859,0,0,0,.1-.75,4.147,4.147,0,0,0-.8-2.35c-.1-.35-.4-.35-.7-.45a.631.631,0,0,1-.5-.5,6.6,6.6,0,0,0-1.6-.45,1.46,1.46,0,0,0-.45.1h-.4a2.668,2.668,0,0,0-2.35,1.35,4.533,4.533,0,0,0-.75,2.4v.4a8.206,8.206,0,0,0-.1,1.15A1.88,1.88,0,0,0,102.7-30.85ZM109.9-3.7c-.15-.45.05-1.45-.35-1.7a1.15,1.15,0,0,1-.5-.7c-.1-.2-.15-.35-.45-.45a1.277,1.277,0,0,1-.8-.6,1.423,1.423,0,0,0-1.2-.4c-1,.05-2.2,0-3.05.95a3.9,3.9,0,0,0-1.25,2.3,2.51,2.51,0,0,0,.1.6,3.639,3.639,0,0,0,.8,2.35c.5.1.65.2.7.35s.05.35.25.45a6.931,6.931,0,0,0,2.25.45c1-.2,2.05-.3,2.35-1.1a1.658,1.658,0,0,1,.45-.65c.2-.2.4-.35.35-.65-.05-.5.4-.55.4-1C109.95-3.55,109.9-3.6,109.9-3.7Zm7.6-27.15c.25.7.35,1.75.55,2.2.35.2.35.4.35.75a2.8,2.8,0,0,0,.1,1.05c.2.65.8,1.2.4,1.8.2.55.55,1.4.35,1.8a3.517,3.517,0,0,1,.3,1.8c-.05.45.7.95.25,1.8a2.976,2.976,0,0,0,.2,1.85c.15,1.5-.05,2.2.15,3.65.15,1.05-.35,1.65-.05,2.4a.923.923,0,0,0,1.75-.25,7.71,7.71,0,0,0,0-2.4c.3-1.25-.1-2.35.05-3.5a4.122,4.122,0,0,1,.2-1.85c.2-.7-.1-1.15.25-1.85a7,7,0,0,0,.35-1.85,8.742,8.742,0,0,0,.35-1.8,4.372,4.372,0,0,0,.4-1.85c.3-.6.05-.85.35-1.5a1.327,1.327,0,0,0,.1-.85.975.975,0,0,1,.25-.65c.15-.2,0-.4-.05-.6s-.05-.45.35-.7c.3-.4,0-.8.2-1.75a3.859,3.859,0,0,0,.1-.75,4.147,4.147,0,0,0-.8-2.35c-.1-.35-.4-.35-.7-.45a.631.631,0,0,1-.5-.5,6.6,6.6,0,0,0-1.6-.45,1.46,1.46,0,0,0-.45.1h-.4a2.668,2.668,0,0,0-2.35,1.35,4.533,4.533,0,0,0-.75,2.4v.4a8.206,8.206,0,0,0-.1,1.15A1.88,1.88,0,0,0,117.5-30.85ZM124.7-3.7c-.15-.45.05-1.45-.35-1.7a1.15,1.15,0,0,1-.5-.7c-.1-.2-.15-.35-.45-.45a1.277,1.277,0,0,1-.8-.6,1.423,1.423,0,0,0-1.2-.4c-1,.05-2.2,0-3.05.95a3.9,3.9,0,0,0-1.25,2.3,2.51,2.51,0,0,0,.1.6,3.639,3.639,0,0,0,.8,2.35c.5.1.65.2.7.35s.05.35.25.45a6.931,6.931,0,0,0,2.25.45c1-.2,2.05-.3,2.35-1.1a1.658,1.658,0,0,1,.45-.65c.2-.2.4-.35.35-.65-.05-.5.4-.55.4-1C124.75-3.55,124.7-3.6,124.7-3.7Z" transform="translate(619.392 3982)"/>
  </g>
</svg>
