<svg xmlns="http://www.w3.org/2000/svg" width="116.326" height="27.02" viewBox="0 0 116.326 27.02">
  <path id="FV_btn_sp_text_en" d="M-41.965.98c2.94,0,4.858-2.422,4.858-6.188S-39.025-11.4-41.965-11.4s-4.858,2.422-4.858,6.188S-44.891.98-41.965.98Zm0-1.82c-1.736,0-2.884-1.624-2.884-4.368s1.148-4.368,2.884-4.368,2.9,1.624,2.9,4.368S-40.215-.84-41.965-.84ZM-29.855.742V-5.446h1.12V-7.238h-1.12V-9c0-1.064.462-1.316.98-1.316h.126v-1.694h-.126a2.453,2.453,0,0,0-2.66,2.786v1.988h-2.03V-9c0-1.064.462-1.316.98-1.316h.126v-1.694h-.126a2.447,2.447,0,0,0-2.66,2.786v1.988h-1.022v1.792h1.022V.742h1.68V-5.446h2.03V.742Zm7.784-2.408A3.079,3.079,0,0,1-24.479-.6a1.9,1.9,0,0,1-1.9-2.156V-2.87h4.69v-.56c-.014-2.17-.98-4.06-3.136-4.06-2.24,0-3.248,1.96-3.248,4.312,0,2.408,1.232,4.186,3.528,4.186A4.2,4.2,0,0,0-22.071.322ZM-26.341-4.3a1.66,1.66,0,0,1,1.5-1.638c1.078,0,1.442.8,1.47,1.638Zm7.546,5.04V-4.8a1.046,1.046,0,0,1,1.148-.9,3.194,3.194,0,0,1,.378.028V-7.49h-.126a2.074,2.074,0,0,0-1.4.448v-.2h-1.722V.742Zm4.508,0V-7.252h-1.82V.742ZM-15.2-9.1a1.246,1.246,0,0,0,1.232-1.246,1.268,1.268,0,0,0-1.232-1.3,1.257,1.257,0,0,0-1.218,1.3A1.225,1.225,0,0,0-15.2-9.1ZM-7.175.742V-4.984A2.269,2.269,0,0,0-9.569-7.5H-9.6a2.227,2.227,0,0,0-1.344.462v-.21h-1.68V.742h1.68V-4.872c.1-.7.476-1.12,1.12-1.12s.952.532.952,1.162V.742Zm4.536-1.988A2.728,2.728,0,0,0,.049-4.284,3.43,3.43,0,0,0-.413-6.006c.028-.084.364-.14.714-.14.07,0,.154.014.224.014v-2.03H.259a1.957,1.957,0,0,0-1.946.868,2.661,2.661,0,0,0-1.134-.252c-1.96,0-2.912,1.5-2.912,3.318a3.138,3.138,0,0,0,.7,2.1,1.787,1.787,0,0,0-.8,1.554A1.83,1.83,0,0,0-5.257.8,1.944,1.944,0,0,0-6.1,2.534a2.9,2.9,0,0,0,3.22,2.842,3.318,3.318,0,0,0,3.6-3.262A2.176,2.176,0,0,0-.889-.168,8.453,8.453,0,0,0-3.073-.28C-3.8-.28-4.207-.294-4.207-.7c0-.2.238-.644.616-.644a3.121,3.121,0,0,0,.924.1Zm-1.12,2.6a12.51,12.51,0,0,1,2.38.14A.84.84,0,0,1-1,2.24,1.711,1.711,0,0,1-2.863,3.78a1.487,1.487,0,0,1-1.6-1.414A.945.945,0,0,1-3.759,1.358Zm.966-4.074c-.882,0-1.372-.616-1.372-1.554,0-.994.462-1.68,1.344-1.68.854,0,1.288.714,1.288,1.638S-2.009-2.716-2.793-2.716ZM11.641,5.306V-7.238H9.919v.2a2.641,2.641,0,0,0-1.47-.448c-1.96,0-3.3,1.806-3.3,4.214C5.145-.784,6.489.938,8.477.938A2.676,2.676,0,0,0,9.919.518V5.306ZM9.919-1.47a1.562,1.562,0,0,1-1.386.7c-1.05,0-1.666-1.078-1.666-2.506S7.511-5.8,8.561-5.8a1.573,1.573,0,0,1,1.358.714ZM18.781.742v-7.98H17.115v5.656A1.089,1.089,0,0,1,16-.6a.977.977,0,0,1-.98-1.106v-5.53h-1.68V-1.5A2.282,2.282,0,0,0,15.771.994H15.8A2.392,2.392,0,0,0,17.115.6v.14Zm3.486,0V-7.252h-1.82V.742ZM21.357-9.1a1.246,1.246,0,0,0,1.232-1.246,1.268,1.268,0,0,0-1.232-1.3,1.257,1.257,0,0,0-1.218,1.3A1.225,1.225,0,0,0,21.357-9.1ZM28.609.742V-.868H25.585L28.4-5.978v-1.26h-4.55v1.61h2.478L23.5-.546V.742Zm5.88,0V-.868H31.465l2.814-5.11v-1.26h-4.55v1.61h2.478L29.379-.546V.742Zm6.79-2.408A3.079,3.079,0,0,1,38.871-.6a1.9,1.9,0,0,1-1.9-2.156V-2.87h4.69v-.56c-.014-2.17-.98-4.06-3.136-4.06-2.24,0-3.248,1.96-3.248,4.312,0,2.408,1.232,4.186,3.528,4.186A4.2,4.2,0,0,0,41.279.322ZM37.009-4.3a1.66,1.66,0,0,1,1.5-1.638c1.078,0,1.442.8,1.47,1.638Zm5.4,4.8A3.944,3.944,0,0,0,44.457.98a2.479,2.479,0,0,0,2.548-2.548,2.669,2.669,0,0,0-1.9-2.576c-.014-.014-.392-.2-.532-.252a.787.787,0,0,1-.546-.784.688.688,0,0,1,.756-.728h.07a2.7,2.7,0,0,1,1.554.574V-7.2a4.486,4.486,0,0,0-1.68-.322,2.2,2.2,0,0,0-2.31,2.31A2.428,2.428,0,0,0,44.121-2.8c.882.35,1.19.714,1.19,1.232a.912.912,0,0,1-.924.938,2.89,2.89,0,0,1-1.974-.826ZM-52.535,14.742V8.932c0-1.778-1.414-2.408-2.912-2.408a6.084,6.084,0,0,0-1.974.336V8.526a5.183,5.183,0,0,1,1.75-.35c.84,0,1.47.322,1.47,1.092v.518a4.587,4.587,0,0,0-1.092-.112,2.671,2.671,0,0,0-2.884,2.716A2.37,2.37,0,0,0-55.713,14.9a2.229,2.229,0,0,0,1.512-.518v.364ZM-54.2,12.8a1.815,1.815,0,0,1-1.316.56.961.961,0,0,1-1.064-1.036c0-.238.042-1.092,1.386-1.092a1.965,1.965,0,0,1,.994.238Zm8.26-.378a2.309,2.309,0,0,1-1.736.77c-.42,0-1.9-.224-1.9-2.436,0-1.47.728-2.45,1.96-2.45a2.116,2.116,0,0,1,1.54.616v-2a3.655,3.655,0,0,0-1.75-.392c-1.988,0-3.486,1.68-3.486,4.228,0,2.576,1.526,4.214,3.514,4.214a3.343,3.343,0,0,0,1.862-.448Zm2.912,2.324V9.2a1.046,1.046,0,0,1,1.148-.9,3.194,3.194,0,0,1,.378.028V6.51h-.126a2.074,2.074,0,0,0-1.4.448v-.2h-1.722v7.98Zm5.642.224c2.044,0,3.4-1.666,3.4-4.214s-1.358-4.228-3.4-4.228-3.388,1.68-3.388,4.228S-39.417,14.966-37.387,14.966Zm0-1.68c-.994,0-1.68-.9-1.68-2.534s.686-2.562,1.68-2.562c1.036,0,1.694.924,1.694,2.562S-36.351,13.286-37.387,13.286Zm4.2,1.218a3.944,3.944,0,0,0,2.044.476,2.478,2.478,0,0,0,2.548-2.548,2.669,2.669,0,0,0-1.9-2.576c-.014-.014-.392-.2-.532-.252a.787.787,0,0,1-.546-.784.688.688,0,0,1,.756-.728h.07a2.7,2.7,0,0,1,1.554.574V6.8a4.486,4.486,0,0,0-1.68-.322,2.2,2.2,0,0,0-2.31,2.31A2.428,2.428,0,0,0-31.479,11.2c.882.35,1.19.714,1.19,1.232a.912.912,0,0,1-.924.938,2.89,2.89,0,0,1-1.974-.826Zm5.32,0a3.944,3.944,0,0,0,2.044.476,2.478,2.478,0,0,0,2.548-2.548,2.669,2.669,0,0,0-1.9-2.576c-.014-.014-.392-.2-.532-.252a.787.787,0,0,1-.546-.784.688.688,0,0,1,.756-.728h.07a2.7,2.7,0,0,1,1.554.574V6.8a4.486,4.486,0,0,0-1.68-.322,2.2,2.2,0,0,0-2.31,2.31A2.428,2.428,0,0,0-26.159,11.2c.882.35,1.19.714,1.19,1.232a.912.912,0,0,1-.924.938,2.89,2.89,0,0,1-1.974-.826Zm14.77.238V8.932c0-1.778-1.414-2.408-2.912-2.408a6.084,6.084,0,0,0-1.974.336V8.526a5.183,5.183,0,0,1,1.75-.35c.84,0,1.47.322,1.47,1.092v.518a4.587,4.587,0,0,0-1.092-.112,2.671,2.671,0,0,0-2.884,2.716A2.37,2.37,0,0,0-16.275,14.9a2.229,2.229,0,0,0,1.512-.518v.364ZM-14.763,12.8a1.815,1.815,0,0,1-1.316.56.961.961,0,0,1-1.064-1.036c0-.238.042-1.092,1.386-1.092a1.965,1.965,0,0,1,.994.238Zm5.208,1.946V2.226h-1.792V14.742Zm3.7,0V2.226H-7.651V14.742Zm11.172-.014V12.572H6.349V10.864H5.313V2.828H3.549L-.595,11.27v1.3H3.591v2.156ZM3.605,10.864l-2.24.028,1.75-3.738a16.966,16.966,0,0,0,.742-2.072H3.9s-.28,3.948-.28,4.088Zm7.406,3.64a3.944,3.944,0,0,0,2.044.476A2.478,2.478,0,0,0,15.6,12.432a2.669,2.669,0,0,0-1.9-2.576c-.014-.014-.392-.2-.532-.252a.787.787,0,0,1-.546-.784.688.688,0,0,1,.756-.728h.07A2.7,2.7,0,0,1,15,8.666V6.8a4.486,4.486,0,0,0-1.68-.322,2.2,2.2,0,0,0-2.31,2.31A2.428,2.428,0,0,0,12.719,11.2c.882.35,1.19.714,1.19,1.232a.912.912,0,0,1-.924.938,2.89,2.89,0,0,1-1.974-.826Zm11.326-2.17A3.079,3.079,0,0,1,19.929,13.4a1.9,1.9,0,0,1-1.9-2.156V11.13h4.69v-.56c-.014-2.17-.98-4.06-3.136-4.06-2.24,0-3.248,1.96-3.248,4.312,0,2.408,1.232,4.186,3.528,4.186a4.2,4.2,0,0,0,2.478-.686ZM18.067,9.7a1.66,1.66,0,0,1,1.5-1.638c1.078,0,1.442.8,1.47,1.638Zm11.1,5.04V8.932c0-1.778-1.414-2.408-2.912-2.408a6.084,6.084,0,0,0-1.974.336V8.526a5.183,5.183,0,0,1,1.75-.35c.84,0,1.47.322,1.47,1.092v.518a4.587,4.587,0,0,0-1.092-.112,2.671,2.671,0,0,0-2.884,2.716A2.37,2.37,0,0,0,25.991,14.9a2.229,2.229,0,0,0,1.512-.518v.364ZM27.5,12.8a1.815,1.815,0,0,1-1.316.56.961.961,0,0,1-1.064-1.036c0-.238.042-1.092,1.386-1.092a1.965,1.965,0,0,1,.994.238ZM30.345,14.5a3.944,3.944,0,0,0,2.044.476,2.479,2.479,0,0,0,2.548-2.548,2.669,2.669,0,0,0-1.9-2.576c-.014-.014-.392-.2-.532-.252a.787.787,0,0,1-.546-.784.688.688,0,0,1,.756-.728h.07a2.7,2.7,0,0,1,1.554.574V6.8a4.486,4.486,0,0,0-1.68-.322,2.2,2.2,0,0,0-2.31,2.31A2.428,2.428,0,0,0,32.053,11.2c.882.35,1.19.714,1.19,1.232a.912.912,0,0,1-.924.938,2.89,2.89,0,0,1-1.974-.826Zm8.764.462c2.044,0,3.4-1.666,3.4-4.214s-1.358-4.228-3.4-4.228-3.388,1.68-3.388,4.228S37.079,14.966,39.109,14.966Zm0-1.68c-.994,0-1.68-.9-1.68-2.534s.686-2.562,1.68-2.562c1.036,0,1.694.924,1.694,2.562S40.145,13.286,39.109,13.286Zm10.066,1.456V9.016A2.269,2.269,0,0,0,46.781,6.5h-.028a2.227,2.227,0,0,0-1.344.462v-.21h-1.68v7.994h1.68V9.128c.1-.7.476-1.12,1.12-1.12s.952.532.952,1.162v5.572Zm1.162-.238a3.944,3.944,0,0,0,2.044.476,2.479,2.479,0,0,0,2.548-2.548,2.669,2.669,0,0,0-1.9-2.576c-.014-.014-.392-.2-.532-.252a.787.787,0,0,1-.546-.784.688.688,0,0,1,.756-.728h.07a2.7,2.7,0,0,1,1.554.574V6.8a4.486,4.486,0,0,0-1.68-.322,2.2,2.2,0,0,0-2.31,2.31A2.428,2.428,0,0,0,52.045,11.2c.882.35,1.19.714,1.19,1.232a.912.912,0,0,1-.924.938,2.89,2.89,0,0,1-1.974-.826Zm7.378-2.786.126-3.164L57.9,2.828h-1.9l.056,5.74.126,3.15Zm-.77,3.262a1.262,1.262,0,0,0,1.2-1.33,1.21,1.21,0,1,0-1.2,1.33Z" transform="translate(58.177 12.012)" fill="#fff"/>
</svg>
