<svg xmlns="http://www.w3.org/2000/svg" width="471.924" height="228.728" viewBox="0 0 471.924 228.728">
  <path id="パス_70260" data-name="パス 70260" d="M367.323,160.883a13.135,13.135,0,0,0-.844,5.209c0,.277.265.375.274.684.006.265-.242.743-.227,1.032-6.159,17.783-11.96,35.84-13.851,41.494-13.261,34.542-12.311,31.625-20.52,55.717-5.468,16.3-5.238,18.909-10.748,35.023-1.557,3.882-2.537,5.513-3.654,8.268-1.342.142.785-5.433-.236-6.778l-.366-1.153c-.87.631.021-1.752-.233-3.227-1.543-.442-.6-1.622-1.3-2.348a1.086,1.086,0,0,1-.136-.69c-.086-.192-.183-.36-.257-.575.295-.613-.032-7.657.1-8.666-.941-1.321-2.7,1.1-2.967-1.077l-.652-.911a10.372,10.372,0,0,1,.56-4.964c4.115-12.656,9.789-40.559,14.683-52.652.283-1.315-1.147-4.867-.437-5.89,3.171-9.421,3.454-11.12,6.9-20.644,2.38-6.5,5.147-15.326,7.486-22.012,4.026-11.1,2.448-7.574,7.324-19.8l.065-1.009a16.168,16.168,0,0,0,2.548-5.575,11.344,11.344,0,0,1,.525-1.36c.31-.911.552-.864.785-.979.168-.083.277-.678.611-1.044a11.685,11.685,0,0,0,1.469-2.242c2.168-.761,2.253-3.811,4.247-4.168a7.754,7.754,0,0,0,.882.05c.074.227.183.242.292.49.1.209.472.121.59.342a35.143,35.143,0,0,0,2.6,4.513c.121.159.271-.009.392.145.189.242.065.755.245.982.221.28.782.242.979.49.342.431.793,1.3,1.023,1.607a67.549,67.549,0,0,1,1.973,6.716c.056.254-.248.392-.15.6.342.734.41.481.439.882a17.243,17.243,0,0,1-.439,2.6c-.086.528.2.445.029.92m-13.88-66.966c-.086,2.18-.5,4.153-.614,6.816-.018.378.147.428.147.835-.006.714-.162,1.82-.106,2.649-2.076,7.268-5.61,17.175-8.167,23.416-5.613,13.7-13.99,43.709-18.741,56.572-1.708,7.1-4.062,10.583-5.023,14.149l-.643,3.905c-1.932,5.179-3.77,11.742-5.185,13.488-1.413,5.527-.9,4.787-3.144,9.27a159.267,159.267,0,0,0-7.159,23.682,71.393,71.393,0,0,0-1.189,7.212c-.826,1.192-2.363,1.964-2.419,3.837-3.1,2.065-6.616-.342-8.79-3.911l-.322-.327-1.82-1.835c-2-3.873-4.277-3.749-7.067-7.368s-3.1-.4-3.265-4.289l-1.026-1.779c.475-2.127-.979-2.245-.569-4.728.018-2.4,1.416-3.82.72-5.693.053-.327-1.492-1.431-1.168-1.873a22.049,22.049,0,0,1,.195-6.914c-.186-12.547.018-24.068-.528-36.7a18.99,18.99,0,0,1-1.315,3.787c-.472-.965-.2,3.289-.941,3.988-1.652,5.474-9.872,21.992-13.816,33.226-.64.274.224-1.8.18-2.236-.156-1.6-1.448.378-1.374-.032-.546,1.31-2.206,4.817-2.038,5.067-2.575,8.02-7.757,23.6-9.943,31.566-2.781,10.149-11.123,41.116-13.68,48.281-1.537,1.363-1.516-.805-1.749-2.041-.522-2.8-.587.522-.973-2.4-.268-2.029-.855-4.023-1.177-6.07-.1-.613-.5-.472-.472-1.292a18.784,18.784,0,0,1,.372-2.879l-.628-.487-.053-1.141-.522.457c-.254-.613-.065-1.693-.782-2.085-.487-.265-.906-3.221-1.106-4.168-.534-2.537-.643-3.755-.124-7.919,3.059-10.011,6.5-26.507,8.663-34.745,5.607-15.314,8.58-28.749,10.937-33.9l5.887-19.833c.805-3.247.375-4.312,1.537-6.8.788-3.262,5.353-15.532,7.1-17.721.593-1.616.221-1.849.723-3.115,1.156-.941,2-2.973,2.675-5.563a3.489,3.489,0,0,1,.448-3q1.159-.982,1.481-4.274c1.917-3.643,2.784-2.725,4.413-6.793,1-2.327,1.967-.49,2.787-2.861l1.587-1.752.392-.05.324-.372c2.009-1.215,2.327-4.684,3.118-5.324l4.312-1.841.681-.209c.136.124.687-.074.929.1a29.234,29.234,0,0,0,4.828,2.955c.38.162.566.967,1.006.77.537-.236.752.26,1.032.2l1.861,1.469a2.192,2.192,0,0,1,.982.54,1.08,1.08,0,0,1,.245.54l2.525,3.094c1.156,5.7-.029,3.327-1.28,10.928.13,11.724-1.79,28.849-2.309,38.863s-.1,7.955.513,17.19c.879-3.067,10.884-23.316,12.574-25.177.416-.254.646-1.265.929-2.233l-.3-.463-1,.92.357-1.578.1-.572c1.708-4.262,5.448-9.781,6.6-14.512a8.729,8.729,0,0,1,1.3-3.318c.118.024.227.139.322.33,2.41-5.48,10.456-26.4,12.285-32.28,2.947-9.474,7.344-19.352,13.217-33.967,2.079-3.489,2.292-3.224,3.569-7.928a3,3,0,0,1,.758-.681c.442-.342,1.369-2.492,1.593-2.194,1.153-.159,1.068.009,1.251.675.038.139.369-.3.637-.3s.534.009.616.177c.286-.086.941.7,1.239.847a2.279,2.279,0,0,1,.959.926,47.774,47.774,0,0,1,1.457,5.457c.192.743-.2,1.38.142,1.528.121.05.189.31-.047,1.274-.153.619.086.215.074.537M249.793,212.467l-.608,1.41.265-.457Zm1.351-8.206q-.04-2.062-2.1,1.342l-.127,3.065q-2.217,5.437-1.374,9.483a17.042,17.042,0,0,1,.82-4.973,4.905,4.905,0,0,1,.31-3.02q2.509-3.827,2.475-5.9m3.938,10.394-.369,2.242.18.038a4.64,4.64,0,0,0,.189-2.28m23.729-66.3-.79-2.554c-1.448,2.032-.416,2.112-1.675,4.743-.493,1.032,1.153.4,2.466-2.189m-1.575,17.6-.51,1.95c.121.024.239-.118.357-.437s.286-.8.516-1.433Zm-1.321-20.3c.006-.183.324-.637.28-.743-.077-.174-.386.3-.28.743m-2.062,8.117.18.05a23.309,23.309,0,0,0,1.8-7.568,27.338,27.338,0,0,0-1.979,7.518m-8.586,8.268.737-4.474a7.092,7.092,0,0,0-.737,4.474m-.537,4.923a32.637,32.637,0,0,1,1.2-4.466,18.37,18.37,0,0,0-1.2,4.466m1.941,8.418c.292-.622,2.366-1.79,6.825-16.426l.994-3.708c-.935.861-3.008,4.607-4.884,8.583-.115.537-.038.33.083.82.159.64.015,1.522-.195,1.044l-.522.847-.69.215c-1.324,3.056-2.333,5.858-2.4,7.161.236,1.6.5,2.082.793,1.463m10.559,3.295c.472-1.321-.431.015.271-2.413l.012-2.6a208.51,208.51,0,0,0-7.374,22.809l1.171-.26c.87-3.755,4.952-14.851,5.92-17.538m.044,4.336c.038.2.186.112.36-.088.156-.7.18-1.071-.36.088m1.118-1.466c-.056.162-.086.289-.136.442.209-.386.321-.67.136-.442m.634-15.14-.159-1.318c-1.18,3.345-.221.032-.793,3.513.3-.212.437,0,.481.351a11.759,11.759,0,0,0,.472-2.545m29.749,47.779c-.67,1.634-1.112.469-1.926,2.439-1.628,3.955.67,4.126.227,5.041-.528,1.239,3.28-7.108,3.271-7.769.841-3.2,1.3-6.713-1.572.289m7.371-22.543c-.49.861-2.852,5.76-3.616,7.153-.549.994-.28,1.009-.994,2.324-.516.959-3.324,7.843-3.92,9-.672,1.3-.894-.672-1.672.905-2.454,4.979.383,3.38.383,3.38-.525,1.236,10.81-22.52,10.8-23.18,0,0,.51-2.209-.982.422m-62.4,25.227a7.03,7.03,0,0,1-5.224,3.147c-7.984,1.062-23.685,5.648-24.254,6.524-.817,6.108-4.973,28.967-6.047,34.863-.906.171-1.36,5.011-1.805,4.064l-1.2,3.147c-.519-1.1-1.1-1.481-1.734-1.127-.982,1.336-1.776-.953-2.557-2.245l-2.964-4.814c-.206-2.537-1.236-5.828-1.64-8.4.885-2.678.091-4.41.024-7.22.758-1.811,3.144-10.167,2.9-11.733-2.132-.36-4.489,2.481-8.391,3.383-3.513,1.354-8.046,3.887-14.627,6.9-1.5,4.861-7.97,23.2-9.5,27.554-1.519,4.949-2.419,5.631-4.073,8.9-.779,1.958-1.761,3-2.95,3.127-2.248-.416-1.5-.575-2.292-1.959-.348-.608-1.782-1.731-2.554-2.74l.021-1.1-.351.392c-2.012-.844-4.454-4.073-5.583-4.073-1.416,0-.439-.053-.941-.566-1.147-1.183-2.781-2.256-3.536-4.356,1.513-3.622,2.607-10.627,2.876-12.421a13.211,13.211,0,0,1-3.144-4.734c-1.274-3.7-.593-4.221-.9-5.2a5.95,5.95,0,0,1-.563-2.445c.065-4.991.186-2.823-.189-4.7-.3-1.487.206-5.047,1.268-5.728l11.987-6.061c9.04-23.989,20.558-47.331,31.309-68.388l2.2-5.262c1.843-2.54,1.262-.914,2.926-4.221.926-1.64,3.047-2.522,3.846-4.622l.257.26c.2-.708.437-1.631.7-2.778l1.071-1.522a2.656,2.656,0,0,1-.056,1.4c.177-.142,1.136-1.192.782-1.239.566-1.227.758-1.743,1.351-3.059a22.613,22.613,0,0,1,2.177-4.781.775.775,0,0,0,.068.463c.743-1.295,1.478-2.507,2.2-3.684l-.032,0,.817-1.64c-.032.206.54-.667.5-.528.212-.369.431-.714.64-1.1l1.254.2c.018-.065.035-.133,0,0,1.018-1.389.737-2.227.737-2.227s.26-.584,1.737-3.047c.08-.071,2.118-2.947,2.13-2.947,2.312-2.92,1.209-1.855,3.97-3.985.2-.363.941-1.41,1.2-1.779-.145.289,1.3-1.165,1.262-.9.749-.552,1.2.422,2.2-.094,0,0,5.271,2.542,7.091,5.722,1.95,3.4,7.141,9.542,4.769,11.073,0,.083-.522.26-.522.26.475,1.4,1.46.174.979,1.433-.522,1.929-2.873,3.587-2.781,6.256.563,2.068-1.357.622-1.13,3.009s-.729,1.976-1.734,4.781l-1.428,9.571c-1.481,6.961-2.82,11.922-3.828,18.452l-.767,1.221.333.708c-.97,6.5-4.988,21.122-6.2,27.289-2.324,9.7.416-.687-1.425,9.09l-.115,1.964c3.1.4,11.019-.793,13.792-1.268.779,1,8.335.038,11.506.431,2.725.333-1.274,2.221.616,2.923,1.374.51,3.74,1.127,3.534,2.186m-24.814-72.517.64-.354.64-2.342Zm-1-2.239c.245.33.383.162.926-.2l-.145-.97c-.469.528-.516,1.36-.782,1.174m-13.9,24.7c.233-.268-.059.944-.263,1.578l1.79-3.221Zm7.563-.392-.174-.87c-.546,1.074-1.64,3.141-2.545,4.643-3.082,6.692-2.938,4.43-7.064,14.1-1.77,4.026-5.693,8.863-7.908,13.438-7.055,14.565-4.274,7.551-10.707,23.522,11.043-2.174,10.949-3.905,16.429-4.545.935-1.991,1.9.021,1.964-2.059,1.454-4.731.622-5.333,2.265-10.025-2.342,2.826,1.445-3.831,1.195-4.489a36.6,36.6,0,0,1,1.377-5.5l.283.068c1.33-5.961.024-4.937.593-7.043s.3.242.717-2.05l.015-.7c1.413-4-1.681,1.758.911-5.079v-.785c-.324.914.059-.973.578-3.97-.044-.127,2.091-8.226,2.071-8.654m.805,61.158-.56,1.215.1,1.259Zm1.369-82.082-.392,1.5c-.959,1.192-1.162,1.87-.5,2.7l-.941,1.416.717.1.6-1.737.649-2.6c.375-.534.071-.746-.13-1.369M194.141,113.85c-.534,6.023-7,14.571-7.843,20.552-3.5,10.592-22.635,58.061-22.986,62.029-.613,6.928-4.262,10.943-5.778,17.455a146.964,146.964,0,0,0-4.442,18.287c-2.351,5.395-2.8,3.126-3.849,9.7l1.905-.372c-3,14.45-3.448,17.21-5.808,31.533.1,5.9-2.531,22.8-4.492,23.776l-.389,1.779a1.046,1.046,0,0,0-.18-.628l-.233-.029-.133,1.507c-.357-1.265-.855-1.829-1.49-1.708l-.543.844-.044-2.2c.271-.086.089-.26-.153-.864l-.463-.056c-.065.734-.292,1.044-.035,1.053l-.667,1.6c-.6-2.1-1.366-3.106-2.312-3.026l-.543.847q-.717-2.522-1.855-.23l-.124-1.23c-2.545.5-3.124-4.362-5.345-7.486l-.283.575-.973-2.251c.932-1.711-.51-5.106-.8-7.17-.327.162-.23.133-.584.327.351-.195-.212-.708-.159-1.313-.451,1.572-.454,4.84-1.38,4.728l-.917-2.575c.145-3.433,2.239-15.255,2.233-18.706a17.635,17.635,0,0,0,.239-2.852c.015.03.153,0,.932-2.772a4.323,4.323,0,0,0,1.4-2.566,8.359,8.359,0,0,1,.785-3.557q1.336.779,2.3-2.15a7.424,7.424,0,0,0-.074-1.838c-.363.563-.534.749-.516.546q-1.336-.77-2.354,2.755l.027-.3q1.075-4.128,2.165-8.565l-.177-.628c.926-5.162.271-9.409,2.156-13.031,2.5-10.775-1.675,12.01,1.139,1.808.767-3.351,1.914-10.394,2.354-13.588l6.218-19.895c2.619-10.117,8.279-26.369,12.825-39.9-.265.106-.531.572-.829,1.714-17.561,21.175-56.557,83.61-60.442,93.642-.808,3.165-4.637,10.211-6.241,11.073a2.854,2.854,0,0,1-2.177-1.177c-.646-1.082-.938-1.13-1.209-.894-1.5,1.315-.4-.882-.752-1.316-.257-.319.071-.793-.189-1.13-.522-.684-.811-.581-1.5-1.13-2.655-2.1-3.011-6.02-3.764-5.457-.637.481-.546-.9-.962-1.522-.982-1.218-1.118-3.737-1.295-6.377-.044-.637-.643-.593-.619-1.333q.035-1.071.177-2.295c.49-4.194,1.956-9.8,4.908-17.29,1.389-3.528,12.09-47.561,12.845-52.454s-1.457-7.318-2.637-3.386C84.425,171.3,72.45,188.254,68.63,194.2c-23.673,36.922-45.086,87.2-46.974,91.235-5.265,11.255-4.864,9.067-7.554,11.288-1.018-.292-1.525-1.439-2.84-1.062a3.058,3.058,0,0,1-.941.189c-.065.006.563-2.071.941-3.386.392-1.363-1.286.95-1.507.375-.209-.549-1.843-1.849-2.068-2.445-.209-.566.2-.965,0-1.5-.622-1.714-2.224-.628-2.259-.752-.086-.192-.136-.348-.2-.513-.885.218-1.5.03-1.655-.917-.661-1.1-1.507-1.315-1.717-2.522-.121-.67-.714-4.3-1.7-3.949-.074-.667-1.029-1.717,2.773-10.816,3.073-5.731,4.716-12.8,7.108-15.936C22,225.053,71.768,136.977,85.95,114.5a5.482,5.482,0,0,1,3.793-1.339c1.5-.563.731,1.009,3.949-1.315,1.05-.448,1.118-.732,2.065-.9.714-.124.643.33,1.321.145.6-.162,1.557-.407,2.183-.54,1.5-.319,2.864-.451,3.215.086,4.224,6.445,7.02,11.577,10.978,18.965,1.386,2.967,1.475,3.492-.038,10.108-.05,2.5-4.138,12.04-5.079,16.178-5.457,22.387-11.544,42.989-9.984,50.7C115.064,179.226,157.7,115.7,169.5,98.58c2.891-4.648,7.566-13.6,11.108-15.786l.678-.879.389-.587c-.006.091.445.121.522-.649l.457-.587,1.681-.4.941.378c1.525.549.941,1.693,2.256,1.315,1.507,1.13.77-.313,1.507,2.259a22.944,22.944,0,0,1,.941,3.2c.15.764.587.251.746,1.165.805,1.752,2.537,10.152,3.017,13.7.1.758.457.752.563,1.5.168,1.227-.094.814,0,1.882.257,2.967.56,6.563-.171,8.76m-127.222,54c2.026-2.079,3.988-5.168,5.457-5.861,1.1-.513,2.377-4.4,5.212-10.727,1.139-1.9,2.292-3.92,3.442-6.215l.027-1.015c-1.372,2.666-2.755,4.867-3.713,7.011-4.955,8.259-8.722,13.223-10.424,16.806m-4.076.982,1.442-1.292,1.33-4.25Zm22.06-8.268c-.864.852-2.1,2.932-3.687,4.678-.985,1.08-1.035.245-2.734,2.87-.451.7-.649,1.233-1.165,1.932-1.681,2.289-3.433,4.737-5.117,7.111-1.348,1.908-2.248,3.631-3.336,5.182-1.835,2.616-1.976,2.82-2.321,3.242-2.177,3.132-5.569,8.2-6.5,10.371s-1.87.077-3.224,3.076l-3.357,5.8c-3.076,4.064-5.4,6.625-6.636,11.515,1.773-2.5,2.522-4.492,2.61-2.669.4-.021-6.341,9.913-5.666,12.185,1.053-1.864,3.64-5.3,4.064-7.689,1.5-3.2,3.053-4.174,4.374-7.737.994-1.5-.932,1.947,2.5-3.584,0,0,1.2-.858.487.481s-2.076,4.94-2.076,4.94c.407-.708.658-.15,1.035-.847,1.914-3.548,5.592-6.395,5.946-10.491a7.679,7.679,0,0,1,2.54-5.15c.233-1.059,1.773-3.669,3.946-7.032a24.139,24.139,0,0,1,2.687-3.23c1.195-1.192.54-2.094,1.283-3.194,2.218-3.277,4.7-6.459,6.887-9.7.33-.493.929-.906,1.251-1.386.375-.555.469-1.174.823-1.708,2.725-4.106,4.84-7.474,5.383-8.961M129.791,241.9l-.678,2.354.286-.578Zm6.636-20.688.319,4.168.581-2.787Zm1.377,6.206c-.209.8-.425,1.546-.64,2.268-1.1.292-1.557.664-1.286,1.124a12.541,12.541,0,0,0-1.578,6.238l1.265-1.342a53.693,53.693,0,0,1,1.6-6.02c.139-.038.248-.08.407-.112ZM138.192,214l-.431-.23-.392,1.631a5.286,5.286,0,0,0,.823-1.4M471.04,211.1c-.062.773-.988,1.463-2.012,1.914-2.451,1.077-1.363.442-1.991,1.23a6.855,6.855,0,0,1-3.554,2.1c-7.424,2.357-17.971,6.164-26.136,9.683-3.247,1.4-2.5,5.731-2.719,8.082-.422,4.442-1.563,11.984-1.723,13.347-2.43,15.025-2.619,14.7-3.268,25.676-.024.375-.053,1.012-.077,1.413a1.057,1.057,0,0,1-.737.885c-.307.044.381.537.254.811a4.946,4.946,0,0,1-3.882,2.669c-.227.032-.351.274-.587.268-.313-.006-.714-.333-1.029-.416-.271-.068-.437.147-.661.077-2.017-.628-2.354-1.313-2.79-2.23-.109-.233-.118-.8-.425-.838-.882-.1-1.174-1.652-3.014-2.837-.227-.147-.587.121-.614-.153-.047-.54-.758-1.136-1.006-1.613a43.335,43.335,0,0,0-2.622-4.858c-.186-.245-.673-.546-.832-.737-.324-.38-.33-1.174-.59-.979-.392.295-.885-.4-1.012-.737-.316-.838.189-2.233,1.159-8.332-.3-.434-.655-.552-1.035-.867-.307-.254-1.218.67-1.018-.631,1-3.239,1.979-8.562,3.817-15.184.876-2.2.437-.643.044-2.59-3.068-.041-1.587.667-6.341,1.3-.065.009-6.132,2.445-8.8,3.6-1.563.681-2.171-.074-.637-.882,1.861-.979,2.8-1.006,2.5-1.372-.439-.54-1.363-.124-2.451.195a133.451,133.451,0,0,0-17.862,7.288,7.351,7.351,0,0,0-3.215,4.082c-2.758,7.032-4.6,8.583-6.073,14.55-1.339,4.734.493,3.687-1.994,6.964-.121,1.2-2.215,7.2-2.7,9.444a5.631,5.631,0,0,1-.578,1.572c-7.7,13.786-4.345,3.28-5.837,5.168a4.4,4.4,0,0,1-2.908.631c-.991,1.059-1.9,2.752-2.032,2.1l.389-1.888c-.354.218.876-2.227.439-1.849-.469-2.6-.826-1.425-1.283-3.454-5.409-1.731-1.283,1.817-4.218-4.811,1.752-4.407-3.321-1.38-3.905-5.949,1-4.188,4.725-11.766,7.625-19.9.655-1.82-7.99-4.749-9.076-6.867-4.2-8.17-9.692-6.645-9.692-6.645l23.325-7.76c1.277-.316,2.5-5.253,3.076-6.521,8.71-18.948,20.042-38.949,24.646-49.938a4.868,4.868,0,0,1,.233-.484l2.811-5.038c2.227-3.15,7.135-12.4,9.1-16.447a48.976,48.976,0,0,0,3.032-6.84l.339.286a23.622,23.622,0,0,0,1.165-2.908l1.13-2.3c.209-.192.743-.855.587-.295-.189.681-1.115,2.3-.687,2.4a12.807,12.807,0,0,0,2.371-5.725,14.193,14.193,0,0,1,1.944-4.23c-.024.2.392-.49.882-1.274.372-.59.333.094.785,0a14.946,14.946,0,0,0,2.371-4.271l-.74-.053,1.36-2.637c.245-.2.437.28.295.439.575.389.785-.49.675-1.817l2.315-4.064.59-.295c.537-.882.832-.295.047.882-.212.319.354.351-.047,1.127-.593,1.139-1.071,2.466-1.764,3.737,1.33-.779,2.321-2.36,2.976-4.758l.5-.254A21.008,21.008,0,0,1,423.1,112.8a3.271,3.271,0,0,1,1.964-2.475l1.047.593c.056-.481.817-.779.611-1.165-.345-.637-.044-.938.637-1.911.814-.086.156.038.345.575a8.86,8.86,0,0,1,1.159-1.46c.168.109.31.392.534.195l-.708.811c.059.528.068,1,.581.858l-.835.932c1.088,1.295,1.159,1.065,2.038-1.141.782,1.8,1.46,1.681,2.522.015.083-.69.307-.894.245-1.425-.737-.05-1.233-.05-1.54.451-.419-.451-.375-.546-.026-.743l.882-.2c-.018-.024.212-.566.195-.587.354-.153.581.174,1.133.372.1,1.23.528,1.867,1.265,1.92.531-.31,2,1.572,2.413,2.3a.5.5,0,0,0-.614.478c.493,1.08.419.758,1.752-.024-.9-1.153.345-1.289.13-1.613-.345-.522-.849-1.31-1.077-1.764-.357-.714-.147.637-1.422-1.177-.192-.174-.59-1.569,1.905.5.006.015,2.46,2.923,2.469,2.935a3.645,3.645,0,0,1,.959,1.8c.4,1.139-.625.5.354,1.725.324,1.817,1.991,3.631,2.649,4.707.38.631-.687.59-.248.885a11.932,11.932,0,0,1,1.569,1.519l-.941.186q1.049.6,1.085,3.472l-.186-.012a6.372,6.372,0,0,1,.366,4.05l-3.156,6.315a5.212,5.212,0,0,0-.557,2.268c-.313,23.626-1.575,42.55-4.1,68.3-.28,2.837-2.056,6.923.611,6.837l27.732-6.74c.593-.021.608.186,1.112.242a7.17,7.17,0,0,1,2.758.54,1.942,1.942,0,0,1,.8,1.616c0,.171.451.445.419.637-.08.472-.729.914-1.032,1.522a.6.6,0,0,0-.032.077c-.6.755.206.782.183,1.1m-48.322-96.665a4.36,4.36,0,0,1,2.578-.755l.537-.295-.342-.882c-.637-1.324-1.372.882-2.773,1.932m-.661,32.191-.49,1.13.295.392a6.888,6.888,0,0,0,1.177-1.961,1.915,1.915,0,0,1-.2-.885c.041-.31.575-.717,1.029-1.861.254.074.785-1.177-.1-1.029l-.587,1.372c-.938,1.675-1.419,2.4-1.13,2.843m-10.084,21.638c.941-2.215,4.1-10.017,6.8-15.606.26-.54-.587-.2-.392-.687.652-1.64,1.814-3.69,1.923-4.12q.686-2.7-.752.077l-.891,1.248c-.28,1.032-2.265,5.849-3.566,9.22-.5,1.28-1.233,1.643-1.481,2.6-.165.64.189.823.206,1.18l-1.814,5.147Zm-1.926-.555-.442,1.029-.439,2.206a11.527,11.527,0,0,0,1.077-2.109c.186-.51.7-1.51.926-1.95a1.331,1.331,0,0,1-1.121.823m-15.886,12.845A15.3,15.3,0,0,0,395.73,178c.227-.445-.245.106.05-.49.407-.826,1.009-2.035,1.519-3.088,2.321-4.8,5.218-10.854,7.893-16.624.265-.569.749-.687.882-1.274.059-.257-.236-.077.345-1.372.64-1.428,1.386-3.017,1.911-4.168.15-.327.5-.584.637-.882.1-.23.445-1.36.54-1.569a12.461,12.461,0,0,0,.979-2.454s.156-.985-.832.932c-.6,1.165-1.817,4.165-2.451,5.345-.248.46-.737.882-.982,1.324-.693,1.251-1.575,3.147-2.253,4.657-.475,1.053.153.419-.295,1.422-2.124,4.737-4.265,8.961-6.032,12.6-.49,1.012-.767,2.3-1.177,3.138-.546,1.115-1.265,2.127-1.616,2.843-.844,1.714-.687,2.206-.687,2.206m29.451-12.468.752-.425c.947-3.174,1.035-.847.655-3.663a4.724,4.724,0,0,1-.015-1.274l1.826-14.116c-.555-1.05-3.386,5.772-4.967,9a13.083,13.083,0,0,0-.581,1.236c-2.607,8.972-8.061,14.683-10.58,22.29-.091.271-2.478,3.944-2.593,4.206-2.28,5.224-3.46,5.772-6.032,10.155-6.934,11.831-8.725,12.878-11.429,19.623-.139.731-4.076,6.365-5.244,8.657-1.534,3.011,2.717.616,5.831-.021,9.6-1.964,14.627-4.973,24.838-7.722,1.646-.442.906-.681,1.7-2.3,1.734-3.51-.622.024.348-7.973.271-2.233,2.006-1.195,2.289-3.442.962-7.633-1.708.156-.664-5.684a4.047,4.047,0,0,1,1.124-2.333,47.031,47.031,0,0,0,.749-6.324l.655-2.764a5.1,5.1,0,0,1-.177-2.135c.619-4.8,1.54-9.323,1.51-15m3.183,9.736c-.69,2.734-2.026,10.707-2.7,14.815a2.539,2.539,0,0,0,1.144-1.472c1.206-3.784,2.227-16.022,1.551-13.344m1.139-67.444a1.417,1.417,0,0,0-1.413.947l.838.035Zm1.622,3.917-.044-1.009a2.029,2.029,0,0,0-1.466,1.165c.33.372.832.316,1.51-.156m1.525,2.079-.734-.342-.569,1.153Z" transform="translate(0 -79.691)"/>
</svg>
