<svg xmlns="http://www.w3.org/2000/svg" width="462.218" height="172.648" viewBox="0 0 462.218 172.648">
  <path id="パス_70249" data-name="パス 70249" d="M74.431,45.965V208.528a1.562,1.562,0,0,1-1.563,1.563H47.361a1.562,1.562,0,0,1-1.525-1.221L32.386,148.6a1.563,1.563,0,0,0-3.088.339v59.592a1.562,1.562,0,0,1-1.56,1.563H3.843a1.562,1.562,0,0,1-1.563-1.563V45.965A1.562,1.562,0,0,1,3.843,44.4H28.071A1.565,1.565,0,0,1,29.59,45.6l14.745,60.728a1.562,1.562,0,0,0,3.079-.369V45.965a1.561,1.561,0,0,1,1.56-1.56H72.868a1.562,1.562,0,0,1,1.563,1.56m65.055-.174,18.131,162.566a1.564,1.564,0,0,1-1.554,1.734h-29.8a1.561,1.561,0,0,1-1.557-1.472l-1.563-26.838a1.562,1.562,0,0,0-1.56-1.472h-8.621a1.566,1.566,0,0,0-1.56,1.46l-1.752,26.861a1.561,1.561,0,0,1-1.557,1.46H77.865a1.563,1.563,0,0,1-1.554-1.717L92.485,45.811A1.56,1.56,0,0,1,94.04,44.4h43.892a1.562,1.562,0,0,1,1.554,1.386M122.057,149.245q-1.792-20.852-3.593-48.794a1.563,1.563,0,0,0-3.115-.053q-3.119,31.656-4.171,48.885a1.559,1.559,0,0,0,1.557,1.655H120.5a1.559,1.559,0,0,0,1.554-1.693M159.366,45.965a1.562,1.562,0,0,1,1.563-1.56h21.31q22.874,0,30.97,2.354t13.2,12.022q5.106,9.676,5.106,30.855,0,19.343-3.607,25.994-2.69,4.96-9.25,6.958a1.557,1.557,0,0,0-.227,2.9q5.76,2.739,8.17,6.622a28.691,28.691,0,0,1,4.109,9.775q.805,4.455.805,24.511v42.137a1.562,1.562,0,0,1-1.563,1.563H203.066a1.562,1.562,0,0,1-1.56-1.563v-53.5q0-13.3-1.575-16.476-1.367-2.761-6.6-3.121a1.561,1.561,0,0,0-1.652,1.56v71.532a1.562,1.562,0,0,1-1.563,1.563H160.929a1.562,1.562,0,0,1-1.563-1.563Zm32.315,28.407v33.61a1.558,1.558,0,0,0,1.64,1.56q4.154-.265,6-1.944,2.19-2,2.189-12.945V85.541q0-7.875-2.112-10.335-1.783-2.075-6.055-2.4a1.561,1.561,0,0,0-1.658,1.563M311.989,44.4a1.561,1.561,0,0,1,1.56,1.56V155.133q0,18.83-.92,26.457a42.329,42.329,0,0,1-5.448,15.656,31.008,31.008,0,0,1-11.937,12.179,35.185,35.185,0,0,1-17.461,4.144,38.638,38.638,0,0,1-19.65-4.911,32.322,32.322,0,0,1-12.742-12.792,42.791,42.791,0,0,1-4.988-16.629q-.77-8.751-.77-36.792V45.965A1.562,1.562,0,0,1,241.2,44.4h29.192a1.561,1.561,0,0,1,1.56,1.56v122.68q0,10.848.885,13.866t3.566,3.02q3.07,0,3.955-3.327t.882-15.709V45.965a1.561,1.561,0,0,1,1.56-1.56Zm75.231,1.56V76a1.562,1.562,0,0,1-1.56,1.563H369.594a1.561,1.561,0,0,0-1.56,1.56V208.528a1.562,1.562,0,0,1-1.563,1.563H337.282a1.562,1.562,0,0,1-1.563-1.563V79.12a1.561,1.561,0,0,0-1.56-1.56H318.169A1.562,1.562,0,0,1,316.605,76V45.965a1.562,1.562,0,0,1,1.563-1.56H385.66a1.561,1.561,0,0,1,1.56,1.56M464.5,141.42q0,24.971-.882,35.359a48.114,48.114,0,0,1-5.527,18.986,33.088,33.088,0,0,1-12.55,13.2,35.932,35.932,0,0,1-18.42,4.6,36.739,36.739,0,0,1-17.924-4.348,32.355,32.355,0,0,1-12.78-13.049,47.263,47.263,0,0,1-5.754-18.933q-.92-10.229-.923-35.819V113.072q0-24.971.885-35.359a48.035,48.035,0,0,1,5.524-18.983,33.078,33.078,0,0,1,12.55-13.2,35.936,35.936,0,0,1,18.423-4.607,36.7,36.7,0,0,1,17.921,4.351A32.319,32.319,0,0,1,457.82,58.32a47.22,47.22,0,0,1,5.754,18.933q.925,10.238.923,35.819ZM432.183,86.975q0-11.565-.959-14.789t-3.952-3.221a4.2,4.2,0,0,0-3.876,2.607q-1.345,2.61-1.345,15.4v77.369q0,14.432.885,17.809t4.106,3.377q3.3,0,4.221-3.89t.92-18.523Z" transform="translate(-2.28 -40.921)" fill="#fff"/>
</svg>
