<svg xmlns="http://www.w3.org/2000/svg" width="418.496" height="106.404" viewBox="0 0 418.496 106.404">
  <g id="step02_title_15_en" transform="translate(4510.341 -15464.673)">
    <path id="パス_78170" data-name="パス 78170" d="M25.308-28.234a2.692,2.692,0,0,0-.532-.038,8.972,8.972,0,0,1-1.368.076,2.566,2.566,0,0,0-.532-.076c-.418,0-.874.076-1.292.038-.874-.038-1.444-.038-2.128-.038-.532,0-.722.228-.722.494,0,.342.266.684.532.684a11.379,11.379,0,0,1,1.14,0,7.3,7.3,0,0,0,.912,0c.3-.076.76-.076.76.418a.548.548,0,0,1-.114.494,2.247,2.247,0,0,0-.342.684A5.786,5.786,0,0,1,20.9-24.13c-.228.646-.494.874-.684,1.368.038.342-.038.494-.152.57a.92.92,0,0,0-.3.418c-.266.532-.608,1.178-.874,1.634a3.841,3.841,0,0,1-.836,1.52,9.8,9.8,0,0,1-.57,1.292c-.266.342-.684,1.33-.95,1.748-.228.456-.76.456-1.1-.266-.19-.494-.912-1.786-1.1-2.242-.38-.114-.418-.342-.456-.646a1.131,1.131,0,0,0-.19-.57c-.532-.608-.342-.988-.836-1.52-.342-.494-.3-.8-.76-1.6-.228-.418-.646-1.292-.8-1.558-.3-.152-.494-1.406-.912-1.938a3.1,3.1,0,0,1-.266-.8c0-.228.152-.342.608-.418.494,0,1.52,0,2.166.038a.48.48,0,0,0,.532-.532c0-.3-.19-.646-.456-.646-.114,0-.228-.038-.3-.038-.342,0-.418.114-.646.076a8.685,8.685,0,0,0-.95-.076,4.929,4.929,0,0,0-.988.114,10.734,10.734,0,0,1-1.216-.038,1.7,1.7,0,0,0-.418.038c-.608.228-1.216-.038-1.6,0a11.187,11.187,0,0,1-1.6,0c-.76,0-1.064-.038-1.634,0a2.462,2.462,0,0,0-.76-.076H2.128c-.57,0-.874-.038-1.14-.038H.836a.494.494,0,0,0-.418.532c0,.342.228.722.608.684a17.108,17.108,0,0,1,1.976,0c.342-.114.418.038.76.418.114.684.418.76.836,1.52.532.646.418,1.064.836,1.52a11.173,11.173,0,0,1,.95,1.748c.532.836.57,1.064.988,1.748.114.532.95.874,1.026,1.71.228.8.57.95.95,1.748a3.468,3.468,0,0,0,.38.608.983.983,0,0,1,.342.646c.266.684.76,1.52,1.1,2.394.19,1.1-.19,1.52.076,2.052a4.371,4.371,0,0,1-.038,1.558c.3.532-.152.874.152,1.33.228.342.152.494.076.646a.77.77,0,0,0-.228.532c.114.684-.152,1.216.076,2.014a20.279,20.279,0,0,1-.076,2.2,1,1,0,0,1-1.254.836c-.19.19-.456,0-1.026.114-.646.076-.988-.152-1.406-.076a.607.607,0,0,0-.57.608.785.785,0,0,0,.57.76c.152,0,.342.038.532.038A4.238,4.238,0,0,0,9.082-.532c.532-.152.722.076,1.406-.038a8.9,8.9,0,0,1,1.748,0c.8.114.874-.19,1.71,0h2.242a.526.526,0,0,1,.532-.114A2.824,2.824,0,0,0,17.4-.57c.608.076.8-.152,1.52,0a4.856,4.856,0,0,0,.988.076h.57a.622.622,0,0,0,.152-1.216,4.838,4.838,0,0,0-1.482,0c-.684.038-1.064-.228-1.406-.152-.456.038-.912-.494-.95-1.064a13.487,13.487,0,0,1-.114-2.812c.076-.456-.076-1.178,0-1.748.076-.456-.19-.76-.076-1.368.114-.532-.114-.912.076-1.52a.966.966,0,0,0,.038-.722,1.172,1.172,0,0,1-.038-.532c.152-.722.038-1.254.152-1.6a10.443,10.443,0,0,1,.76-1.6c.114-.494.722-1.216.912-1.748,0-.418.114-.456.3-.684a1.186,1.186,0,0,0,.266-.456,5.819,5.819,0,0,1,.836-1.52,8.687,8.687,0,0,0,.8-1.482c.114-.608.494-.76.8-1.482a5.035,5.035,0,0,0,.836-1.482c.3-.684.684-.912.8-1.482.076-.19.608-.8.836-1.216a1.563,1.563,0,0,1,1.178-.76c.38.038.988.038,1.938.038.228,0,.38-.3.38-.608a.539.539,0,0,0-.532-.608A13.831,13.831,0,0,1,25.308-28.234Zm19.456,19a6.738,6.738,0,0,1-.152-1.976c-.114-.38-.152-1.482-.532-1.786a9.339,9.339,0,0,1-.836-1.6c-.228-.418-.912-.8-1.1-1.33-.456-.114-.836-.95-1.368-1.064-.646-.3-.912-.494-1.6-.8-.684-.076-1.292-.494-1.786-.494-.532.114-.912-.19-1.6-.19a1.425,1.425,0,0,0-.38.038h-.494a5.051,5.051,0,0,0-1.444.152,4.912,4.912,0,0,0-1.824.532c-.722.418-1.178.3-1.6.8-.646.19-.874.76-1.406,1.1-.646.266-.722,1.026-1.14,1.33-.38.494-.608,1.292-.988,1.824a.67.67,0,0,0-.152.608,1.758,1.758,0,0,1-.266.95,1.3,1.3,0,0,0-.152.874,2.2,2.2,0,0,1-.038,1.1,2.615,2.615,0,0,0-.076.494,7.619,7.619,0,0,0,.266,1.444c0,.494.532,1.368.532,1.748a7.33,7.33,0,0,0,.988,1.748c.494.19.532.342.57.494a.713.713,0,0,0,.38.684c.494.342.76.8,1.444,1.026a1.619,1.619,0,0,1,.57.342,1.612,1.612,0,0,0,1.026.456c.684.114,1.178.608,1.786.494A8.69,8.69,0,0,0,34.922,0a1.425,1.425,0,0,0,.418-.038h.228c.342,0,.608.038.836.038h.076a1.4,1.4,0,0,0,.836-.228A9.222,9.222,0,0,0,39.1-.722c.608-.076,1.064-.57,1.634-.76a3.614,3.614,0,0,0,1.368-1.1c.418-.152.532-.95,1.14-1.33.152-.38.608-1.14.988-1.976a1.6,1.6,0,0,0,.076-.684.609.609,0,0,1,.3-.684A13.065,13.065,0,0,0,44.764-9.234Zm-5.472,1.6c-.114.532.152,1.368-.152,1.634-.152.646-.076,1.254-.3,1.6-.418.456-.266.8-.57,1.52A2.543,2.543,0,0,1,37.088-1.52a3.256,3.256,0,0,1-1.71.532,2.678,2.678,0,0,1-1.254-.266,3.751,3.751,0,0,1-1.254-1.1l-.418-.57c-.342-.342-.3-.912-.494-1.216-.3-.342-.228-.912-.342-1.33,0-.418-.266-.684-.152-1.368.152-.874-.342-1.786-.114-2.394a3.633,3.633,0,0,1,.114-2.432c-.076-.684.3-.8.152-1.368a4.058,4.058,0,0,1,.3-1.368c0-.646.532-.722.494-1.216-.038-.38.152-.456.38-.608a1.711,1.711,0,0,0,.342-.38.768.768,0,0,1,.57-.456,2.432,2.432,0,0,0,.418-.228,4.948,4.948,0,0,1,1.254-.228,2.684,2.684,0,0,1,1.786.608c.532.57,1.064.874,1.1,1.292.228.608.532.76.57,1.52a10.775,10.775,0,0,0,.3,1.6c.3.266.3.494.228.684a1.625,1.625,0,0,0-.19.684c.076.836.38,1.482.152,1.9C39.216-8.93,39.482-8.132,39.292-7.638ZM66.576-1.862a3.349,3.349,0,0,0-1.216.038c-.456.152-1.254-.912-.988-1.444.038-.874-.038-1.9,0-2.546.228-.912-.114-1.14,0-2.09-.19-.722.228-1.178,0-2.09a12.6,12.6,0,0,1,0-2.09c.418-.95-.266-1.558,0-2.09l.038-1.254c.19-.722-.152-1.33.076-1.786a.989.989,0,0,0-.722-1.52.288.288,0,0,0-.152.076,9.61,9.61,0,0,0-1.482.342c-.57.38-.988-.038-1.71.266a10.75,10.75,0,0,0-1.71.076,10.09,10.09,0,0,0-1.52,0,.739.739,0,0,0-.418.684c0,.228.152.494.608.608a4.172,4.172,0,0,0,1.292.076c.646,0,1.026.3.8.988a14.478,14.478,0,0,1,0,1.824,7.467,7.467,0,0,0,0,1.6c.076.57-.152,1.292,0,1.6-.114.3.228,1.178,0,1.558-.152.532.076.836,0,1.6-.228.684.19,1.33,0,1.558-.076.418.114,1.026,0,1.6a3.176,3.176,0,0,0-.874.874l-.38.342a2,2,0,0,0-.532.38,2.644,2.644,0,0,1-2.28.684c-.76.228-1.14-.342-1.444-.342a2.186,2.186,0,0,1-.76-.912,1.226,1.226,0,0,1-.342-1.254A6.577,6.577,0,0,1,52.782-6a6.056,6.056,0,0,0,0-2.356c-.114-.912.228-1.406,0-2.318a15.673,15.673,0,0,0,0-1.9,5.262,5.262,0,0,0,.038-1.9,4.29,4.29,0,0,0,.19-1.482c.114-.836.076-1.292.19-2.052a.582.582,0,0,0-.532-.722.343.343,0,0,0-.19.038c-.494.114-1.254.342-1.634.418-.646-.038-1.33.266-1.634.228a8.21,8.21,0,0,0-1.634-.076,2.605,2.605,0,0,0-1.558.152.714.714,0,0,0-.3.646.609.609,0,0,0,.342.608,2.077,2.077,0,0,0,1.216.152c.456-.038.722.456.646,1.52.114.76-.266,2.356-.038,2.926a17.322,17.322,0,0,0-.038,2.432c-.076.8,0,1.824-.038,2.394.19.836-.152,1.178.038,2.052-.152.95.114,1.14.494,1.976a11.674,11.674,0,0,0,.912,1.33c.266.418.874.57,1.254.988a2.926,2.926,0,0,0,1.52.608,5.049,5.049,0,0,1,1.6.228c.76,0,1.254-.266,1.748-.228.684-.076.836-.418,1.52-.608a3.257,3.257,0,0,0,1.672-.95c.494-.456.874-.266.988.19,0,.418-.076.684-.076,1.178,0,.3.266.532.684.646.076,0,.114.038.19.038.456,0,.912-.456,1.368-.342.38-.076,1.1-.152,1.52-.266a13.973,13.973,0,0,1,1.786,0c.57-.076,1.178.152,1.52-.038a.675.675,0,0,0,.57-.646A.763.763,0,0,0,66.576-1.862Zm8.17-27.056c.152-.57-.456-.76-.532-1.178-.076-.532-.646-.646-1.064-.912a2.119,2.119,0,0,0-1.178-.418c-.114,0-.228.038-.342.038a2.847,2.847,0,0,0-1.976.988,3.752,3.752,0,0,0-.684,2.014,2.524,2.524,0,0,0,.76,2.014,2.441,2.441,0,0,0,1.824.836c.532-.114.95-.114,1.14.228.152.266-.076.494-.266.988-.456.532-.342.836-.722.988a.863.863,0,0,0-.38.266c-.038.076-.152.19-.456.266-.266.076-.456.418-1.064.57a.522.522,0,0,0,.076,1.026.343.343,0,0,0,.19-.038A6.584,6.584,0,0,0,71.82-22c.228-.38.722-.418.874-.684a8.924,8.924,0,0,0,.988-1.1,4.683,4.683,0,0,0,1.026-2.242.92.92,0,0,0,.152-.494c0-.38-.228-.608-.038-1.026a.972.972,0,0,0,.076-.418C74.9-28.348,74.632-28.462,74.746-28.918ZM87.514-1.748a6.11,6.11,0,0,1-1.178-.038c-.494.228-.988-.228-.874-1.254a19.711,19.711,0,0,0-.076-2.508c-.38-.722.076-1.1,0-1.748a13.467,13.467,0,0,1,0-2.774c.114-.836-.228-1.938,0-2.736a16.429,16.429,0,0,1,0-2.736,9.4,9.4,0,0,1,0-2.736,21.91,21.91,0,0,1,0-2.736c.076-1.1-.418-1.482,0-2.09l.038-3.42c-.038-1.026.19-1.292.228-2.318a.74.74,0,0,0-.722-.8.549.549,0,0,0-.266.076c-.684.152-.988.494-1.748.646-.342.038-.722.418-1.292.3a3.552,3.552,0,0,0-1.558.152,11.018,11.018,0,0,0-1.9.076.614.614,0,0,0-.532.608.678.678,0,0,0,.608.646l1.482.114a.507.507,0,0,1,.38.152c.228.266.152.8.19,1.482,0,1.444.3,2.242,0,3.344-.228.874.38,1.254.19,2.014-.228.95.19,1.824-.114,2.812a2.218,2.218,0,0,0,0,.874,1.838,1.838,0,0,1-.076,1.406c0,.8.076,2.622,0,3.382a1.417,1.417,0,0,0,.076.456c.152.266.38.418-.076,1.178a8.952,8.952,0,0,1,0,2.47c.228.95-.228,1.6-.038,2.546A25.144,25.144,0,0,1,80.1-2.166c0,.228-.228.342-.684.456-.532,0-.8.038-1.254,0-.456,0-.646.266-.646.532,0,.3.228.646.456.646h.646c.456,0,.912,0,1.71-.038h.228a2.481,2.481,0,0,0,.646-.114c.228-.076.38-.114.532.152.684-.038,1.254-.038,1.786-.038h3.952a.539.539,0,0,0,.532-.608A.545.545,0,0,0,87.514-1.748Zm11.59,0a6.11,6.11,0,0,1-1.178-.038c-.494.228-.988-.228-.874-1.254a19.711,19.711,0,0,0-.076-2.508c-.38-.722.076-1.1,0-1.748a13.467,13.467,0,0,1,0-2.774c.114-.836-.228-1.938,0-2.736a16.429,16.429,0,0,1,0-2.736,9.4,9.4,0,0,1,0-2.736,21.91,21.91,0,0,1,0-2.736c.076-1.1-.418-1.482,0-2.09l.038-3.42c-.038-1.026.19-1.292.228-2.318a.74.74,0,0,0-.722-.8.549.549,0,0,0-.266.076c-.684.152-.988.494-1.748.646-.342.038-.722.418-1.292.3a3.552,3.552,0,0,0-1.558.152,11.018,11.018,0,0,0-1.9.076.614.614,0,0,0-.532.608.678.678,0,0,0,.608.646l1.482.114a.507.507,0,0,1,.38.152c.228.266.152.8.19,1.482,0,1.444.3,2.242,0,3.344-.228.874.38,1.254.19,2.014-.228.95.19,1.824-.114,2.812a2.218,2.218,0,0,0,0,.874,1.838,1.838,0,0,1-.076,1.406c0,.8.076,2.622,0,3.382a1.417,1.417,0,0,0,.076.456c.152.266.38.418-.076,1.178a8.952,8.952,0,0,1,0,2.47c.228.95-.228,1.6-.038,2.546a25.144,25.144,0,0,1-.152,2.736c0,.228-.228.342-.684.456-.532,0-.8.038-1.254,0-.456,0-.646.266-.646.532,0,.3.228.646.456.646h.646c.456,0,.912,0,1.71-.038h.228A2.481,2.481,0,0,0,92.8-.684c.228-.076.38-.114.532.152.684-.038,1.254-.038,1.786-.038h3.952a.539.539,0,0,0,.532-.608A.545.545,0,0,0,99.1-1.748Zm38.228.19c-.3-.228-.418-.152-.76-.228-.152-.038-.494.076-.646.038a.9.9,0,0,1-.684-.608,2.227,2.227,0,0,1-.152-1.178,7.059,7.059,0,0,0,0-1.558,19.143,19.143,0,0,0-.038-2.508c-.266-.342-.152-.494-.038-.76a1.981,1.981,0,0,0,.076-.532c.152-.722-.19-1.938,0-2.66.038-.722-.152-1.254-.076-1.938-.3-.38-.038-1.14-.418-1.862a6.047,6.047,0,0,0-1.1-1.444.652.652,0,0,1-.608-.418.914.914,0,0,0-.57-.456c-.608-.266-1.1-.57-1.482-.684a5,5,0,0,0-1.672-.152,2.647,2.647,0,0,1-.836.114,1.343,1.343,0,0,0-.76.076,6.751,6.751,0,0,0-1.748.836,16.788,16.788,0,0,0-1.634,1.178c-.532.3-.874.152-.722-.912l-.038-2.052c-.342-.494.114-1.026-.114-1.52a.6.6,0,0,1,.038-.684c.076-.152.152-.3.038-.456a1.219,1.219,0,0,1-.038-1.026,1.124,1.124,0,0,0,.076-.646,2.231,2.231,0,0,1-.038-1.216c0-.57.114-.874.076-1.634a14.566,14.566,0,0,1,.19-2.28c.152-.342-.266-.836-.684-.836a.464.464,0,0,0-.342.152,1.223,1.223,0,0,1-.836.3.812.812,0,0,0-.494.19c-.684.076-.8.38-1.482.38-.8-.152-1.444.342-1.938.228-.608-.038-.988.076-1.444.038a.55.55,0,0,0-.57.608.5.5,0,0,0,.532.532c.38.038.684-.038,1.292-.038.494.038.76.3.722.722a5.7,5.7,0,0,0,.038,1.406c.038.228.228.646,0,.836v1.6a1.68,1.68,0,0,1,.076.57,1.678,1.678,0,0,0-.076.646.407.407,0,0,1,.038.456.811.811,0,0,0-.038.456,3.943,3.943,0,0,0,.152.38c.114.19.19.342-.076.722a5.5,5.5,0,0,0-.076,1.6c.266.646-.228,1.064,0,1.6.228.8-.076.912,0,1.634.228.646-.152,1.292,0,1.6.342.532-.114,1.254,0,1.6.38.532-.266,1.026,0,1.634.228.532-.076,1.1,0,1.6.228.8-.076,1.33,0,1.6a7.467,7.467,0,0,1,0,1.6c0,.874,0,1.976-.038,2.7-.038.266-.152.342-.3.38-.114.038-.266.038-.342.114a1.89,1.89,0,0,0-.8.038.621.621,0,0,1-.266,0,.609.609,0,0,0-.456,0,.479.479,0,0,0-.494.494v.19c0,.342.114.532.456.532h.532a1.566,1.566,0,0,0,.456-.038,5.779,5.779,0,0,1,1.064-.076.813.813,0,0,1,.532,0,.549.549,0,0,0,.266.076c.038,0,.076-.038.152-.038a13.024,13.024,0,0,1,1.52-.114,16.613,16.613,0,0,0,1.748.114h.57c.152,0,.418.038.646.038h.152a1.7,1.7,0,0,1,.418-.038c.228,0,.456.038.8.038.38,0,.532-.114.57-.494s0-.532-.342-.722c-.114-.114-.266,0-.494-.038-.266,0-.76.114-.988,0-.19-.114-.3-.19-.342-.38-.038-.228.038-.646.038-1.33a.745.745,0,0,1-.076-.95c0-.456-.038-.836-.038-1.216-.38-.456.114-1.14-.038-1.368a.767.767,0,0,1-.076-.684.45.45,0,0,0,.038-.3.5.5,0,0,1-.038-.456.625.625,0,0,0,.038-.38c-.114-.532.152-.912.038-1.52a2.5,2.5,0,0,1,0-1.064c.19-.76-.076-1.444.076-2.09a4.835,4.835,0,0,1,.266-.8c.38-.456.456-.722.988-1.026a9.632,9.632,0,0,1,1.368-.76,6.507,6.507,0,0,1,1.71-.3,2.4,2.4,0,0,1,1.938.874,4.114,4.114,0,0,1,.38,2.28,23.769,23.769,0,0,0,0,2.85c-.076.95.038,2.166,0,2.888a9.739,9.739,0,0,0,0,1.824c.076.646-.152,1.482,0,1.786a3.275,3.275,0,0,0,0,.874c.038.456.114.646-.228.988-.114.114-.38.494-.76.342-.3-.114-.494,0-.76-.038a.5.5,0,0,0-.57.494c0,.418.038.684.456.684h.114a9.874,9.874,0,0,1,1.064,0h.8a.837.837,0,0,1,.3.038c.684-.038,1.368-.038,2.09-.076.836,0,1.33.038,1.786.038h.342a5.752,5.752,0,0,1,1.1.038h.95a.647.647,0,0,0,.266-.038c.418-.038.532-.228.532-.456A.869.869,0,0,0,137.332-1.558Zm18.012-1.824c-.114.342-.3.38-.456.76a1.384,1.384,0,0,1-.456.418.9.9,0,0,1-.57.038c-.76-.038-1.026-.684-1.064-1.254a22.69,22.69,0,0,1,0-2.28,1.285,1.285,0,0,1-.038-.836,3.207,3.207,0,0,0,.076-.722c-.038-.532-.38-.722-.076-1.33.152-.266-.152-.57,0-1.1.114-.38-.19-.76,0-1.33.114-.38-.038-.95.038-1.52a16.111,16.111,0,0,0-.228-2.508c-.3-.152-.266-.3-.266-.532a.983.983,0,0,0-.266-.684c-.3-.418-.57-.912-.988-1.064-.684-.228-.836-.722-1.292-.684-.608.038-.8-.418-1.33-.3-.57-.076-1.026-.114-1.368-.19a6.27,6.27,0,0,0-2.2.266,9.236,9.236,0,0,0-2.47.722c-.266.038-.342.152-.38.266-.076.114-.114.228-.494.228-.19,0-.342.3-.836.722a2.469,2.469,0,0,0-.76,2.014,2.157,2.157,0,0,0,.57,1.52,2.218,2.218,0,0,0,1.482.646c.608-.038.988.038,1.292-.57a2.3,2.3,0,0,0,.532-1.33,1.429,1.429,0,0,0-.532-1.216.785.785,0,0,1-.3-.95c-.114-.228.532-.836.988-.912a13.918,13.918,0,0,1,1.6-.266c.874.114,1.786.228,2.014.8.684.608.57,1.368.684,2.052a13.287,13.287,0,0,1,0,1.748,3.392,3.392,0,0,1,0,1.52c.076.266,0,.38-.152.646a.847.847,0,0,1-.836.418c-.722.076-.874.38-1.558.266a7.776,7.776,0,0,0-1.786.342,4.757,4.757,0,0,0-1.938.684c-.76.152-.8.646-1.558.988-.76.266-.95.912-1.444,1.672a4.2,4.2,0,0,0-.494,1.976,2.167,2.167,0,0,0,.038.494.721.721,0,0,0,.152.456c.114.228.3.342.19.8.3.57.494,1.1,1.064,1.292a4.894,4.894,0,0,0,1.52.836,7.231,7.231,0,0,0,1.748.266,7.94,7.94,0,0,0,2.166-.38c.076-.228.266-.266.456-.3a.6.6,0,0,0,.456-.19c.3-.266,1.026-.38,1.216-.912a.745.745,0,0,1,1.216.266,3.893,3.893,0,0,0,.95.874,5.247,5.247,0,0,0,2.242.57,1.11,1.11,0,0,0,.342.076c.456,0,.912-.38,1.14-.3a2.185,2.185,0,0,0,1.178-.608c.38-.38.722-.38.988-.95a4.191,4.191,0,0,0,.722-.95.343.343,0,0,0,.038-.19.578.578,0,0,0-.57-.532A.341.341,0,0,0,155.344-3.382Zm-7.3-.494a6.045,6.045,0,0,1-1.1,1.254,3.825,3.825,0,0,1-1.786.532,2.879,2.879,0,0,1-1.9-.874,1.2,1.2,0,0,1-.494-1.064c0-.342-.3-.608-.19-.988.19-.494.038-.608.152-.912-.114-.456.3-.684.532-1.178a2.5,2.5,0,0,1,1.178-1.064c.456-.456.8-.228,1.368-.608.342-.38.874-.19,1.14-.3.684-.19,1.368-.038,1.254.836a.719.719,0,0,0,.038.57.653.653,0,0,1,0,.646.566.566,0,0,0-.076.532.723.723,0,0,1,.038.646c-.038.418.19.532.038.988C148.124-4.484,148.276-4.18,148.048-3.876Zm26.9-14.1c-.646.038-.95.038-1.482.038a17.135,17.135,0,0,1-1.976,0c-.228.228-.266.19-.418.114-.076-.076-.228-.152-.57-.076-.38-.038-.684-.114-.912-.114a.511.511,0,0,0-.456.19.741.741,0,0,0,.114.95c.456.228.646.038,1.33.114.266-.038.494.038.608.456.152.646-.38,1.482-.57,2.318a7.579,7.579,0,0,0-.874,2.166c-.076.38-.456.532-.456,1.064a10.016,10.016,0,0,0-.418,1.1c-.342.646-.342.988-.608,1.52a8.936,8.936,0,0,1-.8,1.6c-.114.266-.228.38-.38.38s-.342-.19-.38-.456c-.038-.342-.494-.988-.608-1.558-.3-.494-.266-1.1-.532-1.444a.572.572,0,0,1-.266-.532,1.307,1.307,0,0,0-.19-.76c-.456-.646-.342-1.1-.646-1.748-.456-.152-.456-.532-.418-1.254-.114-.494-.646-1.976-.76-2.242-.19-.608.38-.8.8-.646a9.968,9.968,0,0,0,1.026.038c.3.038.494-.3.494-.646a.526.526,0,0,0-.532-.57c-.988,0-1.178.038-1.976.076-.988.038-1.52-.038-2.47,0a7.322,7.322,0,0,0-.912-.038c-.684,0-1.292.038-1.748,0a9.316,9.316,0,0,0-.95-.038h-.342c-.152,0-.3-.038-.532-.038-.342,0-.532.342-.532.684a.529.529,0,0,0,.532.57c.418,0,.722.038,1.178.038a1.737,1.737,0,0,1,.8.8c.418.722.266.912.684,1.672.456.266.342.95.684,1.672.342.76.532,1.6.8,2.052a10.236,10.236,0,0,1,.8,2.052,6.776,6.776,0,0,1,.8,2.052c.38.494.266,1.33.8,1.862.494.228.342.722.3.95a6.843,6.843,0,0,1,.532,1.71c.114.494.418.608.494,1.292-.038.57.342.8,1.444.8.646,0,1.1-.152,1.216-.912.19-.494.114-1.026.494-1.52.228-.456.114-.722.456-1.178a5.258,5.258,0,0,0,.456-1.178c.228-.342.076-.646.456-1.14.3-.646.456-1.216.608-1.6-.076-.3.076-.342.228-.456a1.115,1.115,0,0,0,.152-.3,15.291,15.291,0,0,0,.57-1.634c.076-.114.038-.228.038-.342a.368.368,0,0,1,.266-.266c.266-.38.418-1.1.57-1.292.3-.3.114-.874.456-1.178.3-.3.3-.874.494-1.178.152-.114.076-.418.456-1.064,0-.3.19-.456.532-1.064a1.954,1.954,0,0,1,.988-.646,2.729,2.729,0,0,0,1.216-.076.482.482,0,0,0,.266-.494C175.37-17.632,175.218-17.974,174.952-17.974Zm16.8,13c-.532.646-.646,1.026-.874,1.254-.152.646-.912.684-1.178,1.216-.684.608-1.026.38-1.482.8a4.283,4.283,0,0,1-1.9.266,3.8,3.8,0,0,1-1.634-.19,2.726,2.726,0,0,1-1.254-.532A2.2,2.2,0,0,1,182.438-3c-.38-.418-.266-.608-.722-1.1-.342-.38-.266-1.064-.456-1.254-.228-.19-.19-.38-.19-.684a1.863,1.863,0,0,0-.114-.722,2.636,2.636,0,0,1-.152-1.482,1.272,1.272,0,0,0-.038-.874,1.6,1.6,0,0,1,0-.608l.038-.152c.266-.342.456-.608.836-.608h2.7c.722-.19.912.114,1.786,0a5.6,5.6,0,0,1,1.786,0c.646.114,1.33-.076,2.356.038a8.942,8.942,0,0,0,2.2-.114c.3.076.646-.3.646-.76a.647.647,0,0,0-.038-.266,2.931,2.931,0,0,0-.608-2.09,1.307,1.307,0,0,1-.3-.532,1.54,1.54,0,0,0-.3-.494c-.3-.114-.266-.532-.722-.95a3.964,3.964,0,0,0-1.33-1.216,8.722,8.722,0,0,0-1.52-.874,2.886,2.886,0,0,0-1.672-.532c-.494.114-1.254-.228-1.634-.228-.076,0-.114.038-.152.038-.684.228-1.064-.076-1.9.19a4.174,4.174,0,0,0-1.748.532c-.418.3-1.292.456-1.6.874-.342.38-1.14.494-1.406,1.1-.266.57-.836.684-1.1,1.368-.266.646-.722.8-.874,1.6a.687.687,0,0,1-.114.722.794.794,0,0,0-.3.494,19.284,19.284,0,0,0-.342,2.128.741.741,0,0,0,.038.3,2.008,2.008,0,0,0-.038.456c0,.532.19.836.228,1.482a2.569,2.569,0,0,0,.532,1.786c.228.8.646.836.836,1.52a3.071,3.071,0,0,0,1.14,1.33.956.956,0,0,0,.456.266c.266.076.456.114.532.608a9.757,9.757,0,0,0,1.976,1.026,5.442,5.442,0,0,0,1.748.494,2.23,2.23,0,0,0,.874.152h.722a1.052,1.052,0,0,1,.342.038,7.024,7.024,0,0,1,.912-.038h.38A3.783,3.783,0,0,0,187.492-.3a4.53,4.53,0,0,0,2.09-.874l.76-.494c.114-.342.57-.57.95-.988.228-.3.532-.646.76-.988.152-.342.494-.456.608-.912.114-.3-.266-.646-.57-.646A.318.318,0,0,0,191.748-4.978Zm-10.45-8.93c.114-.456.076-1.1.456-1.482a8.179,8.179,0,0,1,1.216-1.52,3.049,3.049,0,0,1,1.938-.57,2.788,2.788,0,0,1,1.862.608c.494.3.608.95.988,1.52.418.532.114,1.14.418,1.558a8.464,8.464,0,0,1,.076,1.672c.038.57-.114.76-.912.722-1.064-.038-1.938.038-2.774,0-.608.038-1.9,0-2.622,0-.8,0-1.1-.3-.988-1.178a.96.96,0,0,0,.114-.684A.84.84,0,0,1,181.3-13.908ZM12.464,44.5c-.3.076-.418.342-.57.418a.505.505,0,0,1-.266.114.589.589,0,0,0-.38.266c-.076.114-.38.19-.456.266-.342.266-.532.19-1.1.228A1.4,1.4,0,0,1,8.4,45.372c-.152-.152-.532-.418-.532-.722a2.428,2.428,0,0,0-.228-.836,3.056,3.056,0,0,1-.114-1.254c.152-.8-.114-1.824.038-2.2-.038-.8,0-1.634,0-2.356-.266-.95.114-1.292-.038-1.976-.152-.38.152-1.786.076-2.242a12.65,12.65,0,0,1,.038-2.394c0-.228.114-.57.836-.608.38.038.532,0,1.254,0,.3,0,.38.152.836-.076.152-.076.342.114.684.076.342,0,.494-.3.494-.608,0-.342-.19-.646-.456-.532a3.132,3.132,0,0,1-.912-.076,1.066,1.066,0,0,0-.532.038.312.312,0,0,1-.266.038c-.494-.152-.57,0-.988-.038-.342-.038-.57,0-.722-.19a.608.608,0,0,1-.152-.418c-.076-.57.076-.8-.076-1.178-.076-.152,0-.266.038-.38a.375.375,0,0,0-.076-.38c-.152-.342.114-.684.076-1.026a5.87,5.87,0,0,1,.114-1.482c.076-.418-.038-.836,0-1.178.038-.266-.228-.38-.456-.38-.19,0-.418.076-.418.3a9.444,9.444,0,0,1-.3,1.292,1.635,1.635,0,0,1-.19.646,2.2,2.2,0,0,0-.266.532c-.3.342-.19.608-.532.874a4.106,4.106,0,0,1-.684.8c-.3.494-.57.532-.874.912-.19.19-.608.266-.988.646-.228.266-.836.19-1.064.418a.638.638,0,0,1-.494.152,3.93,3.93,0,0,0-.456.114c-.608.076-.646.266-.646.494v.152c0,.532.38.532.684.494a3.969,3.969,0,0,1,.95,0c.418.038.608.228.494.836,0,.8-.076,2.166-.038,3.192a8.554,8.554,0,0,1-.038,1.976,1.12,1.12,0,0,0,.038.532c.076.266.228.418.038.836-.19.342.114.684-.038,1.1-.114.57.076.8-.114,1.33a.321.321,0,0,0,0,.266.853.853,0,0,1,.038.646,1.553,1.553,0,0,0,.038.874.42.42,0,0,0,0,.3c0,.152.114.266,0,.494.114.456-.038.912.342,1.368s.342,1.064.874,1.33a1.548,1.548,0,0,0,.418.228c.228.076.38.114.532.532a4.545,4.545,0,0,0,1.52.608,11.269,11.269,0,0,0,1.444.266c.114,0,.228-.038.3-.038.722-.114,1.026-.076,1.482-.152a5.79,5.79,0,0,0,1.368-.456,4.023,4.023,0,0,0,1.254-.722,5.558,5.558,0,0,0,.494-.342c.266-.19.608-.266.646-.608a1.2,1.2,0,0,0-.228-.57A.415.415,0,0,0,12.464,44.5ZM33.25,38.266A6.738,6.738,0,0,1,33.1,36.29c-.114-.38-.152-1.482-.532-1.786a9.339,9.339,0,0,1-.836-1.6c-.228-.418-.912-.8-1.1-1.33-.456-.114-.836-.95-1.368-1.064-.646-.3-.912-.494-1.6-.8-.684-.076-1.292-.494-1.786-.494-.532.114-.912-.19-1.6-.19a1.425,1.425,0,0,0-.38.038h-.494a5.051,5.051,0,0,0-1.444.152,4.912,4.912,0,0,0-1.824.532c-.722.418-1.178.3-1.6.8-.646.19-.874.76-1.406,1.1-.646.266-.722,1.026-1.14,1.33-.38.494-.608,1.292-.988,1.824a.67.67,0,0,0-.152.608,1.758,1.758,0,0,1-.266.95,1.3,1.3,0,0,0-.152.874,2.2,2.2,0,0,1-.038,1.1,2.615,2.615,0,0,0-.076.494,7.619,7.619,0,0,0,.266,1.444c0,.494.532,1.368.532,1.748a7.33,7.33,0,0,0,.988,1.748c.494.19.532.342.57.494a.713.713,0,0,0,.38.684c.494.342.76.8,1.444,1.026a1.619,1.619,0,0,1,.57.342,1.612,1.612,0,0,0,1.026.456c.684.114,1.178.608,1.786.494a8.69,8.69,0,0,0,1.52.228,1.425,1.425,0,0,0,.418-.038h.228c.342,0,.608.038.836.038h.076a1.4,1.4,0,0,0,.836-.228,9.221,9.221,0,0,0,1.786-.494c.608-.076,1.064-.57,1.634-.76a3.614,3.614,0,0,0,1.368-1.1c.418-.152.532-.95,1.14-1.33.152-.38.608-1.14.988-1.976a1.6,1.6,0,0,0,.076-.684.609.609,0,0,1,.3-.684A13.065,13.065,0,0,0,33.25,38.266Zm-5.472,1.6c-.114.532.152,1.368-.152,1.634-.152.646-.076,1.254-.3,1.6-.418.456-.266.8-.57,1.52a2.543,2.543,0,0,1-1.178,1.368,3.256,3.256,0,0,1-1.71.532,2.678,2.678,0,0,1-1.254-.266,3.751,3.751,0,0,1-1.254-1.1l-.418-.57c-.342-.342-.3-.912-.494-1.216-.3-.342-.228-.912-.342-1.33,0-.418-.266-.684-.152-1.368.152-.874-.342-1.786-.114-2.394a3.633,3.633,0,0,1,.114-2.432c-.076-.684.3-.8.152-1.368a4.058,4.058,0,0,1,.3-1.368c0-.646.532-.722.494-1.216-.038-.38.152-.456.38-.608a1.711,1.711,0,0,0,.342-.38.768.768,0,0,1,.57-.456,2.432,2.432,0,0,0,.418-.228,4.948,4.948,0,0,1,1.254-.228,2.684,2.684,0,0,1,1.786.608c.532.57,1.064.874,1.1,1.292.228.608.532.76.57,1.52a10.775,10.775,0,0,0,.3,1.6c.3.266.3.494.228.684a1.625,1.625,0,0,0-.19.684c.076.836.38,1.482.152,1.9C27.7,38.57,27.968,39.368,27.778,39.862ZM61.826,44.5c-.3.076-.418.342-.57.418a.505.505,0,0,1-.266.114.589.589,0,0,0-.38.266c-.076.114-.38.19-.456.266-.342.266-.532.19-1.1.228a1.4,1.4,0,0,1-1.292-.418c-.152-.152-.532-.418-.532-.722A2.427,2.427,0,0,0,57,43.814a3.056,3.056,0,0,1-.114-1.254c.152-.8-.114-1.824.038-2.2-.038-.8,0-1.634,0-2.356-.266-.95.114-1.292-.038-1.976-.152-.38.152-1.786.076-2.242A12.65,12.65,0,0,1,57,31.388c0-.228.114-.57.836-.608.38.038.532,0,1.254,0,.3,0,.38.152.836-.076.152-.076.342.114.684.076.342,0,.494-.3.494-.608,0-.342-.19-.646-.456-.532a3.132,3.132,0,0,1-.912-.076,1.066,1.066,0,0,0-.532.038.312.312,0,0,1-.266.038c-.494-.152-.57,0-.988-.038-.342-.038-.57,0-.722-.19a.608.608,0,0,1-.152-.418c-.076-.57.076-.8-.076-1.178-.076-.152,0-.266.038-.38a.375.375,0,0,0-.076-.38c-.152-.342.114-.684.076-1.026a5.869,5.869,0,0,1,.114-1.482c.076-.418-.038-.836,0-1.178.038-.266-.228-.38-.456-.38-.19,0-.418.076-.418.3a9.444,9.444,0,0,1-.3,1.292,1.635,1.635,0,0,1-.19.646,2.2,2.2,0,0,0-.266.532c-.3.342-.19.608-.532.874a4.106,4.106,0,0,1-.684.8c-.3.494-.57.532-.874.912-.19.19-.608.266-.988.646-.228.266-.836.19-1.064.418a.638.638,0,0,1-.494.152,3.93,3.93,0,0,0-.456.114c-.608.076-.646.266-.646.494v.152c0,.532.38.532.684.494a3.969,3.969,0,0,1,.95,0c.418.038.608.228.494.836,0,.8-.076,2.166-.038,3.192a8.554,8.554,0,0,1-.038,1.976,1.12,1.12,0,0,0,.038.532c.076.266.228.418.038.836-.19.342.114.684-.038,1.1-.114.57.076.8-.114,1.33a.321.321,0,0,0,0,.266.853.853,0,0,1,.038.646,1.553,1.553,0,0,0,.038.874.42.42,0,0,0,0,.3c0,.152.114.266,0,.494.114.456-.038.912.342,1.368s.342,1.064.874,1.33a1.548,1.548,0,0,0,.418.228c.228.076.38.114.532.532a4.545,4.545,0,0,0,1.52.608,11.269,11.269,0,0,0,1.444.266c.114,0,.228-.038.3-.038.722-.114,1.026-.076,1.482-.152a5.79,5.79,0,0,0,1.368-.456,4.023,4.023,0,0,0,1.254-.722,5.558,5.558,0,0,0,.494-.342c.266-.19.608-.266.646-.608a1.2,1.2,0,0,0-.228-.57A.415.415,0,0,0,61.826,44.5Zm18.7-.38c-.114.342-.3.38-.456.76a1.384,1.384,0,0,1-.456.418.9.9,0,0,1-.57.038c-.76-.038-1.026-.684-1.064-1.254a22.687,22.687,0,0,1,0-2.28,1.285,1.285,0,0,1-.038-.836,3.206,3.206,0,0,0,.076-.722c-.038-.532-.38-.722-.076-1.33.152-.266-.152-.57,0-1.1.114-.38-.19-.76,0-1.33.114-.38-.038-.95.038-1.52a16.112,16.112,0,0,0-.228-2.508c-.3-.152-.266-.3-.266-.532a.983.983,0,0,0-.266-.684c-.3-.418-.57-.912-.988-1.064-.684-.228-.836-.722-1.292-.684-.608.038-.8-.418-1.33-.3-.57-.076-1.026-.114-1.368-.19a6.27,6.27,0,0,0-2.2.266,9.236,9.236,0,0,0-2.47.722c-.266.038-.342.152-.38.266-.076.114-.114.228-.494.228-.19,0-.342.3-.836.722a2.469,2.469,0,0,0-.76,2.014,2.157,2.157,0,0,0,.57,1.52,2.218,2.218,0,0,0,1.482.646c.608-.038.988.038,1.292-.57a2.3,2.3,0,0,0,.532-1.33,1.429,1.429,0,0,0-.532-1.216.785.785,0,0,1-.3-.95c-.114-.228.532-.836.988-.912a13.918,13.918,0,0,1,1.6-.266c.874.114,1.786.228,2.014.8.684.608.57,1.368.684,2.052a13.288,13.288,0,0,1,0,1.748,3.392,3.392,0,0,1,0,1.52c.076.266,0,.38-.152.646a.847.847,0,0,1-.836.418c-.722.076-.874.38-1.558.266a7.776,7.776,0,0,0-1.786.342,4.757,4.757,0,0,0-1.938.684c-.76.152-.8.646-1.558.988-.76.266-.95.912-1.444,1.672a4.2,4.2,0,0,0-.494,1.976,2.167,2.167,0,0,0,.038.494.721.721,0,0,0,.152.456c.114.228.3.342.19.8.3.57.494,1.1,1.064,1.292a4.894,4.894,0,0,0,1.52.836,7.231,7.231,0,0,0,1.748.266,7.94,7.94,0,0,0,2.166-.38c.076-.228.266-.266.456-.3a.6.6,0,0,0,.456-.19c.3-.266,1.026-.38,1.216-.912a.745.745,0,0,1,1.216.266,3.893,3.893,0,0,0,.95.874,5.247,5.247,0,0,0,2.242.57,1.11,1.11,0,0,0,.342.076c.456,0,.912-.38,1.14-.3a2.185,2.185,0,0,0,1.178-.608c.38-.38.722-.38.988-.95a4.191,4.191,0,0,0,.722-.95.343.343,0,0,0,.038-.19.578.578,0,0,0-.57-.532A.341.341,0,0,0,80.522,44.118Zm-7.3-.494a6.046,6.046,0,0,1-1.1,1.254,3.825,3.825,0,0,1-1.786.532,2.879,2.879,0,0,1-1.9-.874,1.2,1.2,0,0,1-.494-1.064c0-.342-.3-.608-.19-.988.19-.494.038-.608.152-.912-.114-.456.3-.684.532-1.178a2.5,2.5,0,0,1,1.178-1.064c.456-.456.8-.228,1.368-.608.342-.38.874-.19,1.14-.3.684-.19,1.368-.038,1.254.836a.719.719,0,0,0,.038.57.653.653,0,0,1,0,.646A.566.566,0,0,0,73.34,41a.723.723,0,0,1,.038.646c-.038.418.19.532.038.988C73.3,43.016,73.454,43.32,73.226,43.624Zm30.856,2.318a1.16,1.16,0,0,0-.874-.19,2.637,2.637,0,0,1-1.178-.114c-.342-.266-.608-.418-.722-.722-.228-.38-.532-.532-.684-.874-.456-.228-.418-.836-.684-.988a1.16,1.16,0,0,1-.342-.494,1.32,1.32,0,0,0-.228-.342c-.38-.114-.418-.266-.418-.38a.234.234,0,0,0-.152-.266.884.884,0,0,1-.342-.418c-.038-.152-.038-.3-.152-.38-.57-.494-.532-.76-.874-1.216a6.288,6.288,0,0,1-.988-1.482c-.418-.342-.57-.874-.912-1.292a15.2,15.2,0,0,1-.8-1.33.718.718,0,0,1,.152-1.14,10.626,10.626,0,0,1,1.254-1.14,2.747,2.747,0,0,0,.76-.646,2.621,2.621,0,0,1,.57-.57c.418-.3.38-.456.722-.646l.3-.19a1.9,1.9,0,0,1,1.254-.38c.3-.076.418.038.8,0,.228-.038.646.114.912-.114.38-.114.3-.95-.038-1.1-.228-.114-.532,0-.912-.038-.342-.038-.76.114-.988.038-.8.114-1.292-.038-1.786.038a11.476,11.476,0,0,0-1.672,0,3.767,3.767,0,0,1-1.1-.038.948.948,0,0,0-.95.152.614.614,0,0,0,.342,1.026c.456-.038.608.038,1.178-.038.228-.076.76,0,.722.38,0,.228-.3.38-.38.608a9.066,9.066,0,0,1-1.292,1.254c-.418.456-.95.76-1.558,1.406-.418.3-.532.646-1.216,1.064-.3.266-.494.57-.95.646a.494.494,0,0,1-.836-.38V33.63a2.212,2.212,0,0,0-.038-1.482c-.152-.228,0-.418.076-.646a.733.733,0,0,0,0-.494c-.228-.532.114-.836-.076-1.216-.3-.608.038-1.026.076-1.748a2.627,2.627,0,0,0-.152-.684.614.614,0,0,1,.076-.608,3.564,3.564,0,0,0,.076-1.672,5.8,5.8,0,0,0,0-1.406c.038-.456-.342-1.216.076-1.558.038-.532.076-1.254.076-1.976,0-.76.228-1.1.114-1.52.19-.342-.3-.722-.76-.722a.716.716,0,0,0-.3.076c-.722.418-.95.3-1.368.57-.608.418-.836.152-1.558.418-.456.19-1.064.038-1.71.228-.456.038-.76-.076-1.482-.038-.494.076-.684.342-.684.646a.727.727,0,0,0,.608.684,5.191,5.191,0,0,1,1.33,0c.532-.152.836.874.722,1.748a6.1,6.1,0,0,0,0,1.444,2.638,2.638,0,0,1,0,1.444c-.038.456.228.722-.076,1.254,0,.57,0,1.026.038,1.368a.645.645,0,0,1,.19.874,1.85,1.85,0,0,0-.114.988,9.654,9.654,0,0,1-.038,2.09,22.685,22.685,0,0,0,0,2.28c.342.646-.076.874-.076,1.786.228.608-.19,2.166.076,2.774a18.355,18.355,0,0,1,0,2.052.7.7,0,0,1,.114.646,2.3,2.3,0,0,0-.19.874l.038,1.9c-.114.684.114,1.216-.342,1.558-.266.3-.76.19-.874.228-.608.076-.874-.076-1.14,0a.553.553,0,0,0-.456.608c0,.3.152.57.494.57a1.745,1.745,0,0,1,.38-.038c.3,0,.494.076.722.076a.482.482,0,0,0,.228-.038,1.052,1.052,0,0,1,.342-.038c.228,0,.418.038.608.038l.266-.038a9.88,9.88,0,0,1,2.09.038,7.988,7.988,0,0,1,1.292-.038,4.142,4.142,0,0,0,.646-.038c.418.038.76.076,1.064.076a1.425,1.425,0,0,0,.418-.038,5.624,5.624,0,0,1,.76.038,1.925,1.925,0,0,0,.494-.076c.19.038.266-.19.266-.456,0-.342-.114-.684-.418-.684-.418,0-.646.038-1.254,0-.38-.152-.722-.418-.57-.95a19.143,19.143,0,0,1-.038-2.052c.228-.836-.114-1.482,0-2.318a3.269,3.269,0,0,1-.038-1.482c.038-.418.532-.8.836-.646a1.165,1.165,0,0,1,.608.646,1.334,1.334,0,0,0,.38.3.61.61,0,0,1,.3.57c.456.608.456.988.76,1.064.494.494.494.874.684,1.026.266.266.456.836.684.988.19.3.646.38.684.988.266.342.418.684.684.988a1.511,1.511,0,0,1,.228.608c0,.152-.114.266-.456.3a4.04,4.04,0,0,0-1.178.038c-.114,0-.266.266-.266.57a.547.547,0,0,0,.608.57h1.292l2.242-.038c.19-.19.418,0,1.178,0,.646,0,.988.038,1.482.038h2.66a1.172,1.172,0,0,0,.38-.038c.266,0,.418-.266.418-.57A.571.571,0,0,0,104.082,45.942Zm16.8-3.42c-.532.646-.646,1.026-.874,1.254-.152.646-.912.684-1.178,1.216-.684.608-1.026.38-1.482.8a4.283,4.283,0,0,1-1.9.266,3.8,3.8,0,0,1-1.634-.19,2.726,2.726,0,0,1-1.254-.532,2.2,2.2,0,0,1-.988-.836c-.38-.418-.266-.608-.722-1.1-.342-.38-.266-1.064-.456-1.254-.228-.19-.19-.38-.19-.684a1.863,1.863,0,0,0-.114-.722,2.636,2.636,0,0,1-.152-1.482,1.272,1.272,0,0,0-.038-.874,1.6,1.6,0,0,1,0-.608l.038-.152c.266-.342.456-.608.836-.608h2.7c.722-.19.912.114,1.786,0a5.6,5.6,0,0,1,1.786,0c.646.114,1.33-.076,2.356.038a8.942,8.942,0,0,0,2.2-.114c.3.076.646-.3.646-.76a.647.647,0,0,0-.038-.266,2.93,2.93,0,0,0-.608-2.09,1.306,1.306,0,0,1-.3-.532,1.539,1.539,0,0,0-.3-.494c-.3-.114-.266-.532-.722-.95a3.964,3.964,0,0,0-1.33-1.216,8.722,8.722,0,0,0-1.52-.874,2.886,2.886,0,0,0-1.672-.532c-.494.114-1.254-.228-1.634-.228-.076,0-.114.038-.152.038-.684.228-1.064-.076-1.9.19a4.174,4.174,0,0,0-1.748.532c-.418.3-1.292.456-1.6.874-.342.38-1.14.494-1.406,1.1-.266.57-.836.684-1.1,1.368-.266.646-.722.8-.874,1.6a.687.687,0,0,1-.114.722.794.794,0,0,0-.3.494,19.282,19.282,0,0,0-.342,2.128.741.741,0,0,0,.038.3,2.008,2.008,0,0,0-.038.456c0,.532.19.836.228,1.482a2.569,2.569,0,0,0,.532,1.786c.228.8.646.836.836,1.52a3.071,3.071,0,0,0,1.14,1.33.956.956,0,0,0,.456.266c.266.076.456.114.532.608a9.757,9.757,0,0,0,1.976,1.026,5.442,5.442,0,0,0,1.748.494,2.229,2.229,0,0,0,.874.152h.722a1.052,1.052,0,0,1,.342.038,7.024,7.024,0,0,1,.912-.038h.38a3.783,3.783,0,0,0,1.368-.266,4.529,4.529,0,0,0,2.09-.874l.76-.494c.114-.342.57-.57.95-.988.228-.3.532-.646.76-.988.152-.342.494-.456.608-.912.114-.3-.266-.646-.57-.646A.318.318,0,0,0,120.878,42.522Zm-10.45-8.93c.114-.456.076-1.1.456-1.482a8.178,8.178,0,0,1,1.216-1.52,3.049,3.049,0,0,1,1.938-.57,2.788,2.788,0,0,1,1.862.608c.494.3.608.95.988,1.52.418.532.114,1.14.418,1.558a8.465,8.465,0,0,1,.076,1.672c.038.57-.114.76-.912.722-1.064-.038-1.938.038-2.774,0-.608.038-1.9,0-2.622,0-.8,0-1.1-.3-.988-1.178a.96.96,0,0,0,.114-.684A.84.84,0,0,1,110.428,33.592ZM150.48,44.5c-.3.076-.418.342-.57.418a.505.505,0,0,1-.266.114.589.589,0,0,0-.38.266c-.076.114-.38.19-.456.266-.342.266-.532.19-1.1.228a1.4,1.4,0,0,1-1.292-.418c-.152-.152-.532-.418-.532-.722a2.427,2.427,0,0,0-.228-.836,3.056,3.056,0,0,1-.114-1.254c.152-.8-.114-1.824.038-2.2-.038-.8,0-1.634,0-2.356-.266-.95.114-1.292-.038-1.976-.152-.38.152-1.786.076-2.242a12.649,12.649,0,0,1,.038-2.394c0-.228.114-.57.836-.608.38.038.532,0,1.254,0,.3,0,.38.152.836-.076.152-.076.342.114.684.076.342,0,.494-.3.494-.608,0-.342-.19-.646-.456-.532a3.132,3.132,0,0,1-.912-.076,1.066,1.066,0,0,0-.532.038.312.312,0,0,1-.266.038c-.494-.152-.57,0-.988-.038-.342-.038-.57,0-.722-.19a.608.608,0,0,1-.152-.418c-.076-.57.076-.8-.076-1.178-.076-.152,0-.266.038-.38a.375.375,0,0,0-.076-.38c-.152-.342.114-.684.076-1.026a5.87,5.87,0,0,1,.114-1.482c.076-.418-.038-.836,0-1.178.038-.266-.228-.38-.456-.38-.19,0-.418.076-.418.3a9.446,9.446,0,0,1-.3,1.292,1.635,1.635,0,0,1-.19.646,2.2,2.2,0,0,0-.266.532c-.3.342-.19.608-.532.874a4.106,4.106,0,0,1-.684.8c-.3.494-.57.532-.874.912-.19.19-.608.266-.988.646-.228.266-.836.19-1.064.418a.638.638,0,0,1-.494.152,3.93,3.93,0,0,0-.456.114c-.608.076-.646.266-.646.494v.152c0,.532.38.532.684.494a3.969,3.969,0,0,1,.95,0c.418.038.608.228.494.836,0,.8-.076,2.166-.038,3.192a8.554,8.554,0,0,1-.038,1.976,1.12,1.12,0,0,0,.038.532c.076.266.228.418.038.836-.19.342.114.684-.038,1.1-.114.57.076.8-.114,1.33a.321.321,0,0,0,0,.266.853.853,0,0,1,.038.646,1.553,1.553,0,0,0,.038.874.42.42,0,0,0,0,.3c0,.152.114.266,0,.494.114.456-.038.912.342,1.368s.342,1.064.874,1.33a1.548,1.548,0,0,0,.418.228c.228.076.38.114.532.532a4.545,4.545,0,0,0,1.52.608,11.268,11.268,0,0,0,1.444.266c.114,0,.228-.038.3-.038.722-.114,1.026-.076,1.482-.152a5.79,5.79,0,0,0,1.368-.456,4.023,4.023,0,0,0,1.254-.722,5.557,5.557,0,0,0,.494-.342c.266-.19.608-.266.646-.608a1.2,1.2,0,0,0-.228-.57A.415.415,0,0,0,150.48,44.5Zm22.99,1.444c-.3-.228-.418-.152-.76-.228-.152-.038-.494.076-.646.038a.9.9,0,0,1-.684-.608,2.227,2.227,0,0,1-.152-1.178,7.06,7.06,0,0,0,0-1.558,19.146,19.146,0,0,0-.038-2.508c-.266-.342-.152-.494-.038-.76a1.98,1.98,0,0,0,.076-.532c.152-.722-.19-1.938,0-2.66.038-.722-.152-1.254-.076-1.938-.3-.38-.038-1.14-.418-1.862a6.047,6.047,0,0,0-1.1-1.444.652.652,0,0,1-.608-.418.914.914,0,0,0-.57-.456c-.608-.266-1.1-.57-1.482-.684a5,5,0,0,0-1.672-.152,2.647,2.647,0,0,1-.836.114,1.343,1.343,0,0,0-.76.076,6.751,6.751,0,0,0-1.748.836,16.788,16.788,0,0,0-1.634,1.178c-.532.3-.874.152-.722-.912l-.038-2.052c-.342-.494.114-1.026-.114-1.52a.6.6,0,0,1,.038-.684c.076-.152.152-.3.038-.456a1.219,1.219,0,0,1-.038-1.026,1.124,1.124,0,0,0,.076-.646,2.231,2.231,0,0,1-.038-1.216c0-.57.114-.874.076-1.634a14.566,14.566,0,0,1,.19-2.28c.152-.342-.266-.836-.684-.836a.464.464,0,0,0-.342.152,1.223,1.223,0,0,1-.836.3.812.812,0,0,0-.494.19c-.684.076-.8.38-1.482.38-.8-.152-1.444.342-1.938.228-.608-.038-.988.076-1.444.038a.55.55,0,0,0-.57.608.5.5,0,0,0,.532.532c.38.038.684-.038,1.292-.038.494.038.76.3.722.722a5.7,5.7,0,0,0,.038,1.406c.038.228.228.646,0,.836v1.6a1.68,1.68,0,0,1,.076.57,1.678,1.678,0,0,0-.076.646.407.407,0,0,1,.038.456.811.811,0,0,0-.038.456,3.943,3.943,0,0,0,.152.38c.114.19.19.342-.076.722a5.5,5.5,0,0,0-.076,1.6c.266.646-.228,1.064,0,1.6.228.8-.076.912,0,1.634.228.646-.152,1.292,0,1.6.342.532-.114,1.254,0,1.6.38.532-.266,1.026,0,1.634.228.532-.076,1.1,0,1.6.228.8-.076,1.33,0,1.6a7.468,7.468,0,0,1,0,1.6c0,.874,0,1.976-.038,2.7-.038.266-.152.342-.3.38-.114.038-.266.038-.342.114a1.89,1.89,0,0,0-.8.038.621.621,0,0,1-.266,0,.61.61,0,0,0-.456,0,.479.479,0,0,0-.494.494v.19c0,.342.114.532.456.532h.532a1.566,1.566,0,0,0,.456-.038,5.779,5.779,0,0,1,1.064-.076.813.813,0,0,1,.532,0,.549.549,0,0,0,.266.076c.038,0,.076-.038.152-.038a13.024,13.024,0,0,1,1.52-.114,16.614,16.614,0,0,0,1.748.114h.57c.152,0,.418.038.646.038h.152a1.7,1.7,0,0,1,.418-.038c.228,0,.456.038.8.038.38,0,.532-.114.57-.494s0-.532-.342-.722c-.114-.114-.266,0-.494-.038-.266,0-.76.114-.988,0-.19-.114-.3-.19-.342-.38-.038-.228.038-.646.038-1.33a.745.745,0,0,1-.076-.95c0-.456-.038-.836-.038-1.216-.38-.456.114-1.14-.038-1.368a.767.767,0,0,1-.076-.684.45.45,0,0,0,.038-.3.5.5,0,0,1-.038-.456.625.625,0,0,0,.038-.38c-.114-.532.152-.912.038-1.52a2.5,2.5,0,0,1,0-1.064c.19-.76-.076-1.444.076-2.09a4.835,4.835,0,0,1,.266-.8c.38-.456.456-.722.988-1.026a9.633,9.633,0,0,1,1.368-.76,6.507,6.507,0,0,1,1.71-.3,2.4,2.4,0,0,1,1.938.874,4.114,4.114,0,0,1,.38,2.28,23.772,23.772,0,0,0,0,2.85c-.076.95.038,2.166,0,2.888a9.741,9.741,0,0,0,0,1.824c.076.646-.152,1.482,0,1.786a3.277,3.277,0,0,0,0,.874c.038.456.114.646-.228.988-.114.114-.38.494-.76.342-.3-.114-.494,0-.76-.038a.5.5,0,0,0-.57.494c0,.418.038.684.456.684h.114a9.873,9.873,0,0,1,1.064,0h.8a.837.837,0,0,1,.3.038c.684-.038,1.368-.038,2.09-.076.836,0,1.33.038,1.786.038h.342a5.753,5.753,0,0,1,1.1.038h.95a.647.647,0,0,0,.266-.038c.418-.038.532-.228.532-.456A.869.869,0,0,0,173.47,45.942Zm17.518-3.42c-.532.646-.646,1.026-.874,1.254-.152.646-.912.684-1.178,1.216-.684.608-1.026.38-1.482.8a4.283,4.283,0,0,1-1.9.266,3.8,3.8,0,0,1-1.634-.19,2.726,2.726,0,0,1-1.254-.532,2.2,2.2,0,0,1-.988-.836c-.38-.418-.266-.608-.722-1.1-.342-.38-.266-1.064-.456-1.254-.228-.19-.19-.38-.19-.684a1.863,1.863,0,0,0-.114-.722,2.636,2.636,0,0,1-.152-1.482,1.272,1.272,0,0,0-.038-.874,1.6,1.6,0,0,1,0-.608l.038-.152c.266-.342.456-.608.836-.608h2.7c.722-.19.912.114,1.786,0a5.6,5.6,0,0,1,1.786,0c.646.114,1.33-.076,2.356.038a8.942,8.942,0,0,0,2.2-.114c.3.076.646-.3.646-.76a.647.647,0,0,0-.038-.266,2.931,2.931,0,0,0-.608-2.09,1.307,1.307,0,0,1-.3-.532,1.539,1.539,0,0,0-.3-.494c-.3-.114-.266-.532-.722-.95a3.964,3.964,0,0,0-1.33-1.216,8.722,8.722,0,0,0-1.52-.874,2.886,2.886,0,0,0-1.672-.532c-.494.114-1.254-.228-1.634-.228-.076,0-.114.038-.152.038-.684.228-1.064-.076-1.9.19a4.174,4.174,0,0,0-1.748.532c-.418.3-1.292.456-1.6.874-.342.38-1.14.494-1.406,1.1-.266.57-.836.684-1.1,1.368-.266.646-.722.8-.874,1.6a.687.687,0,0,1-.114.722.794.794,0,0,0-.3.494,19.284,19.284,0,0,0-.342,2.128.741.741,0,0,0,.038.3,2.008,2.008,0,0,0-.038.456c0,.532.19.836.228,1.482a2.569,2.569,0,0,0,.532,1.786c.228.8.646.836.836,1.52a3.071,3.071,0,0,0,1.14,1.33.956.956,0,0,0,.456.266c.266.076.456.114.532.608a9.757,9.757,0,0,0,1.976,1.026,5.442,5.442,0,0,0,1.748.494,2.23,2.23,0,0,0,.874.152h.722a1.052,1.052,0,0,1,.342.038,7.024,7.024,0,0,1,.912-.038h.38a3.783,3.783,0,0,0,1.368-.266,4.53,4.53,0,0,0,2.09-.874l.76-.494c.114-.342.57-.57.95-.988.228-.3.532-.646.76-.988.152-.342.494-.456.608-.912.114-.3-.266-.646-.57-.646A.318.318,0,0,0,190.988,42.522Zm-10.45-8.93c.114-.456.076-1.1.456-1.482a8.179,8.179,0,0,1,1.216-1.52,3.049,3.049,0,0,1,1.938-.57,2.788,2.788,0,0,1,1.862.608c.494.3.608.95.988,1.52.418.532.114,1.14.418,1.558a8.464,8.464,0,0,1,.076,1.672c.038.57-.114.76-.912.722-1.064-.038-1.938.038-2.774,0-.608.038-1.9,0-2.622,0-.8,0-1.1-.3-.988-1.178a.96.96,0,0,0,.114-.684A.84.84,0,0,1,180.538,33.592Zm49.894,22.572a4.19,4.19,0,0,0-1.178-.076,1.415,1.415,0,0,1-1.1-1.064,18.474,18.474,0,0,0-.114-2.546.6.6,0,0,1-.076-.836.532.532,0,0,0,0-.418c0-.3-.266-1.216,0-1.634a9.647,9.647,0,0,1-.038-1.14c0-.266.076-1.026.038-1.216a.376.376,0,0,1,0-.57.283.283,0,0,0,.038-.342c-.342-.57.114-.95-.038-1.444-.114-.494.19-1.254-.038-2.014-.152-.532.19-.8,0-1.33a3.939,3.939,0,0,0-.038-.76,1.18,1.18,0,0,1,.076-.684,12.2,12.2,0,0,0,0-2.356c.038-.57-.076-1.33,0-2.394a17.8,17.8,0,0,1,0-2.014c-.342-.418-.19-.646-.076-.95a1.1,1.1,0,0,0,.114-.532c.038-.38.038-1.064.532-1.1.456-.038.874.076,1.6,0,.228.038.342-.228.342-.494s-.114-.57-.342-.608c-.684-.152-.76.152-1.558-.038-.532-.114-1.292-.038-1.71-.152-.874-.152-1.368,0-1.71-.19-.456-.19-.912-.152-1.292-.342a.482.482,0,0,0-.228-.038.66.66,0,0,0-.646.494c-.228.266.038.912.038,1.444.114.646-.152.8-.532.456a5.188,5.188,0,0,1-.874-.722c-.38,0-.418-.076-.494-.228a.824.824,0,0,0-.266-.228,4.754,4.754,0,0,1-1.178-.57,7.688,7.688,0,0,0-2.47-.456c-.722-.19-1.178.152-1.748.228a7.733,7.733,0,0,0-1.672.76c-.266.114-.342.19-.38.3-.114.152-.076.342-.76.532a11.813,11.813,0,0,0-1.1,1.254c-.114.418-.874,1.026-.836,1.444l-.646,1.6a4.675,4.675,0,0,0-.38,1.634,1.747,1.747,0,0,0,.038.8c.076.342.19.57-.152.874,0,.114-.038.228-.038.342a9.253,9.253,0,0,0,.152,1.33,5.706,5.706,0,0,0,.38,1.634c.266.57.228,1.254.608,1.52.152.266.76,1.064.874,1.368.19.418.76.57,1.1,1.14a.463.463,0,0,0,.456.228c.266.076.57.076.722.57a11.977,11.977,0,0,0,1.672.646c.76-.076.988.456,1.748.228a2.257,2.257,0,0,0,1.672-.19c.722.076.836-.494,1.444-.532a3.694,3.694,0,0,0,1.672-1.026.931.931,0,0,1,.608-.3c.228,0,.342.152.266.532.038.38-.152,1.026.114,1.482a.5.5,0,0,1,.038.456.642.642,0,0,0-.038.646c.19.228.152.342.114.456-.076.114-.152.19-.152.3,0,.494-.038.76-.038,1.178.152.646-.19,1.1,0,1.824a24.2,24.2,0,0,1-.038,2.888c.038.684-.3.874-.608.912a10.122,10.122,0,0,1-1.558.038c-.266,0-.494.342-.494.646a.47.47,0,0,0,.532.494H222a6.949,6.949,0,0,0,1.254-.076,4.611,4.611,0,0,0,.684.038c.456,0,.912-.038,1.558-.038.076,0,.152.038.228.038a.642.642,0,0,0,.342-.076.4.4,0,0,1,.418-.038c.38.114.57-.152,1.14.114.988,0,1.672.038,2.812.038.3,0,.418-.266.418-.57C230.85,56.468,230.7,56.164,230.432,56.164Zm-7.41-14.972a5.093,5.093,0,0,1,0,1.52,4.572,4.572,0,0,1-.8,1.292,3.573,3.573,0,0,0-.95.8c-.266.266-.494.19-1.064.532a.761.761,0,0,1-.722.152.872.872,0,0,0-.532.038,3.082,3.082,0,0,1-2.014-.722c-.8-.608-.874-1.292-1.216-1.824a5.924,5.924,0,0,1-.57-2.242A4.15,4.15,0,0,1,215,38.608c.114-.874-.228-1.368.152-2.28a7.82,7.82,0,0,1,.57-2.432A5.187,5.187,0,0,1,216.98,32a4.562,4.562,0,0,1,2.166-.76,2.389,2.389,0,0,1,1.6.38c.532.3.874.8,1.216.988a2.734,2.734,0,0,1,.8,1.368,2.4,2.4,0,0,1,.266,1.634c-.114.608.038,1.672-.038,2.47a1.851,1.851,0,0,0,.076.57.581.581,0,0,1,.038.608C222.908,39.748,223.212,40.432,223.022,41.192Zm29.032,4.446a3.349,3.349,0,0,0-1.216.038c-.456.152-1.254-.912-.988-1.444.038-.874-.038-1.9,0-2.546.228-.912-.114-1.14,0-2.09-.19-.722.228-1.178,0-2.09a12.6,12.6,0,0,1,0-2.09c.418-.95-.266-1.558,0-2.09l.038-1.254c.19-.722-.152-1.33.076-1.786a.989.989,0,0,0-.722-1.52.288.288,0,0,0-.152.076,9.61,9.61,0,0,0-1.482.342c-.57.38-.988-.038-1.71.266a10.75,10.75,0,0,0-1.71.076,10.09,10.09,0,0,0-1.52,0,.739.739,0,0,0-.418.684c0,.228.152.494.608.608a4.172,4.172,0,0,0,1.292.076c.646,0,1.026.3.8.988a14.48,14.48,0,0,1,0,1.824,7.466,7.466,0,0,0,0,1.6c.076.57-.152,1.292,0,1.6-.114.3.228,1.178,0,1.558-.152.532.076.836,0,1.6-.228.684.19,1.33,0,1.558-.076.418.114,1.026,0,1.6a3.176,3.176,0,0,0-.874.874l-.38.342a2,2,0,0,0-.532.38,2.644,2.644,0,0,1-2.28.684c-.76.228-1.14-.342-1.444-.342a2.186,2.186,0,0,1-.76-.912,1.226,1.226,0,0,1-.342-1.254,6.577,6.577,0,0,1-.076-1.482,6.056,6.056,0,0,0,0-2.356c-.114-.912.228-1.406,0-2.318a15.672,15.672,0,0,0,0-1.9,5.262,5.262,0,0,0,.038-1.9,4.29,4.29,0,0,0,.19-1.482c.114-.836.076-1.292.19-2.052a.582.582,0,0,0-.532-.722.343.343,0,0,0-.19.038c-.494.114-1.254.342-1.634.418-.646-.038-1.33.266-1.634.228a8.21,8.21,0,0,0-1.634-.076,2.605,2.605,0,0,0-1.558.152.714.714,0,0,0-.3.646.609.609,0,0,0,.342.608,2.077,2.077,0,0,0,1.216.152c.456-.038.722.456.646,1.52.114.76-.266,2.356-.038,2.926a17.32,17.32,0,0,0-.038,2.432c-.076.8,0,1.824-.038,2.394.19.836-.152,1.178.038,2.052-.152.95.114,1.14.494,1.976a11.675,11.675,0,0,0,.912,1.33c.266.418.874.57,1.254.988a2.926,2.926,0,0,0,1.52.608,5.049,5.049,0,0,1,1.6.228c.76,0,1.254-.266,1.748-.228.684-.076.836-.418,1.52-.608a3.257,3.257,0,0,0,1.672-.95c.494-.456.874-.266.988.19,0,.418-.076.684-.076,1.178,0,.3.266.532.684.646.076,0,.114.038.19.038.456,0,.912-.456,1.368-.342.38-.076,1.1-.152,1.52-.266a13.973,13.973,0,0,1,1.786,0c.57-.076,1.178.152,1.52-.038a.675.675,0,0,0,.57-.646A.763.763,0,0,0,252.054,45.638Zm4.94-21.812c.494.418.836.722,1.33.722a3.487,3.487,0,0,0,2.508-.57A2.093,2.093,0,0,0,261.744,22a3.261,3.261,0,0,0-.684-1.71.69.69,0,0,1-.57-.418.6.6,0,0,0-.266-.266,2.069,2.069,0,0,0-.95-.342.482.482,0,0,0-.228.038,2.953,2.953,0,0,0-1.482.494c-.114.076-.114.3-.532.38-.456.684-.836.912-.57,1.786a2.283,2.283,0,0,0,.114,1.1.644.644,0,0,0,.228.3A.64.64,0,0,1,256.994,23.826Zm6.65,22a2.868,2.868,0,0,0-1.33-.076.679.679,0,0,1-.874-.722c0-.95-.076-1.558,0-2.356a1.108,1.108,0,0,1-.228-.57c0-.228.152-.38.19-.684a6.122,6.122,0,0,1,.038-1.862A9.825,9.825,0,0,1,261.4,38c-.038-.57-.418-.874.038-1.6.076-.456-.3-.646-.076-1.292.038-.456-.342-.912.038-1.33.038-.76,0-1.824.076-2.318a7.593,7.593,0,0,1,.076-1.33,1.714,1.714,0,0,0,0-.988c-.266-.456-.722-.342-1.026-.228-.76.418-1.026.228-1.444.342a4.186,4.186,0,0,1-1.482.152,13.365,13.365,0,0,1-1.71.114c-.532.038-.912.038-1.52.038-.266-.038-.456.3-.456.608a.518.518,0,0,0,.57.57c.38.076.8-.038,1.33.038.3.038.418.342.532.722.076.418.114,2.356.114,2.85v1.9c-.228.532.152,1.786,0,2.318-.266.874.3,1.482.038,2.242-.266.494.19.988-.038,1.824a9.337,9.337,0,0,0-.152,2.28c.076.494-.076.8-.684.836h-1.444c-.3-.076-.608.3-.608.646,0,.266.19.57.684.57h.57c.76,0,1.178-.038,1.824-.076.8-.038,1.444,0,2.166-.038a18.954,18.954,0,0,0,2.546,0,2.762,2.762,0,0,0,.95.152c.38,0,.76-.038,1.216-.076h.076c.19,0,.3-.266.3-.532v-.114C263.91,46.056,263.834,45.828,263.644,45.828Zm18.24-3.04a19.633,19.633,0,0,1,.228-2.546.408.408,0,0,0-.456-.418.685.685,0,0,0-.608.342,1.424,1.424,0,0,0-.19.646,2.236,2.236,0,0,1-.076.646c-.152.494-.114.988-.418,1.368.038.836-.76.874-.912,1.52a2.472,2.472,0,0,1-1.672,1.064c-.874.076-1.558.152-2.584.152a11.436,11.436,0,0,1-1.976,0c-.836.038-1.292-.3-1.064-.646.266-.38.3-1.064.57-1.1.266-.114.266-.57.646-.988a4.677,4.677,0,0,0,.646-.95,1.144,1.144,0,0,0,.152-.532c.038-.342.076-.418.494-.456.266-.38.266-.646.608-.988.152-.266.19-.38.266-.494a2.546,2.546,0,0,1,.38-.456c.418-.076.342-.76.646-.988a5.523,5.523,0,0,0,.646-.988c.266-.418.228-.684.646-.95.228-.076.228-.3.228-.494a.421.421,0,0,1,.19-.38.787.787,0,0,0,.38-.532c.038-.152.152-.3.456-.494.266-.228.228-.608.646-1.026.456-.456.608-.684.646-.988-.076-.228.532-.8.608-.95a.737.737,0,0,0,.342-.38,2.482,2.482,0,0,1,.3-.266c.228-.3.114-.912-.076-.988a1.675,1.675,0,0,0-.532-.114c-.114,0-.228.038-.342.038a2.344,2.344,0,0,1-.912.076,3.5,3.5,0,0,0-1.482.114c-.836.152-1.14-.19-1.672-.076-.95.152-1.976-.076-2.888,0-.38.3-.722-.114-1.33,0a4.918,4.918,0,0,1-1.672,0,5.752,5.752,0,0,0-1.14-.076H268.2a.964.964,0,0,0-.608.152c-.114.076-.152.266-.114.494.076.76-.266,1.178-.038,1.634.19.342-.266.912-.114,1.406a.422.422,0,0,1,.076.532.675.675,0,0,0-.152.38,1.928,1.928,0,0,1-.076.342.931.931,0,0,0-.038.57.406.406,0,0,1,0,.3.69.69,0,0,0,.076.646c.114.228.988.418,1.1-.038.076-.3-.038-.874.114-1.14a.629.629,0,0,0,0-.456.344.344,0,0,1,.152-.418l.114-.95c.076-.684.646-.722.874-1.1.19-.342.95-.38,1.254-.608a2.8,2.8,0,0,1,1.444-.3,2.479,2.479,0,0,1,1.368-.076,1.211,1.211,0,0,1,1.14,0c.494-.076.8-.114.95,0,.114.076.152.19.114.418-.076.228-.19.76-.646.95-.38.532-.608.646-.646.912a10.784,10.784,0,0,1-1.178,1.634c-.532.418-.8,1.33-1.14,1.634a6.567,6.567,0,0,1-1.1,1.672,12.51,12.51,0,0,0-1.14,1.748,8.171,8.171,0,0,0-.8,1.33c.114.532-.228.76-.8,1.1a.567.567,0,0,0-.114.38.335.335,0,0,1-.342.3c-.19.228-.418.874-.608.95-.418.456-.342.836-.608.95-.266.266-.228.608-.76.912a.5.5,0,0,0-.266.456,1.542,1.542,0,0,0,.19.646.726.726,0,0,0,.57.19,1.426,1.426,0,0,0,.38-.038,6.857,6.857,0,0,1,1.786-.038,7.233,7.233,0,0,1,2.242-.038c.494.114,1.14-.114,2.2,0a20.577,20.577,0,0,0,2.166,0,7.4,7.4,0,0,1,2.736.038c1.026.076,1.6-.076,2.736.076.076.076.152.076.3.076.3,0,.76-.228.608-.608a12.81,12.81,0,0,0,.038-1.672C281.5,44.08,282.036,43.624,281.884,42.788Zm4.294-18.734c.19.532.266,1.33.418,1.672.266.152.266.3.266.57a2.132,2.132,0,0,0,.076.8c.152.494.608.912.3,1.368.152.418.418,1.064.266,1.368a2.673,2.673,0,0,1,.228,1.368c-.038.342.532.722.19,1.368a2.262,2.262,0,0,0,.152,1.406c.114,1.14-.038,1.672.114,2.774.114.8-.266,1.254-.038,1.824a.7.7,0,0,0,1.33-.19,5.859,5.859,0,0,0,0-1.824,20.9,20.9,0,0,0,.038-2.66,3.133,3.133,0,0,1,.152-1.406c.152-.532-.076-.874.19-1.406a5.321,5.321,0,0,0,.266-1.406,6.646,6.646,0,0,0,.266-1.368,3.323,3.323,0,0,0,.3-1.406c.228-.456.038-.646.266-1.14a1.009,1.009,0,0,0,.076-.646.741.741,0,0,1,.19-.494c.114-.152,0-.3-.038-.456s-.038-.342.266-.532c.228-.3,0-.608.152-1.33a2.934,2.934,0,0,0,.076-.57,3.152,3.152,0,0,0-.608-1.786c-.076-.266-.3-.266-.532-.342a.48.48,0,0,1-.38-.38,5.015,5.015,0,0,0-1.216-.342,1.11,1.11,0,0,0-.342.076h-.3a2.027,2.027,0,0,0-1.786,1.026,3.445,3.445,0,0,0-.57,1.824v.3a6.238,6.238,0,0,0-.076.874A1.429,1.429,0,0,0,286.178,24.054Zm5.472,20.634c-.114-.342.038-1.1-.266-1.292a.874.874,0,0,1-.38-.532c-.076-.152-.114-.266-.342-.342a.971.971,0,0,1-.608-.456,1.081,1.081,0,0,0-.912-.3,2.939,2.939,0,0,0-3.268,2.47,1.908,1.908,0,0,0,.076.456,2.766,2.766,0,0,0,.608,1.786c.38.076.494.152.532.266s.038.266.19.342a5.268,5.268,0,0,0,1.71.342c.76-.152,1.558-.228,1.786-.836a1.26,1.26,0,0,1,.342-.494c.152-.152.3-.266.266-.494-.038-.38.3-.418.3-.76C291.688,44.8,291.65,44.764,291.65,44.688Z" transform="translate(-4510.759 15513.773)"/>
    <path id="パス_78171" data-name="パス 78171" d="M15.01-7.524c-.228.456.19.988,0,1.824-.152.8-.038,2.356-.114,2.812-.114.76-.3,1.178-.722,1.026-.608.152-1.1-.038-1.444.266a.824.824,0,0,0-.19.532c0,.266.076.494.38.494.38,0,.76.038,1.216.038a6.441,6.441,0,0,0,.836-.038h.266c.608,0,1.482-.076,2.356-.076.57-.038.988.076,1.52.076a3.564,3.564,0,0,0,.836-.076,9.72,9.72,0,0,0,1.368.076h.57c.342,0,.418-.95.038-1.064-.456-.114-.684-.076-1.14-.152-.3-.038-.76,0-.874-.874.152-.684-.228-1.9-.038-2.318V-7.524a10.5,10.5,0,0,1,0-2.888,6.724,6.724,0,0,1,0-2.888,1.393,1.393,0,0,1,.418-1.254,5.038,5.038,0,0,1,1.292-.988c.57-.3.76-.684,1.254-.57.684-.038.722-.266,1.6-.152.836.114.912.19,1.292.57a2.329,2.329,0,0,1,.76,1.482c.038.532.152.912.19,1.482-.114.684.038,2.014,0,2.736a.71.71,0,0,1,.114.76,3.2,3.2,0,0,0-.114.684c.038.532-.228,1.064.038,1.406a.6.6,0,0,1,.114.684,1.72,1.72,0,0,0-.152.95.581.581,0,0,1,.038.494.579.579,0,0,0,0,.608.667.667,0,0,1,.038.532.52.52,0,0,0-.114.494.854.854,0,0,1,.038.608,2.88,2.88,0,0,0-.114.608c0,.342-.342.38-.456.418a2.645,2.645,0,0,1-1.216.076c-.494-.038-.684.228-.684.494A.587.587,0,0,0,24.7-.57h3.8a6.169,6.169,0,0,0,.8-.038,8.747,8.747,0,0,0,1.33.076h1.216A5.884,5.884,0,0,1,32.68-.57h1.064c.3,0,.456-.266.456-.57s-.228-.684-.57-.608a5.213,5.213,0,0,1-1.1,0c-.3-.038-.494,0-.608-.19a1.275,1.275,0,0,1-.152-.532c-.038-.076,0-.19,0-.342a3.1,3.1,0,0,0-.038-.532.516.516,0,0,1-.038-.684.477.477,0,0,0,.038-.342c-.076-.836,0-1.976-.038-2.242-.228-.456.038-1.064.038-1.938a.8.8,0,0,1,0-1.064c.038-.532.228-1.14.038-1.406-.228-.266-.114-.418-.038-.646a.653.653,0,0,0,.076-.494c-.038-.532-.038-1.14-.114-1.634-.266-.722-.076-1.33-.418-1.6-.608-.494-.418-.874-.874-1.292-.494-.456-.8-.684-1.14-1.026a7.143,7.143,0,0,0-1.748-.608c-.3.19-.456.152-.608.038a1.02,1.02,0,0,0-.456-.228c-.608-.152-.988.266-1.634.152-.646-.076-.76.456-1.558.456-.684.19-.76.684-1.482.836-.532.532-.95.8-1.33,1.14-.19.152-.38.456-.76.418-.228,0-.3-.038-.38-.114-.114-.076-.152-.19-.38-.418a4.746,4.746,0,0,0-.342-.456c-.114-.152-.266-.266-.418-.494a1.382,1.382,0,0,0-.608-.456.924.924,0,0,1-.342-.266c-.19-.266-.57-.076-1.178-.494a1.189,1.189,0,0,0-.95-.19,1.008,1.008,0,0,1-.646-.076,1.249,1.249,0,0,0-.95.076,3.533,3.533,0,0,1-.684.228c-.418-.076-.95.418-1.216.456-.532.228-.874.76-1.33.874a9.148,9.148,0,0,0-1.254,1.14c-.076.038-.114.076-.152.076-.114,0-.152-.114-.19-.3-.038-.266-.038-.646-.076-1.064A2.811,2.811,0,0,0,8.664-18.2.961.961,0,0,0,7.79-18.7H7.676a9.385,9.385,0,0,0-1.33.38c-.418.19-1.178.076-1.672.228-.684-.038-1.14.076-1.71.076-.494.152-.836-.152-1.6.114-.38.152-.3,1.216.342,1.178a2.88,2.88,0,0,1,1.178.038,1.114,1.114,0,0,1,.722,1.33c.076.874-.114,1.406,0,2.2a15.833,15.833,0,0,1,0,1.9c-.114.76.152,1.064,0,1.9a3.237,3.237,0,0,1,0,1.9c.228.57-.228,1.292,0,1.9a11.225,11.225,0,0,1-.076,3,.746.746,0,0,1-.912.76c-.38.114-.988-.076-1.406.038A.65.65,0,0,0,.76-1.14a.549.549,0,0,0,.608.57H3.61c.912,0,1.9-.076,2.926-.038h.076a2.481,2.481,0,0,0,.646-.114c.228-.076.418-.114.57.114.684.038,1.634.076,2.432.076.646,0,.646-.038.722-.608.038-.342-.076-.646-.57-.646-.8.038-1.254.114-1.444-.228-.38-.342-.228-1.1-.342-1.71a4.121,4.121,0,0,1,0-1.71c.038-.722,0-1.1,0-1.71-.152-1.064.228-1.786,0-2.7.19-.912-.19-1.938,0-2.66-.152-.494.342-.988.57-1.6.228-.418.57-1.178,1.064-1.406a5.451,5.451,0,0,1,1.064-.836c.38.038.988-.266,1.52-.19a1.955,1.955,0,0,1,1.672.95,8.357,8.357,0,0,1,.494,2.28,12.067,12.067,0,0,1,0,2.888C14.858-9.5,15.238-8.436,15.01-7.524Zm23.37-16.15c.494.418.836.722,1.33.722a3.487,3.487,0,0,0,2.508-.57A2.093,2.093,0,0,0,43.13-25.5a3.261,3.261,0,0,0-.684-1.71.69.69,0,0,1-.57-.418.6.6,0,0,0-.266-.266,2.068,2.068,0,0,0-.95-.342.482.482,0,0,0-.228.038,2.953,2.953,0,0,0-1.482.494c-.114.076-.114.3-.532.38-.456.684-.836.912-.57,1.786a2.283,2.283,0,0,0,.114,1.1.644.644,0,0,0,.228.3A.64.64,0,0,1,38.38-23.674Zm6.65,22a2.868,2.868,0,0,0-1.33-.076.679.679,0,0,1-.874-.722c0-.95-.076-1.558,0-2.356A1.108,1.108,0,0,1,42.6-5.4c0-.228.152-.38.19-.684a6.122,6.122,0,0,1,.038-1.862A9.827,9.827,0,0,1,42.788-9.5c-.038-.57-.418-.874.038-1.6.076-.456-.3-.646-.076-1.292.038-.456-.342-.912.038-1.33.038-.76,0-1.824.076-2.318a7.592,7.592,0,0,1,.076-1.33,1.714,1.714,0,0,0,0-.988c-.266-.456-.722-.342-1.026-.228-.76.418-1.026.228-1.444.342a4.186,4.186,0,0,1-1.482.152,13.365,13.365,0,0,1-1.71.114c-.532.038-.912.038-1.52.038-.266-.038-.456.3-.456.608a.518.518,0,0,0,.57.57c.38.076.8-.038,1.33.038.3.038.418.342.532.722.076.418.114,2.356.114,2.85v1.9c-.228.532.152,1.786,0,2.318-.266.874.3,1.482.038,2.242-.266.494.19.988-.038,1.824a9.338,9.338,0,0,0-.152,2.28c.076.494-.076.8-.684.836H35.568c-.3-.076-.608.3-.608.646,0,.266.19.57.684.57h.57c.76,0,1.178-.038,1.824-.076.8-.038,1.444,0,2.166-.038a18.954,18.954,0,0,0,2.546,0,2.761,2.761,0,0,0,.95.152c.38,0,.76-.038,1.216-.076h.076c.19,0,.3-.266.3-.532v-.114C45.3-1.444,45.22-1.672,45.03-1.672Zm23.218,0c-.266-.114-.38-.038-.684-.076a6.131,6.131,0,0,0-.836,0c-.532-.038-.646-.152-.684-.912-.038-.95-.038-2.7-.038-3.876a8.016,8.016,0,0,1,0-2.356,12.344,12.344,0,0,0,.038-2.888c-.3-.38-.19-.608-.152-1.026a3.949,3.949,0,0,0,.038-.988,7.972,7.972,0,0,0-.228-1.254,1.537,1.537,0,0,1-.266-.722c-.038-.19-.076-.342-.228-.418-.418-.3-.836-.912-1.178-1.216a.8.8,0,0,0-.418-.19,1.052,1.052,0,0,1-.684-.418c-.418-.38-1.216-.114-1.558-.38-.418-.3-1.026-.038-1.444-.038-.608.228-1.216.038-1.482.152-.418.228-1.178.532-1.52.76a5.779,5.779,0,0,0-1.748,1.14.576.576,0,0,1-.418.266c-.114,0-.228-.114-.266-.38-.076-.722.114-1.406.038-1.71a.674.674,0,0,0-.646-.456.742.742,0,0,0-.266.038,5.455,5.455,0,0,1-1.368.266,4.548,4.548,0,0,1-1.71.228c-.418.152-.722-.038-1.406.114-.836.114-1.254.038-1.672.114-.722.19-.494,1.254.114,1.14a4.405,4.405,0,0,1,1.254.114c.418.114.608.57.646,1.292.038.532-.038,1.406,0,2.166a4.538,4.538,0,0,0,0,1.9,10.385,10.385,0,0,0,0,1.9,11,11,0,0,1,0,1.938.963.963,0,0,0,.114.76.823.823,0,0,1-.114.988c0,.988-.076,1.748,0,2.584a1.728,1.728,0,0,1-.19,1.064.634.634,0,0,1-.57.342,8.924,8.924,0,0,0-.988.038c-.3.076-.684-.114-.836.152a.65.65,0,0,0-.266.494.531.531,0,0,0,.494.494h.228c.3,0,.57-.038.836-.038.38,0,.76.038,1.178.038h.3a18.9,18.9,0,0,1,1.976-.076,12.414,12.414,0,0,1,2.394.076,7.325,7.325,0,0,1,1.824,0h.076c.494,0,.722-.3.722-.57a.665.665,0,0,0-.266-.532c-.152-.228-.494-.038-.684-.114-.19-.038-.494,0-.608-.114-.418-.114-.57-.342-.608-1.1-.038-.8-.038-1.52-.038-2.09-.38-.494-.3-.722-.152-.988a1.4,1.4,0,0,0,.19-.418c.076-.76-.228-.874,0-1.558.19-.266-.076-1.178,0-1.558-.19-.608.228-1.292,0-1.6a2.688,2.688,0,0,1,0-1.558c.228-.3-.076-.8,0-1.558a2.515,2.515,0,0,1,1.064-1.254,5.654,5.654,0,0,1,1.368-.646,5.081,5.081,0,0,1,1.444-.38c.418.228,1.254.152,1.368.38.076.3.57.228.684.722A7.474,7.474,0,0,1,60.762-13a17.353,17.353,0,0,0,0,2.812,1.358,1.358,0,0,1,.114,1.1.883.883,0,0,0,0,.76.922.922,0,0,1-.076.874c-.114.152,0,.3.076.456a.5.5,0,0,1-.038.456c-.19.3.152.722,0,1.216a6.037,6.037,0,0,0-.076,1.444c.076,1.064.076,1.786-.3,2.052a2.328,2.328,0,0,1-1.292.076c-.532.076-.684,1.064-.076,1.216.076,0,.152.038.228.038.228,0,.456-.076.722-.076.076,0,.152.038.228.038.19,0,.38.038.532.038.19,0,.38-.038.532-.038.228-.228.532-.038.684-.038.342,0,.646.076.95.076a1.762,1.762,0,0,0,.722-.152c.874-.038,1.1.076,2.09.114l.266.038c.38,0,.76-.114,1.1-.076h1.14c.19,0,.342-.228.342-.494A.617.617,0,0,0,68.248-1.672Zm20.672-.19a3.349,3.349,0,0,0-1.216.038c-.456.152-1.254-.912-.988-1.444.038-.874-.038-1.9,0-2.546.228-.912-.114-1.14,0-2.09-.19-.722.228-1.178,0-2.09a12.6,12.6,0,0,1,0-2.09c.418-.95-.266-1.558,0-2.09l.038-1.254c.19-.722-.152-1.33.076-1.786a.989.989,0,0,0-.722-1.52.288.288,0,0,0-.152.076,9.611,9.611,0,0,0-1.482.342c-.57.38-.988-.038-1.71.266a10.75,10.75,0,0,0-1.71.076,10.09,10.09,0,0,0-1.52,0,.739.739,0,0,0-.418.684c0,.228.152.494.608.608a4.172,4.172,0,0,0,1.292.076c.646,0,1.026.3.8.988a14.477,14.477,0,0,1,0,1.824,7.468,7.468,0,0,0,0,1.6c.076.57-.152,1.292,0,1.6-.114.3.228,1.178,0,1.558-.152.532.076.836,0,1.6-.228.684.19,1.33,0,1.558-.076.418.114,1.026,0,1.6a3.176,3.176,0,0,0-.874.874l-.38.342a2,2,0,0,0-.532.38,2.644,2.644,0,0,1-2.28.684c-.76.228-1.14-.342-1.444-.342a2.186,2.186,0,0,1-.76-.912A1.226,1.226,0,0,1,75.2-4.522,6.577,6.577,0,0,1,75.126-6a6.056,6.056,0,0,0,0-2.356c-.114-.912.228-1.406,0-2.318a15.674,15.674,0,0,0,0-1.9,5.262,5.262,0,0,0,.038-1.9,4.29,4.29,0,0,0,.19-1.482c.114-.836.076-1.292.19-2.052a.582.582,0,0,0-.532-.722.343.343,0,0,0-.19.038c-.494.114-1.254.342-1.634.418-.646-.038-1.33.266-1.634.228a8.21,8.21,0,0,0-1.634-.076,2.605,2.605,0,0,0-1.558.152.714.714,0,0,0-.3.646.609.609,0,0,0,.342.608,2.077,2.077,0,0,0,1.216.152c.456-.038.722.456.646,1.52.114.76-.266,2.356-.038,2.926a17.323,17.323,0,0,0-.038,2.432c-.076.8,0,1.824-.038,2.394.19.836-.152,1.178.038,2.052-.152.95.114,1.14.494,1.976a11.673,11.673,0,0,0,.912,1.33c.266.418.874.57,1.254.988a2.926,2.926,0,0,0,1.52.608,5.049,5.049,0,0,1,1.6.228c.76,0,1.254-.266,1.748-.228.684-.076.836-.418,1.52-.608A3.257,3.257,0,0,0,80.9-1.9c.494-.456.874-.266.988.19,0,.418-.076.684-.076,1.178,0,.3.266.532.684.646.076,0,.114.038.19.038.456,0,.912-.456,1.368-.342.38-.076,1.1-.152,1.52-.266a13.973,13.973,0,0,1,1.786,0c.57-.076,1.178.152,1.52-.038a.675.675,0,0,0,.57-.646A.763.763,0,0,0,88.92-1.862ZM101.764-3c-.3.076-.418.342-.57.418a.505.505,0,0,1-.266.114.589.589,0,0,0-.38.266c-.076.114-.38.19-.456.266-.342.266-.532.19-1.1.228A1.4,1.4,0,0,1,97.7-2.128c-.152-.152-.532-.418-.532-.722a2.428,2.428,0,0,0-.228-.836,3.056,3.056,0,0,1-.114-1.254c.152-.8-.114-1.824.038-2.2-.038-.8,0-1.634,0-2.356-.266-.95.114-1.292-.038-1.976-.152-.38.152-1.786.076-2.242a12.65,12.65,0,0,1,.038-2.394c0-.228.114-.57.836-.608.38.038.532,0,1.254,0,.3,0,.38.152.836-.076.152-.076.342.114.684.076.342,0,.494-.3.494-.608,0-.342-.19-.646-.456-.532a3.132,3.132,0,0,1-.912-.076,1.066,1.066,0,0,0-.532.038.312.312,0,0,1-.266.038c-.494-.152-.57,0-.988-.038-.342-.038-.57,0-.722-.19a.608.608,0,0,1-.152-.418c-.076-.57.076-.8-.076-1.178-.076-.152,0-.266.038-.38a.375.375,0,0,0-.076-.38c-.152-.342.114-.684.076-1.026a5.869,5.869,0,0,1,.114-1.482c.076-.418-.038-.836,0-1.178.038-.266-.228-.38-.456-.38-.19,0-.418.076-.418.3a9.444,9.444,0,0,1-.3,1.292,1.635,1.635,0,0,1-.19.646,2.2,2.2,0,0,0-.266.532c-.3.342-.19.608-.532.874a4.107,4.107,0,0,1-.684.8c-.3.494-.57.532-.874.912-.19.19-.608.266-.988.646-.228.266-.836.19-1.064.418a.638.638,0,0,1-.494.152,3.929,3.929,0,0,0-.456.114c-.608.076-.646.266-.646.494v.152c0,.532.38.532.684.494a3.969,3.969,0,0,1,.95,0c.418.038.608.228.494.836,0,.8-.076,2.166-.038,3.192a8.554,8.554,0,0,1-.038,1.976,1.12,1.12,0,0,0,.038.532c.076.266.228.418.038.836-.19.342.114.684-.038,1.1-.114.57.076.8-.114,1.33a.321.321,0,0,0,0,.266.853.853,0,0,1,.038.646,1.553,1.553,0,0,0,.038.874.42.42,0,0,0,0,.3c0,.152.114.266,0,.494.114.456-.038.912.342,1.368s.342,1.064.874,1.33a1.548,1.548,0,0,0,.418.228c.228.076.38.114.532.532a4.545,4.545,0,0,0,1.52.608A11.269,11.269,0,0,0,96.9.038c.114,0,.228-.038.3-.038.722-.114,1.026-.076,1.482-.152a5.79,5.79,0,0,0,1.368-.456,4.023,4.023,0,0,0,1.254-.722,5.56,5.56,0,0,0,.494-.342c.266-.19.608-.266.646-.608a1.2,1.2,0,0,0-.228-.57A.415.415,0,0,0,101.764-3Zm18.2-1.976c-.532.646-.646,1.026-.874,1.254-.152.646-.912.684-1.178,1.216-.684.608-1.026.38-1.482.8a4.283,4.283,0,0,1-1.9.266,3.8,3.8,0,0,1-1.634-.19,2.726,2.726,0,0,1-1.254-.532A2.2,2.2,0,0,1,110.656-3c-.38-.418-.266-.608-.722-1.1-.342-.38-.266-1.064-.456-1.254-.228-.19-.19-.38-.19-.684a1.863,1.863,0,0,0-.114-.722,2.636,2.636,0,0,1-.152-1.482,1.272,1.272,0,0,0-.038-.874,1.6,1.6,0,0,1,0-.608l.038-.152c.266-.342.456-.608.836-.608h2.7c.722-.19.912.114,1.786,0a5.6,5.6,0,0,1,1.786,0c.646.114,1.33-.076,2.356.038a8.942,8.942,0,0,0,2.2-.114c.3.076.646-.3.646-.76a.647.647,0,0,0-.038-.266,2.93,2.93,0,0,0-.608-2.09,1.306,1.306,0,0,1-.3-.532,1.539,1.539,0,0,0-.3-.494c-.3-.114-.266-.532-.722-.95a3.964,3.964,0,0,0-1.33-1.216,8.722,8.722,0,0,0-1.52-.874,2.886,2.886,0,0,0-1.672-.532c-.494.114-1.254-.228-1.634-.228-.076,0-.114.038-.152.038-.684.228-1.064-.076-1.9.19a4.174,4.174,0,0,0-1.748.532c-.418.3-1.292.456-1.6.874-.342.38-1.14.494-1.406,1.1-.266.57-.836.684-1.1,1.368-.266.646-.722.8-.874,1.6a.687.687,0,0,1-.114.722.794.794,0,0,0-.3.494,19.282,19.282,0,0,0-.342,2.128.741.741,0,0,0,.038.3,2.008,2.008,0,0,0-.038.456c0,.532.19.836.228,1.482a2.569,2.569,0,0,0,.532,1.786c.228.8.646.836.836,1.52a3.071,3.071,0,0,0,1.14,1.33.956.956,0,0,0,.456.266c.266.076.456.114.532.608a9.757,9.757,0,0,0,1.976,1.026,5.442,5.442,0,0,0,1.748.494,2.229,2.229,0,0,0,.874.152h.722A1.052,1.052,0,0,1,113.05,0a7.024,7.024,0,0,1,.912-.038h.38A3.783,3.783,0,0,0,115.71-.3a4.53,4.53,0,0,0,2.09-.874l.76-.494c.114-.342.57-.57.95-.988.228-.3.532-.646.76-.988.152-.342.494-.456.608-.912.114-.3-.266-.646-.57-.646A.318.318,0,0,0,119.966-4.978Zm-10.45-8.93c.114-.456.076-1.1.456-1.482a8.179,8.179,0,0,1,1.216-1.52,3.049,3.049,0,0,1,1.938-.57,2.788,2.788,0,0,1,1.862.608c.494.3.608.95.988,1.52.418.532.114,1.14.418,1.558a8.465,8.465,0,0,1,.076,1.672c.038.57-.114.76-.912.722-1.064-.038-1.938.038-2.774,0-.608.038-1.9,0-2.622,0-.8,0-1.1-.3-.988-1.178a.96.96,0,0,0,.114-.684A.84.84,0,0,1,109.516-13.908Zm27.17,6.384a5.681,5.681,0,0,0-1.292-2.166,9.374,9.374,0,0,0-2.356-1.292.729.729,0,0,1-.722-.152,1.5,1.5,0,0,0-.608-.3c-.76.038-1.1-.57-1.6-.532a7.036,7.036,0,0,1-1.6-.646,3.172,3.172,0,0,1-1.14-.912,1.5,1.5,0,0,1-.418-1.368,2.49,2.49,0,0,1,1.1-1.938,5.308,5.308,0,0,1,2.128-.532,3.752,3.752,0,0,1,2.052.456,6.793,6.793,0,0,1,1.672,1.368,2.935,2.935,0,0,1,.608,1.368,6.26,6.26,0,0,0,.152,1.216.462.462,0,0,0,.494.342c.342,0,.646-.19.57-.456,0-.456-.038-.76-.076-1.292a.347.347,0,0,0-.114-.266c-.038-.114-.076-.19.076-.418-.038-.57.076-.836.114-1.9-.038-.3.19-.532.152-.8a.683.683,0,0,0-.57-.342.209.209,0,0,0-.19.114c-.266.228-.266.494-.494.646-.19.076-.342,0-.608-.114a11.6,11.6,0,0,0-1.9-.76,9.768,9.768,0,0,0-1.9-.3h-.152a7.9,7.9,0,0,0-2.166.456,1.191,1.191,0,0,0-.418.3.612.612,0,0,1-.608.228,1.817,1.817,0,0,0-.874.684,7.008,7.008,0,0,0-1.292,1.862,6.646,6.646,0,0,0-.494,2.318,4.093,4.093,0,0,0,.418,2.356,3.007,3.007,0,0,0,1.292,1.6,3.342,3.342,0,0,0,1.634.988c.532.19,1.14.76,1.938.722.418-.076.646.266,1.14.418a5.59,5.59,0,0,1,1.14.3c.266.114.532.038.95.418a.672.672,0,0,0,.3.19c.19.038.342.114.494.456a1.324,1.324,0,0,1,.38,1.1c.114.57-.114.836-.266,1.368A4.33,4.33,0,0,1,132.62-1.71c-.152.3-.266.266-.418.266a.419.419,0,0,0-.342.114,5.761,5.761,0,0,1-1.6.152,4.493,4.493,0,0,1-1.406-.114.654.654,0,0,1-.57-.19,1.994,1.994,0,0,0-.418-.266,4.893,4.893,0,0,1-1.14-.836,4.71,4.71,0,0,1-.8-.988.748.748,0,0,1-.38-.57c-.076-.152-.114-.342-.228-.608a7,7,0,0,1-.38-1.482c.038-.266-.266-.418-.532-.418-.228,0-.456.076-.494.3a8.989,8.989,0,0,0,.038,1.14c.114.342.266.57.076.95a6.137,6.137,0,0,1-.076,1.482c-.152.57-.152,1.1-.266,1.558a.287.287,0,0,0-.038.152c0,.38.722.57.874.3.228-.266.152-.418.532-.722.114-.114.494-.076.912.266.418.418,1.254.494,1.786.8a5.269,5.269,0,0,0,1.216.228,6.517,6.517,0,0,0,1.71.152,12.578,12.578,0,0,0,2.242-.38c.494-.19.95-.228,1.292-.646.266-.342.684-.19.874-.57a1.142,1.142,0,0,1,.456-.418.982.982,0,0,0,.3-.418c.152-.57.76-1.1.8-1.6a.867.867,0,0,1,.152-.722,1.163,1.163,0,0,0,.114-.57v-.114A8.243,8.243,0,0,0,136.686-7.524Z" transform="translate(-4228.759 15513.773)"/>
    <path id="パス_78172" data-name="パス 78172" d="M31.222-2.948A27.509,27.509,0,0,1,27.4-3.082a2.4,2.4,0,0,1-2.412-1.742c-.469-1.206.134-3.886-.134-5.159-.268-.8.335-2.345-.067-3.752-.268-2.077.737-3.216.134-5.159-.2-2.144.268-4.355-.134-6.365a38.116,38.116,0,0,0,.067-4.02,2.888,2.888,0,0,0-.2-1.34c-.134-.335-.134-.67.268-1.407.134-1.876-.134-4.891.134-7.1-.4-1.474-.134-3.216-.268-4.757.335-.8-.469-1.876.2-2.68a20.981,20.981,0,0,0,.2-3.082c.067-.536-.6-1.206-1.273-1.206a.818.818,0,0,0-.6.268c-1.072.67-1.407.4-2.747,1-1.34.134-2.479.737-3.819.67a3.632,3.632,0,0,0-1.541.067,3.776,3.776,0,0,1-1.675.2c-.871-.268-2.412,0-3.752-.067-1.072-.067-1.541.469-1.541,1A1.065,1.065,0,0,0,9.38-46.7c1.608,0,2.479-.067,4.087-.067s2.278.737,2.278,1.876c.2,1.407.134,2.814.2,4.02a1.346,1.346,0,0,1,.268,1.139,3.8,3.8,0,0,0-.2,1c0,.871-.067,1.407,0,2.747.469.6-.536,1.675,0,2.814.536,1.206-.067,1.876.134,2.747.268,1.34-.469,2.077-.134,3.417.134.536-.2,1.206,0,2.077.469.871-.268,1.273,0,2.814a17.894,17.894,0,0,1,0,2.747c.536.335.469.8.335,1.34a5.372,5.372,0,0,0-.335,1.407c.2,1.072-.2,2.68,0,3.283.67.737-.067,1.407-.067,2.278.134.67-.2,1.474-.067,2.613.134.737-.134,3.015-.134,3.886-.2.938-.737,1.273-1.675,1.474-1.206.268-2.814-.134-4.69.067C8.107-2.881,8.174-1,9.112-1h.134a3.262,3.262,0,0,1,.8-.067c.737,0,1.407.134,1.943.134h.335A4.121,4.121,0,0,1,13.2-1h.938a1.308,1.308,0,0,0,.469-.067c1.005-.067,1.809,0,2.479,0h.469A6.89,6.89,0,0,0,18.693-1c.737,0,1.34-.067,1.809-.067a6.486,6.486,0,0,1,3.015,0,2.068,2.068,0,0,0,.737.134c.4,0,1.005-.067,1.876-.067a1.642,1.642,0,0,0,.8-.268c.268-.067.536-.134,1.206.268h3.283a.876.876,0,0,0,.938-.938A1.063,1.063,0,0,0,31.222-2.948Zm43.55-13.2a15.018,15.018,0,0,0-.4-3.484c-.536-1.139-.2-2.211-1.139-3.082-1.273-1.072-1.072-2.077-1.809-2.613-1.34-.536-1-1.809-2.278-2.211-1.407-.8-2.747-1.943-4.355-2.278a1.535,1.535,0,0,1-1.206-.335,1.363,1.363,0,0,0-.6-.4,9.138,9.138,0,0,0-2.881-.6,8.14,8.14,0,0,0-3.35-.268c-1.742-.268-2.814.268-4.489.536-.737.2-1.407.4-2.412.737a2.136,2.136,0,0,1-1.139.4c-.4,0-.536-.2-.469-.737,0-.8.067-1.474.134-2.479a8.737,8.737,0,0,1,.067-1.943c.2-.2.067-.469,0-.8a.935.935,0,0,1,0-.737c.335-.6.134-1.005.2-1.876a8.348,8.348,0,0,0,.134-2.546c.268-1.407,1.072-1.34,2.345-1.407.268-.335.536-.268.938-.134a6.01,6.01,0,0,0,1.206.134c1.34,0,2.613-.335,3.35.067,1.273,0,3.417-.134,5.226-.067a22.869,22.869,0,0,0,4.288,0,4.92,4.92,0,0,0,3.886-.67c.737-.6,1.273-.67,1.273-2.077a4.873,4.873,0,0,0,.469-1.943c-.067-.8.268-1.005.335-1.608.067-.737.4-1.675.469-3.015a.956.956,0,0,0-1-.737.609.609,0,0,0-.67.536c-.268.871-.4,1.474-.8,1.541a5.171,5.171,0,0,1-2.412.469,37.593,37.593,0,0,1-4.891-.067c-.938.335-1.608-.067-2.613.2a1.6,1.6,0,0,1-1.139-.2,1.654,1.654,0,0,0-1.273,0c-1.072.469-1.541-.2-2.211.067A2.551,2.551,0,0,1,54-49.647a3.933,3.933,0,0,0-1.675-.2c-2.01.134-2.144-.134-3.953-.067-.871-.067-1.541.469-1.407,1.273.134.871-.067,1.407.067,1.675a8.43,8.43,0,0,0-.2,2.814,1.213,1.213,0,0,1,.067,1.407c-.2.469-.469.938-.2,1.474.335,1-.268,2.01-.2,2.881.335,1.474-.2,2.546-.2,3.685.4.737,0,1.474-.134,2.077,0,.938-.134,2.278-.134,2.881a12.974,12.974,0,0,0-.2,2.68c-.067.6.871.938,1.742.8.871-.67,1.273-1.072,1.876-1.608a2.053,2.053,0,0,0,.67-.536c.134-.134.268-.2.67-.134,1.608-.469,3.082-1.139,4.087-.871a1.553,1.553,0,0,1,1.474.2,1.611,1.611,0,0,0,1,.134,1.754,1.754,0,0,1,1.005.4,2.259,2.259,0,0,0,1.072.536c.8.2,1.072,1.34,1.742,1.474.268.536,1.005,1.139,1.407,1.876a1.173,1.173,0,0,1,.67,1.005,1.966,1.966,0,0,0,.4,1.139,3.055,3.055,0,0,1,.8,2.345,12.058,12.058,0,0,1,.6,4.623,28.617,28.617,0,0,1-.536,4.69,2.577,2.577,0,0,0-.335,1.273c0,.469,0,.871-.4,1.005-.335,1.005-.938,1.273-1.005,2.077a2,2,0,0,1-1.407,1.809,1.736,1.736,0,0,0-.67.737,1.383,1.383,0,0,1-1.072.67c-.737.737-1.407.6-2.077.871-1.273.469-2.077.067-2.546.335a2.8,2.8,0,0,1-2.278-.2,8.334,8.334,0,0,1-2.412-.8c-.536-.335-1.206-.938-1.876-1.407a2.567,2.567,0,0,1-.8-2.278c.2-1.139.737-1.072,1.876-2.345A2.837,2.837,0,0,0,50.987-12.4a3.221,3.221,0,0,0-1.139-2.747,4.262,4.262,0,0,0-2.814-1,3.406,3.406,0,0,0-3.216,1.474,7.655,7.655,0,0,0-1.139,3.417v.536c0,1.541.737,2.613.938,3.618-.134.871.6,1.34,1.072,1.809a1.145,1.145,0,0,0,.4.8,7.417,7.417,0,0,1,1.005.8c.737.469,1.139,1.206,2.144,1.541.67.268,1.206,1,2.479,1,1.005.134,1.407.6,2.613.6.938-.134,1.407.268,2.077.268a3.4,3.4,0,0,0,.6-.134,5.975,5.975,0,0,0,1.474.2A4.238,4.238,0,0,0,59.5-.67a11.272,11.272,0,0,0,3.35-.737c1.407-.469,1.876-.335,3.216-1.273.871-.469,2.01-.67,2.814-1.742.6-.536,1.742-1.474,2.412-2.211a14.959,14.959,0,0,0,2.345-3.484,1.741,1.741,0,0,1,.4-1.474,1.215,1.215,0,0,0,.335-.938c0-1.005.4-2.412.4-3.283Z" transform="translate(-4311 15517)"/>
  </g>
</svg>
