<svg xmlns="http://www.w3.org/2000/svg" width="539.828" height="87.172" viewBox="0 0 539.828 87.172">
  <g id="グループ_16866" data-name="グループ 16866" transform="translate(-151.102 -1276.908)">
    <path id="パス_72339" data-name="パス 72339" d="M28.462-14.326A10.423,10.423,0,0,0,28.2-17.1c-.228-.494.038-.874-.3-1.368-.342-.532-.266-.988-.418-1.292a4.71,4.71,0,0,0-.532-1.254A1.86,1.86,0,0,1,26.3-22.23a7.437,7.437,0,0,0-.76-1.14,3.385,3.385,0,0,1-.38-.608A1.653,1.653,0,0,0,24.7-24.4c-.114-.38-.8-.836-.95-.988-.57-.38-.8-.722-1.026-.836-.266-.19-.95-.3-1.1-.76a1.548,1.548,0,0,1-1.178-.646,2.016,2.016,0,0,1-1.254-.532c-.342-.3-.874,0-1.33-.38-.456.038-.684-.266-1.14-.266-.076,0-.152.038-.228.038a4.918,4.918,0,0,0-.95-.076h-.494c-.874.076-1.064.3-1.444.076a.482.482,0,0,0-.228-.038c-.418,0-.76.38-1.178.3-.418.038-.874.418-1.33.38a2.762,2.762,0,0,0-1.254.532l-1.178.646c-.608.38-.95.266-1.14.76-.152.152-.722.8-1.026.874-.456.494-.8.418-.95.988-.532.532-.8.646-.874,1.064-.038.228-.8.912-.76,1.14C3.5-21.774,3-21.47,3-20.9c-.3.646-.494.76-.532,1.254a3.891,3.891,0,0,1-.456,1.33c-.114.722.266,1.33-.418,1.786.038.722-.228,1.14-.228,1.786a3.952,3.952,0,0,0,.076.57,4.343,4.343,0,0,1,0,1.216,1.89,1.89,0,0,0,.114.608,12.907,12.907,0,0,1,.3,1.748c.456.3.494.494.456.722a2.361,2.361,0,0,0,.076.988,5.8,5.8,0,0,1,.722,1.6c0,.342.76.874.912,1.52.418.266.532,1.178,1.1,1.406A3.9,3.9,0,0,0,6.422-3.154c.3.456.988.722,1.444,1.1A5.137,5.137,0,0,0,9.69-1.14a19.173,19.173,0,0,1,2.166.912c.38.19.3.684.494,1.444a10.8,10.8,0,0,0,1.026,2.66c.038.38.57.76.76.988.152.456.418.456.874.8a.7.7,0,0,0,.456.3c.228.038.494.076.57.342a.836.836,0,0,0,.494.152c.228.038.418.038.57.342a5.941,5.941,0,0,0,2.356.646,4.163,4.163,0,0,0,2.432.152c.38-.038.912.038,1.444.038a3.477,3.477,0,0,0,.646-.038c.722-.228,1.672-.266,2.318-.532.38-.152.494-.38.494-.608,0-.456-.456-.874-.76-.76a.687.687,0,0,0-.57.076.885.885,0,0,1-.8.19,5.57,5.57,0,0,1-1.71.266,7.283,7.283,0,0,1-2.09-.418,14.341,14.341,0,0,1-1.52-1.14,5.056,5.056,0,0,1-.95-1.71c0-.608-.266-1.368-.3-2.128C18.2.57,18.012.3,18.354-.38c.19-.19.38-.076.8-.342a7.558,7.558,0,0,0,1.786-.836c.228-.19.342-.266.874-.646.532-.228.836-.342.912-.646.038-.266.152-.3.38-.38a2.49,2.49,0,0,0,.494-.3c.494-.266.456-.532.8-.76.38-.342.418-.494.722-.8.3-.076.456-.57.95-.988.3-.836.76-.95.874-1.71A21.694,21.694,0,0,1,27.778-9.8c0-.57.57-1.178.494-2.2.038-.76.19-1.33.19-1.976Zm-6.346,2.774c.19.38-.3.912-.152,1.368a1.65,1.65,0,0,1-.19,1.406,1.993,1.993,0,0,0-.076.646.709.709,0,0,1-.228.722c-.3.38-.038,1.064-.418,1.292a6.087,6.087,0,0,1-.532,1.254c0,.456-.076.646-.228.76-.228.076-.342.114-.342.342-.038.57-.836.57-1.026,1.064a1.7,1.7,0,0,1-.494.38c-.3.152-.494.152-.684.456-.19.38-.608.3-1.33.532a7.207,7.207,0,0,0-1.406.19c-.57.076-.8-.3-1.444-.19a4.048,4.048,0,0,1-1.33-.57c-.342-.19-1.064-.38-1.216-.836-.38-.038-.646-.836-.988-1.026-.038-.228-.646-.456-.684-1.064A1.376,1.376,0,0,1,8.778-6c-.114-.608-.532-.912-.38-1.292.114-.418-.266-.836-.266-1.33a12.742,12.742,0,0,1-.266-2.7,6.536,6.536,0,0,1-.038-2.584l.038-2.47c-.228-.988.228-1.52.19-2.546a8.427,8.427,0,0,0,.456-2.47,1.2,1.2,0,0,1,.38-1.178c.342-.19.38-.988.456-1.178a3.456,3.456,0,0,1,.95-1.6c.228-.266.722-1.1,1.292-1.292.342-.494,1.1-.608,1.6-.874.342-.342,1.064-.228,1.824-.342a2.521,2.521,0,0,1,1.558.228,6.55,6.55,0,0,0,1.444.646,6.036,6.036,0,0,1,1.216,1.026,2.329,2.329,0,0,1,.95,1.254c.342.152.3,1.026.608,1.216.342.38.038.912.456,1.254.266.266.19,1.1.342,1.292a6.33,6.33,0,0,0,.266,1.33,7.979,7.979,0,0,0,.266,2.7c.114.836-.114,1.9.076,2.7C22.23-13.452,22-12.426,22.116-11.552Zm28.576,9.69a3.349,3.349,0,0,0-1.216.038c-.456.152-1.254-.912-.988-1.444.038-.874-.038-1.9,0-2.546.228-.912-.114-1.14,0-2.09-.19-.722.228-1.178,0-2.09a12.6,12.6,0,0,1,0-2.09c.418-.95-.266-1.558,0-2.09l.038-1.254c.19-.722-.152-1.33.076-1.786a.989.989,0,0,0-.722-1.52.288.288,0,0,0-.152.076,9.61,9.61,0,0,0-1.482.342c-.57.38-.988-.038-1.71.266a10.75,10.75,0,0,0-1.71.076,10.09,10.09,0,0,0-1.52,0,.739.739,0,0,0-.418.684c0,.228.152.494.608.608a4.172,4.172,0,0,0,1.292.076c.646,0,1.026.3.8.988a14.478,14.478,0,0,1,0,1.824,7.467,7.467,0,0,0,0,1.6c.076.57-.152,1.292,0,1.6-.114.3.228,1.178,0,1.558-.152.532.076.836,0,1.6-.228.684.19,1.33,0,1.558-.076.418.114,1.026,0,1.6a3.176,3.176,0,0,0-.874.874l-.38.342a2,2,0,0,0-.532.38,2.644,2.644,0,0,1-2.28.684c-.76.228-1.14-.342-1.444-.342a2.186,2.186,0,0,1-.76-.912,1.226,1.226,0,0,1-.342-1.254A6.577,6.577,0,0,1,36.9-6a6.056,6.056,0,0,0,0-2.356c-.114-.912.228-1.406,0-2.318a15.673,15.673,0,0,0,0-1.9,5.262,5.262,0,0,0,.038-1.9,4.29,4.29,0,0,0,.19-1.482c.114-.836.076-1.292.19-2.052a.582.582,0,0,0-.532-.722.343.343,0,0,0-.19.038c-.494.114-1.254.342-1.634.418-.646-.038-1.33.266-1.634.228a8.21,8.21,0,0,0-1.634-.076,2.605,2.605,0,0,0-1.558.152.714.714,0,0,0-.3.646.609.609,0,0,0,.342.608,2.077,2.077,0,0,0,1.216.152c.456-.038.722.456.646,1.52.114.76-.266,2.356-.038,2.926a17.322,17.322,0,0,0-.038,2.432c-.076.8,0,1.824-.038,2.394.19.836-.152,1.178.038,2.052-.152.95.114,1.14.494,1.976a11.674,11.674,0,0,0,.912,1.33c.266.418.874.57,1.254.988a2.926,2.926,0,0,0,1.52.608,5.049,5.049,0,0,1,1.6.228c.76,0,1.254-.266,1.748-.228.684-.076.836-.418,1.52-.608a3.257,3.257,0,0,0,1.672-.95c.494-.456.874-.266.988.19,0,.418-.076.684-.076,1.178,0,.3.266.532.684.646.076,0,.114.038.19.038.456,0,.912-.456,1.368-.342.38-.076,1.1-.152,1.52-.266a13.973,13.973,0,0,1,1.786,0c.57-.076,1.178.152,1.52-.038a.675.675,0,0,0,.57-.646A.763.763,0,0,0,50.692-1.862Zm4.94-21.812c.494.418.836.722,1.33.722a3.487,3.487,0,0,0,2.508-.57,2.093,2.093,0,0,0,.912-1.976,3.261,3.261,0,0,0-.684-1.71.69.69,0,0,1-.57-.418.6.6,0,0,0-.266-.266,2.068,2.068,0,0,0-.95-.342.482.482,0,0,0-.228.038A2.953,2.953,0,0,0,56.2-27.7c-.114.076-.114.3-.532.38-.456.684-.836.912-.57,1.786a2.283,2.283,0,0,0,.114,1.1.644.644,0,0,0,.228.3A.64.64,0,0,1,55.632-23.674Zm6.65,22a2.868,2.868,0,0,0-1.33-.076.679.679,0,0,1-.874-.722c0-.95-.076-1.558,0-2.356a1.108,1.108,0,0,1-.228-.57c0-.228.152-.38.19-.684a6.122,6.122,0,0,1,.038-1.862A9.827,9.827,0,0,1,60.04-9.5c-.038-.57-.418-.874.038-1.6.076-.456-.3-.646-.076-1.292.038-.456-.342-.912.038-1.33.038-.76,0-1.824.076-2.318a7.592,7.592,0,0,1,.076-1.33,1.714,1.714,0,0,0,0-.988c-.266-.456-.722-.342-1.026-.228-.76.418-1.026.228-1.444.342a4.186,4.186,0,0,1-1.482.152,13.365,13.365,0,0,1-1.71.114c-.532.038-.912.038-1.52.038-.266-.038-.456.3-.456.608a.518.518,0,0,0,.57.57c.38.076.8-.038,1.33.038.3.038.418.342.532.722.076.418.114,2.356.114,2.85v1.9c-.228.532.152,1.786,0,2.318-.266.874.3,1.482.038,2.242-.266.494.19.988-.038,1.824a9.338,9.338,0,0,0-.152,2.28c.076.494-.076.8-.684.836H52.82c-.3-.076-.608.3-.608.646,0,.266.19.57.684.57h.57c.76,0,1.178-.038,1.824-.076.8-.038,1.444,0,2.166-.038A18.954,18.954,0,0,0,60-.646a2.761,2.761,0,0,0,.95.152c.38,0,.76-.038,1.216-.076h.076c.19,0,.3-.266.3-.532v-.114C62.548-1.444,62.472-1.672,62.282-1.672Zm18.24-3.04a19.631,19.631,0,0,1,.228-2.546.408.408,0,0,0-.456-.418.685.685,0,0,0-.608.342,1.424,1.424,0,0,0-.19.646,2.236,2.236,0,0,1-.076.646c-.152.494-.114.988-.418,1.368.038.836-.76.874-.912,1.52A2.472,2.472,0,0,1,76.418-2.09c-.874.076-1.558.152-2.584.152a11.436,11.436,0,0,1-1.976,0c-.836.038-1.292-.3-1.064-.646.266-.38.3-1.064.57-1.1.266-.114.266-.57.646-.988a4.676,4.676,0,0,0,.646-.95,1.144,1.144,0,0,0,.152-.532c.038-.342.076-.418.494-.456.266-.38.266-.646.608-.988.152-.266.19-.38.266-.494a2.545,2.545,0,0,1,.38-.456c.418-.076.342-.76.646-.988a5.524,5.524,0,0,0,.646-.988c.266-.418.228-.684.646-.95.228-.076.228-.3.228-.494a.421.421,0,0,1,.19-.38.787.787,0,0,0,.38-.532c.038-.152.152-.3.456-.494.266-.228.228-.608.646-1.026.456-.456.608-.684.646-.988-.076-.228.532-.8.608-.95a.737.737,0,0,0,.342-.38,2.481,2.481,0,0,1,.3-.266c.228-.3.114-.912-.076-.988a1.675,1.675,0,0,0-.532-.114c-.114,0-.228.038-.342.038a2.344,2.344,0,0,1-.912.076,3.5,3.5,0,0,0-1.482.114c-.836.152-1.14-.19-1.672-.076-.95.152-1.976-.076-2.888,0-.38.3-.722-.114-1.33,0a4.918,4.918,0,0,1-1.672,0,5.752,5.752,0,0,0-1.14-.076H66.842a.964.964,0,0,0-.608.152c-.114.076-.152.266-.114.494.076.76-.266,1.178-.038,1.634.19.342-.266.912-.114,1.406a.422.422,0,0,1,.076.532.675.675,0,0,0-.152.38,1.928,1.928,0,0,1-.076.342.931.931,0,0,0-.038.57.406.406,0,0,1,0,.3.69.69,0,0,0,.076.646c.114.228.988.418,1.1-.038.076-.3-.038-.874.114-1.14a.629.629,0,0,0,0-.456.344.344,0,0,1,.152-.418l.114-.95c.076-.684.646-.722.874-1.1.19-.342.95-.38,1.254-.608a2.8,2.8,0,0,1,1.444-.3,2.479,2.479,0,0,1,1.368-.076,1.211,1.211,0,0,1,1.14,0c.494-.076.8-.114.95,0,.114.076.152.19.114.418-.076.228-.19.76-.646.95-.38.532-.608.646-.646.912A10.781,10.781,0,0,1,72.01-12.73c-.532.418-.8,1.33-1.14,1.634a6.567,6.567,0,0,1-1.1,1.672,12.508,12.508,0,0,0-1.14,1.748,8.17,8.17,0,0,0-.8,1.33c.114.532-.228.76-.8,1.1a.567.567,0,0,0-.114.38.335.335,0,0,1-.342.3c-.19.228-.418.874-.608.95-.418.456-.342.836-.608.95-.266.266-.228.608-.76.912a.5.5,0,0,0-.266.456,1.542,1.542,0,0,0,.19.646.726.726,0,0,0,.57.19,1.425,1.425,0,0,0,.38-.038A6.857,6.857,0,0,1,67.26-.532,7.233,7.233,0,0,1,69.5-.57c.494.114,1.14-.114,2.2,0a20.577,20.577,0,0,0,2.166,0,7.4,7.4,0,0,1,2.736.038c1.026.076,1.6-.076,2.736.076.076.076.152.076.3.076.3,0,.76-.228.608-.608a12.807,12.807,0,0,0,.038-1.672C80.142-3.42,80.674-3.876,80.522-4.712Zm32.756,1.064c-.3.3-.532.456-.76.722a4.514,4.514,0,0,1-1.216.836,8.8,8.8,0,0,1-1.33.532c-.3,0-.988.152-1.52.19a3.252,3.252,0,0,1-1.406-.19c-.456.114-.608-.418-1.1-.608-.228-.228-.608-.608-.874-.836a.949.949,0,0,1-.646-.988c-.038-.3-.38-.874-.456-1.178-.228-.418-.114-1.026-.266-1.33-.266-.988.038-1.634-.19-2.622a2.971,2.971,0,0,1,.038-1.634c.266-.38-.076-1.33.19-1.748.3-.57.076-1.368.38-1.71a3.124,3.124,0,0,0,.646-1.52c.342-.38.95-1.178,1.406-1.216A6.468,6.468,0,0,1,108-17.366a9.717,9.717,0,0,1,1.824.38c.342.19,1.178.456,1.1,1.33,0,.532-.152.76-.418.874a3.252,3.252,0,0,0-.38,1.178c-.114.266.266.988.456,1.254a1.99,1.99,0,0,0,1.406.494,1.109,1.109,0,0,0,1.482-.608,1.03,1.03,0,0,0,.456-.8.558.558,0,0,1,.152-.456,3.739,3.739,0,0,0-.684-2.318A4.908,4.908,0,0,0,111.72-17.4c-.684-.532-1.1-.3-2.014-.76a4.155,4.155,0,0,0-1.71-.3,2.019,2.019,0,0,0-.532.038c-.342-.038-.608-.076-.836-.076a2.315,2.315,0,0,0-1.064.266c-.76.3-1.14.114-1.748.532a9.711,9.711,0,0,0-1.6.836c-.494.608-.836.494-1.406,1.14a2.953,2.953,0,0,0-1.14,1.368c-.266.532-.836,1.14-.836,1.6a10.415,10.415,0,0,0-.57,1.748.959.959,0,0,0-.038.646c.076.3.19.57-.152.874.076.8.076,1.9.19,2.28L98.8-5.51c.19.836.722.8.836,1.558.152.722.988.646,1.1,1.33.266.646.76.57,1.33,1.1.38.19,1.14.646,1.558.8a5.015,5.015,0,0,0,1.748.532,14.2,14.2,0,0,0,1.862.152c.342.038.608.076.836.076a3.1,3.1,0,0,0,1.254-.266,2.539,2.539,0,0,0,1.9-.57c.342-.342.874-.342,1.672-.95a3.7,3.7,0,0,0,1.33-1.33.14.14,0,0,0,.038-.114.728.728,0,0,0-.646-.646A.525.525,0,0,0,113.278-3.648Zm22.23-5.586a6.738,6.738,0,0,1-.152-1.976c-.114-.38-.152-1.482-.532-1.786a9.338,9.338,0,0,1-.836-1.6c-.228-.418-.912-.8-1.1-1.33-.456-.114-.836-.95-1.368-1.064-.646-.3-.912-.494-1.6-.8-.684-.076-1.292-.494-1.786-.494-.532.114-.912-.19-1.6-.19a1.425,1.425,0,0,0-.38.038h-.494a5.051,5.051,0,0,0-1.444.152,4.912,4.912,0,0,0-1.824.532c-.722.418-1.178.3-1.6.8-.646.19-.874.76-1.406,1.1-.646.266-.722,1.026-1.14,1.33-.38.494-.608,1.292-.988,1.824a.67.67,0,0,0-.152.608,1.757,1.757,0,0,1-.266.95,1.3,1.3,0,0,0-.152.874,2.2,2.2,0,0,1-.038,1.1,2.615,2.615,0,0,0-.076.494,7.619,7.619,0,0,0,.266,1.444c0,.494.532,1.368.532,1.748a7.33,7.33,0,0,0,.988,1.748c.494.19.532.342.57.494a.713.713,0,0,0,.38.684c.494.342.76.8,1.444,1.026a1.619,1.619,0,0,1,.57.342,1.612,1.612,0,0,0,1.026.456c.684.114,1.178.608,1.786.494a8.69,8.69,0,0,0,1.52.228,1.425,1.425,0,0,0,.418-.038h.228c.342,0,.608.038.836.038h.076a1.4,1.4,0,0,0,.836-.228,9.221,9.221,0,0,0,1.786-.494c.608-.076,1.064-.57,1.634-.76a3.614,3.614,0,0,0,1.368-1.1c.418-.152.532-.95,1.14-1.33.152-.38.608-1.14.988-1.976a1.6,1.6,0,0,0,.076-.684.609.609,0,0,1,.3-.684A13.064,13.064,0,0,0,135.508-9.234Zm-5.472,1.6c-.114.532.152,1.368-.152,1.634-.152.646-.076,1.254-.3,1.6-.418.456-.266.8-.57,1.52a2.543,2.543,0,0,1-1.178,1.368,3.256,3.256,0,0,1-1.71.532,2.678,2.678,0,0,1-1.254-.266,3.751,3.751,0,0,1-1.254-1.1l-.418-.57c-.342-.342-.3-.912-.494-1.216-.3-.342-.228-.912-.342-1.33,0-.418-.266-.684-.152-1.368.152-.874-.342-1.786-.114-2.394a3.633,3.633,0,0,1,.114-2.432c-.076-.684.3-.8.152-1.368a4.058,4.058,0,0,1,.3-1.368c0-.646.532-.722.494-1.216-.038-.38.152-.456.38-.608a1.712,1.712,0,0,0,.342-.38.768.768,0,0,1,.57-.456,2.432,2.432,0,0,0,.418-.228,4.948,4.948,0,0,1,1.254-.228,2.684,2.684,0,0,1,1.786.608c.532.57,1.064.874,1.1,1.292.228.608.532.76.57,1.52a10.774,10.774,0,0,0,.3,1.6c.3.266.3.494.228.684a1.625,1.625,0,0,0-.19.684c.076.836.38,1.482.152,1.9C129.96-8.93,130.226-8.132,130.036-7.638Zm28.12,5.966c-.266-.114-.38-.038-.684-.076a6.131,6.131,0,0,0-.836,0c-.532-.038-.646-.152-.684-.912-.038-.95-.038-2.7-.038-3.876a8.016,8.016,0,0,1,0-2.356,12.344,12.344,0,0,0,.038-2.888c-.3-.38-.19-.608-.152-1.026a3.95,3.95,0,0,0,.038-.988,7.973,7.973,0,0,0-.228-1.254,1.537,1.537,0,0,1-.266-.722c-.038-.19-.076-.342-.228-.418-.418-.3-.836-.912-1.178-1.216a.8.8,0,0,0-.418-.19,1.052,1.052,0,0,1-.684-.418c-.418-.38-1.216-.114-1.558-.38-.418-.3-1.026-.038-1.444-.038-.608.228-1.216.038-1.482.152-.418.228-1.178.532-1.52.76a5.779,5.779,0,0,0-1.748,1.14.576.576,0,0,1-.418.266c-.114,0-.228-.114-.266-.38-.076-.722.114-1.406.038-1.71a.674.674,0,0,0-.646-.456.742.742,0,0,0-.266.038,5.455,5.455,0,0,1-1.368.266,4.548,4.548,0,0,1-1.71.228c-.418.152-.722-.038-1.406.114-.836.114-1.254.038-1.672.114-.722.19-.494,1.254.114,1.14a4.405,4.405,0,0,1,1.254.114c.418.114.608.57.646,1.292.038.532-.038,1.406,0,2.166a4.538,4.538,0,0,0,0,1.9,10.384,10.384,0,0,0,0,1.9,11,11,0,0,1,0,1.938.963.963,0,0,0,.114.76.823.823,0,0,1-.114.988c0,.988-.076,1.748,0,2.584a1.728,1.728,0,0,1-.19,1.064.634.634,0,0,1-.57.342,8.924,8.924,0,0,0-.988.038c-.3.076-.684-.114-.836.152a.65.65,0,0,0-.266.494.531.531,0,0,0,.494.494h.228c.3,0,.57-.038.836-.038.38,0,.76.038,1.178.038h.3a18.9,18.9,0,0,1,1.976-.076,12.414,12.414,0,0,1,2.394.076,7.324,7.324,0,0,1,1.824,0h.076c.494,0,.722-.3.722-.57a.665.665,0,0,0-.266-.532c-.152-.228-.494-.038-.684-.114-.19-.038-.494,0-.608-.114-.418-.114-.57-.342-.608-1.1-.038-.8-.038-1.52-.038-2.09-.38-.494-.3-.722-.152-.988a1.4,1.4,0,0,0,.19-.418c.076-.76-.228-.874,0-1.558.19-.266-.076-1.178,0-1.558-.19-.608.228-1.292,0-1.6a2.688,2.688,0,0,1,0-1.558c.228-.3-.076-.8,0-1.558a2.515,2.515,0,0,1,1.064-1.254,5.654,5.654,0,0,1,1.368-.646,5.081,5.081,0,0,1,1.444-.38c.418.228,1.254.152,1.368.38.076.3.57.228.684.722A7.474,7.474,0,0,1,150.67-13a17.352,17.352,0,0,0,0,2.812,1.358,1.358,0,0,1,.114,1.1.883.883,0,0,0,0,.76.922.922,0,0,1-.076.874c-.114.152,0,.3.076.456a.5.5,0,0,1-.038.456c-.19.3.152.722,0,1.216a6.036,6.036,0,0,0-.076,1.444c.076,1.064.076,1.786-.3,2.052a2.328,2.328,0,0,1-1.292.076c-.532.076-.684,1.064-.076,1.216.076,0,.152.038.228.038.228,0,.456-.076.722-.076.076,0,.152.038.228.038.19,0,.38.038.532.038.19,0,.38-.038.532-.038.228-.228.532-.038.684-.038.342,0,.646.076.95.076a1.762,1.762,0,0,0,.722-.152c.874-.038,1.1.076,2.09.114l.266.038c.38,0,.76-.114,1.1-.076h1.14c.19,0,.342-.228.342-.494A.617.617,0,0,0,158.156-1.672ZM170.164-3c-.3.076-.418.342-.57.418a.505.505,0,0,1-.266.114.589.589,0,0,0-.38.266c-.076.114-.38.19-.456.266-.342.266-.532.19-1.1.228a1.4,1.4,0,0,1-1.292-.418c-.152-.152-.532-.418-.532-.722a2.427,2.427,0,0,0-.228-.836,3.056,3.056,0,0,1-.114-1.254c.152-.8-.114-1.824.038-2.2-.038-.8,0-1.634,0-2.356-.266-.95.114-1.292-.038-1.976-.152-.38.152-1.786.076-2.242a12.649,12.649,0,0,1,.038-2.394c0-.228.114-.57.836-.608.38.038.532,0,1.254,0,.3,0,.38.152.836-.076.152-.076.342.114.684.076.342,0,.494-.3.494-.608,0-.342-.19-.646-.456-.532a3.132,3.132,0,0,1-.912-.076,1.066,1.066,0,0,0-.532.038.312.312,0,0,1-.266.038c-.494-.152-.57,0-.988-.038-.342-.038-.57,0-.722-.19a.608.608,0,0,1-.152-.418c-.076-.57.076-.8-.076-1.178-.076-.152,0-.266.038-.38a.375.375,0,0,0-.076-.38c-.152-.342.114-.684.076-1.026a5.87,5.87,0,0,1,.114-1.482c.076-.418-.038-.836,0-1.178.038-.266-.228-.38-.456-.38-.19,0-.418.076-.418.3a9.446,9.446,0,0,1-.3,1.292,1.635,1.635,0,0,1-.19.646,2.2,2.2,0,0,0-.266.532c-.3.342-.19.608-.532.874a4.106,4.106,0,0,1-.684.8c-.3.494-.57.532-.874.912-.19.19-.608.266-.988.646-.228.266-.836.19-1.064.418a.638.638,0,0,1-.494.152,3.93,3.93,0,0,0-.456.114c-.608.076-.646.266-.646.494v.152c0,.532.38.532.684.494a3.969,3.969,0,0,1,.95,0c.418.038.608.228.494.836,0,.8-.076,2.166-.038,3.192a8.554,8.554,0,0,1-.038,1.976,1.12,1.12,0,0,0,.038.532c.076.266.228.418.038.836-.19.342.114.684-.038,1.1-.114.57.076.8-.114,1.33a.321.321,0,0,0,0,.266.853.853,0,0,1,.038.646,1.553,1.553,0,0,0,.038.874.42.42,0,0,0,0,.3c0,.152.114.266,0,.494.114.456-.038.912.342,1.368s.342,1.064.874,1.33a1.548,1.548,0,0,0,.418.228c.228.076.38.114.532.532a4.545,4.545,0,0,0,1.52.608A11.268,11.268,0,0,0,165.3.038c.114,0,.228-.038.3-.038.722-.114,1.026-.076,1.482-.152a5.791,5.791,0,0,0,1.368-.456,4.023,4.023,0,0,0,1.254-.722,5.558,5.558,0,0,0,.494-.342c.266-.19.608-.266.646-.608a1.2,1.2,0,0,0-.228-.57A.415.415,0,0,0,170.164-3Zm18.2-1.976c-.532.646-.646,1.026-.874,1.254-.152.646-.912.684-1.178,1.216-.684.608-1.026.38-1.482.8a4.283,4.283,0,0,1-1.9.266,3.8,3.8,0,0,1-1.634-.19,2.726,2.726,0,0,1-1.254-.532A2.2,2.2,0,0,1,179.056-3c-.38-.418-.266-.608-.722-1.1-.342-.38-.266-1.064-.456-1.254-.228-.19-.19-.38-.19-.684a1.863,1.863,0,0,0-.114-.722,2.636,2.636,0,0,1-.152-1.482,1.272,1.272,0,0,0-.038-.874,1.6,1.6,0,0,1,0-.608l.038-.152c.266-.342.456-.608.836-.608h2.7c.722-.19.912.114,1.786,0a5.6,5.6,0,0,1,1.786,0c.646.114,1.33-.076,2.356.038a8.942,8.942,0,0,0,2.2-.114c.3.076.646-.3.646-.76a.647.647,0,0,0-.038-.266,2.931,2.931,0,0,0-.608-2.09,1.307,1.307,0,0,1-.3-.532,1.539,1.539,0,0,0-.3-.494c-.3-.114-.266-.532-.722-.95a3.964,3.964,0,0,0-1.33-1.216,8.722,8.722,0,0,0-1.52-.874,2.886,2.886,0,0,0-1.672-.532c-.494.114-1.254-.228-1.634-.228-.076,0-.114.038-.152.038-.684.228-1.064-.076-1.9.19a4.174,4.174,0,0,0-1.748.532c-.418.3-1.292.456-1.6.874-.342.38-1.14.494-1.406,1.1-.266.57-.836.684-1.1,1.368-.266.646-.722.8-.874,1.6a.687.687,0,0,1-.114.722.794.794,0,0,0-.3.494,19.284,19.284,0,0,0-.342,2.128.741.741,0,0,0,.038.3,2.008,2.008,0,0,0-.038.456c0,.532.19.836.228,1.482a2.569,2.569,0,0,0,.532,1.786c.228.8.646.836.836,1.52a3.071,3.071,0,0,0,1.14,1.33.956.956,0,0,0,.456.266c.266.076.456.114.532.608a9.757,9.757,0,0,0,1.976,1.026,5.442,5.442,0,0,0,1.748.494,2.23,2.23,0,0,0,.874.152h.722A1.052,1.052,0,0,1,181.45,0a7.024,7.024,0,0,1,.912-.038h.38A3.783,3.783,0,0,0,184.11-.3a4.53,4.53,0,0,0,2.09-.874l.76-.494c.114-.342.57-.57.95-.988.228-.3.532-.646.76-.988.152-.342.494-.456.608-.912.114-.3-.266-.646-.57-.646A.318.318,0,0,0,188.366-4.978Zm-10.45-8.93c.114-.456.076-1.1.456-1.482a8.179,8.179,0,0,1,1.216-1.52,3.049,3.049,0,0,1,1.938-.57,2.788,2.788,0,0,1,1.862.608c.494.3.608.95.988,1.52.418.532.114,1.14.418,1.558a8.464,8.464,0,0,1,.076,1.672c.038.57-.114.76-.912.722-1.064-.038-1.938.038-2.774,0-.608.038-1.9,0-2.622,0-.8,0-1.1-.3-.988-1.178a.96.96,0,0,0,.114-.684A.84.84,0,0,1,177.916-13.908Zm34.5,12.236c-.266-.114-.38-.038-.684-.076a6.131,6.131,0,0,0-.836,0c-.532-.038-.646-.152-.684-.912-.038-.95-.038-2.7-.038-3.876a8.016,8.016,0,0,1,0-2.356,12.344,12.344,0,0,0,.038-2.888c-.3-.38-.19-.608-.152-1.026a3.95,3.95,0,0,0,.038-.988,7.973,7.973,0,0,0-.228-1.254,1.537,1.537,0,0,1-.266-.722c-.038-.19-.076-.342-.228-.418-.418-.3-.836-.912-1.178-1.216a.8.8,0,0,0-.418-.19,1.052,1.052,0,0,1-.684-.418c-.418-.38-1.216-.114-1.558-.38-.418-.3-1.026-.038-1.444-.038-.608.228-1.216.038-1.482.152-.418.228-1.178.532-1.52.76a5.779,5.779,0,0,0-1.748,1.14.576.576,0,0,1-.418.266c-.114,0-.228-.114-.266-.38-.076-.722.114-1.406.038-1.71a.674.674,0,0,0-.646-.456.742.742,0,0,0-.266.038,5.455,5.455,0,0,1-1.368.266,4.548,4.548,0,0,1-1.71.228c-.418.152-.722-.038-1.406.114-.836.114-1.254.038-1.672.114-.722.19-.494,1.254.114,1.14a4.405,4.405,0,0,1,1.254.114c.418.114.608.57.646,1.292.038.532-.038,1.406,0,2.166a4.538,4.538,0,0,0,0,1.9,10.384,10.384,0,0,0,0,1.9,11,11,0,0,1,0,1.938.963.963,0,0,0,.114.76.823.823,0,0,1-.114.988c0,.988-.076,1.748,0,2.584a1.728,1.728,0,0,1-.19,1.064.634.634,0,0,1-.57.342,8.924,8.924,0,0,0-.988.038c-.3.076-.684-.114-.836.152a.65.65,0,0,0-.266.494.531.531,0,0,0,.494.494h.228c.3,0,.57-.038.836-.038.38,0,.76.038,1.178.038h.3a18.9,18.9,0,0,1,1.976-.076,12.414,12.414,0,0,1,2.394.076,7.324,7.324,0,0,1,1.824,0h.076c.494,0,.722-.3.722-.57a.665.665,0,0,0-.266-.532c-.152-.228-.494-.038-.684-.114-.19-.038-.494,0-.608-.114-.418-.114-.57-.342-.608-1.1-.038-.8-.038-1.52-.038-2.09-.38-.494-.3-.722-.152-.988a1.4,1.4,0,0,0,.19-.418c.076-.76-.228-.874,0-1.558.19-.266-.076-1.178,0-1.558-.19-.608.228-1.292,0-1.6a2.688,2.688,0,0,1,0-1.558c.228-.3-.076-.8,0-1.558a2.515,2.515,0,0,1,1.064-1.254,5.654,5.654,0,0,1,1.368-.646,5.081,5.081,0,0,1,1.444-.38c.418.228,1.254.152,1.368.38.076.3.57.228.684.722a7.474,7.474,0,0,1,.342,2.47,17.352,17.352,0,0,0,0,2.812,1.358,1.358,0,0,1,.114,1.1.883.883,0,0,0,0,.76.922.922,0,0,1-.076.874c-.114.152,0,.3.076.456a.5.5,0,0,1-.038.456c-.19.3.152.722,0,1.216a6.036,6.036,0,0,0-.076,1.444c.076,1.064.076,1.786-.3,2.052a2.328,2.328,0,0,1-1.292.076c-.532.076-.684,1.064-.076,1.216.076,0,.152.038.228.038.228,0,.456-.076.722-.076.076,0,.152.038.228.038.19,0,.38.038.532.038.19,0,.38-.038.532-.038.228-.228.532-.038.684-.038.342,0,.646.076.95.076a1.762,1.762,0,0,0,.722-.152c.874-.038,1.1.076,2.09.114l.266.038c.38,0,.76-.114,1.1-.076h1.14c.19,0,.342-.228.342-.494A.617.617,0,0,0,212.42-1.672ZM224.428-3c-.3.076-.418.342-.57.418a.505.505,0,0,1-.266.114.589.589,0,0,0-.38.266c-.076.114-.38.19-.456.266-.342.266-.532.19-1.1.228a1.4,1.4,0,0,1-1.292-.418c-.152-.152-.532-.418-.532-.722a2.427,2.427,0,0,0-.228-.836,3.056,3.056,0,0,1-.114-1.254c.152-.8-.114-1.824.038-2.2-.038-.8,0-1.634,0-2.356-.266-.95.114-1.292-.038-1.976-.152-.38.152-1.786.076-2.242a12.649,12.649,0,0,1,.038-2.394c0-.228.114-.57.836-.608.38.038.532,0,1.254,0,.3,0,.38.152.836-.076.152-.076.342.114.684.076.342,0,.494-.3.494-.608,0-.342-.19-.646-.456-.532a3.132,3.132,0,0,1-.912-.076,1.066,1.066,0,0,0-.532.038.312.312,0,0,1-.266.038c-.494-.152-.57,0-.988-.038-.342-.038-.57,0-.722-.19a.608.608,0,0,1-.152-.418c-.076-.57.076-.8-.076-1.178-.076-.152,0-.266.038-.38a.375.375,0,0,0-.076-.38c-.152-.342.114-.684.076-1.026a5.87,5.87,0,0,1,.114-1.482c.076-.418-.038-.836,0-1.178.038-.266-.228-.38-.456-.38-.19,0-.418.076-.418.3a9.446,9.446,0,0,1-.3,1.292,1.635,1.635,0,0,1-.19.646,2.2,2.2,0,0,0-.266.532c-.3.342-.19.608-.532.874a4.106,4.106,0,0,1-.684.8c-.3.494-.57.532-.874.912-.19.19-.608.266-.988.646-.228.266-.836.19-1.064.418a.638.638,0,0,1-.494.152,3.93,3.93,0,0,0-.456.114c-.608.076-.646.266-.646.494v.152c0,.532.38.532.684.494a3.969,3.969,0,0,1,.95,0c.418.038.608.228.494.836,0,.8-.076,2.166-.038,3.192a8.554,8.554,0,0,1-.038,1.976,1.12,1.12,0,0,0,.038.532c.076.266.228.418.038.836-.19.342.114.684-.038,1.1-.114.57.076.8-.114,1.33a.321.321,0,0,0,0,.266.853.853,0,0,1,.038.646,1.553,1.553,0,0,0,.038.874.42.42,0,0,0,0,.3c0,.152.114.266,0,.494.114.456-.038.912.342,1.368s.342,1.064.874,1.33a1.548,1.548,0,0,0,.418.228c.228.076.38.114.532.532a4.545,4.545,0,0,0,1.52.608,11.268,11.268,0,0,0,1.444.266c.114,0,.228-.038.3-.038.722-.114,1.026-.076,1.482-.152a5.791,5.791,0,0,0,1.368-.456,4.023,4.023,0,0,0,1.254-.722,5.558,5.558,0,0,0,.494-.342c.266-.19.608-.266.646-.608a1.2,1.2,0,0,0-.228-.57A.415.415,0,0,0,224.428-3Zm20.064-20.672c.494.418.836.722,1.33.722a3.487,3.487,0,0,0,2.508-.57,2.093,2.093,0,0,0,.912-1.976,3.261,3.261,0,0,0-.684-1.71.69.69,0,0,1-.57-.418.6.6,0,0,0-.266-.266,2.069,2.069,0,0,0-.95-.342.482.482,0,0,0-.228.038,2.953,2.953,0,0,0-1.482.494c-.114.076-.114.3-.532.38-.456.684-.836.912-.57,1.786a2.283,2.283,0,0,0,.114,1.1.644.644,0,0,0,.228.3A.64.64,0,0,1,244.492-23.674Zm6.65,22a2.868,2.868,0,0,0-1.33-.076.679.679,0,0,1-.874-.722c0-.95-.076-1.558,0-2.356a1.108,1.108,0,0,1-.228-.57c0-.228.152-.38.19-.684a6.122,6.122,0,0,1,.038-1.862A9.827,9.827,0,0,1,248.9-9.5c-.038-.57-.418-.874.038-1.6.076-.456-.3-.646-.076-1.292.038-.456-.342-.912.038-1.33.038-.76,0-1.824.076-2.318a7.59,7.59,0,0,1,.076-1.33,1.714,1.714,0,0,0,0-.988c-.266-.456-.722-.342-1.026-.228-.76.418-1.026.228-1.444.342a4.186,4.186,0,0,1-1.482.152,13.365,13.365,0,0,1-1.71.114c-.532.038-.912.038-1.52.038-.266-.038-.456.3-.456.608a.518.518,0,0,0,.57.57c.38.076.8-.038,1.33.038.3.038.418.342.532.722.076.418.114,2.356.114,2.85v1.9c-.228.532.152,1.786,0,2.318-.266.874.3,1.482.038,2.242-.266.494.19.988-.038,1.824a9.337,9.337,0,0,0-.152,2.28c.076.494-.076.8-.684.836H241.68c-.3-.076-.608.3-.608.646,0,.266.19.57.684.57h.57c.76,0,1.178-.038,1.824-.076.8-.038,1.444,0,2.166-.038a18.954,18.954,0,0,0,2.546,0,2.761,2.761,0,0,0,.95.152c.38,0,.76-.038,1.216-.076h.076c.19,0,.3-.266.3-.532v-.114C251.408-1.444,251.332-1.672,251.142-1.672Zm15.5-5.852a5.681,5.681,0,0,0-1.292-2.166A9.374,9.374,0,0,0,263-10.982a.729.729,0,0,1-.722-.152,1.5,1.5,0,0,0-.608-.3c-.76.038-1.1-.57-1.6-.532a7.035,7.035,0,0,1-1.6-.646,3.172,3.172,0,0,1-1.14-.912,1.5,1.5,0,0,1-.418-1.368,2.49,2.49,0,0,1,1.1-1.938,5.308,5.308,0,0,1,2.128-.532,3.752,3.752,0,0,1,2.052.456,6.793,6.793,0,0,1,1.672,1.368,2.935,2.935,0,0,1,.608,1.368,6.259,6.259,0,0,0,.152,1.216.462.462,0,0,0,.494.342c.342,0,.646-.19.57-.456,0-.456-.038-.76-.076-1.292a.347.347,0,0,0-.114-.266c-.038-.114-.076-.19.076-.418-.038-.57.076-.836.114-1.9-.038-.3.19-.532.152-.8a.683.683,0,0,0-.57-.342.209.209,0,0,0-.19.114c-.266.228-.266.494-.494.646-.19.076-.342,0-.608-.114a11.6,11.6,0,0,0-1.9-.76,9.768,9.768,0,0,0-1.9-.3h-.152a7.9,7.9,0,0,0-2.166.456,1.191,1.191,0,0,0-.418.3.612.612,0,0,1-.608.228,1.817,1.817,0,0,0-.874.684,7.007,7.007,0,0,0-1.292,1.862,6.646,6.646,0,0,0-.494,2.318A4.093,4.093,0,0,0,254.6-10.3a3.007,3.007,0,0,0,1.292,1.6,3.342,3.342,0,0,0,1.634.988c.532.19,1.14.76,1.938.722.418-.076.646.266,1.14.418a5.591,5.591,0,0,1,1.14.3c.266.114.532.038.95.418a.672.672,0,0,0,.3.19c.19.038.342.114.494.456a1.324,1.324,0,0,1,.38,1.1c.114.57-.114.836-.266,1.368A4.331,4.331,0,0,1,262.58-1.71c-.152.3-.266.266-.418.266a.419.419,0,0,0-.342.114,5.761,5.761,0,0,1-1.6.152,4.493,4.493,0,0,1-1.406-.114.654.654,0,0,1-.57-.19,2,2,0,0,0-.418-.266,4.892,4.892,0,0,1-1.14-.836,4.71,4.71,0,0,1-.8-.988.748.748,0,0,1-.38-.57c-.076-.152-.114-.342-.228-.608a7,7,0,0,1-.38-1.482c.038-.266-.266-.418-.532-.418-.228,0-.456.076-.494.3a8.989,8.989,0,0,0,.038,1.14c.114.342.266.57.076.95a6.136,6.136,0,0,1-.076,1.482c-.152.57-.152,1.1-.266,1.558a.287.287,0,0,0-.038.152c0,.38.722.57.874.3.228-.266.152-.418.532-.722.114-.114.494-.076.912.266.418.418,1.254.494,1.786.8a5.269,5.269,0,0,0,1.216.228,6.517,6.517,0,0,0,1.71.152,12.578,12.578,0,0,0,2.242-.38c.494-.19.95-.228,1.292-.646.266-.342.684-.19.874-.57a1.142,1.142,0,0,1,.456-.418.982.982,0,0,0,.3-.418c.152-.57.76-1.1.8-1.6a.867.867,0,0,1,.152-.722,1.163,1.163,0,0,0,.114-.57v-.114A8.242,8.242,0,0,0,266.646-7.524ZM305.178-1.6c-.684-.152-1.026.076-1.558-.114-.266-.076-.532-.114-.646-.3a.789.789,0,0,1-.152-.57c.038-.684-.152-1.9-.038-2.66.19-.608-.266-1.026,0-1.6.114-1.026-.076-1.52,0-2.622a15.1,15.1,0,0,1,0-2.622,6.932,6.932,0,0,1,0-2.66,8.616,8.616,0,0,0,0-2.622c.228-.76-.152-1.52,0-2.622a14.732,14.732,0,0,1,.038-3.648c0-.76-.3-1.026,0-1.9.152-.95-.038-1.33.152-2.584.076-.57.152-1.026-.152-1.178-.19-.076-.342-.228-.57-.228a.544.544,0,0,0-.38.114,2.233,2.233,0,0,1-1.33.608c-.494.076-1.33.38-1.672.38a5.411,5.411,0,0,0-1.71.076,13.973,13.973,0,0,0-1.748.038.542.542,0,0,0-.418.57c0,.3.19.608.532.57a11.061,11.061,0,0,0,1.6-.038c.418,0,.684.152.722.76,0,.684,0,1.748.038,2.242.19.152.19.342.114.608a5.4,5.4,0,0,0-.114.95c.038.532-.076,1.064,0,1.558.228.8-.228,1.178,0,1.558.3.418-.114.836.038,1.444a.467.467,0,0,1-.038.494.411.411,0,0,0-.076.494c.114.608-.076.912-.38.912a.778.778,0,0,1-.57-.342,5.062,5.062,0,0,0-1.178-.912,3.7,3.7,0,0,0-1.444-.722,2.621,2.621,0,0,0-1.786-.266c-.76-.228-1.026.19-1.824.228a2.7,2.7,0,0,0-1.558.646c-.722.418-.722.874-1.33.988a2.375,2.375,0,0,0-1.1,1.254c-.076.228-.722,1.178-.836,1.482-.418.456-.228,1.216-.608,1.6a8.974,8.974,0,0,0-.38,1.71,1.012,1.012,0,0,0-.114.456,4.6,4.6,0,0,1,0,1.254,2.275,2.275,0,0,0-.076.456c0,.456.266.684.19,1.216s.342.95.38,1.6a1.1,1.1,0,0,0,.266.76,1,1,0,0,1,.38.722c.19.722.57.912.836,1.33a.969.969,0,0,0,.456.342.671.671,0,0,1,.456.608A3.5,3.5,0,0,0,289.066-.76a4.216,4.216,0,0,0,1.52.532,4.012,4.012,0,0,0,1.71.19,5.55,5.55,0,0,0,2.546-.494c.3-.266.95-.3,1.254-.684.19-.38.57-.228,1.216-.874.19-.19.532-.038.57.418.114.152,0,.38.076.95-.076.456.456.836.836.836h.152c.532-.266.722-.152,1.1-.342a2.015,2.015,0,0,0,.532-.19c.152-.076.266-.114.57.038.57-.152,1.064-.076,1.824-.228.342.19.836-.152,1.406.038.494-.038.76,0,.874-.152a.572.572,0,0,0,.152-.418C305.406-1.368,305.33-1.558,305.178-1.6Zm-7.3-4.636c.152.646-.152,1.026,0,1.71a2.237,2.237,0,0,1-.608,1.026c-.228.494-.76.57-.8.8a4.224,4.224,0,0,1-2.2.722,2.938,2.938,0,0,1-2.166-.722,2.915,2.915,0,0,1-1.254-1.824,8.918,8.918,0,0,1-.57-2.356,11.317,11.317,0,0,1-.152-2.242,9.091,9.091,0,0,1,.152-2.2,4.538,4.538,0,0,1,.57-2.318c-.076-.228.266-.57.494-.95.076-.608.3-.912.76-.912.532-.19,1.368-.988,2.09-.76a5.8,5.8,0,0,1,1.672.456,3.012,3.012,0,0,1,1.292,1.178c.532.684.342.836.608,1.6.3.3.228.38.152.608a1.176,1.176,0,0,0-.038.57c-.114.722.152,1.368,0,2.2a1.341,1.341,0,0,0,.152.646.8.8,0,0,1-.152,1.064C297.844-7.41,297.92-6.992,297.882-6.232Zm24.7-10.3c-.3-.608-.3-.836-.722-1.026A3.081,3.081,0,0,0,320.8-18.2a3.847,3.847,0,0,0-1.9-.19.566.566,0,0,0-.3.114c-.114.076-.152.152-.57.076a6.29,6.29,0,0,0-1.216.722c-.266.114-.988.76-1.026,1.064a4.432,4.432,0,0,0-.418.608c-.114.19-.228.228-.38.19-.114-.038-.19-.076-.228-.19a3.289,3.289,0,0,1,0-1.1c-.076-.494.152-.874-.038-1.254a.759.759,0,0,0-.646-.494.565.565,0,0,0-.342.076,1.7,1.7,0,0,1-1.292.266,14.585,14.585,0,0,1-1.672.228,3.939,3.939,0,0,1-1.52.114,8.208,8.208,0,0,1-1.368,0c-.532,0-.722.266-.722.57,0,.342.228.722.532.684.456.038.95-.076,1.254-.038.152.038.418-.038.608.076a.857.857,0,0,1,.19.456c.228.76-.038.912.076,1.444a8.721,8.721,0,0,1,.038,2.622.92.92,0,0,0,.114.532.5.5,0,0,1-.114.608c-.038.95,0,1.938-.038,2.774a3.082,3.082,0,0,0,.114.418c.152.228.228.38-.076.836a17.782,17.782,0,0,0,0,2.014c-.038.684-.038,1.52-.076,2.052-.114.722-.19,1.064-.8,1.14-.646.038-1.254-.038-1.52.038-.3,0-.456.266-.456.57,0,.342.19.684.57.608.988,0,1.254,0,2.432.038.532,0,1.1.038,1.634.038.57,0,1.1-.038,1.558-.038.152-.228.38-.19.684-.114a4.26,4.26,0,0,0,.8.152c.57.038,1.026.038,1.482.038a4.843,4.843,0,0,0,1.064-.076h.076c.266,0,.38-.266.38-.57,0-.342-.19-.76-.57-.646a2.084,2.084,0,0,1-.494,0,1.433,1.433,0,0,0-.722,0,.834.834,0,0,1-1.026-.8c.076-.608-.19-1.786-.076-2.622-.038-.342-.418-.8,0-1.368a18.182,18.182,0,0,0,0-2.052,22.794,22.794,0,0,0,0-2.28,5.045,5.045,0,0,1,.3-2.28c.152-.38.038-.912.418-1.1.266-.266.228-.456.38-.684a.991.991,0,0,1,.266-.38c.19-.114.3-.608.912-.8a1.009,1.009,0,0,1,.988-.342c.38-.038.722.19.684.418a1.6,1.6,0,0,1,.038,1.026,1.563,1.563,0,0,0,.494,1.406,1.569,1.569,0,0,0,1.71.608c.456.076.874-.076,1.406-.722a1.747,1.747,0,0,0,.532-1.368v-.228A3.03,3.03,0,0,0,322.582-16.53ZM340.518-3.382c-.114.342-.3.38-.456.76a1.384,1.384,0,0,1-.456.418.9.9,0,0,1-.57.038c-.76-.038-1.026-.684-1.064-1.254a22.69,22.69,0,0,1,0-2.28,1.285,1.285,0,0,1-.038-.836,3.207,3.207,0,0,0,.076-.722c-.038-.532-.38-.722-.076-1.33.152-.266-.152-.57,0-1.1.114-.38-.19-.76,0-1.33.114-.38-.038-.95.038-1.52a16.111,16.111,0,0,0-.228-2.508c-.3-.152-.266-.3-.266-.532a.983.983,0,0,0-.266-.684c-.3-.418-.57-.912-.988-1.064-.684-.228-.836-.722-1.292-.684-.608.038-.8-.418-1.33-.3-.57-.076-1.026-.114-1.368-.19a6.269,6.269,0,0,0-2.2.266,9.236,9.236,0,0,0-2.47.722c-.266.038-.342.152-.38.266-.076.114-.114.228-.494.228-.19,0-.342.3-.836.722a2.469,2.469,0,0,0-.76,2.014,2.157,2.157,0,0,0,.57,1.52,2.218,2.218,0,0,0,1.482.646c.608-.038.988.038,1.292-.57a2.3,2.3,0,0,0,.532-1.33,1.429,1.429,0,0,0-.532-1.216.785.785,0,0,1-.3-.95c-.114-.228.532-.836.988-.912a13.919,13.919,0,0,1,1.6-.266c.874.114,1.786.228,2.014.8.684.608.57,1.368.684,2.052a13.29,13.29,0,0,1,0,1.748,3.391,3.391,0,0,1,0,1.52c.076.266,0,.38-.152.646a.847.847,0,0,1-.836.418c-.722.076-.874.38-1.558.266a7.776,7.776,0,0,0-1.786.342,4.757,4.757,0,0,0-1.938.684c-.76.152-.8.646-1.558.988-.76.266-.95.912-1.444,1.672a4.2,4.2,0,0,0-.494,1.976,2.167,2.167,0,0,0,.038.494.721.721,0,0,0,.152.456c.114.228.3.342.19.8.3.57.494,1.1,1.064,1.292a4.894,4.894,0,0,0,1.52.836,7.231,7.231,0,0,0,1.748.266,7.94,7.94,0,0,0,2.166-.38c.076-.228.266-.266.456-.3a.6.6,0,0,0,.456-.19c.3-.266,1.026-.38,1.216-.912a.745.745,0,0,1,1.216.266,3.893,3.893,0,0,0,.95.874,5.247,5.247,0,0,0,2.242.57,1.109,1.109,0,0,0,.342.076c.456,0,.912-.38,1.14-.3a2.185,2.185,0,0,0,1.178-.608c.38-.38.722-.38.988-.95a4.191,4.191,0,0,0,.722-.95.343.343,0,0,0,.038-.19.578.578,0,0,0-.57-.532A.341.341,0,0,0,340.518-3.382Zm-7.3-.494a6.046,6.046,0,0,1-1.1,1.254,3.825,3.825,0,0,1-1.786.532,2.879,2.879,0,0,1-1.9-.874,1.2,1.2,0,0,1-.494-1.064c0-.342-.3-.608-.19-.988.19-.494.038-.608.152-.912-.114-.456.3-.684.532-1.178a2.5,2.5,0,0,1,1.178-1.064c.456-.456.8-.228,1.368-.608.342-.38.874-.19,1.14-.3.684-.19,1.368-.038,1.254.836a.719.719,0,0,0,.038.57.653.653,0,0,1,0,.646.566.566,0,0,0-.076.532.723.723,0,0,1,.038.646c-.038.418.19.532.038.988C333.3-4.484,333.45-4.18,333.222-3.876ZM369.056-17.9c-.418-.266-1.216-.076-1.52-.076a.611.611,0,0,0-.418-.114c-.38,0-.874.114-1.026,0a1.425,1.425,0,0,0-.418-.038c-.266,0-.57.038-.836.038h-.228c-.342,0-.646-.038-.912-.038a.872.872,0,0,0-.532.152.739.739,0,0,0,.456,1.292,1.607,1.607,0,0,0,.95,0,.528.528,0,0,1,.608.608,4.081,4.081,0,0,1-.266,1.292c.076.646-.19.722-.38,1.178-.266.152-.228.95-.418,1.178a7.166,7.166,0,0,1-.38,1.178c-.152.342-.038.722-.38,1.178-.266.228-.152,1.216-.532,1.52-.532.57-.228,1.254-.8,1.748a.41.41,0,0,1-.266.114c-.38,0-.76-.608-.76-.76,0-.19-.152-.266-.266-.38a.533.533,0,0,1-.076-.646c.152-.342-.646-1.026-.608-1.558.038-.266-.57-.912-.57-1.558.038-.38-.532-.8-.57-1.558-.038-.646-.494-.836-.57-1.558a2.141,2.141,0,0,1-.57-1.558c.038-.494-.266-.76-.38-1.292a.645.645,0,0,0-1.14-.19c-.266.722-.266,1.1-.418,1.482a1.931,1.931,0,0,0-.608,1.558l-.608,1.52c0,.494-.684,1.14-.608,1.558-.114.38-.494,1.292-.608,1.558a4.6,4.6,0,0,0-.608,1.558c-.266.342-.494.8-.38.95-.228.912-1.064,1.1-1.406.19a1.2,1.2,0,0,0-.19-.532.388.388,0,0,1-.076-.342c-.342-.342-.076-.684-.418-1.406A4.5,4.5,0,0,1,349.9-11.1a.888.888,0,0,0-.228-.8,1.277,1.277,0,0,1-.19-.608c-.3-.494-.038-.76-.418-1.406a4.7,4.7,0,0,0-.494-1.748c-.038-.38-.114-.874.342-1.026.494-.19,1.254.114,1.71-.152a.794.794,0,0,0,.228-.57c0-.3-.152-.646-.57-.57a18.524,18.524,0,0,0-2.014.076c-.684.076-1.824-.076-2.47,0-.684.038-1.938-.076-2.736-.076-.57,0-1.026-.076-1.444-.076a1.767,1.767,0,0,0-.76.114.637.637,0,0,0-.266.57.665.665,0,0,0,.456.684c.722.152.874,0,1.368.114.456-.076.76.418.912.912.57.608.266,1.216.57,1.71.19.608.418,1.14.608,1.71.19.988.494,1.254.722,2.166a18.091,18.091,0,0,0,.722,2.166,6.538,6.538,0,0,0,.722,2.2c.19.95.722,1.292.722,2.166.152.608.57.912.494,1.482.228.912.3,1.672.76,2.09a1.461,1.461,0,0,0,.912.228,1.678,1.678,0,0,0,1.178-.342.826.826,0,0,0,.266-.608.179.179,0,0,1,.038-.228c.038-.532.418-.722.456-1.178.152-.3.3-.342.3-.76a5.02,5.02,0,0,1,.76-2.014,18.6,18.6,0,0,1,.8-2.052,2.407,2.407,0,0,1,.57-1.406,1.6,1.6,0,0,1,.836-1.292c.608-.152.684-.038.836.57a4.4,4.4,0,0,0,.8,2.014c.8.418.266,1.444.722,1.938.266.95.646,1.1.76,1.976,0,.152.152.3.266.418.19.228.38.418.152.684-.114.228.3.57.418,1.14,0,.57.076.988.646,1.026.266,0,.608.076.95.076a1.566,1.566,0,0,0,1.026-.3.729.729,0,0,0,.19-.76,1.77,1.77,0,0,1,.228-.95c.57-.494.114-1.064.532-1.52a1.566,1.566,0,0,0,.456-1.406c-.076-.684.532-1.1.494-1.406a8.057,8.057,0,0,1,.494-1.444c.076-.456.342-.722.494-1.406a5.919,5.919,0,0,1,.494-1.444c.228-.418.152-.722.456-1.406.076-.684.57-.836.494-1.406a4.6,4.6,0,0,1,.494-1.406A6.739,6.739,0,0,0,366.662-16c.152-.3.228-.456.38-.532.152-.114.342-.114.76-.19.494.038,1.1.114,1.292-.038a.542.542,0,0,0,.228-.456A1.184,1.184,0,0,0,369.056-17.9ZM391.362-1.672c-.266-.114-.38-.038-.684-.076a6.131,6.131,0,0,0-.836,0c-.532-.038-.646-.152-.684-.912-.038-.95-.038-2.7-.038-3.876a8.016,8.016,0,0,1,0-2.356,12.344,12.344,0,0,0,.038-2.888c-.3-.38-.19-.608-.152-1.026a3.95,3.95,0,0,0,.038-.988,7.969,7.969,0,0,0-.228-1.254,1.537,1.537,0,0,1-.266-.722c-.038-.19-.076-.342-.228-.418-.418-.3-.836-.912-1.178-1.216a.8.8,0,0,0-.418-.19,1.052,1.052,0,0,1-.684-.418c-.418-.38-1.216-.114-1.558-.38-.418-.3-1.026-.038-1.444-.038-.608.228-1.216.038-1.482.152-.418.228-1.178.532-1.52.76a5.779,5.779,0,0,0-1.748,1.14.576.576,0,0,1-.418.266c-.114,0-.228-.114-.266-.38-.076-.722.114-1.406.038-1.71a.674.674,0,0,0-.646-.456.742.742,0,0,0-.266.038,5.455,5.455,0,0,1-1.368.266,4.548,4.548,0,0,1-1.71.228c-.418.152-.722-.038-1.406.114-.836.114-1.254.038-1.672.114-.722.19-.494,1.254.114,1.14a4.405,4.405,0,0,1,1.254.114c.418.114.608.57.646,1.292.038.532-.038,1.406,0,2.166a4.538,4.538,0,0,0,0,1.9,10.387,10.387,0,0,0,0,1.9,11,11,0,0,1,0,1.938.963.963,0,0,0,.114.76.823.823,0,0,1-.114.988c0,.988-.076,1.748,0,2.584a1.728,1.728,0,0,1-.19,1.064.634.634,0,0,1-.57.342,8.924,8.924,0,0,0-.988.038c-.3.076-.684-.114-.836.152a.65.65,0,0,0-.266.494.531.531,0,0,0,.494.494h.228c.3,0,.57-.038.836-.038.38,0,.76.038,1.178.038h.3a18.9,18.9,0,0,1,1.976-.076,12.413,12.413,0,0,1,2.394.076,7.325,7.325,0,0,1,1.824,0h.076c.494,0,.722-.3.722-.57a.665.665,0,0,0-.266-.532c-.152-.228-.494-.038-.684-.114-.19-.038-.494,0-.608-.114-.418-.114-.57-.342-.608-1.1-.038-.8-.038-1.52-.038-2.09-.38-.494-.3-.722-.152-.988a1.406,1.406,0,0,0,.19-.418c.076-.76-.228-.874,0-1.558.19-.266-.076-1.178,0-1.558-.19-.608.228-1.292,0-1.6a2.688,2.688,0,0,1,0-1.558c.228-.3-.076-.8,0-1.558a2.515,2.515,0,0,1,1.064-1.254,5.654,5.654,0,0,1,1.368-.646,5.082,5.082,0,0,1,1.444-.38c.418.228,1.254.152,1.368.38.076.3.57.228.684.722a7.474,7.474,0,0,1,.342,2.47,17.352,17.352,0,0,0,0,2.812,1.358,1.358,0,0,1,.114,1.1.883.883,0,0,0,0,.76.922.922,0,0,1-.076.874c-.114.152,0,.3.076.456a.5.5,0,0,1-.038.456c-.19.3.152.722,0,1.216a6.038,6.038,0,0,0-.076,1.444c.076,1.064.076,1.786-.3,2.052a2.328,2.328,0,0,1-1.292.076c-.532.076-.684,1.064-.076,1.216.076,0,.152.038.228.038.228,0,.456-.076.722-.076.076,0,.152.038.228.038.19,0,.38.038.532.038.19,0,.38-.038.532-.038.228-.228.532-.038.684-.038.342,0,.646.076.95.076a1.762,1.762,0,0,0,.722-.152c.874-.038,1.1.076,2.09.114l.266.038c.38,0,.76-.114,1.1-.076h1.14c.19,0,.342-.228.342-.494A.617.617,0,0,0,391.362-1.672Zm33.1-3.306c-.532.646-.646,1.026-.874,1.254-.152.646-.912.684-1.178,1.216-.684.608-1.026.38-1.482.8a4.283,4.283,0,0,1-1.9.266,3.8,3.8,0,0,1-1.634-.19,2.726,2.726,0,0,1-1.254-.532A2.2,2.2,0,0,1,415.15-3c-.38-.418-.266-.608-.722-1.1-.342-.38-.266-1.064-.456-1.254-.228-.19-.19-.38-.19-.684a1.863,1.863,0,0,0-.114-.722,2.636,2.636,0,0,1-.152-1.482,1.272,1.272,0,0,0-.038-.874,1.6,1.6,0,0,1,0-.608l.038-.152c.266-.342.456-.608.836-.608h2.7c.722-.19.912.114,1.786,0a5.6,5.6,0,0,1,1.786,0c.646.114,1.33-.076,2.356.038a8.942,8.942,0,0,0,2.2-.114c.3.076.646-.3.646-.76a.646.646,0,0,0-.038-.266,2.93,2.93,0,0,0-.608-2.09,1.306,1.306,0,0,1-.3-.532,1.539,1.539,0,0,0-.3-.494c-.3-.114-.266-.532-.722-.95a3.964,3.964,0,0,0-1.33-1.216,8.723,8.723,0,0,0-1.52-.874,2.886,2.886,0,0,0-1.672-.532c-.494.114-1.254-.228-1.634-.228-.076,0-.114.038-.152.038-.684.228-1.064-.076-1.9.19a4.174,4.174,0,0,0-1.748.532c-.418.3-1.292.456-1.6.874-.342.38-1.14.494-1.406,1.1-.266.57-.836.684-1.1,1.368-.266.646-.722.8-.874,1.6a.687.687,0,0,1-.114.722.794.794,0,0,0-.3.494,19.276,19.276,0,0,0-.342,2.128.741.741,0,0,0,.038.3,2.008,2.008,0,0,0-.038.456c0,.532.19.836.228,1.482a2.569,2.569,0,0,0,.532,1.786c.228.8.646.836.836,1.52a3.071,3.071,0,0,0,1.14,1.33.956.956,0,0,0,.456.266c.266.076.456.114.532.608a9.756,9.756,0,0,0,1.976,1.026,5.442,5.442,0,0,0,1.748.494,2.229,2.229,0,0,0,.874.152h.722a1.052,1.052,0,0,1,.342.038,7.024,7.024,0,0,1,.912-.038h.38A3.783,3.783,0,0,0,420.2-.3a4.529,4.529,0,0,0,2.09-.874l.76-.494c.114-.342.57-.57.95-.988.228-.3.532-.646.76-.988.152-.342.494-.456.608-.912.114-.3-.266-.646-.57-.646A.318.318,0,0,0,424.46-4.978Zm-10.45-8.93c.114-.456.076-1.1.456-1.482a8.179,8.179,0,0,1,1.216-1.52,3.049,3.049,0,0,1,1.938-.57,2.788,2.788,0,0,1,1.862.608c.494.3.608.95.988,1.52.418.532.114,1.14.418,1.558a8.467,8.467,0,0,1,.076,1.672c.038.57-.114.76-.912.722-1.064-.038-1.938.038-2.774,0-.608.038-1.9,0-2.622,0-.8,0-1.1-.3-.988-1.178a.96.96,0,0,0,.114-.684A.84.84,0,0,1,414.01-13.908Zm34.5,12.236c-.266-.114-.38-.038-.684-.076a6.131,6.131,0,0,0-.836,0c-.532-.038-.646-.152-.684-.912-.038-.95-.038-2.7-.038-3.876a8.016,8.016,0,0,1,0-2.356,12.342,12.342,0,0,0,.038-2.888c-.3-.38-.19-.608-.152-1.026a3.95,3.95,0,0,0,.038-.988,7.969,7.969,0,0,0-.228-1.254,1.537,1.537,0,0,1-.266-.722c-.038-.19-.076-.342-.228-.418-.418-.3-.836-.912-1.178-1.216a.8.8,0,0,0-.418-.19,1.052,1.052,0,0,1-.684-.418c-.418-.38-1.216-.114-1.558-.38-.418-.3-1.026-.038-1.444-.038-.608.228-1.216.038-1.482.152-.418.228-1.178.532-1.52.76a5.779,5.779,0,0,0-1.748,1.14.576.576,0,0,1-.418.266c-.114,0-.228-.114-.266-.38-.076-.722.114-1.406.038-1.71a.674.674,0,0,0-.646-.456.742.742,0,0,0-.266.038,5.455,5.455,0,0,1-1.368.266,4.548,4.548,0,0,1-1.71.228c-.418.152-.722-.038-1.406.114-.836.114-1.254.038-1.672.114-.722.19-.494,1.254.114,1.14a4.405,4.405,0,0,1,1.254.114c.418.114.608.57.646,1.292.038.532-.038,1.406,0,2.166a4.538,4.538,0,0,0,0,1.9,10.387,10.387,0,0,0,0,1.9,11,11,0,0,1,0,1.938.963.963,0,0,0,.114.76.823.823,0,0,1-.114.988c0,.988-.076,1.748,0,2.584a1.728,1.728,0,0,1-.19,1.064.634.634,0,0,1-.57.342,8.924,8.924,0,0,0-.988.038c-.3.076-.684-.114-.836.152a.65.65,0,0,0-.266.494.531.531,0,0,0,.494.494h.228c.3,0,.57-.038.836-.038.38,0,.76.038,1.178.038h.3a18.9,18.9,0,0,1,1.976-.076,12.413,12.413,0,0,1,2.394.076,7.325,7.325,0,0,1,1.824,0h.076c.494,0,.722-.3.722-.57a.665.665,0,0,0-.266-.532c-.152-.228-.494-.038-.684-.114-.19-.038-.494,0-.608-.114-.418-.114-.57-.342-.608-1.1-.038-.8-.038-1.52-.038-2.09-.38-.494-.3-.722-.152-.988a1.406,1.406,0,0,0,.19-.418c.076-.76-.228-.874,0-1.558.19-.266-.076-1.178,0-1.558-.19-.608.228-1.292,0-1.6a2.688,2.688,0,0,1,0-1.558c.228-.3-.076-.8,0-1.558a2.515,2.515,0,0,1,1.064-1.254,5.654,5.654,0,0,1,1.368-.646,5.082,5.082,0,0,1,1.444-.38c.418.228,1.254.152,1.368.38.076.3.57.228.684.722a7.474,7.474,0,0,1,.342,2.47,17.352,17.352,0,0,0,0,2.812,1.358,1.358,0,0,1,.114,1.1.883.883,0,0,0,0,.76.922.922,0,0,1-.076.874c-.114.152,0,.3.076.456a.5.5,0,0,1-.038.456c-.19.3.152.722,0,1.216a6.038,6.038,0,0,0-.076,1.444c.076,1.064.076,1.786-.3,2.052a2.328,2.328,0,0,1-1.292.076c-.532.076-.684,1.064-.076,1.216.076,0,.152.038.228.038.228,0,.456-.076.722-.076.076,0,.152.038.228.038.19,0,.38.038.532.038.19,0,.38-.038.532-.038.228-.228.532-.038.684-.038.342,0,.646.076.95.076a1.762,1.762,0,0,0,.722-.152c.874-.038,1.1.076,2.09.114l.266.038c.38,0,.76-.114,1.1-.076h1.14c.19,0,.342-.228.342-.494A.617.617,0,0,0,448.514-1.672ZM460.522-3c-.3.076-.418.342-.57.418a.505.505,0,0,1-.266.114.589.589,0,0,0-.38.266c-.076.114-.38.19-.456.266-.342.266-.532.19-1.1.228a1.4,1.4,0,0,1-1.292-.418c-.152-.152-.532-.418-.532-.722a2.428,2.428,0,0,0-.228-.836,3.056,3.056,0,0,1-.114-1.254c.152-.8-.114-1.824.038-2.2-.038-.8,0-1.634,0-2.356-.266-.95.114-1.292-.038-1.976-.152-.38.152-1.786.076-2.242a12.649,12.649,0,0,1,.038-2.394c0-.228.114-.57.836-.608.38.038.532,0,1.254,0,.3,0,.38.152.836-.076.152-.076.342.114.684.076.342,0,.494-.3.494-.608,0-.342-.19-.646-.456-.532a3.132,3.132,0,0,1-.912-.076,1.066,1.066,0,0,0-.532.038.312.312,0,0,1-.266.038c-.494-.152-.57,0-.988-.038-.342-.038-.57,0-.722-.19a.608.608,0,0,1-.152-.418c-.076-.57.076-.8-.076-1.178-.076-.152,0-.266.038-.38a.375.375,0,0,0-.076-.38c-.152-.342.114-.684.076-1.026a5.87,5.87,0,0,1,.114-1.482c.076-.418-.038-.836,0-1.178.038-.266-.228-.38-.456-.38-.19,0-.418.076-.418.3a9.44,9.44,0,0,1-.3,1.292,1.635,1.635,0,0,1-.19.646,2.2,2.2,0,0,0-.266.532c-.3.342-.19.608-.532.874a4.106,4.106,0,0,1-.684.8c-.3.494-.57.532-.874.912-.19.19-.608.266-.988.646-.228.266-.836.19-1.064.418a.638.638,0,0,1-.494.152,3.931,3.931,0,0,0-.456.114c-.608.076-.646.266-.646.494v.152c0,.532.38.532.684.494a3.969,3.969,0,0,1,.95,0c.418.038.608.228.494.836,0,.8-.076,2.166-.038,3.192a8.553,8.553,0,0,1-.038,1.976,1.12,1.12,0,0,0,.038.532c.076.266.228.418.038.836-.19.342.114.684-.038,1.1-.114.57.076.8-.114,1.33a.321.321,0,0,0,0,.266.853.853,0,0,1,.038.646,1.553,1.553,0,0,0,.038.874.42.42,0,0,0,0,.3c0,.152.114.266,0,.494.114.456-.038.912.342,1.368s.342,1.064.874,1.33a1.548,1.548,0,0,0,.418.228c.228.076.38.114.532.532a4.545,4.545,0,0,0,1.52.608,11.268,11.268,0,0,0,1.444.266c.114,0,.228-.038.3-.038.722-.114,1.026-.076,1.482-.152a5.79,5.79,0,0,0,1.368-.456,4.023,4.023,0,0,0,1.254-.722,5.56,5.56,0,0,0,.494-.342c.266-.19.608-.266.646-.608a1.2,1.2,0,0,0-.228-.57A.415.415,0,0,0,460.522-3Zm5.016-20.672c.494.418.836.722,1.33.722a3.487,3.487,0,0,0,2.508-.57,2.093,2.093,0,0,0,.912-1.976,3.261,3.261,0,0,0-.684-1.71.69.69,0,0,1-.57-.418.6.6,0,0,0-.266-.266,2.069,2.069,0,0,0-.95-.342.482.482,0,0,0-.228.038,2.953,2.953,0,0,0-1.482.494c-.114.076-.114.3-.532.38-.456.684-.836.912-.57,1.786a2.283,2.283,0,0,0,.114,1.1.644.644,0,0,0,.228.3A.64.64,0,0,1,465.538-23.674Zm6.65,22a2.868,2.868,0,0,0-1.33-.076.679.679,0,0,1-.874-.722c0-.95-.076-1.558,0-2.356a1.108,1.108,0,0,1-.228-.57c0-.228.152-.38.19-.684a6.122,6.122,0,0,1,.038-1.862,9.825,9.825,0,0,1-.038-1.558c-.038-.57-.418-.874.038-1.6.076-.456-.3-.646-.076-1.292.038-.456-.342-.912.038-1.33.038-.76,0-1.824.076-2.318a7.593,7.593,0,0,1,.076-1.33,1.714,1.714,0,0,0,0-.988c-.266-.456-.722-.342-1.026-.228-.76.418-1.026.228-1.444.342a4.186,4.186,0,0,1-1.482.152,13.365,13.365,0,0,1-1.71.114c-.532.038-.912.038-1.52.038-.266-.038-.456.3-.456.608a.518.518,0,0,0,.57.57c.38.076.8-.038,1.33.038.3.038.418.342.532.722.076.418.114,2.356.114,2.85v1.9c-.228.532.152,1.786,0,2.318-.266.874.3,1.482.038,2.242-.266.494.19.988-.038,1.824a9.337,9.337,0,0,0-.152,2.28c.076.494-.076.8-.684.836h-1.444c-.3-.076-.608.3-.608.646,0,.266.19.57.684.57h.57c.76,0,1.178-.038,1.824-.076.8-.038,1.444,0,2.166-.038a18.953,18.953,0,0,0,2.546,0,2.762,2.762,0,0,0,.95.152c.38,0,.76-.038,1.216-.076h.076c.19,0,.3-.266.3-.532v-.114C472.454-1.444,472.378-1.672,472.188-1.672ZM489.82-16.53c-.3-.608-.3-.836-.722-1.026a3.081,3.081,0,0,0-1.064-.646,3.847,3.847,0,0,0-1.9-.19.566.566,0,0,0-.3.114c-.114.076-.152.152-.57.076a6.29,6.29,0,0,0-1.216.722c-.266.114-.988.76-1.026,1.064a4.432,4.432,0,0,0-.418.608c-.114.19-.228.228-.38.19-.114-.038-.19-.076-.228-.19a3.289,3.289,0,0,1,0-1.1c-.076-.494.152-.874-.038-1.254a.759.759,0,0,0-.646-.494.565.565,0,0,0-.342.076,1.7,1.7,0,0,1-1.292.266,14.585,14.585,0,0,1-1.672.228,3.939,3.939,0,0,1-1.52.114,8.208,8.208,0,0,1-1.368,0c-.532,0-.722.266-.722.57,0,.342.228.722.532.684.456.038.95-.076,1.254-.038.152.038.418-.038.608.076a.857.857,0,0,1,.19.456c.228.76-.038.912.076,1.444a8.722,8.722,0,0,1,.038,2.622.92.92,0,0,0,.114.532.5.5,0,0,1-.114.608c-.038.95,0,1.938-.038,2.774a3.087,3.087,0,0,0,.114.418c.152.228.228.38-.076.836a17.768,17.768,0,0,0,0,2.014c-.038.684-.038,1.52-.076,2.052-.114.722-.19,1.064-.8,1.14-.646.038-1.254-.038-1.52.038-.3,0-.456.266-.456.57,0,.342.19.684.57.608.988,0,1.254,0,2.432.038.532,0,1.1.038,1.634.038.57,0,1.1-.038,1.558-.038.152-.228.38-.19.684-.114a4.26,4.26,0,0,0,.8.152c.57.038,1.026.038,1.482.038a4.843,4.843,0,0,0,1.064-.076h.076c.266,0,.38-.266.38-.57,0-.342-.19-.76-.57-.646a2.084,2.084,0,0,1-.494,0,1.433,1.433,0,0,0-.722,0,.834.834,0,0,1-1.026-.8c.076-.608-.19-1.786-.076-2.622-.038-.342-.418-.8,0-1.368a18.182,18.182,0,0,0,0-2.052,22.794,22.794,0,0,0,0-2.28,5.045,5.045,0,0,1,.3-2.28c.152-.38.038-.912.418-1.1.266-.266.228-.456.38-.684a.991.991,0,0,1,.266-.38c.19-.114.3-.608.912-.8a1.009,1.009,0,0,1,.988-.342c.38-.038.722.19.684.418a1.6,1.6,0,0,1,.038,1.026,1.563,1.563,0,0,0,.494,1.406,1.569,1.569,0,0,0,1.71.608c.456.076.874-.076,1.406-.722a1.747,1.747,0,0,0,.532-1.368v-.228A3.03,3.03,0,0,0,489.82-16.53ZM507.642-4.978c-.532.646-.646,1.026-.874,1.254-.152.646-.912.684-1.178,1.216-.684.608-1.026.38-1.482.8a4.283,4.283,0,0,1-1.9.266,3.8,3.8,0,0,1-1.634-.19,2.726,2.726,0,0,1-1.254-.532A2.2,2.2,0,0,1,498.332-3c-.38-.418-.266-.608-.722-1.1-.342-.38-.266-1.064-.456-1.254-.228-.19-.19-.38-.19-.684a1.863,1.863,0,0,0-.114-.722,2.636,2.636,0,0,1-.152-1.482,1.272,1.272,0,0,0-.038-.874,1.6,1.6,0,0,1,0-.608l.038-.152c.266-.342.456-.608.836-.608h2.7c.722-.19.912.114,1.786,0a5.6,5.6,0,0,1,1.786,0c.646.114,1.33-.076,2.356.038a8.942,8.942,0,0,0,2.2-.114c.3.076.646-.3.646-.76a.646.646,0,0,0-.038-.266,2.93,2.93,0,0,0-.608-2.09,1.306,1.306,0,0,1-.3-.532,1.539,1.539,0,0,0-.3-.494c-.3-.114-.266-.532-.722-.95a3.964,3.964,0,0,0-1.33-1.216,8.723,8.723,0,0,0-1.52-.874,2.886,2.886,0,0,0-1.672-.532c-.494.114-1.254-.228-1.634-.228-.076,0-.114.038-.152.038-.684.228-1.064-.076-1.9.19a4.174,4.174,0,0,0-1.748.532c-.418.3-1.292.456-1.6.874-.342.38-1.14.494-1.406,1.1-.266.57-.836.684-1.1,1.368-.266.646-.722.8-.874,1.6a.687.687,0,0,1-.114.722.794.794,0,0,0-.3.494,19.276,19.276,0,0,0-.342,2.128.741.741,0,0,0,.038.3,2.008,2.008,0,0,0-.038.456c0,.532.19.836.228,1.482a2.569,2.569,0,0,0,.532,1.786c.228.8.646.836.836,1.52a3.071,3.071,0,0,0,1.14,1.33.956.956,0,0,0,.456.266c.266.076.456.114.532.608A9.756,9.756,0,0,0,497.04-.684a5.442,5.442,0,0,0,1.748.494,2.229,2.229,0,0,0,.874.152h.722a1.052,1.052,0,0,1,.342.038,7.024,7.024,0,0,1,.912-.038h.38A3.783,3.783,0,0,0,503.386-.3a4.529,4.529,0,0,0,2.09-.874l.76-.494c.114-.342.57-.57.95-.988.228-.3.532-.646.76-.988.152-.342.494-.456.608-.912.114-.3-.266-.646-.57-.646A.318.318,0,0,0,507.642-4.978Zm-10.45-8.93c.114-.456.076-1.1.456-1.482a8.179,8.179,0,0,1,1.216-1.52,3.049,3.049,0,0,1,1.938-.57,2.788,2.788,0,0,1,1.862.608c.494.3.608.95.988,1.52.418.532.114,1.14.418,1.558a8.467,8.467,0,0,1,.076,1.672c.038.57-.114.76-.912.722-1.064-.038-1.938.038-2.774,0-.608.038-1.9,0-2.622,0-.8,0-1.1-.3-.988-1.178a.96.96,0,0,0,.114-.684A.84.84,0,0,1,497.192-13.908Zm23.1,12.16a6.11,6.11,0,0,1-1.178-.038c-.494.228-.988-.228-.874-1.254a19.72,19.72,0,0,0-.076-2.508c-.38-.722.076-1.1,0-1.748a13.47,13.47,0,0,1,0-2.774c.114-.836-.228-1.938,0-2.736a16.438,16.438,0,0,1,0-2.736,9.406,9.406,0,0,1,0-2.736,21.918,21.918,0,0,1,0-2.736c.076-1.1-.418-1.482,0-2.09l.038-3.42c-.038-1.026.19-1.292.228-2.318a.74.74,0,0,0-.722-.8.549.549,0,0,0-.266.076c-.684.152-.988.494-1.748.646-.342.038-.722.418-1.292.3a3.552,3.552,0,0,0-1.558.152,11.018,11.018,0,0,0-1.9.076.614.614,0,0,0-.532.608.678.678,0,0,0,.608.646l1.482.114a.507.507,0,0,1,.38.152c.228.266.152.8.19,1.482,0,1.444.3,2.242,0,3.344-.228.874.38,1.254.19,2.014-.228.95.19,1.824-.114,2.812a2.219,2.219,0,0,0,0,.874,1.838,1.838,0,0,1-.076,1.406c0,.8.076,2.622,0,3.382a1.418,1.418,0,0,0,.076.456c.152.266.38.418-.076,1.178a8.951,8.951,0,0,1,0,2.47c.228.95-.228,1.6-.038,2.546a25.141,25.141,0,0,1-.152,2.736c0,.228-.228.342-.684.456-.532,0-.8.038-1.254,0-.456,0-.646.266-.646.532,0,.3.228.646.456.646h.646c.456,0,.912,0,1.71-.038h.228a2.481,2.481,0,0,0,.646-.114c.228-.076.38-.114.532.152.684-.038,1.254-.038,1.786-.038h3.952a.539.539,0,0,0,.532-.608A.545.545,0,0,0,520.3-1.748Zm20.33-16.188a1.552,1.552,0,0,0-.608-.152c-.266,0-.418.152-.57.038-.266,0-.912,0-1.33-.038-.266.266-.912.076-1.33.038h-.19a3.938,3.938,0,0,1-1.33-.038c-.076,0-.114-.038-.152-.038-.342,0-.494.342-.494.646,0,.342.152.722.494.76a6.044,6.044,0,0,0,1.178,0,.752.752,0,0,1,.76.57c.076.3-.418,1.14-.494,1.71a9.6,9.6,0,0,1-.684,1.672c-.3.874-.494,1.064-.8,1.862-.418.646-.418,1.368-.8,1.938A7.673,7.673,0,0,1,533.254-6.8c-.152.456-.342.608-.532.608-.266,0-.494-.342-.608-.684a1.133,1.133,0,0,0-.266-.608.51.51,0,0,1-.152-.57,1.431,1.431,0,0,0-.266-.684,1.073,1.073,0,0,1-.266-.76,7.934,7.934,0,0,1-.494-1.444c-.114-.456-.684-.608-.532-1.482.038-.228-.152-.38-.3-.608a1.1,1.1,0,0,1-.19-.836c.038-.418-.342-.646-.494-1.292,0-.342-.19-.722-.19-1.064,0-.228.114-.38.456-.494a4.865,4.865,0,0,1,1.292,0,.526.526,0,0,0,.532-.57.646.646,0,0,0-.418-.646,10.467,10.467,0,0,0-2.2,0c-.874.114-1.558-.152-2.546,0a19.459,19.459,0,0,1-2.584,0c-.532.038-1.064-.114-1.558-.114a1.122,1.122,0,0,0-.494.076.645.645,0,0,0-.342.608.559.559,0,0,0,.608.608,3.921,3.921,0,0,1,1.368.114c.3.038.418.076.532.38.19.8.912,1.33.8,1.824-.114.228.342.608.456,1.178,0,.57.38.57.456,1.178a3.319,3.319,0,0,0,.608,1.6c.152.76.608.912.57,1.634a4,4,0,0,1,.608,1.6c.38.646.228,1.026.608,1.634a6.537,6.537,0,0,1,.608,1.634c.114.532.494.95.608,1.634a3.376,3.376,0,0,1,.608,1.6c-.076.38.38.76.38,1.444.114.532-.19.646-.152,1.1a1.733,1.733,0,0,1-.19.532,3.71,3.71,0,0,0-.3.874,18.632,18.632,0,0,0-.8,1.938,7.775,7.775,0,0,0-.988,1.748,1.277,1.277,0,0,1-1.1.532,1.087,1.087,0,0,1-.988-.912c-.152-.608-.988-.95-1.634-.988a1.936,1.936,0,0,0-1.558.646c-.456.266-.152,1.1-.38,1.52-.152.874.152,1.178.8,1.786.456.608,1.064.456,1.9.684h.228A4.848,4.848,0,0,0,526.3,9.69a2.336,2.336,0,0,0,1.368-1.1,4.142,4.142,0,0,0,1.026-1.52,11.611,11.611,0,0,0,.836-1.9.926.926,0,0,1,.3-.646.4.4,0,0,0,.152-.3c.038-.418.494-1.026.494-1.216a.974.974,0,0,1,.3-.8,1.121,1.121,0,0,0,.19-.57A.773.773,0,0,1,531.24.95a1.336,1.336,0,0,0,.266-.342,2.129,2.129,0,0,0,.266-.57c.076-.19.076-.3.228-.646,0-.456.57-.646.532-1.216a.768.768,0,0,1,.19-.76,1.367,1.367,0,0,0,.3-.456,1.217,1.217,0,0,1,.532-1.216,9.1,9.1,0,0,1,.494-1.216c.38-.456.076-.76.532-1.216.266-.57.228-.608.494-1.216a3.158,3.158,0,0,1,.494-1.216,3.434,3.434,0,0,0,.19-.608,1.112,1.112,0,0,1,.342-.608c.228-.114.19-.3.228-.57a.852.852,0,0,1,.266-.646c.266-.19.266-.38.3-.646a2.474,2.474,0,0,1,.19-.57c0-.342.228-.608.532-1.178.152-.152.038-.874.456-1.1,0-.3.19-.494.532-1.064a1.422,1.422,0,0,0,.266-.456c.076-.152.152-.266.608-.19a3.274,3.274,0,0,0,1.1.038c.228-.038.342-.3.342-.57C540.93-17.594,540.816-17.9,540.626-17.936ZM15.352,21.736v-.38a.689.689,0,0,0-.114-.494.682.682,0,0,1-.228-.38.452.452,0,0,0-.152-.418c-.266-.152-.19-.418-.38-.494-.494-.228-.456-.456-.8-.684a3.41,3.41,0,0,0-1.254-.532,3.521,3.521,0,0,0-1.216-.19h-.342a2.739,2.739,0,0,0-1.33.19,1.747,1.747,0,0,1-.494.152,1.121,1.121,0,0,0-.646.19,2.258,2.258,0,0,0-1.026.646c-.19.342-.836.456-.95.874-.114.38-.57.532-.76.988a4.028,4.028,0,0,0-.608,1.14.6.6,0,0,0-.19.456,1.816,1.816,0,0,1-.3.76.535.535,0,0,0-.228.456,1.37,1.37,0,0,1-.076.76c-.342.57.038,1.33-.266,1.672a11.03,11.03,0,0,0-.228,2.318c-.038.722-.228.912-.684.8a9.317,9.317,0,0,1-1.406-.038c-.342-.076-.532.3-.532.646,0,.38.19.722.608.684a6.325,6.325,0,0,0,1.444-.038c.3,0,.57.228.608.912,0,.8,0,1.938.076,2.66.038.266.19.456.19.684a.727.727,0,0,1-.19.456c-.076.646.038,2.242,0,2.66a10.575,10.575,0,0,0,0,1.9,15.673,15.673,0,0,0,0,1.9c.114.418-.152.836.038,1.254.266.57-.114.836-.038,1.14a5.96,5.96,0,0,1,0,.836c0,.228-.114.342-.456.456-.228,0-.456.076-.8.076a1.779,1.779,0,0,1-.836-.038c-.532.038-.684.266-.684.532a.95.95,0,0,0,.152.494.663.663,0,0,0,.57.3,11.084,11.084,0,0,1,1.254-.076.549.549,0,0,0,.266-.076c.114-.038.228-.076.532.076a1.172,1.172,0,0,0,.342.038c.228,0,.418-.038.494-.038H6.726c.494,0,.912-.038,1.33-.076a3.338,3.338,0,0,1,1.064.038,12.468,12.468,0,0,1,1.292-.076c.456,0,.684.114,1.026.114h.114c.19,0,.3-.266.3-.532,0-.3-.152-.646-.38-.608a2.18,2.18,0,0,0-.684-.038c-.532.114-.646-.114-1.178-.076-.418.038-.494-.228-.608-.608a26.531,26.531,0,0,1-.076-2.7.464.464,0,0,1-.152-.342c0-.3.19-.57.152-.684a1.553,1.553,0,0,1-.076-.988.912.912,0,0,0,0-.456c-.152-.646.076-.8,0-1.216-.19-.266-.076-.418,0-.646a1.267,1.267,0,0,0,0-.38c-.152-.532.038-.76,0-1.482A7.343,7.343,0,0,1,8.93,34.39a8.79,8.79,0,0,1-.076-2.7c-.152-.57.152-.836.8-.874h1.14c.494.038,1.064,0,1.786,0,.266,0,.418-.342.418-.646,0-.418-.19-.8-.608-.684-.57,0-.95.038-1.482.076a.521.521,0,0,1-.57.038,2.059,2.059,0,0,0-.57-.076c-.532.076-.836-.19-.836-.76-.076-.874,0-1.9,0-3.154-.266-.57,0-1.216-.038-1.748a11.652,11.652,0,0,1,.19-2.242,2.767,2.767,0,0,1,.684-1.938c.342-.228.988-.874,1.52-.646.684.076.988.532.95.95.076.38-.342.76-.342,1.026-.038.266-.418.76-.418,1.254.038.456-.076,1.026.456,1.254.19.57.836.57,1.558.57a1.574,1.574,0,0,0,1.52-.8A2.766,2.766,0,0,0,15.352,21.736Zm14.82,9.234c-.3-.608-.3-.836-.722-1.026a3.081,3.081,0,0,0-1.064-.646,3.847,3.847,0,0,0-1.9-.19.566.566,0,0,0-.3.114c-.114.076-.152.152-.57.076a6.291,6.291,0,0,0-1.216.722c-.266.114-.988.76-1.026,1.064a4.43,4.43,0,0,0-.418.608c-.114.19-.228.228-.38.19-.114-.038-.19-.076-.228-.19a3.289,3.289,0,0,1,0-1.1c-.076-.494.152-.874-.038-1.254a.759.759,0,0,0-.646-.494.565.565,0,0,0-.342.076,1.7,1.7,0,0,1-1.292.266,14.586,14.586,0,0,1-1.672.228,3.939,3.939,0,0,1-1.52.114,8.208,8.208,0,0,1-1.368,0c-.532,0-.722.266-.722.57,0,.342.228.722.532.684.456.038.95-.076,1.254-.038.152.038.418-.038.608.076a.857.857,0,0,1,.19.456c.228.76-.038.912.076,1.444a8.722,8.722,0,0,1,.038,2.622.92.92,0,0,0,.114.532.5.5,0,0,1-.114.608c-.038.95,0,1.938-.038,2.774a3.083,3.083,0,0,0,.114.418c.152.228.228.38-.076.836a17.773,17.773,0,0,0,0,2.014c-.038.684-.038,1.52-.076,2.052-.114.722-.19,1.064-.8,1.14-.646.038-1.254-.038-1.52.038-.3,0-.456.266-.456.57,0,.342.19.684.57.608.988,0,1.254,0,2.432.038.532,0,1.1.038,1.634.038.57,0,1.1-.038,1.558-.038.152-.228.38-.19.684-.114a4.26,4.26,0,0,0,.8.152c.57.038,1.026.038,1.482.038a4.843,4.843,0,0,0,1.064-.076h.076c.266,0,.38-.266.38-.57,0-.342-.19-.76-.57-.646a2.084,2.084,0,0,1-.494,0,1.433,1.433,0,0,0-.722,0,.834.834,0,0,1-1.026-.8c.076-.608-.19-1.786-.076-2.622-.038-.342-.418-.8,0-1.368a18.194,18.194,0,0,0,0-2.052c-.114-.836.19-1.368,0-2.28a5.045,5.045,0,0,1,.3-2.28c.152-.38.038-.912.418-1.1.266-.266.228-.456.38-.684a.991.991,0,0,1,.266-.38c.19-.114.3-.608.912-.8a1.009,1.009,0,0,1,.988-.342c.38-.038.722.19.684.418a1.6,1.6,0,0,1,.038,1.026,1.919,1.919,0,0,0,2.2,2.014c.456.076.874-.076,1.406-.722a1.747,1.747,0,0,0,.532-1.368v-.228A3.03,3.03,0,0,0,30.172,30.97Zm20.406,7.3a6.737,6.737,0,0,1-.152-1.976c-.114-.38-.152-1.482-.532-1.786a9.34,9.34,0,0,1-.836-1.6c-.228-.418-.912-.8-1.1-1.33-.456-.114-.836-.95-1.368-1.064-.646-.3-.912-.494-1.6-.8-.684-.076-1.292-.494-1.786-.494-.532.114-.912-.19-1.6-.19a1.426,1.426,0,0,0-.38.038h-.494a5.051,5.051,0,0,0-1.444.152,4.912,4.912,0,0,0-1.824.532c-.722.418-1.178.3-1.6.8-.646.19-.874.76-1.406,1.1-.646.266-.722,1.026-1.14,1.33-.38.494-.608,1.292-.988,1.824a.67.67,0,0,0-.152.608,1.758,1.758,0,0,1-.266.95,1.3,1.3,0,0,0-.152.874,2.2,2.2,0,0,1-.038,1.1,2.615,2.615,0,0,0-.076.494,7.619,7.619,0,0,0,.266,1.444c0,.494.532,1.368.532,1.748a7.33,7.33,0,0,0,.988,1.748c.494.19.532.342.57.494a.713.713,0,0,0,.38.684c.494.342.76.8,1.444,1.026a1.619,1.619,0,0,1,.57.342,1.612,1.612,0,0,0,1.026.456c.684.114,1.178.608,1.786.494a8.69,8.69,0,0,0,1.52.228,1.425,1.425,0,0,0,.418-.038h.228c.342,0,.608.038.836.038h.076a1.4,1.4,0,0,0,.836-.228,9.221,9.221,0,0,0,1.786-.494c.608-.076,1.064-.57,1.634-.76a3.614,3.614,0,0,0,1.368-1.1c.418-.152.532-.95,1.14-1.33.152-.38.608-1.14.988-1.976a1.6,1.6,0,0,0,.076-.684.609.609,0,0,1,.3-.684A13.065,13.065,0,0,0,50.578,38.266Zm-5.472,1.6c-.114.532.152,1.368-.152,1.634-.152.646-.076,1.254-.3,1.6-.418.456-.266.8-.57,1.52A2.543,2.543,0,0,1,42.9,45.98a3.256,3.256,0,0,1-1.71.532,2.678,2.678,0,0,1-1.254-.266,3.751,3.751,0,0,1-1.254-1.1l-.418-.57c-.342-.342-.3-.912-.494-1.216-.3-.342-.228-.912-.342-1.33,0-.418-.266-.684-.152-1.368.152-.874-.342-1.786-.114-2.394a3.633,3.633,0,0,1,.114-2.432c-.076-.684.3-.8.152-1.368a4.057,4.057,0,0,1,.3-1.368c0-.646.532-.722.494-1.216-.038-.38.152-.456.38-.608a1.711,1.711,0,0,0,.342-.38.768.768,0,0,1,.57-.456,2.432,2.432,0,0,0,.418-.228,4.948,4.948,0,0,1,1.254-.228,2.684,2.684,0,0,1,1.786.608c.532.57,1.064.874,1.1,1.292.228.608.532.76.57,1.52a10.775,10.775,0,0,0,.3,1.6c.3.266.3.494.228.684a1.625,1.625,0,0,0-.19.684c.076.836.38,1.482.152,1.9C45.03,38.57,45.3,39.368,45.106,39.862Zm20.786.114c-.228.456.19.988,0,1.824-.152.8-.038,2.356-.114,2.812-.114.76-.3,1.178-.722,1.026-.608.152-1.1-.038-1.444.266a.824.824,0,0,0-.19.532c0,.266.076.494.38.494.38,0,.76.038,1.216.038a6.442,6.442,0,0,0,.836-.038h.266c.608,0,1.482-.076,2.356-.076.57-.038.988.076,1.52.076a3.564,3.564,0,0,0,.836-.076,9.72,9.72,0,0,0,1.368.076h.57c.342,0,.418-.95.038-1.064-.456-.114-.684-.076-1.14-.152-.3-.038-.76,0-.874-.874.152-.684-.228-1.9-.038-2.318V39.976a10.5,10.5,0,0,1,0-2.888,6.724,6.724,0,0,1,0-2.888,1.393,1.393,0,0,1,.418-1.254,5.038,5.038,0,0,1,1.292-.988c.57-.3.76-.684,1.254-.57.684-.038.722-.266,1.6-.152.836.114.912.19,1.292.57a2.329,2.329,0,0,1,.76,1.482c.038.532.152.912.19,1.482-.114.684.038,2.014,0,2.736a.71.71,0,0,1,.114.76,3.2,3.2,0,0,0-.114.684c.038.532-.228,1.064.038,1.406a.6.6,0,0,1,.114.684,1.72,1.72,0,0,0-.152.95.581.581,0,0,1,.038.494.579.579,0,0,0,0,.608.667.667,0,0,1,.038.532.52.52,0,0,0-.114.494.854.854,0,0,1,.038.608,2.88,2.88,0,0,0-.114.608c0,.342-.342.38-.456.418a2.645,2.645,0,0,1-1.216.076c-.494-.038-.684.228-.684.494a.587.587,0,0,0,.494.608h3.8a6.168,6.168,0,0,0,.8-.038,8.747,8.747,0,0,0,1.33.076h1.216a5.884,5.884,0,0,1,.836-.038h1.064c.3,0,.456-.266.456-.57s-.228-.684-.57-.608a5.213,5.213,0,0,1-1.1,0c-.3-.038-.494,0-.608-.19a1.275,1.275,0,0,1-.152-.532c-.038-.076,0-.19,0-.342a3.1,3.1,0,0,0-.038-.532.516.516,0,0,1-.038-.684.477.477,0,0,0,.038-.342c-.076-.836,0-1.976-.038-2.242-.228-.456.038-1.064.038-1.938a.8.8,0,0,1,0-1.064c.038-.532.228-1.14.038-1.406-.228-.266-.114-.418-.038-.646a.653.653,0,0,0,.076-.494c-.038-.532-.038-1.14-.114-1.634-.266-.722-.076-1.33-.418-1.6-.608-.494-.418-.874-.874-1.292-.494-.456-.8-.684-1.14-1.026a7.143,7.143,0,0,0-1.748-.608c-.3.19-.456.152-.608.038a1.02,1.02,0,0,0-.456-.228c-.608-.152-.988.266-1.634.152-.646-.076-.76.456-1.558.456-.684.19-.76.684-1.482.836-.532.532-.95.8-1.33,1.14-.19.152-.38.456-.76.418-.228,0-.3-.038-.38-.114-.114-.076-.152-.19-.38-.418a4.745,4.745,0,0,0-.342-.456c-.114-.152-.266-.266-.418-.494a1.382,1.382,0,0,0-.608-.456.924.924,0,0,1-.342-.266c-.19-.266-.57-.076-1.178-.494a1.189,1.189,0,0,0-.95-.19,1.008,1.008,0,0,1-.646-.076,1.249,1.249,0,0,0-.95.076,3.533,3.533,0,0,1-.684.228c-.418-.076-.95.418-1.216.456-.532.228-.874.76-1.33.874a9.149,9.149,0,0,0-1.254,1.14c-.076.038-.114.076-.152.076-.114,0-.152-.114-.19-.3-.038-.266-.038-.646-.076-1.064a2.811,2.811,0,0,0,.076-1.216.961.961,0,0,0-.874-.494h-.114a9.385,9.385,0,0,0-1.33.38c-.418.19-1.178.076-1.672.228-.684-.038-1.14.076-1.71.076-.494.152-.836-.152-1.6.114-.38.152-.3,1.216.342,1.178a2.88,2.88,0,0,1,1.178.038,1.114,1.114,0,0,1,.722,1.33c.076.874-.114,1.406,0,2.2a15.833,15.833,0,0,1,0,1.9c-.114.76.152,1.064,0,1.9a3.237,3.237,0,0,1,0,1.9c.228.57-.228,1.292,0,1.9a11.225,11.225,0,0,1-.076,3,.746.746,0,0,1-.912.76c-.38.114-.988-.076-1.406.038a.65.65,0,0,0-.456.608.549.549,0,0,0,.608.57h2.242c.912,0,1.9-.076,2.926-.038h.076a2.481,2.481,0,0,0,.646-.114c.228-.076.418-.114.57.114.684.038,1.634.076,2.432.076.646,0,.646-.038.722-.608.038-.342-.076-.646-.57-.646-.8.038-1.254.114-1.444-.228-.38-.342-.228-1.1-.342-1.71a4.121,4.121,0,0,1,0-1.71c.038-.722,0-1.1,0-1.71-.152-1.064.228-1.786,0-2.7.19-.912-.19-1.938,0-2.66-.152-.494.342-.988.57-1.6.228-.418.57-1.178,1.064-1.406a5.451,5.451,0,0,1,1.064-.836c.38.038.988-.266,1.52-.19a1.955,1.955,0,0,1,1.672.95,8.357,8.357,0,0,1,.494,2.28,12.067,12.067,0,0,1,0,2.888C65.74,38,66.12,39.064,65.892,39.976Zm46.7,4.522c-.3.076-.418.342-.57.418a.505.505,0,0,1-.266.114.589.589,0,0,0-.38.266c-.076.114-.38.19-.456.266-.342.266-.532.19-1.1.228a1.4,1.4,0,0,1-1.292-.418c-.152-.152-.532-.418-.532-.722a2.428,2.428,0,0,0-.228-.836,3.056,3.056,0,0,1-.114-1.254c.152-.8-.114-1.824.038-2.2-.038-.8,0-1.634,0-2.356-.266-.95.114-1.292-.038-1.976-.152-.38.152-1.786.076-2.242a12.65,12.65,0,0,1,.038-2.394c0-.228.114-.57.836-.608.38.038.532,0,1.254,0,.3,0,.38.152.836-.076.152-.076.342.114.684.076.342,0,.494-.3.494-.608,0-.342-.19-.646-.456-.532a3.132,3.132,0,0,1-.912-.076,1.066,1.066,0,0,0-.532.038.312.312,0,0,1-.266.038c-.494-.152-.57,0-.988-.038-.342-.038-.57,0-.722-.19a.608.608,0,0,1-.152-.418c-.076-.57.076-.8-.076-1.178-.076-.152,0-.266.038-.38a.375.375,0,0,0-.076-.38c-.152-.342.114-.684.076-1.026a5.869,5.869,0,0,1,.114-1.482c.076-.418-.038-.836,0-1.178.038-.266-.228-.38-.456-.38-.19,0-.418.076-.418.3a9.444,9.444,0,0,1-.3,1.292,1.635,1.635,0,0,1-.19.646,2.2,2.2,0,0,0-.266.532c-.3.342-.19.608-.532.874a4.107,4.107,0,0,1-.684.8c-.3.494-.57.532-.874.912-.19.19-.608.266-.988.646-.228.266-.836.19-1.064.418a.638.638,0,0,1-.494.152,3.929,3.929,0,0,0-.456.114c-.608.076-.646.266-.646.494v.152c0,.532.38.532.684.494a3.969,3.969,0,0,1,.95,0c.418.038.608.228.494.836,0,.8-.076,2.166-.038,3.192a8.554,8.554,0,0,1-.038,1.976,1.12,1.12,0,0,0,.038.532c.076.266.228.418.038.836-.19.342.114.684-.038,1.1-.114.57.076.8-.114,1.33a.321.321,0,0,0,0,.266.853.853,0,0,1,.038.646,1.553,1.553,0,0,0,.038.874.42.42,0,0,0,0,.3c0,.152.114.266,0,.494.114.456-.038.912.342,1.368s.342,1.064.874,1.33a1.548,1.548,0,0,0,.418.228c.228.076.38.114.532.532a4.545,4.545,0,0,0,1.52.608,11.269,11.269,0,0,0,1.444.266c.114,0,.228-.038.3-.038.722-.114,1.026-.076,1.482-.152a5.79,5.79,0,0,0,1.368-.456,4.023,4.023,0,0,0,1.254-.722,5.559,5.559,0,0,0,.494-.342c.266-.19.608-.266.646-.608a1.2,1.2,0,0,0-.228-.57A.415.415,0,0,0,112.594,44.5Zm22.99,1.444c-.3-.228-.418-.152-.76-.228-.152-.038-.494.076-.646.038a.9.9,0,0,1-.684-.608,2.228,2.228,0,0,1-.152-1.178,7.059,7.059,0,0,0,0-1.558A19.146,19.146,0,0,0,133.3,39.9c-.266-.342-.152-.494-.038-.76a1.981,1.981,0,0,0,.076-.532c.152-.722-.19-1.938,0-2.66.038-.722-.152-1.254-.076-1.938-.3-.38-.038-1.14-.418-1.862a6.047,6.047,0,0,0-1.1-1.444.652.652,0,0,1-.608-.418.914.914,0,0,0-.57-.456c-.608-.266-1.1-.57-1.482-.684a5,5,0,0,0-1.672-.152,2.647,2.647,0,0,1-.836.114,1.343,1.343,0,0,0-.76.076,6.751,6.751,0,0,0-1.748.836,16.788,16.788,0,0,0-1.634,1.178c-.532.3-.874.152-.722-.912l-.038-2.052c-.342-.494.114-1.026-.114-1.52a.6.6,0,0,1,.038-.684c.076-.152.152-.3.038-.456a1.219,1.219,0,0,1-.038-1.026,1.124,1.124,0,0,0,.076-.646,2.231,2.231,0,0,1-.038-1.216c0-.57.114-.874.076-1.634a14.566,14.566,0,0,1,.19-2.28c.152-.342-.266-.836-.684-.836a.464.464,0,0,0-.342.152,1.223,1.223,0,0,1-.836.3.812.812,0,0,0-.494.19c-.684.076-.8.38-1.482.38-.8-.152-1.444.342-1.938.228-.608-.038-.988.076-1.444.038a.55.55,0,0,0-.57.608.5.5,0,0,0,.532.532c.38.038.684-.038,1.292-.038.494.038.76.3.722.722a5.7,5.7,0,0,0,.038,1.406c.038.228.228.646,0,.836v1.6a1.68,1.68,0,0,1,.076.57,1.678,1.678,0,0,0-.076.646.407.407,0,0,1,.038.456.811.811,0,0,0-.038.456,3.943,3.943,0,0,0,.152.38c.114.19.19.342-.076.722a5.5,5.5,0,0,0-.076,1.6c.266.646-.228,1.064,0,1.6.228.8-.076.912,0,1.634.228.646-.152,1.292,0,1.6.342.532-.114,1.254,0,1.6.38.532-.266,1.026,0,1.634.228.532-.076,1.1,0,1.6.228.8-.076,1.33,0,1.6a7.467,7.467,0,0,1,0,1.6c0,.874,0,1.976-.038,2.7-.038.266-.152.342-.3.38-.114.038-.266.038-.342.114a1.89,1.89,0,0,0-.8.038.621.621,0,0,1-.266,0,.609.609,0,0,0-.456,0,.479.479,0,0,0-.494.494v.19c0,.342.114.532.456.532h.532a1.566,1.566,0,0,0,.456-.038,5.779,5.779,0,0,1,1.064-.076.813.813,0,0,1,.532,0,.549.549,0,0,0,.266.076c.038,0,.076-.038.152-.038a13.024,13.024,0,0,1,1.52-.114,16.614,16.614,0,0,0,1.748.114h.57c.152,0,.418.038.646.038h.152a1.7,1.7,0,0,1,.418-.038c.228,0,.456.038.8.038.38,0,.532-.114.57-.494s0-.532-.342-.722c-.114-.114-.266,0-.494-.038-.266,0-.76.114-.988,0-.19-.114-.3-.19-.342-.38-.038-.228.038-.646.038-1.33a.745.745,0,0,1-.076-.95c0-.456-.038-.836-.038-1.216-.38-.456.114-1.14-.038-1.368a.767.767,0,0,1-.076-.684.45.45,0,0,0,.038-.3.5.5,0,0,1-.038-.456.625.625,0,0,0,.038-.38c-.114-.532.152-.912.038-1.52a2.5,2.5,0,0,1,0-1.064c.19-.76-.076-1.444.076-2.09a4.835,4.835,0,0,1,.266-.8c.38-.456.456-.722.988-1.026a9.632,9.632,0,0,1,1.368-.76,6.507,6.507,0,0,1,1.71-.3,2.4,2.4,0,0,1,1.938.874,4.114,4.114,0,0,1,.38,2.28,23.772,23.772,0,0,0,0,2.85c-.076.95.038,2.166,0,2.888a9.739,9.739,0,0,0,0,1.824c.076.646-.152,1.482,0,1.786a3.275,3.275,0,0,0,0,.874c.038.456.114.646-.228.988-.114.114-.38.494-.76.342-.3-.114-.494,0-.76-.038a.5.5,0,0,0-.57.494c0,.418.038.684.456.684h.114a9.873,9.873,0,0,1,1.064,0h.8a.837.837,0,0,1,.3.038c.684-.038,1.368-.038,2.09-.076.836,0,1.33.038,1.786.038h.342a5.752,5.752,0,0,1,1.1.038h.95a.647.647,0,0,0,.266-.038c.418-.038.532-.228.532-.456A.869.869,0,0,0,135.584,45.942Zm17.518-3.42c-.532.646-.646,1.026-.874,1.254-.152.646-.912.684-1.178,1.216-.684.608-1.026.38-1.482.8a4.283,4.283,0,0,1-1.9.266,3.8,3.8,0,0,1-1.634-.19,2.726,2.726,0,0,1-1.254-.532,2.2,2.2,0,0,1-.988-.836c-.38-.418-.266-.608-.722-1.1-.342-.38-.266-1.064-.456-1.254-.228-.19-.19-.38-.19-.684a1.863,1.863,0,0,0-.114-.722,2.636,2.636,0,0,1-.152-1.482,1.272,1.272,0,0,0-.038-.874,1.6,1.6,0,0,1,0-.608l.038-.152c.266-.342.456-.608.836-.608h2.7c.722-.19.912.114,1.786,0a5.6,5.6,0,0,1,1.786,0c.646.114,1.33-.076,2.356.038a8.942,8.942,0,0,0,2.2-.114c.3.076.646-.3.646-.76a.647.647,0,0,0-.038-.266,2.931,2.931,0,0,0-.608-2.09,1.307,1.307,0,0,1-.3-.532,1.54,1.54,0,0,0-.3-.494c-.3-.114-.266-.532-.722-.95a3.964,3.964,0,0,0-1.33-1.216,8.722,8.722,0,0,0-1.52-.874,2.886,2.886,0,0,0-1.672-.532c-.494.114-1.254-.228-1.634-.228-.076,0-.114.038-.152.038-.684.228-1.064-.076-1.9.19a4.174,4.174,0,0,0-1.748.532c-.418.3-1.292.456-1.6.874-.342.38-1.14.494-1.406,1.1-.266.57-.836.684-1.1,1.368-.266.646-.722.8-.874,1.6a.687.687,0,0,1-.114.722.794.794,0,0,0-.3.494,19.284,19.284,0,0,0-.342,2.128.741.741,0,0,0,.038.3,2.008,2.008,0,0,0-.038.456c0,.532.19.836.228,1.482a2.569,2.569,0,0,0,.532,1.786c.228.8.646.836.836,1.52a3.071,3.071,0,0,0,1.14,1.33.956.956,0,0,0,.456.266c.266.076.456.114.532.608a9.757,9.757,0,0,0,1.976,1.026,5.442,5.442,0,0,0,1.748.494,2.23,2.23,0,0,0,.874.152h.722a1.052,1.052,0,0,1,.342.038,7.024,7.024,0,0,1,.912-.038h.38a3.783,3.783,0,0,0,1.368-.266,4.53,4.53,0,0,0,2.09-.874l.76-.494c.114-.342.57-.57.95-.988.228-.3.532-.646.76-.988.152-.342.494-.456.608-.912.114-.3-.266-.646-.57-.646A.318.318,0,0,0,153.1,42.522Zm-10.45-8.93c.114-.456.076-1.1.456-1.482a8.179,8.179,0,0,1,1.216-1.52,3.049,3.049,0,0,1,1.938-.57,2.788,2.788,0,0,1,1.862.608c.494.3.608.95.988,1.52.418.532.114,1.14.418,1.558a8.464,8.464,0,0,1,.076,1.672c.038.57-.114.76-.912.722-1.064-.038-1.938.038-2.774,0-.608.038-1.9,0-2.622,0-.8,0-1.1-.3-.988-1.178a.96.96,0,0,0,.114-.684A.84.84,0,0,1,142.652,33.592Zm56.164-14.44a13.121,13.121,0,0,1-2.2.038,10.842,10.842,0,0,1-2.2.038c-.874-.076-1.444.152-2.318,0-.38-.038-.684-.076-.95-.076-.456,0-.8.038-1.216,0a.609.609,0,0,0-.684.646c0,.342.228.684.532.57a7.874,7.874,0,0,0,1.368.038,9.622,9.622,0,0,1,1.52.038c.874.038.874.456,1.1,1.178.114.684-.152,1.064,0,2.052.228.836-.19,1.406,0,2.166l-.038,2.2a8.523,8.523,0,0,0,0,2.2,7.134,7.134,0,0,0,0,2.2c.114.95-.228,1.71-.038,2.166a7.545,7.545,0,0,1-.038,2.28c.076.532-.152.722-.418.722a.906.906,0,0,1-.684-.418.889.889,0,0,0-.418-.646,1.823,1.823,0,0,1-.8-1.254,9.463,9.463,0,0,0-.76-1.216c-.418-.608-.3-.836-.8-1.254-.076-.456-.722-.988-.8-1.254a3.63,3.63,0,0,1-.76-1.216c-.19-.342-.76-.608-.8-1.254-.114-.684-.684-.76-.76-1.254a1.788,1.788,0,0,1-.8-1.254c-.19-.57-.532-.532-.8-1.216-.38-.3-.342-1.026-.76-1.254-.456-.152-.494-.38-.494-.646a.793.793,0,0,0-.3-.608,2.211,2.211,0,0,1-.76-1.216c-.114-.494-.456-.608-.8-1.216a1.813,1.813,0,0,1-.3-.608.77.77,0,0,0-.38-.494c-.608-.38-1.14,0-2.09-.152-.38.266-.646.3-.912.038a19.169,19.169,0,0,1-2.09,0c-.8.152-1.52-.114-2.052,0-.494-.076-.722,0-1.064-.038-.418,0-.722-.114-.988-.114a.82.82,0,0,0-.8.76.59.59,0,0,0,.608.57c.418.152.874-.038,1.254.038a4.077,4.077,0,0,0,1.254.076.343.343,0,0,1,.19-.038c.38,0,.494.646.57,1.216-.076.646.19,1.824.076,2.622a6.268,6.268,0,0,0,0,2.242c.228.456-.076.95,0,1.482.114.456-.076,1.064,0,1.52a13.554,13.554,0,0,0,0,3.04,2.56,2.56,0,0,1,0,1.52c-.152.494.19,1.064-.038,1.52-.228.418.228.836,0,1.52.114.684-.152,1.178,0,1.52a.7.7,0,0,1,.076.836c-.076.266-.19.494-.076.684,0,.456-.19,1.216,0,1.482a15.823,15.823,0,0,1,0,3c-.038.874-.646.988-1.482,1.1-1.026.152-1.482-.228-1.976-.038a.616.616,0,0,0,.038,1.178h3.154c.836,0,1.748,0,2.356-.038.3-.342.76,0,1.482.038.418.038.988.076,1.482.076h.342c.38-.114.532-.342.532-.532,0-.342-.3-.684-.494-.646a6.076,6.076,0,0,1-1.216-.038,6.636,6.636,0,0,1-1.482-.038c-.76-.076-1.216-.114-1.216-1.178.114-.684-.114-1.216-.038-2.356a7.507,7.507,0,0,1-.076-2.736,22.369,22.369,0,0,0,0-3.192c.228-.684-.076-1.634,0-2.85-.114-1.178.038-1.71,0-2.85.038-.988,0-1.71,0-2.85a9.92,9.92,0,0,0,0-1.52c.19-.8,0-1.786.152-2.128.114-.266.266-.38.418-.38.266,0,.532.3.8.646a10.6,10.6,0,0,0,1.064,1.6,1.5,1.5,0,0,0,.418.342c.228.152.342.266.3.76a8.1,8.1,0,0,0,1.292,2.128c.532.38.684,1.444,1.178,1.862.608.57.532,1.292,1.216,1.862.494.456.684,1.444,1.178,1.862a16.19,16.19,0,0,0,1.178,1.862,1.4,1.4,0,0,0,.57.722,1.1,1.1,0,0,1,.608,1.14,5.632,5.632,0,0,1,1.178,1.862c.608.722.608,1.444,1.178,1.824a10.727,10.727,0,0,0,.684,1.1c.266.494.608.95.912,1.482.038.3.38.494.608,1.178.19.418.342,1.026.836,1.064H193.8a4.142,4.142,0,0,0,.646-.038c.076,0,.114.038.19.038.3,0,.494-.3.418-.988A17.644,17.644,0,0,0,195.016,44c-.19-.19-.152-.342-.076-.57a1.891,1.891,0,0,0,.038-.684c-.38-.532,0-.912,0-1.292a5.528,5.528,0,0,1,0-1.6c-.114-.8.228-.988,0-1.634a12.145,12.145,0,0,1,0-1.672c-.19-.38.228-.8.038-1.634a5.855,5.855,0,0,1,0-1.634c.114-.76-.114-.874,0-1.634a4.618,4.618,0,0,0,.038-1.634,7.593,7.593,0,0,1,0-1.634,1.866,1.866,0,0,0-.114-.57.219.219,0,0,1,.114-.3,9.512,9.512,0,0,0,.038-1.444c-.266-.57.152-.836.076-1.406-.228-.266-.114-.456-.076-.684a1.172,1.172,0,0,0,.038-.532,1.122,1.122,0,0,1,.076-.494,1.02,1.02,0,0,0-.038-.57.617.617,0,0,1,0-.38c.038-.114.076-.152,0-.3-.038-.532.076-.684.228-.8a.829.829,0,0,0,.152-.19c.038-.266.456-.228,1.33-.3a.823.823,0,0,0,.456-.076c.152-.038.266-.076.418.076a5.286,5.286,0,0,0,1.14,0c.3.114.494-.228.494-.57s-.152-.684-.456-.684Zm18.012,24.966c-.114.342-.3.38-.456.76a1.385,1.385,0,0,1-.456.418.9.9,0,0,1-.57.038c-.76-.038-1.026-.684-1.064-1.254a22.69,22.69,0,0,1,0-2.28,1.285,1.285,0,0,1-.038-.836,3.207,3.207,0,0,0,.076-.722c-.038-.532-.38-.722-.076-1.33.152-.266-.152-.57,0-1.1.114-.38-.19-.76,0-1.33.114-.38-.038-.95.038-1.52a16.111,16.111,0,0,0-.228-2.508c-.3-.152-.266-.3-.266-.532a.983.983,0,0,0-.266-.684c-.3-.418-.57-.912-.988-1.064-.684-.228-.836-.722-1.292-.684-.608.038-.8-.418-1.33-.3-.57-.076-1.026-.114-1.368-.19a6.27,6.27,0,0,0-2.2.266,9.236,9.236,0,0,0-2.47.722c-.266.038-.342.152-.38.266-.076.114-.114.228-.494.228-.19,0-.342.3-.836.722a2.469,2.469,0,0,0-.76,2.014,2.157,2.157,0,0,0,.57,1.52,2.218,2.218,0,0,0,1.482.646c.608-.038.988.038,1.292-.57a2.3,2.3,0,0,0,.532-1.33,1.429,1.429,0,0,0-.532-1.216.785.785,0,0,1-.3-.95c-.114-.228.532-.836.988-.912a13.918,13.918,0,0,1,1.6-.266c.874.114,1.786.228,2.014.8.684.608.57,1.368.684,2.052a13.287,13.287,0,0,1,0,1.748,3.392,3.392,0,0,1,0,1.52c.076.266,0,.38-.152.646a.847.847,0,0,1-.836.418c-.722.076-.874.38-1.558.266a7.776,7.776,0,0,0-1.786.342,4.757,4.757,0,0,0-1.938.684c-.76.152-.8.646-1.558.988-.76.266-.95.912-1.444,1.672a4.2,4.2,0,0,0-.494,1.976,2.167,2.167,0,0,0,.038.494.721.721,0,0,0,.152.456c.114.228.3.342.19.8.3.57.494,1.1,1.064,1.292a4.894,4.894,0,0,0,1.52.836,7.231,7.231,0,0,0,1.748.266,7.94,7.94,0,0,0,2.166-.38c.076-.228.266-.266.456-.3a.6.6,0,0,0,.456-.19c.3-.266,1.026-.38,1.216-.912a.745.745,0,0,1,1.216.266,3.893,3.893,0,0,0,.95.874,5.247,5.247,0,0,0,2.242.57,1.11,1.11,0,0,0,.342.076c.456,0,.912-.38,1.14-.3a2.185,2.185,0,0,0,1.178-.608c.38-.38.722-.38.988-.95a4.191,4.191,0,0,0,.722-.95.343.343,0,0,0,.038-.19.578.578,0,0,0-.57-.532A.341.341,0,0,0,216.828,44.118Zm-7.3-.494a6.045,6.045,0,0,1-1.1,1.254,3.825,3.825,0,0,1-1.786.532,2.879,2.879,0,0,1-1.9-.874,1.2,1.2,0,0,1-.494-1.064c0-.342-.3-.608-.19-.988.19-.494.038-.608.152-.912-.114-.456.3-.684.532-1.178a2.5,2.5,0,0,1,1.178-1.064c.456-.456.8-.228,1.368-.608.342-.38.874-.19,1.14-.3.684-.19,1.368-.038,1.254.836a.719.719,0,0,0,.038.57.653.653,0,0,1,0,.646.566.566,0,0,0-.076.532.723.723,0,0,1,.038.646c-.038.418.19.532.038.988C209.608,43.016,209.76,43.32,209.532,43.624ZM234.688,30.97c-.3-.608-.3-.836-.722-1.026A3.081,3.081,0,0,0,232.9,29.3a3.847,3.847,0,0,0-1.9-.19.566.566,0,0,0-.3.114c-.114.076-.152.152-.57.076a6.291,6.291,0,0,0-1.216.722c-.266.114-.988.76-1.026,1.064a4.431,4.431,0,0,0-.418.608c-.114.19-.228.228-.38.19-.114-.038-.19-.076-.228-.19a3.289,3.289,0,0,1,0-1.1c-.076-.494.152-.874-.038-1.254a.759.759,0,0,0-.646-.494.565.565,0,0,0-.342.076,1.7,1.7,0,0,1-1.292.266,14.585,14.585,0,0,1-1.672.228,3.939,3.939,0,0,1-1.52.114,8.208,8.208,0,0,1-1.368,0c-.532,0-.722.266-.722.57,0,.342.228.722.532.684.456.038.95-.076,1.254-.038.152.038.418-.038.608.076a.857.857,0,0,1,.19.456c.228.76-.038.912.076,1.444a8.722,8.722,0,0,1,.038,2.622.92.92,0,0,0,.114.532.5.5,0,0,1-.114.608c-.038.95,0,1.938-.038,2.774a3.081,3.081,0,0,0,.114.418c.152.228.228.38-.076.836a17.772,17.772,0,0,0,0,2.014c-.038.684-.038,1.52-.076,2.052-.114.722-.19,1.064-.8,1.14-.646.038-1.254-.038-1.52.038-.3,0-.456.266-.456.57,0,.342.19.684.57.608.988,0,1.254,0,2.432.038.532,0,1.1.038,1.634.038.57,0,1.1-.038,1.558-.038.152-.228.38-.19.684-.114a4.26,4.26,0,0,0,.8.152c.57.038,1.026.038,1.482.038a4.843,4.843,0,0,0,1.064-.076h.076c.266,0,.38-.266.38-.57,0-.342-.19-.76-.57-.646a2.084,2.084,0,0,1-.494,0,1.433,1.433,0,0,0-.722,0,.834.834,0,0,1-1.026-.8c.076-.608-.19-1.786-.076-2.622-.038-.342-.418-.8,0-1.368a18.2,18.2,0,0,0,0-2.052,22.8,22.8,0,0,0,0-2.28,5.045,5.045,0,0,1,.3-2.28c.152-.38.038-.912.418-1.1.266-.266.228-.456.38-.684a.991.991,0,0,1,.266-.38c.19-.114.3-.608.912-.8a1.009,1.009,0,0,1,.988-.342c.38-.038.722.19.684.418a1.6,1.6,0,0,1,.038,1.026,1.919,1.919,0,0,0,2.2,2.014c.456.076.874-.076,1.406-.722a1.747,1.747,0,0,0,.532-1.368v-.228A3.03,3.03,0,0,0,234.688,30.97Zm21.584,14.668a3.349,3.349,0,0,0-1.216.038c-.456.152-1.254-.912-.988-1.444.038-.874-.038-1.9,0-2.546.228-.912-.114-1.14,0-2.09-.19-.722.228-1.178,0-2.09a12.6,12.6,0,0,1,0-2.09c.418-.95-.266-1.558,0-2.09l.038-1.254c.19-.722-.152-1.33.076-1.786a.989.989,0,0,0-.722-1.52.288.288,0,0,0-.152.076,9.61,9.61,0,0,0-1.482.342c-.57.38-.988-.038-1.71.266a10.75,10.75,0,0,0-1.71.076,10.09,10.09,0,0,0-1.52,0,.739.739,0,0,0-.418.684c0,.228.152.494.608.608a4.172,4.172,0,0,0,1.292.076c.646,0,1.026.3.8.988a14.478,14.478,0,0,1,0,1.824,7.466,7.466,0,0,0,0,1.6c.076.57-.152,1.292,0,1.6-.114.3.228,1.178,0,1.558-.152.532.076.836,0,1.6-.228.684.19,1.33,0,1.558-.076.418.114,1.026,0,1.6a3.176,3.176,0,0,0-.874.874l-.38.342a2,2,0,0,0-.532.38,2.644,2.644,0,0,1-2.28.684c-.76.228-1.14-.342-1.444-.342a2.186,2.186,0,0,1-.76-.912,1.226,1.226,0,0,1-.342-1.254,6.577,6.577,0,0,1-.076-1.482,6.056,6.056,0,0,0,0-2.356c-.114-.912.228-1.406,0-2.318a15.672,15.672,0,0,0,0-1.9,5.262,5.262,0,0,0,.038-1.9,4.29,4.29,0,0,0,.19-1.482c.114-.836.076-1.292.19-2.052a.582.582,0,0,0-.532-.722.343.343,0,0,0-.19.038c-.494.114-1.254.342-1.634.418-.646-.038-1.33.266-1.634.228a8.21,8.21,0,0,0-1.634-.076,2.605,2.605,0,0,0-1.558.152.714.714,0,0,0-.3.646.609.609,0,0,0,.342.608,2.077,2.077,0,0,0,1.216.152c.456-.038.722.456.646,1.52.114.76-.266,2.356-.038,2.926a17.32,17.32,0,0,0-.038,2.432c-.076.8,0,1.824-.038,2.394.19.836-.152,1.178.038,2.052-.152.95.114,1.14.494,1.976a11.675,11.675,0,0,0,.912,1.33c.266.418.874.57,1.254.988a2.926,2.926,0,0,0,1.52.608,5.049,5.049,0,0,1,1.6.228c.76,0,1.254-.266,1.748-.228.684-.076.836-.418,1.52-.608a3.257,3.257,0,0,0,1.672-.95c.494-.456.874-.266.988.19,0,.418-.076.684-.076,1.178,0,.3.266.532.684.646.076,0,.114.038.19.038.456,0,.912-.456,1.368-.342.38-.076,1.1-.152,1.52-.266a13.973,13.973,0,0,1,1.786,0c.57-.076,1.178.152,1.52-.038a.675.675,0,0,0,.57-.646A.763.763,0,0,0,256.272,45.638Zm12.844-1.14c-.3.076-.418.342-.57.418a.505.505,0,0,1-.266.114.589.589,0,0,0-.38.266c-.076.114-.38.19-.456.266-.342.266-.532.19-1.1.228a1.4,1.4,0,0,1-1.292-.418c-.152-.152-.532-.418-.532-.722a2.428,2.428,0,0,0-.228-.836,3.056,3.056,0,0,1-.114-1.254c.152-.8-.114-1.824.038-2.2-.038-.8,0-1.634,0-2.356-.266-.95.114-1.292-.038-1.976-.152-.38.152-1.786.076-2.242a12.649,12.649,0,0,1,.038-2.394c0-.228.114-.57.836-.608.38.038.532,0,1.254,0,.3,0,.38.152.836-.076.152-.076.342.114.684.076.342,0,.494-.3.494-.608,0-.342-.19-.646-.456-.532a3.132,3.132,0,0,1-.912-.076,1.066,1.066,0,0,0-.532.038.312.312,0,0,1-.266.038c-.494-.152-.57,0-.988-.038-.342-.038-.57,0-.722-.19a.608.608,0,0,1-.152-.418c-.076-.57.076-.8-.076-1.178-.076-.152,0-.266.038-.38a.375.375,0,0,0-.076-.38c-.152-.342.114-.684.076-1.026a5.87,5.87,0,0,1,.114-1.482c.076-.418-.038-.836,0-1.178.038-.266-.228-.38-.456-.38-.19,0-.418.076-.418.3a9.44,9.44,0,0,1-.3,1.292,1.635,1.635,0,0,1-.19.646,2.2,2.2,0,0,0-.266.532c-.3.342-.19.608-.532.874a4.106,4.106,0,0,1-.684.8c-.3.494-.57.532-.874.912-.19.19-.608.266-.988.646-.228.266-.836.19-1.064.418a.638.638,0,0,1-.494.152,3.931,3.931,0,0,0-.456.114c-.608.076-.646.266-.646.494v.152c0,.532.38.532.684.494a3.969,3.969,0,0,1,.95,0c.418.038.608.228.494.836,0,.8-.076,2.166-.038,3.192a8.553,8.553,0,0,1-.038,1.976,1.12,1.12,0,0,0,.038.532c.076.266.228.418.038.836-.19.342.114.684-.038,1.1-.114.57.076.8-.114,1.33a.321.321,0,0,0,0,.266.853.853,0,0,1,.038.646,1.553,1.553,0,0,0,.038.874.42.42,0,0,0,0,.3c0,.152.114.266,0,.494.114.456-.038.912.342,1.368s.342,1.064.874,1.33a1.548,1.548,0,0,0,.418.228c.228.076.38.114.532.532a4.545,4.545,0,0,0,1.52.608,11.268,11.268,0,0,0,1.444.266c.114,0,.228-.038.3-.038.722-.114,1.026-.076,1.482-.152a5.79,5.79,0,0,0,1.368-.456,4.023,4.023,0,0,0,1.254-.722,5.559,5.559,0,0,0,.494-.342c.266-.19.608-.266.646-.608a1.2,1.2,0,0,0-.228-.57A.415.415,0,0,0,269.116,44.5ZM289.9,38.266a6.738,6.738,0,0,1-.152-1.976c-.114-.38-.152-1.482-.532-1.786a9.339,9.339,0,0,1-.836-1.6c-.228-.418-.912-.8-1.1-1.33-.456-.114-.836-.95-1.368-1.064-.646-.3-.912-.494-1.6-.8-.684-.076-1.292-.494-1.786-.494-.532.114-.912-.19-1.6-.19a1.426,1.426,0,0,0-.38.038h-.494a5.051,5.051,0,0,0-1.444.152,4.912,4.912,0,0,0-1.824.532c-.722.418-1.178.3-1.6.8-.646.19-.874.76-1.406,1.1-.646.266-.722,1.026-1.14,1.33-.38.494-.608,1.292-.988,1.824a.67.67,0,0,0-.152.608,1.758,1.758,0,0,1-.266.95,1.3,1.3,0,0,0-.152.874,2.2,2.2,0,0,1-.038,1.1,2.615,2.615,0,0,0-.076.494,7.619,7.619,0,0,0,.266,1.444c0,.494.532,1.368.532,1.748a7.33,7.33,0,0,0,.988,1.748c.494.19.532.342.57.494a.713.713,0,0,0,.38.684c.494.342.76.8,1.444,1.026a1.619,1.619,0,0,1,.57.342,1.612,1.612,0,0,0,1.026.456c.684.114,1.178.608,1.786.494a8.69,8.69,0,0,0,1.52.228,1.425,1.425,0,0,0,.418-.038h.228c.342,0,.608.038.836.038h.076a1.4,1.4,0,0,0,.836-.228,9.221,9.221,0,0,0,1.786-.494c.608-.076,1.064-.57,1.634-.76a3.614,3.614,0,0,0,1.368-1.1c.418-.152.532-.95,1.14-1.33.152-.38.608-1.14.988-1.976a1.6,1.6,0,0,0,.076-.684.609.609,0,0,1,.3-.684A13.066,13.066,0,0,0,289.9,38.266Zm-5.472,1.6c-.114.532.152,1.368-.152,1.634-.152.646-.076,1.254-.3,1.6-.418.456-.266.8-.57,1.52a2.543,2.543,0,0,1-1.178,1.368,3.256,3.256,0,0,1-1.71.532,2.678,2.678,0,0,1-1.254-.266,3.751,3.751,0,0,1-1.254-1.1l-.418-.57c-.342-.342-.3-.912-.494-1.216-.3-.342-.228-.912-.342-1.33,0-.418-.266-.684-.152-1.368.152-.874-.342-1.786-.114-2.394a3.633,3.633,0,0,1,.114-2.432c-.076-.684.3-.8.152-1.368a4.057,4.057,0,0,1,.3-1.368c0-.646.532-.722.494-1.216-.038-.38.152-.456.38-.608a1.711,1.711,0,0,0,.342-.38.768.768,0,0,1,.57-.456,2.433,2.433,0,0,0,.418-.228,4.948,4.948,0,0,1,1.254-.228,2.684,2.684,0,0,1,1.786.608c.532.57,1.064.874,1.1,1.292.228.608.532.76.57,1.52a10.772,10.772,0,0,0,.3,1.6c.3.266.3.494.228.684a1.625,1.625,0,0,0-.19.684c.076.836.38,1.482.152,1.9C284.354,38.57,284.62,39.368,284.43,39.862Zm36.594.114c-.228.456.19.988,0,1.824-.152.8-.038,2.356-.114,2.812-.114.76-.3,1.178-.722,1.026-.608.152-1.1-.038-1.444.266a.824.824,0,0,0-.19.532c0,.266.076.494.38.494.38,0,.76.038,1.216.038a6.442,6.442,0,0,0,.836-.038h.266c.608,0,1.482-.076,2.356-.076.57-.038.988.076,1.52.076a3.564,3.564,0,0,0,.836-.076,9.72,9.72,0,0,0,1.368.076h.57c.342,0,.418-.95.038-1.064-.456-.114-.684-.076-1.14-.152-.3-.038-.76,0-.874-.874.152-.684-.228-1.9-.038-2.318V39.976a10.5,10.5,0,0,1,0-2.888,6.724,6.724,0,0,1,0-2.888,1.393,1.393,0,0,1,.418-1.254,5.038,5.038,0,0,1,1.292-.988c.57-.3.76-.684,1.254-.57.684-.038.722-.266,1.6-.152.836.114.912.19,1.292.57a2.329,2.329,0,0,1,.76,1.482c.038.532.152.912.19,1.482-.114.684.038,2.014,0,2.736a.71.71,0,0,1,.114.76,3.2,3.2,0,0,0-.114.684c.038.532-.228,1.064.038,1.406a.6.6,0,0,1,.114.684,1.72,1.72,0,0,0-.152.95.581.581,0,0,1,.038.494.579.579,0,0,0,0,.608.667.667,0,0,1,.038.532.52.52,0,0,0-.114.494.854.854,0,0,1,.038.608,2.881,2.881,0,0,0-.114.608c0,.342-.342.38-.456.418a2.645,2.645,0,0,1-1.216.076c-.494-.038-.684.228-.684.494a.587.587,0,0,0,.494.608h3.8a6.168,6.168,0,0,0,.8-.038,8.747,8.747,0,0,0,1.33.076h1.216a5.884,5.884,0,0,1,.836-.038h1.064c.3,0,.456-.266.456-.57s-.228-.684-.57-.608a5.213,5.213,0,0,1-1.1,0c-.3-.038-.494,0-.608-.19a1.275,1.275,0,0,1-.152-.532c-.038-.076,0-.19,0-.342a3.105,3.105,0,0,0-.038-.532.516.516,0,0,1-.038-.684.476.476,0,0,0,.038-.342c-.076-.836,0-1.976-.038-2.242-.228-.456.038-1.064.038-1.938a.8.8,0,0,1,0-1.064c.038-.532.228-1.14.038-1.406-.228-.266-.114-.418-.038-.646a.653.653,0,0,0,.076-.494c-.038-.532-.038-1.14-.114-1.634-.266-.722-.076-1.33-.418-1.6-.608-.494-.418-.874-.874-1.292-.494-.456-.8-.684-1.14-1.026a7.143,7.143,0,0,0-1.748-.608c-.3.19-.456.152-.608.038a1.02,1.02,0,0,0-.456-.228c-.608-.152-.988.266-1.634.152-.646-.076-.76.456-1.558.456-.684.19-.76.684-1.482.836-.532.532-.95.8-1.33,1.14-.19.152-.38.456-.76.418-.228,0-.3-.038-.38-.114-.114-.076-.152-.19-.38-.418a4.746,4.746,0,0,0-.342-.456c-.114-.152-.266-.266-.418-.494a1.381,1.381,0,0,0-.608-.456.924.924,0,0,1-.342-.266c-.19-.266-.57-.076-1.178-.494a1.189,1.189,0,0,0-.95-.19,1.008,1.008,0,0,1-.646-.076,1.249,1.249,0,0,0-.95.076,3.533,3.533,0,0,1-.684.228c-.418-.076-.95.418-1.216.456-.532.228-.874.76-1.33.874a9.148,9.148,0,0,0-1.254,1.14c-.076.038-.114.076-.152.076-.114,0-.152-.114-.19-.3-.038-.266-.038-.646-.076-1.064a2.811,2.811,0,0,0,.076-1.216.961.961,0,0,0-.874-.494h-.114a9.384,9.384,0,0,0-1.33.38c-.418.19-1.178.076-1.672.228-.684-.038-1.14.076-1.71.076-.494.152-.836-.152-1.6.114-.38.152-.3,1.216.342,1.178a2.88,2.88,0,0,1,1.178.038,1.114,1.114,0,0,1,.722,1.33c.076.874-.114,1.406,0,2.2a15.829,15.829,0,0,1,0,1.9c-.114.76.152,1.064,0,1.9a3.237,3.237,0,0,1,0,1.9c.228.57-.228,1.292,0,1.9a11.224,11.224,0,0,1-.076,3,.746.746,0,0,1-.912.76c-.38.114-.988-.076-1.406.038a.65.65,0,0,0-.456.608.549.549,0,0,0,.608.57h2.242c.912,0,1.9-.076,2.926-.038h.076a2.481,2.481,0,0,0,.646-.114c.228-.076.418-.114.57.114.684.038,1.634.076,2.432.076.646,0,.646-.038.722-.608.038-.342-.076-.646-.57-.646-.8.038-1.254.114-1.444-.228-.38-.342-.228-1.1-.342-1.71a4.121,4.121,0,0,1,0-1.71c.038-.722,0-1.1,0-1.71-.152-1.064.228-1.786,0-2.7.19-.912-.19-1.938,0-2.66-.152-.494.342-.988.57-1.6.228-.418.57-1.178,1.064-1.406a5.451,5.451,0,0,1,1.064-.836c.38.038.988-.266,1.52-.19a1.955,1.955,0,0,1,1.672.95,8.357,8.357,0,0,1,.494,2.28,12.069,12.069,0,0,1,0,2.888C320.872,38,321.252,39.064,321.024,39.976Zm37.05,4.142c-.114.342-.3.38-.456.76a1.384,1.384,0,0,1-.456.418.9.9,0,0,1-.57.038c-.76-.038-1.026-.684-1.064-1.254a22.69,22.69,0,0,1,0-2.28,1.285,1.285,0,0,1-.038-.836,3.207,3.207,0,0,0,.076-.722c-.038-.532-.38-.722-.076-1.33.152-.266-.152-.57,0-1.1.114-.38-.19-.76,0-1.33.114-.38-.038-.95.038-1.52a16.111,16.111,0,0,0-.228-2.508c-.3-.152-.266-.3-.266-.532a.983.983,0,0,0-.266-.684c-.3-.418-.57-.912-.988-1.064-.684-.228-.836-.722-1.292-.684-.608.038-.8-.418-1.33-.3-.57-.076-1.026-.114-1.368-.19a6.269,6.269,0,0,0-2.2.266,9.236,9.236,0,0,0-2.47.722c-.266.038-.342.152-.38.266-.076.114-.114.228-.494.228-.19,0-.342.3-.836.722a2.469,2.469,0,0,0-.76,2.014,2.157,2.157,0,0,0,.57,1.52,2.218,2.218,0,0,0,1.482.646c.608-.038.988.038,1.292-.57a2.3,2.3,0,0,0,.532-1.33,1.429,1.429,0,0,0-.532-1.216.785.785,0,0,1-.3-.95c-.114-.228.532-.836.988-.912a13.919,13.919,0,0,1,1.6-.266c.874.114,1.786.228,2.014.8.684.608.57,1.368.684,2.052a13.29,13.29,0,0,1,0,1.748,3.391,3.391,0,0,1,0,1.52c.076.266,0,.38-.152.646a.847.847,0,0,1-.836.418c-.722.076-.874.38-1.558.266a7.776,7.776,0,0,0-1.786.342,4.757,4.757,0,0,0-1.938.684c-.76.152-.8.646-1.558.988-.76.266-.95.912-1.444,1.672a4.2,4.2,0,0,0-.494,1.976,2.167,2.167,0,0,0,.038.494.721.721,0,0,0,.152.456c.114.228.3.342.19.8.3.57.494,1.1,1.064,1.292a4.894,4.894,0,0,0,1.52.836,7.231,7.231,0,0,0,1.748.266,7.94,7.94,0,0,0,2.166-.38c.076-.228.266-.266.456-.3a.6.6,0,0,0,.456-.19c.3-.266,1.026-.38,1.216-.912a.745.745,0,0,1,1.216.266,3.893,3.893,0,0,0,.95.874,5.247,5.247,0,0,0,2.242.57,1.109,1.109,0,0,0,.342.076c.456,0,.912-.38,1.14-.3a2.185,2.185,0,0,0,1.178-.608c.38-.38.722-.38.988-.95a4.191,4.191,0,0,0,.722-.95.343.343,0,0,0,.038-.19.578.578,0,0,0-.57-.532A.341.341,0,0,0,358.074,44.118Zm-7.3-.494a6.046,6.046,0,0,1-1.1,1.254,3.825,3.825,0,0,1-1.786.532,2.879,2.879,0,0,1-1.9-.874,1.2,1.2,0,0,1-.494-1.064c0-.342-.3-.608-.19-.988.19-.494.038-.608.152-.912-.114-.456.3-.684.532-1.178a2.5,2.5,0,0,1,1.178-1.064c.456-.456.8-.228,1.368-.608.342-.38.874-.19,1.14-.3.684-.19,1.368-.038,1.254.836a.719.719,0,0,0,.038.57.653.653,0,0,1,0,.646.566.566,0,0,0-.076.532.723.723,0,0,1,.038.646c-.038.418.19.532.038.988C350.854,43.016,351.006,43.32,350.778,43.624Zm30.742,2.2c-.266-.114-.38-.038-.684-.076a6.131,6.131,0,0,0-.836,0c-.532-.038-.646-.152-.684-.912-.038-.95-.038-2.7-.038-3.876a8.016,8.016,0,0,1,0-2.356,12.342,12.342,0,0,0,.038-2.888c-.3-.38-.19-.608-.152-1.026a3.95,3.95,0,0,0,.038-.988,7.969,7.969,0,0,0-.228-1.254,1.537,1.537,0,0,1-.266-.722c-.038-.19-.076-.342-.228-.418-.418-.3-.836-.912-1.178-1.216a.8.8,0,0,0-.418-.19,1.052,1.052,0,0,1-.684-.418c-.418-.38-1.216-.114-1.558-.38-.418-.3-1.026-.038-1.444-.038-.608.228-1.216.038-1.482.152-.418.228-1.178.532-1.52.76a5.779,5.779,0,0,0-1.748,1.14.576.576,0,0,1-.418.266c-.114,0-.228-.114-.266-.38-.076-.722.114-1.406.038-1.71a.674.674,0,0,0-.646-.456.742.742,0,0,0-.266.038,5.455,5.455,0,0,1-1.368.266,4.548,4.548,0,0,1-1.71.228c-.418.152-.722-.038-1.406.114-.836.114-1.254.038-1.672.114-.722.19-.494,1.254.114,1.14a4.405,4.405,0,0,1,1.254.114c.418.114.608.57.646,1.292.038.532-.038,1.406,0,2.166a4.538,4.538,0,0,0,0,1.9,10.387,10.387,0,0,0,0,1.9,11,11,0,0,1,0,1.938.963.963,0,0,0,.114.76.823.823,0,0,1-.114.988c0,.988-.076,1.748,0,2.584a1.728,1.728,0,0,1-.19,1.064.634.634,0,0,1-.57.342,8.923,8.923,0,0,0-.988.038c-.3.076-.684-.114-.836.152a.65.65,0,0,0-.266.494.531.531,0,0,0,.494.494h.228c.3,0,.57-.038.836-.038.38,0,.76.038,1.178.038h.3a18.9,18.9,0,0,1,1.976-.076,12.414,12.414,0,0,1,2.394.076,7.325,7.325,0,0,1,1.824,0h.076c.494,0,.722-.3.722-.57a.665.665,0,0,0-.266-.532c-.152-.228-.494-.038-.684-.114-.19-.038-.494,0-.608-.114-.418-.114-.57-.342-.608-1.1-.038-.8-.038-1.52-.038-2.09-.38-.494-.3-.722-.152-.988a1.406,1.406,0,0,0,.19-.418c.076-.76-.228-.874,0-1.558.19-.266-.076-1.178,0-1.558-.19-.608.228-1.292,0-1.6a2.688,2.688,0,0,1,0-1.558c.228-.3-.076-.8,0-1.558a2.515,2.515,0,0,1,1.064-1.254,5.654,5.654,0,0,1,1.368-.646,5.082,5.082,0,0,1,1.444-.38c.418.228,1.254.152,1.368.38.076.3.57.228.684.722a7.474,7.474,0,0,1,.342,2.47,17.352,17.352,0,0,0,0,2.812,1.358,1.358,0,0,1,.114,1.1.883.883,0,0,0,0,.76.922.922,0,0,1-.076.874c-.114.152,0,.3.076.456a.5.5,0,0,1-.038.456c-.19.3.152.722,0,1.216a6.038,6.038,0,0,0-.076,1.444c.076,1.064.076,1.786-.3,2.052a2.328,2.328,0,0,1-1.292.076c-.532.076-.684,1.064-.076,1.216.076,0,.152.038.228.038.228,0,.456-.076.722-.076.076,0,.152.038.228.038.19,0,.38.038.532.038.19,0,.38-.038.532-.038.228-.228.532-.038.684-.038.342,0,.646.076.95.076a1.762,1.762,0,0,0,.722-.152c.874-.038,1.1.076,2.09.114l.266.038c.38,0,.76-.114,1.1-.076h1.14c.19,0,.342-.228.342-.494A.617.617,0,0,0,381.52,45.828Zm21.47-16.72c-.266-.57-1.216-.456-1.558-.57a1.175,1.175,0,0,0-.3-.076c-.342,0-.494.3-.95.38-.494.228-.532.3-.874.836a9.8,9.8,0,0,0-.608,1.406c-.228.456-.494.57-1.1.038a11.221,11.221,0,0,0-2.166-1.33,7.713,7.713,0,0,0-1.672-.532c-.494-.076-1.1-.114-1.824-.152-.646-.114-1.14.266-1.368.076-.646.038-1.178,0-1.482.266-.418.342-1.026.38-1.14.57-.684.19-.836.684-1.178.684a4.543,4.543,0,0,0-1.026.912,3.8,3.8,0,0,1-.8,1.064c0,.3-.608.8-.494,1.254.114.722-.228.8-.19,1.444.076.266-.114,1.216.228,1.444a2.425,2.425,0,0,0,.608,1.254c.114.38.8,1.254,1.216,1.292.532.456.418,1.064-.076,1.14-.456.228-.95.95-1.33,1.14-.494.228-.3.836-.684,1.14-.342.418-.3.8-.3,1.558a3.333,3.333,0,0,0,.38,1.52,2.025,2.025,0,0,0,.836,1.064,5.65,5.65,0,0,0,1.178.646c.532.114.722.266.722.418s-.19.342-.532.456a2.791,2.791,0,0,0-1.71.95,3.833,3.833,0,0,0-1.254,1.216A2.6,2.6,0,0,0,383,52.022a.647.647,0,0,0,.038.266,2.4,2.4,0,0,0,.266,1.406c.3.608.228.95.722,1.14a4.23,4.23,0,0,0,1.406,1.14c.266-.152.418-.076.532.076a4.3,4.3,0,0,0,.418.418,11.294,11.294,0,0,0,1.482.494,9,9,0,0,1,1.482.342c.95.076,1.634.228,2.47.228h.266a2.337,2.337,0,0,1,.494-.038c.3,0,.57.038.874.038h.114a1.875,1.875,0,0,0,.57-.114c.532-.114,1.406-.266,2.052-.418.57.114,1.1-.418,1.976-.722.836-.076,1.292-.874,1.71-1.1a6.458,6.458,0,0,0,1.482-1.748c.228-.532.152-.8.646-1.178a9.288,9.288,0,0,0,.532-1.748c.3-.608.038-.988.228-1.6a3.822,3.822,0,0,0-.228-1.634c-.3-.57-.114-.912-.456-1.216-.456-.38-.38-.722-1.178-1.14-.532-.266-.95-.608-1.178-.684-.228-.418-.874-.38-1.368-.342a4.7,4.7,0,0,0-1.482-.114,5.588,5.588,0,0,0-1.444.038,1.217,1.217,0,0,1-.8.038c-.342.114-.57-.19-1.178.038a1.069,1.069,0,0,1-.76.038,1.2,1.2,0,0,0-.646,0,10.232,10.232,0,0,1-1.862.038,6.63,6.63,0,0,1-2.014-.266c-.608-.152-1.482-.494-1.254-1.33-.076-.456-.038-.76.532-1.254.3-.076.608-.456,1.064-.494.38-.076.532-.114.836.076.684.228.874.076,1.292.342a6.267,6.267,0,0,0,1.6.19,7.117,7.117,0,0,0,2.356-.38,5.3,5.3,0,0,0,1.292-.456,2.9,2.9,0,0,0,1.292-.646.7.7,0,0,1,.494-.57.409.409,0,0,0,.3-.076c.456-.418.608-.836.912-1.14a2.732,2.732,0,0,0,.608-1.368c-.114-.3,0-.418.076-.646a1.294,1.294,0,0,0,.038-.57c-.228-.342,0-.836-.19-1.938.038-.114,0-.152-.114-.3-.076-.076-.038-.19.038-.342a2.276,2.276,0,0,1,.3-1.444c.152-.38.266-.722.57-.874.266-.152.38-.038.494.19a2.13,2.13,0,0,0-.038.684,1.151,1.151,0,0,0,1.6,1.064c.342.228.988-.228,1.1-.646a.762.762,0,0,0,.266-.646v-.456a.945.945,0,0,0,.038-.3A1.388,1.388,0,0,0,402.99,29.108Zm-7.98,7.9c-.19.8-.38,1.026-.494,1.6a1.6,1.6,0,0,1-.988,1.216c-.228.228-.57.38-1.444.418a3.539,3.539,0,0,1-1.748-.418,3.88,3.88,0,0,1-1.026-1.178,1.706,1.706,0,0,1-.57-1.6c.114-.722-.418-.988-.152-1.634a13.591,13.591,0,0,1,.152-1.71c-.038-.8.494-1.178.532-1.748.456-.57.418-1.14,1.026-1.33a1.9,1.9,0,0,1,1.634-.532,2.412,2.412,0,0,1,1.634.532,5.42,5.42,0,0,1,.988,1.33c.342.722.228,1.292.456,1.71.076.8-.038,1.406.152,1.71C395.2,35.834,394.9,36.29,395.01,37.012Zm-7.638,12.616c.532-.532.874-1.178,1.634-1.558l.38-.038c.152.076.266-.038.456-.114a.778.778,0,0,1,.608.114,1.236,1.236,0,0,0,.57-.038.815.815,0,0,1,.57.076,2.337,2.337,0,0,1,.418-.114.219.219,0,0,1,.3.114.756.756,0,0,0,.532-.038.79.79,0,0,1,.3,0,.508.508,0,0,0,.342-.038.331.331,0,0,1,.38.114c.722-.076,1.216.114,1.482-.038.57-.038.8.19,1.444,0a8.862,8.862,0,0,1,1.976.266,3.2,3.2,0,0,1,1.558.8,2.08,2.08,0,0,1,.646,1.748,4.292,4.292,0,0,1-.76,2.356c-.418.57-.456.76-.836.95a4.982,4.982,0,0,1-1.064.76,2.23,2.23,0,0,1-1.178.608c-.418.3-.76.076-1.254.418a8.257,8.257,0,0,1-2.47.342,9.227,9.227,0,0,1-2.166-.266,8.81,8.81,0,0,1-2.128-.836.627.627,0,0,1-.494-.342.522.522,0,0,0-.418-.3c-.418-.114-.57-.3-.722-.8a3.268,3.268,0,0,1-.646-2.09A5.159,5.159,0,0,1,387.372,49.628Zm33.478-5.51c-.114.342-.3.38-.456.76a1.384,1.384,0,0,1-.456.418.9.9,0,0,1-.57.038c-.76-.038-1.026-.684-1.064-1.254a22.69,22.69,0,0,1,0-2.28,1.285,1.285,0,0,1-.038-.836,3.207,3.207,0,0,0,.076-.722c-.038-.532-.38-.722-.076-1.33.152-.266-.152-.57,0-1.1.114-.38-.19-.76,0-1.33.114-.38-.038-.95.038-1.52a16.111,16.111,0,0,0-.228-2.508c-.3-.152-.266-.3-.266-.532a.983.983,0,0,0-.266-.684c-.3-.418-.57-.912-.988-1.064-.684-.228-.836-.722-1.292-.684-.608.038-.8-.418-1.33-.3-.57-.076-1.026-.114-1.368-.19a6.269,6.269,0,0,0-2.2.266,9.236,9.236,0,0,0-2.47.722c-.266.038-.342.152-.38.266-.076.114-.114.228-.494.228-.19,0-.342.3-.836.722a2.469,2.469,0,0,0-.76,2.014,2.157,2.157,0,0,0,.57,1.52,2.218,2.218,0,0,0,1.482.646c.608-.038.988.038,1.292-.57a2.3,2.3,0,0,0,.532-1.33,1.429,1.429,0,0,0-.532-1.216.785.785,0,0,1-.3-.95c-.114-.228.532-.836.988-.912a13.919,13.919,0,0,1,1.6-.266c.874.114,1.786.228,2.014.8.684.608.57,1.368.684,2.052a13.29,13.29,0,0,1,0,1.748,3.391,3.391,0,0,1,0,1.52c.076.266,0,.38-.152.646a.847.847,0,0,1-.836.418c-.722.076-.874.38-1.558.266a7.776,7.776,0,0,0-1.786.342,4.757,4.757,0,0,0-1.938.684c-.76.152-.8.646-1.558.988-.76.266-.95.912-1.444,1.672a4.2,4.2,0,0,0-.494,1.976,2.167,2.167,0,0,0,.038.494.721.721,0,0,0,.152.456c.114.228.3.342.19.8.3.57.494,1.1,1.064,1.292a4.894,4.894,0,0,0,1.52.836,7.231,7.231,0,0,0,1.748.266,7.94,7.94,0,0,0,2.166-.38c.076-.228.266-.266.456-.3a.6.6,0,0,0,.456-.19c.3-.266,1.026-.38,1.216-.912a.745.745,0,0,1,1.216.266,3.893,3.893,0,0,0,.95.874,5.247,5.247,0,0,0,2.242.57,1.109,1.109,0,0,0,.342.076c.456,0,.912-.38,1.14-.3a2.185,2.185,0,0,0,1.178-.608c.38-.38.722-.38.988-.95a4.191,4.191,0,0,0,.722-.95.343.343,0,0,0,.038-.19.578.578,0,0,0-.57-.532A.341.341,0,0,0,420.85,44.118Zm-7.3-.494a6.046,6.046,0,0,1-1.1,1.254,3.825,3.825,0,0,1-1.786.532,2.879,2.879,0,0,1-1.9-.874,1.2,1.2,0,0,1-.494-1.064c0-.342-.3-.608-.19-.988.19-.494.038-.608.152-.912-.114-.456.3-.684.532-1.178a2.5,2.5,0,0,1,1.178-1.064c.456-.456.8-.228,1.368-.608.342-.38.874-.19,1.14-.3.684-.19,1.368-.038,1.254.836a.719.719,0,0,0,.038.57.653.653,0,0,1,0,.646.566.566,0,0,0-.076.532.723.723,0,0,1,.038.646c-.038.418.19.532.038.988C413.63,43.016,413.782,43.32,413.554,43.624Zm11.59-19.57c.19.532.266,1.33.418,1.672.266.152.266.3.266.57a2.132,2.132,0,0,0,.076.8c.152.494.608.912.3,1.368.152.418.418,1.064.266,1.368A2.673,2.673,0,0,1,426.7,31.2c-.038.342.532.722.19,1.368a2.262,2.262,0,0,0,.152,1.406c.114,1.14-.038,1.672.114,2.774.114.8-.266,1.254-.038,1.824a.7.7,0,0,0,1.33-.19,5.859,5.859,0,0,0,0-1.824,20.9,20.9,0,0,0,.038-2.66,3.133,3.133,0,0,1,.152-1.406c.152-.532-.076-.874.19-1.406a5.321,5.321,0,0,0,.266-1.406,6.646,6.646,0,0,0,.266-1.368,3.323,3.323,0,0,0,.3-1.406c.228-.456.038-.646.266-1.14a1.009,1.009,0,0,0,.076-.646.741.741,0,0,1,.19-.494c.114-.152,0-.3-.038-.456s-.038-.342.266-.532c.228-.3,0-.608.152-1.33a2.934,2.934,0,0,0,.076-.57,3.152,3.152,0,0,0-.608-1.786c-.076-.266-.3-.266-.532-.342a.48.48,0,0,1-.38-.38,5.015,5.015,0,0,0-1.216-.342,1.11,1.11,0,0,0-.342.076h-.3a2.027,2.027,0,0,0-1.786,1.026,3.445,3.445,0,0,0-.57,1.824v.3a6.238,6.238,0,0,0-.076.874A1.429,1.429,0,0,0,425.144,24.054Zm5.472,20.634c-.114-.342.038-1.1-.266-1.292a.874.874,0,0,1-.38-.532c-.076-.152-.114-.266-.342-.342a.971.971,0,0,1-.608-.456,1.081,1.081,0,0,0-.912-.3,2.939,2.939,0,0,0-3.268,2.47,1.908,1.908,0,0,0,.076.456,2.766,2.766,0,0,0,.608,1.786c.38.076.494.152.532.266s.038.266.19.342a5.268,5.268,0,0,0,1.71.342c.76-.152,1.558-.228,1.786-.836a1.26,1.26,0,0,1,.342-.494c.152-.152.3-.266.266-.494-.038-.38.3-.418.3-.76C430.654,44.8,430.616,44.764,430.616,44.688Z" transform="translate(150 1306.548)"/>
  </g>
</svg>
