<svg xmlns="http://www.w3.org/2000/svg" width="481.384" height="87.286" viewBox="0 0 481.384 87.286">
  <path id="パス_72332" data-name="パス 72332" d="M24.662-19.988c-.038-.456-.228-.532,0-1.14v-.152a4.3,4.3,0,0,1-.038-1.216v-.418c0-.608-.038-1.33-.038-1.748v-1.6a1.309,1.309,0,0,0,.038-.342,3.422,3.422,0,0,1,0-1.1v-.19c0-.456-.266-.532-.532-.532a1.171,1.171,0,0,0-.38.038c-.418.114-1.254-.038-1.52.114a11.248,11.248,0,0,1-1.52.076,9.761,9.761,0,0,0-1.52.038c-.38.266-.76,0-1.52,0a29.133,29.133,0,0,1-3.154.076c-.95-.038-1.14.19-2.014-.076-.684.076-1.862,0-2.622,0-1.026-.038-1.634.038-2.584,0a18.1,18.1,0,0,1-2.888-.076,4.735,4.735,0,0,1-1.444-.076c-.57.152-.874-.076-1.292-.076H1.482a1.85,1.85,0,0,1-.456.038c-.3,0-.494,0-.532.342-.114.684.076,1.1,0,1.71A7.077,7.077,0,0,1,.57-24.624a2.108,2.108,0,0,0-.114.646,12.355,12.355,0,0,1,.076,1.254A7.019,7.019,0,0,0,.418-21.7a3.282,3.282,0,0,0,.038.57c.076.342-.076.57-.076.912a.752.752,0,0,0,.076.38c.114.19-.038.342-.038.608A.482.482,0,0,0,.456-19a.541.541,0,0,0,1.026-.228,4.019,4.019,0,0,1,.152-1.634c.266-.684,0-1.026.3-1.634.342-.646.266-.912.532-1.406.038-.608.38-.76.722-1.1.342-.076.456-.532.988-.836a3.873,3.873,0,0,1,1.33-.608c.342.076.722-.418,1.444-.266a7.824,7.824,0,0,1,1.71-.076.883.883,0,0,1,.95.3c.38.266.228.646.228.988-.076.57.19,1.064,0,1.748-.266.494.228,1.026,0,1.558-.038.608.3,1.178,0,1.6-.19.266.19.912,0,1.558a7.184,7.184,0,0,0,0,1.6c.3.19.266.342.152.532a1.3,1.3,0,0,0-.152.608c.038.532,0,1.026,0,2.014,0,.722-.228,1.368.076,1.938a.667.667,0,0,1,.038.532.7.7,0,0,0-.114.684c.19.494-.038.988,0,1.6a5.549,5.549,0,0,1-.076,1.786c-.114.342.418.8.076,1.368a18.45,18.45,0,0,0,0,2.052A7.489,7.489,0,0,1,9.8-2.7c.038.608-.3.988-1.1.95-.418,0-.76.038-1.368,0-.494.266-.684-.076-1.254,0-.494.076-.646.3-.646.57a.659.659,0,0,0,.532.646C6.65-.57,6.992-.57,7.828-.57s1.292.038,1.9.038a.568.568,0,0,1,.57-.114,1.616,1.616,0,0,0,.418.076h.076c.3-.038.684.038,1.1.038a2.45,2.45,0,0,0,.76-.114c.494-.152.722.114,1.1.114a1.672,1.672,0,0,0,.38-.076c.722.038.988-.076,1.748,0,.3,0,.76-.038,1.6,0,.532.038.988.114,1.52.114h.266c.266,0,.456-.342.456-.646,0-.38-.19-.722-.646-.646a6.608,6.608,0,0,1-1.216.038c-.684.038-1.026-.076-1.368,0-.532.114-.836-.38-.95-.95,0-.38.038-1.6,0-2.128-.266-.456.114-1.178,0-1.558a3.738,3.738,0,0,1,0-1.6,7.034,7.034,0,0,1,0-1.558,1.1,1.1,0,0,1,0-.988,1.082,1.082,0,0,0,0-.608,1.213,1.213,0,0,1,0-.988.594.594,0,0,0,0-.57c-.152-.3.114-.95,0-1.6-.114-.342.114-1.064,0-1.6-.266-.608.228-1.026,0-1.558a11.129,11.129,0,0,1,0-1.6,1.951,1.951,0,0,0-.19-.456.6.6,0,0,1,.114-.684,16.542,16.542,0,0,0,.076-2.014c0-.342-.038-1.1,0-1.558-.038-.836.038-1.064,0-1.862a.952.952,0,0,1,.266-1.1c.152-.228.912.076,1.368-.114.646-.038.874.228,1.52.038a.994.994,0,0,1,.608.076,2.043,2.043,0,0,0,.8.3,2.926,2.926,0,0,1,1.368.57l.836.874a3.294,3.294,0,0,1,.532,1.254c.114.266.494.8.456,1.216-.076.418.266,1.14.152,1.634,0,.494.076.988.114,1.634a.484.484,0,0,0,.532.494.677.677,0,0,0,.494-.228,1.043,1.043,0,0,0,.076-.494ZM41.078-3.382c-.114.342-.3.38-.456.76a1.384,1.384,0,0,1-.456.418.9.9,0,0,1-.57.038c-.76-.038-1.026-.684-1.064-1.254a22.686,22.686,0,0,1,0-2.28,1.285,1.285,0,0,1-.038-.836,3.206,3.206,0,0,0,.076-.722c-.038-.532-.38-.722-.076-1.33.152-.266-.152-.57,0-1.1.114-.38-.19-.76,0-1.33.114-.38-.038-.95.038-1.52a16.112,16.112,0,0,0-.228-2.508c-.3-.152-.266-.3-.266-.532a.983.983,0,0,0-.266-.684c-.3-.418-.57-.912-.988-1.064-.684-.228-.836-.722-1.292-.684-.608.038-.8-.418-1.33-.3-.57-.076-1.026-.114-1.368-.19a6.27,6.27,0,0,0-2.2.266,9.236,9.236,0,0,0-2.47.722c-.266.038-.342.152-.38.266-.076.114-.114.228-.494.228-.19,0-.342.3-.836.722a2.469,2.469,0,0,0-.76,2.014,2.157,2.157,0,0,0,.57,1.52,2.218,2.218,0,0,0,1.482.646c.608-.038.988.038,1.292-.57a2.3,2.3,0,0,0,.532-1.33,1.429,1.429,0,0,0-.532-1.216.785.785,0,0,1-.3-.95c-.114-.228.532-.836.988-.912a13.919,13.919,0,0,1,1.6-.266c.874.114,1.786.228,2.014.8.684.608.57,1.368.684,2.052a13.288,13.288,0,0,1,0,1.748,3.392,3.392,0,0,1,0,1.52c.076.266,0,.38-.152.646a.847.847,0,0,1-.836.418c-.722.076-.874.38-1.558.266a7.776,7.776,0,0,0-1.786.342,4.757,4.757,0,0,0-1.938.684c-.76.152-.8.646-1.558.988-.76.266-.95.912-1.444,1.672a4.2,4.2,0,0,0-.494,1.976,2.167,2.167,0,0,0,.038.494.721.721,0,0,0,.152.456c.114.228.3.342.19.8.3.57.494,1.1,1.064,1.292a4.895,4.895,0,0,0,1.52.836,7.231,7.231,0,0,0,1.748.266,7.94,7.94,0,0,0,2.166-.38c.076-.228.266-.266.456-.3A.6.6,0,0,0,32-.988c.3-.266,1.026-.38,1.216-.912a.745.745,0,0,1,1.216.266,3.893,3.893,0,0,0,.95.874,5.247,5.247,0,0,0,2.242.57,1.11,1.11,0,0,0,.342.076c.456,0,.912-.38,1.14-.3a2.185,2.185,0,0,0,1.178-.608c.38-.38.722-.38.988-.95a4.191,4.191,0,0,0,.722-.95.343.343,0,0,0,.038-.19.578.578,0,0,0-.57-.532A.341.341,0,0,0,41.078-3.382Zm-7.3-.494a6.046,6.046,0,0,1-1.1,1.254,3.825,3.825,0,0,1-1.786.532,2.879,2.879,0,0,1-1.9-.874A1.2,1.2,0,0,1,28.5-4.028c0-.342-.3-.608-.19-.988.19-.494.038-.608.152-.912-.114-.456.3-.684.532-1.178A2.5,2.5,0,0,1,30.172-8.17c.456-.456.8-.228,1.368-.608.342-.38.874-.19,1.14-.3.684-.19,1.368-.038,1.254.836a.719.719,0,0,0,.038.57.653.653,0,0,1,0,.646A.566.566,0,0,0,33.9-6.5a.723.723,0,0,1,.038.646c-.038.418.19.532.038.988C33.858-4.484,34.01-4.18,33.782-3.876ZM64.638-1.558a1.16,1.16,0,0,0-.874-.19,2.637,2.637,0,0,1-1.178-.114c-.342-.266-.608-.418-.722-.722-.228-.38-.532-.532-.684-.874-.456-.228-.418-.836-.684-.988a1.159,1.159,0,0,1-.342-.494,1.32,1.32,0,0,0-.228-.342c-.38-.114-.418-.266-.418-.38a.234.234,0,0,0-.152-.266.884.884,0,0,1-.342-.418c-.038-.152-.038-.3-.152-.38-.57-.494-.532-.76-.874-1.216A6.288,6.288,0,0,1,57-9.424c-.418-.342-.57-.874-.912-1.292a15.193,15.193,0,0,1-.8-1.33.718.718,0,0,1,.152-1.14,10.626,10.626,0,0,1,1.254-1.14,2.747,2.747,0,0,0,.76-.646,2.621,2.621,0,0,1,.57-.57c.418-.3.38-.456.722-.646l.3-.19a1.9,1.9,0,0,1,1.254-.38c.3-.076.418.038.8,0,.228-.038.646.114.912-.114.38-.114.3-.95-.038-1.1-.228-.114-.532,0-.912-.038-.342-.038-.76.114-.988.038-.8.114-1.292-.038-1.786.038a11.476,11.476,0,0,0-1.672,0,3.767,3.767,0,0,1-1.1-.038.948.948,0,0,0-.95.152A.614.614,0,0,0,54.91-16.8c.456-.038.608.038,1.178-.038.228-.076.76,0,.722.38,0,.228-.3.38-.38.608a9.066,9.066,0,0,1-1.292,1.254c-.418.456-.95.76-1.558,1.406-.418.3-.532.646-1.216,1.064-.3.266-.494.57-.95.646a.494.494,0,0,1-.836-.38V-13.87a2.212,2.212,0,0,0-.038-1.482c-.152-.228,0-.418.076-.646a.733.733,0,0,0,0-.494c-.228-.532.114-.836-.076-1.216-.3-.608.038-1.026.076-1.748a2.627,2.627,0,0,0-.152-.684.614.614,0,0,1,.076-.608,3.564,3.564,0,0,0,.076-1.672,5.8,5.8,0,0,0,0-1.406c.038-.456-.342-1.216.076-1.558.038-.532.076-1.254.076-1.976,0-.76.228-1.1.114-1.52.19-.342-.3-.722-.76-.722a.716.716,0,0,0-.3.076c-.722.418-.95.3-1.368.57-.608.418-.836.152-1.558.418-.456.19-1.064.038-1.71.228-.456.038-.76-.076-1.482-.038-.494.076-.684.342-.684.646a.727.727,0,0,0,.608.684,5.191,5.191,0,0,1,1.33,0c.532-.152.836.874.722,1.748a6.1,6.1,0,0,0,0,1.444,2.638,2.638,0,0,1,0,1.444c-.038.456.228.722-.076,1.254,0,.57,0,1.026.038,1.368a.645.645,0,0,1,.19.874,1.85,1.85,0,0,0-.114.988,9.654,9.654,0,0,1-.038,2.09,22.687,22.687,0,0,0,0,2.28c.342.646-.076.874-.076,1.786.228.608-.19,2.166.076,2.774a18.354,18.354,0,0,1,0,2.052.7.7,0,0,1,.114.646,2.3,2.3,0,0,0-.19.874l.038,1.9c-.114.684.114,1.216-.342,1.558-.266.3-.76.19-.874.228-.608.076-.874-.076-1.14,0a.553.553,0,0,0-.456.608c0,.3.152.57.494.57A1.745,1.745,0,0,1,43.7-.57c.3,0,.494.076.722.076a.482.482,0,0,0,.228-.038,1.052,1.052,0,0,1,.342-.038c.228,0,.418.038.608.038l.266-.038a9.88,9.88,0,0,1,2.09.038A7.988,7.988,0,0,1,49.248-.57a4.143,4.143,0,0,0,.646-.038c.418.038.76.076,1.064.076a1.425,1.425,0,0,0,.418-.038,5.624,5.624,0,0,1,.76.038,1.925,1.925,0,0,0,.494-.076c.19.038.266-.19.266-.456,0-.342-.114-.684-.418-.684-.418,0-.646.038-1.254,0-.38-.152-.722-.418-.57-.95a19.142,19.142,0,0,1-.038-2.052c.228-.836-.114-1.482,0-2.318a3.269,3.269,0,0,1-.038-1.482c.038-.418.532-.8.836-.646a1.165,1.165,0,0,1,.608.646,1.334,1.334,0,0,0,.38.3.61.61,0,0,1,.3.57c.456.608.456.988.76,1.064.494.494.494.874.684,1.026.266.266.456.836.684.988.19.3.646.38.684.988.266.342.418.684.684.988a1.511,1.511,0,0,1,.228.608c0,.152-.114.266-.456.3a4.04,4.04,0,0,0-1.178.038c-.114,0-.266.266-.266.57a.547.547,0,0,0,.608.57H56.43L58.672-.57c.19-.19.418,0,1.178,0,.646,0,.988.038,1.482.038h2.66a1.172,1.172,0,0,0,.38-.038c.266,0,.418-.266.418-.57A.571.571,0,0,0,64.638-1.558Zm16.8-3.42c-.532.646-.646,1.026-.874,1.254-.152.646-.912.684-1.178,1.216-.684.608-1.026.38-1.482.8a4.283,4.283,0,0,1-1.9.266,3.8,3.8,0,0,1-1.634-.19,2.726,2.726,0,0,1-1.254-.532A2.2,2.2,0,0,1,72.124-3c-.38-.418-.266-.608-.722-1.1-.342-.38-.266-1.064-.456-1.254-.228-.19-.19-.38-.19-.684a1.863,1.863,0,0,0-.114-.722,2.636,2.636,0,0,1-.152-1.482,1.272,1.272,0,0,0-.038-.874,1.6,1.6,0,0,1,0-.608l.038-.152c.266-.342.456-.608.836-.608h2.7c.722-.19.912.114,1.786,0a5.6,5.6,0,0,1,1.786,0c.646.114,1.33-.076,2.356.038a8.942,8.942,0,0,0,2.2-.114c.3.076.646-.3.646-.76a.647.647,0,0,0-.038-.266,2.93,2.93,0,0,0-.608-2.09,1.307,1.307,0,0,1-.3-.532,1.539,1.539,0,0,0-.3-.494c-.3-.114-.266-.532-.722-.95a3.964,3.964,0,0,0-1.33-1.216,8.723,8.723,0,0,0-1.52-.874,2.886,2.886,0,0,0-1.672-.532c-.494.114-1.254-.228-1.634-.228-.076,0-.114.038-.152.038-.684.228-1.064-.076-1.9.19a4.174,4.174,0,0,0-1.748.532c-.418.3-1.292.456-1.6.874-.342.38-1.14.494-1.406,1.1-.266.57-.836.684-1.1,1.368-.266.646-.722.8-.874,1.6a.687.687,0,0,1-.114.722.794.794,0,0,0-.3.494,19.282,19.282,0,0,0-.342,2.128.741.741,0,0,0,.038.3,2.008,2.008,0,0,0-.038.456c0,.532.19.836.228,1.482a2.569,2.569,0,0,0,.532,1.786c.228.8.646.836.836,1.52a3.071,3.071,0,0,0,1.14,1.33.956.956,0,0,0,.456.266c.266.076.456.114.532.608A9.756,9.756,0,0,0,70.832-.684,5.442,5.442,0,0,0,72.58-.19a2.229,2.229,0,0,0,.874.152h.722A1.052,1.052,0,0,1,74.518,0a7.024,7.024,0,0,1,.912-.038h.38A3.783,3.783,0,0,0,77.178-.3a4.529,4.529,0,0,0,2.09-.874l.76-.494c.114-.342.57-.57.95-.988.228-.3.532-.646.76-.988.152-.342.494-.456.608-.912.114-.3-.266-.646-.57-.646A.318.318,0,0,0,81.434-4.978Zm-10.45-8.93c.114-.456.076-1.1.456-1.482a8.179,8.179,0,0,1,1.216-1.52,3.049,3.049,0,0,1,1.938-.57,2.788,2.788,0,0,1,1.862.608c.494.3.608.95.988,1.52.418.532.114,1.14.418,1.558a8.466,8.466,0,0,1,.076,1.672c.038.57-.114.76-.912.722-1.064-.038-1.938.038-2.774,0-.608.038-1.9,0-2.622,0-.8,0-1.1-.3-.988-1.178a.96.96,0,0,0,.114-.684A.84.84,0,0,1,70.984-13.908ZM111.036-3c-.3.076-.418.342-.57.418a.505.505,0,0,1-.266.114.589.589,0,0,0-.38.266c-.076.114-.38.19-.456.266-.342.266-.532.19-1.1.228a1.4,1.4,0,0,1-1.292-.418c-.152-.152-.532-.418-.532-.722a2.428,2.428,0,0,0-.228-.836A3.056,3.056,0,0,1,106.1-4.94c.152-.8-.114-1.824.038-2.2-.038-.8,0-1.634,0-2.356-.266-.95.114-1.292-.038-1.976-.152-.38.152-1.786.076-2.242a12.65,12.65,0,0,1,.038-2.394c0-.228.114-.57.836-.608.38.038.532,0,1.254,0,.3,0,.38.152.836-.076.152-.076.342.114.684.076.342,0,.494-.3.494-.608,0-.342-.19-.646-.456-.532a3.132,3.132,0,0,1-.912-.076,1.066,1.066,0,0,0-.532.038.312.312,0,0,1-.266.038c-.494-.152-.57,0-.988-.038-.342-.038-.57,0-.722-.19a.608.608,0,0,1-.152-.418c-.076-.57.076-.8-.076-1.178-.076-.152,0-.266.038-.38a.375.375,0,0,0-.076-.38c-.152-.342.114-.684.076-1.026a5.869,5.869,0,0,1,.114-1.482c.076-.418-.038-.836,0-1.178.038-.266-.228-.38-.456-.38-.19,0-.418.076-.418.3a9.444,9.444,0,0,1-.3,1.292,1.635,1.635,0,0,1-.19.646,2.2,2.2,0,0,0-.266.532c-.3.342-.19.608-.532.874a4.107,4.107,0,0,1-.684.8c-.3.494-.57.532-.874.912-.19.19-.608.266-.988.646-.228.266-.836.19-1.064.418a.638.638,0,0,1-.494.152,3.929,3.929,0,0,0-.456.114c-.608.076-.646.266-.646.494v.152c0,.532.38.532.684.494a3.969,3.969,0,0,1,.95,0c.418.038.608.228.494.836,0,.8-.076,2.166-.038,3.192a8.554,8.554,0,0,1-.038,1.976,1.12,1.12,0,0,0,.038.532c.076.266.228.418.038.836-.19.342.114.684-.038,1.1-.114.57.076.8-.114,1.33a.321.321,0,0,0,0,.266.853.853,0,0,1,.038.646,1.553,1.553,0,0,0,.038.874.42.42,0,0,0,0,.3c0,.152.114.266,0,.494.114.456-.038.912.342,1.368s.342,1.064.874,1.33a1.548,1.548,0,0,0,.418.228c.228.076.38.114.532.532a4.545,4.545,0,0,0,1.52.608,11.269,11.269,0,0,0,1.444.266c.114,0,.228-.038.3-.038.722-.114,1.026-.076,1.482-.152a5.79,5.79,0,0,0,1.368-.456,4.023,4.023,0,0,0,1.254-.722,5.56,5.56,0,0,0,.494-.342c.266-.19.608-.266.646-.608a1.2,1.2,0,0,0-.228-.57A.415.415,0,0,0,111.036-3Zm22.99,1.444c-.3-.228-.418-.152-.76-.228-.152-.038-.494.076-.646.038a.9.9,0,0,1-.684-.608,2.227,2.227,0,0,1-.152-1.178,7.059,7.059,0,0,0,0-1.558,19.143,19.143,0,0,0-.038-2.508c-.266-.342-.152-.494-.038-.76a1.981,1.981,0,0,0,.076-.532c.152-.722-.19-1.938,0-2.66.038-.722-.152-1.254-.076-1.938-.3-.38-.038-1.14-.418-1.862a6.047,6.047,0,0,0-1.1-1.444.652.652,0,0,1-.608-.418.914.914,0,0,0-.57-.456c-.608-.266-1.1-.57-1.482-.684a5,5,0,0,0-1.672-.152,2.647,2.647,0,0,1-.836.114,1.343,1.343,0,0,0-.76.076,6.751,6.751,0,0,0-1.748.836,16.788,16.788,0,0,0-1.634,1.178c-.532.3-.874.152-.722-.912l-.038-2.052c-.342-.494.114-1.026-.114-1.52a.6.6,0,0,1,.038-.684c.076-.152.152-.3.038-.456a1.219,1.219,0,0,1-.038-1.026,1.124,1.124,0,0,0,.076-.646,2.231,2.231,0,0,1-.038-1.216c0-.57.114-.874.076-1.634a14.566,14.566,0,0,1,.19-2.28c.152-.342-.266-.836-.684-.836a.464.464,0,0,0-.342.152,1.223,1.223,0,0,1-.836.3.812.812,0,0,0-.494.19c-.684.076-.8.38-1.482.38-.8-.152-1.444.342-1.938.228-.608-.038-.988.076-1.444.038a.55.55,0,0,0-.57.608.5.5,0,0,0,.532.532c.38.038.684-.038,1.292-.038.494.038.76.3.722.722a5.7,5.7,0,0,0,.038,1.406c.038.228.228.646,0,.836v1.6a1.68,1.68,0,0,1,.076.57,1.678,1.678,0,0,0-.076.646.407.407,0,0,1,.038.456.811.811,0,0,0-.038.456,3.943,3.943,0,0,0,.152.38c.114.19.19.342-.076.722a5.5,5.5,0,0,0-.076,1.6c.266.646-.228,1.064,0,1.6.228.8-.076.912,0,1.634.228.646-.152,1.292,0,1.6.342.532-.114,1.254,0,1.6.38.532-.266,1.026,0,1.634.228.532-.076,1.1,0,1.6.228.8-.076,1.33,0,1.6a7.467,7.467,0,0,1,0,1.6c0,.874,0,1.976-.038,2.7-.038.266-.152.342-.3.38-.114.038-.266.038-.342.114a1.89,1.89,0,0,0-.8.038.621.621,0,0,1-.266,0,.609.609,0,0,0-.456,0,.479.479,0,0,0-.494.494v.19c0,.342.114.532.456.532h.532a1.566,1.566,0,0,0,.456-.038,5.779,5.779,0,0,1,1.064-.076.813.813,0,0,1,.532,0,.549.549,0,0,0,.266.076c.038,0,.076-.038.152-.038a13.024,13.024,0,0,1,1.52-.114,16.613,16.613,0,0,0,1.748.114h.57c.152,0,.418.038.646.038h.152a1.7,1.7,0,0,1,.418-.038c.228,0,.456.038.8.038.38,0,.532-.114.57-.494s0-.532-.342-.722c-.114-.114-.266,0-.494-.038-.266,0-.76.114-.988,0-.19-.114-.3-.19-.342-.38-.038-.228.038-.646.038-1.33a.745.745,0,0,1-.076-.95c0-.456-.038-.836-.038-1.216-.38-.456.114-1.14-.038-1.368a.767.767,0,0,1-.076-.684.45.45,0,0,0,.038-.3.5.5,0,0,1-.038-.456.625.625,0,0,0,.038-.38c-.114-.532.152-.912.038-1.52a2.5,2.5,0,0,1,0-1.064c.19-.76-.076-1.444.076-2.09a4.835,4.835,0,0,1,.266-.8c.38-.456.456-.722.988-1.026a9.632,9.632,0,0,1,1.368-.76,6.507,6.507,0,0,1,1.71-.3,2.4,2.4,0,0,1,1.938.874,4.114,4.114,0,0,1,.38,2.28,23.77,23.77,0,0,0,0,2.85c-.076.95.038,2.166,0,2.888a9.739,9.739,0,0,0,0,1.824c.076.646-.152,1.482,0,1.786a3.276,3.276,0,0,0,0,.874c.038.456.114.646-.228.988-.114.114-.38.494-.76.342-.3-.114-.494,0-.76-.038a.5.5,0,0,0-.57.494c0,.418.038.684.456.684h.114a9.874,9.874,0,0,1,1.064,0h.8a.837.837,0,0,1,.3.038c.684-.038,1.368-.038,2.09-.076.836,0,1.33.038,1.786.038h.342a5.752,5.752,0,0,1,1.1.038h.95a.647.647,0,0,0,.266-.038c.418-.038.532-.228.532-.456A.869.869,0,0,0,134.026-1.558Zm17.518-3.42c-.532.646-.646,1.026-.874,1.254-.152.646-.912.684-1.178,1.216-.684.608-1.026.38-1.482.8a4.283,4.283,0,0,1-1.9.266,3.8,3.8,0,0,1-1.634-.19,2.726,2.726,0,0,1-1.254-.532A2.2,2.2,0,0,1,142.234-3c-.38-.418-.266-.608-.722-1.1-.342-.38-.266-1.064-.456-1.254-.228-.19-.19-.38-.19-.684a1.863,1.863,0,0,0-.114-.722,2.636,2.636,0,0,1-.152-1.482,1.272,1.272,0,0,0-.038-.874,1.6,1.6,0,0,1,0-.608l.038-.152c.266-.342.456-.608.836-.608h2.7c.722-.19.912.114,1.786,0a5.6,5.6,0,0,1,1.786,0c.646.114,1.33-.076,2.356.038a8.942,8.942,0,0,0,2.2-.114c.3.076.646-.3.646-.76a.647.647,0,0,0-.038-.266,2.931,2.931,0,0,0-.608-2.09,1.307,1.307,0,0,1-.3-.532,1.539,1.539,0,0,0-.3-.494c-.3-.114-.266-.532-.722-.95a3.964,3.964,0,0,0-1.33-1.216,8.722,8.722,0,0,0-1.52-.874,2.886,2.886,0,0,0-1.672-.532c-.494.114-1.254-.228-1.634-.228-.076,0-.114.038-.152.038-.684.228-1.064-.076-1.9.19a4.174,4.174,0,0,0-1.748.532c-.418.3-1.292.456-1.6.874-.342.38-1.14.494-1.406,1.1-.266.57-.836.684-1.1,1.368-.266.646-.722.8-.874,1.6a.687.687,0,0,1-.114.722.794.794,0,0,0-.3.494,19.284,19.284,0,0,0-.342,2.128.741.741,0,0,0,.038.3,2.008,2.008,0,0,0-.038.456c0,.532.19.836.228,1.482A2.569,2.569,0,0,0,136-5.434c.228.8.646.836.836,1.52a3.071,3.071,0,0,0,1.14,1.33.956.956,0,0,0,.456.266c.266.076.456.114.532.608a9.757,9.757,0,0,0,1.976,1.026,5.442,5.442,0,0,0,1.748.494,2.23,2.23,0,0,0,.874.152h.722a1.052,1.052,0,0,1,.342.038,7.024,7.024,0,0,1,.912-.038h.38A3.783,3.783,0,0,0,147.288-.3a4.53,4.53,0,0,0,2.09-.874l.76-.494c.114-.342.57-.57.95-.988.228-.3.532-.646.76-.988.152-.342.494-.456.608-.912.114-.3-.266-.646-.57-.646A.318.318,0,0,0,151.544-4.978Zm-10.45-8.93c.114-.456.076-1.1.456-1.482a8.179,8.179,0,0,1,1.216-1.52,3.049,3.049,0,0,1,1.938-.57,2.788,2.788,0,0,1,1.862.608c.494.3.608.95.988,1.52.418.532.114,1.14.418,1.558a8.464,8.464,0,0,1,.076,1.672c.038.57-.114.76-.912.722-1.064-.038-1.938.038-2.774,0-.608.038-1.9,0-2.622,0-.8,0-1.1-.3-.988-1.178a.96.96,0,0,0,.114-.684A.84.84,0,0,1,141.094-13.908ZM181.146-3c-.3.076-.418.342-.57.418a.505.505,0,0,1-.266.114.589.589,0,0,0-.38.266c-.076.114-.38.19-.456.266-.342.266-.532.19-1.1.228a1.4,1.4,0,0,1-1.292-.418c-.152-.152-.532-.418-.532-.722a2.427,2.427,0,0,0-.228-.836,3.056,3.056,0,0,1-.114-1.254c.152-.8-.114-1.824.038-2.2-.038-.8,0-1.634,0-2.356-.266-.95.114-1.292-.038-1.976-.152-.38.152-1.786.076-2.242a12.649,12.649,0,0,1,.038-2.394c0-.228.114-.57.836-.608.38.038.532,0,1.254,0,.3,0,.38.152.836-.076.152-.076.342.114.684.076.342,0,.494-.3.494-.608,0-.342-.19-.646-.456-.532a3.132,3.132,0,0,1-.912-.076,1.066,1.066,0,0,0-.532.038.312.312,0,0,1-.266.038c-.494-.152-.57,0-.988-.038-.342-.038-.57,0-.722-.19a.608.608,0,0,1-.152-.418c-.076-.57.076-.8-.076-1.178-.076-.152,0-.266.038-.38a.375.375,0,0,0-.076-.38c-.152-.342.114-.684.076-1.026a5.87,5.87,0,0,1,.114-1.482c.076-.418-.038-.836,0-1.178.038-.266-.228-.38-.456-.38-.19,0-.418.076-.418.3a9.442,9.442,0,0,1-.3,1.292,1.635,1.635,0,0,1-.19.646,2.2,2.2,0,0,0-.266.532c-.3.342-.19.608-.532.874a4.106,4.106,0,0,1-.684.8c-.3.494-.57.532-.874.912-.19.19-.608.266-.988.646-.228.266-.836.19-1.064.418a.638.638,0,0,1-.494.152,3.93,3.93,0,0,0-.456.114c-.608.076-.646.266-.646.494v.152c0,.532.38.532.684.494a3.969,3.969,0,0,1,.95,0c.418.038.608.228.494.836,0,.8-.076,2.166-.038,3.192a8.554,8.554,0,0,1-.038,1.976,1.12,1.12,0,0,0,.038.532c.076.266.228.418.038.836-.19.342.114.684-.038,1.1-.114.57.076.8-.114,1.33a.321.321,0,0,0,0,.266.853.853,0,0,1,.038.646,1.553,1.553,0,0,0,.038.874.42.42,0,0,0,0,.3c0,.152.114.266,0,.494.114.456-.038.912.342,1.368s.342,1.064.874,1.33a1.548,1.548,0,0,0,.418.228c.228.076.38.114.532.532a4.545,4.545,0,0,0,1.52.608,11.268,11.268,0,0,0,1.444.266c.114,0,.228-.038.3-.038.722-.114,1.026-.076,1.482-.152a5.791,5.791,0,0,0,1.368-.456,4.023,4.023,0,0,0,1.254-.722,5.558,5.558,0,0,0,.494-.342c.266-.19.608-.266.646-.608a1.2,1.2,0,0,0-.228-.57A.415.415,0,0,0,181.146-3ZM198.74-16.53c-.3-.608-.3-.836-.722-1.026a3.081,3.081,0,0,0-1.064-.646,3.847,3.847,0,0,0-1.9-.19.566.566,0,0,0-.3.114c-.114.076-.152.152-.57.076a6.291,6.291,0,0,0-1.216.722c-.266.114-.988.76-1.026,1.064a4.431,4.431,0,0,0-.418.608c-.114.19-.228.228-.38.19-.114-.038-.19-.076-.228-.19a3.289,3.289,0,0,1,0-1.1c-.076-.494.152-.874-.038-1.254a.759.759,0,0,0-.646-.494.565.565,0,0,0-.342.076,1.7,1.7,0,0,1-1.292.266,14.585,14.585,0,0,1-1.672.228,3.939,3.939,0,0,1-1.52.114,8.208,8.208,0,0,1-1.368,0c-.532,0-.722.266-.722.57,0,.342.228.722.532.684.456.038.95-.076,1.254-.038.152.038.418-.038.608.076a.857.857,0,0,1,.19.456c.228.76-.038.912.076,1.444a8.722,8.722,0,0,1,.038,2.622.92.92,0,0,0,.114.532.5.5,0,0,1-.114.608c-.038.95,0,1.938-.038,2.774a3.08,3.08,0,0,0,.114.418c.152.228.228.38-.076.836a17.772,17.772,0,0,0,0,2.014c-.038.684-.038,1.52-.076,2.052-.114.722-.19,1.064-.8,1.14-.646.038-1.254-.038-1.52.038-.3,0-.456.266-.456.57,0,.342.19.684.57.608.988,0,1.254,0,2.432.038.532,0,1.1.038,1.634.038.57,0,1.1-.038,1.558-.038.152-.228.38-.19.684-.114a4.26,4.26,0,0,0,.8.152c.57.038,1.026.038,1.482.038a4.843,4.843,0,0,0,1.064-.076h.076c.266,0,.38-.266.38-.57,0-.342-.19-.76-.57-.646a2.084,2.084,0,0,1-.494,0,1.433,1.433,0,0,0-.722,0,.834.834,0,0,1-1.026-.8c.076-.608-.19-1.786-.076-2.622-.038-.342-.418-.8,0-1.368a18.2,18.2,0,0,0,0-2.052,22.8,22.8,0,0,0,0-2.28,5.045,5.045,0,0,1,.3-2.28c.152-.38.038-.912.418-1.1.266-.266.228-.456.38-.684a.991.991,0,0,1,.266-.38c.19-.114.3-.608.912-.8a1.009,1.009,0,0,1,.988-.342c.38-.038.722.19.684.418a1.6,1.6,0,0,1,.038,1.026,1.563,1.563,0,0,0,.494,1.406,1.569,1.569,0,0,0,1.71.608c.456.076.874-.076,1.406-.722a1.747,1.747,0,0,0,.532-1.368v-.228A3.03,3.03,0,0,0,198.74-16.53Zm4.636-7.144c.494.418.836.722,1.33.722a3.487,3.487,0,0,0,2.508-.57,2.093,2.093,0,0,0,.912-1.976,3.261,3.261,0,0,0-.684-1.71.69.69,0,0,1-.57-.418.6.6,0,0,0-.266-.266,2.069,2.069,0,0,0-.95-.342.482.482,0,0,0-.228.038,2.953,2.953,0,0,0-1.482.494c-.114.076-.114.3-.532.38-.456.684-.836.912-.57,1.786a2.283,2.283,0,0,0,.114,1.1.644.644,0,0,0,.228.3A.64.64,0,0,1,203.376-23.674Zm6.65,22a2.868,2.868,0,0,0-1.33-.076.679.679,0,0,1-.874-.722c0-.95-.076-1.558,0-2.356a1.108,1.108,0,0,1-.228-.57c0-.228.152-.38.19-.684a6.122,6.122,0,0,1,.038-1.862,9.827,9.827,0,0,1-.038-1.558c-.038-.57-.418-.874.038-1.6.076-.456-.3-.646-.076-1.292.038-.456-.342-.912.038-1.33.038-.76,0-1.824.076-2.318a7.59,7.59,0,0,1,.076-1.33,1.714,1.714,0,0,0,0-.988c-.266-.456-.722-.342-1.026-.228-.76.418-1.026.228-1.444.342a4.186,4.186,0,0,1-1.482.152,13.365,13.365,0,0,1-1.71.114c-.532.038-.912.038-1.52.038-.266-.038-.456.3-.456.608a.518.518,0,0,0,.57.57c.38.076.8-.038,1.33.038.3.038.418.342.532.722.076.418.114,2.356.114,2.85v1.9c-.228.532.152,1.786,0,2.318-.266.874.3,1.482.038,2.242-.266.494.19.988-.038,1.824a9.337,9.337,0,0,0-.152,2.28c.076.494-.076.8-.684.836h-1.444c-.3-.076-.608.3-.608.646,0,.266.19.57.684.57h.57c.76,0,1.178-.038,1.824-.076.8-.038,1.444,0,2.166-.038a18.954,18.954,0,0,0,2.546,0,2.761,2.761,0,0,0,.95.152c.38,0,.76-.038,1.216-.076h.076c.19,0,.3-.266.3-.532v-.114C210.292-1.444,210.216-1.672,210.026-1.672Zm18.734-1.71c-.114.342-.3.38-.456.76a1.384,1.384,0,0,1-.456.418.9.9,0,0,1-.57.038c-.76-.038-1.026-.684-1.064-1.254a22.69,22.69,0,0,1,0-2.28,1.285,1.285,0,0,1-.038-.836,3.207,3.207,0,0,0,.076-.722c-.038-.532-.38-.722-.076-1.33.152-.266-.152-.57,0-1.1.114-.38-.19-.76,0-1.33.114-.38-.038-.95.038-1.52a16.111,16.111,0,0,0-.228-2.508c-.3-.152-.266-.3-.266-.532a.983.983,0,0,0-.266-.684c-.3-.418-.57-.912-.988-1.064-.684-.228-.836-.722-1.292-.684-.608.038-.8-.418-1.33-.3-.57-.076-1.026-.114-1.368-.19a6.27,6.27,0,0,0-2.2.266,9.236,9.236,0,0,0-2.47.722c-.266.038-.342.152-.38.266-.076.114-.114.228-.494.228-.19,0-.342.3-.836.722a2.469,2.469,0,0,0-.76,2.014,2.157,2.157,0,0,0,.57,1.52,2.218,2.218,0,0,0,1.482.646c.608-.038.988.038,1.292-.57a2.3,2.3,0,0,0,.532-1.33,1.429,1.429,0,0,0-.532-1.216.785.785,0,0,1-.3-.95c-.114-.228.532-.836.988-.912a13.918,13.918,0,0,1,1.6-.266c.874.114,1.786.228,2.014.8.684.608.57,1.368.684,2.052a13.287,13.287,0,0,1,0,1.748,3.392,3.392,0,0,1,0,1.52c.076.266,0,.38-.152.646a.847.847,0,0,1-.836.418c-.722.076-.874.38-1.558.266a7.776,7.776,0,0,0-1.786.342,4.757,4.757,0,0,0-1.938.684c-.76.152-.8.646-1.558.988-.76.266-.95.912-1.444,1.672a4.2,4.2,0,0,0-.494,1.976,2.167,2.167,0,0,0,.038.494.721.721,0,0,0,.152.456c.114.228.3.342.19.8.3.57.494,1.1,1.064,1.292a4.894,4.894,0,0,0,1.52.836,7.231,7.231,0,0,0,1.748.266,7.94,7.94,0,0,0,2.166-.38c.076-.228.266-.266.456-.3a.6.6,0,0,0,.456-.19c.3-.266,1.026-.38,1.216-.912a.745.745,0,0,1,1.216.266,3.893,3.893,0,0,0,.95.874,5.247,5.247,0,0,0,2.242.57,1.11,1.11,0,0,0,.342.076c.456,0,.912-.38,1.14-.3a2.185,2.185,0,0,0,1.178-.608c.38-.38.722-.38.988-.95a4.191,4.191,0,0,0,.722-.95.343.343,0,0,0,.038-.19.578.578,0,0,0-.57-.532A.341.341,0,0,0,228.76-3.382Zm-7.3-.494a6.045,6.045,0,0,1-1.1,1.254,3.825,3.825,0,0,1-1.786.532,2.879,2.879,0,0,1-1.9-.874,1.2,1.2,0,0,1-.494-1.064c0-.342-.3-.608-.19-.988.19-.494.038-.608.152-.912-.114-.456.3-.684.532-1.178a2.5,2.5,0,0,1,1.178-1.064c.456-.456.8-.228,1.368-.608.342-.38.874-.19,1.14-.3.684-.19,1.368-.038,1.254.836a.719.719,0,0,0,.038.57.653.653,0,0,1,0,.646.566.566,0,0,0-.076.532.723.723,0,0,1,.038.646c-.038.418.19.532.038.988C221.54-4.484,221.692-4.18,221.464-3.876Zm18.962,2.128a6.11,6.11,0,0,1-1.178-.038c-.494.228-.988-.228-.874-1.254a19.708,19.708,0,0,0-.076-2.508c-.38-.722.076-1.1,0-1.748a13.466,13.466,0,0,1,0-2.774c.114-.836-.228-1.938,0-2.736a16.428,16.428,0,0,1,0-2.736,9.4,9.4,0,0,1,0-2.736,21.907,21.907,0,0,1,0-2.736c.076-1.1-.418-1.482,0-2.09l.038-3.42c-.038-1.026.19-1.292.228-2.318a.74.74,0,0,0-.722-.8.549.549,0,0,0-.266.076c-.684.152-.988.494-1.748.646-.342.038-.722.418-1.292.3a3.552,3.552,0,0,0-1.558.152,11.018,11.018,0,0,0-1.9.076.614.614,0,0,0-.532.608.678.678,0,0,0,.608.646l1.482.114a.507.507,0,0,1,.38.152c.228.266.152.8.19,1.482,0,1.444.3,2.242,0,3.344-.228.874.38,1.254.19,2.014-.228.95.19,1.824-.114,2.812a2.218,2.218,0,0,0,0,.874,1.838,1.838,0,0,1-.076,1.406c0,.8.076,2.622,0,3.382a1.417,1.417,0,0,0,.076.456c.152.266.38.418-.076,1.178a8.952,8.952,0,0,1,0,2.47c.228.95-.228,1.6-.038,2.546a25.143,25.143,0,0,1-.152,2.736c0,.228-.228.342-.684.456-.532,0-.8.038-1.254,0-.456,0-.646.266-.646.532,0,.3.228.646.456.646h.646c.456,0,.912,0,1.71-.038h.228a2.481,2.481,0,0,0,.646-.114c.228-.076.38-.114.532.152.684-.038,1.254-.038,1.786-.038h3.952a.539.539,0,0,0,.532-.608A.545.545,0,0,0,240.426-1.748Zm38.38,10.412a4.19,4.19,0,0,0-1.178-.076,1.415,1.415,0,0,1-1.1-1.064,18.471,18.471,0,0,0-.114-2.546.6.6,0,0,1-.076-.836.532.532,0,0,0,0-.418c0-.3-.266-1.216,0-1.634A9.647,9.647,0,0,1,276.3.95c0-.266.076-1.026.038-1.216a.376.376,0,0,1,0-.57.283.283,0,0,0,.038-.342c-.342-.57.114-.95-.038-1.444-.114-.494.19-1.254-.038-2.014-.152-.532.19-.8,0-1.33a3.939,3.939,0,0,0-.038-.76,1.179,1.179,0,0,1,.076-.684,12.2,12.2,0,0,0,0-2.356c.038-.57-.076-1.33,0-2.394a17.8,17.8,0,0,1,0-2.014c-.342-.418-.19-.646-.076-.95a1.1,1.1,0,0,0,.114-.532c.038-.38.038-1.064.532-1.1.456-.038.874.076,1.6,0,.228.038.342-.228.342-.494s-.114-.57-.342-.608c-.684-.152-.76.152-1.558-.038-.532-.114-1.292-.038-1.71-.152-.874-.152-1.368,0-1.71-.19-.456-.19-.912-.152-1.292-.342A.482.482,0,0,0,272-18.62a.66.66,0,0,0-.646.494c-.228.266.038.912.038,1.444.114.646-.152.8-.532.456a5.189,5.189,0,0,1-.874-.722c-.38,0-.418-.076-.494-.228a.824.824,0,0,0-.266-.228,4.753,4.753,0,0,1-1.178-.57,7.688,7.688,0,0,0-2.47-.456c-.722-.19-1.178.152-1.748.228a7.734,7.734,0,0,0-1.672.76c-.266.114-.342.19-.38.3-.114.152-.076.342-.76.532a11.815,11.815,0,0,0-1.1,1.254c-.114.418-.874,1.026-.836,1.444l-.646,1.6a4.675,4.675,0,0,0-.38,1.634,1.747,1.747,0,0,0,.038.8c.076.342.19.57-.152.874,0,.114-.038.228-.038.342a9.249,9.249,0,0,0,.152,1.33,5.705,5.705,0,0,0,.38,1.634c.266.57.228,1.254.608,1.52.152.266.76,1.064.874,1.368.19.418.76.57,1.1,1.14a.463.463,0,0,0,.456.228c.266.076.57.076.722.57a11.977,11.977,0,0,0,1.672.646c.76-.076.988.456,1.748.228a2.257,2.257,0,0,0,1.672-.19c.722.076.836-.494,1.444-.532a3.694,3.694,0,0,0,1.672-1.026.931.931,0,0,1,.608-.3c.228,0,.342.152.266.532.038.38-.152,1.026.114,1.482a.5.5,0,0,1,.038.456.642.642,0,0,0-.038.646c.19.228.152.342.114.456-.076.114-.152.19-.152.3,0,.494-.038.76-.038,1.178.152.646-.19,1.1,0,1.824a24.2,24.2,0,0,1-.038,2.888c.038.684-.3.874-.608.912a10.122,10.122,0,0,1-1.558.038c-.266,0-.494.342-.494.646a.47.47,0,0,0,.532.494h1.216a6.949,6.949,0,0,0,1.254-.076,4.611,4.611,0,0,0,.684.038c.456,0,.912-.038,1.558-.038.076,0,.152.038.228.038a.642.642,0,0,0,.342-.076.4.4,0,0,1,.418-.038c.38.114.57-.152,1.14.114.988,0,1.672.038,2.812.038.3,0,.418-.266.418-.57C279.224,8.968,279.072,8.664,278.806,8.664ZM271.4-6.308a5.094,5.094,0,0,1,0,1.52,4.573,4.573,0,0,1-.8,1.292,3.572,3.572,0,0,0-.95.8c-.266.266-.494.19-1.064.532a.761.761,0,0,1-.722.152.872.872,0,0,0-.532.038,3.082,3.082,0,0,1-2.014-.722c-.8-.608-.874-1.292-1.216-1.824a5.924,5.924,0,0,1-.57-2.242,4.15,4.15,0,0,1-.152-2.128c.114-.874-.228-1.368.152-2.28a7.82,7.82,0,0,1,.57-2.432,5.187,5.187,0,0,1,1.254-1.9,4.562,4.562,0,0,1,2.166-.76,2.389,2.389,0,0,1,1.6.38c.532.3.874.8,1.216.988a2.734,2.734,0,0,1,.8,1.368,2.4,2.4,0,0,1,.266,1.634c-.114.608.038,1.672-.038,2.47a1.852,1.852,0,0,0,.076.57.581.581,0,0,1,.038.608C271.282-7.752,271.586-7.068,271.4-6.308Zm29.032,4.446a3.349,3.349,0,0,0-1.216.038c-.456.152-1.254-.912-.988-1.444.038-.874-.038-1.9,0-2.546.228-.912-.114-1.14,0-2.09-.19-.722.228-1.178,0-2.09a12.6,12.6,0,0,1,0-2.09c.418-.95-.266-1.558,0-2.09l.038-1.254c.19-.722-.152-1.33.076-1.786a.989.989,0,0,0-.722-1.52.288.288,0,0,0-.152.076,9.61,9.61,0,0,0-1.482.342c-.57.38-.988-.038-1.71.266a10.75,10.75,0,0,0-1.71.076,10.09,10.09,0,0,0-1.52,0,.739.739,0,0,0-.418.684c0,.228.152.494.608.608a4.172,4.172,0,0,0,1.292.076c.646,0,1.026.3.8.988a14.48,14.48,0,0,1,0,1.824,7.466,7.466,0,0,0,0,1.6c.076.57-.152,1.292,0,1.6-.114.3.228,1.178,0,1.558-.152.532.076.836,0,1.6-.228.684.19,1.33,0,1.558-.076.418.114,1.026,0,1.6a3.175,3.175,0,0,0-.874.874l-.38.342a2,2,0,0,0-.532.38,2.644,2.644,0,0,1-2.28.684c-.76.228-1.14-.342-1.444-.342a2.186,2.186,0,0,1-.76-.912,1.226,1.226,0,0,1-.342-1.254A6.576,6.576,0,0,1,286.634-6a6.056,6.056,0,0,0,0-2.356c-.114-.912.228-1.406,0-2.318a15.676,15.676,0,0,0,0-1.9,5.263,5.263,0,0,0,.038-1.9,4.291,4.291,0,0,0,.19-1.482c.114-.836.076-1.292.19-2.052a.582.582,0,0,0-.532-.722.343.343,0,0,0-.19.038c-.494.114-1.254.342-1.634.418-.646-.038-1.33.266-1.634.228a8.21,8.21,0,0,0-1.634-.076,2.605,2.605,0,0,0-1.558.152.714.714,0,0,0-.3.646.609.609,0,0,0,.342.608,2.077,2.077,0,0,0,1.216.152c.456-.038.722.456.646,1.52.114.76-.266,2.356-.038,2.926a17.32,17.32,0,0,0-.038,2.432c-.076.8,0,1.824-.038,2.394.19.836-.152,1.178.038,2.052-.152.95.114,1.14.494,1.976a11.675,11.675,0,0,0,.912,1.33c.266.418.874.57,1.254.988a2.926,2.926,0,0,0,1.52.608,5.049,5.049,0,0,1,1.6.228c.76,0,1.254-.266,1.748-.228.684-.076.836-.418,1.52-.608a3.256,3.256,0,0,0,1.672-.95c.494-.456.874-.266.988.19,0,.418-.076.684-.076,1.178,0,.3.266.532.684.646.076,0,.114.038.19.038.456,0,.912-.456,1.368-.342.38-.076,1.1-.152,1.52-.266a13.973,13.973,0,0,1,1.786,0c.57-.076,1.178.152,1.52-.038a.675.675,0,0,0,.57-.646A.763.763,0,0,0,300.428-1.862Zm4.94-21.812c.494.418.836.722,1.33.722a3.487,3.487,0,0,0,2.508-.57,2.093,2.093,0,0,0,.912-1.976,3.26,3.26,0,0,0-.684-1.71.69.69,0,0,1-.57-.418.6.6,0,0,0-.266-.266,2.069,2.069,0,0,0-.95-.342.482.482,0,0,0-.228.038,2.953,2.953,0,0,0-1.482.494c-.114.076-.114.3-.532.38-.456.684-.836.912-.57,1.786a2.283,2.283,0,0,0,.114,1.1.644.644,0,0,0,.228.3A.64.64,0,0,1,305.368-23.674Zm6.65,22a2.868,2.868,0,0,0-1.33-.076.679.679,0,0,1-.874-.722c0-.95-.076-1.558,0-2.356a1.108,1.108,0,0,1-.228-.57c0-.228.152-.38.19-.684a6.122,6.122,0,0,1,.038-1.862,9.825,9.825,0,0,1-.038-1.558c-.038-.57-.418-.874.038-1.6.076-.456-.3-.646-.076-1.292.038-.456-.342-.912.038-1.33.038-.76,0-1.824.076-2.318a7.593,7.593,0,0,1,.076-1.33,1.714,1.714,0,0,0,0-.988c-.266-.456-.722-.342-1.026-.228-.76.418-1.026.228-1.444.342a4.186,4.186,0,0,1-1.482.152,13.365,13.365,0,0,1-1.71.114c-.532.038-.912.038-1.52.038-.266-.038-.456.3-.456.608a.518.518,0,0,0,.57.57c.38.076.8-.038,1.33.038.3.038.418.342.532.722.076.418.114,2.356.114,2.85v1.9c-.228.532.152,1.786,0,2.318-.266.874.3,1.482.038,2.242-.266.494.19.988-.038,1.824a9.337,9.337,0,0,0-.152,2.28c.076.494-.076.8-.684.836h-1.444c-.3-.076-.608.3-.608.646,0,.266.19.57.684.57h.57c.76,0,1.178-.038,1.824-.076.8-.038,1.444,0,2.166-.038a18.953,18.953,0,0,0,2.546,0,2.762,2.762,0,0,0,.95.152c.38,0,.76-.038,1.216-.076h.076c.19,0,.3-.266.3-.532v-.114C312.284-1.444,312.208-1.672,312.018-1.672Zm18.24-3.04a19.633,19.633,0,0,1,.228-2.546.408.408,0,0,0-.456-.418.685.685,0,0,0-.608.342,1.424,1.424,0,0,0-.19.646,2.236,2.236,0,0,1-.076.646c-.152.494-.114.988-.418,1.368.038.836-.76.874-.912,1.52a2.472,2.472,0,0,1-1.672,1.064c-.874.076-1.558.152-2.584.152a11.436,11.436,0,0,1-1.976,0c-.836.038-1.292-.3-1.064-.646.266-.38.3-1.064.57-1.1.266-.114.266-.57.646-.988a4.677,4.677,0,0,0,.646-.95,1.144,1.144,0,0,0,.152-.532c.038-.342.076-.418.494-.456.266-.38.266-.646.608-.988.152-.266.19-.38.266-.494a2.546,2.546,0,0,1,.38-.456c.418-.076.342-.76.646-.988a5.523,5.523,0,0,0,.646-.988c.266-.418.228-.684.646-.95.228-.076.228-.3.228-.494a.421.421,0,0,1,.19-.38.787.787,0,0,0,.38-.532c.038-.152.152-.3.456-.494.266-.228.228-.608.646-1.026.456-.456.608-.684.646-.988-.076-.228.532-.8.608-.95a.737.737,0,0,0,.342-.38,2.479,2.479,0,0,1,.3-.266c.228-.3.114-.912-.076-.988a1.675,1.675,0,0,0-.532-.114c-.114,0-.228.038-.342.038a2.344,2.344,0,0,1-.912.076,3.5,3.5,0,0,0-1.482.114c-.836.152-1.14-.19-1.672-.076-.95.152-1.976-.076-2.888,0-.38.3-.722-.114-1.33,0a4.918,4.918,0,0,1-1.672,0,5.752,5.752,0,0,0-1.14-.076h-1.406a.964.964,0,0,0-.608.152c-.114.076-.152.266-.114.494.076.76-.266,1.178-.038,1.634.19.342-.266.912-.114,1.406a.422.422,0,0,1,.076.532.675.675,0,0,0-.152.38,1.928,1.928,0,0,1-.076.342.931.931,0,0,0-.038.57.406.406,0,0,1,0,.3.69.69,0,0,0,.076.646c.114.228.988.418,1.1-.038.076-.3-.038-.874.114-1.14a.629.629,0,0,0,0-.456.344.344,0,0,1,.152-.418l.114-.95c.076-.684.646-.722.874-1.1.19-.342.95-.38,1.254-.608a2.8,2.8,0,0,1,1.444-.3,2.479,2.479,0,0,1,1.368-.076,1.211,1.211,0,0,1,1.14,0c.494-.076.8-.114.95,0,.114.076.152.19.114.418-.076.228-.19.76-.646.95-.38.532-.608.646-.646.912a10.784,10.784,0,0,1-1.178,1.634c-.532.418-.8,1.33-1.14,1.634a6.567,6.567,0,0,1-1.1,1.672,12.51,12.51,0,0,0-1.14,1.748,8.171,8.171,0,0,0-.8,1.33c.114.532-.228.76-.8,1.1a.567.567,0,0,0-.114.38.335.335,0,0,1-.342.3c-.19.228-.418.874-.608.95-.418.456-.342.836-.608.95-.266.266-.228.608-.76.912a.5.5,0,0,0-.266.456,1.542,1.542,0,0,0,.19.646.726.726,0,0,0,.57.19,1.426,1.426,0,0,0,.38-.038A6.857,6.857,0,0,1,317-.532a7.233,7.233,0,0,1,2.242-.038c.494.114,1.14-.114,2.2,0a20.577,20.577,0,0,0,2.166,0,7.4,7.4,0,0,1,2.736.038c1.026.076,1.6-.076,2.736.076.076.076.152.076.3.076.3,0,.76-.228.608-.608a12.81,12.81,0,0,0,.038-1.672C329.878-3.42,330.41-3.876,330.258-4.712Zm18.468,0a19.633,19.633,0,0,1,.228-2.546.408.408,0,0,0-.456-.418.685.685,0,0,0-.608.342,1.424,1.424,0,0,0-.19.646,2.236,2.236,0,0,1-.076.646c-.152.494-.114.988-.418,1.368.038.836-.76.874-.912,1.52a2.472,2.472,0,0,1-1.672,1.064c-.874.076-1.558.152-2.584.152a11.436,11.436,0,0,1-1.976,0c-.836.038-1.292-.3-1.064-.646.266-.38.3-1.064.57-1.1.266-.114.266-.57.646-.988a4.677,4.677,0,0,0,.646-.95,1.144,1.144,0,0,0,.152-.532c.038-.342.076-.418.494-.456.266-.38.266-.646.608-.988.152-.266.19-.38.266-.494a2.546,2.546,0,0,1,.38-.456c.418-.076.342-.76.646-.988a5.523,5.523,0,0,0,.646-.988c.266-.418.228-.684.646-.95.228-.076.228-.3.228-.494a.421.421,0,0,1,.19-.38.787.787,0,0,0,.38-.532c.038-.152.152-.3.456-.494.266-.228.228-.608.646-1.026.456-.456.608-.684.646-.988-.076-.228.532-.8.608-.95a.737.737,0,0,0,.342-.38,2.482,2.482,0,0,1,.3-.266c.228-.3.114-.912-.076-.988a1.675,1.675,0,0,0-.532-.114c-.114,0-.228.038-.342.038a2.344,2.344,0,0,1-.912.076,3.5,3.5,0,0,0-1.482.114c-.836.152-1.14-.19-1.672-.076-.95.152-1.976-.076-2.888,0-.38.3-.722-.114-1.33,0a4.918,4.918,0,0,1-1.672,0,5.752,5.752,0,0,0-1.14-.076h-1.406a.964.964,0,0,0-.608.152c-.114.076-.152.266-.114.494.076.76-.266,1.178-.038,1.634.19.342-.266.912-.114,1.406a.422.422,0,0,1,.076.532.675.675,0,0,0-.152.38,1.928,1.928,0,0,1-.076.342.931.931,0,0,0-.038.57.406.406,0,0,1,0,.3.69.69,0,0,0,.076.646c.114.228.988.418,1.1-.038.076-.3-.038-.874.114-1.14a.629.629,0,0,0,0-.456.344.344,0,0,1,.152-.418l.114-.95c.076-.684.646-.722.874-1.1.19-.342.95-.38,1.254-.608a2.8,2.8,0,0,1,1.444-.3,2.479,2.479,0,0,1,1.368-.076,1.211,1.211,0,0,1,1.14,0c.494-.076.8-.114.95,0,.114.076.152.19.114.418-.076.228-.19.76-.646.95-.38.532-.608.646-.646.912a10.784,10.784,0,0,1-1.178,1.634c-.532.418-.8,1.33-1.14,1.634a6.567,6.567,0,0,1-1.1,1.672,12.51,12.51,0,0,0-1.14,1.748,8.171,8.171,0,0,0-.8,1.33c.114.532-.228.76-.8,1.1a.567.567,0,0,0-.114.38.335.335,0,0,1-.342.3c-.19.228-.418.874-.608.95-.418.456-.342.836-.608.95-.266.266-.228.608-.76.912a.5.5,0,0,0-.266.456,1.542,1.542,0,0,0,.19.646.726.726,0,0,0,.57.19,1.426,1.426,0,0,0,.38-.038,6.857,6.857,0,0,1,1.786-.038,7.233,7.233,0,0,1,2.242-.038c.494.114,1.14-.114,2.2,0a20.577,20.577,0,0,0,2.166,0,7.4,7.4,0,0,1,2.736.038c1.026.076,1.6-.076,2.736.076.076.076.152.076.3.076.3,0,.76-.228.608-.608A12.81,12.81,0,0,0,348.5-2.66C348.346-3.42,348.878-3.876,348.726-4.712Zm18.848-.266c-.532.646-.646,1.026-.874,1.254-.152.646-.912.684-1.178,1.216-.684.608-1.026.38-1.482.8a4.283,4.283,0,0,1-1.9.266,3.8,3.8,0,0,1-1.634-.19,2.726,2.726,0,0,1-1.254-.532A2.2,2.2,0,0,1,358.264-3c-.38-.418-.266-.608-.722-1.1-.342-.38-.266-1.064-.456-1.254-.228-.19-.19-.38-.19-.684a1.863,1.863,0,0,0-.114-.722,2.636,2.636,0,0,1-.152-1.482,1.272,1.272,0,0,0-.038-.874,1.6,1.6,0,0,1,0-.608l.038-.152c.266-.342.456-.608.836-.608h2.7c.722-.19.912.114,1.786,0a5.6,5.6,0,0,1,1.786,0c.646.114,1.33-.076,2.356.038a8.942,8.942,0,0,0,2.2-.114c.3.076.646-.3.646-.76a.646.646,0,0,0-.038-.266,2.93,2.93,0,0,0-.608-2.09,1.306,1.306,0,0,1-.3-.532,1.539,1.539,0,0,0-.3-.494c-.3-.114-.266-.532-.722-.95a3.964,3.964,0,0,0-1.33-1.216,8.723,8.723,0,0,0-1.52-.874,2.886,2.886,0,0,0-1.672-.532c-.494.114-1.254-.228-1.634-.228-.076,0-.114.038-.152.038-.684.228-1.064-.076-1.9.19a4.174,4.174,0,0,0-1.748.532c-.418.3-1.292.456-1.6.874-.342.38-1.14.494-1.406,1.1-.266.57-.836.684-1.1,1.368-.266.646-.722.8-.874,1.6a.687.687,0,0,1-.114.722.794.794,0,0,0-.3.494,19.276,19.276,0,0,0-.342,2.128.741.741,0,0,0,.038.3,2.008,2.008,0,0,0-.038.456c0,.532.19.836.228,1.482a2.569,2.569,0,0,0,.532,1.786c.228.8.646.836.836,1.52a3.071,3.071,0,0,0,1.14,1.33.956.956,0,0,0,.456.266c.266.076.456.114.532.608a9.756,9.756,0,0,0,1.976,1.026,5.442,5.442,0,0,0,1.748.494,2.229,2.229,0,0,0,.874.152h.722a1.052,1.052,0,0,1,.342.038,7.024,7.024,0,0,1,.912-.038h.38A3.783,3.783,0,0,0,363.318-.3a4.529,4.529,0,0,0,2.09-.874l.76-.494c.114-.342.57-.57.95-.988.228-.3.532-.646.76-.988.152-.342.494-.456.608-.912.114-.3-.266-.646-.57-.646A.318.318,0,0,0,367.574-4.978Zm-10.45-8.93c.114-.456.076-1.1.456-1.482a8.179,8.179,0,0,1,1.216-1.52,3.049,3.049,0,0,1,1.938-.57,2.788,2.788,0,0,1,1.862.608c.494.3.608.95.988,1.52.418.532.114,1.14.418,1.558a8.467,8.467,0,0,1,.076,1.672c.038.57-.114.76-.912.722-1.064-.038-1.938.038-2.774,0-.608.038-1.9,0-2.622,0-.8,0-1.1-.3-.988-1.178a.96.96,0,0,0,.114-.684A.84.84,0,0,1,357.124-13.908Zm27.17,6.384A5.681,5.681,0,0,0,383-9.69a9.375,9.375,0,0,0-2.356-1.292.729.729,0,0,1-.722-.152,1.5,1.5,0,0,0-.608-.3c-.76.038-1.1-.57-1.6-.532a7.036,7.036,0,0,1-1.6-.646,3.172,3.172,0,0,1-1.14-.912,1.5,1.5,0,0,1-.418-1.368,2.49,2.49,0,0,1,1.1-1.938,5.308,5.308,0,0,1,2.128-.532,3.752,3.752,0,0,1,2.052.456,6.793,6.793,0,0,1,1.672,1.368,2.934,2.934,0,0,1,.608,1.368,6.261,6.261,0,0,0,.152,1.216.462.462,0,0,0,.494.342c.342,0,.646-.19.57-.456,0-.456-.038-.76-.076-1.292a.347.347,0,0,0-.114-.266c-.038-.114-.076-.19.076-.418-.038-.57.076-.836.114-1.9-.038-.3.19-.532.152-.8a.683.683,0,0,0-.57-.342.209.209,0,0,0-.19.114c-.266.228-.266.494-.494.646-.19.076-.342,0-.608-.114a11.6,11.6,0,0,0-1.9-.76,9.768,9.768,0,0,0-1.9-.3h-.152a7.9,7.9,0,0,0-2.166.456,1.191,1.191,0,0,0-.418.3.612.612,0,0,1-.608.228,1.817,1.817,0,0,0-.874.684,7.008,7.008,0,0,0-1.292,1.862,6.646,6.646,0,0,0-.494,2.318,4.093,4.093,0,0,0,.418,2.356,3.007,3.007,0,0,0,1.292,1.6,3.342,3.342,0,0,0,1.634.988c.532.19,1.14.76,1.938.722.418-.076.646.266,1.14.418a5.59,5.59,0,0,1,1.14.3c.266.114.532.038.95.418a.672.672,0,0,0,.3.19c.19.038.342.114.494.456a1.324,1.324,0,0,1,.38,1.1c.114.57-.114.836-.266,1.368a4.33,4.33,0,0,1-1.026,1.026c-.152.3-.266.266-.418.266a.419.419,0,0,0-.342.114,5.761,5.761,0,0,1-1.6.152,4.493,4.493,0,0,1-1.406-.114.654.654,0,0,1-.57-.19,1.994,1.994,0,0,0-.418-.266,4.893,4.893,0,0,1-1.14-.836,4.711,4.711,0,0,1-.8-.988.748.748,0,0,1-.38-.57c-.076-.152-.114-.342-.228-.608a7,7,0,0,1-.38-1.482c.038-.266-.266-.418-.532-.418-.228,0-.456.076-.494.3a8.989,8.989,0,0,0,.038,1.14c.114.342.266.57.076.95a6.138,6.138,0,0,1-.076,1.482c-.152.57-.152,1.1-.266,1.558a.287.287,0,0,0-.038.152c0,.38.722.57.874.3.228-.266.152-.418.532-.722.114-.114.494-.076.912.266.418.418,1.254.494,1.786.8a5.268,5.268,0,0,0,1.216.228,6.517,6.517,0,0,0,1.71.152,12.579,12.579,0,0,0,2.242-.38c.494-.19.95-.228,1.292-.646.266-.342.684-.19.874-.57a1.143,1.143,0,0,1,.456-.418.982.982,0,0,0,.3-.418c.152-.57.76-1.1.8-1.6a.867.867,0,0,1,.152-.722,1.163,1.163,0,0,0,.114-.57v-.114A8.244,8.244,0,0,0,384.294-7.524ZM413.326-3c-.3.076-.418.342-.57.418a.505.505,0,0,1-.266.114.589.589,0,0,0-.38.266c-.076.114-.38.19-.456.266-.342.266-.532.19-1.1.228a1.4,1.4,0,0,1-1.292-.418c-.152-.152-.532-.418-.532-.722a2.428,2.428,0,0,0-.228-.836,3.056,3.056,0,0,1-.114-1.254c.152-.8-.114-1.824.038-2.2-.038-.8,0-1.634,0-2.356-.266-.95.114-1.292-.038-1.976-.152-.38.152-1.786.076-2.242a12.649,12.649,0,0,1,.038-2.394c0-.228.114-.57.836-.608.38.038.532,0,1.254,0,.3,0,.38.152.836-.076.152-.076.342.114.684.076.342,0,.494-.3.494-.608,0-.342-.19-.646-.456-.532a3.132,3.132,0,0,1-.912-.076,1.066,1.066,0,0,0-.532.038.312.312,0,0,1-.266.038c-.494-.152-.57,0-.988-.038-.342-.038-.57,0-.722-.19a.608.608,0,0,1-.152-.418c-.076-.57.076-.8-.076-1.178-.076-.152,0-.266.038-.38a.375.375,0,0,0-.076-.38c-.152-.342.114-.684.076-1.026a5.87,5.87,0,0,1,.114-1.482c.076-.418-.038-.836,0-1.178.038-.266-.228-.38-.456-.38-.19,0-.418.076-.418.3a9.44,9.44,0,0,1-.3,1.292,1.635,1.635,0,0,1-.19.646,2.2,2.2,0,0,0-.266.532c-.3.342-.19.608-.532.874a4.106,4.106,0,0,1-.684.8c-.3.494-.57.532-.874.912-.19.19-.608.266-.988.646-.228.266-.836.19-1.064.418a.638.638,0,0,1-.494.152,3.931,3.931,0,0,0-.456.114c-.608.076-.646.266-.646.494v.152c0,.532.38.532.684.494a3.969,3.969,0,0,1,.95,0c.418.038.608.228.494.836,0,.8-.076,2.166-.038,3.192a8.553,8.553,0,0,1-.038,1.976,1.12,1.12,0,0,0,.038.532c.076.266.228.418.038.836-.19.342.114.684-.038,1.1-.114.57.076.8-.114,1.33a.321.321,0,0,0,0,.266.853.853,0,0,1,.038.646,1.553,1.553,0,0,0,.038.874.42.42,0,0,0,0,.3c0,.152.114.266,0,.494.114.456-.038.912.342,1.368s.342,1.064.874,1.33a1.548,1.548,0,0,0,.418.228c.228.076.38.114.532.532a4.545,4.545,0,0,0,1.52.608,11.268,11.268,0,0,0,1.444.266c.114,0,.228-.038.3-.038.722-.114,1.026-.076,1.482-.152a5.79,5.79,0,0,0,1.368-.456,4.023,4.023,0,0,0,1.254-.722,5.56,5.56,0,0,0,.494-.342c.266-.19.608-.266.646-.608a1.2,1.2,0,0,0-.228-.57A.415.415,0,0,0,413.326-3Zm20.786-6.232a6.738,6.738,0,0,1-.152-1.976c-.114-.38-.152-1.482-.532-1.786a9.339,9.339,0,0,1-.836-1.6c-.228-.418-.912-.8-1.1-1.33-.456-.114-.836-.95-1.368-1.064-.646-.3-.912-.494-1.6-.8-.684-.076-1.292-.494-1.786-.494-.532.114-.912-.19-1.6-.19a1.426,1.426,0,0,0-.38.038h-.494a5.051,5.051,0,0,0-1.444.152,4.912,4.912,0,0,0-1.824.532c-.722.418-1.178.3-1.6.8-.646.19-.874.76-1.406,1.1-.646.266-.722,1.026-1.14,1.33-.38.494-.608,1.292-.988,1.824a.67.67,0,0,0-.152.608,1.758,1.758,0,0,1-.266.95,1.3,1.3,0,0,0-.152.874,2.2,2.2,0,0,1-.038,1.1,2.616,2.616,0,0,0-.076.494,7.619,7.619,0,0,0,.266,1.444c0,.494.532,1.368.532,1.748a7.33,7.33,0,0,0,.988,1.748c.494.19.532.342.57.494a.713.713,0,0,0,.38.684c.494.342.76.8,1.444,1.026a1.619,1.619,0,0,1,.57.342,1.612,1.612,0,0,0,1.026.456c.684.114,1.178.608,1.786.494A8.69,8.69,0,0,0,424.27,0a1.425,1.425,0,0,0,.418-.038h.228c.342,0,.608.038.836.038h.076a1.4,1.4,0,0,0,.836-.228,9.221,9.221,0,0,0,1.786-.494c.608-.076,1.064-.57,1.634-.76a3.614,3.614,0,0,0,1.368-1.1c.418-.152.532-.95,1.14-1.33.152-.38.608-1.14.988-1.976a1.6,1.6,0,0,0,.076-.684.609.609,0,0,1,.3-.684A13.066,13.066,0,0,0,434.112-9.234Zm-5.472,1.6c-.114.532.152,1.368-.152,1.634-.152.646-.076,1.254-.3,1.6-.418.456-.266.8-.57,1.52a2.543,2.543,0,0,1-1.178,1.368,3.256,3.256,0,0,1-1.71.532,2.678,2.678,0,0,1-1.254-.266,3.751,3.751,0,0,1-1.254-1.1l-.418-.57c-.342-.342-.3-.912-.494-1.216-.3-.342-.228-.912-.342-1.33,0-.418-.266-.684-.152-1.368.152-.874-.342-1.786-.114-2.394a3.633,3.633,0,0,1,.114-2.432c-.076-.684.3-.8.152-1.368a4.057,4.057,0,0,1,.3-1.368c0-.646.532-.722.494-1.216-.038-.38.152-.456.38-.608a1.711,1.711,0,0,0,.342-.38.768.768,0,0,1,.57-.456,2.433,2.433,0,0,0,.418-.228,4.948,4.948,0,0,1,1.254-.228,2.684,2.684,0,0,1,1.786.608c.532.57,1.064.874,1.1,1.292.228.608.532.76.57,1.52a10.772,10.772,0,0,0,.3,1.6c.3.266.3.494.228.684a1.625,1.625,0,0,0-.19.684c.076.836.38,1.482.152,1.9C428.564-8.93,428.83-8.132,428.64-7.638ZM12.464,44.5c-.3.076-.418.342-.57.418a.505.505,0,0,1-.266.114.589.589,0,0,0-.38.266c-.076.114-.38.19-.456.266-.342.266-.532.19-1.1.228A1.4,1.4,0,0,1,8.4,45.372c-.152-.152-.532-.418-.532-.722a2.428,2.428,0,0,0-.228-.836,3.056,3.056,0,0,1-.114-1.254c.152-.8-.114-1.824.038-2.2-.038-.8,0-1.634,0-2.356-.266-.95.114-1.292-.038-1.976-.152-.38.152-1.786.076-2.242a12.65,12.65,0,0,1,.038-2.394c0-.228.114-.57.836-.608.38.038.532,0,1.254,0,.3,0,.38.152.836-.076.152-.076.342.114.684.076.342,0,.494-.3.494-.608,0-.342-.19-.646-.456-.532a3.132,3.132,0,0,1-.912-.076,1.066,1.066,0,0,0-.532.038.312.312,0,0,1-.266.038c-.494-.152-.57,0-.988-.038-.342-.038-.57,0-.722-.19a.608.608,0,0,1-.152-.418c-.076-.57.076-.8-.076-1.178-.076-.152,0-.266.038-.38a.375.375,0,0,0-.076-.38c-.152-.342.114-.684.076-1.026a5.87,5.87,0,0,1,.114-1.482c.076-.418-.038-.836,0-1.178.038-.266-.228-.38-.456-.38-.19,0-.418.076-.418.3a9.444,9.444,0,0,1-.3,1.292,1.635,1.635,0,0,1-.19.646,2.2,2.2,0,0,0-.266.532c-.3.342-.19.608-.532.874a4.106,4.106,0,0,1-.684.8c-.3.494-.57.532-.874.912-.19.19-.608.266-.988.646-.228.266-.836.19-1.064.418a.638.638,0,0,1-.494.152,3.93,3.93,0,0,0-.456.114c-.608.076-.646.266-.646.494v.152c0,.532.38.532.684.494a3.969,3.969,0,0,1,.95,0c.418.038.608.228.494.836,0,.8-.076,2.166-.038,3.192a8.554,8.554,0,0,1-.038,1.976,1.12,1.12,0,0,0,.038.532c.076.266.228.418.038.836-.19.342.114.684-.038,1.1-.114.57.076.8-.114,1.33a.321.321,0,0,0,0,.266.853.853,0,0,1,.038.646,1.553,1.553,0,0,0,.038.874.42.42,0,0,0,0,.3c0,.152.114.266,0,.494.114.456-.038.912.342,1.368s.342,1.064.874,1.33a1.548,1.548,0,0,0,.418.228c.228.076.38.114.532.532a4.545,4.545,0,0,0,1.52.608,11.269,11.269,0,0,0,1.444.266c.114,0,.228-.038.3-.038.722-.114,1.026-.076,1.482-.152a5.79,5.79,0,0,0,1.368-.456,4.023,4.023,0,0,0,1.254-.722,5.558,5.558,0,0,0,.494-.342c.266-.19.608-.266.646-.608a1.2,1.2,0,0,0-.228-.57A.415.415,0,0,0,12.464,44.5ZM30.058,30.97c-.3-.608-.3-.836-.722-1.026a3.081,3.081,0,0,0-1.064-.646,3.847,3.847,0,0,0-1.9-.19.566.566,0,0,0-.3.114c-.114.076-.152.152-.57.076a6.291,6.291,0,0,0-1.216.722c-.266.114-.988.76-1.026,1.064a4.43,4.43,0,0,0-.418.608c-.114.19-.228.228-.38.19-.114-.038-.19-.076-.228-.19a3.289,3.289,0,0,1,0-1.1c-.076-.494.152-.874-.038-1.254a.759.759,0,0,0-.646-.494.565.565,0,0,0-.342.076,1.7,1.7,0,0,1-1.292.266,14.586,14.586,0,0,1-1.672.228,3.939,3.939,0,0,1-1.52.114,8.208,8.208,0,0,1-1.368,0c-.532,0-.722.266-.722.57,0,.342.228.722.532.684.456.038.95-.076,1.254-.038.152.038.418-.038.608.076a.857.857,0,0,1,.19.456c.228.76-.038.912.076,1.444a8.722,8.722,0,0,1,.038,2.622.92.92,0,0,0,.114.532.5.5,0,0,1-.114.608c-.038.95,0,1.938-.038,2.774a3.083,3.083,0,0,0,.114.418c.152.228.228.38-.076.836a17.773,17.773,0,0,0,0,2.014c-.038.684-.038,1.52-.076,2.052-.114.722-.19,1.064-.8,1.14-.646.038-1.254-.038-1.52.038-.3,0-.456.266-.456.57,0,.342.19.684.57.608.988,0,1.254,0,2.432.038.532,0,1.1.038,1.634.038.57,0,1.1-.038,1.558-.038.152-.228.38-.19.684-.114a4.26,4.26,0,0,0,.8.152c.57.038,1.026.038,1.482.038a4.843,4.843,0,0,0,1.064-.076h.076c.266,0,.38-.266.38-.57,0-.342-.19-.76-.57-.646a2.084,2.084,0,0,1-.494,0,1.433,1.433,0,0,0-.722,0,.834.834,0,0,1-1.026-.8c.076-.608-.19-1.786-.076-2.622-.038-.342-.418-.8,0-1.368a18.2,18.2,0,0,0,0-2.052c-.114-.836.19-1.368,0-2.28a5.045,5.045,0,0,1,.3-2.28c.152-.38.038-.912.418-1.1.266-.266.228-.456.38-.684a.991.991,0,0,1,.266-.38c.19-.114.3-.608.912-.8a1.009,1.009,0,0,1,.988-.342c.38-.038.722.19.684.418a1.6,1.6,0,0,1,.038,1.026,1.919,1.919,0,0,0,2.2,2.014c.456.076.874-.076,1.406-.722a1.747,1.747,0,0,0,.532-1.368v-.228A3.03,3.03,0,0,0,30.058,30.97ZM50.2,29.564a1.552,1.552,0,0,0-.608-.152c-.266,0-.418.152-.57.038-.266,0-.912,0-1.33-.038-.266.266-.912.076-1.33.038h-.19a3.938,3.938,0,0,1-1.33-.038c-.076,0-.114-.038-.152-.038-.342,0-.494.342-.494.646,0,.342.152.722.494.76a6.044,6.044,0,0,0,1.178,0,.752.752,0,0,1,.76.57c.076.3-.418,1.14-.494,1.71a9.6,9.6,0,0,1-.684,1.672c-.3.874-.494,1.064-.8,1.862-.418.646-.418,1.368-.8,1.938A7.673,7.673,0,0,1,42.826,40.7c-.152.456-.342.608-.532.608-.266,0-.494-.342-.608-.684a1.133,1.133,0,0,0-.266-.608.51.51,0,0,1-.152-.57A1.431,1.431,0,0,0,41,38.76a1.073,1.073,0,0,1-.266-.76,7.931,7.931,0,0,1-.494-1.444c-.114-.456-.684-.608-.532-1.482.038-.228-.152-.38-.3-.608a1.1,1.1,0,0,1-.19-.836c.038-.418-.342-.646-.494-1.292,0-.342-.19-.722-.19-1.064,0-.228.114-.38.456-.494a4.865,4.865,0,0,1,1.292,0,.526.526,0,0,0,.532-.57.646.646,0,0,0-.418-.646,10.467,10.467,0,0,0-2.2,0c-.874.114-1.558-.152-2.546,0a19.459,19.459,0,0,1-2.584,0C32.528,29.6,32,29.45,31.5,29.45a1.122,1.122,0,0,0-.494.076.645.645,0,0,0-.342.608.559.559,0,0,0,.608.608,3.921,3.921,0,0,1,1.368.114c.3.038.418.076.532.38.19.8.912,1.33.8,1.824-.114.228.342.608.456,1.178,0,.57.38.57.456,1.178a3.32,3.32,0,0,0,.608,1.6c.152.76.608.912.57,1.634a4,4,0,0,1,.608,1.6c.38.646.228,1.026.608,1.634a6.536,6.536,0,0,1,.608,1.634c.114.532.494.95.608,1.634a3.375,3.375,0,0,1,.608,1.6c-.076.38.38.76.38,1.444.114.532-.19.646-.152,1.1a1.735,1.735,0,0,1-.19.532,3.71,3.71,0,0,0-.3.874,18.637,18.637,0,0,0-.8,1.938,7.776,7.776,0,0,0-.988,1.748,1.277,1.277,0,0,1-1.1.532A1.086,1.086,0,0,1,34.96,54c-.152-.608-.988-.95-1.634-.988a1.936,1.936,0,0,0-1.558.646c-.456.266-.152,1.1-.38,1.52-.152.874.152,1.178.8,1.786.456.608,1.064.456,1.9.684h.228a4.849,4.849,0,0,0,1.558-.456,2.336,2.336,0,0,0,1.368-1.1,4.141,4.141,0,0,0,1.026-1.52,11.609,11.609,0,0,0,.836-1.9.926.926,0,0,1,.3-.646.4.4,0,0,0,.152-.3c.038-.418.494-1.026.494-1.216a.974.974,0,0,1,.3-.8,1.121,1.121,0,0,0,.19-.57.773.773,0,0,1,.266-.684,1.336,1.336,0,0,0,.266-.342,2.128,2.128,0,0,0,.266-.57c.076-.19.076-.3.228-.646,0-.456.57-.646.532-1.216a.768.768,0,0,1,.19-.76,1.366,1.366,0,0,0,.3-.456,1.217,1.217,0,0,1,.532-1.216,9.1,9.1,0,0,1,.494-1.216c.38-.456.076-.76.532-1.216.266-.57.228-.608.494-1.216a3.158,3.158,0,0,1,.494-1.216,3.433,3.433,0,0,0,.19-.608,1.112,1.112,0,0,1,.342-.608c.228-.114.19-.3.228-.57a.852.852,0,0,1,.266-.646c.266-.19.266-.38.3-.646a2.477,2.477,0,0,1,.19-.57c0-.342.228-.608.532-1.178.152-.152.038-.874.456-1.1,0-.3.19-.494.532-1.064a1.423,1.423,0,0,0,.266-.456c.076-.152.152-.266.608-.19a3.274,3.274,0,0,0,1.1.038c.228-.038.342-.3.342-.57C50.5,29.906,50.388,29.6,50.2,29.564Zm34.732-.038c-.646.038-.95.038-1.482.038a17.135,17.135,0,0,1-1.976,0c-.228.228-.266.19-.418.114-.076-.076-.228-.152-.57-.076-.38-.038-.684-.114-.912-.114a.511.511,0,0,0-.456.19.741.741,0,0,0,.114.95c.456.228.646.038,1.33.114.266-.038.494.038.608.456.152.646-.38,1.482-.57,2.318a7.579,7.579,0,0,0-.874,2.166c-.076.38-.456.532-.456,1.064a10.009,10.009,0,0,0-.418,1.1c-.342.646-.342.988-.608,1.52a8.937,8.937,0,0,1-.8,1.6c-.114.266-.228.38-.38.38s-.342-.19-.38-.456c-.038-.342-.494-.988-.608-1.558-.3-.494-.266-1.1-.532-1.444a.572.572,0,0,1-.266-.532,1.307,1.307,0,0,0-.19-.76c-.456-.646-.342-1.1-.646-1.748-.456-.152-.456-.532-.418-1.254-.114-.494-.646-1.976-.76-2.242-.19-.608.38-.8.8-.646a9.969,9.969,0,0,0,1.026.038c.3.038.494-.3.494-.646a.526.526,0,0,0-.532-.57c-.988,0-1.178.038-1.976.076-.988.038-1.52-.038-2.47,0a7.322,7.322,0,0,0-.912-.038c-.684,0-1.292.038-1.748,0a9.316,9.316,0,0,0-.95-.038h-.342c-.152,0-.3-.038-.532-.038-.342,0-.532.342-.532.684a.529.529,0,0,0,.532.57c.418,0,.722.038,1.178.038a1.737,1.737,0,0,1,.8.8c.418.722.266.912.684,1.672.456.266.342.95.684,1.672.342.76.532,1.6.8,2.052a10.235,10.235,0,0,1,.8,2.052,6.776,6.776,0,0,1,.8,2.052c.38.494.266,1.33.8,1.862.494.228.342.722.3.95a6.843,6.843,0,0,1,.532,1.71c.114.494.418.608.494,1.292-.038.57.342.8,1.444.8.646,0,1.1-.152,1.216-.912.19-.494.114-1.026.494-1.52.228-.456.114-.722.456-1.178a5.258,5.258,0,0,0,.456-1.178c.228-.342.076-.646.456-1.14.3-.646.456-1.216.608-1.6-.076-.3.076-.342.228-.456a1.114,1.114,0,0,0,.152-.3,15.287,15.287,0,0,0,.57-1.634c.076-.114.038-.228.038-.342a.368.368,0,0,1,.266-.266c.266-.38.418-1.1.57-1.292.3-.3.114-.874.456-1.178.3-.3.3-.874.494-1.178.152-.114.076-.418.456-1.064,0-.3.19-.456.532-1.064a1.954,1.954,0,0,1,.988-.646,2.729,2.729,0,0,0,1.216-.076.482.482,0,0,0,.266-.494C85.348,29.868,85.2,29.526,84.93,29.526Zm17.29,14.592c-.114.342-.3.38-.456.76a1.384,1.384,0,0,1-.456.418.9.9,0,0,1-.57.038c-.76-.038-1.026-.684-1.064-1.254a22.685,22.685,0,0,1,0-2.28,1.285,1.285,0,0,1-.038-.836,3.206,3.206,0,0,0,.076-.722c-.038-.532-.38-.722-.076-1.33.152-.266-.152-.57,0-1.1.114-.38-.19-.76,0-1.33.114-.38-.038-.95.038-1.52a16.112,16.112,0,0,0-.228-2.508c-.3-.152-.266-.3-.266-.532a.983.983,0,0,0-.266-.684c-.3-.418-.57-.912-.988-1.064-.684-.228-.836-.722-1.292-.684-.608.038-.8-.418-1.33-.3-.57-.076-1.026-.114-1.368-.19a6.27,6.27,0,0,0-2.2.266,9.236,9.236,0,0,0-2.47.722c-.266.038-.342.152-.38.266-.076.114-.114.228-.494.228-.19,0-.342.3-.836.722a2.469,2.469,0,0,0-.76,2.014,2.157,2.157,0,0,0,.57,1.52,2.218,2.218,0,0,0,1.482.646c.608-.038.988.038,1.292-.57a2.3,2.3,0,0,0,.532-1.33,1.429,1.429,0,0,0-.532-1.216.785.785,0,0,1-.3-.95c-.114-.228.532-.836.988-.912a13.919,13.919,0,0,1,1.6-.266c.874.114,1.786.228,2.014.8.684.608.57,1.368.684,2.052a13.287,13.287,0,0,1,0,1.748,3.392,3.392,0,0,1,0,1.52c.076.266,0,.38-.152.646a.847.847,0,0,1-.836.418c-.722.076-.874.38-1.558.266a7.776,7.776,0,0,0-1.786.342,4.757,4.757,0,0,0-1.938.684c-.76.152-.8.646-1.558.988-.76.266-.95.912-1.444,1.672a4.2,4.2,0,0,0-.494,1.976,2.167,2.167,0,0,0,.038.494.721.721,0,0,0,.152.456c.114.228.3.342.19.8.3.57.494,1.1,1.064,1.292a4.895,4.895,0,0,0,1.52.836,7.231,7.231,0,0,0,1.748.266,7.94,7.94,0,0,0,2.166-.38c.076-.228.266-.266.456-.3a.6.6,0,0,0,.456-.19c.3-.266,1.026-.38,1.216-.912a.745.745,0,0,1,1.216.266,3.893,3.893,0,0,0,.95.874,5.247,5.247,0,0,0,2.242.57,1.11,1.11,0,0,0,.342.076c.456,0,.912-.38,1.14-.3a2.185,2.185,0,0,0,1.178-.608c.38-.38.722-.38.988-.95a4.191,4.191,0,0,0,.722-.95.343.343,0,0,0,.038-.19.578.578,0,0,0-.57-.532A.341.341,0,0,0,102.22,44.118Zm-7.3-.494a6.046,6.046,0,0,1-1.1,1.254,3.825,3.825,0,0,1-1.786.532,2.879,2.879,0,0,1-1.9-.874,1.2,1.2,0,0,1-.494-1.064c0-.342-.3-.608-.19-.988.19-.494.038-.608.152-.912-.114-.456.3-.684.532-1.178a2.5,2.5,0,0,1,1.178-1.064c.456-.456.8-.228,1.368-.608.342-.38.874-.19,1.14-.3.684-.19,1.368-.038,1.254.836a.719.719,0,0,0,.038.57.653.653,0,0,1,0,.646.566.566,0,0,0-.076.532.723.723,0,0,1,.038.646c-.038.418.19.532.038.988C95,43.016,95.152,43.32,94.924,43.624ZM120.08,30.97c-.3-.608-.3-.836-.722-1.026a3.081,3.081,0,0,0-1.064-.646,3.847,3.847,0,0,0-1.9-.19.566.566,0,0,0-.3.114c-.114.076-.152.152-.57.076a6.291,6.291,0,0,0-1.216.722c-.266.114-.988.76-1.026,1.064a4.43,4.43,0,0,0-.418.608c-.114.19-.228.228-.38.19-.114-.038-.19-.076-.228-.19a3.288,3.288,0,0,1,0-1.1c-.076-.494.152-.874-.038-1.254a.759.759,0,0,0-.646-.494.565.565,0,0,0-.342.076,1.7,1.7,0,0,1-1.292.266,14.586,14.586,0,0,1-1.672.228,3.939,3.939,0,0,1-1.52.114,8.208,8.208,0,0,1-1.368,0c-.532,0-.722.266-.722.57,0,.342.228.722.532.684.456.038.95-.076,1.254-.038.152.038.418-.038.608.076a.857.857,0,0,1,.19.456c.228.76-.038.912.076,1.444a8.722,8.722,0,0,1,.038,2.622.92.92,0,0,0,.114.532.5.5,0,0,1-.114.608c-.038.95,0,1.938-.038,2.774a3.084,3.084,0,0,0,.114.418c.152.228.228.38-.076.836a17.773,17.773,0,0,0,0,2.014c-.038.684-.038,1.52-.076,2.052-.114.722-.19,1.064-.8,1.14-.646.038-1.254-.038-1.52.038-.3,0-.456.266-.456.57,0,.342.19.684.57.608.988,0,1.254,0,2.432.038.532,0,1.1.038,1.634.038.57,0,1.1-.038,1.558-.038.152-.228.38-.19.684-.114a4.26,4.26,0,0,0,.8.152c.57.038,1.026.038,1.482.038a4.843,4.843,0,0,0,1.064-.076h.076c.266,0,.38-.266.38-.57,0-.342-.19-.76-.57-.646a2.084,2.084,0,0,1-.494,0,1.433,1.433,0,0,0-.722,0,.834.834,0,0,1-1.026-.8c.076-.608-.19-1.786-.076-2.622-.038-.342-.418-.8,0-1.368a18.193,18.193,0,0,0,0-2.052c-.114-.836.19-1.368,0-2.28a5.045,5.045,0,0,1,.3-2.28c.152-.38.038-.912.418-1.1.266-.266.228-.456.38-.684a.991.991,0,0,1,.266-.38c.19-.114.3-.608.912-.8a1.009,1.009,0,0,1,.988-.342c.38-.038.722.19.684.418a1.6,1.6,0,0,1,.038,1.026,1.919,1.919,0,0,0,2.2,2.014c.456.076.874-.076,1.406-.722a1.747,1.747,0,0,0,.532-1.368v-.228A3.03,3.03,0,0,0,120.08,30.97Zm4.636-7.144c.494.418.836.722,1.33.722a3.487,3.487,0,0,0,2.508-.57A2.093,2.093,0,0,0,129.466,22a3.261,3.261,0,0,0-.684-1.71.69.69,0,0,1-.57-.418.6.6,0,0,0-.266-.266,2.068,2.068,0,0,0-.95-.342.482.482,0,0,0-.228.038,2.953,2.953,0,0,0-1.482.494c-.114.076-.114.3-.532.38-.456.684-.836.912-.57,1.786a2.283,2.283,0,0,0,.114,1.1.644.644,0,0,0,.228.3A.64.64,0,0,1,124.716,23.826Zm6.65,22a2.868,2.868,0,0,0-1.33-.076.679.679,0,0,1-.874-.722c0-.95-.076-1.558,0-2.356a1.108,1.108,0,0,1-.228-.57c0-.228.152-.38.19-.684a6.122,6.122,0,0,1,.038-1.862A9.827,9.827,0,0,1,129.124,38c-.038-.57-.418-.874.038-1.6.076-.456-.3-.646-.076-1.292.038-.456-.342-.912.038-1.33.038-.76,0-1.824.076-2.318a7.593,7.593,0,0,1,.076-1.33,1.714,1.714,0,0,0,0-.988c-.266-.456-.722-.342-1.026-.228-.76.418-1.026.228-1.444.342a4.186,4.186,0,0,1-1.482.152,13.365,13.365,0,0,1-1.71.114c-.532.038-.912.038-1.52.038-.266-.038-.456.3-.456.608a.518.518,0,0,0,.57.57c.38.076.8-.038,1.33.038.3.038.418.342.532.722.076.418.114,2.356.114,2.85v1.9c-.228.532.152,1.786,0,2.318-.266.874.3,1.482.038,2.242-.266.494.19.988-.038,1.824a9.337,9.337,0,0,0-.152,2.28c.076.494-.076.8-.684.836H121.9c-.3-.076-.608.3-.608.646,0,.266.19.57.684.57h.57c.76,0,1.178-.038,1.824-.076.8-.038,1.444,0,2.166-.038a18.954,18.954,0,0,0,2.546,0,2.762,2.762,0,0,0,.95.152c.38,0,.76-.038,1.216-.076h.076c.19,0,.3-.266.3-.532v-.114C131.632,46.056,131.556,45.828,131.366,45.828Zm21.2-7.562a6.738,6.738,0,0,1-.152-1.976c-.114-.38-.152-1.482-.532-1.786a9.34,9.34,0,0,1-.836-1.6c-.228-.418-.912-.8-1.1-1.33-.456-.114-.836-.95-1.368-1.064-.646-.3-.912-.494-1.6-.8-.684-.076-1.292-.494-1.786-.494-.532.114-.912-.19-1.6-.19a1.426,1.426,0,0,0-.38.038h-.494a5.051,5.051,0,0,0-1.444.152,4.912,4.912,0,0,0-1.824.532c-.722.418-1.178.3-1.6.8-.646.19-.874.76-1.406,1.1-.646.266-.722,1.026-1.14,1.33-.38.494-.608,1.292-.988,1.824a.67.67,0,0,0-.152.608,1.757,1.757,0,0,1-.266.95,1.3,1.3,0,0,0-.152.874,2.2,2.2,0,0,1-.038,1.1,2.615,2.615,0,0,0-.076.494,7.619,7.619,0,0,0,.266,1.444c0,.494.532,1.368.532,1.748a7.33,7.33,0,0,0,.988,1.748c.494.19.532.342.57.494a.713.713,0,0,0,.38.684c.494.342.76.8,1.444,1.026a1.619,1.619,0,0,1,.57.342,1.612,1.612,0,0,0,1.026.456c.684.114,1.178.608,1.786.494a8.69,8.69,0,0,0,1.52.228,1.425,1.425,0,0,0,.418-.038h.228c.342,0,.608.038.836.038h.076a1.4,1.4,0,0,0,.836-.228,9.221,9.221,0,0,0,1.786-.494c.608-.076,1.064-.57,1.634-.76a3.614,3.614,0,0,0,1.368-1.1c.418-.152.532-.95,1.14-1.33.152-.38.608-1.14.988-1.976a1.6,1.6,0,0,0,.076-.684.609.609,0,0,1,.3-.684A13.061,13.061,0,0,0,152.57,38.266Zm-5.472,1.6c-.114.532.152,1.368-.152,1.634-.152.646-.076,1.254-.3,1.6-.418.456-.266.8-.57,1.52a2.543,2.543,0,0,1-1.178,1.368,3.256,3.256,0,0,1-1.71.532,2.678,2.678,0,0,1-1.254-.266,3.751,3.751,0,0,1-1.254-1.1l-.418-.57c-.342-.342-.3-.912-.494-1.216-.3-.342-.228-.912-.342-1.33,0-.418-.266-.684-.152-1.368.152-.874-.342-1.786-.114-2.394a3.633,3.633,0,0,1,.114-2.432c-.076-.684.3-.8.152-1.368a4.057,4.057,0,0,1,.3-1.368c0-.646.532-.722.494-1.216-.038-.38.152-.456.38-.608a1.711,1.711,0,0,0,.342-.38.768.768,0,0,1,.57-.456,2.432,2.432,0,0,0,.418-.228,4.948,4.948,0,0,1,1.254-.228,2.684,2.684,0,0,1,1.786.608c.532.57,1.064.874,1.1,1.292.228.608.532.76.57,1.52a10.778,10.778,0,0,0,.3,1.6c.3.266.3.494.228.684a1.625,1.625,0,0,0-.19.684c.076.836.38,1.482.152,1.9C147.022,38.57,147.288,39.368,147.1,39.862Zm27.284,5.776a3.349,3.349,0,0,0-1.216.038c-.456.152-1.254-.912-.988-1.444.038-.874-.038-1.9,0-2.546.228-.912-.114-1.14,0-2.09-.19-.722.228-1.178,0-2.09a12.6,12.6,0,0,1,0-2.09c.418-.95-.266-1.558,0-2.09l.038-1.254c.19-.722-.152-1.33.076-1.786a.989.989,0,0,0-.722-1.52.288.288,0,0,0-.152.076,9.61,9.61,0,0,0-1.482.342c-.57.38-.988-.038-1.71.266a10.75,10.75,0,0,0-1.71.076,10.09,10.09,0,0,0-1.52,0,.739.739,0,0,0-.418.684c0,.228.152.494.608.608a4.172,4.172,0,0,0,1.292.076c.646,0,1.026.3.8.988a14.48,14.48,0,0,1,0,1.824,7.466,7.466,0,0,0,0,1.6c.076.57-.152,1.292,0,1.6-.114.3.228,1.178,0,1.558-.152.532.076.836,0,1.6-.228.684.19,1.33,0,1.558-.076.418.114,1.026,0,1.6a3.176,3.176,0,0,0-.874.874l-.38.342a2,2,0,0,0-.532.38,2.644,2.644,0,0,1-2.28.684c-.76.228-1.14-.342-1.444-.342a2.186,2.186,0,0,1-.76-.912,1.226,1.226,0,0,1-.342-1.254,6.577,6.577,0,0,1-.076-1.482,6.056,6.056,0,0,0,0-2.356c-.114-.912.228-1.406,0-2.318a15.672,15.672,0,0,0,0-1.9,5.262,5.262,0,0,0,.038-1.9,4.29,4.29,0,0,0,.19-1.482c.114-.836.076-1.292.19-2.052a.582.582,0,0,0-.532-.722.343.343,0,0,0-.19.038c-.494.114-1.254.342-1.634.418-.646-.038-1.33.266-1.634.228a8.21,8.21,0,0,0-1.634-.076,2.605,2.605,0,0,0-1.558.152.714.714,0,0,0-.3.646.609.609,0,0,0,.342.608,2.077,2.077,0,0,0,1.216.152c.456-.038.722.456.646,1.52.114.76-.266,2.356-.038,2.926a17.32,17.32,0,0,0-.038,2.432c-.076.8,0,1.824-.038,2.394.19.836-.152,1.178.038,2.052-.152.95.114,1.14.494,1.976a11.675,11.675,0,0,0,.912,1.33c.266.418.874.57,1.254.988a2.926,2.926,0,0,0,1.52.608,5.049,5.049,0,0,1,1.6.228c.76,0,1.254-.266,1.748-.228.684-.076.836-.418,1.52-.608a3.257,3.257,0,0,0,1.672-.95c.494-.456.874-.266.988.19,0,.418-.076.684-.076,1.178,0,.3.266.532.684.646.076,0,.114.038.19.038.456,0,.912-.456,1.368-.342.38-.076,1.1-.152,1.52-.266a13.973,13.973,0,0,1,1.786,0c.57-.076,1.178.152,1.52-.038a.675.675,0,0,0,.57-.646A.763.763,0,0,0,174.382,45.638Zm15.39-5.662a5.681,5.681,0,0,0-1.292-2.166,9.374,9.374,0,0,0-2.356-1.292.729.729,0,0,1-.722-.152,1.5,1.5,0,0,0-.608-.3c-.76.038-1.1-.57-1.6-.532a7.036,7.036,0,0,1-1.6-.646,3.172,3.172,0,0,1-1.14-.912,1.5,1.5,0,0,1-.418-1.368,2.49,2.49,0,0,1,1.1-1.938,5.308,5.308,0,0,1,2.128-.532,3.752,3.752,0,0,1,2.052.456A6.793,6.793,0,0,1,187,31.958a2.935,2.935,0,0,1,.608,1.368,6.26,6.26,0,0,0,.152,1.216.462.462,0,0,0,.494.342c.342,0,.646-.19.57-.456,0-.456-.038-.76-.076-1.292a.347.347,0,0,0-.114-.266c-.038-.114-.076-.19.076-.418-.038-.57.076-.836.114-1.9-.038-.3.19-.532.152-.8a.683.683,0,0,0-.57-.342.209.209,0,0,0-.19.114c-.266.228-.266.494-.494.646-.19.076-.342,0-.608-.114a11.6,11.6,0,0,0-1.9-.76,9.768,9.768,0,0,0-1.9-.3h-.152a7.9,7.9,0,0,0-2.166.456,1.191,1.191,0,0,0-.418.3.612.612,0,0,1-.608.228,1.817,1.817,0,0,0-.874.684,7.007,7.007,0,0,0-1.292,1.862,6.646,6.646,0,0,0-.494,2.318,4.093,4.093,0,0,0,.418,2.356,3.007,3.007,0,0,0,1.292,1.6,3.342,3.342,0,0,0,1.634.988c.532.19,1.14.76,1.938.722.418-.076.646.266,1.14.418a5.59,5.59,0,0,1,1.14.3c.266.114.532.038.95.418a.672.672,0,0,0,.3.19c.19.038.342.114.494.456a1.324,1.324,0,0,1,.38,1.1c.114.57-.114.836-.266,1.368a4.33,4.33,0,0,1-1.026,1.026c-.152.3-.266.266-.418.266a.419.419,0,0,0-.342.114,5.761,5.761,0,0,1-1.6.152,4.493,4.493,0,0,1-1.406-.114.654.654,0,0,1-.57-.19,1.994,1.994,0,0,0-.418-.266,4.893,4.893,0,0,1-1.14-.836,4.71,4.71,0,0,1-.8-.988.748.748,0,0,1-.38-.57c-.076-.152-.114-.342-.228-.608a7,7,0,0,1-.38-1.482c.038-.266-.266-.418-.532-.418-.228,0-.456.076-.494.3a8.989,8.989,0,0,0,.038,1.14c.114.342.266.57.076.95a6.136,6.136,0,0,1-.076,1.482c-.152.57-.152,1.1-.266,1.558a.287.287,0,0,0-.038.152c0,.38.722.57.874.3.228-.266.152-.418.532-.722.114-.114.494-.076.912.266.418.418,1.254.494,1.786.8a5.269,5.269,0,0,0,1.216.228,6.517,6.517,0,0,0,1.71.152,12.579,12.579,0,0,0,2.242-.38c.494-.19.95-.228,1.292-.646.266-.342.684-.19.874-.57a1.142,1.142,0,0,1,.456-.418.982.982,0,0,0,.3-.418c.152-.57.76-1.1.8-1.6a.867.867,0,0,1,.152-.722,1.163,1.163,0,0,0,.114-.57v-.114A8.243,8.243,0,0,0,189.772,39.976ZM228.3,45.9c-.684-.152-1.026.076-1.558-.114-.266-.076-.532-.114-.646-.3a.789.789,0,0,1-.152-.57c.038-.684-.152-1.9-.038-2.66.19-.608-.266-1.026,0-1.6.114-1.026-.076-1.52,0-2.622a15.1,15.1,0,0,1,0-2.622,6.932,6.932,0,0,1,0-2.66,8.616,8.616,0,0,0,0-2.622c.228-.76-.152-1.52,0-2.622a14.733,14.733,0,0,1,.038-3.648c0-.76-.3-1.026,0-1.9.152-.95-.038-1.33.152-2.584.076-.57.152-1.026-.152-1.178-.19-.076-.342-.228-.57-.228a.544.544,0,0,0-.38.114,2.233,2.233,0,0,1-1.33.608c-.494.076-1.33.38-1.672.38a5.411,5.411,0,0,0-1.71.076,13.973,13.973,0,0,0-1.748.038.542.542,0,0,0-.418.57c0,.3.19.608.532.57a11.061,11.061,0,0,0,1.6-.038c.418,0,.684.152.722.76,0,.684,0,1.748.038,2.242.19.152.19.342.114.608a5.4,5.4,0,0,0-.114.95c.038.532-.076,1.064,0,1.558.228.8-.228,1.178,0,1.558.3.418-.114.836.038,1.444a.467.467,0,0,1-.038.494.411.411,0,0,0-.076.494c.114.608-.076.912-.38.912a.778.778,0,0,1-.57-.342,5.062,5.062,0,0,0-1.178-.912,3.7,3.7,0,0,0-1.444-.722,2.621,2.621,0,0,0-1.786-.266c-.76-.228-1.026.19-1.824.228a2.7,2.7,0,0,0-1.558.646c-.722.418-.722.874-1.33.988a2.375,2.375,0,0,0-1.1,1.254c-.076.228-.722,1.178-.836,1.482-.418.456-.228,1.216-.608,1.6a8.977,8.977,0,0,0-.38,1.71,1.012,1.012,0,0,0-.114.456,4.6,4.6,0,0,1,0,1.254,2.275,2.275,0,0,0-.076.456c0,.456.266.684.19,1.216s.342.95.38,1.6a1.1,1.1,0,0,0,.266.76,1,1,0,0,1,.38.722c.19.722.57.912.836,1.33a.969.969,0,0,0,.456.342.671.671,0,0,1,.456.608,3.5,3.5,0,0,0,1.482,1.026,4.216,4.216,0,0,0,1.52.532,4.012,4.012,0,0,0,1.71.19,5.55,5.55,0,0,0,2.546-.494c.3-.266.95-.3,1.254-.684.19-.38.57-.228,1.216-.874.19-.19.532-.038.57.418.114.152,0,.38.076.95-.076.456.456.836.836.836h.152c.532-.266.722-.152,1.1-.342a2.016,2.016,0,0,0,.532-.19c.152-.076.266-.114.57.038.57-.152,1.064-.076,1.824-.228.342.19.836-.152,1.406.038.494-.038.76,0,.874-.152a.571.571,0,0,0,.152-.418C228.532,46.132,228.456,45.942,228.3,45.9Zm-7.3-4.636c.152.646-.152,1.026,0,1.71A2.236,2.236,0,0,1,220.4,44c-.228.494-.76.57-.8.8a4.224,4.224,0,0,1-2.2.722,3.538,3.538,0,0,1-3.42-2.546,8.919,8.919,0,0,1-.57-2.356,11.316,11.316,0,0,1-.152-2.242,9.09,9.09,0,0,1,.152-2.2,4.538,4.538,0,0,1,.57-2.318c-.076-.228.266-.57.494-.95.076-.608.3-.912.76-.912.532-.19,1.368-.988,2.09-.76a5.8,5.8,0,0,1,1.672.456,3.012,3.012,0,0,1,1.292,1.178c.532.684.342.836.608,1.6.3.3.228.38.152.608a1.176,1.176,0,0,0-.038.57c-.114.722.152,1.368,0,2.2a1.341,1.341,0,0,0,.152.646.8.8,0,0,1-.152,1.064C220.97,40.09,221.046,40.508,221.008,41.268ZM233.13,23.826c.494.418.836.722,1.33.722a3.487,3.487,0,0,0,2.508-.57A2.093,2.093,0,0,0,237.88,22a3.261,3.261,0,0,0-.684-1.71.69.69,0,0,1-.57-.418.6.6,0,0,0-.266-.266,2.069,2.069,0,0,0-.95-.342.482.482,0,0,0-.228.038,2.953,2.953,0,0,0-1.482.494c-.114.076-.114.3-.532.38-.456.684-.836.912-.57,1.786a2.283,2.283,0,0,0,.114,1.1.644.644,0,0,0,.228.3A.64.64,0,0,1,233.13,23.826Zm6.65,22a2.868,2.868,0,0,0-1.33-.076.679.679,0,0,1-.874-.722c0-.95-.076-1.558,0-2.356a1.108,1.108,0,0,1-.228-.57c0-.228.152-.38.19-.684a6.122,6.122,0,0,1,.038-1.862A9.827,9.827,0,0,1,237.538,38c-.038-.57-.418-.874.038-1.6.076-.456-.3-.646-.076-1.292.038-.456-.342-.912.038-1.33.038-.76,0-1.824.076-2.318a7.59,7.59,0,0,1,.076-1.33,1.714,1.714,0,0,0,0-.988c-.266-.456-.722-.342-1.026-.228-.76.418-1.026.228-1.444.342a4.186,4.186,0,0,1-1.482.152,13.365,13.365,0,0,1-1.71.114c-.532.038-.912.038-1.52.038-.266-.038-.456.3-.456.608a.518.518,0,0,0,.57.57c.38.076.8-.038,1.33.038.3.038.418.342.532.722.076.418.114,2.356.114,2.85v1.9c-.228.532.152,1.786,0,2.318-.266.874.3,1.482.038,2.242-.266.494.19.988-.038,1.824a9.337,9.337,0,0,0-.152,2.28c.076.494-.076.8-.684.836h-1.444c-.3-.076-.608.3-.608.646,0,.266.19.57.684.57h.57c.76,0,1.178-.038,1.824-.076.8-.038,1.444,0,2.166-.038a18.954,18.954,0,0,0,2.546,0,2.761,2.761,0,0,0,.95.152c.38,0,.76-.038,1.216-.076h.076c.19,0,.3-.266.3-.532v-.114C240.046,46.056,239.97,45.828,239.78,45.828Zm16.226-24.092v-.38a.689.689,0,0,0-.114-.494.682.682,0,0,1-.228-.38.452.452,0,0,0-.152-.418c-.266-.152-.19-.418-.38-.494-.494-.228-.456-.456-.8-.684a3.41,3.41,0,0,0-1.254-.532,3.521,3.521,0,0,0-1.216-.19h-.342a2.739,2.739,0,0,0-1.33.19,1.747,1.747,0,0,1-.494.152,1.121,1.121,0,0,0-.646.19,2.259,2.259,0,0,0-1.026.646c-.19.342-.836.456-.95.874-.114.38-.57.532-.76.988a4.028,4.028,0,0,0-.608,1.14.6.6,0,0,0-.19.456,1.816,1.816,0,0,1-.3.76.535.535,0,0,0-.228.456,1.37,1.37,0,0,1-.076.76c-.342.57.038,1.33-.266,1.672a11.03,11.03,0,0,0-.228,2.318c-.038.722-.228.912-.684.8a9.317,9.317,0,0,1-1.406-.038c-.342-.076-.532.3-.532.646,0,.38.19.722.608.684a6.325,6.325,0,0,0,1.444-.038c.3,0,.57.228.608.912,0,.8,0,1.938.076,2.66.038.266.19.456.19.684a.727.727,0,0,1-.19.456c-.076.646.038,2.242,0,2.66a10.573,10.573,0,0,0,0,1.9,15.669,15.669,0,0,0,0,1.9c.114.418-.152.836.038,1.254.266.57-.114.836-.038,1.14a5.961,5.961,0,0,1,0,.836c0,.228-.114.342-.456.456-.228,0-.456.076-.8.076a1.779,1.779,0,0,1-.836-.038c-.532.038-.684.266-.684.532a.95.95,0,0,0,.152.494.663.663,0,0,0,.57.3,11.084,11.084,0,0,1,1.254-.076.549.549,0,0,0,.266-.076c.114-.038.228-.076.532.076a1.172,1.172,0,0,0,.342.038c.228,0,.418-.038.494-.038h2.014c.494,0,.912-.038,1.33-.076a3.338,3.338,0,0,1,1.064.038,12.468,12.468,0,0,1,1.292-.076c.456,0,.684.114,1.026.114h.114c.19,0,.3-.266.3-.532,0-.3-.152-.646-.38-.608a2.18,2.18,0,0,0-.684-.038c-.532.114-.646-.114-1.178-.076-.418.038-.494-.228-.608-.608a26.53,26.53,0,0,1-.076-2.7.464.464,0,0,1-.152-.342c0-.3.19-.57.152-.684a1.553,1.553,0,0,1-.076-.988.913.913,0,0,0,0-.456c-.152-.646.076-.8,0-1.216-.19-.266-.076-.418,0-.646a1.267,1.267,0,0,0,0-.38c-.152-.532.038-.76,0-1.482a7.343,7.343,0,0,1,.076-1.824,8.789,8.789,0,0,1-.076-2.7c-.152-.57.152-.836.8-.874h1.14c.494.038,1.064,0,1.786,0,.266,0,.418-.342.418-.646,0-.418-.19-.8-.608-.684-.57,0-.95.038-1.482.076a.521.521,0,0,1-.57.038,2.059,2.059,0,0,0-.57-.076c-.532.076-.836-.19-.836-.76-.076-.874,0-1.9,0-3.154-.266-.57,0-1.216-.038-1.748a11.653,11.653,0,0,1,.19-2.242,2.767,2.767,0,0,1,.684-1.938c.342-.228.988-.874,1.52-.646.684.076.988.532.95.95.076.38-.342.76-.342,1.026-.038.266-.418.76-.418,1.254.038.456-.076,1.026.456,1.254.19.57.836.57,1.558.57a1.574,1.574,0,0,0,1.52-.8A2.766,2.766,0,0,0,256.006,21.736Zm11.438,25.308h1.482c.266-.038.608-.038.988-.076a18.3,18.3,0,0,1,2.014-.038l2.09-.076a15.121,15.121,0,0,0,2.432.076.592.592,0,0,0,.608-.57.632.632,0,0,0-.646-.608,10.219,10.219,0,0,1-1.482-.038c-.266-.038-.3-.722-.418-1.064-.114-.722.228-1.254,0-2.014.228-.646-.266-.874,0-1.558.038-.532-.228-1.178,0-1.558a3.573,3.573,0,0,1,0-1.558c.114-.3-.19-.76,0-1.558a2.7,2.7,0,0,0,0-1.558c-.152-.57.228-.988,0-1.558-.038-.38.076-1.368.038-1.938a14.852,14.852,0,0,1,.114-1.862c.152-.342-.418-.722-.8-.684a15.046,15.046,0,0,0-1.52.342c-.8.266-.988.456-1.748.266-.646-.076-1.026.3-1.748.114-.608.038-1.33.266-1.786.038a10.144,10.144,0,0,1-1.52,0c-.646.152-1.254-.114-1.558,0A1.135,1.135,0,0,1,263,28.386c.076-.494-.228-1.064,0-1.824l-.038-.912a15.058,15.058,0,0,1,.3-3.078,3.024,3.024,0,0,1,.836-1.824,11.728,11.728,0,0,1,1.52-1.216c.494-.532,1.216-.266,1.824-.38a2.321,2.321,0,0,1,1.634.228.811.811,0,0,1,.8.836,1.086,1.086,0,0,1-.266,1.064c-.076.3-.342.418-.418.874a1.823,1.823,0,0,0,.532,1.786,1.627,1.627,0,0,0,1.558.342,2.916,2.916,0,0,0,1.71-.608,1.88,1.88,0,0,0,.494-1.558c-.114-.76-.19-1.558-.684-1.938A4.065,4.065,0,0,0,271.13,19a4.162,4.162,0,0,0-2.09-.608,12.589,12.589,0,0,0-1.748-.19h-.266a6.916,6.916,0,0,0-2.622.3c-.228.342-.76.038-1.292.38a2.144,2.144,0,0,1-1.178.57c-.57.228-.874.228-1.064.722-.456.456-.912.456-.95.874-.076.3-.608.722-.76,1.064,0,.646-.532.456-.57,1.216,0,.494-.456.8-.38,1.33s-.19.8-.19,1.368c0,.266-.152.646-.152,1.064a1.028,1.028,0,0,0,.114.57c.19.456-.342.342-.076,1.33.038.532-.38.646-.912.608-.722-.038-1.026-.3-1.482.114a.766.766,0,0,0-.266.608c0,.266.19.532.722.608a9.234,9.234,0,0,0,1.026,0,1.038,1.038,0,0,1,.95,1.14c-.228.988.19,1.33,0,2.356-.19.8.532,1.254,0,1.71a5.423,5.423,0,0,0,0,2.09c.3.874-.38,1.064,0,1.9.38.8-.266,1.026,0,1.862.3.988-.228,1.824-.076,2.774-.038.684,0,1.064-.608.988-.608-.114-.912,0-1.52-.076-.3-.038-.532.3-.532.646,0,.3.228.646.836.646h.114c.722-.038,1.178.038,1.71.038h.3c.836-.038,1.786-.038,2.774-.038h2.47a5.336,5.336,0,0,1,1.558,0,2.729,2.729,0,0,0,.722-.076c.456-.038.38-1.064-.152-1.1-.608-.114-1.254.038-1.634-.076-.342-.114-1.1-.646-.912-1.254a6.66,6.66,0,0,1,0-2.47,22.258,22.258,0,0,1-.038-2.242c-.494-.722.038-.722.038-1.52a4.012,4.012,0,0,1,0-1.9c.3-.722-.494-.912,0-1.9.228-.646-.3-1.976,0-2.812.076-.19-.114-.912.8-.95.76.114,1.672,0,2.47.114a11.506,11.506,0,0,1,2.128.076.821.821,0,0,1,1.026.76,23.15,23.15,0,0,0,0,2.812c-.228.57,0,1.14,0,1.9.114.8-.152,1.406,0,1.9a5.2,5.2,0,0,0,0,1.9c.038.494,0,1.33,0,1.862a7.322,7.322,0,0,0-.076,2.85.793.793,0,0,1-.76.874,5.592,5.592,0,0,1-1.368-.038C266.722,45.638,266.418,47.044,267.444,47.044ZM294.2,43.852c-.3.3-.532.456-.76.722a4.515,4.515,0,0,1-1.216.836,8.8,8.8,0,0,1-1.33.532c-.3,0-.988.152-1.52.19a3.252,3.252,0,0,1-1.406-.19c-.456.114-.608-.418-1.1-.608-.228-.228-.608-.608-.874-.836a.949.949,0,0,1-.646-.988c-.038-.3-.38-.874-.456-1.178-.228-.418-.114-1.026-.266-1.33-.266-.988.038-1.634-.19-2.622a2.971,2.971,0,0,1,.038-1.634c.266-.38-.076-1.33.19-1.748.3-.57.076-1.368.38-1.71a3.124,3.124,0,0,0,.646-1.52c.342-.38.95-1.178,1.406-1.216a6.468,6.468,0,0,1,1.824-.418,9.718,9.718,0,0,1,1.824.38c.342.19,1.178.456,1.1,1.33,0,.532-.152.76-.418.874a3.252,3.252,0,0,0-.38,1.178c-.114.266.266.988.456,1.254a1.99,1.99,0,0,0,1.406.494,1.109,1.109,0,0,0,1.482-.608,1.03,1.03,0,0,0,.456-.8.558.558,0,0,1,.152-.456,3.739,3.739,0,0,0-.684-2.318,4.908,4.908,0,0,0-1.672-1.368c-.684-.532-1.1-.3-2.014-.76a4.156,4.156,0,0,0-1.71-.3,2.019,2.019,0,0,0-.532.038c-.342-.038-.608-.076-.836-.076a2.315,2.315,0,0,0-1.064.266c-.76.3-1.14.114-1.748.532a9.709,9.709,0,0,0-1.6.836c-.494.608-.836.494-1.406,1.14a2.953,2.953,0,0,0-1.14,1.368c-.266.532-.836,1.14-.836,1.6a10.416,10.416,0,0,0-.57,1.748.959.959,0,0,0-.038.646c.076.3.19.57-.152.874.076.8.076,1.9.19,2.28l.532,1.71c.19.836.722.8.836,1.558.152.722.988.646,1.1,1.33.266.646.76.57,1.33,1.1.38.19,1.14.646,1.558.8a5.015,5.015,0,0,0,1.748.532,14.2,14.2,0,0,0,1.862.152c.342.038.608.076.836.076a3.1,3.1,0,0,0,1.254-.266,2.539,2.539,0,0,0,1.9-.57c.342-.342.874-.342,1.672-.95a3.7,3.7,0,0,0,1.33-1.33.14.14,0,0,0,.038-.114.728.728,0,0,0-.646-.646A.525.525,0,0,0,294.2,43.852Zm22.648,1.786a3.349,3.349,0,0,0-1.216.038c-.456.152-1.254-.912-.988-1.444.038-.874-.038-1.9,0-2.546.228-.912-.114-1.14,0-2.09-.19-.722.228-1.178,0-2.09a12.6,12.6,0,0,1,0-2.09c.418-.95-.266-1.558,0-2.09l.038-1.254c.19-.722-.152-1.33.076-1.786a.989.989,0,0,0-.722-1.52.288.288,0,0,0-.152.076,9.61,9.61,0,0,0-1.482.342c-.57.38-.988-.038-1.71.266a10.75,10.75,0,0,0-1.71.076,10.09,10.09,0,0,0-1.52,0,.739.739,0,0,0-.418.684c0,.228.152.494.608.608a4.172,4.172,0,0,0,1.292.076c.646,0,1.026.3.8.988a14.48,14.48,0,0,1,0,1.824,7.466,7.466,0,0,0,0,1.6c.076.57-.152,1.292,0,1.6-.114.3.228,1.178,0,1.558-.152.532.076.836,0,1.6-.228.684.19,1.33,0,1.558-.076.418.114,1.026,0,1.6a3.175,3.175,0,0,0-.874.874l-.38.342a2,2,0,0,0-.532.38,2.644,2.644,0,0,1-2.28.684c-.76.228-1.14-.342-1.444-.342a2.186,2.186,0,0,1-.76-.912,1.226,1.226,0,0,1-.342-1.254,6.576,6.576,0,0,1-.076-1.482,6.056,6.056,0,0,0,0-2.356c-.114-.912.228-1.406,0-2.318a15.676,15.676,0,0,0,0-1.9,5.263,5.263,0,0,0,.038-1.9,4.291,4.291,0,0,0,.19-1.482c.114-.836.076-1.292.19-2.052a.582.582,0,0,0-.532-.722.343.343,0,0,0-.19.038c-.494.114-1.254.342-1.634.418-.646-.038-1.33.266-1.634.228a8.21,8.21,0,0,0-1.634-.076,2.605,2.605,0,0,0-1.558.152.714.714,0,0,0-.3.646.609.609,0,0,0,.342.608,2.077,2.077,0,0,0,1.216.152c.456-.038.722.456.646,1.52.114.76-.266,2.356-.038,2.926a17.32,17.32,0,0,0-.038,2.432c-.076.8,0,1.824-.038,2.394.19.836-.152,1.178.038,2.052-.152.95.114,1.14.494,1.976a11.675,11.675,0,0,0,.912,1.33c.266.418.874.57,1.254.988a2.926,2.926,0,0,0,1.52.608,5.049,5.049,0,0,1,1.6.228c.76,0,1.254-.266,1.748-.228.684-.076.836-.418,1.52-.608a3.256,3.256,0,0,0,1.672-.95c.494-.456.874-.266.988.19,0,.418-.076.684-.076,1.178,0,.3.266.532.684.646.076,0,.114.038.19.038.456,0,.912-.456,1.368-.342.38-.076,1.1-.152,1.52-.266a13.973,13.973,0,0,1,1.786,0c.57-.076,1.178.152,1.52-.038a.675.675,0,0,0,.57-.646A.763.763,0,0,0,316.844,45.638Zm11.324.114a6.11,6.11,0,0,1-1.178-.038c-.494.228-.988-.228-.874-1.254a19.708,19.708,0,0,0-.076-2.508c-.38-.722.076-1.1,0-1.748a13.464,13.464,0,0,1,0-2.774c.114-.836-.228-1.938,0-2.736a16.428,16.428,0,0,1,0-2.736,9.406,9.406,0,0,1,0-2.736,21.907,21.907,0,0,1,0-2.736c.076-1.1-.418-1.482,0-2.09l.038-3.42c-.038-1.026.19-1.292.228-2.318a.74.74,0,0,0-.722-.8.549.549,0,0,0-.266.076c-.684.152-.988.494-1.748.646-.342.038-.722.418-1.292.3a3.552,3.552,0,0,0-1.558.152,11.018,11.018,0,0,0-1.9.076.614.614,0,0,0-.532.608.678.678,0,0,0,.608.646l1.482.114a.507.507,0,0,1,.38.152c.228.266.152.8.19,1.482,0,1.444.3,2.242,0,3.344-.228.874.38,1.254.19,2.014-.228.95.19,1.824-.114,2.812a2.217,2.217,0,0,0,0,.874,1.838,1.838,0,0,1-.076,1.406c0,.8.076,2.622,0,3.382a1.417,1.417,0,0,0,.076.456c.152.266.38.418-.076,1.178a8.951,8.951,0,0,1,0,2.47c.228.95-.228,1.6-.038,2.546a25.14,25.14,0,0,1-.152,2.736c0,.228-.228.342-.684.456-.532,0-.8.038-1.254,0-.456,0-.646.266-.646.532,0,.3.228.646.456.646h.646c.456,0,.912,0,1.71-.038h.228a2.481,2.481,0,0,0,.646-.114c.228-.076.38-.114.532.152.684-.038,1.254-.038,1.786-.038h3.952a.539.539,0,0,0,.532-.608A.545.545,0,0,0,328.168,45.752Zm13.11-1.254c-.3.076-.418.342-.57.418a.505.505,0,0,1-.266.114.589.589,0,0,0-.38.266c-.076.114-.38.19-.456.266-.342.266-.532.19-1.1.228a1.4,1.4,0,0,1-1.292-.418c-.152-.152-.532-.418-.532-.722a2.428,2.428,0,0,0-.228-.836,3.056,3.056,0,0,1-.114-1.254c.152-.8-.114-1.824.038-2.2-.038-.8,0-1.634,0-2.356-.266-.95.114-1.292-.038-1.976-.152-.38.152-1.786.076-2.242a12.649,12.649,0,0,1,.038-2.394c0-.228.114-.57.836-.608.38.038.532,0,1.254,0,.3,0,.38.152.836-.076.152-.076.342.114.684.076.342,0,.494-.3.494-.608,0-.342-.19-.646-.456-.532a3.132,3.132,0,0,1-.912-.076,1.066,1.066,0,0,0-.532.038.312.312,0,0,1-.266.038c-.494-.152-.57,0-.988-.038-.342-.038-.57,0-.722-.19a.608.608,0,0,1-.152-.418c-.076-.57.076-.8-.076-1.178-.076-.152,0-.266.038-.38a.375.375,0,0,0-.076-.38c-.152-.342.114-.684.076-1.026a5.87,5.87,0,0,1,.114-1.482c.076-.418-.038-.836,0-1.178.038-.266-.228-.38-.456-.38-.19,0-.418.076-.418.3a9.44,9.44,0,0,1-.3,1.292,1.635,1.635,0,0,1-.19.646,2.2,2.2,0,0,0-.266.532c-.3.342-.19.608-.532.874a4.106,4.106,0,0,1-.684.8c-.3.494-.57.532-.874.912-.19.19-.608.266-.988.646-.228.266-.836.19-1.064.418a.638.638,0,0,1-.494.152,3.931,3.931,0,0,0-.456.114c-.608.076-.646.266-.646.494v.152c0,.532.38.532.684.494a3.969,3.969,0,0,1,.95,0c.418.038.608.228.494.836,0,.8-.076,2.166-.038,3.192a8.553,8.553,0,0,1-.038,1.976,1.12,1.12,0,0,0,.038.532c.076.266.228.418.038.836-.19.342.114.684-.038,1.1-.114.57.076.8-.114,1.33a.321.321,0,0,0,0,.266.853.853,0,0,1,.038.646,1.553,1.553,0,0,0,.038.874.42.42,0,0,0,0,.3c0,.152.114.266,0,.494.114.456-.038.912.342,1.368s.342,1.064.874,1.33a1.548,1.548,0,0,0,.418.228c.228.076.38.114.532.532a4.545,4.545,0,0,0,1.52.608,11.268,11.268,0,0,0,1.444.266c.114,0,.228-.038.3-.038.722-.114,1.026-.076,1.482-.152a5.79,5.79,0,0,0,1.368-.456,4.023,4.023,0,0,0,1.254-.722,5.559,5.559,0,0,0,.494-.342c.266-.19.608-.266.646-.608a1.2,1.2,0,0,0-.228-.57A.415.415,0,0,0,341.278,44.5Zm20.14-14.934a1.552,1.552,0,0,0-.608-.152c-.266,0-.418.152-.57.038-.266,0-.912,0-1.33-.038-.266.266-.912.076-1.33.038h-.19a3.938,3.938,0,0,1-1.33-.038c-.076,0-.114-.038-.152-.038-.342,0-.494.342-.494.646,0,.342.152.722.494.76a6.044,6.044,0,0,0,1.178,0,.752.752,0,0,1,.76.57c.076.3-.418,1.14-.494,1.71a9.6,9.6,0,0,1-.684,1.672c-.3.874-.494,1.064-.8,1.862-.418.646-.418,1.368-.8,1.938a7.674,7.674,0,0,1-1.026,2.166c-.152.456-.342.608-.532.608-.266,0-.494-.342-.608-.684a1.133,1.133,0,0,0-.266-.608.51.51,0,0,1-.152-.57,1.431,1.431,0,0,0-.266-.684,1.073,1.073,0,0,1-.266-.76,7.932,7.932,0,0,1-.494-1.444c-.114-.456-.684-.608-.532-1.482.038-.228-.152-.38-.3-.608a1.1,1.1,0,0,1-.19-.836c.038-.418-.342-.646-.494-1.292,0-.342-.19-.722-.19-1.064,0-.228.114-.38.456-.494a4.865,4.865,0,0,1,1.292,0,.526.526,0,0,0,.532-.57.646.646,0,0,0-.418-.646,10.467,10.467,0,0,0-2.2,0c-.874.114-1.558-.152-2.546,0a19.459,19.459,0,0,1-2.584,0c-.532.038-1.064-.114-1.558-.114a1.122,1.122,0,0,0-.494.076.645.645,0,0,0-.342.608.559.559,0,0,0,.608.608,3.921,3.921,0,0,1,1.368.114c.3.038.418.076.532.38.19.8.912,1.33.8,1.824-.114.228.342.608.456,1.178,0,.57.38.57.456,1.178a3.32,3.32,0,0,0,.608,1.6c.152.76.608.912.57,1.634a4,4,0,0,1,.608,1.6c.38.646.228,1.026.608,1.634a6.536,6.536,0,0,1,.608,1.634c.114.532.494.95.608,1.634a3.376,3.376,0,0,1,.608,1.6c-.076.38.38.76.38,1.444.114.532-.19.646-.152,1.1a1.735,1.735,0,0,1-.19.532,3.709,3.709,0,0,0-.3.874,18.645,18.645,0,0,0-.8,1.938,7.776,7.776,0,0,0-.988,1.748,1.277,1.277,0,0,1-1.1.532A1.086,1.086,0,0,1,346.18,54c-.152-.608-.988-.95-1.634-.988a1.936,1.936,0,0,0-1.558.646c-.456.266-.152,1.1-.38,1.52-.152.874.152,1.178.8,1.786.456.608,1.064.456,1.9.684h.228a4.849,4.849,0,0,0,1.558-.456,2.336,2.336,0,0,0,1.368-1.1,4.141,4.141,0,0,0,1.026-1.52,11.611,11.611,0,0,0,.836-1.9.926.926,0,0,1,.3-.646.4.4,0,0,0,.152-.3c.038-.418.494-1.026.494-1.216a.974.974,0,0,1,.3-.8,1.121,1.121,0,0,0,.19-.57.773.773,0,0,1,.266-.684,1.336,1.336,0,0,0,.266-.342,2.128,2.128,0,0,0,.266-.57c.076-.19.076-.3.228-.646,0-.456.57-.646.532-1.216a.768.768,0,0,1,.19-.76,1.366,1.366,0,0,0,.3-.456,1.217,1.217,0,0,1,.532-1.216,9.1,9.1,0,0,1,.494-1.216c.38-.456.076-.76.532-1.216.266-.57.228-.608.494-1.216a3.157,3.157,0,0,1,.494-1.216,3.434,3.434,0,0,0,.19-.608,1.112,1.112,0,0,1,.342-.608c.228-.114.19-.3.228-.57a.852.852,0,0,1,.266-.646c.266-.19.266-.38.3-.646a2.477,2.477,0,0,1,.19-.57c0-.342.228-.608.532-1.178.152-.152.038-.874.456-1.1,0-.3.19-.494.532-1.064a1.424,1.424,0,0,0,.266-.456c.076-.152.152-.266.608-.19a3.274,3.274,0,0,0,1.1.038c.228-.038.342-.3.342-.57C361.722,29.906,361.608,29.6,361.418,29.564Zm25.65,16.188a6.11,6.11,0,0,1-1.178-.038c-.494.228-.988-.228-.874-1.254a19.708,19.708,0,0,0-.076-2.508c-.38-.722.076-1.1,0-1.748a13.464,13.464,0,0,1,0-2.774c.114-.836-.228-1.938,0-2.736a16.428,16.428,0,0,1,0-2.736,9.406,9.406,0,0,1,0-2.736,21.907,21.907,0,0,1,0-2.736c.076-1.1-.418-1.482,0-2.09l.038-3.42c-.038-1.026.19-1.292.228-2.318a.74.74,0,0,0-.722-.8.549.549,0,0,0-.266.076c-.684.152-.988.494-1.748.646-.342.038-.722.418-1.292.3a3.552,3.552,0,0,0-1.558.152,11.018,11.018,0,0,0-1.9.076.614.614,0,0,0-.532.608.678.678,0,0,0,.608.646l1.482.114a.507.507,0,0,1,.38.152c.228.266.152.8.19,1.482,0,1.444.3,2.242,0,3.344-.228.874.38,1.254.19,2.014-.228.95.19,1.824-.114,2.812a2.217,2.217,0,0,0,0,.874,1.838,1.838,0,0,1-.076,1.406c0,.8.076,2.622,0,3.382a1.417,1.417,0,0,0,.076.456c.152.266.38.418-.076,1.178a8.951,8.951,0,0,1,0,2.47c.228.95-.228,1.6-.038,2.546a25.14,25.14,0,0,1-.152,2.736c0,.228-.228.342-.684.456-.532,0-.8.038-1.254,0-.456,0-.646.266-.646.532,0,.3.228.646.456.646h.646c.456,0,.912,0,1.71-.038h.228a2.481,2.481,0,0,0,.646-.114c.228-.076.38-.114.532.152.684-.038,1.254-.038,1.786-.038h3.952a.539.539,0,0,0,.532-.608A.545.545,0,0,0,387.068,45.752Zm18.392-3.23c-.532.646-.646,1.026-.874,1.254-.152.646-.912.684-1.178,1.216-.684.608-1.026.38-1.482.8a4.283,4.283,0,0,1-1.9.266,3.8,3.8,0,0,1-1.634-.19,2.726,2.726,0,0,1-1.254-.532,2.2,2.2,0,0,1-.988-.836c-.38-.418-.266-.608-.722-1.1-.342-.38-.266-1.064-.456-1.254-.228-.19-.19-.38-.19-.684a1.863,1.863,0,0,0-.114-.722,2.636,2.636,0,0,1-.152-1.482,1.272,1.272,0,0,0-.038-.874,1.6,1.6,0,0,1,0-.608l.038-.152c.266-.342.456-.608.836-.608h2.7c.722-.19.912.114,1.786,0a5.6,5.6,0,0,1,1.786,0c.646.114,1.33-.076,2.356.038a8.942,8.942,0,0,0,2.2-.114c.3.076.646-.3.646-.76a.646.646,0,0,0-.038-.266,2.93,2.93,0,0,0-.608-2.09,1.306,1.306,0,0,1-.3-.532,1.539,1.539,0,0,0-.3-.494c-.3-.114-.266-.532-.722-.95a3.964,3.964,0,0,0-1.33-1.216,8.723,8.723,0,0,0-1.52-.874,2.886,2.886,0,0,0-1.672-.532c-.494.114-1.254-.228-1.634-.228-.076,0-.114.038-.152.038-.684.228-1.064-.076-1.9.19a4.174,4.174,0,0,0-1.748.532c-.418.3-1.292.456-1.6.874-.342.38-1.14.494-1.406,1.1-.266.57-.836.684-1.1,1.368-.266.646-.722.8-.874,1.6a.687.687,0,0,1-.114.722.794.794,0,0,0-.3.494,19.276,19.276,0,0,0-.342,2.128.741.741,0,0,0,.038.3,2.008,2.008,0,0,0-.038.456c0,.532.19.836.228,1.482a2.569,2.569,0,0,0,.532,1.786c.228.8.646.836.836,1.52a3.07,3.07,0,0,0,1.14,1.33.956.956,0,0,0,.456.266c.266.076.456.114.532.608a9.756,9.756,0,0,0,1.976,1.026,5.442,5.442,0,0,0,1.748.494,2.229,2.229,0,0,0,.874.152h.722a1.052,1.052,0,0,1,.342.038,7.024,7.024,0,0,1,.912-.038h.38A3.783,3.783,0,0,0,401.2,47.2a4.529,4.529,0,0,0,2.09-.874l.76-.494c.114-.342.57-.57.95-.988.228-.3.532-.646.76-.988.152-.342.494-.456.608-.912.114-.3-.266-.646-.57-.646A.318.318,0,0,0,405.46,42.522Zm-10.45-8.93c.114-.456.076-1.1.456-1.482a8.179,8.179,0,0,1,1.216-1.52,3.049,3.049,0,0,1,1.938-.57,2.788,2.788,0,0,1,1.862.608c.494.3.608.95.988,1.52.418.532.114,1.14.418,1.558a8.467,8.467,0,0,1,.076,1.672c.038.57-.114.76-.912.722-1.064-.038-1.938.038-2.774,0-.608.038-1.9,0-2.622,0-.8,0-1.1-.3-.988-1.178a.96.96,0,0,0,.114-.684A.84.84,0,0,1,395.01,33.592Zm31.426-4.066c-.646.038-.95.038-1.482.038a17.135,17.135,0,0,1-1.976,0c-.228.228-.266.19-.418.114-.076-.076-.228-.152-.57-.076-.38-.038-.684-.114-.912-.114a.511.511,0,0,0-.456.19.741.741,0,0,0,.114.95c.456.228.646.038,1.33.114.266-.038.494.038.608.456.152.646-.38,1.482-.57,2.318a7.579,7.579,0,0,0-.874,2.166c-.076.38-.456.532-.456,1.064a10.009,10.009,0,0,0-.418,1.1c-.342.646-.342.988-.608,1.52a8.938,8.938,0,0,1-.8,1.6c-.114.266-.228.38-.38.38s-.342-.19-.38-.456c-.038-.342-.494-.988-.608-1.558-.3-.494-.266-1.1-.532-1.444a.572.572,0,0,1-.266-.532,1.307,1.307,0,0,0-.19-.76c-.456-.646-.342-1.1-.646-1.748-.456-.152-.456-.532-.418-1.254-.114-.494-.646-1.976-.76-2.242-.19-.608.38-.8.8-.646a9.969,9.969,0,0,0,1.026.038c.3.038.494-.3.494-.646a.526.526,0,0,0-.532-.57c-.988,0-1.178.038-1.976.076-.988.038-1.52-.038-2.47,0a7.322,7.322,0,0,0-.912-.038c-.684,0-1.292.038-1.748,0a9.315,9.315,0,0,0-.95-.038h-.342c-.152,0-.3-.038-.532-.038-.342,0-.532.342-.532.684a.529.529,0,0,0,.532.57c.418,0,.722.038,1.178.038a1.737,1.737,0,0,1,.8.8c.418.722.266.912.684,1.672.456.266.342.95.684,1.672.342.76.532,1.6.8,2.052a10.236,10.236,0,0,1,.8,2.052,6.776,6.776,0,0,1,.8,2.052c.38.494.266,1.33.8,1.862.494.228.342.722.3.95A6.843,6.843,0,0,1,415,45.6c.114.494.418.608.494,1.292-.038.57.342.8,1.444.8.646,0,1.1-.152,1.216-.912.19-.494.114-1.026.494-1.52.228-.456.114-.722.456-1.178a5.259,5.259,0,0,0,.456-1.178c.228-.342.076-.646.456-1.14.3-.646.456-1.216.608-1.6-.076-.3.076-.342.228-.456a1.114,1.114,0,0,0,.152-.3,15.293,15.293,0,0,0,.57-1.634c.076-.114.038-.228.038-.342a.368.368,0,0,1,.266-.266c.266-.38.418-1.1.57-1.292.3-.3.114-.874.456-1.178.3-.3.3-.874.494-1.178.152-.114.076-.418.456-1.064,0-.3.19-.456.532-1.064a1.954,1.954,0,0,1,.988-.646,2.729,2.729,0,0,0,1.216-.076.482.482,0,0,0,.266-.494C426.854,29.868,426.7,29.526,426.436,29.526Zm16.8,13c-.532.646-.646,1.026-.874,1.254-.152.646-.912.684-1.178,1.216-.684.608-1.026.38-1.482.8a4.283,4.283,0,0,1-1.9.266,3.8,3.8,0,0,1-1.634-.19,2.726,2.726,0,0,1-1.254-.532,2.2,2.2,0,0,1-.988-.836c-.38-.418-.266-.608-.722-1.1-.342-.38-.266-1.064-.456-1.254-.228-.19-.19-.38-.19-.684a1.863,1.863,0,0,0-.114-.722,2.636,2.636,0,0,1-.152-1.482,1.272,1.272,0,0,0-.038-.874,1.6,1.6,0,0,1,0-.608l.038-.152c.266-.342.456-.608.836-.608h2.7c.722-.19.912.114,1.786,0a5.6,5.6,0,0,1,1.786,0c.646.114,1.33-.076,2.356.038a8.942,8.942,0,0,0,2.2-.114c.3.076.646-.3.646-.76a.646.646,0,0,0-.038-.266,2.93,2.93,0,0,0-.608-2.09,1.306,1.306,0,0,1-.3-.532,1.54,1.54,0,0,0-.3-.494c-.3-.114-.266-.532-.722-.95a3.964,3.964,0,0,0-1.33-1.216,8.723,8.723,0,0,0-1.52-.874,2.886,2.886,0,0,0-1.672-.532c-.494.114-1.254-.228-1.634-.228-.076,0-.114.038-.152.038-.684.228-1.064-.076-1.9.19a4.174,4.174,0,0,0-1.748.532c-.418.3-1.292.456-1.6.874-.342.38-1.14.494-1.406,1.1-.266.57-.836.684-1.1,1.368-.266.646-.722.8-.874,1.6a.687.687,0,0,1-.114.722.794.794,0,0,0-.3.494,19.276,19.276,0,0,0-.342,2.128.741.741,0,0,0,.038.3,2.008,2.008,0,0,0-.038.456c0,.532.19.836.228,1.482a2.569,2.569,0,0,0,.532,1.786c.228.8.646.836.836,1.52a3.07,3.07,0,0,0,1.14,1.33.956.956,0,0,0,.456.266c.266.076.456.114.532.608a9.756,9.756,0,0,0,1.976,1.026,5.442,5.442,0,0,0,1.748.494,2.229,2.229,0,0,0,.874.152h.722a1.052,1.052,0,0,1,.342.038,7.024,7.024,0,0,1,.912-.038h.38a3.783,3.783,0,0,0,1.368-.266,4.529,4.529,0,0,0,2.09-.874l.76-.494c.114-.342.57-.57.95-.988.228-.3.532-.646.76-.988.152-.342.494-.456.608-.912.114-.3-.266-.646-.57-.646A.318.318,0,0,0,443.232,42.522Zm-10.45-8.93c.114-.456.076-1.1.456-1.482a8.179,8.179,0,0,1,1.216-1.52,3.049,3.049,0,0,1,1.938-.57,2.788,2.788,0,0,1,1.862.608c.494.3.608.95.988,1.52.418.532.114,1.14.418,1.558a8.467,8.467,0,0,1,.076,1.672c.038.57-.114.76-.912.722-1.064-.038-1.938.038-2.774,0-.608.038-1.9,0-2.622,0-.8,0-1.1-.3-.988-1.178a.96.96,0,0,0,.114-.684A.84.84,0,0,1,432.782,33.592Zm23.1,12.16a6.11,6.11,0,0,1-1.178-.038c-.494.228-.988-.228-.874-1.254a19.708,19.708,0,0,0-.076-2.508c-.38-.722.076-1.1,0-1.748a13.464,13.464,0,0,1,0-2.774c.114-.836-.228-1.938,0-2.736a16.428,16.428,0,0,1,0-2.736,9.406,9.406,0,0,1,0-2.736,21.907,21.907,0,0,1,0-2.736c.076-1.1-.418-1.482,0-2.09l.038-3.42c-.038-1.026.19-1.292.228-2.318a.74.74,0,0,0-.722-.8.549.549,0,0,0-.266.076c-.684.152-.988.494-1.748.646-.342.038-.722.418-1.292.3a3.552,3.552,0,0,0-1.558.152,11.018,11.018,0,0,0-1.9.076.614.614,0,0,0-.532.608.678.678,0,0,0,.608.646l1.482.114a.507.507,0,0,1,.38.152c.228.266.152.8.19,1.482,0,1.444.3,2.242,0,3.344-.228.874.38,1.254.19,2.014-.228.95.19,1.824-.114,2.812a2.217,2.217,0,0,0,0,.874,1.838,1.838,0,0,1-.076,1.406c0,.8.076,2.622,0,3.382a1.417,1.417,0,0,0,.076.456c.152.266.38.418-.076,1.178a8.951,8.951,0,0,1,0,2.47c.228.95-.228,1.6-.038,2.546a25.14,25.14,0,0,1-.152,2.736c0,.228-.228.342-.684.456-.532,0-.8.038-1.254,0-.456,0-.646.266-.646.532,0,.3.228.646.456.646h.646c.456,0,.912,0,1.71-.038h.228a2.481,2.481,0,0,0,.646-.114c.228-.076.38-.114.532.152.684-.038,1.254-.038,1.786-.038h3.952a.539.539,0,0,0,.532-.608A.545.545,0,0,0,455.886,45.752Zm15.656-5.776a5.681,5.681,0,0,0-1.292-2.166,9.375,9.375,0,0,0-2.356-1.292.729.729,0,0,1-.722-.152,1.5,1.5,0,0,0-.608-.3c-.76.038-1.1-.57-1.6-.532a7.036,7.036,0,0,1-1.6-.646,3.172,3.172,0,0,1-1.14-.912,1.5,1.5,0,0,1-.418-1.368,2.49,2.49,0,0,1,1.1-1.938,5.308,5.308,0,0,1,2.128-.532,3.752,3.752,0,0,1,2.052.456,6.793,6.793,0,0,1,1.672,1.368,2.934,2.934,0,0,1,.608,1.368,6.261,6.261,0,0,0,.152,1.216.462.462,0,0,0,.494.342c.342,0,.646-.19.57-.456,0-.456-.038-.76-.076-1.292a.347.347,0,0,0-.114-.266c-.038-.114-.076-.19.076-.418-.038-.57.076-.836.114-1.9-.038-.3.19-.532.152-.8a.683.683,0,0,0-.57-.342.209.209,0,0,0-.19.114c-.266.228-.266.494-.494.646-.19.076-.342,0-.608-.114a11.6,11.6,0,0,0-1.9-.76,9.768,9.768,0,0,0-1.9-.3h-.152a7.9,7.9,0,0,0-2.166.456,1.191,1.191,0,0,0-.418.3.612.612,0,0,1-.608.228,1.817,1.817,0,0,0-.874.684,7.008,7.008,0,0,0-1.292,1.862,6.646,6.646,0,0,0-.494,2.318A4.093,4.093,0,0,0,459.5,37.2a3.007,3.007,0,0,0,1.292,1.6,3.342,3.342,0,0,0,1.634.988c.532.19,1.14.76,1.938.722.418-.076.646.266,1.14.418a5.59,5.59,0,0,1,1.14.3c.266.114.532.038.95.418a.672.672,0,0,0,.3.19c.19.038.342.114.494.456a1.324,1.324,0,0,1,.38,1.1c.114.57-.114.836-.266,1.368a4.33,4.33,0,0,1-1.026,1.026c-.152.3-.266.266-.418.266a.419.419,0,0,0-.342.114,5.761,5.761,0,0,1-1.6.152,4.493,4.493,0,0,1-1.406-.114.654.654,0,0,1-.57-.19,1.994,1.994,0,0,0-.418-.266,4.893,4.893,0,0,1-1.14-.836,4.711,4.711,0,0,1-.8-.988.748.748,0,0,1-.38-.57c-.076-.152-.114-.342-.228-.608a7,7,0,0,1-.38-1.482c.038-.266-.266-.418-.532-.418-.228,0-.456.076-.494.3a8.989,8.989,0,0,0,.038,1.14c.114.342.266.57.076.95a6.138,6.138,0,0,1-.076,1.482c-.152.57-.152,1.1-.266,1.558a.287.287,0,0,0-.038.152c0,.38.722.57.874.3.228-.266.152-.418.532-.722.114-.114.494-.076.912.266.418.418,1.254.494,1.786.8a5.268,5.268,0,0,0,1.216.228,6.517,6.517,0,0,0,1.71.152,12.579,12.579,0,0,0,2.242-.38c.494-.19.95-.228,1.292-.646.266-.342.684-.19.874-.57a1.143,1.143,0,0,1,.456-.418.982.982,0,0,0,.3-.418c.152-.57.76-1.1.8-1.6a.867.867,0,0,1,.152-.722,1.163,1.163,0,0,0,.114-.57v-.114A8.244,8.244,0,0,0,471.542,39.976Zm4.712-15.922c.19.532.266,1.33.418,1.672.266.152.266.3.266.57a2.132,2.132,0,0,0,.076.8c.152.494.608.912.3,1.368.152.418.418,1.064.266,1.368a2.673,2.673,0,0,1,.228,1.368c-.038.342.532.722.19,1.368a2.262,2.262,0,0,0,.152,1.406c.114,1.14-.038,1.672.114,2.774.114.8-.266,1.254-.038,1.824a.7.7,0,0,0,1.33-.19,5.859,5.859,0,0,0,0-1.824,20.9,20.9,0,0,0,.038-2.66,3.133,3.133,0,0,1,.152-1.406c.152-.532-.076-.874.19-1.406a5.321,5.321,0,0,0,.266-1.406,6.646,6.646,0,0,0,.266-1.368,3.323,3.323,0,0,0,.3-1.406c.228-.456.038-.646.266-1.14a1.009,1.009,0,0,0,.076-.646.741.741,0,0,1,.19-.494c.114-.152,0-.3-.038-.456s-.038-.342.266-.532c.228-.3,0-.608.152-1.33a2.934,2.934,0,0,0,.076-.57,3.152,3.152,0,0,0-.608-1.786c-.076-.266-.3-.266-.532-.342a.48.48,0,0,1-.38-.38,5.015,5.015,0,0,0-1.216-.342,1.11,1.11,0,0,0-.342.076h-.3a2.027,2.027,0,0,0-1.786,1.026,3.445,3.445,0,0,0-.57,1.824v.3a6.238,6.238,0,0,0-.076.874A1.429,1.429,0,0,0,476.254,24.054Zm5.472,20.634c-.114-.342.038-1.1-.266-1.292a.874.874,0,0,1-.38-.532c-.076-.152-.114-.266-.342-.342a.971.971,0,0,1-.608-.456,1.081,1.081,0,0,0-.912-.3,2.939,2.939,0,0,0-3.268,2.47,1.908,1.908,0,0,0,.076.456,2.766,2.766,0,0,0,.608,1.786c.38.076.494.152.532.266s.038.266.19.342a5.268,5.268,0,0,0,1.71.342c.76-.152,1.558-.228,1.786-.836a1.26,1.26,0,0,1,.342-.494c.152-.152.3-.266.266-.494-.038-.38.3-.418.3-.76C481.764,44.8,481.726,44.764,481.726,44.688Z" transform="translate(-0.38 29.64)"/>
</svg>
