<svg xmlns="http://www.w3.org/2000/svg" width="475.038" height="86.944" viewBox="0 0 475.038 86.944">
  <path id="パス_72333" data-name="パス 72333" d="M28.538-28.31a5.366,5.366,0,0,0-.836.038c-.418.038-.95,0-1.482,0a3.26,3.26,0,0,0-.874.076c-.912-.076-1.71-.038-2.28-.076H22.8a8.639,8.639,0,0,1-1.672-.038h-.076a.587.587,0,0,0-.532.608.568.568,0,0,0,.608.57c.684.038.912.038,1.33.038.722.114,1.254-.114,1.444.038a1.622,1.622,0,0,1,.722.874c.228.418-.038,1.52.19,1.862a12.228,12.228,0,0,1-.038,1.254c-.152.646.114,1.33,0,1.9a1.788,1.788,0,0,0,.038.8,1.746,1.746,0,0,1-.076,1.14,10.512,10.512,0,0,1-.038,1.9,7.9,7.9,0,0,1,0,1.9c-.076.76-.038,1.558-.038,2.432a11.234,11.234,0,0,0-.076,2.622c-.228,1.064-.076,1.52-.3,2.546a24.263,24.263,0,0,0-.608,2.356,15.763,15.763,0,0,1-1.026,1.786c-.608.722-1.026.684-1.52,1.216-.684.19-1.1.646-1.862.722a11.577,11.577,0,0,1-2.052.228,7.715,7.715,0,0,1-2.242-.266c-.532-.342-1.026-.3-1.672-.8A4.413,4.413,0,0,1,12.122-3.8a1.769,1.769,0,0,1-.76-1.52,4.776,4.776,0,0,0-.456-1.748,1.835,1.835,0,0,1-.076-1.254.938.938,0,0,0-.114-.684c-.266-.608.266-1.026-.076-1.976-.3-.8.038-1.064-.038-1.938a1.083,1.083,0,0,1-.076-1.064,1.263,1.263,0,0,0,.076-.684c-.152-.646.228-1.14,0-1.786a4.677,4.677,0,0,1,0-1.786c.114-.418-.152-1.026-.038-1.786a4.565,4.565,0,0,1,0-1.786c.038-.722,0-1.1,0-1.786.076-.722,0-1.368,0-2.356.038-.342.152-1.1.988-1.1a10.792,10.792,0,0,1,1.292-.038c.722.076.8-.038,1.406,0s.836-.342.836-.646-.19-.608-.456-.608a8.289,8.289,0,0,0-1.824.114,6.738,6.738,0,0,1-.836-.038,1.208,1.208,0,0,0-.494.076c-.684.19-1.292-.228-1.748,0-.836.038-1.748-.076-2.166-.038-.152.228-.418.152-.722.076a1.449,1.449,0,0,0-.57-.038c-.418-.038-.912-.152-1.292-.152a1.124,1.124,0,0,0-.38.076A5.206,5.206,0,0,1,3-28.348H2.926a1.672,1.672,0,0,1-.38.076c-.228,0-.456-.076-.684-.076H1.786c-.608.076-.8.3-.8.57a.715.715,0,0,0,.684.722,16.461,16.461,0,0,0,1.976-.038c.722,0,1.14.342,1.178.95.114.836-.228,1.976.076,2.432.228.57-.076,1.178,0,1.748.266.836-.038,1.026.076,1.558.494.456.038,1.026.038,1.444.038.532-.038,1.786-.038,2.166a12.549,12.549,0,0,0,.038,2.052c.342.418-.038.874,0,1.368a7.482,7.482,0,0,1,.038,2.28c.076.874.038,1.824.114,2.394l.38,2.394c.3.76.57,1.368.836,2.09a2.8,2.8,0,0,0,.8,1.178c.532.114.532.912,1.026.95a.606.606,0,0,1,.494.266.747.747,0,0,0,.646.456c.456.19.76.532,1.216.57a10.334,10.334,0,0,1,1.33.38.617.617,0,0,1,.722,0,1.235,1.235,0,0,0,.646.266,12.832,12.832,0,0,0,2.014.19A4.845,4.845,0,0,0,16.036,0c.266-.152.912,0,1.368,0a1.173,1.173,0,0,0,.418-.076c.646-.3.912.076,1.634-.3a1.586,1.586,0,0,1,.874-.266.77.77,0,0,0,.608-.228,7.825,7.825,0,0,0,1.33-.722.853.853,0,0,1,.342-.38,2.172,2.172,0,0,0,.76-.57c.228-.57.874-.646.912-1.178.152-.456.608-1.178.722-1.482-.038-.38.532-.836.456-1.748.038-.874.3-1.368.3-2.356.114-.874.114-1.634.152-2.394-.038-.532-.266-.684,0-1.178.076-.874.038-2.584.076-3.61,0-.266-.038-1.254,0-1.634a2.984,2.984,0,0,1,0-1.634,2.981,2.981,0,0,0-.076-.836,1.612,1.612,0,0,1,.076-.836c-.038-.266,0-1.292,0-1.634,0-.266-.076-.38-.076-.57a.862.862,0,0,1,.114-.456,1.127,1.127,0,0,0-.076-.532.65.65,0,0,1,.076-.57c.152-.19.038-.38,0-.57a.518.518,0,0,1,.076-.456c.152-.3.152-.494.3-.646a2.411,2.411,0,0,1,.722-.266,2.608,2.608,0,0,1,1.216,0c.418.076.646-.038,1.33,0,.266.038.38-.19.38-.456,0-.38-.152-.684-.418-.684C29.222-28.31,28.842-28.31,28.538-28.31ZM44.156-7.524A5.681,5.681,0,0,0,42.864-9.69a9.374,9.374,0,0,0-2.356-1.292.729.729,0,0,1-.722-.152,1.5,1.5,0,0,0-.608-.3c-.76.038-1.1-.57-1.6-.532a7.036,7.036,0,0,1-1.6-.646,3.172,3.172,0,0,1-1.14-.912,1.5,1.5,0,0,1-.418-1.368,2.49,2.49,0,0,1,1.1-1.938,5.308,5.308,0,0,1,2.128-.532,3.752,3.752,0,0,1,2.052.456,6.793,6.793,0,0,1,1.672,1.368,2.934,2.934,0,0,1,.608,1.368,6.261,6.261,0,0,0,.152,1.216.462.462,0,0,0,.494.342c.342,0,.646-.19.57-.456,0-.456-.038-.76-.076-1.292a.347.347,0,0,0-.114-.266c-.038-.114-.076-.19.076-.418-.038-.57.076-.836.114-1.9-.038-.3.19-.532.152-.8a.683.683,0,0,0-.57-.342.209.209,0,0,0-.19.114c-.266.228-.266.494-.494.646-.19.076-.342,0-.608-.114a11.6,11.6,0,0,0-1.9-.76,9.768,9.768,0,0,0-1.9-.3h-.152a7.9,7.9,0,0,0-2.166.456,1.191,1.191,0,0,0-.418.3.612.612,0,0,1-.608.228,1.817,1.817,0,0,0-.874.684,7.008,7.008,0,0,0-1.292,1.862,6.646,6.646,0,0,0-.494,2.318A4.093,4.093,0,0,0,32.11-10.3,3.007,3.007,0,0,0,33.4-8.7a3.342,3.342,0,0,0,1.634.988c.532.19,1.14.76,1.938.722.418-.076.646.266,1.14.418a5.59,5.59,0,0,1,1.14.3c.266.114.532.038.95.418a.672.672,0,0,0,.3.19c.19.038.342.114.494.456a1.324,1.324,0,0,1,.38,1.1c.114.57-.114.836-.266,1.368A4.33,4.33,0,0,1,40.09-1.71c-.152.3-.266.266-.418.266a.419.419,0,0,0-.342.114,5.761,5.761,0,0,1-1.6.152,4.493,4.493,0,0,1-1.406-.114.654.654,0,0,1-.57-.19,1.994,1.994,0,0,0-.418-.266,4.893,4.893,0,0,1-1.14-.836,4.71,4.71,0,0,1-.8-.988.748.748,0,0,1-.38-.57c-.076-.152-.114-.342-.228-.608a7,7,0,0,1-.38-1.482c.038-.266-.266-.418-.532-.418-.228,0-.456.076-.494.3a8.988,8.988,0,0,0,.038,1.14c.114.342.266.57.076.95a6.137,6.137,0,0,1-.076,1.482c-.152.57-.152,1.1-.266,1.558a.287.287,0,0,0-.038.152c0,.38.722.57.874.3.228-.266.152-.418.532-.722.114-.114.494-.076.912.266.418.418,1.254.494,1.786.8a5.269,5.269,0,0,0,1.216.228,6.517,6.517,0,0,0,1.71.152,12.579,12.579,0,0,0,2.242-.38c.494-.19.95-.228,1.292-.646.266-.342.684-.19.874-.57a1.142,1.142,0,0,1,.456-.418.982.982,0,0,0,.3-.418c.152-.57.76-1.1.8-1.6a.867.867,0,0,1,.152-.722,1.163,1.163,0,0,0,.114-.57v-.114A8.243,8.243,0,0,0,44.156-7.524ZM63.422-4.978c-.532.646-.646,1.026-.874,1.254-.152.646-.912.684-1.178,1.216-.684.608-1.026.38-1.482.8a4.283,4.283,0,0,1-1.9.266,3.8,3.8,0,0,1-1.634-.19A2.726,2.726,0,0,1,55.1-2.166,2.2,2.2,0,0,1,54.112-3c-.38-.418-.266-.608-.722-1.1-.342-.38-.266-1.064-.456-1.254-.228-.19-.19-.38-.19-.684a1.863,1.863,0,0,0-.114-.722,2.636,2.636,0,0,1-.152-1.482,1.272,1.272,0,0,0-.038-.874,1.6,1.6,0,0,1,0-.608l.038-.152c.266-.342.456-.608.836-.608h2.7c.722-.19.912.114,1.786,0a5.6,5.6,0,0,1,1.786,0c.646.114,1.33-.076,2.356.038a8.942,8.942,0,0,0,2.2-.114c.3.076.646-.3.646-.76a.647.647,0,0,0-.038-.266,2.93,2.93,0,0,0-.608-2.09,1.307,1.307,0,0,1-.3-.532,1.539,1.539,0,0,0-.3-.494c-.3-.114-.266-.532-.722-.95a3.964,3.964,0,0,0-1.33-1.216,8.723,8.723,0,0,0-1.52-.874,2.886,2.886,0,0,0-1.672-.532c-.494.114-1.254-.228-1.634-.228-.076,0-.114.038-.152.038-.684.228-1.064-.076-1.9.19a4.174,4.174,0,0,0-1.748.532c-.418.3-1.292.456-1.6.874-.342.38-1.14.494-1.406,1.1-.266.57-.836.684-1.1,1.368-.266.646-.722.8-.874,1.6a.687.687,0,0,1-.114.722.794.794,0,0,0-.3.494,19.283,19.283,0,0,0-.342,2.128.741.741,0,0,0,.038.3,2.008,2.008,0,0,0-.038.456c0,.532.19.836.228,1.482a2.569,2.569,0,0,0,.532,1.786c.228.8.646.836.836,1.52a3.071,3.071,0,0,0,1.14,1.33.956.956,0,0,0,.456.266c.266.076.456.114.532.608A9.756,9.756,0,0,0,52.82-.684a5.442,5.442,0,0,0,1.748.494,2.229,2.229,0,0,0,.874.152h.722A1.052,1.052,0,0,1,56.506,0a7.024,7.024,0,0,1,.912-.038h.38A3.783,3.783,0,0,0,59.166-.3a4.529,4.529,0,0,0,2.09-.874l.76-.494c.114-.342.57-.57.95-.988.228-.3.532-.646.76-.988.152-.342.494-.456.608-.912.114-.3-.266-.646-.57-.646A.318.318,0,0,0,63.422-4.978Zm-10.45-8.93c.114-.456.076-1.1.456-1.482a8.179,8.179,0,0,1,1.216-1.52,3.049,3.049,0,0,1,1.938-.57,2.788,2.788,0,0,1,1.862.608c.494.3.608.95.988,1.52.418.532.114,1.14.418,1.558a8.465,8.465,0,0,1,.076,1.672c.038.57-.114.76-.912.722-1.064-.038-1.938.038-2.774,0-.608.038-1.9,0-2.622,0-.8,0-1.1-.3-.988-1.178a.96.96,0,0,0,.114-.684A.84.84,0,0,1,52.972-13.908ZM100.89-9.234a6.737,6.737,0,0,1-.152-1.976c-.114-.38-.152-1.482-.532-1.786a9.34,9.34,0,0,1-.836-1.6c-.228-.418-.912-.8-1.1-1.33-.456-.114-.836-.95-1.368-1.064-.646-.3-.912-.494-1.6-.8-.684-.076-1.292-.494-1.786-.494-.532.114-.912-.19-1.6-.19a1.425,1.425,0,0,0-.38.038h-.494a5.051,5.051,0,0,0-1.444.152,4.912,4.912,0,0,0-1.824.532c-.722.418-1.178.3-1.6.8-.646.19-.874.76-1.406,1.1-.646.266-.722,1.026-1.14,1.33-.38.494-.608,1.292-.988,1.824a.67.67,0,0,0-.152.608,1.757,1.757,0,0,1-.266.95,1.3,1.3,0,0,0-.152.874,2.2,2.2,0,0,1-.038,1.1,2.615,2.615,0,0,0-.076.494,7.619,7.619,0,0,0,.266,1.444c0,.494.532,1.368.532,1.748a7.33,7.33,0,0,0,.988,1.748c.494.19.532.342.57.494a.713.713,0,0,0,.38.684c.494.342.76.8,1.444,1.026a1.619,1.619,0,0,1,.57.342,1.612,1.612,0,0,0,1.026.456c.684.114,1.178.608,1.786.494A8.69,8.69,0,0,0,91.048,0a1.425,1.425,0,0,0,.418-.038h.228c.342,0,.608.038.836.038h.076a1.4,1.4,0,0,0,.836-.228,9.221,9.221,0,0,0,1.786-.494c.608-.076,1.064-.57,1.634-.76a3.614,3.614,0,0,0,1.368-1.1c.418-.152.532-.95,1.14-1.33.152-.38.608-1.14.988-1.976a1.6,1.6,0,0,0,.076-.684.609.609,0,0,1,.3-.684A13.065,13.065,0,0,0,100.89-9.234Zm-5.472,1.6C95.3-7.106,95.57-6.27,95.266-6c-.152.646-.076,1.254-.3,1.6-.418.456-.266.8-.57,1.52A2.543,2.543,0,0,1,93.214-1.52a3.256,3.256,0,0,1-1.71.532,2.678,2.678,0,0,1-1.254-.266A3.751,3.751,0,0,1,89-2.356l-.418-.57c-.342-.342-.3-.912-.494-1.216-.3-.342-.228-.912-.342-1.33,0-.418-.266-.684-.152-1.368.152-.874-.342-1.786-.114-2.394a3.633,3.633,0,0,1,.114-2.432c-.076-.684.3-.8.152-1.368a4.058,4.058,0,0,1,.3-1.368c0-.646.532-.722.494-1.216-.038-.38.152-.456.38-.608a1.711,1.711,0,0,0,.342-.38.768.768,0,0,1,.57-.456,2.432,2.432,0,0,0,.418-.228,4.948,4.948,0,0,1,1.254-.228,2.684,2.684,0,0,1,1.786.608c.532.57,1.064.874,1.1,1.292.228.608.532.76.57,1.52a10.774,10.774,0,0,0,.3,1.6c.3.266.3.494.228.684a1.625,1.625,0,0,0-.19.684c.076.836.38,1.482.152,1.9C95.342-8.93,95.608-8.132,95.418-7.638Zm23.142,3.99c-.3.3-.532.456-.76.722a4.514,4.514,0,0,1-1.216.836,8.8,8.8,0,0,1-1.33.532c-.3,0-.988.152-1.52.19a3.252,3.252,0,0,1-1.406-.19c-.456.114-.608-.418-1.1-.608-.228-.228-.608-.608-.874-.836a.949.949,0,0,1-.646-.988c-.038-.3-.38-.874-.456-1.178-.228-.418-.114-1.026-.266-1.33-.266-.988.038-1.634-.19-2.622a2.971,2.971,0,0,1,.038-1.634c.266-.38-.076-1.33.19-1.748.3-.57.076-1.368.38-1.71a3.124,3.124,0,0,0,.646-1.52c.342-.38.95-1.178,1.406-1.216a6.468,6.468,0,0,1,1.824-.418,9.717,9.717,0,0,1,1.824.38c.342.19,1.178.456,1.1,1.33,0,.532-.152.76-.418.874a3.252,3.252,0,0,0-.38,1.178c-.114.266.266.988.456,1.254a1.99,1.99,0,0,0,1.406.494,1.109,1.109,0,0,0,1.482-.608,1.03,1.03,0,0,0,.456-.8.558.558,0,0,1,.152-.456,3.739,3.739,0,0,0-.684-2.318A4.908,4.908,0,0,0,117-17.4c-.684-.532-1.1-.3-2.014-.76a4.155,4.155,0,0,0-1.71-.3,2.019,2.019,0,0,0-.532.038c-.342-.038-.608-.076-.836-.076a2.315,2.315,0,0,0-1.064.266c-.76.3-1.14.114-1.748.532a9.711,9.711,0,0,0-1.6.836c-.494.608-.836.494-1.406,1.14a2.953,2.953,0,0,0-1.14,1.368c-.266.532-.836,1.14-.836,1.6a10.415,10.415,0,0,0-.57,1.748.959.959,0,0,0-.038.646c.076.3.19.57-.152.874.076.8.076,1.9.19,2.28l.532,1.71c.19.836.722.8.836,1.558.152.722.988.646,1.1,1.33.266.646.76.57,1.33,1.1.38.19,1.14.646,1.558.8a5.015,5.015,0,0,0,1.748.532,14.2,14.2,0,0,0,1.862.152c.342.038.608.076.836.076a3.1,3.1,0,0,0,1.254-.266,2.539,2.539,0,0,0,1.9-.57c.342-.342.874-.342,1.672-.95a3.7,3.7,0,0,0,1.33-1.33.14.14,0,0,0,.038-.114.728.728,0,0,0-.646-.646A.525.525,0,0,0,118.56-3.648Zm22.648,1.786a3.349,3.349,0,0,0-1.216.038c-.456.152-1.254-.912-.988-1.444.038-.874-.038-1.9,0-2.546.228-.912-.114-1.14,0-2.09-.19-.722.228-1.178,0-2.09a12.6,12.6,0,0,1,0-2.09c.418-.95-.266-1.558,0-2.09l.038-1.254c.19-.722-.152-1.33.076-1.786a.989.989,0,0,0-.722-1.52.288.288,0,0,0-.152.076,9.61,9.61,0,0,0-1.482.342c-.57.38-.988-.038-1.71.266a10.75,10.75,0,0,0-1.71.076,10.09,10.09,0,0,0-1.52,0,.739.739,0,0,0-.418.684c0,.228.152.494.608.608a4.172,4.172,0,0,0,1.292.076c.646,0,1.026.3.8.988a14.477,14.477,0,0,1,0,1.824,7.466,7.466,0,0,0,0,1.6c.076.57-.152,1.292,0,1.6-.114.3.228,1.178,0,1.558-.152.532.076.836,0,1.6-.228.684.19,1.33,0,1.558-.076.418.114,1.026,0,1.6a3.176,3.176,0,0,0-.874.874l-.38.342a2,2,0,0,0-.532.38,2.644,2.644,0,0,1-2.28.684c-.76.228-1.14-.342-1.444-.342a2.186,2.186,0,0,1-.76-.912,1.226,1.226,0,0,1-.342-1.254A6.577,6.577,0,0,1,127.414-6a6.056,6.056,0,0,0,0-2.356c-.114-.912.228-1.406,0-2.318a15.673,15.673,0,0,0,0-1.9,5.262,5.262,0,0,0,.038-1.9,4.29,4.29,0,0,0,.19-1.482c.114-.836.076-1.292.19-2.052a.582.582,0,0,0-.532-.722.343.343,0,0,0-.19.038c-.494.114-1.254.342-1.634.418-.646-.038-1.33.266-1.634.228a8.21,8.21,0,0,0-1.634-.076,2.605,2.605,0,0,0-1.558.152.714.714,0,0,0-.3.646.609.609,0,0,0,.342.608,2.077,2.077,0,0,0,1.216.152c.456-.038.722.456.646,1.52.114.76-.266,2.356-.038,2.926a17.323,17.323,0,0,0-.038,2.432c-.076.8,0,1.824-.038,2.394.19.836-.152,1.178.038,2.052-.152.95.114,1.14.494,1.976a11.674,11.674,0,0,0,.912,1.33c.266.418.874.57,1.254.988a2.926,2.926,0,0,0,1.52.608,5.049,5.049,0,0,1,1.6.228c.76,0,1.254-.266,1.748-.228.684-.076.836-.418,1.52-.608a3.257,3.257,0,0,0,1.672-.95c.494-.456.874-.266.988.19,0,.418-.076.684-.076,1.178,0,.3.266.532.684.646.076,0,.114.038.19.038.456,0,.912-.456,1.368-.342.38-.076,1.1-.152,1.52-.266a13.973,13.973,0,0,1,1.786,0c.57-.076,1.178.152,1.52-.038a.675.675,0,0,0,.57-.646A.763.763,0,0,0,141.208-1.862Zm11.324.114a6.11,6.11,0,0,1-1.178-.038c-.494.228-.988-.228-.874-1.254a19.71,19.71,0,0,0-.076-2.508c-.38-.722.076-1.1,0-1.748a13.466,13.466,0,0,1,0-2.774c.114-.836-.228-1.938,0-2.736a16.428,16.428,0,0,1,0-2.736,9.4,9.4,0,0,1,0-2.736,21.907,21.907,0,0,1,0-2.736c.076-1.1-.418-1.482,0-2.09l.038-3.42c-.038-1.026.19-1.292.228-2.318a.74.74,0,0,0-.722-.8.549.549,0,0,0-.266.076c-.684.152-.988.494-1.748.646-.342.038-.722.418-1.292.3a3.552,3.552,0,0,0-1.558.152,11.018,11.018,0,0,0-1.9.076.614.614,0,0,0-.532.608.678.678,0,0,0,.608.646l1.482.114a.507.507,0,0,1,.38.152c.228.266.152.8.19,1.482,0,1.444.3,2.242,0,3.344-.228.874.38,1.254.19,2.014-.228.95.19,1.824-.114,2.812a2.218,2.218,0,0,0,0,.874,1.838,1.838,0,0,1-.076,1.406c0,.8.076,2.622,0,3.382a1.417,1.417,0,0,0,.076.456c.152.266.38.418-.076,1.178a8.952,8.952,0,0,1,0,2.47c.228.95-.228,1.6-.038,2.546a25.143,25.143,0,0,1-.152,2.736c0,.228-.228.342-.684.456-.532,0-.8.038-1.254,0-.456,0-.646.266-.646.532,0,.3.228.646.456.646h.646c.456,0,.912,0,1.71-.038h.228a2.481,2.481,0,0,0,.646-.114c.228-.076.38-.114.532.152.684-.038,1.254-.038,1.786-.038h3.952a.539.539,0,0,0,.532-.608A.545.545,0,0,0,152.532-1.748Zm18.886-1.634c-.114.342-.3.38-.456.76a1.384,1.384,0,0,1-.456.418.9.9,0,0,1-.57.038c-.76-.038-1.026-.684-1.064-1.254a22.69,22.69,0,0,1,0-2.28,1.285,1.285,0,0,1-.038-.836,3.207,3.207,0,0,0,.076-.722c-.038-.532-.38-.722-.076-1.33.152-.266-.152-.57,0-1.1.114-.38-.19-.76,0-1.33.114-.38-.038-.95.038-1.52a16.111,16.111,0,0,0-.228-2.508c-.3-.152-.266-.3-.266-.532a.983.983,0,0,0-.266-.684c-.3-.418-.57-.912-.988-1.064-.684-.228-.836-.722-1.292-.684-.608.038-.8-.418-1.33-.3-.57-.076-1.026-.114-1.368-.19a6.27,6.27,0,0,0-2.2.266,9.236,9.236,0,0,0-2.47.722c-.266.038-.342.152-.38.266-.076.114-.114.228-.494.228-.19,0-.342.3-.836.722a2.469,2.469,0,0,0-.76,2.014,2.157,2.157,0,0,0,.57,1.52,2.218,2.218,0,0,0,1.482.646c.608-.038.988.038,1.292-.57a2.3,2.3,0,0,0,.532-1.33,1.429,1.429,0,0,0-.532-1.216.785.785,0,0,1-.3-.95c-.114-.228.532-.836.988-.912a13.918,13.918,0,0,1,1.6-.266c.874.114,1.786.228,2.014.8.684.608.57,1.368.684,2.052a13.287,13.287,0,0,1,0,1.748,3.392,3.392,0,0,1,0,1.52c.076.266,0,.38-.152.646a.847.847,0,0,1-.836.418c-.722.076-.874.38-1.558.266a7.776,7.776,0,0,0-1.786.342,4.757,4.757,0,0,0-1.938.684c-.76.152-.8.646-1.558.988-.76.266-.95.912-1.444,1.672a4.2,4.2,0,0,0-.494,1.976,2.167,2.167,0,0,0,.038.494.721.721,0,0,0,.152.456c.114.228.3.342.19.8.3.57.494,1.1,1.064,1.292a4.894,4.894,0,0,0,1.52.836,7.231,7.231,0,0,0,1.748.266,7.94,7.94,0,0,0,2.166-.38c.076-.228.266-.266.456-.3a.6.6,0,0,0,.456-.19c.3-.266,1.026-.38,1.216-.912a.745.745,0,0,1,1.216.266,3.893,3.893,0,0,0,.95.874,5.247,5.247,0,0,0,2.242.57,1.11,1.11,0,0,0,.342.076c.456,0,.912-.38,1.14-.3a2.185,2.185,0,0,0,1.178-.608c.38-.38.722-.38.988-.95a4.191,4.191,0,0,0,.722-.95.343.343,0,0,0,.038-.19.578.578,0,0,0-.57-.532A.341.341,0,0,0,171.418-3.382Zm-7.3-.494a6.045,6.045,0,0,1-1.1,1.254,3.825,3.825,0,0,1-1.786.532,2.879,2.879,0,0,1-1.9-.874,1.2,1.2,0,0,1-.494-1.064c0-.342-.3-.608-.19-.988.19-.494.038-.608.152-.912-.114-.456.3-.684.532-1.178a2.5,2.5,0,0,1,1.178-1.064c.456-.456.8-.228,1.368-.608.342-.38.874-.19,1.14-.3.684-.19,1.368-.038,1.254.836a.719.719,0,0,0,.038.57.653.653,0,0,1,0,.646.566.566,0,0,0-.076.532.723.723,0,0,1,.038.646c-.038.418.19.532.038.988C164.2-4.484,164.35-4.18,164.122-3.876ZM189.278-16.53c-.3-.608-.3-.836-.722-1.026a3.081,3.081,0,0,0-1.064-.646,3.847,3.847,0,0,0-1.9-.19.566.566,0,0,0-.3.114c-.114.076-.152.152-.57.076a6.291,6.291,0,0,0-1.216.722c-.266.114-.988.76-1.026,1.064a4.431,4.431,0,0,0-.418.608c-.114.19-.228.228-.38.19-.114-.038-.19-.076-.228-.19a3.288,3.288,0,0,1,0-1.1c-.076-.494.152-.874-.038-1.254a.759.759,0,0,0-.646-.494.565.565,0,0,0-.342.076,1.7,1.7,0,0,1-1.292.266,14.585,14.585,0,0,1-1.672.228,3.939,3.939,0,0,1-1.52.114,8.208,8.208,0,0,1-1.368,0c-.532,0-.722.266-.722.57,0,.342.228.722.532.684.456.038.95-.076,1.254-.038.152.038.418-.038.608.076a.857.857,0,0,1,.19.456c.228.76-.038.912.076,1.444a8.722,8.722,0,0,1,.038,2.622.92.92,0,0,0,.114.532.5.5,0,0,1-.114.608c-.038.95,0,1.938-.038,2.774a3.08,3.08,0,0,0,.114.418c.152.228.228.38-.076.836a17.772,17.772,0,0,0,0,2.014c-.038.684-.038,1.52-.076,2.052-.114.722-.19,1.064-.8,1.14-.646.038-1.254-.038-1.52.038-.3,0-.456.266-.456.57,0,.342.19.684.57.608.988,0,1.254,0,2.432.038.532,0,1.1.038,1.634.038.57,0,1.1-.038,1.558-.038.152-.228.38-.19.684-.114a4.26,4.26,0,0,0,.8.152c.57.038,1.026.038,1.482.038a4.843,4.843,0,0,0,1.064-.076H184c.266,0,.38-.266.38-.57,0-.342-.19-.76-.57-.646a2.084,2.084,0,0,1-.494,0,1.433,1.433,0,0,0-.722,0,.834.834,0,0,1-1.026-.8c.076-.608-.19-1.786-.076-2.622-.038-.342-.418-.8,0-1.368a18.2,18.2,0,0,0,0-2.052,22.8,22.8,0,0,0,0-2.28,5.045,5.045,0,0,1,.3-2.28c.152-.38.038-.912.418-1.1.266-.266.228-.456.38-.684a.992.992,0,0,1,.266-.38c.19-.114.3-.608.912-.8a1.009,1.009,0,0,1,.988-.342c.38-.038.722.19.684.418a1.6,1.6,0,0,1,.038,1.026,1.563,1.563,0,0,0,.494,1.406,1.569,1.569,0,0,0,1.71.608c.456.076.874-.076,1.406-.722a1.747,1.747,0,0,0,.532-1.368v-.228A3.03,3.03,0,0,0,189.278-16.53Zm20.292-6.992a.3.3,0,0,1,.3.076c.114.076.19.228.3.3a2.3,2.3,0,0,0,1.33.3c.608-.114,1.52-.266,1.786-.874a2.62,2.62,0,0,0,.722-1.824c0-.114-.038-.228-.038-.342a3.174,3.174,0,0,0-.19-.76.915.915,0,0,0-.57-.608c-.342-.152-.38-.228-.456-.342a.856.856,0,0,0-.19-.19,3.461,3.461,0,0,0-1.368-.342,2.157,2.157,0,0,1-.8.228,3.032,3.032,0,0,0-1.216.76,1.989,1.989,0,0,0-.456,1.748.537.537,0,0,1,.152.532.625.625,0,0,0-.038.38A1.482,1.482,0,0,0,209.57-23.522Zm4.218,5.548c.038-.38-.456-.874-.8-.646-.8.076-.988.418-1.292.3a8.82,8.82,0,0,1-1.672.3,15.755,15.755,0,0,1-2.09.19c-.836.038-.988.152-1.786.152-.19-.038-.38.266-.38.57a.483.483,0,0,0,.38.494c.532.114.988-.038,1.52.076a1.022,1.022,0,0,1,.684.152.833.833,0,0,1,.152.684,17.7,17.7,0,0,1,.076,2.47c.152.684-.114,1.064.076,1.71a8.957,8.957,0,0,1,0,1.748c-.114.532.114,1.368,0,1.938a3.582,3.582,0,0,0,0,1.9c.152.418-.228,1.292.038,1.786a.481.481,0,0,1,.114.608,1.538,1.538,0,0,0-.114.8c0,.95.076,2.318.038,3.458a6.965,6.965,0,0,1,.038,2.166c-.152.342.114.95,0,1.558a7.9,7.9,0,0,0-.266,1.9,16.142,16.142,0,0,1-.57,2.128,1.128,1.128,0,0,1-1.1.8c-.494.076-1.216-.152-.988-.874a2.134,2.134,0,0,1,.152-.57,1.358,1.358,0,0,0,.19-1.216,1.477,1.477,0,0,0-.494-.912,2.046,2.046,0,0,0-1.368-.418,1.605,1.605,0,0,0-1.368.418,1.551,1.551,0,0,0-.646,1.292V7.22a1.635,1.635,0,0,0,.152.76,1.408,1.408,0,0,1,.19.57,2.208,2.208,0,0,0,1.178.95,2.045,2.045,0,0,0,1.33.342c.418.342.988.19,1.444.266a3.56,3.56,0,0,0,1.748-.38c.418-.342.8-.152,1.026-.494.228-.38.722-.266.95-.646.418-.532.608-.608,1.064-1.254.19-.38.532-.57.722-1.216a12.583,12.583,0,0,1,.532-1.368,6.211,6.211,0,0,0,.38-1.558c-.266-.532-.076-.646.114-.874a1.282,1.282,0,0,0,.152-.456c.076-.874.19-1.748.266-2.584a10.821,10.821,0,0,1,.114-2.584c-.114-.684.114-1.938.038-2.622a7.356,7.356,0,0,1,0-2.584c.114-.57-.19-.988-.076-1.748a1.392,1.392,0,0,0-.076-.608c-.114-.228-.152-.418.152-.76-.038-1.064-.038-1.976-.038-2.736.076-.722.038-1.444.038-2.432C213.788-17.29,213.75-17.632,213.788-17.974ZM237.614-1.862a3.349,3.349,0,0,0-1.216.038c-.456.152-1.254-.912-.988-1.444.038-.874-.038-1.9,0-2.546.228-.912-.114-1.14,0-2.09-.19-.722.228-1.178,0-2.09a12.6,12.6,0,0,1,0-2.09c.418-.95-.266-1.558,0-2.09l.038-1.254c.19-.722-.152-1.33.076-1.786a.989.989,0,0,0-.722-1.52.288.288,0,0,0-.152.076,9.61,9.61,0,0,0-1.482.342c-.57.38-.988-.038-1.71.266a10.75,10.75,0,0,0-1.71.076,10.09,10.09,0,0,0-1.52,0,.739.739,0,0,0-.418.684c0,.228.152.494.608.608a4.172,4.172,0,0,0,1.292.076c.646,0,1.026.3.8.988a14.48,14.48,0,0,1,0,1.824,7.466,7.466,0,0,0,0,1.6c.076.57-.152,1.292,0,1.6-.114.3.228,1.178,0,1.558-.152.532.076.836,0,1.6-.228.684.19,1.33,0,1.558-.076.418.114,1.026,0,1.6a3.176,3.176,0,0,0-.874.874l-.38.342a2,2,0,0,0-.532.38,2.644,2.644,0,0,1-2.28.684c-.76.228-1.14-.342-1.444-.342a2.186,2.186,0,0,1-.76-.912,1.226,1.226,0,0,1-.342-1.254A6.577,6.577,0,0,1,223.82-6a6.056,6.056,0,0,0,0-2.356c-.114-.912.228-1.406,0-2.318a15.673,15.673,0,0,0,0-1.9,5.262,5.262,0,0,0,.038-1.9,4.29,4.29,0,0,0,.19-1.482c.114-.836.076-1.292.19-2.052a.582.582,0,0,0-.532-.722.343.343,0,0,0-.19.038c-.494.114-1.254.342-1.634.418-.646-.038-1.33.266-1.634.228a8.21,8.21,0,0,0-1.634-.076,2.605,2.605,0,0,0-1.558.152.714.714,0,0,0-.3.646.609.609,0,0,0,.342.608,2.077,2.077,0,0,0,1.216.152c.456-.038.722.456.646,1.52.114.76-.266,2.356-.038,2.926a17.32,17.32,0,0,0-.038,2.432c-.076.8,0,1.824-.038,2.394.19.836-.152,1.178.038,2.052-.152.95.114,1.14.494,1.976a11.675,11.675,0,0,0,.912,1.33c.266.418.874.57,1.254.988a2.926,2.926,0,0,0,1.52.608,5.049,5.049,0,0,1,1.6.228c.76,0,1.254-.266,1.748-.228.684-.076.836-.418,1.52-.608A3.257,3.257,0,0,0,229.6-1.9c.494-.456.874-.266.988.19,0,.418-.076.684-.076,1.178,0,.3.266.532.684.646.076,0,.114.038.19.038.456,0,.912-.456,1.368-.342.38-.076,1.1-.152,1.52-.266a13.973,13.973,0,0,1,1.786,0c.57-.076,1.178.152,1.52-.038a.675.675,0,0,0,.57-.646A.763.763,0,0,0,237.614-1.862ZM250.458-3c-.3.076-.418.342-.57.418a.505.505,0,0,1-.266.114.589.589,0,0,0-.38.266c-.076.114-.38.19-.456.266-.342.266-.532.19-1.1.228a1.4,1.4,0,0,1-1.292-.418c-.152-.152-.532-.418-.532-.722a2.427,2.427,0,0,0-.228-.836,3.056,3.056,0,0,1-.114-1.254c.152-.8-.114-1.824.038-2.2-.038-.8,0-1.634,0-2.356-.266-.95.114-1.292-.038-1.976-.152-.38.152-1.786.076-2.242a12.649,12.649,0,0,1,.038-2.394c0-.228.114-.57.836-.608.38.038.532,0,1.254,0,.3,0,.38.152.836-.076.152-.076.342.114.684.076.342,0,.494-.3.494-.608,0-.342-.19-.646-.456-.532a3.132,3.132,0,0,1-.912-.076,1.066,1.066,0,0,0-.532.038.312.312,0,0,1-.266.038c-.494-.152-.57,0-.988-.038-.342-.038-.57,0-.722-.19a.608.608,0,0,1-.152-.418c-.076-.57.076-.8-.076-1.178-.076-.152,0-.266.038-.38a.375.375,0,0,0-.076-.38c-.152-.342.114-.684.076-1.026a5.87,5.87,0,0,1,.114-1.482c.076-.418-.038-.836,0-1.178.038-.266-.228-.38-.456-.38-.19,0-.418.076-.418.3a9.446,9.446,0,0,1-.3,1.292,1.635,1.635,0,0,1-.19.646,2.2,2.2,0,0,0-.266.532c-.3.342-.19.608-.532.874a4.106,4.106,0,0,1-.684.8c-.3.494-.57.532-.874.912-.19.19-.608.266-.988.646-.228.266-.836.19-1.064.418a.638.638,0,0,1-.494.152,3.93,3.93,0,0,0-.456.114c-.608.076-.646.266-.646.494v.152c0,.532.38.532.684.494a3.969,3.969,0,0,1,.95,0c.418.038.608.228.494.836,0,.8-.076,2.166-.038,3.192a8.554,8.554,0,0,1-.038,1.976,1.12,1.12,0,0,0,.038.532c.076.266.228.418.038.836-.19.342.114.684-.038,1.1-.114.57.076.8-.114,1.33a.321.321,0,0,0,0,.266.853.853,0,0,1,.038.646,1.553,1.553,0,0,0,.038.874.42.42,0,0,0,0,.3c0,.152.114.266,0,.494.114.456-.038.912.342,1.368s.342,1.064.874,1.33a1.548,1.548,0,0,0,.418.228c.228.076.38.114.532.532a4.545,4.545,0,0,0,1.52.608,11.268,11.268,0,0,0,1.444.266c.114,0,.228-.038.3-.038.722-.114,1.026-.076,1.482-.152a5.791,5.791,0,0,0,1.368-.456A4.023,4.023,0,0,0,250-1.33a5.558,5.558,0,0,0,.494-.342c.266-.19.608-.266.646-.608a1.2,1.2,0,0,0-.228-.57A.415.415,0,0,0,250.458-3Zm15.466-4.522a5.681,5.681,0,0,0-1.292-2.166,9.375,9.375,0,0,0-2.356-1.292.729.729,0,0,1-.722-.152,1.5,1.5,0,0,0-.608-.3c-.76.038-1.1-.57-1.6-.532a7.036,7.036,0,0,1-1.6-.646,3.172,3.172,0,0,1-1.14-.912A1.5,1.5,0,0,1,256.2-14.9a2.49,2.49,0,0,1,1.1-1.938,5.308,5.308,0,0,1,2.128-.532,3.752,3.752,0,0,1,2.052.456,6.793,6.793,0,0,1,1.672,1.368,2.934,2.934,0,0,1,.608,1.368,6.261,6.261,0,0,0,.152,1.216.462.462,0,0,0,.494.342c.342,0,.646-.19.57-.456,0-.456-.038-.76-.076-1.292a.347.347,0,0,0-.114-.266c-.038-.114-.076-.19.076-.418-.038-.57.076-.836.114-1.9-.038-.3.19-.532.152-.8a.683.683,0,0,0-.57-.342.209.209,0,0,0-.19.114c-.266.228-.266.494-.494.646-.19.076-.342,0-.608-.114a11.6,11.6,0,0,0-1.9-.76,9.768,9.768,0,0,0-1.9-.3h-.152a7.9,7.9,0,0,0-2.166.456,1.191,1.191,0,0,0-.418.3.612.612,0,0,1-.608.228,1.817,1.817,0,0,0-.874.684,7.007,7.007,0,0,0-1.292,1.862,6.646,6.646,0,0,0-.494,2.318,4.093,4.093,0,0,0,.418,2.356,3.007,3.007,0,0,0,1.292,1.6,3.342,3.342,0,0,0,1.634.988c.532.19,1.14.76,1.938.722.418-.076.646.266,1.14.418a5.59,5.59,0,0,1,1.14.3c.266.114.532.038.95.418a.672.672,0,0,0,.3.19c.19.038.342.114.494.456a1.324,1.324,0,0,1,.38,1.1c.114.57-.114.836-.266,1.368a4.33,4.33,0,0,1-1.026,1.026c-.152.3-.266.266-.418.266a.419.419,0,0,0-.342.114,5.761,5.761,0,0,1-1.6.152,4.493,4.493,0,0,1-1.406-.114.654.654,0,0,1-.57-.19,1.994,1.994,0,0,0-.418-.266,4.893,4.893,0,0,1-1.14-.836,4.71,4.71,0,0,1-.8-.988.748.748,0,0,1-.38-.57c-.076-.152-.114-.342-.228-.608a7,7,0,0,1-.38-1.482c.038-.266-.266-.418-.532-.418-.228,0-.456.076-.494.3a8.989,8.989,0,0,0,.038,1.14c.114.342.266.57.076.95a6.136,6.136,0,0,1-.076,1.482c-.152.57-.152,1.1-.266,1.558a.287.287,0,0,0-.038.152c0,.38.722.57.874.3.228-.266.152-.418.532-.722.114-.114.494-.076.912.266.418.418,1.254.494,1.786.8a5.268,5.268,0,0,0,1.216.228,6.517,6.517,0,0,0,1.71.152,12.579,12.579,0,0,0,2.242-.38c.494-.19.95-.228,1.292-.646.266-.342.684-.19.874-.57a1.143,1.143,0,0,1,.456-.418.982.982,0,0,0,.3-.418c.152-.57.76-1.1.8-1.6a.867.867,0,0,1,.152-.722,1.163,1.163,0,0,0,.114-.57v-.114A8.244,8.244,0,0,0,265.924-7.524Zm22.648,5.662a3.349,3.349,0,0,0-1.216.038c-.456.152-1.254-.912-.988-1.444.038-.874-.038-1.9,0-2.546.228-.912-.114-1.14,0-2.09-.19-.722.228-1.178,0-2.09a12.6,12.6,0,0,1,0-2.09c.418-.95-.266-1.558,0-2.09l.038-1.254c.19-.722-.152-1.33.076-1.786a.989.989,0,0,0-.722-1.52.288.288,0,0,0-.152.076,9.61,9.61,0,0,0-1.482.342c-.57.38-.988-.038-1.71.266a10.75,10.75,0,0,0-1.71.076,10.09,10.09,0,0,0-1.52,0,.739.739,0,0,0-.418.684c0,.228.152.494.608.608a4.172,4.172,0,0,0,1.292.076c.646,0,1.026.3.8.988a14.48,14.48,0,0,1,0,1.824,7.466,7.466,0,0,0,0,1.6c.076.57-.152,1.292,0,1.6-.114.3.228,1.178,0,1.558-.152.532.076.836,0,1.6-.228.684.19,1.33,0,1.558-.076.418.114,1.026,0,1.6a3.175,3.175,0,0,0-.874.874l-.38.342a2,2,0,0,0-.532.38,2.644,2.644,0,0,1-2.28.684c-.76.228-1.14-.342-1.444-.342a2.186,2.186,0,0,1-.76-.912,1.226,1.226,0,0,1-.342-1.254A6.576,6.576,0,0,1,274.778-6a6.056,6.056,0,0,0,0-2.356c-.114-.912.228-1.406,0-2.318a15.676,15.676,0,0,0,0-1.9,5.263,5.263,0,0,0,.038-1.9,4.291,4.291,0,0,0,.19-1.482c.114-.836.076-1.292.19-2.052a.582.582,0,0,0-.532-.722.343.343,0,0,0-.19.038c-.494.114-1.254.342-1.634.418-.646-.038-1.33.266-1.634.228a8.21,8.21,0,0,0-1.634-.076,2.605,2.605,0,0,0-1.558.152.714.714,0,0,0-.3.646.609.609,0,0,0,.342.608,2.077,2.077,0,0,0,1.216.152c.456-.038.722.456.646,1.52.114.76-.266,2.356-.038,2.926a17.32,17.32,0,0,0-.038,2.432c-.076.8,0,1.824-.038,2.394.19.836-.152,1.178.038,2.052-.152.95.114,1.14.494,1.976a11.675,11.675,0,0,0,.912,1.33c.266.418.874.57,1.254.988a2.926,2.926,0,0,0,1.52.608,5.049,5.049,0,0,1,1.6.228c.76,0,1.254-.266,1.748-.228.684-.076.836-.418,1.52-.608a3.256,3.256,0,0,0,1.672-.95c.494-.456.874-.266.988.19,0,.418-.076.684-.076,1.178,0,.3.266.532.684.646.076,0,.114.038.19.038.456,0,.912-.456,1.368-.342.38-.076,1.1-.152,1.52-.266a13.973,13.973,0,0,1,1.786,0c.57-.076,1.178.152,1.52-.038a.675.675,0,0,0,.57-.646A.763.763,0,0,0,288.572-1.862ZM316.844-3c-.3.076-.418.342-.57.418a.505.505,0,0,1-.266.114.589.589,0,0,0-.38.266c-.076.114-.38.19-.456.266-.342.266-.532.19-1.1.228a1.4,1.4,0,0,1-1.292-.418c-.152-.152-.532-.418-.532-.722a2.428,2.428,0,0,0-.228-.836A3.056,3.056,0,0,1,311.9-4.94c.152-.8-.114-1.824.038-2.2-.038-.8,0-1.634,0-2.356-.266-.95.114-1.292-.038-1.976-.152-.38.152-1.786.076-2.242a12.649,12.649,0,0,1,.038-2.394c0-.228.114-.57.836-.608.38.038.532,0,1.254,0,.3,0,.38.152.836-.076.152-.076.342.114.684.076.342,0,.494-.3.494-.608,0-.342-.19-.646-.456-.532a3.132,3.132,0,0,1-.912-.076,1.066,1.066,0,0,0-.532.038.312.312,0,0,1-.266.038c-.494-.152-.57,0-.988-.038-.342-.038-.57,0-.722-.19a.608.608,0,0,1-.152-.418c-.076-.57.076-.8-.076-1.178-.076-.152,0-.266.038-.38a.375.375,0,0,0-.076-.38c-.152-.342.114-.684.076-1.026a5.87,5.87,0,0,1,.114-1.482c.076-.418-.038-.836,0-1.178.038-.266-.228-.38-.456-.38-.19,0-.418.076-.418.3a9.44,9.44,0,0,1-.3,1.292,1.635,1.635,0,0,1-.19.646,2.2,2.2,0,0,0-.266.532c-.3.342-.19.608-.532.874a4.106,4.106,0,0,1-.684.8c-.3.494-.57.532-.874.912-.19.19-.608.266-.988.646-.228.266-.836.19-1.064.418a.638.638,0,0,1-.494.152,3.931,3.931,0,0,0-.456.114c-.608.076-.646.266-.646.494v.152c0,.532.38.532.684.494a3.969,3.969,0,0,1,.95,0c.418.038.608.228.494.836,0,.8-.076,2.166-.038,3.192a8.553,8.553,0,0,1-.038,1.976,1.12,1.12,0,0,0,.038.532c.076.266.228.418.038.836-.19.342.114.684-.038,1.1-.114.57.076.8-.114,1.33a.321.321,0,0,0,0,.266.853.853,0,0,1,.038.646,1.553,1.553,0,0,0,.038.874.42.42,0,0,0,0,.3c0,.152.114.266,0,.494.114.456-.038.912.342,1.368s.342,1.064.874,1.33a1.548,1.548,0,0,0,.418.228c.228.076.38.114.532.532a4.545,4.545,0,0,0,1.52.608,11.268,11.268,0,0,0,1.444.266c.114,0,.228-.038.3-.038.722-.114,1.026-.076,1.482-.152a5.79,5.79,0,0,0,1.368-.456,4.023,4.023,0,0,0,1.254-.722,5.56,5.56,0,0,0,.494-.342c.266-.19.608-.266.646-.608a1.2,1.2,0,0,0-.228-.57A.415.415,0,0,0,316.844-3ZM337.63-9.234a6.737,6.737,0,0,1-.152-1.976c-.114-.38-.152-1.482-.532-1.786a9.341,9.341,0,0,1-.836-1.6c-.228-.418-.912-.8-1.1-1.33-.456-.114-.836-.95-1.368-1.064-.646-.3-.912-.494-1.6-.8-.684-.076-1.292-.494-1.786-.494-.532.114-.912-.19-1.6-.19a1.426,1.426,0,0,0-.38.038h-.494a5.051,5.051,0,0,0-1.444.152,4.912,4.912,0,0,0-1.824.532c-.722.418-1.178.3-1.6.8-.646.19-.874.76-1.406,1.1-.646.266-.722,1.026-1.14,1.33-.38.494-.608,1.292-.988,1.824a.67.67,0,0,0-.152.608,1.758,1.758,0,0,1-.266.95,1.3,1.3,0,0,0-.152.874,2.2,2.2,0,0,1-.038,1.1,2.616,2.616,0,0,0-.076.494,7.619,7.619,0,0,0,.266,1.444c0,.494.532,1.368.532,1.748a7.33,7.33,0,0,0,.988,1.748c.494.19.532.342.57.494a.713.713,0,0,0,.38.684c.494.342.76.8,1.444,1.026a1.619,1.619,0,0,1,.57.342,1.612,1.612,0,0,0,1.026.456c.684.114,1.178.608,1.786.494a8.69,8.69,0,0,0,1.52.228,1.425,1.425,0,0,0,.418-.038h.228c.342,0,.608.038.836.038h.076a1.4,1.4,0,0,0,.836-.228,9.221,9.221,0,0,0,1.786-.494c.608-.076,1.064-.57,1.634-.76a3.614,3.614,0,0,0,1.368-1.1c.418-.152.532-.95,1.14-1.33.152-.38.608-1.14.988-1.976a1.6,1.6,0,0,0,.076-.684.609.609,0,0,1,.3-.684A13.069,13.069,0,0,0,337.63-9.234Zm-5.472,1.6c-.114.532.152,1.368-.152,1.634-.152.646-.076,1.254-.3,1.6-.418.456-.266.8-.57,1.52a2.543,2.543,0,0,1-1.178,1.368,3.256,3.256,0,0,1-1.71.532,2.678,2.678,0,0,1-1.254-.266,3.751,3.751,0,0,1-1.254-1.1l-.418-.57c-.342-.342-.3-.912-.494-1.216-.3-.342-.228-.912-.342-1.33,0-.418-.266-.684-.152-1.368.152-.874-.342-1.786-.114-2.394a3.633,3.633,0,0,1,.114-2.432c-.076-.684.3-.8.152-1.368a4.057,4.057,0,0,1,.3-1.368c0-.646.532-.722.494-1.216-.038-.38.152-.456.38-.608a1.711,1.711,0,0,0,.342-.38.768.768,0,0,1,.57-.456,2.433,2.433,0,0,0,.418-.228,4.948,4.948,0,0,1,1.254-.228,2.684,2.684,0,0,1,1.786.608c.532.57,1.064.874,1.1,1.292.228.608.532.76.57,1.52a10.772,10.772,0,0,0,.3,1.6c.3.266.3.494.228.684a1.625,1.625,0,0,0-.19.684c.076.836.38,1.482.152,1.9C332.082-8.93,332.348-8.132,332.158-7.638ZM371.6-3.382c-.114.342-.3.38-.456.76a1.384,1.384,0,0,1-.456.418.9.9,0,0,1-.57.038c-.76-.038-1.026-.684-1.064-1.254a22.69,22.69,0,0,1,0-2.28,1.285,1.285,0,0,1-.038-.836,3.207,3.207,0,0,0,.076-.722c-.038-.532-.38-.722-.076-1.33.152-.266-.152-.57,0-1.1.114-.38-.19-.76,0-1.33.114-.38-.038-.95.038-1.52a16.111,16.111,0,0,0-.228-2.508c-.3-.152-.266-.3-.266-.532a.983.983,0,0,0-.266-.684c-.3-.418-.57-.912-.988-1.064-.684-.228-.836-.722-1.292-.684-.608.038-.8-.418-1.33-.3-.57-.076-1.026-.114-1.368-.19a6.269,6.269,0,0,0-2.2.266,9.236,9.236,0,0,0-2.47.722c-.266.038-.342.152-.38.266-.076.114-.114.228-.494.228-.19,0-.342.3-.836.722a2.469,2.469,0,0,0-.76,2.014,2.157,2.157,0,0,0,.57,1.52,2.218,2.218,0,0,0,1.482.646c.608-.038.988.038,1.292-.57a2.3,2.3,0,0,0,.532-1.33,1.429,1.429,0,0,0-.532-1.216.785.785,0,0,1-.3-.95c-.114-.228.532-.836.988-.912a13.919,13.919,0,0,1,1.6-.266c.874.114,1.786.228,2.014.8.684.608.57,1.368.684,2.052a13.29,13.29,0,0,1,0,1.748,3.391,3.391,0,0,1,0,1.52c.076.266,0,.38-.152.646a.847.847,0,0,1-.836.418c-.722.076-.874.38-1.558.266a7.776,7.776,0,0,0-1.786.342,4.757,4.757,0,0,0-1.938.684c-.76.152-.8.646-1.558.988-.76.266-.95.912-1.444,1.672a4.2,4.2,0,0,0-.494,1.976,2.167,2.167,0,0,0,.038.494.721.721,0,0,0,.152.456c.114.228.3.342.19.8.3.57.494,1.1,1.064,1.292a4.894,4.894,0,0,0,1.52.836,7.231,7.231,0,0,0,1.748.266,7.94,7.94,0,0,0,2.166-.38c.076-.228.266-.266.456-.3a.6.6,0,0,0,.456-.19c.3-.266,1.026-.38,1.216-.912a.745.745,0,0,1,1.216.266,3.893,3.893,0,0,0,.95.874,5.247,5.247,0,0,0,2.242.57,1.109,1.109,0,0,0,.342.076c.456,0,.912-.38,1.14-.3a2.185,2.185,0,0,0,1.178-.608c.38-.38.722-.38.988-.95a4.191,4.191,0,0,0,.722-.95.343.343,0,0,0,.038-.19.578.578,0,0,0-.57-.532A.341.341,0,0,0,371.6-3.382Zm-7.3-.494a6.046,6.046,0,0,1-1.1,1.254,3.825,3.825,0,0,1-1.786.532,2.879,2.879,0,0,1-1.9-.874,1.2,1.2,0,0,1-.494-1.064c0-.342-.3-.608-.19-.988.19-.494.038-.608.152-.912-.114-.456.3-.684.532-1.178A2.5,2.5,0,0,1,360.7-8.17c.456-.456.8-.228,1.368-.608.342-.38.874-.19,1.14-.3.684-.19,1.368-.038,1.254.836a.719.719,0,0,0,.038.57.653.653,0,0,1,0,.646.566.566,0,0,0-.076.532.723.723,0,0,1,.038.646c-.038.418.19.532.038.988C364.382-4.484,364.534-4.18,364.306-3.876Zm30.742,2.2c-.266-.114-.38-.038-.684-.076a6.131,6.131,0,0,0-.836,0c-.532-.038-.646-.152-.684-.912-.038-.95-.038-2.7-.038-3.876a8.016,8.016,0,0,1,0-2.356,12.342,12.342,0,0,0,.038-2.888c-.3-.38-.19-.608-.152-1.026a3.95,3.95,0,0,0,.038-.988,7.969,7.969,0,0,0-.228-1.254,1.537,1.537,0,0,1-.266-.722c-.038-.19-.076-.342-.228-.418-.418-.3-.836-.912-1.178-1.216a.8.8,0,0,0-.418-.19,1.052,1.052,0,0,1-.684-.418c-.418-.38-1.216-.114-1.558-.38-.418-.3-1.026-.038-1.444-.038-.608.228-1.216.038-1.482.152-.418.228-1.178.532-1.52.76a5.779,5.779,0,0,0-1.748,1.14.576.576,0,0,1-.418.266c-.114,0-.228-.114-.266-.38-.076-.722.114-1.406.038-1.71a.674.674,0,0,0-.646-.456.742.742,0,0,0-.266.038,5.455,5.455,0,0,1-1.368.266,4.548,4.548,0,0,1-1.71.228c-.418.152-.722-.038-1.406.114-.836.114-1.254.038-1.672.114-.722.19-.494,1.254.114,1.14a4.405,4.405,0,0,1,1.254.114c.418.114.608.57.646,1.292.038.532-.038,1.406,0,2.166a4.538,4.538,0,0,0,0,1.9,10.387,10.387,0,0,0,0,1.9,11,11,0,0,1,0,1.938.963.963,0,0,0,.114.76.823.823,0,0,1-.114.988c0,.988-.076,1.748,0,2.584a1.728,1.728,0,0,1-.19,1.064.634.634,0,0,1-.57.342,8.924,8.924,0,0,0-.988.038c-.3.076-.684-.114-.836.152a.65.65,0,0,0-.266.494.531.531,0,0,0,.494.494h.228c.3,0,.57-.038.836-.038.38,0,.76.038,1.178.038h.3a18.9,18.9,0,0,1,1.976-.076,12.413,12.413,0,0,1,2.394.076,7.325,7.325,0,0,1,1.824,0h.076c.494,0,.722-.3.722-.57a.665.665,0,0,0-.266-.532c-.152-.228-.494-.038-.684-.114-.19-.038-.494,0-.608-.114-.418-.114-.57-.342-.608-1.1-.038-.8-.038-1.52-.038-2.09-.38-.494-.3-.722-.152-.988a1.406,1.406,0,0,0,.19-.418c.076-.76-.228-.874,0-1.558.19-.266-.076-1.178,0-1.558-.19-.608.228-1.292,0-1.6a2.688,2.688,0,0,1,0-1.558c.228-.3-.076-.8,0-1.558a2.515,2.515,0,0,1,1.064-1.254,5.654,5.654,0,0,1,1.368-.646,5.082,5.082,0,0,1,1.444-.38c.418.228,1.254.152,1.368.38.076.3.57.228.684.722a7.474,7.474,0,0,1,.342,2.47,17.352,17.352,0,0,0,0,2.812,1.358,1.358,0,0,1,.114,1.1.883.883,0,0,0,0,.76.922.922,0,0,1-.076.874c-.114.152,0,.3.076.456a.5.5,0,0,1-.038.456c-.19.3.152.722,0,1.216a6.038,6.038,0,0,0-.076,1.444c.076,1.064.076,1.786-.3,2.052a2.328,2.328,0,0,1-1.292.076c-.532.076-.684,1.064-.076,1.216.076,0,.152.038.228.038.228,0,.456-.076.722-.076.076,0,.152.038.228.038.19,0,.38.038.532.038.19,0,.38-.038.532-.038.228-.228.532-.038.684-.038.342,0,.646.076.95.076a1.762,1.762,0,0,0,.722-.152c.874-.038,1.1.076,2.09.114l.266.038c.38,0,.76-.114,1.1-.076h1.14c.19,0,.342-.228.342-.494A.617.617,0,0,0,395.048-1.672Zm14.934-5.852A5.681,5.681,0,0,0,408.69-9.69a9.375,9.375,0,0,0-2.356-1.292.729.729,0,0,1-.722-.152,1.5,1.5,0,0,0-.608-.3c-.76.038-1.1-.57-1.6-.532a7.036,7.036,0,0,1-1.6-.646,3.172,3.172,0,0,1-1.14-.912,1.5,1.5,0,0,1-.418-1.368,2.49,2.49,0,0,1,1.1-1.938,5.308,5.308,0,0,1,2.128-.532,3.752,3.752,0,0,1,2.052.456,6.793,6.793,0,0,1,1.672,1.368,2.934,2.934,0,0,1,.608,1.368,6.261,6.261,0,0,0,.152,1.216.462.462,0,0,0,.494.342c.342,0,.646-.19.57-.456,0-.456-.038-.76-.076-1.292a.347.347,0,0,0-.114-.266c-.038-.114-.076-.19.076-.418-.038-.57.076-.836.114-1.9-.038-.3.19-.532.152-.8a.683.683,0,0,0-.57-.342.209.209,0,0,0-.19.114c-.266.228-.266.494-.494.646-.19.076-.342,0-.608-.114a11.6,11.6,0,0,0-1.9-.76,9.768,9.768,0,0,0-1.9-.3h-.152a7.9,7.9,0,0,0-2.166.456,1.191,1.191,0,0,0-.418.3.612.612,0,0,1-.608.228,1.817,1.817,0,0,0-.874.684,7.008,7.008,0,0,0-1.292,1.862,6.646,6.646,0,0,0-.494,2.318,4.093,4.093,0,0,0,.418,2.356,3.007,3.007,0,0,0,1.292,1.6,3.342,3.342,0,0,0,1.634.988c.532.19,1.14.76,1.938.722.418-.076.646.266,1.14.418a5.59,5.59,0,0,1,1.14.3c.266.114.532.038.95.418a.672.672,0,0,0,.3.19c.19.038.342.114.494.456a1.324,1.324,0,0,1,.38,1.1c.114.57-.114.836-.266,1.368a4.33,4.33,0,0,1-1.026,1.026c-.152.3-.266.266-.418.266a.419.419,0,0,0-.342.114,5.761,5.761,0,0,1-1.6.152,4.493,4.493,0,0,1-1.406-.114.654.654,0,0,1-.57-.19,1.994,1.994,0,0,0-.418-.266,4.893,4.893,0,0,1-1.14-.836,4.711,4.711,0,0,1-.8-.988.748.748,0,0,1-.38-.57c-.076-.152-.114-.342-.228-.608a7,7,0,0,1-.38-1.482c.038-.266-.266-.418-.532-.418-.228,0-.456.076-.494.3a8.989,8.989,0,0,0,.038,1.14c.114.342.266.57.076.95a6.138,6.138,0,0,1-.076,1.482c-.152.57-.152,1.1-.266,1.558a.287.287,0,0,0-.038.152c0,.38.722.57.874.3.228-.266.152-.418.532-.722.114-.114.494-.076.912.266.418.418,1.254.494,1.786.8a5.268,5.268,0,0,0,1.216.228,6.517,6.517,0,0,0,1.71.152,12.579,12.579,0,0,0,2.242-.38c.494-.19.95-.228,1.292-.646.266-.342.684-.19.874-.57a1.143,1.143,0,0,1,.456-.418.982.982,0,0,0,.3-.418c.152-.57.76-1.1.8-1.6a.867.867,0,0,1,.152-.722,1.163,1.163,0,0,0,.114-.57v-.114A8.244,8.244,0,0,0,409.982-7.524Zm30.1-10.374c-.418-.266-1.216-.076-1.52-.076a.611.611,0,0,0-.418-.114c-.38,0-.874.114-1.026,0a1.425,1.425,0,0,0-.418-.038c-.266,0-.57.038-.836.038h-.228c-.342,0-.646-.038-.912-.038a.872.872,0,0,0-.532.152.739.739,0,0,0,.456,1.292,1.607,1.607,0,0,0,.95,0,.528.528,0,0,1,.608.608,4.081,4.081,0,0,1-.266,1.292c.076.646-.19.722-.38,1.178-.266.152-.228.95-.418,1.178a7.166,7.166,0,0,1-.38,1.178c-.152.342-.038.722-.38,1.178-.266.228-.152,1.216-.532,1.52-.532.57-.228,1.254-.8,1.748a.41.41,0,0,1-.266.114c-.38,0-.76-.608-.76-.76,0-.19-.152-.266-.266-.38a.533.533,0,0,1-.076-.646c.152-.342-.646-1.026-.608-1.558.038-.266-.57-.912-.57-1.558.038-.38-.532-.8-.57-1.558-.038-.646-.494-.836-.57-1.558a2.142,2.142,0,0,1-.57-1.558c.038-.494-.266-.76-.38-1.292a.645.645,0,0,0-1.14-.19c-.266.722-.266,1.1-.418,1.482a1.931,1.931,0,0,0-.608,1.558l-.608,1.52c0,.494-.684,1.14-.608,1.558-.114.38-.494,1.292-.608,1.558a4.6,4.6,0,0,0-.608,1.558c-.266.342-.494.8-.38.95-.228.912-1.064,1.1-1.406.19a1.2,1.2,0,0,0-.19-.532.388.388,0,0,1-.076-.342c-.342-.342-.076-.684-.418-1.406a4.5,4.5,0,0,1-.418-1.444.888.888,0,0,0-.228-.8,1.277,1.277,0,0,1-.19-.608c-.3-.494-.038-.76-.418-1.406a4.7,4.7,0,0,0-.494-1.748c-.038-.38-.114-.874.342-1.026.494-.19,1.254.114,1.71-.152a.794.794,0,0,0,.228-.57c0-.3-.152-.646-.57-.57a18.524,18.524,0,0,0-2.014.076c-.684.076-1.824-.076-2.47,0-.684.038-1.938-.076-2.736-.076-.57,0-1.026-.076-1.444-.076a1.767,1.767,0,0,0-.76.114.637.637,0,0,0-.266.57.665.665,0,0,0,.456.684c.722.152.874,0,1.368.114.456-.076.76.418.912.912.57.608.266,1.216.57,1.71.19.608.418,1.14.608,1.71.19.988.494,1.254.722,2.166a18.091,18.091,0,0,0,.722,2.166,6.538,6.538,0,0,0,.722,2.2c.19.95.722,1.292.722,2.166.152.608.57.912.494,1.482.228.912.3,1.672.76,2.09a1.461,1.461,0,0,0,.912.228,1.678,1.678,0,0,0,1.178-.342.826.826,0,0,0,.266-.608.179.179,0,0,1,.038-.228c.038-.532.418-.722.456-1.178.152-.3.3-.342.3-.76a5.02,5.02,0,0,1,.76-2.014,18.6,18.6,0,0,1,.8-2.052,2.407,2.407,0,0,1,.57-1.406,1.6,1.6,0,0,1,.836-1.292c.608-.152.684-.038.836.57a4.4,4.4,0,0,0,.8,2.014c.8.418.266,1.444.722,1.938.266.95.646,1.1.76,1.976,0,.152.152.3.266.418.19.228.38.418.152.684-.114.228.3.57.418,1.14,0,.57.076.988.646,1.026.266,0,.608.076.95.076a1.566,1.566,0,0,0,1.026-.3.729.729,0,0,0,.19-.76,1.77,1.77,0,0,1,.228-.95c.57-.494.114-1.064.532-1.52a1.566,1.566,0,0,0,.456-1.406c-.076-.684.532-1.1.494-1.406a8.059,8.059,0,0,1,.494-1.444c.076-.456.342-.722.494-1.406a5.919,5.919,0,0,1,.494-1.444c.228-.418.152-.722.456-1.406.076-.684.57-.836.494-1.406a4.6,4.6,0,0,1,.494-1.406A6.739,6.739,0,0,0,437.684-16c.152-.3.228-.456.38-.532.152-.114.342-.114.76-.19.494.038,1.1.114,1.292-.038a.542.542,0,0,0,.228-.456A1.184,1.184,0,0,0,440.078-17.9Zm16.568,12.92c-.532.646-.646,1.026-.874,1.254-.152.646-.912.684-1.178,1.216-.684.608-1.026.38-1.482.8a4.283,4.283,0,0,1-1.9.266,3.8,3.8,0,0,1-1.634-.19,2.726,2.726,0,0,1-1.254-.532A2.2,2.2,0,0,1,447.336-3c-.38-.418-.266-.608-.722-1.1-.342-.38-.266-1.064-.456-1.254-.228-.19-.19-.38-.19-.684a1.863,1.863,0,0,0-.114-.722,2.636,2.636,0,0,1-.152-1.482,1.272,1.272,0,0,0-.038-.874,1.6,1.6,0,0,1,0-.608l.038-.152c.266-.342.456-.608.836-.608h2.7c.722-.19.912.114,1.786,0a5.6,5.6,0,0,1,1.786,0c.646.114,1.33-.076,2.356.038a8.942,8.942,0,0,0,2.2-.114c.3.076.646-.3.646-.76a.646.646,0,0,0-.038-.266,2.93,2.93,0,0,0-.608-2.09,1.306,1.306,0,0,1-.3-.532,1.54,1.54,0,0,0-.3-.494c-.3-.114-.266-.532-.722-.95a3.964,3.964,0,0,0-1.33-1.216,8.723,8.723,0,0,0-1.52-.874,2.886,2.886,0,0,0-1.672-.532c-.494.114-1.254-.228-1.634-.228-.076,0-.114.038-.152.038-.684.228-1.064-.076-1.9.19a4.174,4.174,0,0,0-1.748.532c-.418.3-1.292.456-1.6.874-.342.38-1.14.494-1.406,1.1-.266.57-.836.684-1.1,1.368-.266.646-.722.8-.874,1.6a.687.687,0,0,1-.114.722.794.794,0,0,0-.3.494,19.276,19.276,0,0,0-.342,2.128.741.741,0,0,0,.038.3,2.008,2.008,0,0,0-.038.456c0,.532.19.836.228,1.482a2.569,2.569,0,0,0,.532,1.786c.228.8.646.836.836,1.52a3.071,3.071,0,0,0,1.14,1.33.956.956,0,0,0,.456.266c.266.076.456.114.532.608a9.756,9.756,0,0,0,1.976,1.026,5.442,5.442,0,0,0,1.748.494,2.229,2.229,0,0,0,.874.152h.722A1.052,1.052,0,0,1,449.73,0a7.024,7.024,0,0,1,.912-.038h.38A3.783,3.783,0,0,0,452.39-.3a4.529,4.529,0,0,0,2.09-.874l.76-.494c.114-.342.57-.57.95-.988.228-.3.532-.646.76-.988.152-.342.494-.456.608-.912.114-.3-.266-.646-.57-.646A.318.318,0,0,0,456.646-4.978Zm-10.45-8.93c.114-.456.076-1.1.456-1.482a8.179,8.179,0,0,1,1.216-1.52,3.049,3.049,0,0,1,1.938-.57,2.788,2.788,0,0,1,1.862.608c.494.3.608.95.988,1.52.418.532.114,1.14.418,1.558a8.467,8.467,0,0,1,.076,1.672c.038.57-.114.76-.912.722-1.064-.038-1.938.038-2.774,0-.608.038-1.9,0-2.622,0-.8,0-1.1-.3-.988-1.178a.96.96,0,0,0,.114-.684A.84.84,0,0,1,446.2-13.908Zm28.918-2.622c-.3-.608-.3-.836-.722-1.026a3.081,3.081,0,0,0-1.064-.646,3.847,3.847,0,0,0-1.9-.19.566.566,0,0,0-.3.114c-.114.076-.152.152-.57.076a6.29,6.29,0,0,0-1.216.722c-.266.114-.988.76-1.026,1.064a4.432,4.432,0,0,0-.418.608c-.114.19-.228.228-.38.19-.114-.038-.19-.076-.228-.19a3.289,3.289,0,0,1,0-1.1c-.076-.494.152-.874-.038-1.254a.759.759,0,0,0-.646-.494.565.565,0,0,0-.342.076,1.7,1.7,0,0,1-1.292.266,14.585,14.585,0,0,1-1.672.228,3.939,3.939,0,0,1-1.52.114,8.208,8.208,0,0,1-1.368,0c-.532,0-.722.266-.722.57,0,.342.228.722.532.684.456.038.95-.076,1.254-.038.152.038.418-.038.608.076a.857.857,0,0,1,.19.456c.228.76-.038.912.076,1.444a8.721,8.721,0,0,1,.038,2.622.92.92,0,0,0,.114.532.5.5,0,0,1-.114.608c-.038.95,0,1.938-.038,2.774a3.082,3.082,0,0,0,.114.418c.152.228.228.38-.076.836a17.782,17.782,0,0,0,0,2.014c-.038.684-.038,1.52-.076,2.052-.114.722-.19,1.064-.8,1.14-.646.038-1.254-.038-1.52.038-.3,0-.456.266-.456.57,0,.342.19.684.57.608.988,0,1.254,0,2.432.038.532,0,1.1.038,1.634.038.57,0,1.1-.038,1.558-.038.152-.228.38-.19.684-.114a4.26,4.26,0,0,0,.8.152c.57.038,1.026.038,1.482.038a4.843,4.843,0,0,0,1.064-.076h.076c.266,0,.38-.266.38-.57,0-.342-.19-.76-.57-.646a2.084,2.084,0,0,1-.494,0,1.433,1.433,0,0,0-.722,0,.834.834,0,0,1-1.026-.8c.076-.608-.19-1.786-.076-2.622-.038-.342-.418-.8,0-1.368a18.182,18.182,0,0,0,0-2.052,22.794,22.794,0,0,0,0-2.28,5.045,5.045,0,0,1,.3-2.28c.152-.38.038-.912.418-1.1.266-.266.228-.456.38-.684a.991.991,0,0,1,.266-.38c.19-.114.3-.608.912-.8a1.009,1.009,0,0,1,.988-.342c.38-.038.722.19.684.418a1.6,1.6,0,0,1,.038,1.026,1.563,1.563,0,0,0,.494,1.406,1.569,1.569,0,0,0,1.71.608c.456.076.874-.076,1.406-.722a1.747,1.747,0,0,0,.532-1.368v-.228A3.03,3.03,0,0,0,475.114-16.53ZM12.464,44.5c-.3.076-.418.342-.57.418a.505.505,0,0,1-.266.114.589.589,0,0,0-.38.266c-.076.114-.38.19-.456.266-.342.266-.532.19-1.1.228A1.4,1.4,0,0,1,8.4,45.372c-.152-.152-.532-.418-.532-.722a2.428,2.428,0,0,0-.228-.836,3.056,3.056,0,0,1-.114-1.254c.152-.8-.114-1.824.038-2.2-.038-.8,0-1.634,0-2.356-.266-.95.114-1.292-.038-1.976-.152-.38.152-1.786.076-2.242a12.65,12.65,0,0,1,.038-2.394c0-.228.114-.57.836-.608.38.038.532,0,1.254,0,.3,0,.38.152.836-.076.152-.076.342.114.684.076.342,0,.494-.3.494-.608,0-.342-.19-.646-.456-.532a3.132,3.132,0,0,1-.912-.076,1.066,1.066,0,0,0-.532.038.312.312,0,0,1-.266.038c-.494-.152-.57,0-.988-.038-.342-.038-.57,0-.722-.19a.608.608,0,0,1-.152-.418c-.076-.57.076-.8-.076-1.178-.076-.152,0-.266.038-.38a.375.375,0,0,0-.076-.38c-.152-.342.114-.684.076-1.026a5.87,5.87,0,0,1,.114-1.482c.076-.418-.038-.836,0-1.178.038-.266-.228-.38-.456-.38-.19,0-.418.076-.418.3a9.444,9.444,0,0,1-.3,1.292,1.635,1.635,0,0,1-.19.646,2.2,2.2,0,0,0-.266.532c-.3.342-.19.608-.532.874a4.106,4.106,0,0,1-.684.8c-.3.494-.57.532-.874.912-.19.19-.608.266-.988.646-.228.266-.836.19-1.064.418a.638.638,0,0,1-.494.152,3.93,3.93,0,0,0-.456.114c-.608.076-.646.266-.646.494v.152c0,.532.38.532.684.494a3.969,3.969,0,0,1,.95,0c.418.038.608.228.494.836,0,.8-.076,2.166-.038,3.192a8.554,8.554,0,0,1-.038,1.976,1.12,1.12,0,0,0,.038.532c.076.266.228.418.038.836-.19.342.114.684-.038,1.1-.114.57.076.8-.114,1.33a.321.321,0,0,0,0,.266.853.853,0,0,1,.038.646,1.553,1.553,0,0,0,.038.874.42.42,0,0,0,0,.3c0,.152.114.266,0,.494.114.456-.038.912.342,1.368s.342,1.064.874,1.33a1.548,1.548,0,0,0,.418.228c.228.076.38.114.532.532a4.545,4.545,0,0,0,1.52.608,11.269,11.269,0,0,0,1.444.266c.114,0,.228-.038.3-.038.722-.114,1.026-.076,1.482-.152a5.79,5.79,0,0,0,1.368-.456,4.023,4.023,0,0,0,1.254-.722,5.558,5.558,0,0,0,.494-.342c.266-.19.608-.266.646-.608a1.2,1.2,0,0,0-.228-.57A.415.415,0,0,0,12.464,44.5Zm22.99,1.444c-.3-.228-.418-.152-.76-.228-.152-.038-.494.076-.646.038a.9.9,0,0,1-.684-.608,2.227,2.227,0,0,1-.152-1.178,7.06,7.06,0,0,0,0-1.558,19.145,19.145,0,0,0-.038-2.508c-.266-.342-.152-.494-.038-.76a1.981,1.981,0,0,0,.076-.532c.152-.722-.19-1.938,0-2.66.038-.722-.152-1.254-.076-1.938-.3-.38-.038-1.14-.418-1.862a6.047,6.047,0,0,0-1.1-1.444.652.652,0,0,1-.608-.418.914.914,0,0,0-.57-.456c-.608-.266-1.1-.57-1.482-.684a5,5,0,0,0-1.672-.152,2.647,2.647,0,0,1-.836.114,1.343,1.343,0,0,0-.76.076,6.751,6.751,0,0,0-1.748.836A16.788,16.788,0,0,0,22.306,31.2c-.532.3-.874.152-.722-.912l-.038-2.052c-.342-.494.114-1.026-.114-1.52a.6.6,0,0,1,.038-.684c.076-.152.152-.3.038-.456a1.219,1.219,0,0,1-.038-1.026,1.124,1.124,0,0,0,.076-.646,2.231,2.231,0,0,1-.038-1.216c0-.57.114-.874.076-1.634a14.566,14.566,0,0,1,.19-2.28c.152-.342-.266-.836-.684-.836a.464.464,0,0,0-.342.152,1.223,1.223,0,0,1-.836.3.812.812,0,0,0-.494.19c-.684.076-.8.38-1.482.38-.8-.152-1.444.342-1.938.228-.608-.038-.988.076-1.444.038a.55.55,0,0,0-.57.608.5.5,0,0,0,.532.532c.38.038.684-.038,1.292-.038.494.038.76.3.722.722a5.7,5.7,0,0,0,.038,1.406c.038.228.228.646,0,.836v1.6a1.68,1.68,0,0,1,.076.57,1.678,1.678,0,0,0-.076.646.407.407,0,0,1,.038.456.811.811,0,0,0-.038.456,3.942,3.942,0,0,0,.152.38c.114.19.19.342-.076.722a5.5,5.5,0,0,0-.076,1.6c.266.646-.228,1.064,0,1.6.228.8-.076.912,0,1.634.228.646-.152,1.292,0,1.6.342.532-.114,1.254,0,1.6.38.532-.266,1.026,0,1.634.228.532-.076,1.1,0,1.6.228.8-.076,1.33,0,1.6a7.467,7.467,0,0,1,0,1.6c0,.874,0,1.976-.038,2.7-.038.266-.152.342-.3.38-.114.038-.266.038-.342.114a1.89,1.89,0,0,0-.8.038.621.621,0,0,1-.266,0,.609.609,0,0,0-.456,0,.479.479,0,0,0-.494.494v.19c0,.342.114.532.456.532h.532a1.566,1.566,0,0,0,.456-.038,5.779,5.779,0,0,1,1.064-.076.813.813,0,0,1,.532,0,.549.549,0,0,0,.266.076c.038,0,.076-.038.152-.038a13.024,13.024,0,0,1,1.52-.114,16.614,16.614,0,0,0,1.748.114h.57c.152,0,.418.038.646.038h.152a1.7,1.7,0,0,1,.418-.038c.228,0,.456.038.8.038.38,0,.532-.114.57-.494s0-.532-.342-.722c-.114-.114-.266,0-.494-.038-.266,0-.76.114-.988,0-.19-.114-.3-.19-.342-.38-.038-.228.038-.646.038-1.33a.745.745,0,0,1-.076-.95c0-.456-.038-.836-.038-1.216-.38-.456.114-1.14-.038-1.368a.767.767,0,0,1-.076-.684.45.45,0,0,0,.038-.3.5.5,0,0,1-.038-.456.625.625,0,0,0,.038-.38c-.114-.532.152-.912.038-1.52a2.5,2.5,0,0,1,0-1.064c.19-.76-.076-1.444.076-2.09a4.835,4.835,0,0,1,.266-.8c.38-.456.456-.722.988-1.026a9.632,9.632,0,0,1,1.368-.76,6.507,6.507,0,0,1,1.71-.3,2.4,2.4,0,0,1,1.938.874,4.114,4.114,0,0,1,.38,2.28,23.772,23.772,0,0,0,0,2.85c-.076.95.038,2.166,0,2.888a9.74,9.74,0,0,0,0,1.824c.076.646-.152,1.482,0,1.786a3.276,3.276,0,0,0,0,.874c.038.456.114.646-.228.988-.114.114-.38.494-.76.342-.3-.114-.494,0-.76-.038a.5.5,0,0,0-.57.494c0,.418.038.684.456.684h.114a9.873,9.873,0,0,1,1.064,0h.8a.837.837,0,0,1,.3.038c.684-.038,1.368-.038,2.09-.076.836,0,1.33.038,1.786.038h.342a5.752,5.752,0,0,1,1.1.038h.95a.647.647,0,0,0,.266-.038c.418-.038.532-.228.532-.456A.869.869,0,0,0,35.454,45.942Zm17.518-3.42c-.532.646-.646,1.026-.874,1.254-.152.646-.912.684-1.178,1.216-.684.608-1.026.38-1.482.8a4.283,4.283,0,0,1-1.9.266,3.8,3.8,0,0,1-1.634-.19,2.726,2.726,0,0,1-1.254-.532,2.2,2.2,0,0,1-.988-.836c-.38-.418-.266-.608-.722-1.1-.342-.38-.266-1.064-.456-1.254-.228-.19-.19-.38-.19-.684a1.863,1.863,0,0,0-.114-.722,2.636,2.636,0,0,1-.152-1.482,1.272,1.272,0,0,0-.038-.874,1.6,1.6,0,0,1,0-.608l.038-.152c.266-.342.456-.608.836-.608h2.7c.722-.19.912.114,1.786,0a5.6,5.6,0,0,1,1.786,0c.646.114,1.33-.076,2.356.038a8.942,8.942,0,0,0,2.2-.114c.3.076.646-.3.646-.76a.647.647,0,0,0-.038-.266,2.93,2.93,0,0,0-.608-2.09,1.307,1.307,0,0,1-.3-.532,1.539,1.539,0,0,0-.3-.494c-.3-.114-.266-.532-.722-.95a3.964,3.964,0,0,0-1.33-1.216,8.723,8.723,0,0,0-1.52-.874,2.886,2.886,0,0,0-1.672-.532c-.494.114-1.254-.228-1.634-.228-.076,0-.114.038-.152.038-.684.228-1.064-.076-1.9.19a4.174,4.174,0,0,0-1.748.532c-.418.3-1.292.456-1.6.874-.342.38-1.14.494-1.406,1.1-.266.57-.836.684-1.1,1.368-.266.646-.722.8-.874,1.6a.687.687,0,0,1-.114.722.794.794,0,0,0-.3.494,19.283,19.283,0,0,0-.342,2.128.741.741,0,0,0,.038.3,2.008,2.008,0,0,0-.038.456c0,.532.19.836.228,1.482a2.569,2.569,0,0,0,.532,1.786c.228.8.646.836.836,1.52a3.071,3.071,0,0,0,1.14,1.33.956.956,0,0,0,.456.266c.266.076.456.114.532.608a9.757,9.757,0,0,0,1.976,1.026,5.442,5.442,0,0,0,1.748.494,2.229,2.229,0,0,0,.874.152h.722a1.052,1.052,0,0,1,.342.038,7.024,7.024,0,0,1,.912-.038h.38a3.783,3.783,0,0,0,1.368-.266,4.529,4.529,0,0,0,2.09-.874l.76-.494c.114-.342.57-.57.95-.988.228-.3.532-.646.76-.988.152-.342.494-.456.608-.912.114-.3-.266-.646-.57-.646A.318.318,0,0,0,52.972,42.522Zm-10.45-8.93c.114-.456.076-1.1.456-1.482a8.179,8.179,0,0,1,1.216-1.52,3.049,3.049,0,0,1,1.938-.57,2.788,2.788,0,0,1,1.862.608c.494.3.608.95.988,1.52.418.532.114,1.14.418,1.558a8.465,8.465,0,0,1,.076,1.672c.038.57-.114.76-.912.722-1.064-.038-1.938.038-2.774,0-.608.038-1.9,0-2.622,0-.8,0-1.1-.3-.988-1.178a.96.96,0,0,0,.114-.684A.84.84,0,0,1,42.522,33.592Zm49.742,12.35c-.3-.228-.418-.152-.76-.228-.152-.038-.494.076-.646.038a.9.9,0,0,1-.684-.608,2.227,2.227,0,0,1-.152-1.178,7.06,7.06,0,0,0,0-1.558,19.146,19.146,0,0,0-.038-2.508c-.266-.342-.152-.494-.038-.76a1.981,1.981,0,0,0,.076-.532c.152-.722-.19-1.938,0-2.66.038-.722-.152-1.254-.076-1.938-.3-.38-.038-1.14-.418-1.862a6.047,6.047,0,0,0-1.1-1.444.652.652,0,0,1-.608-.418.914.914,0,0,0-.57-.456c-.608-.266-1.1-.57-1.482-.684a5,5,0,0,0-1.672-.152,2.647,2.647,0,0,1-.836.114,1.343,1.343,0,0,0-.76.076,6.751,6.751,0,0,0-1.748.836A16.789,16.789,0,0,0,79.116,31.2c-.532.3-.874.152-.722-.912l-.038-2.052c-.342-.494.114-1.026-.114-1.52a.6.6,0,0,1,.038-.684c.076-.152.152-.3.038-.456a1.219,1.219,0,0,1-.038-1.026,1.124,1.124,0,0,0,.076-.646,2.231,2.231,0,0,1-.038-1.216c0-.57.114-.874.076-1.634a14.566,14.566,0,0,1,.19-2.28c.152-.342-.266-.836-.684-.836a.464.464,0,0,0-.342.152,1.223,1.223,0,0,1-.836.3.812.812,0,0,0-.494.19c-.684.076-.8.38-1.482.38-.8-.152-1.444.342-1.938.228-.608-.038-.988.076-1.444.038a.55.55,0,0,0-.57.608.5.5,0,0,0,.532.532c.38.038.684-.038,1.292-.038.494.038.76.3.722.722a5.7,5.7,0,0,0,.038,1.406c.038.228.228.646,0,.836v1.6a1.68,1.68,0,0,1,.076.57,1.678,1.678,0,0,0-.076.646.407.407,0,0,1,.038.456.811.811,0,0,0-.038.456,3.945,3.945,0,0,0,.152.38c.114.19.19.342-.076.722a5.5,5.5,0,0,0-.076,1.6c.266.646-.228,1.064,0,1.6.228.8-.076.912,0,1.634.228.646-.152,1.292,0,1.6.342.532-.114,1.254,0,1.6.38.532-.266,1.026,0,1.634.228.532-.076,1.1,0,1.6.228.8-.076,1.33,0,1.6a7.467,7.467,0,0,1,0,1.6c0,.874,0,1.976-.038,2.7-.038.266-.152.342-.3.38-.114.038-.266.038-.342.114a1.89,1.89,0,0,0-.8.038.621.621,0,0,1-.266,0,.609.609,0,0,0-.456,0,.479.479,0,0,0-.494.494v.19c0,.342.114.532.456.532h.532a1.566,1.566,0,0,0,.456-.038,5.779,5.779,0,0,1,1.064-.076.813.813,0,0,1,.532,0,.549.549,0,0,0,.266.076c.038,0,.076-.038.152-.038a13.024,13.024,0,0,1,1.52-.114,16.614,16.614,0,0,0,1.748.114h.57c.152,0,.418.038.646.038h.152a1.7,1.7,0,0,1,.418-.038c.228,0,.456.038.8.038.38,0,.532-.114.57-.494s0-.532-.342-.722c-.114-.114-.266,0-.494-.038-.266,0-.76.114-.988,0-.19-.114-.3-.19-.342-.38-.038-.228.038-.646.038-1.33a.745.745,0,0,1-.076-.95c0-.456-.038-.836-.038-1.216-.38-.456.114-1.14-.038-1.368a.767.767,0,0,1-.076-.684.45.45,0,0,0,.038-.3.5.5,0,0,1-.038-.456.625.625,0,0,0,.038-.38c-.114-.532.152-.912.038-1.52a2.5,2.5,0,0,1,0-1.064c.19-.76-.076-1.444.076-2.09a4.835,4.835,0,0,1,.266-.8c.38-.456.456-.722.988-1.026a9.633,9.633,0,0,1,1.368-.76,6.508,6.508,0,0,1,1.71-.3,2.4,2.4,0,0,1,1.938.874,4.114,4.114,0,0,1,.38,2.28,23.773,23.773,0,0,0,0,2.85c-.076.95.038,2.166,0,2.888a9.741,9.741,0,0,0,0,1.824c.076.646-.152,1.482,0,1.786a3.277,3.277,0,0,0,0,.874c.038.456.114.646-.228.988-.114.114-.38.494-.76.342-.3-.114-.494,0-.76-.038a.5.5,0,0,0-.57.494c0,.418.038.684.456.684h.114a9.873,9.873,0,0,1,1.064,0h.8a.837.837,0,0,1,.3.038c.684-.038,1.368-.038,2.09-.076.836,0,1.33.038,1.786.038h.342a5.753,5.753,0,0,1,1.1.038h.95a.647.647,0,0,0,.266-.038c.418-.038.532-.228.532-.456A.869.869,0,0,0,92.264,45.942Zm18.012-1.824c-.114.342-.3.38-.456.76a1.384,1.384,0,0,1-.456.418.9.9,0,0,1-.57.038c-.76-.038-1.026-.684-1.064-1.254a22.685,22.685,0,0,1,0-2.28,1.285,1.285,0,0,1-.038-.836,3.206,3.206,0,0,0,.076-.722c-.038-.532-.38-.722-.076-1.33.152-.266-.152-.57,0-1.1.114-.38-.19-.76,0-1.33.114-.38-.038-.95.038-1.52a16.112,16.112,0,0,0-.228-2.508c-.3-.152-.266-.3-.266-.532a.983.983,0,0,0-.266-.684c-.3-.418-.57-.912-.988-1.064-.684-.228-.836-.722-1.292-.684-.608.038-.8-.418-1.33-.3-.57-.076-1.026-.114-1.368-.19a6.27,6.27,0,0,0-2.2.266,9.236,9.236,0,0,0-2.47.722c-.266.038-.342.152-.38.266-.076.114-.114.228-.494.228-.19,0-.342.3-.836.722a2.469,2.469,0,0,0-.76,2.014,2.157,2.157,0,0,0,.57,1.52,2.218,2.218,0,0,0,1.482.646c.608-.038.988.038,1.292-.57a2.3,2.3,0,0,0,.532-1.33,1.429,1.429,0,0,0-.532-1.216.785.785,0,0,1-.3-.95c-.114-.228.532-.836.988-.912a13.919,13.919,0,0,1,1.6-.266c.874.114,1.786.228,2.014.8.684.608.57,1.368.684,2.052a13.287,13.287,0,0,1,0,1.748,3.392,3.392,0,0,1,0,1.52c.076.266,0,.38-.152.646a.847.847,0,0,1-.836.418c-.722.076-.874.38-1.558.266a7.776,7.776,0,0,0-1.786.342,4.757,4.757,0,0,0-1.938.684c-.76.152-.8.646-1.558.988-.76.266-.95.912-1.444,1.672a4.2,4.2,0,0,0-.494,1.976,2.167,2.167,0,0,0,.038.494.721.721,0,0,0,.152.456c.114.228.3.342.19.8.3.57.494,1.1,1.064,1.292a4.895,4.895,0,0,0,1.52.836,7.231,7.231,0,0,0,1.748.266,7.94,7.94,0,0,0,2.166-.38c.076-.228.266-.266.456-.3a.6.6,0,0,0,.456-.19c.3-.266,1.026-.38,1.216-.912a.745.745,0,0,1,1.216.266,3.893,3.893,0,0,0,.95.874,5.247,5.247,0,0,0,2.242.57,1.11,1.11,0,0,0,.342.076c.456,0,.912-.38,1.14-.3a2.185,2.185,0,0,0,1.178-.608c.38-.38.722-.38.988-.95a4.191,4.191,0,0,0,.722-.95.343.343,0,0,0,.038-.19.578.578,0,0,0-.57-.532A.341.341,0,0,0,110.276,44.118Zm-7.3-.494a6.046,6.046,0,0,1-1.1,1.254,3.825,3.825,0,0,1-1.786.532,2.879,2.879,0,0,1-1.9-.874,1.2,1.2,0,0,1-.494-1.064c0-.342-.3-.608-.19-.988.19-.494.038-.608.152-.912-.114-.456.3-.684.532-1.178A2.5,2.5,0,0,1,99.37,39.33c.456-.456.8-.228,1.368-.608.342-.38.874-.19,1.14-.3.684-.19,1.368-.038,1.254.836a.719.719,0,0,0,.038.57.653.653,0,0,1,0,.646.566.566,0,0,0-.076.532.723.723,0,0,1,.038.646c-.038.418.19.532.038.988C103.056,43.016,103.208,43.32,102.98,43.624ZM128.136,30.97c-.3-.608-.3-.836-.722-1.026a3.081,3.081,0,0,0-1.064-.646,3.847,3.847,0,0,0-1.9-.19.566.566,0,0,0-.3.114c-.114.076-.152.152-.57.076a6.291,6.291,0,0,0-1.216.722c-.266.114-.988.76-1.026,1.064a4.43,4.43,0,0,0-.418.608c-.114.19-.228.228-.38.19-.114-.038-.19-.076-.228-.19a3.288,3.288,0,0,1,0-1.1c-.076-.494.152-.874-.038-1.254a.759.759,0,0,0-.646-.494.565.565,0,0,0-.342.076,1.7,1.7,0,0,1-1.292.266,14.586,14.586,0,0,1-1.672.228,3.939,3.939,0,0,1-1.52.114,8.208,8.208,0,0,1-1.368,0c-.532,0-.722.266-.722.57,0,.342.228.722.532.684.456.038.95-.076,1.254-.038.152.038.418-.038.608.076a.857.857,0,0,1,.19.456c.228.76-.038.912.076,1.444a8.722,8.722,0,0,1,.038,2.622.92.92,0,0,0,.114.532.5.5,0,0,1-.114.608c-.038.95,0,1.938-.038,2.774a3.084,3.084,0,0,0,.114.418c.152.228.228.38-.076.836a17.773,17.773,0,0,0,0,2.014c-.038.684-.038,1.52-.076,2.052-.114.722-.19,1.064-.8,1.14-.646.038-1.254-.038-1.52.038-.3,0-.456.266-.456.57,0,.342.19.684.57.608.988,0,1.254,0,2.432.038.532,0,1.1.038,1.634.038.57,0,1.1-.038,1.558-.038.152-.228.38-.19.684-.114a4.26,4.26,0,0,0,.8.152c.57.038,1.026.038,1.482.038a4.843,4.843,0,0,0,1.064-.076h.076c.266,0,.38-.266.38-.57,0-.342-.19-.76-.57-.646a2.084,2.084,0,0,1-.494,0,1.433,1.433,0,0,0-.722,0,.834.834,0,0,1-1.026-.8c.076-.608-.19-1.786-.076-2.622-.038-.342-.418-.8,0-1.368a18.193,18.193,0,0,0,0-2.052c-.114-.836.19-1.368,0-2.28a5.045,5.045,0,0,1,.3-2.28c.152-.38.038-.912.418-1.1.266-.266.228-.456.38-.684a.991.991,0,0,1,.266-.38c.19-.114.3-.608.912-.8a1.009,1.009,0,0,1,.988-.342c.38-.038.722.19.684.418a1.6,1.6,0,0,1,.038,1.026,1.919,1.919,0,0,0,2.2,2.014c.456.076.874-.076,1.406-.722a1.747,1.747,0,0,0,.532-1.368v-.228A3.03,3.03,0,0,0,128.136,30.97ZM150.176,45.9c-.684-.152-1.026.076-1.558-.114-.266-.076-.532-.114-.646-.3a.789.789,0,0,1-.152-.57c.038-.684-.152-1.9-.038-2.66.19-.608-.266-1.026,0-1.6.114-1.026-.076-1.52,0-2.622a15.1,15.1,0,0,1,0-2.622,6.932,6.932,0,0,1,0-2.66,8.616,8.616,0,0,0,0-2.622c.228-.76-.152-1.52,0-2.622a14.733,14.733,0,0,1,.038-3.648c0-.76-.3-1.026,0-1.9.152-.95-.038-1.33.152-2.584.076-.57.152-1.026-.152-1.178-.19-.076-.342-.228-.57-.228a.544.544,0,0,0-.38.114,2.233,2.233,0,0,1-1.33.608c-.494.076-1.33.38-1.672.38a5.411,5.411,0,0,0-1.71.076,13.973,13.973,0,0,0-1.748.038.542.542,0,0,0-.418.57c0,.3.19.608.532.57a11.061,11.061,0,0,0,1.6-.038c.418,0,.684.152.722.76,0,.684,0,1.748.038,2.242.19.152.19.342.114.608a5.4,5.4,0,0,0-.114.95c.038.532-.076,1.064,0,1.558.228.8-.228,1.178,0,1.558.3.418-.114.836.038,1.444a.467.467,0,0,1-.038.494.411.411,0,0,0-.076.494c.114.608-.076.912-.38.912a.778.778,0,0,1-.57-.342,5.062,5.062,0,0,0-1.178-.912,3.7,3.7,0,0,0-1.444-.722,2.621,2.621,0,0,0-1.786-.266c-.76-.228-1.026.19-1.824.228a2.7,2.7,0,0,0-1.558.646c-.722.418-.722.874-1.33.988a2.375,2.375,0,0,0-1.1,1.254c-.076.228-.722,1.178-.836,1.482-.418.456-.228,1.216-.608,1.6a8.977,8.977,0,0,0-.38,1.71,1.012,1.012,0,0,0-.114.456,4.6,4.6,0,0,1,0,1.254,2.275,2.275,0,0,0-.076.456c0,.456.266.684.19,1.216s.342.95.38,1.6a1.1,1.1,0,0,0,.266.76,1,1,0,0,1,.38.722c.19.722.57.912.836,1.33a.969.969,0,0,0,.456.342.671.671,0,0,1,.456.608,3.5,3.5,0,0,0,1.482,1.026,4.216,4.216,0,0,0,1.52.532,4.012,4.012,0,0,0,1.71.19,5.55,5.55,0,0,0,2.546-.494c.3-.266.95-.3,1.254-.684.19-.38.57-.228,1.216-.874.19-.19.532-.038.57.418.114.152,0,.38.076.95-.076.456.456.836.836.836h.152c.532-.266.722-.152,1.1-.342a2.016,2.016,0,0,0,.532-.19c.152-.076.266-.114.57.038.57-.152,1.064-.076,1.824-.228.342.19.836-.152,1.406.038.494-.038.76,0,.874-.152a.571.571,0,0,0,.152-.418C150.4,46.132,150.328,45.942,150.176,45.9Zm-7.3-4.636c.152.646-.152,1.026,0,1.71A2.236,2.236,0,0,1,142.272,44c-.228.494-.76.57-.8.8a4.224,4.224,0,0,1-2.2.722,3.538,3.538,0,0,1-3.42-2.546,8.919,8.919,0,0,1-.57-2.356,11.316,11.316,0,0,1-.152-2.242,9.09,9.09,0,0,1,.152-2.2,4.538,4.538,0,0,1,.57-2.318c-.076-.228.266-.57.494-.95.076-.608.3-.912.76-.912.532-.19,1.368-.988,2.09-.76a5.8,5.8,0,0,1,1.672.456,3.012,3.012,0,0,1,1.292,1.178c.532.684.342.836.608,1.6.3.3.228.38.152.608a1.176,1.176,0,0,0-.038.57c-.114.722.152,1.368,0,2.2a1.341,1.341,0,0,0,.152.646.8.8,0,0,1-.152,1.064C142.842,40.09,142.918,40.508,142.88,41.268Zm25.308,1.254c-.532.646-.646,1.026-.874,1.254-.152.646-.912.684-1.178,1.216-.684.608-1.026.38-1.482.8a4.283,4.283,0,0,1-1.9.266,3.8,3.8,0,0,1-1.634-.19,2.726,2.726,0,0,1-1.254-.532,2.2,2.2,0,0,1-.988-.836c-.38-.418-.266-.608-.722-1.1-.342-.38-.266-1.064-.456-1.254-.228-.19-.19-.38-.19-.684a1.863,1.863,0,0,0-.114-.722,2.636,2.636,0,0,1-.152-1.482,1.272,1.272,0,0,0-.038-.874,1.6,1.6,0,0,1,0-.608l.038-.152c.266-.342.456-.608.836-.608h2.7c.722-.19.912.114,1.786,0a5.6,5.6,0,0,1,1.786,0c.646.114,1.33-.076,2.356.038a8.942,8.942,0,0,0,2.2-.114c.3.076.646-.3.646-.76a.647.647,0,0,0-.038-.266,2.931,2.931,0,0,0-.608-2.09,1.307,1.307,0,0,1-.3-.532,1.54,1.54,0,0,0-.3-.494c-.3-.114-.266-.532-.722-.95a3.964,3.964,0,0,0-1.33-1.216,8.722,8.722,0,0,0-1.52-.874,2.886,2.886,0,0,0-1.672-.532c-.494.114-1.254-.228-1.634-.228-.076,0-.114.038-.152.038-.684.228-1.064-.076-1.9.19a4.174,4.174,0,0,0-1.748.532c-.418.3-1.292.456-1.6.874-.342.38-1.14.494-1.406,1.1-.266.57-.836.684-1.1,1.368-.266.646-.722.8-.874,1.6a.687.687,0,0,1-.114.722.794.794,0,0,0-.3.494,19.284,19.284,0,0,0-.342,2.128.741.741,0,0,0,.038.3,2.008,2.008,0,0,0-.038.456c0,.532.19.836.228,1.482a2.569,2.569,0,0,0,.532,1.786c.228.8.646.836.836,1.52a3.071,3.071,0,0,0,1.14,1.33.956.956,0,0,0,.456.266c.266.076.456.114.532.608a9.757,9.757,0,0,0,1.976,1.026,5.442,5.442,0,0,0,1.748.494,2.23,2.23,0,0,0,.874.152h.722a1.052,1.052,0,0,1,.342.038,7.024,7.024,0,0,1,.912-.038h.38a3.783,3.783,0,0,0,1.368-.266,4.53,4.53,0,0,0,2.09-.874l.76-.494c.114-.342.57-.57.95-.988.228-.3.532-.646.76-.988.152-.342.494-.456.608-.912.114-.3-.266-.646-.57-.646A.318.318,0,0,0,168.188,42.522Zm-10.45-8.93c.114-.456.076-1.1.456-1.482a8.179,8.179,0,0,1,1.216-1.52,3.049,3.049,0,0,1,1.938-.57,2.788,2.788,0,0,1,1.862.608c.494.3.608.95.988,1.52.418.532.114,1.14.418,1.558a8.464,8.464,0,0,1,.076,1.672c.038.57-.114.76-.912.722-1.064-.038-1.938.038-2.774,0-.608.038-1.9,0-2.622,0-.8,0-1.1-.3-.988-1.178a.96.96,0,0,0,.114-.684A.84.84,0,0,1,157.738,33.592Zm28.918-2.622c-.3-.608-.3-.836-.722-1.026a3.081,3.081,0,0,0-1.064-.646,3.847,3.847,0,0,0-1.9-.19.566.566,0,0,0-.3.114c-.114.076-.152.152-.57.076a6.291,6.291,0,0,0-1.216.722c-.266.114-.988.76-1.026,1.064a4.431,4.431,0,0,0-.418.608c-.114.19-.228.228-.38.19-.114-.038-.19-.076-.228-.19a3.288,3.288,0,0,1,0-1.1c-.076-.494.152-.874-.038-1.254a.759.759,0,0,0-.646-.494.565.565,0,0,0-.342.076,1.7,1.7,0,0,1-1.292.266,14.585,14.585,0,0,1-1.672.228,3.939,3.939,0,0,1-1.52.114,8.208,8.208,0,0,1-1.368,0c-.532,0-.722.266-.722.57,0,.342.228.722.532.684.456.038.95-.076,1.254-.038.152.038.418-.038.608.076a.857.857,0,0,1,.19.456c.228.76-.038.912.076,1.444a8.722,8.722,0,0,1,.038,2.622.92.92,0,0,0,.114.532.5.5,0,0,1-.114.608c-.038.95,0,1.938-.038,2.774a3.081,3.081,0,0,0,.114.418c.152.228.228.38-.076.836a17.772,17.772,0,0,0,0,2.014c-.038.684-.038,1.52-.076,2.052-.114.722-.19,1.064-.8,1.14-.646.038-1.254-.038-1.52.038-.3,0-.456.266-.456.57,0,.342.19.684.57.608.988,0,1.254,0,2.432.038.532,0,1.1.038,1.634.038.57,0,1.1-.038,1.558-.038.152-.228.38-.19.684-.114a4.26,4.26,0,0,0,.8.152c.57.038,1.026.038,1.482.038a4.843,4.843,0,0,0,1.064-.076h.076c.266,0,.38-.266.38-.57,0-.342-.19-.76-.57-.646a2.084,2.084,0,0,1-.494,0,1.433,1.433,0,0,0-.722,0,.834.834,0,0,1-1.026-.8c.076-.608-.19-1.786-.076-2.622-.038-.342-.418-.8,0-1.368a18.2,18.2,0,0,0,0-2.052,22.8,22.8,0,0,0,0-2.28,5.045,5.045,0,0,1,.3-2.28c.152-.38.038-.912.418-1.1.266-.266.228-.456.38-.684a.992.992,0,0,1,.266-.38c.19-.114.3-.608.912-.8a1.009,1.009,0,0,1,.988-.342c.38-.038.722.19.684.418a1.6,1.6,0,0,1,.038,1.026,1.919,1.919,0,0,0,2.2,2.014c.456.076.874-.076,1.406-.722A1.747,1.747,0,0,0,187,32.414v-.228A3.03,3.03,0,0,0,186.656,30.97Zm37.81,25.194a4.19,4.19,0,0,0-1.178-.076,1.415,1.415,0,0,1-1.1-1.064,18.474,18.474,0,0,0-.114-2.546.6.6,0,0,1-.076-.836.532.532,0,0,0,0-.418c0-.3-.266-1.216,0-1.634a9.647,9.647,0,0,1-.038-1.14c0-.266.076-1.026.038-1.216a.376.376,0,0,1,0-.57.283.283,0,0,0,.038-.342c-.342-.57.114-.95-.038-1.444-.114-.494.19-1.254-.038-2.014-.152-.532.19-.8,0-1.33a3.939,3.939,0,0,0-.038-.76A1.18,1.18,0,0,1,222,40.09a12.2,12.2,0,0,0,0-2.356c.038-.57-.076-1.33,0-2.394a17.8,17.8,0,0,1,0-2.014c-.342-.418-.19-.646-.076-.95a1.1,1.1,0,0,0,.114-.532c.038-.38.038-1.064.532-1.1.456-.038.874.076,1.6,0,.228.038.342-.228.342-.494s-.114-.57-.342-.608c-.684-.152-.76.152-1.558-.038-.532-.114-1.292-.038-1.71-.152-.874-.152-1.368,0-1.71-.19-.456-.19-.912-.152-1.292-.342a.482.482,0,0,0-.228-.038.66.66,0,0,0-.646.494c-.228.266.038.912.038,1.444.114.646-.152.8-.532.456a5.188,5.188,0,0,1-.874-.722c-.38,0-.418-.076-.494-.228a.824.824,0,0,0-.266-.228,4.754,4.754,0,0,1-1.178-.57,7.688,7.688,0,0,0-2.47-.456c-.722-.19-1.178.152-1.748.228a7.733,7.733,0,0,0-1.672.76c-.266.114-.342.19-.38.3-.114.152-.076.342-.76.532a11.813,11.813,0,0,0-1.1,1.254c-.114.418-.874,1.026-.836,1.444l-.646,1.6a4.675,4.675,0,0,0-.38,1.634,1.747,1.747,0,0,0,.038.8c.076.342.19.57-.152.874,0,.114-.038.228-.038.342a9.253,9.253,0,0,0,.152,1.33,5.706,5.706,0,0,0,.38,1.634c.266.57.228,1.254.608,1.52.152.266.76,1.064.874,1.368.19.418.76.57,1.1,1.14a.463.463,0,0,0,.456.228c.266.076.57.076.722.57a11.977,11.977,0,0,0,1.672.646c.76-.076.988.456,1.748.228a2.257,2.257,0,0,0,1.672-.19c.722.076.836-.494,1.444-.532a3.694,3.694,0,0,0,1.672-1.026.931.931,0,0,1,.608-.3c.228,0,.342.152.266.532.038.38-.152,1.026.114,1.482a.5.5,0,0,1,.038.456.642.642,0,0,0-.038.646c.19.228.152.342.114.456-.076.114-.152.19-.152.3,0,.494-.038.76-.038,1.178.152.646-.19,1.1,0,1.824a24.2,24.2,0,0,1-.038,2.888c.038.684-.3.874-.608.912a10.122,10.122,0,0,1-1.558.038c-.266,0-.494.342-.494.646a.47.47,0,0,0,.532.494h1.216a6.949,6.949,0,0,0,1.254-.076,4.611,4.611,0,0,0,.684.038c.456,0,.912-.038,1.558-.038.076,0,.152.038.228.038a.642.642,0,0,0,.342-.076.4.4,0,0,1,.418-.038c.38.114.57-.152,1.14.114.988,0,1.672.038,2.812.038.3,0,.418-.266.418-.57C224.884,56.468,224.732,56.164,224.466,56.164Zm-7.41-14.972a5.093,5.093,0,0,1,0,1.52,4.572,4.572,0,0,1-.8,1.292,3.573,3.573,0,0,0-.95.8c-.266.266-.494.19-1.064.532a.761.761,0,0,1-.722.152.872.872,0,0,0-.532.038,3.082,3.082,0,0,1-2.014-.722c-.8-.608-.874-1.292-1.216-1.824a5.924,5.924,0,0,1-.57-2.242,4.15,4.15,0,0,1-.152-2.128c.114-.874-.228-1.368.152-2.28a7.82,7.82,0,0,1,.57-2.432,5.187,5.187,0,0,1,1.254-1.9,4.562,4.562,0,0,1,2.166-.76,2.389,2.389,0,0,1,1.6.38c.532.3.874.8,1.216.988a2.734,2.734,0,0,1,.8,1.368,2.4,2.4,0,0,1,.266,1.634c-.114.608.038,1.672-.038,2.47a1.851,1.851,0,0,0,.076.57.581.581,0,0,1,.038.608C216.942,39.748,217.246,40.432,217.056,41.192Zm29.032,4.446a3.349,3.349,0,0,0-1.216.038c-.456.152-1.254-.912-.988-1.444.038-.874-.038-1.9,0-2.546.228-.912-.114-1.14,0-2.09-.19-.722.228-1.178,0-2.09a12.6,12.6,0,0,1,0-2.09c.418-.95-.266-1.558,0-2.09l.038-1.254c.19-.722-.152-1.33.076-1.786a.989.989,0,0,0-.722-1.52.288.288,0,0,0-.152.076,9.61,9.61,0,0,0-1.482.342c-.57.38-.988-.038-1.71.266a10.75,10.75,0,0,0-1.71.076,10.09,10.09,0,0,0-1.52,0,.739.739,0,0,0-.418.684c0,.228.152.494.608.608a4.172,4.172,0,0,0,1.292.076c.646,0,1.026.3.8.988a14.478,14.478,0,0,1,0,1.824,7.466,7.466,0,0,0,0,1.6c.076.57-.152,1.292,0,1.6-.114.3.228,1.178,0,1.558-.152.532.076.836,0,1.6-.228.684.19,1.33,0,1.558-.076.418.114,1.026,0,1.6a3.176,3.176,0,0,0-.874.874l-.38.342a2,2,0,0,0-.532.38,2.644,2.644,0,0,1-2.28.684c-.76.228-1.14-.342-1.444-.342a2.186,2.186,0,0,1-.76-.912,1.226,1.226,0,0,1-.342-1.254,6.577,6.577,0,0,1-.076-1.482,6.056,6.056,0,0,0,0-2.356c-.114-.912.228-1.406,0-2.318a15.672,15.672,0,0,0,0-1.9,5.262,5.262,0,0,0,.038-1.9,4.29,4.29,0,0,0,.19-1.482c.114-.836.076-1.292.19-2.052a.582.582,0,0,0-.532-.722.343.343,0,0,0-.19.038c-.494.114-1.254.342-1.634.418-.646-.038-1.33.266-1.634.228a8.21,8.21,0,0,0-1.634-.076,2.605,2.605,0,0,0-1.558.152.714.714,0,0,0-.3.646.609.609,0,0,0,.342.608,2.077,2.077,0,0,0,1.216.152c.456-.038.722.456.646,1.52.114.76-.266,2.356-.038,2.926a17.32,17.32,0,0,0-.038,2.432c-.076.8,0,1.824-.038,2.394.19.836-.152,1.178.038,2.052-.152.95.114,1.14.494,1.976a11.675,11.675,0,0,0,.912,1.33c.266.418.874.57,1.254.988a2.926,2.926,0,0,0,1.52.608,5.049,5.049,0,0,1,1.6.228c.76,0,1.254-.266,1.748-.228.684-.076.836-.418,1.52-.608a3.257,3.257,0,0,0,1.672-.95c.494-.456.874-.266.988.19,0,.418-.076.684-.076,1.178,0,.3.266.532.684.646.076,0,.114.038.19.038.456,0,.912-.456,1.368-.342.38-.076,1.1-.152,1.52-.266a13.973,13.973,0,0,1,1.786,0c.57-.076,1.178.152,1.52-.038a.675.675,0,0,0,.57-.646A.763.763,0,0,0,246.088,45.638Zm18.126-3.116c-.532.646-.646,1.026-.874,1.254-.152.646-.912.684-1.178,1.216-.684.608-1.026.38-1.482.8a4.283,4.283,0,0,1-1.9.266,3.8,3.8,0,0,1-1.634-.19,2.726,2.726,0,0,1-1.254-.532,2.2,2.2,0,0,1-.988-.836c-.38-.418-.266-.608-.722-1.1-.342-.38-.266-1.064-.456-1.254-.228-.19-.19-.38-.19-.684a1.863,1.863,0,0,0-.114-.722,2.636,2.636,0,0,1-.152-1.482,1.272,1.272,0,0,0-.038-.874,1.6,1.6,0,0,1,0-.608l.038-.152c.266-.342.456-.608.836-.608h2.7c.722-.19.912.114,1.786,0a5.6,5.6,0,0,1,1.786,0c.646.114,1.33-.076,2.356.038a8.942,8.942,0,0,0,2.2-.114c.3.076.646-.3.646-.76a.647.647,0,0,0-.038-.266,2.93,2.93,0,0,0-.608-2.09,1.307,1.307,0,0,1-.3-.532,1.539,1.539,0,0,0-.3-.494c-.3-.114-.266-.532-.722-.95a3.964,3.964,0,0,0-1.33-1.216,8.723,8.723,0,0,0-1.52-.874,2.886,2.886,0,0,0-1.672-.532c-.494.114-1.254-.228-1.634-.228-.076,0-.114.038-.152.038-.684.228-1.064-.076-1.9.19a4.174,4.174,0,0,0-1.748.532c-.418.3-1.292.456-1.6.874-.342.38-1.14.494-1.406,1.1-.266.57-.836.684-1.1,1.368-.266.646-.722.8-.874,1.6a.687.687,0,0,1-.114.722.794.794,0,0,0-.3.494,19.284,19.284,0,0,0-.342,2.128.741.741,0,0,0,.038.3,2.008,2.008,0,0,0-.038.456c0,.532.19.836.228,1.482a2.569,2.569,0,0,0,.532,1.786c.228.8.646.836.836,1.52a3.071,3.071,0,0,0,1.14,1.33.956.956,0,0,0,.456.266c.266.076.456.114.532.608a9.757,9.757,0,0,0,1.976,1.026,5.442,5.442,0,0,0,1.748.494,2.23,2.23,0,0,0,.874.152h.722a1.052,1.052,0,0,1,.342.038,7.024,7.024,0,0,1,.912-.038h.38a3.783,3.783,0,0,0,1.368-.266,4.53,4.53,0,0,0,2.09-.874l.76-.494c.114-.342.57-.57.95-.988.228-.3.532-.646.76-.988.152-.342.494-.456.608-.912.114-.3-.266-.646-.57-.646A.318.318,0,0,0,264.214,42.522Zm-10.45-8.93c.114-.456.076-1.1.456-1.482a8.179,8.179,0,0,1,1.216-1.52,3.049,3.049,0,0,1,1.938-.57,2.788,2.788,0,0,1,1.862.608c.494.3.608.95.988,1.52.418.532.114,1.14.418,1.558a8.467,8.467,0,0,1,.076,1.672c.038.57-.114.76-.912.722-1.064-.038-1.938.038-2.774,0-.608.038-1.9,0-2.622,0-.8,0-1.1-.3-.988-1.178a.96.96,0,0,0,.114-.684A.84.84,0,0,1,253.764,33.592Zm27.17,6.384a5.681,5.681,0,0,0-1.292-2.166,9.375,9.375,0,0,0-2.356-1.292.729.729,0,0,1-.722-.152,1.5,1.5,0,0,0-.608-.3c-.76.038-1.1-.57-1.6-.532a7.036,7.036,0,0,1-1.6-.646,3.172,3.172,0,0,1-1.14-.912,1.5,1.5,0,0,1-.418-1.368,2.49,2.49,0,0,1,1.1-1.938,5.308,5.308,0,0,1,2.128-.532,3.752,3.752,0,0,1,2.052.456,6.793,6.793,0,0,1,1.672,1.368,2.934,2.934,0,0,1,.608,1.368,6.261,6.261,0,0,0,.152,1.216.462.462,0,0,0,.494.342c.342,0,.646-.19.57-.456,0-.456-.038-.76-.076-1.292a.347.347,0,0,0-.114-.266c-.038-.114-.076-.19.076-.418-.038-.57.076-.836.114-1.9-.038-.3.19-.532.152-.8a.683.683,0,0,0-.57-.342.209.209,0,0,0-.19.114c-.266.228-.266.494-.494.646-.19.076-.342,0-.608-.114a11.6,11.6,0,0,0-1.9-.76,9.768,9.768,0,0,0-1.9-.3h-.152a7.9,7.9,0,0,0-2.166.456,1.191,1.191,0,0,0-.418.3.612.612,0,0,1-.608.228,1.817,1.817,0,0,0-.874.684,7.008,7.008,0,0,0-1.292,1.862,6.646,6.646,0,0,0-.494,2.318,4.093,4.093,0,0,0,.418,2.356,3.007,3.007,0,0,0,1.292,1.6,3.342,3.342,0,0,0,1.634.988c.532.19,1.14.76,1.938.722.418-.076.646.266,1.14.418a5.59,5.59,0,0,1,1.14.3c.266.114.532.038.95.418a.672.672,0,0,0,.3.19c.19.038.342.114.494.456a1.324,1.324,0,0,1,.38,1.1c.114.57-.114.836-.266,1.368a4.33,4.33,0,0,1-1.026,1.026c-.152.3-.266.266-.418.266a.419.419,0,0,0-.342.114,5.761,5.761,0,0,1-1.6.152,4.493,4.493,0,0,1-1.406-.114.654.654,0,0,1-.57-.19,1.994,1.994,0,0,0-.418-.266,4.893,4.893,0,0,1-1.14-.836,4.71,4.71,0,0,1-.8-.988.748.748,0,0,1-.38-.57c-.076-.152-.114-.342-.228-.608a7,7,0,0,1-.38-1.482c.038-.266-.266-.418-.532-.418-.228,0-.456.076-.494.3a8.989,8.989,0,0,0,.038,1.14c.114.342.266.57.076.95a6.138,6.138,0,0,1-.076,1.482c-.152.57-.152,1.1-.266,1.558a.287.287,0,0,0-.038.152c0,.38.722.57.874.3.228-.266.152-.418.532-.722.114-.114.494-.076.912.266.418.418,1.254.494,1.786.8a5.268,5.268,0,0,0,1.216.228,6.517,6.517,0,0,0,1.71.152,12.579,12.579,0,0,0,2.242-.38c.494-.19.95-.228,1.292-.646.266-.342.684-.19.874-.57a1.143,1.143,0,0,1,.456-.418.982.982,0,0,0,.3-.418c.152-.57.76-1.1.8-1.6a.867.867,0,0,1,.152-.722,1.163,1.163,0,0,0,.114-.57v-.114A8.244,8.244,0,0,0,280.934,39.976ZM294.918,44.5c-.3.076-.418.342-.57.418a.505.505,0,0,1-.266.114.589.589,0,0,0-.38.266c-.076.114-.38.19-.456.266-.342.266-.532.19-1.1.228a1.4,1.4,0,0,1-1.292-.418c-.152-.152-.532-.418-.532-.722a2.428,2.428,0,0,0-.228-.836,3.056,3.056,0,0,1-.114-1.254c.152-.8-.114-1.824.038-2.2-.038-.8,0-1.634,0-2.356-.266-.95.114-1.292-.038-1.976-.152-.38.152-1.786.076-2.242a12.649,12.649,0,0,1,.038-2.394c0-.228.114-.57.836-.608.38.038.532,0,1.254,0,.3,0,.38.152.836-.076.152-.076.342.114.684.076.342,0,.494-.3.494-.608,0-.342-.19-.646-.456-.532a3.132,3.132,0,0,1-.912-.076,1.066,1.066,0,0,0-.532.038.312.312,0,0,1-.266.038c-.494-.152-.57,0-.988-.038-.342-.038-.57,0-.722-.19a.608.608,0,0,1-.152-.418c-.076-.57.076-.8-.076-1.178-.076-.152,0-.266.038-.38a.375.375,0,0,0-.076-.38c-.152-.342.114-.684.076-1.026a5.87,5.87,0,0,1,.114-1.482c.076-.418-.038-.836,0-1.178.038-.266-.228-.38-.456-.38-.19,0-.418.076-.418.3a9.44,9.44,0,0,1-.3,1.292,1.635,1.635,0,0,1-.19.646,2.2,2.2,0,0,0-.266.532c-.3.342-.19.608-.532.874a4.106,4.106,0,0,1-.684.8c-.3.494-.57.532-.874.912-.19.19-.608.266-.988.646-.228.266-.836.19-1.064.418a.638.638,0,0,1-.494.152,3.931,3.931,0,0,0-.456.114c-.608.076-.646.266-.646.494v.152c0,.532.38.532.684.494a3.969,3.969,0,0,1,.95,0c.418.038.608.228.494.836,0,.8-.076,2.166-.038,3.192a8.553,8.553,0,0,1-.038,1.976,1.12,1.12,0,0,0,.038.532c.076.266.228.418.038.836-.19.342.114.684-.038,1.1-.114.57.076.8-.114,1.33a.321.321,0,0,0,0,.266.853.853,0,0,1,.038.646,1.553,1.553,0,0,0,.038.874.42.42,0,0,0,0,.3c0,.152.114.266,0,.494.114.456-.038.912.342,1.368s.342,1.064.874,1.33a1.548,1.548,0,0,0,.418.228c.228.076.38.114.532.532a4.545,4.545,0,0,0,1.52.608,11.268,11.268,0,0,0,1.444.266c.114,0,.228-.038.3-.038.722-.114,1.026-.076,1.482-.152a5.79,5.79,0,0,0,1.368-.456,4.023,4.023,0,0,0,1.254-.722,5.559,5.559,0,0,0,.494-.342c.266-.19.608-.266.646-.608a1.2,1.2,0,0,0-.228-.57A.415.415,0,0,0,294.918,44.5Zm5.016-20.672c.494.418.836.722,1.33.722a3.487,3.487,0,0,0,2.508-.57A2.093,2.093,0,0,0,304.684,22a3.261,3.261,0,0,0-.684-1.71.69.69,0,0,1-.57-.418.6.6,0,0,0-.266-.266,2.069,2.069,0,0,0-.95-.342.482.482,0,0,0-.228.038,2.953,2.953,0,0,0-1.482.494c-.114.076-.114.3-.532.38-.456.684-.836.912-.57,1.786a2.283,2.283,0,0,0,.114,1.1.644.644,0,0,0,.228.3A.64.64,0,0,1,299.934,23.826Zm6.65,22a2.868,2.868,0,0,0-1.33-.076.679.679,0,0,1-.874-.722c0-.95-.076-1.558,0-2.356a1.108,1.108,0,0,1-.228-.57c0-.228.152-.38.19-.684a6.122,6.122,0,0,1,.038-1.862A9.825,9.825,0,0,1,304.342,38c-.038-.57-.418-.874.038-1.6.076-.456-.3-.646-.076-1.292.038-.456-.342-.912.038-1.33.038-.76,0-1.824.076-2.318a7.593,7.593,0,0,1,.076-1.33,1.714,1.714,0,0,0,0-.988c-.266-.456-.722-.342-1.026-.228-.76.418-1.026.228-1.444.342a4.186,4.186,0,0,1-1.482.152,13.365,13.365,0,0,1-1.71.114c-.532.038-.912.038-1.52.038-.266-.038-.456.3-.456.608a.518.518,0,0,0,.57.57c.38.076.8-.038,1.33.038.3.038.418.342.532.722.076.418.114,2.356.114,2.85v1.9c-.228.532.152,1.786,0,2.318-.266.874.3,1.482.038,2.242-.266.494.19.988-.038,1.824a9.337,9.337,0,0,0-.152,2.28c.076.494-.076.8-.684.836h-1.444c-.3-.076-.608.3-.608.646,0,.266.19.57.684.57h.57c.76,0,1.178-.038,1.824-.076.8-.038,1.444,0,2.166-.038a18.954,18.954,0,0,0,2.546,0,2.762,2.762,0,0,0,.95.152c.38,0,.76-.038,1.216-.076h.076c.19,0,.3-.266.3-.532v-.114C306.85,46.056,306.774,45.828,306.584,45.828Zm21.2-7.562a6.737,6.737,0,0,1-.152-1.976c-.114-.38-.152-1.482-.532-1.786a9.341,9.341,0,0,1-.836-1.6c-.228-.418-.912-.8-1.1-1.33-.456-.114-.836-.95-1.368-1.064-.646-.3-.912-.494-1.6-.8-.684-.076-1.292-.494-1.786-.494-.532.114-.912-.19-1.6-.19a1.426,1.426,0,0,0-.38.038h-.494a5.051,5.051,0,0,0-1.444.152,4.912,4.912,0,0,0-1.824.532c-.722.418-1.178.3-1.6.8-.646.19-.874.76-1.406,1.1-.646.266-.722,1.026-1.14,1.33-.38.494-.608,1.292-.988,1.824a.67.67,0,0,0-.152.608,1.758,1.758,0,0,1-.266.95,1.3,1.3,0,0,0-.152.874,2.2,2.2,0,0,1-.038,1.1,2.615,2.615,0,0,0-.076.494,7.619,7.619,0,0,0,.266,1.444c0,.494.532,1.368.532,1.748a7.33,7.33,0,0,0,.988,1.748c.494.19.532.342.57.494a.713.713,0,0,0,.38.684c.494.342.76.8,1.444,1.026a1.619,1.619,0,0,1,.57.342,1.612,1.612,0,0,0,1.026.456c.684.114,1.178.608,1.786.494a8.69,8.69,0,0,0,1.52.228,1.425,1.425,0,0,0,.418-.038h.228c.342,0,.608.038.836.038h.076a1.4,1.4,0,0,0,.836-.228,9.221,9.221,0,0,0,1.786-.494c.608-.076,1.064-.57,1.634-.76a3.614,3.614,0,0,0,1.368-1.1c.418-.152.532-.95,1.14-1.33.152-.38.608-1.14.988-1.976a1.6,1.6,0,0,0,.076-.684.609.609,0,0,1,.3-.684A13.069,13.069,0,0,0,327.788,38.266Zm-5.472,1.6c-.114.532.152,1.368-.152,1.634-.152.646-.076,1.254-.3,1.6-.418.456-.266.8-.57,1.52a2.543,2.543,0,0,1-1.178,1.368,3.256,3.256,0,0,1-1.71.532,2.678,2.678,0,0,1-1.254-.266,3.751,3.751,0,0,1-1.254-1.1l-.418-.57c-.342-.342-.3-.912-.494-1.216-.3-.342-.228-.912-.342-1.33,0-.418-.266-.684-.152-1.368.152-.874-.342-1.786-.114-2.394a3.633,3.633,0,0,1,.114-2.432c-.076-.684.3-.8.152-1.368a4.057,4.057,0,0,1,.3-1.368c0-.646.532-.722.494-1.216-.038-.38.152-.456.38-.608a1.711,1.711,0,0,0,.342-.38.768.768,0,0,1,.57-.456,2.433,2.433,0,0,0,.418-.228,4.948,4.948,0,0,1,1.254-.228,2.684,2.684,0,0,1,1.786.608c.532.57,1.064.874,1.1,1.292.228.608.532.76.57,1.52a10.772,10.772,0,0,0,.3,1.6c.3.266.3.494.228.684a1.625,1.625,0,0,0-.19.684c.076.836.38,1.482.152,1.9C322.24,38.57,322.506,39.368,322.316,39.862Zm28.12,5.966c-.266-.114-.38-.038-.684-.076a6.131,6.131,0,0,0-.836,0c-.532-.038-.646-.152-.684-.912-.038-.95-.038-2.7-.038-3.876a8.016,8.016,0,0,1,0-2.356,12.342,12.342,0,0,0,.038-2.888c-.3-.38-.19-.608-.152-1.026a3.95,3.95,0,0,0,.038-.988,7.969,7.969,0,0,0-.228-1.254,1.537,1.537,0,0,1-.266-.722c-.038-.19-.076-.342-.228-.418-.418-.3-.836-.912-1.178-1.216a.8.8,0,0,0-.418-.19,1.052,1.052,0,0,1-.684-.418c-.418-.38-1.216-.114-1.558-.38-.418-.3-1.026-.038-1.444-.038-.608.228-1.216.038-1.482.152-.418.228-1.178.532-1.52.76a5.779,5.779,0,0,0-1.748,1.14.576.576,0,0,1-.418.266c-.114,0-.228-.114-.266-.38-.076-.722.114-1.406.038-1.71a.674.674,0,0,0-.646-.456.742.742,0,0,0-.266.038,5.455,5.455,0,0,1-1.368.266,4.548,4.548,0,0,1-1.71.228c-.418.152-.722-.038-1.406.114-.836.114-1.254.038-1.672.114-.722.19-.494,1.254.114,1.14a4.405,4.405,0,0,1,1.254.114c.418.114.608.57.646,1.292.038.532-.038,1.406,0,2.166a4.538,4.538,0,0,0,0,1.9,10.387,10.387,0,0,0,0,1.9,11,11,0,0,1,0,1.938.963.963,0,0,0,.114.76.823.823,0,0,1-.114.988c0,.988-.076,1.748,0,2.584a1.728,1.728,0,0,1-.19,1.064.634.634,0,0,1-.57.342,8.923,8.923,0,0,0-.988.038c-.3.076-.684-.114-.836.152a.65.65,0,0,0-.266.494.531.531,0,0,0,.494.494h.228c.3,0,.57-.038.836-.038.38,0,.76.038,1.178.038h.3a18.9,18.9,0,0,1,1.976-.076,12.414,12.414,0,0,1,2.394.076,7.325,7.325,0,0,1,1.824,0h.076c.494,0,.722-.3.722-.57a.665.665,0,0,0-.266-.532c-.152-.228-.494-.038-.684-.114-.19-.038-.494,0-.608-.114-.418-.114-.57-.342-.608-1.1-.038-.8-.038-1.52-.038-2.09-.38-.494-.3-.722-.152-.988a1.406,1.406,0,0,0,.19-.418c.076-.76-.228-.874,0-1.558.19-.266-.076-1.178,0-1.558-.19-.608.228-1.292,0-1.6a2.688,2.688,0,0,1,0-1.558c.228-.3-.076-.8,0-1.558a2.515,2.515,0,0,1,1.064-1.254,5.654,5.654,0,0,1,1.368-.646,5.082,5.082,0,0,1,1.444-.38c.418.228,1.254.152,1.368.38.076.3.57.228.684.722a7.474,7.474,0,0,1,.342,2.47,17.352,17.352,0,0,0,0,2.812,1.358,1.358,0,0,1,.114,1.1.883.883,0,0,0,0,.76.922.922,0,0,1-.076.874c-.114.152,0,.3.076.456a.5.5,0,0,1-.038.456c-.19.3.152.722,0,1.216a6.038,6.038,0,0,0-.076,1.444c.076,1.064.076,1.786-.3,2.052a2.328,2.328,0,0,1-1.292.076c-.532.076-.684,1.064-.076,1.216.076,0,.152.038.228.038.228,0,.456-.076.722-.076.076,0,.152.038.228.038.19,0,.38.038.532.038.19,0,.38-.038.532-.038.228-.228.532-.038.684-.038.342,0,.646.076.95.076a1.762,1.762,0,0,0,.722-.152c.874-.038,1.1.076,2.09.114l.266.038c.38,0,.76-.114,1.1-.076h1.14c.19,0,.342-.228.342-.494A.617.617,0,0,0,350.436,45.828Zm14.934-5.852a5.681,5.681,0,0,0-1.292-2.166,9.375,9.375,0,0,0-2.356-1.292.729.729,0,0,1-.722-.152,1.5,1.5,0,0,0-.608-.3c-.76.038-1.1-.57-1.6-.532a7.036,7.036,0,0,1-1.6-.646,3.172,3.172,0,0,1-1.14-.912,1.5,1.5,0,0,1-.418-1.368,2.49,2.49,0,0,1,1.1-1.938,5.308,5.308,0,0,1,2.128-.532,3.752,3.752,0,0,1,2.052.456,6.793,6.793,0,0,1,1.672,1.368,2.934,2.934,0,0,1,.608,1.368,6.261,6.261,0,0,0,.152,1.216.462.462,0,0,0,.494.342c.342,0,.646-.19.57-.456,0-.456-.038-.76-.076-1.292a.347.347,0,0,0-.114-.266c-.038-.114-.076-.19.076-.418-.038-.57.076-.836.114-1.9-.038-.3.19-.532.152-.8a.683.683,0,0,0-.57-.342.209.209,0,0,0-.19.114c-.266.228-.266.494-.494.646-.19.076-.342,0-.608-.114a11.6,11.6,0,0,0-1.9-.76,9.768,9.768,0,0,0-1.9-.3h-.152a7.9,7.9,0,0,0-2.166.456,1.191,1.191,0,0,0-.418.3.612.612,0,0,1-.608.228,1.817,1.817,0,0,0-.874.684,7.008,7.008,0,0,0-1.292,1.862,6.646,6.646,0,0,0-.494,2.318,4.093,4.093,0,0,0,.418,2.356,3.007,3.007,0,0,0,1.292,1.6,3.342,3.342,0,0,0,1.634.988c.532.19,1.14.76,1.938.722.418-.076.646.266,1.14.418a5.59,5.59,0,0,1,1.14.3c.266.114.532.038.95.418a.672.672,0,0,0,.3.19c.19.038.342.114.494.456a1.324,1.324,0,0,1,.38,1.1c.114.57-.114.836-.266,1.368A4.33,4.33,0,0,1,361.3,45.79c-.152.3-.266.266-.418.266a.419.419,0,0,0-.342.114,5.761,5.761,0,0,1-1.6.152,4.493,4.493,0,0,1-1.406-.114.654.654,0,0,1-.57-.19,1.994,1.994,0,0,0-.418-.266,4.893,4.893,0,0,1-1.14-.836,4.711,4.711,0,0,1-.8-.988.748.748,0,0,1-.38-.57c-.076-.152-.114-.342-.228-.608a7,7,0,0,1-.38-1.482c.038-.266-.266-.418-.532-.418-.228,0-.456.076-.494.3a8.989,8.989,0,0,0,.038,1.14c.114.342.266.57.076.95a6.138,6.138,0,0,1-.076,1.482c-.152.57-.152,1.1-.266,1.558a.287.287,0,0,0-.038.152c0,.38.722.57.874.3.228-.266.152-.418.532-.722.114-.114.494-.076.912.266.418.418,1.254.494,1.786.8a5.268,5.268,0,0,0,1.216.228,6.517,6.517,0,0,0,1.71.152,12.579,12.579,0,0,0,2.242-.38c.494-.19.95-.228,1.292-.646.266-.342.684-.19.874-.57a1.143,1.143,0,0,1,.456-.418.982.982,0,0,0,.3-.418c.152-.57.76-1.1.8-1.6a.867.867,0,0,1,.152-.722,1.163,1.163,0,0,0,.114-.57v-.114A8.244,8.244,0,0,0,365.37,39.976Zm4.712-15.922c.19.532.266,1.33.418,1.672.266.152.266.3.266.57a2.132,2.132,0,0,0,.076.8c.152.494.608.912.3,1.368.152.418.418,1.064.266,1.368a2.673,2.673,0,0,1,.228,1.368c-.038.342.532.722.19,1.368a2.262,2.262,0,0,0,.152,1.406c.114,1.14-.038,1.672.114,2.774.114.8-.266,1.254-.038,1.824a.7.7,0,0,0,1.33-.19,5.859,5.859,0,0,0,0-1.824,20.9,20.9,0,0,0,.038-2.66,3.133,3.133,0,0,1,.152-1.406c.152-.532-.076-.874.19-1.406a5.321,5.321,0,0,0,.266-1.406,6.646,6.646,0,0,0,.266-1.368,3.323,3.323,0,0,0,.3-1.406c.228-.456.038-.646.266-1.14a1.009,1.009,0,0,0,.076-.646.741.741,0,0,1,.19-.494c.114-.152,0-.3-.038-.456s-.038-.342.266-.532c.228-.3,0-.608.152-1.33a2.934,2.934,0,0,0,.076-.57,3.152,3.152,0,0,0-.608-1.786c-.076-.266-.3-.266-.532-.342a.48.48,0,0,1-.38-.38,5.015,5.015,0,0,0-1.216-.342,1.11,1.11,0,0,0-.342.076h-.3a2.027,2.027,0,0,0-1.786,1.026,3.445,3.445,0,0,0-.57,1.824v.3a6.238,6.238,0,0,0-.076.874A1.429,1.429,0,0,0,370.082,24.054Zm5.472,20.634c-.114-.342.038-1.1-.266-1.292a.874.874,0,0,1-.38-.532c-.076-.152-.114-.266-.342-.342a.971.971,0,0,1-.608-.456,1.081,1.081,0,0,0-.912-.3,2.939,2.939,0,0,0-3.268,2.47,1.908,1.908,0,0,0,.076.456,2.766,2.766,0,0,0,.608,1.786c.38.076.494.152.532.266s.038.266.19.342a5.268,5.268,0,0,0,1.71.342c.76-.152,1.558-.228,1.786-.836a1.26,1.26,0,0,1,.342-.494c.152-.152.3-.266.266-.494-.038-.38.3-.418.3-.76C375.592,44.8,375.554,44.764,375.554,44.688Z" transform="translate(-0.418 29.64)"/>
</svg>
