<svg xmlns="http://www.w3.org/2000/svg" xmlns:xlink="http://www.w3.org/1999/xlink" width="194.505" height="72.628" viewBox="0 0 194.505 72.628">
  <defs>
    <clipPath id="clip-path">
      <rect id="長方形_6555" data-name="長方形 6555" width="190" height="53.058" transform="translate(-1.258 5.008) rotate(-3)"/>
    </clipPath>
  </defs>
  <g id="グループ_17684" data-name="グループ 17684" transform="translate(-147.747 -1199.026)">
    <g id="グループ_16513" data-name="グループ 16513" transform="translate(148.742 1213.819) rotate(-3)" clip-path="url(#clip-path)">
      <path id="パス_66767" data-name="パス 66767" d="M178.956.07l.472.009c.034.56-1.767-.087-.472-.009" transform="translate(-99.238 -0.039)" fill-rule="evenodd"/>
      <path id="パス_66768" data-name="パス 66768" d="M377.713,36.512c-.011-.522,1.137-.027,1.421.026.5.094,1.509-.18,1.173.419-.384.051-.4-.2-.7-.212-.2-.009-.53.181-.479.19-.208-.04-.382-.393-.464-.407-.271-.042-.67.391-.948-.017" transform="translate(-210.008 -22.759)" fill-rule="evenodd"/>
      <path id="パス_66769" data-name="パス 66769" d="M384.089,37.585l.474.009-.011.4-.473-.009c0-.133.007-.265.01-.4" transform="translate(-213.547 -23.581)" fill-rule="evenodd"/>
      <path id="パス_66770" data-name="パス 66770" d="M320.974,110.9c-.357.582-.532.162-1.432.372.041-.508.8-.379,1.432-.372" transform="translate(-177.665 -69.568)" fill-rule="evenodd"/>
      <path id="パス_66771" data-name="パス 66771" d="M291.5,111.333c.409.187.9.461.453.8-.384.05-.4-.195-.7-.211a.849.849,0,0,0,.251-.592" transform="translate(-161.936 -69.85)" fill-rule="evenodd"/>
      <path id="パス_66772" data-name="パス 66772" d="M68.868,109.843c.118-.388,1.67-.327,1.173.418-.448-.093-.412-.575-1.173-.418" transform="translate(-38.29 -68.767)" fill-rule="evenodd"/>
      <path id="パス_66773" data-name="パス 66773" d="M56.655,111.6c.889.355-.522.317-.488.587-.889-.355.522-.317.488-.587" transform="translate(-31.065 -70.014)" fill-rule="evenodd"/>
      <path id="パス_66774" data-name="パス 66774" d="M105.4,117.445a1.248,1.248,0,0,0,.706.211c-.011.334-.289.42-.489.588s-.246.46-.721.384c-.1-.627.357-.77.5-1.183" transform="translate(-58.317 -73.685)" fill-rule="evenodd"/>
      <path id="パス_66775" data-name="パス 66775" d="M92.937,119.3c.02.357-.3.413-.258.79-.486-.209-.627-.891.258-.79" transform="translate(-51.315 -74.839)" fill-rule="evenodd"/>
      <path id="パス_66776" data-name="パス 66776" d="M95.253,120.946l.474.009c.034.56-1.768-.087-.474-.009" transform="translate(-52.7 -75.877)" fill-rule="evenodd"/>
      <path id="パス_66777" data-name="パス 66777" d="M77,122.1c-.035.375-.786.124-.724.584-.635-.19.131-.8.724-.584" transform="translate(-42.278 -76.573)" fill-rule="evenodd"/>
      <path id="パス_66778" data-name="パス 66778" d="M100.431,123.75c.589.041.052.674-.021.795-.176.319,1.11.342.948.017.815.8-1.272.156-.969.778-.623.047-.165-.775-.93-.613.042-.572,1.018-.327.971-.976" transform="translate(-55.299 -77.64)" fill-rule="evenodd"/>
      <path id="パス_66779" data-name="パス 66779" d="M102.686,124.449c-.084-.387,1.086-.271.706.212l-.474-.008c.048-.168-.087-.19-.231-.2" transform="translate(-57.091 -77.933)" fill-rule="evenodd"/>
      <path id="パス_66780" data-name="パス 66780" d="M92.017,125.689c.317.575-.762,1.071.21,1-.079.268-.6.154-.952.182.192-.61-.81-.258-.448-1,.664.176.619-.269,1.189-.177" transform="translate(-50.456 -78.849)" fill-rule="evenodd"/>
      <path id="パス_66781" data-name="パス 66781" d="M85.951,126.7c.207.794-.721.385-.962.579-.285.228-.184-.1-.711-.013s-.854.308-1.431.371c-.124-.7.989-.469,1.436-.57a16.225,16.225,0,0,1,1.668-.367" transform="translate(-46.057 -79.488)" fill-rule="evenodd"/>
      <path id="パス_66782" data-name="パス 66782" d="M81.133,128.479c-.462-.339-.3.012-.948-.017-.106-.389,1.194-.693.948.017" transform="translate(-44.579 -80.339)" fill-rule="evenodd"/>
      <path id="パス_66783" data-name="パス 66783" d="M98.764,128.79c-.062.284-.709.056-.721.384-.707-.263.548-.8.721-.384" transform="translate(-54.393 -80.706)" fill-rule="evenodd"/>
      <path id="パス_66784" data-name="パス 66784" d="M158.273,129.971c.016-.014-.011-.2.006-.2.844-.109,0,.883-.252.591.013.014.222-.371.246-.392" transform="translate(-87.863 -81.413)" fill-rule="evenodd"/>
      <path id="パス_66785" data-name="パス 66785" d="M118.537,131.747c.737-.721.782.618,0,0" transform="translate(-65.906 -82.52)" fill-rule="evenodd"/>
      <path id="パス_66786" data-name="パス 66786" d="M142.245,132.382c-.592.641-1.117-.573,0,0" transform="translate(-78.723 -82.957)" fill-rule="evenodd"/>
      <path id="パス_66787" data-name="パス 66787" d="M131.3,133.462l.473.009c0,.132-.006.265-.01.4l-.473-.009c0-.132.007-.265.01-.4" transform="translate(-72.995 -83.734)" fill-rule="evenodd"/>
      <path id="パス_66788" data-name="パス 66788" d="M96.585,135.538c.736-.721.781.618,0,0" transform="translate(-53.701 -84.899)" fill-rule="evenodd"/>
      <path id="パス_66789" data-name="パス 66789" d="M84.587,138.889c-.272.282-.269.481.221.6-.246.242-1.05.1-1.657-.03.148-.478.9-.425,1.435-.57" transform="translate(-46.232 -87.138)" fill-rule="evenodd"/>
      <path id="パス_66790" data-name="パス 66790" d="M77.744,140.279a1.784,1.784,0,0,1,1.18.221c.033.325-1.559.373-1.18-.221" transform="translate(-43.193 -88.002)" fill-rule="evenodd"/>
      <path id="パス_66791" data-name="パス 66791" d="M74.7,140.8a1.036,1.036,0,0,1-1.2.574c-.071-.6.782-.4,1.2-.574" transform="translate(-40.865 -88.339)" fill-rule="evenodd"/>
      <path id="パス_66792" data-name="パス 66792" d="M61.931.9c.34.543,1-.326,1.2-.575a1.771,1.771,0,0,0,1.179.221c-.686,1.007.8-.708.459.6.484-.116.092-1,.966-.778-.028.282-.054.562.222.6.662.1-.575-.752.258-.79.876.04.587.3.453.8,1.455-.168,2.751.1,4.5-.117.938-.044-.249-.695.725-.583-.005.2-.011.4-.016.6.4.05.623-.328.711.013.493-.109,1.548.274,1.661-.168.042.022,1.159.433,1.174.418.262-.264.471-.167.468.208a1.437,1.437,0,0,0,.49-.587l1.183.022c.418-.041.549-.332.494-.786.813.159.143.6-.025.993,1.454.123,2.271-.312,3.792-.129.279-.028.21-.359.253-.592a1.409,1.409,0,0,1,.458.6c.348-.216.584-.2.7.211.31-.27,1.122-.1,1.432-.371.428-.249.411.4.462.406.067.006.53-.145.716-.186.081-.018.424.057.473.009.246-.241.39-.056,1.183.021-.073-.007.132-.315.242-.194.538.589,1.126-.081,2.131.039.071.009.435-.033.475.009.188.2.343.044,1.184.022.172,0,1.491.193,1.657.03.343-.336.313.027.709.013.2-.007.237-.2.48-.19a4.994,4.994,0,0,0,1.889.233c.19-.034.241-.2.479-.19.344.007.447.243.7.211.161-.02.245-.393.246-.393.327,0,.057.314.226.4.06.031.54-.34.716-.186.411.361.824-.364,1.183.022.326.348.315-.016.712.013.418.029.5.227.94.215,1.055-.026,2.006-.21,3.089-.341-.282.572.572.21,1.415.225a2.061,2.061,0,0,1,.473.009c.012.013-.019.2,0,.2.488.052,1.209-.306,1.178.221.758-.025-.611-.409.484-.389a2.107,2.107,0,0,1,.474.009c.19.2.113.064.946.017.392-.022.793.048,1.184.021.352-.024.437-.193.715-.186.385.011.4.158.705.212.417.072,1.024-.025,1.42.026.412.053.5.2.943.216a11.537,11.537,0,0,1,2.844-.147c-.048.16-.241.194-.246.393.94-.01,3.465-.455,4.977-.109.111.026.274.206.23.2.383.026.42-.212.716-.186.414.037.5.224.943.216.424-.008.5-.189.951-.182.5.009.611.2.942.216.389.018.406-.183.714-.186.385,0,.4.161.706.212-.071-.012.1-.221.242-.194.028.005.044.187.232.2,1.247.108,2.61-.041,3.787.069.364.034.415.2.706.211.456.019,1.648-.582,1.652.229.434.034.715-.352,1.193-.376-.061,0,.352.2.469.207.809.072,2.075-.007,2.841.052.374.029.406.19.706.212.856.061,1.78-.015,2.6.047.51.038,1.117.2,2.126.237-.059,0,.107.328.233.2.254-.256.527-.158,1.182.022.191.052.233.186.469.207.359.032.843-.19,1.188-.177.385.013.4.159.706.211.145.025,1.264-.14,1.42.026.352.379.167-.019.948.018-.043,0,.093.194.23.2a24.593,24.593,0,0,1,3.779.466c.1.023.29.2.231.2.417.016.352-.3.71.013.136.118.976,0,1.184.021.528.066,1.528.133,2.6.247.375.039.4.171.706.211.411.055.9-.049,1.42.026s1.321.142,2.363.242c1.357.129,2.542.829,4,.867a5,5,0,0,0-.061,2.384c-1.061.086-1.824.434-2.857.544a.918.918,0,0,0-.5.985c-.88-.228-.688.481-1.431.371-.248.257-.251.728-.5.985-.98.139-1.207-.326-2.126-.237.025.629.923.556,1.642.626-.111.159-.216.372-.484.389a.733.733,0,0,1-.469-.208c-.45.034-.641.35-1.188.177-.218.615.547.322.938.414.058.014.016.189.23.2.237.014.474,0,.711.013-.053.5.348.628.69.807.837-.852,1.3.233,2.61-.152-.09.26-.425.305-.49.588.719-.048.862-.6,1.9-.363.12.443-.459.275-.489.587.354.417.994.161,1.416.225-.041-.006.127.179.231.2.264.06.864.163,1.179.22-.08-.014.1-.22.241-.194-.035-.006.134.177.232.2.675.183,1.829.219,2.831.449.2.045.374.274.7.212.363-.069.341-.195.711.013.246.138.973.04,1.179.22.02.017-.029.193-.005.2.185.05.82-.093.947.017.17.149.17.139.469.208.22.05.589.119.94.215.1.027.278.208.232.2.636.06.374-.3.947.017.246.138.972.039,1.179.221a3.5,3.5,0,0,0,.936.414c.6.186,1.746.38,2.59.643.209.066.634.1.942.216.116.045.375.381.463.406.274.077.686-.086.947.017.109.042-.024.187.231.2.23.014.178.243.228.4.5.08,1.036-.079,1.419.026.117.033.136.364.227.4.188.079.526-.073.71.013.1.047.143.368.226.4.125.05.355-.051.473.009.208.1.517.521.7.609a4.414,4.414,0,0,0,.94.216,6.222,6.222,0,0,1-.338,3.969c-.729.284-.919-.082-1.426.173-.208.686.333.771.2,1.4q-.9-.053-.927-.812c-1.194.611-1.885-.625-3.3-.458a1.88,1.88,0,0,0,1.643.626,3.018,3.018,0,0,0,1.39,1.218c-.062.285-.709.056-.721.384-.2.676.955.27.686,1.006-1.912-.281-3.456-.855-5.421-1.093.064.793,1.4.558,1.868,1.028-.064.215-.475.126-.484.389.04.162.232.2.226.4.138.408,1.2.078.926.812a1.508,1.508,0,0,0-.941-.216c.223,1.551-.7,2.1-.8,3.364.2.36.766.251,1.173.419.159.065.33.341.464.405.086.042.416-.053.473.009a2.258,2.258,0,0,0,.932.614c.538.033.084.42-.026.993-.277.044-.331-.359-.464-.406-.423-.149-1.1.034-1.651-.228-.211-.1-.143-.333-.464-.406-.2-.045-1.07.1-1.184-.022-.377-.406-.187.082-.945-.017.051.007-.139-.181-.233-.2-.148-.034-.325.022-.474-.009a5.965,5.965,0,0,0-2.841-.051c.452.479,1.56.433,2.593.444-.1.108.1.512-.015.6-.079.055-.411-.074-.473-.009-.086.089-.144.519-.252.592-.242.163-.915-.155-.721.384a3.291,3.291,0,0,0-1.661.168,2.257,2.257,0,0,1-.953.181c-.07.006-.433-.048-.473-.009-.209.2-.226-.007-.709-.013-.387,0-.408.178-.717.186-.522.012-.594-.188-.941-.216.077.006-.123.2-.242.195a.249.249,0,0,1-.232-.2c-.509.013-.674.345-1.425.173-.393-.091-.491-.385-.947-.017-.333.267-.1.012-.706-.212-.526.407.1.569-.031,1.193-1.118-.25-1.948.426-2.6-.047-.254.593.518.361.936.414-.216.363-1.676.082-1.9.363-.106.132.373.208.469.206-.294.379-.928.174-1.425.173-.517,0-.881-.044-1.422-.026-.381.012-.406.161-.714.186-2.228.183-4.85-.19-6.866-.125a2.121,2.121,0,0,0-.473-.009c-.015.014-.349.329-.478.19-.012-.012.015-.2,0-.2-.271-.016-.573.31-1.183-.022-.271.639,1.042.367,1.646.427.33.033,1.241.522,1.658.03.648.757,2.089.52,3.772.665.378.033.4.155.7.211s.649-.047.947.017c.044.01.749.405.941.216.165-.16.354-.075,1.185.022a4.09,4.09,0,0,1,.7.212c.219.049.495-.046.71.013.072.019.318.2.233.2.185,0,.843-.548.7.211.23,0,.19-.24.246-.393.464-.16.534.368.7.41.151.038.27-.216.479-.19.134.016.28.2.233.2.409-.01.524-.238.951-.181.007,0,.056.192.231.2a1.09,1.09,0,0,1,.237,0c.072.026.286.21.232.2.409.058.513-.206.952-.181-.1-.005.167.188.232.2.44.1.667.015.941.216-.065.249-.475.192-.474-.009a9.181,9.181,0,0,1-2.6-.246c-.314-.063-.687.078-.7-.211-.743.624-.642.432-1.9.363a2.923,2.923,0,0,1-.711-.013s.295-.385.247-.393c-.305-.051-.793.752-1.184-.021-2.211.477-4.338-.074-6.391-.116-.387-.009-.406.175-.716.185-.391.012-.393-.2-.7-.211-.228-.009-.519.281-.954.181a4.2,4.2,0,0,0-1.42-.026c-.394.011-.791-.042-1.184-.022-.539.029-.593.115-1.427.173-.135.01-.968.414-1.187.177-.243-.26-.1.031-.474-.009-.413-.045-.5-.215-.941-.216-.418,0-.515.16-.952.182-.517.025-.606-.21-.942-.216a5.531,5.531,0,0,1-1.663.169c-.4-.055-.739-.456-.713.185-.4.066-.444-.163-.464-.406-.592-.139-1.648.881-1.657-.03-.592-.045-.75.292-.963.579a1.012,1.012,0,0,0-1.183-.022c-.178.532.48.393.7.61-.135.359-1.185.167-1.9.164-.741,0-1.359-.069-2.132-.039-.526.021-2.219.186-3.087.342-.473.084-.45-.028-.714.186a6.512,6.512,0,0,1-1.421-.026c-.285-.306-1.083.174-1.889-.234.188-.372.71-.125.253-.591-.052-.251-.466-.209-.474-.008-.255-.054-.15-.4-.463-.407-.706-.009-.327.931-.741,1.179-.157.407-1.473-.177-1.9.164-.264.212-.068.008-.947-.018a2.209,2.209,0,0,0-.473-.009c-.265.26-.1-.053-.473-.009-.29.034-.314.335-.484.389-.269.085-.154-.189-.233-.2-.271-.05-.159.188-.242.195-2.329.176-4.69-.049-7.107.07-.382.018-.407.144-.716.185-.489.067-.99-.058-1.419-.026-.369.029-.416.167-.716.186-.765.048-1.587-.08-2.367-.043-.5.023-.8.089-1.663.169-.538.049-1.522.087-2.609.152-.373.021-.413.168-.715.185-.672.039-1.457-.066-2.131-.039-.382.015-.407.143-.715.186-.535.072-.92-.064-1.421-.026-.369.028-.417.167-.716.186-.761.048-1.558-.078-2.367-.043-.381.016-.406.152-.716.186-.386.042-.8-.062-1.183-.022-1.43.149-3.6.252-5.46.5-.523.069-.955.083-1.9.164-.551.048-2.257.2-3.088.341-.223.039-.493-.064-.711-.013-.1.025-.282.2-.241.195-.424.029-.493-.251-.942-.216s-.97.107-1.426.173c-.7.1-2.533.149-3.561.333-.714.128-1.268.056-2.372.155-.508.047-1.15.089-2.135.16-.5.036-.8.081-1.664.169-.072.007-.431-.05-.472-.009-.35.343-.313-.043-.711-.013-.443.033-.941.1-1.425.173-1.206.175-4.108.1-5.462.5-.083.025-.419-.061-.472-.009-.016.015.012.2,0,.2-.359.055-.345-.2-.47-.208-.174-.012-.257.185-.479.19-.384.009-.8-.067-1.183-.021-.492.059-.961.317-1.43.371-1.007.115-1.828-.047-2.847.147a8.8,8.8,0,0,1-1.188.177,19.945,19.945,0,0,0-2.853.345c-.084.025-.419-.061-.473-.009-.194.191-.326.154-.714.186-.072.006-.434-.049-.474-.009-.355.348-.313-.053-.711-.013-.513.051-.932.346-1.431.372-.626.031-1.319-.3-1.894-.034.57-.485-.27-.979-.2-1.595,0,.014.644-.016.479-.189.034-.391-.7.114-1.188.176-.385.05-1.544-.326-1.431.372-.344-.18-.742-.311-.69-.808.059-.268.923.006.957-.38s1.879-.374,2.851-.345c.279.083.13-.345.247-.393.19-.077.837.692.714-.185.469.641,1.562-.346,1.889.233.278-.026.21-.359.253-.592,1.238.481-.475.614-.273,1.386-1.049.012.126-.559-.452-.8-.925.55.5,1.5-.047,1.788-.384.048-.4-.2-.7-.212-.467.36-.2.361-.954.182q-.01.4-.021.795c.643.156.489-.386.959-.38.9.272,1.979.292,2.387-.752-.609-.528-.194.317-.951.181q.015-.6.031-1.191c.194-.167.652-.107.721-.385-.016-.639-.7-1.33-.191-1.791-.587-.274-.6.914-.953.181-.278.027-.208.359-.252.592a.655.655,0,0,0-.72.385c-.663-.423-1.1.108-1.662.169-.379.041-.668-.308-.947-.017-.123-.415-.358-.428-.7-.212,0,.193.285.159.467.207-.9.617-.686-.867-.436-1.4-.468-.238-.365.354-.483.388s-.276-.223-.469-.207a4.208,4.208,0,0,0-1.193.376c-.649-.465-1.174.178-1.889-.233-.271-.1-.138.36-.246.392-.271.082-.152-.187-.232-.2.014,0-.777.139-.954.181-.232.057-.621.19-.72.385-.573.072-.5-.373-1.178-.22-.421.173-.411.724-.968.777-.044.231.044.355.226.4-.173.309-1.073-.183-1.189.178-.775-.313.5-.477.262-.989-1.058-.047-.933.941-1.225,1.568-.683-.482-.89.366-1.184-.022-.087-1.073.839,0,1.2-.574.284-.529-.545-.244-.7-.411-.016-.018.026-.193,0-.2-.353-.087-.353.187-.479.19-.19.006-.23-.23-.468-.207s-.527.3-.951.181c.14.18.276.361-.01.4-.178.319,1.107.342.946.017.762.17-1.093.758-.957.379l-.711-.013c-.157-.544.481-.391.5-.786-.305.086-.39.314-.72.385-.69.148-1.561-.3-2.136.159-.2.163-.234.038-.71-.013-.233-.025-.479.019-.711-.013.08.011-.135.311-.241.194-.14-.152-.168-.378-.464-.405.49-.584,1.482-.121,1.9-.363.206-.124.793-.027.951-.181.02-.019-.019-.192,0-.2.346-.09.924.173.954-.181.368.077-.217.345.225.4.682.363.289-.6.484-.388.212.232.421.167.712.013.07-.038,2.413-.867,2.367.043.291-.019.325-.252.484-.389s.4-.186.483-.388c2.094.041,2.937-.576,4.029-.126.248-.19.489-.384.727-.583.309.271,1.133-.042,1.9-.164.223-.036.492.064.711.013.341-.08.457-.268.467.207.424-.508,1.583-.374,2.615-.35.1-.209.509-.061.716-.186.077-.046.18-.37.247-.393.192-.066.5.046.71.013.156-.025,1.21-.526,1.657.03.717-.727,2.842-.218,3.578-.929-.265-.361-.925-.11-1.421-.026-.412.07-.986.321-1.43.372s-.915-.059-1.42-.026-.956.112-1.9.164c-.429.024-1,.458-1.185-.022-.228,0-.189.24-.246.393-.986-.514-1.211.528-1.89-.234q-.37.285-.724.583A16.257,16.257,0,0,0,43.1,42.3c-.266.047-.139.186,0,.2-.162.481-1.2.084-.936-.414-.325.056-.21.494-.258.791-.347,0-.729-.853-.711-.013-.449-.1-1.035.593-.941-.216-.458.072-.207.767-.963.578-.6,0-.284-.152-.226-.4-.5-.1-.459.275-.488.587-.133-.3-.513-.021-.473-.009-.134-.04-.453-.4-.465-.405-.483-.048-.965.476-1.419-.026-.079-.088.01-.252-.231-.2-.293.054-.278.469-.49.586a7.2,7.2,0,0,1-1.661.169c.012-.207.541-.137.484-.389-.133-.573-1.231.744-1.657-.031-.846-.132-.038,1.187-.974.977.05-.16.244-.194.248-.393-.745-.628-1.737.476-3.083.143.639-.5-.315-.4-.936-.414.323-.885,1.863.517,1.209-.972.309.076.364.357.7.411.3-.044.25-.391.01-.4.171-.407.448.054.712.013.178-.028.091-.751.478-.19.293.017.322-.3.483-.388.087-.049.408.072.474.009.219-.215.416-.136,1.19-.178.233-.013.167-.184.24-.195.175-.026.284.19.232.2.31-.076.392-.309.721-.385.542-.125.945.073,1.425-.172.339-.172.609-.082,1.426-.173a23.229,23.229,0,0,0,2.862-.743c-.166-.613-.551-.01-.947-.017-.772-.015-.814-.335-1.421-.026-.287.146-.48.05-1.188.177a11.13,11.13,0,0,1-3.084.142c-.278.027-.207.358-.25.592-.464-.34-.3.013-.948-.017a1.112,1.112,0,0,0-.7-.61,9.672,9.672,0,0,0-1.9.363c-.249.052-.443-.035-.478.19.4.346.621-.02,1.416.224-.079,0-.209.389-.247.393-.227.028-.215-.2-.231-.2-.816.047-.814.243-1.415-.225-.561.051-.46.683-1.2.575-.1-.3-.3.073-.709-.013.215-.769.835-.234,1.2-.576.175-.7-.939-.325-1.41-.423-.045-.01-.028-.191-.232-.2-.334-.02-.674.045-.706-.212-.638.657.035.284-1.88.307a7.988,7.988,0,0,1-2.846.147c-.46-.126.333-.012-.771-.03a5.185,5.185,0,0,1-1.183-.021c-.21-.224-.123-.032-.475-.009-.288.019-.42-.21-.468-.208-.218.009-.549.158-.952.181-.3.017-2.519-.344-2.871-.06-.212.171-.334.039-1.184-.021-.22-.016-1.719.153-1.893-.034-.438-.47-.435.228-.942-.216-.258-.227-.726.186-.715.186-.23.005-.19-.2-.231-.2-.385-.019-.805.034-1.185-.022-.607-.088-1.871-.153-3.073-.254-.379-.032-.4-.159-.7-.212-.665-.112-1.373.065-1.894-.034-.037-.006-.034-.191-.231-.2-.379-.024-.408-.14-.706-.212.046-.231-.042-.355-.226-.4.024-.5.218-1.008,0-1.428-.33-.648,3.158-.137,3.048-.648-.031-.142-3.126-.025-3.1-.186a.787.787,0,0,0-.58-.93,4,4,0,0,0,.262-.99c0-.421-.424-.824-.441-1.2-.02-.44.225-.5.256-.79.048-.439-.2-.506-.215-.8-.021-.326.258-.336.251-.592,0-.151-.194-.344-.22-.6a3.758,3.758,0,0,1,.04-1.589C.441,29.1.026,29.173.03,28.911c.187-.6-.187-1.253.052-1.987.027-.084.244-.245.242-.194.018-.355-.27-.425-.216-.8.045-.316.19-.336.252-.592.076-.318-.064-.679.026-.993.01-.036.226-.024.242-.194a2.074,2.074,0,0,1,.262-.989,8.645,8.645,0,0,0,.262-.989,1.91,1.91,0,0,0,.268-1.188c-.038-.292-.223-.368-.222-.6,0-.327.21-.332.253-.592a28.275,28.275,0,0,0,.154-5.96c-.043-.451-.46-.781.031-1.192.014-.012.25-.205.242-.194.075-.1.129-.685.257-.79.106-.088.779-.206,1.194-.376.111-.045.4-.37.485-.389.208-.049.51.081.709.013.283-.1.052-.268.247-.393.475-.3,1.994.216,1.91-.562.912.123,1.164-.333,2.135-.16.428.115.316-.5.488-.587.236-.113.182.194.232.2a5.287,5.287,0,0,1,.716-.186,3.517,3.517,0,0,1,1.193-.376c.275-.048.917-.37.947.018.522-.424.141-.473.822-.756a4.587,4.587,0,0,1,1.653.229,1.439,1.439,0,0,0,.488-.587c.973.3,1.844-.534,2.367.043.285.057.124-.314.247-.393.28-.18,1.164-.074,1.425-.173.381-.144.632-.311.726-.582,2.868-.2,2.12-.843,4.748-1.249-.135-1.23-1.054-2.508-.377-3.783A28.183,28.183,0,0,1,29.241,1.1c.378-.018.411-.167.714-.186.682-.042,1.461.068,2.132.039.381-.016.406-.152.714-.186.386-.042.8.062,1.185.022.125-.013.973-.408,1.189-.177.011.012-.016.2-.005.2.179.01.265-.192.242-.194a6.087,6.087,0,0,0,2.131.038A4.736,4.736,0,0,1,39.678.495c.095.021.3.2.231.2.425.009.5-.207.951-.182.371.021.413.208.706.212.388,0,.4-.155.715-.186C43.29.44,44.362.656,45.36.6c.5-.029.792-.088,1.661-.169.349-.031.436-.186.715-.185.437,0,.726.231,1.179.22A9.589,9.589,0,0,1,51.051.3.857.857,0,0,0,50.8.9c.461.025.427-.25.721-.385.193-.088.486.064.478-.19.334.3,1.934-.337,2.367.043.012.009-.012.2,0,.2-.2,0,1.158-.146,1.189-.177.135-.133.542-.336.7.212.243-.1.193-.325.484-.389a6,6,0,0,1,3.3.458c.35.005.036-.245,0-.2.248-.36.81-.281,1.431-.371-.186.446-.914.418-.972.976.724.161.468-.537,1.194-.376.2.04.225-.073.242-.194.983.045.044.132-.01.4m16.3,38.26.474.009c.38-.483-.789-.6-.705-.212.144.014.278.035.231.2m-6.4.281a32.579,32.579,0,0,0-3.556.135c-1.015.148-2.114.043-3.083.143-.441.045-1.019.31-1.43.372a3.064,3.064,0,0,1-1.658-.03c-.452.5-1.685.411-2.619.549-1,.147-2.468-.131-2.625.747.517.17.958-.117,1.426-.173.25-.03.911-.189.952-.182.169.032-.01.253.237,0,.114-.113.311.2.232.2a1.408,1.408,0,0,0,.719-.383c.322-.316,1.093.154,1.427-.173.042-.041.4.016.474.009.755-.077,1.129-.12,1.425-.173a17.553,17.553,0,0,1,2.608-.152.3.3,0,0,0,.243-.193c.4-.025.363.353.709.013.054-.053.39.033.474.009a19.455,19.455,0,0,1,3.325-.338,10,10,0,0,1,2.609-.151c.044-.881-1.7-.236-1.888-.233m61.772,1.72a.66.66,0,0,0,.72-.385c-.372.013-.82-.042-.72.385m5.446.1a.662.662,0,0,0,.72-.385c-.373.012-.821-.041-.72.385m-6.408.48c.184-.041.467,0,.48-.19-.314-.008-.208-.352-.464-.405-.1.281-.293.329-.016.6m4.267-.121c.349-.627-1.4-.528-1.415-.224a2.331,2.331,0,0,1,1.415.224m-5.686.1c.372-.012.819.041.72-.384l-.475-.009c0,.2-.2.233-.245.393m-6.872.074c-.223-.144,1.121.1.959-.38-.965-.075-1.618-.044-.959.38m-5.207-.095-.474-.009c-1.3-.079.507.569.474.009m-54.47-.2.473.009c0-.133.007-.265.01-.4l-.473-.009c0,.133-.006.265-.01.4m44.27.8.474.009c.381-.483-.789-.6-.706-.212.144.014.28.035.232.2m-44.512-.61c.395-.547-1.008-.569-.942-.216.45-.036.516.233.942.216m13.258.241.473.009c0-.133.006-.265.01-.4l-.472-.009-.011.4m-19.67.437.473.009c0-.133.007-.266.01-.4l-.472-.009q0,.2-.01.4m37.636.882.473.009c.272-.281.267-.48-.222-.6-.019.254-.31.271-.252.592M55.408,42.52c.309.265.875.278.953-.181-.309-.264-.874-.278-.953.181m11.826.613c.041-.234.434-.443.016-.6-.04.234-.433.442-.016.6m-13.488-.444c-.3-.016-.321-.26-.705-.212-.381.483.789.6.705.212m10.89.2c-.155-.137-.241.193-.242.195-1.757.683.594.114.242-.195m26.03.871a.663.663,0,0,0,.721-.385c-.372.012-.82-.041-.721.385M49.7,43.41a1.117,1.117,0,0,0,.958-.38c-.271-.256-.979-.177-.958.38m9.944.181a2.089,2.089,0,0,0,1.908-.561c-.949-.088-1.731-.028-1.908.561m20.842-.018c-.736.656.86.618,0,0m2.357.44a1.526,1.526,0,0,1,.943.216c.193-.674-.887-.791-.943-.216m-25.336-.261c-.048-.026.06-.385.01-.4-.807-.2-1.888.07-1.915.759.667.56,1.259-.089,1.9-.164-.04.234-.433.443-.015.6.051-.293.578-.171.952-.182.463-.535-.591-.434-.932-.613m20.108.961c1.513.467.652-.7,0,0M63.37,46.043c.011-.262.42-.173.485-.388a.552.552,0,0,1-.459-.6c.025-.278-.033-.761-.226-.4.129.414-.326,1.3.2,1.394m6.906-1.464c.025,0-.174.671-.251.592.179.184.91-.156.951-.182.225-.144-.424-.145-.237,0a4.244,4.244,0,0,0-.464-.407m2.6.047c-.189.682-.714.12-1.182-.022-.24.911,2.095.632,1.182.022m-5.943.886c.449-.436-.043-.194-.22-.6.016.038.364-.184,0-.2-.315.259-.16.6.215.8m-8.763.039c.687-.265,1.189.564,1.42.026-.289-.028-.559-.07-.464-.406-.42.038-1.179-.221-.956.38m2.855-.544c-.828.3-1.8-.779-1.9.164.519.069,1.392.4,1.9-.164m4.009.669a1.255,1.255,0,0,1,.706.212c-.033-.3.1-.731-.216-.8-.057.153-.017.391-.248.393-.031-.234.055-.563-.221-.6-.007.265-.014.529-.021.794m-2.6-.246c-.171-.123-.441.161-.479.19-.815.655,1.017.195.479-.19m-7.354.463c.718-.434,1.441.314,1.668-.367-.542.135-1.837-.392-1.668.367m-.231-.2c-.153-.135-1.551-.063-.72.384-.143-.205.86-.261.72-.384m5.661.9c.057-.153.016-.392.247-.393.009.122.03.236.231.2-.031-.234.056-.563-.221-.6-.309.269-1.172.541-.257.79m2.371-.156c.073-.269-.126-.779-.226-.4-.071.269.126.779.226.4m-11.6-.012c-.673.152-.606-.292-1.178-.221-.09.968,2.518.17,1.431-.371-.045.7-.772-.436-.715.186a.647.647,0,0,1,.462.407m7.339.133c.544.183.57-1,.246-.393.012.28-.694.214-.246.393" transform="translate(0)" fill-rule="evenodd"/>
      <path id="パス_66793" data-name="パス 66793" d="M95.255,118.591c.518-.027.749.176.694.609a.566.566,0,0,0,.49-.587c.649-.133.467.4.936.415.284.074.126-.335.248-.393.211-.1,1.274.485.71.013.148-.573.361.312.706.212-.164.081-.328.541-.489.587-.086.024-.325-.193-.469-.208-.434-.044-.95.492-1.177-.22-.231,0-.19.239-.248.393-.764.03-.992-.37-1.887-.233-.12-.443.458-.275.488-.588" transform="translate(-52.681 -74.316)" fill-rule="evenodd"/>
      <path id="パス_66794" data-name="パス 66794" d="M388.331,38.9c.613-.509,1.63,0,2.368.043a3.237,3.237,0,0,1,1.179.221,5.176,5.176,0,0,0,.7.211c.2.046.158.182.232.2.382.109,1.426-.253,1.173.419-.623-.472-2.244-.141-2.582-.841a6.851,6.851,0,0,1-3.074-.255" transform="translate(-215.911 -24.265)" fill-rule="evenodd"/>
      <path id="パス_66795" data-name="パス 66795" d="M149.842,118.487a.569.569,0,0,0,.49-.587c1.567.043,3.526-.507,4.739-.113.231,0,.19-.24.246-.394,1.315.444,2.768-.3,4.5-.117,0,.2-.01.4-.015.6.277-.027.209-.358.251-.592a14.28,14.28,0,0,0,2.609-.151c.07-.006.432.048.473.009.347-.339.313.032.711.013.17-.008.273-.154.478-.19a12.241,12.241,0,0,1,1.421.025c.539-.038.6-.1,1.424-.173.072-.006.432.049.474.009.179-.176.253-.038.71.013-.048,0,.082-.224.243-.193.055.009,0,.218.23.2.168-.011.441-.139.716-.185.151-.026.324.037.475.009.116-.023.279-.2.241-.194.388-.017.8.245,1.178.22.459-.031.975-.108,1.426-.173.568-.083,1.5-.086,2.609-.152.546-.032.574-.275,1.426-.173.07.009.433-.032.473.009.452.484.766-.427,1.183.021.145.155.135.114.947.018.372-.045,2.575-.5,3.077.056.079.087-.009.251.231.2.353-.08-.086-.257.016-.6,1.48-.015,2.821.107,4.261.077.384-.009.407-.161.716-.186,1.106-.092,2.422.135,3.551.065.363-.023.424-.183.715-.186.39,0,.395.189.7.212.135.01.448-.167.716-.186-.077.006.115.318.231.2.016-.015.349-.329.479-.19.207.222.123.035.472.009,1.328-.1,2.631.135,3.786.069.37-.021.42-.178.717-.186.989-.025,2.062.091,3.078.056.383-.013.406-.159.715-.185-.079.007.118.317.232.2.351-.354.2.022.947.017a11.205,11.205,0,0,1,2.609-.151c.332.047.441.209.706.211-.014,0,1.777-.543,2.136-.159.17.184.249.045.708.013,2.41-.169,6.389.035,9.233.168a5.24,5.24,0,0,1,1.185.022c.307.329.326-.175,1.183.022a2.612,2.612,0,0,0,1.183.022c-.047,0,.068.227.231.2.034,0,.048-.187.242-.194a9.889,9.889,0,0,1,3.309.258l.947.017.947.017c-.044.232-.436.161-.715.186l-.709-.013c-.794.354-1.669.009-2.611.152a6.812,6.812,0,0,0-.951.182c-.092.031-.431.381-.485.388-.539.073-1.363-.084-1.893-.035-.409.038-.519.2-.953.181-.379-.013-.808-.225-1.178-.22a6.636,6.636,0,0,0-.953.181c-.4.028-2.573-.313-2.839-.051-.326.319-.321.006-.711-.013-.452-.022-.963.587-1.185-.021-.488.046-.485.521-.73.781a3.665,3.665,0,0,0-1.657-.03c-2.25.128-5-.266-7.338-.133-.371.021-.418.175-.715.186-.88.031-1.7-.074-2.6-.047-.381.011-.406.16-.715.185-1.225.1-2.748-.145-4.025-.073-.369.022-.416.178-.714.186-1,.029-1.883-.072-2.841-.052-.381.009-.41.176-.715.186-.828.027-1.746-.067-2.6-.047-.381.009-.41.172-.715.186-.709.031-1.42-.066-2.13-.039-.383.014-.408.157-.716.186-1.924.175-3.822-.013-5.686.094-.142.009-.967.415-1.19.178-.162-.174-.171-.1-.473-.009-.085.027-.418-.063-.473-.009-.306.3-.746-.452-1.184-.022-.1.1-.229.167-.947-.017-.208-.053-.363-.257-.706-.212-.267.033-.135.2,0,.2-.091.309-.412-.181-.478.19-.527.242-2.014-.39-2.366-.043-.013.013.012.2-.005.2-.353.042-.346-.2-.469-.208-.183-.012-.248.194-.479.19-.485-.009-.632-.219-.94-.216-.169,0-.425.159-.717.186a8.482,8.482,0,0,0-.947-.017c-.254.054-.173.384-.483.388-.342.189-.665-.211-.705-.211-.2,0-.239.215-.479.19a4.983,4.983,0,0,0-2.131-.039c-.4.075-.51.366-.948-.018-.361-.316-.165.125-.479.19-.5.1-.69-.5-.952.182a4.422,4.422,0,0,0-1.414-.225c-.712.072-.782.606-1.906.363-.075-.016-1.05-.619-.951.181-1.149-.581-1.857.2-3.083.143,0-.193-.286-.159-.469-.208-.235-.266-.213-.737-.447-1-.609.254.323.888.2,1.4-.437-.3-1.57-.037-1.883-.432a1.433,1.433,0,0,0-.49.587c-.408-.381-.74.259-.936-.414-.576.039-.867.55-1.668.367a2.3,2.3,0,0,0-1.661.169c-.522-.215-.351-.481-1.178-.221-.177.056-.254.186-.479.19-.515.012-.6-.2-.942-.216-.371-.013-.582.3-.952.182-.051-.016.033-.525-.226-.4-.353.08.087.255-.016.6-.191.186-1.173-.269-1.419-.026-.309.3-.263-.146-1.185-.022-.519.07-.454.336-.956.381a1.948,1.948,0,0,1-.473-.009c-.024-.021.023-.4.009-.4a3.172,3.172,0,0,0-.479.19c-.047.038-.2.38-.246.393-.062.019-.473-.217-.7-.211-.194,0-.394.176-.716.185-.675.02-1.08-.378-1.895-.034-.161-.615.824-.227.5-.985-.226.115-.214.3-.484.389-.4.132-1.161-.17-1.425.173-.448-.068-.377.514-.246.392-.2.183-.607.134-.722.385-.4-.137-.135-.46.247-.394-.141-.179-.275-.36.01-.4-.12-.451-.375.234-.7-.212-.864.111.526.938-.262.989-.968.043-.115-.417-.216-.8-.474-.077-.743.027-.722.384-.308-.076-.362-.356-.7-.409-.4.258-.39.877-.741,1.179a2.1,2.1,0,0,0-1.642-.626c.148.2.538.215.458.6a2.518,2.518,0,0,1-1.405-.622c-.589.011-.742.359-1.184-.022-.043.23.044.354.228.4-.11.236-.3-.009-.711-.013-.79-.007-.923.357-1.174-.418-.313.064-.382.344-.72.384.033.234.427.176.7.212-.364,1.04-1.98-.776-2.145.558a1.112,1.112,0,0,1-.695-.61c-.668.184.331.537-.258.79-.137-.278-.911-.046-.936-.414-.827.043,0,.538-.49.587-.908.02-.083-.164-.222-.6-.313.177-2.507.336-1.909.562-.112.286-.208-.022-.474-.009a2.084,2.084,0,0,0-1.2.574c-.47-.345-.65-1.338.041-1.589.6,0,.285.153.227.4.373.023.9-.079.94.216.234-.222,1.406-.639.97-.778.3-.6.9.157,1.176.22.185-.132.774-.823.711.013.325-.189.486-.521.731-.782a4.593,4.593,0,0,0,1.661-.168c.278.265.085.314-.015.6.5.1.459-.275.489-.587a2.387,2.387,0,0,0,1.415.224c.329-.03.055-.3.247-.393.36-.173,1.13.725.957-.381.236.107.177.33.463.407.455.121.754-.061.721-.385.208.126.417.247.473.009.683.124-.37.3-.253.592.624.071.621-.4.732-.782a.644.644,0,0,1,.7.41,1.016,1.016,0,0,1,1.185.022c.248-.189.488-.385.725-.583a.642.642,0,0,1,.7.41c.289-.025.285-.507.489-.587.247-.1.678.065.947.018.2-.036.24-.165.479-.19.34-.036.942.421.716-.186.625.441,1.014.674,1.651.23.144-.1.223.031.242-.195.068-.762.12.448.705.212.353-.08-.087-.256.015-.6.354.016,1.329.8,1.183.021.529-.1.329.385.7.41.278-.026.208-.358.252-.592.557.44,1.485-.072,2.135-.159.413-.056,1.006.421.953-.181a1.41,1.41,0,0,1,.459.6.732.732,0,0,1,.945.017c.3-.044.249-.391.01-.4-.028-.432.843-.075,1.19-.177.068-.211.613-.231.952-.182.668.1.174.316.938.415-.6-.736.378.026,1.188-.177q.37-.286.727-.584a2.389,2.389,0,0,1,1.645.428m-33.03,4.169c.362-.573-1.043-.6-.71-.013l.71.013m27.091-3.483.474.009c.381-.482-.79-.6-.706-.212.145.014.28.035.232.2m1.642.626c.27.054.361-.115.479-.19.157-.1.306-.3.484-.388-.4-.366-.933.044-.963.579m1.9-.165.474.009c0-.132.007-.264.01-.4l-.473-.009q-.006.2-.011.4m-2.609.152.473.009c0-.133.007-.264.01-.4l-.473-.009c0,.133-.007.265-.01.4m-6.176.683c-.07.128-.711-.213-.706-.212a.207.207,0,0,1-.242.195c-.04-.007-.005-.323-.231-.2.19.842,1.064.432,1.178.22" transform="translate(-64.444 -72.44)" fill-rule="evenodd"/>
      <path id="パス_66796" data-name="パス 66796" d="M64.457,121.426c-.11.31-.75.156-.493.786-.277-.038-.192-.366-.222-.6-.231,0-.19.24-.248.393-.382.049-.4-.195-.7-.212-.212.085-.428.167-.484.389-.192-.041-.232-.2-.468-.208l-.71-.013c.076-.288.6-.128.952-.181a10.935,10.935,0,0,1,2.378-.354" transform="translate(-33.986 -76.179)" fill-rule="evenodd"/>
      <path id="パス_66797" data-name="パス 66797" d="M94.67,125.364c.567.092.523-.354,1.188-.177a1.126,1.126,0,0,1-.726.583c.141.18.278.361-.01.4-.292.273-.091.015,0-.2a.555.555,0,0,1-.456-.6" transform="translate(-52.635 -78.515)" fill-rule="evenodd"/>
      <path id="パス_66798" data-name="パス 66798" d="M105.226,127.547c.268.043.127.2-.005.2.2.585,1.887.2.711.013.266-.388,1.971-.3,1.647.428-1.031-.159-1.342.313-2.373.155.1-.336-.174-.378-.463-.406.064-.215.475-.126.484-.389" transform="translate(-58.236 -80.013)" fill-rule="evenodd"/>
      <path id="パス_66799" data-name="パス 66799" d="M101.539,128.232c.425.032.506-.234.953-.182a.552.552,0,0,0,.458.6c-.052.225-.242.106-.236,0-.58.118-1.229.38-1.175-.418" transform="translate(-56.454 -80.334)" fill-rule="evenodd"/>
      <path id="パス_66800" data-name="パス 66800" d="M138.273,132.792c-.346.543-1.691-.611,0,0" transform="translate(-76.415 -83.198)" fill-rule="evenodd"/>
      <path id="パス_66801" data-name="パス 66801" d="M105.6,133.125c-.477-.4-.212-.4-.71-.013.051.469,1.045.14.951-.181.351.093-.1.252-.016.6-.472-.077-.739.026-.719.384-.63-.306-1.145.2-.7-.41l-.474-.009c-.5.235.439.336-.719.384a3.151,3.151,0,0,0-1.427.173c-.286.147-1.731.387-2.383.553-.373-.153.08-.971-.689-.807.07-.179.9-.651.952-.181a2.091,2.091,0,0,1,1.436-.571c.226.208.456.41.694.609.333-.064.03-.35-.226-.4.044-.7.773.436.716-.186.23.01.177.247.226.4.363-.291,1.005-.338,1.2-.774.276.038.19.366.22.6.216-.118.431-.232.474.009.324-.056.21-.494.258-.791l1.183.022a.851.851,0,0,0-.251.591m-5.949,1.085c.115.064.393-.171.478-.19-.036.009.074.33.232.2a1.965,1.965,0,0,0,.01-.4c-.216-.105-.431.185-.479.19-.29.031-.554.023-.241.195" transform="translate(-54.886 -83.138)" fill-rule="evenodd"/>
      <path id="パス_66802" data-name="パス 66802" d="M88.869,137.259c.149.2.54.215.459.6-.449-.093-.414-.575-1.174-.42l.011-.4c-.418.04-.548.332-.494.786-.287.048-.107-.319-.225-.4.037.027-1-.168-.706-.211-.118.017-.3.389-.248.392-.259-.017-.147-.426-.463-.405.019-.545,1.129-.452,1.426-.173-.343-.979-1.063-.214-2.126-.238-.034-.751,1.516-.245,1.91-.561.018-.015-.016-.195,0-.2.821-.143,1.764-.033,2.609-.151a.644.644,0,0,1-.951.181c.154.611-.262.72-.268,1.188.488-.047.485-.522.73-.782.455-.085,1,.631.953-.182.34.115,1.229-.209,1.178.22.057.357-.234.4-.243.194-.353.081.087.256-.016.6a1.784,1.784,0,0,1-1.189.177c-.277-.265-.084-.314.015-.6l-.472-.009c-.271.033-.138.2-.005.2-.045.233-.436.16-.716.186m-.932-.614.474.009c0-.132.007-.265.01-.4l-.473-.008-.011.4m2.353.639.473.009c0-.133.007-.265.011-.4l-.473-.008c0,.132-.006.265-.01.4" transform="translate(-47.442 -85.254)" fill-rule="evenodd"/>
      <path id="パス_66803" data-name="パス 66803" d="M78.14,138.24c-.164.67-1.6.223-2.146.557-.583-.272.35-.065.479-.189.018-.019-.019-.193.005-.2.388-.1,1.352-.074,1.662-.169" transform="translate(-42.146 -86.731)" fill-rule="evenodd"/>
    </g>
    <path id="パス_72340" data-name="パス 72340" d="M-37.63-7.54A5.486,5.486,0,0,0-37.77-9c-.12-.26.02-.46-.16-.72-.18-.28-.14-.52-.22-.68a2.479,2.479,0,0,0-.28-.66.979.979,0,0,1-.34-.64,3.914,3.914,0,0,0-.4-.6,1.782,1.782,0,0,1-.2-.32.87.87,0,0,0-.24-.22c-.06-.2-.42-.44-.5-.52-.3-.2-.42-.38-.54-.44-.14-.1-.5-.16-.58-.4a.815.815,0,0,1-.62-.34,1.061,1.061,0,0,1-.66-.28c-.18-.16-.46,0-.7-.2-.24.02-.36-.14-.6-.14-.04,0-.08.02-.12.02a2.588,2.588,0,0,0-.5-.04h-.26c-.46.04-.56.16-.76.04a.254.254,0,0,0-.12-.02c-.22,0-.4.2-.62.16-.22.02-.46.22-.7.2a1.454,1.454,0,0,0-.66.28l-.62.34c-.32.2-.5.14-.6.4-.08.08-.38.42-.54.46-.24.26-.42.22-.5.52-.28.28-.42.34-.46.56-.02.12-.42.48-.4.6-.1.18-.36.34-.36.64-.16.34-.26.4-.28.66a2.048,2.048,0,0,1-.24.7c-.06.38.14.7-.22.94.02.38-.12.6-.12.94a2.08,2.08,0,0,0,.04.3,2.286,2.286,0,0,1,0,.64,1,1,0,0,0,.06.32,6.793,6.793,0,0,1,.16.92c.24.16.26.26.24.38a1.243,1.243,0,0,0,.04.52,3.055,3.055,0,0,1,.38.84c0,.18.4.46.48.8.22.14.28.62.58.74a2.055,2.055,0,0,0,.68.64c.16.24.52.38.76.58a2.7,2.7,0,0,0,.96.48,10.091,10.091,0,0,1,1.14.48c.2.1.16.36.26.76a5.685,5.685,0,0,0,.54,1.4c.02.2.3.4.4.52.08.24.22.24.46.42a.37.37,0,0,0,.24.16c.12.02.26.04.3.18a.44.44,0,0,0,.26.08c.12.02.22.02.3.18a3.127,3.127,0,0,0,1.24.34,2.263,2.263,0,0,0,.78.14,2.268,2.268,0,0,0,.5-.06c.2-.02.48.02.76.02A1.83,1.83,0,0,0-39.99,4c.38-.12.88-.14,1.22-.28.2-.08.26-.2.26-.32,0-.24-.24-.46-.4-.4a.362.362,0,0,0-.3.04.466.466,0,0,1-.42.1,2.932,2.932,0,0,1-.9.14,3.833,3.833,0,0,1-1.1-.22,7.548,7.548,0,0,1-.8-.6,2.661,2.661,0,0,1-.5-.9c0-.32-.14-.72-.16-1.12.06-.14-.04-.28.14-.64.1-.1.2-.04.42-.18a3.978,3.978,0,0,0,.94-.44c.12-.1.18-.14.46-.34.28-.12.44-.18.48-.34.02-.14.08-.16.2-.2a1.31,1.31,0,0,0,.26-.16c.26-.14.24-.28.42-.4.2-.18.22-.26.38-.42.16-.04.24-.3.5-.52.16-.44.4-.5.46-.9a11.419,11.419,0,0,1,.44-1.06c0-.3.3-.62.26-1.16.02-.4.1-.7.1-1.04Zm-3.34,1.46c.1.2-.16.48-.08.72a.868.868,0,0,1-.1.74,1.049,1.049,0,0,0-.04.34.373.373,0,0,1-.12.38c-.16.2-.02.56-.22.68a3.2,3.2,0,0,1-.28.66c0,.24-.04.34-.12.4-.12.04-.18.06-.18.18-.02.3-.44.3-.54.56a.9.9,0,0,1-.26.2c-.16.08-.26.08-.36.24-.1.2-.32.16-.7.28a3.793,3.793,0,0,0-.74.1c-.3.04-.42-.16-.76-.1a2.131,2.131,0,0,1-.7-.3c-.18-.1-.56-.2-.64-.44-.2-.02-.34-.44-.52-.54-.02-.12-.34-.24-.36-.56a.724.724,0,0,1-.3-.62c-.06-.32-.28-.48-.2-.68.06-.22-.14-.44-.14-.7a6.707,6.707,0,0,1-.14-1.42,3.44,3.44,0,0,1-.02-1.36l.02-1.3c-.12-.52.12-.8.1-1.34a4.435,4.435,0,0,0,.24-1.3.634.634,0,0,1,.2-.62c.18-.1.2-.52.24-.62a1.819,1.819,0,0,1,.5-.84c.12-.14.38-.58.68-.68.18-.26.58-.32.84-.46.18-.18.56-.12.96-.18a1.327,1.327,0,0,1,.82.12,3.447,3.447,0,0,0,.76.34,3.177,3.177,0,0,1,.64.54,1.226,1.226,0,0,1,.5.66c.18.08.16.54.32.64.18.2.02.48.24.66.14.14.1.58.18.68a3.331,3.331,0,0,0,.14.7,4.2,4.2,0,0,0,.14,1.42c.06.44-.06,1,.04,1.42C-40.91-7.08-41.03-6.54-40.97-6.08Zm15.04,5.1a1.763,1.763,0,0,0-.64.02c-.24.08-.66-.48-.52-.76.02-.46-.02-1,0-1.34.12-.48-.06-.6,0-1.1-.1-.38.12-.62,0-1.1a6.633,6.633,0,0,1,0-1.1c.22-.5-.14-.82,0-1.1l.02-.66c.1-.38-.08-.7.04-.94a.521.521,0,0,0-.38-.8.152.152,0,0,0-.08.04,5.058,5.058,0,0,0-.78.18c-.3.2-.52-.02-.9.14a5.658,5.658,0,0,0-.9.04,5.311,5.311,0,0,0-.8,0,.389.389,0,0,0-.22.36c0,.12.08.26.32.32a2.2,2.2,0,0,0,.68.04c.34,0,.54.16.42.52a7.62,7.62,0,0,1,0,.96,3.93,3.93,0,0,0,0,.84c.04.3-.08.68,0,.84-.06.16.12.62,0,.82-.08.28.04.44,0,.84-.12.36.1.7,0,.82-.04.22.06.54,0,.84a1.671,1.671,0,0,0-.46.46l-.2.18a1.055,1.055,0,0,0-.28.2,1.392,1.392,0,0,1-1.2.36c-.4.12-.6-.18-.76-.18a1.15,1.15,0,0,1-.4-.48.645.645,0,0,1-.18-.66,3.462,3.462,0,0,1-.04-.78,3.187,3.187,0,0,0,0-1.24c-.06-.48.12-.74,0-1.22a8.249,8.249,0,0,0,0-1,2.77,2.77,0,0,0,.02-1,2.258,2.258,0,0,0,.1-.78c.06-.44.04-.68.1-1.08a.306.306,0,0,0-.28-.38.18.18,0,0,0-.1.02c-.26.06-.66.18-.86.22-.34-.02-.7.14-.86.12a4.321,4.321,0,0,0-.86-.04,1.371,1.371,0,0,0-.82.08.376.376,0,0,0-.16.34.321.321,0,0,0,.18.32,1.093,1.093,0,0,0,.64.08c.24-.02.38.24.34.8a13.45,13.45,0,0,0-.02,1.54,9.117,9.117,0,0,0-.02,1.28c-.04.42,0,.96-.02,1.26.1.44-.08.62.02,1.08-.08.5.06.6.26,1.04a6.144,6.144,0,0,0,.48.7c.14.22.46.3.66.52a1.54,1.54,0,0,0,.8.32,2.658,2.658,0,0,1,.84.12c.4,0,.66-.14.92-.12.36-.04.44-.22.8-.32a1.714,1.714,0,0,0,.88-.5c.26-.24.46-.14.52.1,0,.22-.04.36-.04.62,0,.16.14.28.36.34.04,0,.06.02.1.02.24,0,.48-.24.72-.18.2-.04.58-.08.8-.14a7.354,7.354,0,0,1,.94,0c.3-.04.62.08.8-.02a.355.355,0,0,0,.3-.34A.4.4,0,0,0-25.93-.98Zm2.6-11.48c.26.22.44.38.7.38a1.835,1.835,0,0,0,1.32-.3,1.1,1.1,0,0,0,.48-1.04,1.716,1.716,0,0,0-.36-.9.363.363,0,0,1-.3-.22.315.315,0,0,0-.14-.14,1.089,1.089,0,0,0-.5-.18.254.254,0,0,0-.12.02,1.554,1.554,0,0,0-.78.26c-.06.04-.06.16-.28.2-.24.36-.44.48-.3.94a1.2,1.2,0,0,0,.06.58.339.339,0,0,0,.12.16A.337.337,0,0,1-23.33-12.46Zm3.5,11.58a1.51,1.51,0,0,0-.7-.04.358.358,0,0,1-.46-.38c0-.5-.04-.82,0-1.24a.583.583,0,0,1-.12-.3c0-.12.08-.2.1-.36a3.222,3.222,0,0,1,.02-.98A5.172,5.172,0,0,1-21.01-5c-.02-.3-.22-.46.02-.84.04-.24-.16-.34-.04-.68.02-.24-.18-.48.02-.7.02-.4,0-.96.04-1.22a4,4,0,0,1,.04-.7.9.9,0,0,0,0-.52c-.14-.24-.38-.18-.54-.12-.4.22-.54.12-.76.18a2.2,2.2,0,0,1-.78.08,7.034,7.034,0,0,1-.9.06c-.28.02-.48.02-.8.02-.14-.02-.24.16-.24.32a.273.273,0,0,0,.3.3c.2.04.42-.02.7.02.16.02.22.18.28.38.04.22.06,1.24.06,1.5v1c-.12.28.08.94,0,1.22-.14.46.16.78.02,1.18-.14.26.1.52-.02.96a4.914,4.914,0,0,0-.08,1.2c.04.26-.04.42-.36.44h-.76c-.16-.04-.32.16-.32.34,0,.14.1.3.36.3h.3c.4,0,.62-.02.96-.04.42-.02.76,0,1.14-.02a9.976,9.976,0,0,0,1.34,0,1.453,1.453,0,0,0,.5.08c.2,0,.4-.02.64-.04h.04c.1,0,.16-.14.16-.28V-.64C-19.69-.76-19.73-.88-19.83-.88Zm9.6-1.6a10.333,10.333,0,0,1,.12-1.34.215.215,0,0,0-.24-.22.36.36,0,0,0-.32.18.75.75,0,0,0-.1.34,1.177,1.177,0,0,1-.04.34c-.08.26-.06.52-.22.72.02.44-.4.46-.48.8a1.3,1.3,0,0,1-.88.56c-.46.04-.82.08-1.36.08a6.019,6.019,0,0,1-1.04,0c-.44.02-.68-.16-.56-.34.14-.2.16-.56.3-.58.14-.06.14-.3.34-.52a2.461,2.461,0,0,0,.34-.5.6.6,0,0,0,.08-.28c.02-.18.04-.22.26-.24.14-.2.14-.34.32-.52.08-.14.1-.2.14-.26a1.339,1.339,0,0,1,.2-.24c.22-.04.18-.4.34-.52a2.907,2.907,0,0,0,.34-.52c.14-.22.12-.36.34-.5.12-.04.12-.16.12-.26a.221.221,0,0,1,.1-.2.414.414,0,0,0,.2-.28c.02-.08.08-.16.24-.26.14-.12.12-.32.34-.54.24-.24.32-.36.34-.52-.04-.12.28-.42.32-.5a.388.388,0,0,0,.18-.2,1.306,1.306,0,0,1,.16-.14c.12-.16.06-.48-.04-.52a.882.882,0,0,0-.28-.06c-.06,0-.12.02-.18.02a1.234,1.234,0,0,1-.48.04,1.84,1.84,0,0,0-.78.06c-.44.08-.6-.1-.88-.04-.5.08-1.04-.04-1.52,0-.2.16-.38-.06-.7,0a2.588,2.588,0,0,1-.88,0,3.027,3.027,0,0,0-.6-.04h-.74a.507.507,0,0,0-.32.08c-.06.04-.08.14-.06.26.04.4-.14.62-.02.86.1.18-.14.48-.06.74a.222.222,0,0,1,.04.28.355.355,0,0,0-.08.2,1.014,1.014,0,0,1-.04.18.49.49,0,0,0-.02.3.214.214,0,0,1,0,.16.363.363,0,0,0,.04.34c.06.12.52.22.58-.02.04-.16-.02-.46.06-.6a.331.331,0,0,0,0-.24.181.181,0,0,1,.08-.22l.06-.5c.04-.36.34-.38.46-.58.1-.18.5-.2.66-.32a1.476,1.476,0,0,1,.76-.16,1.3,1.3,0,0,1,.72-.04.637.637,0,0,1,.6,0c.26-.04.42-.06.5,0,.06.04.08.1.06.22-.04.12-.1.4-.34.5-.2.28-.32.34-.34.48a5.675,5.675,0,0,1-.62.86c-.28.22-.42.7-.6.86a3.456,3.456,0,0,1-.58.88,6.583,6.583,0,0,0-.6.92,4.3,4.3,0,0,0-.42.7c.06.28-.12.4-.42.58a.3.3,0,0,0-.06.2.176.176,0,0,1-.18.16c-.1.12-.22.46-.32.5-.22.24-.18.44-.32.5-.14.14-.12.32-.4.48a.261.261,0,0,0-.14.24.812.812,0,0,0,.1.34.382.382,0,0,0,.3.1.75.75,0,0,0,.2-.02,3.609,3.609,0,0,1,.94-.02A3.807,3.807,0,0,1-16.03-.3c.26.06.6-.06,1.16,0a10.83,10.83,0,0,0,1.14,0,3.894,3.894,0,0,1,1.44.02c.54.04.84-.04,1.44.04.04.04.08.04.16.04.16,0,.4-.12.32-.32a6.741,6.741,0,0,0,.02-.88C-10.43-1.8-10.15-2.04-10.23-2.48ZM8.61-5.72c-.1-.18-.22-.72-.28-.86a4.891,4.891,0,0,0-.44-.7c-.18-.1-.4-.42-.6-.58-.36-.16-.46-.4-.7-.48-.26-.1-.5-.4-.78-.38a.608.608,0,0,1-.5-.18.559.559,0,0,0-.34-.18c-.3.02-.34-.16-.72-.26-.34.08-.42-.16-.62-.18a3.826,3.826,0,0,1-.98-.34,3.2,3.2,0,0,1-.9-.5,3.7,3.7,0,0,1-.64-.74,1.743,1.743,0,0,1-.24-.98c.04-.48-.02-.62.24-1,.22-.34.32-.6.6-.76a1.4,1.4,0,0,1,.88-.48,6.573,6.573,0,0,1,1-.18,4.989,4.989,0,0,1,.84.12,2.543,2.543,0,0,1,.78.32c.32-.02.4.08.48.28a2.911,2.911,0,0,1,.72.88,2.582,2.582,0,0,1,.42,1.06c.02.3.06.6.1,1,0,.22.18.32.38.32.22,0,.44-.14.4-.36,0-.3-.04-.52-.06-.86.04-.4-.06-.66-.06-1.18.12-.34,0-.4.02-.8a4.069,4.069,0,0,1,.06-.8c.06-.2-.18-.34-.36-.34a.185.185,0,0,0-.2.12.552.552,0,0,1-.12.16c-.06.04-.12.06-.16.16-.08.12-.22.14-.4.1a1.653,1.653,0,0,1-.62-.32c-.3,0-.3-.16-.64-.28a.671.671,0,0,1-.32-.12.427.427,0,0,0-.36-.06,4.46,4.46,0,0,1-.78-.08.34.34,0,0,0-.14.02c-.18.14-.4-.02-.84.12-.26-.04-.48.18-.84.26-.38.06-.46.28-.78.4a1.671,1.671,0,0,0-.68.54c-.32.26-.4.56-.54.64a1.627,1.627,0,0,0-.38.74c-.04.28-.24.6-.24.78a1.185,1.185,0,0,0-.1.54c0,.12.02.22.02.28a4.655,4.655,0,0,0,.12.98,1.3,1.3,0,0,0,.3.92c.22.18.26.58.52.84.1.24.48.5.7.68a7.512,7.512,0,0,0,.82.46.293.293,0,0,1,.34.12.33.33,0,0,0,.2.16,3.726,3.726,0,0,1,.82.34c.26-.02.4.2.74.18.22-.08.34.14.58.22.38.16.7.2.96.34a1.25,1.25,0,0,1,.88.48,1.477,1.477,0,0,1,.64.7A1.962,1.962,0,0,1,7.03-3.4a1.982,1.982,0,0,1-.26,1.12,2.993,2.993,0,0,1-.76.84,3.373,3.373,0,0,1-1.04.52,4.279,4.279,0,0,1-1.16.18,5.377,5.377,0,0,1-.92-.1,1.142,1.142,0,0,1-.78-.26c-.24-.14-.48-.18-.66-.44a.729.729,0,0,1-.26-.2c-.08-.08-.12-.18-.28-.36A6.4,6.4,0,0,1,.39-3a.273.273,0,0,1-.18-.3.591.591,0,0,0-.04-.26,1.582,1.582,0,0,1-.2-.68,5.324,5.324,0,0,0-.14-.78.249.249,0,0,0-.28-.22.435.435,0,0,0-.32.14.384.384,0,0,0-.08.24,2.739,2.739,0,0,0,.04.32c.04.3.06.6.1.9A10.372,10.372,0,0,1-.69-2.52c-.06.34.04.56-.02.9-.08.28-.04.48-.1.82v.06a.386.386,0,0,0,.62.28c.14-.12.26-.48.34-.56.14-.1.26-.1.54.02a4.656,4.656,0,0,0,.64.32,2.119,2.119,0,0,0,.64.3.509.509,0,0,0,.28.06.377.377,0,0,1,.36.16,5.031,5.031,0,0,0,.98.14.75.75,0,0,0,.22-.02c.26-.12.72.06,1.04-.1a4.51,4.51,0,0,1,.88-.24,1.934,1.934,0,0,0,.82-.4c.14-.24.44-.24.74-.56a2.769,2.769,0,0,1,.6-.68,3.688,3.688,0,0,0,.56-1.16c-.02-.24.02-.3.08-.36a.22.22,0,0,0,.08-.18,8.466,8.466,0,0,1,.1-1v-.14c0-.14.02-.28.02-.42A1.323,1.323,0,0,0,8.61-5.72Zm9.5,3.8c-.16.16-.28.24-.4.38a2.376,2.376,0,0,1-.64.44,4.629,4.629,0,0,1-.7.28c-.16,0-.52.08-.8.1a1.712,1.712,0,0,1-.74-.1c-.24.06-.32-.22-.58-.32-.12-.12-.32-.32-.46-.44a.5.5,0,0,1-.34-.52c-.02-.16-.2-.46-.24-.62-.12-.22-.06-.54-.14-.7-.14-.52.02-.86-.1-1.38a1.564,1.564,0,0,1,.02-.86c.14-.2-.04-.7.1-.92.16-.3.04-.72.2-.9a1.644,1.644,0,0,0,.34-.8c.18-.2.5-.62.74-.64a3.4,3.4,0,0,1,.96-.22,5.114,5.114,0,0,1,.96.2c.18.1.62.24.58.7,0,.28-.08.4-.22.46a1.712,1.712,0,0,0-.2.62c-.06.14.14.52.24.66a1.047,1.047,0,0,0,.74.26.584.584,0,0,0,.78-.32.542.542,0,0,0,.24-.42.294.294,0,0,1,.08-.24,1.968,1.968,0,0,0-.36-1.22,2.583,2.583,0,0,0-.88-.72c-.36-.28-.58-.16-1.06-.4a2.187,2.187,0,0,0-.9-.16,1.063,1.063,0,0,0-.28.02c-.18-.02-.32-.04-.44-.04a1.219,1.219,0,0,0-.56.14c-.4.16-.6.06-.92.28a5.111,5.111,0,0,0-.84.44c-.26.32-.44.26-.74.6a1.554,1.554,0,0,0-.6.72c-.14.28-.44.6-.44.84a5.481,5.481,0,0,0-.3.92.5.5,0,0,0-.02.34c.04.16.1.3-.08.46.04.42.04,1,.1,1.2l.28.9c.1.44.38.42.44.82.08.38.52.34.58.7.14.34.4.3.7.58.2.1.6.34.82.42a2.639,2.639,0,0,0,.92.28,7.476,7.476,0,0,0,.98.08c.18.02.32.04.44.04a1.634,1.634,0,0,0,.66-.14,1.336,1.336,0,0,0,1-.3c.18-.18.46-.18.88-.5a1.949,1.949,0,0,0,.7-.7.073.073,0,0,0,.02-.06.383.383,0,0,0-.34-.34A.276.276,0,0,0,18.11-1.92Zm11.7-2.94a3.546,3.546,0,0,1-.08-1.04c-.06-.2-.08-.78-.28-.94a4.915,4.915,0,0,1-.44-.84c-.12-.22-.48-.42-.58-.7-.24-.06-.44-.5-.72-.56-.34-.16-.48-.26-.84-.42-.36-.04-.68-.26-.94-.26-.28.06-.48-.1-.84-.1a.75.75,0,0,0-.2.02h-.26a2.658,2.658,0,0,0-.76.08,2.586,2.586,0,0,0-.96.28c-.38.22-.62.16-.84.42-.34.1-.46.4-.74.58-.34.14-.38.54-.6.7-.2.26-.32.68-.52.96a.353.353,0,0,0-.08.32.925.925,0,0,1-.14.5.683.683,0,0,0-.08.46,1.159,1.159,0,0,1-.02.58,1.376,1.376,0,0,0-.04.26,4.01,4.01,0,0,0,.14.76c0,.26.28.72.28.92a3.858,3.858,0,0,0,.52.92c.26.1.28.18.3.26a.375.375,0,0,0,.2.36c.26.18.4.42.76.54a.852.852,0,0,1,.3.18.849.849,0,0,0,.54.24c.36.06.62.32.94.26a4.574,4.574,0,0,0,.8.12.75.75,0,0,0,.22-.02h.12c.18,0,.32.02.44.02h.04a.735.735,0,0,0,.44-.12,4.853,4.853,0,0,0,.94-.26c.32-.04.56-.3.86-.4a1.9,1.9,0,0,0,.72-.58c.22-.08.28-.5.6-.7.08-.2.32-.6.52-1.04a.844.844,0,0,0,.04-.36.321.321,0,0,1,.16-.36A6.876,6.876,0,0,0,29.81-4.86Zm-2.88.84c-.06.28.08.72-.08.86-.08.34-.04.66-.16.84-.22.24-.14.42-.3.8a1.339,1.339,0,0,1-.62.72,1.714,1.714,0,0,1-.9.28,1.41,1.41,0,0,1-.66-.14,1.974,1.974,0,0,1-.66-.58l-.22-.3c-.18-.18-.16-.48-.26-.64-.16-.18-.12-.48-.18-.7,0-.22-.14-.36-.08-.72.08-.46-.18-.94-.06-1.26a1.912,1.912,0,0,1,.06-1.28c-.04-.36.16-.42.08-.72a2.136,2.136,0,0,1,.16-.72c0-.34.28-.38.26-.64-.02-.2.08-.24.2-.32a.9.9,0,0,0,.18-.2.4.4,0,0,1,.3-.24,1.28,1.28,0,0,0,.22-.12,2.6,2.6,0,0,1,.66-.12,1.413,1.413,0,0,1,.94.32c.28.3.56.46.58.68.12.32.28.4.3.8a5.671,5.671,0,0,0,.16.84c.16.14.16.26.12.36a.855.855,0,0,0-.1.36c.04.44.2.78.08,1C26.89-4.7,27.03-4.28,26.93-4.02Zm14.4-1.84a4.946,4.946,0,0,0-.2-.86.4.4,0,0,1-.2-.36.7.7,0,0,0-.12-.46c-.28-.34-.2-.58-.46-.72-.14-.34-.48-.3-.58-.6a4.766,4.766,0,0,0-.7-.48c-.34-.08-.52-.24-.82-.3a3.6,3.6,0,0,1-.92-.1,2.138,2.138,0,0,0-.92.1,2.575,2.575,0,0,1-.78.32c-.14.18-.58.38-.76.56-.34.34-.52.26-.48-.06-.04-.16.08-.52-.02-.76a.476.476,0,0,0-.34-.24.12.12,0,0,0-.08.02c-.38.2-.64.06-.84.24-.08.08-.12.04-.24.02a.613.613,0,0,0-.32.02,4.828,4.828,0,0,1-1.04.08,6.621,6.621,0,0,1-.86-.02.31.31,0,0,0-.16.58,1.827,1.827,0,0,0,.64.04c.24.02.5.04.54.4.06.3-.02.66.06.92a7.98,7.98,0,0,1,0,1.2c.06.54-.08.72,0,1.22.12.46-.14.86,0,1.22.22.58-.1.86.06,1.18a.519.519,0,0,1,.02.42.956.956,0,0,0-.04.64c.14.46-.08,1.04-.04,1.42.12.54-.1.96.04,1.3a.693.693,0,0,1,.04.48.713.713,0,0,0-.02.54.465.465,0,0,1,.04.42.861.861,0,0,0-.08.4,9.279,9.279,0,0,1-.1,1.3c-.02.22-.2.26-.42.3a3.546,3.546,0,0,1-.66,0,.312.312,0,0,0-.3.32c0,.16.1.3.34.3h1.22c.18,0,.3-.16.56,0h.1c.08,0,.12-.02.18-.02a.72.72,0,0,1,.36,0,.472.472,0,0,0,.24-.02.334.334,0,0,1,.28,0,5.827,5.827,0,0,1,1.06.06c.38,0,.7,0,1.14.02a.251.251,0,0,0,.22-.28.312.312,0,0,0-.24-.34,4.26,4.26,0,0,1-.82-.06.466.466,0,0,1-.44-.52c-.04-.32.02-.84-.02-1.24a5.22,5.22,0,0,0-.02-1.12c-.06-.14.12-.6,0-.96.02-.4.02-1,0-1.24-.02-.26.3-.32.56-.04.14.12.44.2.6.34a3.2,3.2,0,0,0,.92.2.916.916,0,0,0,.34-.02.256.256,0,0,1,.3.1,2.789,2.789,0,0,0,.96-.16c.44-.1.72-.28.94-.3a2.629,2.629,0,0,0,.78-.56c.24-.16.18-.38.46-.56a3.242,3.242,0,0,0,.56-.84c.04-.28.3-.34.26-.74a5.518,5.518,0,0,0,.22-.88c-.04-.36-.08-.5.06-.74a1.042,1.042,0,0,0,.04-.28A6.172,6.172,0,0,0,41.33-5.86ZM38.47-3.88a2.274,2.274,0,0,0-.1.7,1.031,1.031,0,0,0-.18.68,1.035,1.035,0,0,1-.28.6c-.02.16-.18.28-.4.5-.1.04-.36.36-.52.32a4.893,4.893,0,0,1-.68.12.515.515,0,0,1-.66-.12c-.18-.12-.52-.14-.6-.3-.34-.24-.34-.34-.56-.68a1.634,1.634,0,0,1-.12-.88,3.012,3.012,0,0,1,0-1.12c-.02-.26.02-1.2,0-1.54a.376.376,0,0,1-.06-.42.639.639,0,0,0,.06-.28c.08-.34-.08-.56.02-.88-.02-.26.24-.54.4-.74.28-.24.34-.42.48-.44a2.673,2.673,0,0,1,1.32-.3c.38.04.66-.06.98.28a1.93,1.93,0,0,1,.62.92,6.945,6.945,0,0,0,.28,1.16c.02.38.06.76.08,1.14A10.9,10.9,0,0,1,38.47-3.88ZM51.31-2.62c-.28.34-.34.54-.46.66-.08.34-.48.36-.62.64-.36.32-.54.2-.78.42a2.254,2.254,0,0,1-1,.14,2,2,0,0,1-.86-.1,1.435,1.435,0,0,1-.66-.28,1.16,1.16,0,0,1-.52-.44c-.2-.22-.14-.32-.38-.58-.18-.2-.14-.56-.24-.66-.12-.1-.1-.2-.1-.36a.98.98,0,0,0-.06-.38,1.387,1.387,0,0,1-.08-.78.67.67,0,0,0-.02-.46.844.844,0,0,1,0-.32l.02-.08c.14-.18.24-.32.44-.32h1.42c.38-.1.48.06.94,0a2.946,2.946,0,0,1,.94,0c.34.06.7-.04,1.24.02a4.706,4.706,0,0,0,1.16-.06c.16.04.34-.16.34-.4a.34.34,0,0,0-.02-.14,1.542,1.542,0,0,0-.32-1.1.688.688,0,0,1-.16-.28.81.81,0,0,0-.16-.26c-.16-.06-.14-.28-.38-.5a2.086,2.086,0,0,0-.7-.64,4.591,4.591,0,0,0-.8-.46,1.519,1.519,0,0,0-.88-.28c-.26.06-.66-.12-.86-.12-.04,0-.06.02-.08.02-.36.12-.56-.04-1,.1a2.2,2.2,0,0,0-.92.28c-.22.16-.68.24-.84.46-.18.2-.6.26-.74.58-.14.3-.44.36-.58.72-.14.34-.38.42-.46.84a.361.361,0,0,1-.06.38.418.418,0,0,0-.16.26,10.148,10.148,0,0,0-.18,1.12.39.39,0,0,0,.02.16,1.057,1.057,0,0,0-.02.24c0,.28.1.44.12.78a1.352,1.352,0,0,0,.28.94c.12.42.34.44.44.8a1.616,1.616,0,0,0,.6.7.5.5,0,0,0,.24.14c.14.04.24.06.28.32a5.135,5.135,0,0,0,1.04.54,2.864,2.864,0,0,0,.92.26,1.173,1.173,0,0,0,.46.08h.38a.554.554,0,0,1,.18.02,3.7,3.7,0,0,1,.48-.02h.2a1.991,1.991,0,0,0,.72-.14,2.384,2.384,0,0,0,1.1-.46l.4-.26c.06-.18.3-.3.5-.52.12-.16.28-.34.4-.52.08-.18.26-.24.32-.48.06-.16-.14-.34-.3-.34A.167.167,0,0,0,51.31-2.62Zm-5.5-4.7c.06-.24.04-.58.24-.78a4.3,4.3,0,0,1,.64-.8,1.6,1.6,0,0,1,1.02-.3,1.467,1.467,0,0,1,.98.32c.26.16.32.5.52.8.22.28.06.6.22.82a4.455,4.455,0,0,1,.04.88c.02.3-.06.4-.48.38-.56-.02-1.02.02-1.46,0-.32.02-1,0-1.38,0-.42,0-.58-.16-.52-.62a.506.506,0,0,0,.06-.36A.442.442,0,0,1,45.81-7.32Z" transform="translate(242.738 1237.605)" fill="#fff"/>
  </g>
</svg>
